<?xml version="1.0" encoding="UTF-8" standalone="no"?>
<!DOCTYPE svg PUBLIC "-//W3C//DTD SVG 1.1//EN"
 "http://www.w3.org/Graphics/SVG/1.1/DTD/svg11.dtd">
<!-- Generated by graphviz version 2.38.0 (20140413.2041)
 -->
<!-- Title: ofxOui::DraggableButton::DropEvent Pages: 1 -->
<svg width="389pt" height="370pt"
 viewBox="0.00 0.00 388.93 370.00" xmlns="http://www.w3.org/2000/svg" xmlns:xlink="http://www.w3.org/1999/xlink">
<g id="graph0" class="graph" transform="scale(1 1) rotate(0) translate(4 366)">
<title>ofxOui::DraggableButton::DropEvent</title>
<polygon fill="white" stroke="none" points="-4,4 -4,-366 384.93,-366 384.93,4 -4,4"/>
<!-- Node2 -->
<g id="node1" class="node"><title>Node2</title>
<polygon fill="#bfbfbf" stroke="black" points="75.5889,-0.5 75.5889,-28.5 201.101,-28.5 201.101,-0.5 75.5889,-0.5"/>
<text text-anchor="start" x="83.5889" y="-16.5" font-family="Helvetica,sans-Serif" font-size="10.00">ofxOui::DraggableButton</text>
<text text-anchor="middle" x="138.345" y="-6.5" font-family="Helvetica,sans-Serif" font-size="10.00">::DropEvent</text>
</g>
<!-- Node3 -->
<g id="node2" class="node"><title>Node3</title>
<polygon fill="white" stroke="#bfbfbf" points="66.1084,-75.5 66.1084,-93.5 136.581,-93.5 136.581,-75.5 66.1084,-75.5"/>
<text text-anchor="middle" x="101.345" y="-81.5" font-family="Helvetica,sans-Serif" font-size="10.00">ofEventArgs</text>
</g>
<!-- Node3&#45;&gt;Node2 -->
<g id="edge1" class="edge"><title>Node3&#45;&gt;Node2</title>
<path fill="none" stroke="midnightblue" d="M110.523,-66.6325C116.901,-54.9109 125.28,-39.5114 131.17,-28.6867"/>
<polygon fill="midnightblue" stroke="midnightblue" points="107.44,-64.9757 105.734,-75.4325 113.588,-68.3214 107.44,-64.9757"/>
</g>
<!-- Node4 -->
<g id="node3" class="node"><title>Node4</title>
<g id="a_node3"><a xlink:href="classofx_oui_1_1_draggable_button.html" target="_top" xlink:title="Draggable Button (specialization of button) ">
<polygon fill="white" stroke="black" points="154.589,-75.5 154.589,-93.5 280.101,-93.5 280.101,-75.5 154.589,-75.5"/>
<text text-anchor="middle" x="217.345" y="-81.5" font-family="Helvetica,sans-Serif" font-size="10.00">ofxOui::DraggableButton</text>
</a>
</g>
</g>
<!-- Node4&#45;&gt;Node2 -->
<g id="edge2" class="edge"><title>Node4&#45;&gt;Node2</title>
<path fill="none" stroke="#9a32cd" stroke-dasharray="5,2" d="M200.152,-68.7009C186.297,-56.7753 166.995,-40.1609 153.665,-28.6867"/>
<polygon fill="#9a32cd" stroke="#9a32cd" points="198.11,-71.5614 207.972,-75.4325 202.676,-66.2561 198.11,-71.5614"/>
<text text-anchor="middle" x="201.022" y="-49" font-family="Helvetica,sans-Serif" font-size="10.00"> sender</text>
</g>
<!-- Node5 -->
<g id="node4" class="node"><title>Node5</title>
<g id="a_node4"><a xlink:href="classofx_oui_1_1_button.html" target="_top" xlink:title="Button component (allows both button and toggle modes) ">
<polygon fill="white" stroke="black" points="177.66,-131.5 177.66,-149.5 257.029,-149.5 257.029,-131.5 177.66,-131.5"/>
<text text-anchor="middle" x="217.345" y="-137.5" font-family="Helvetica,sans-Serif" font-size="10.00">ofxOui::Button</text>
</a>
</g>
</g>
<!-- Node5&#45;&gt;Node4 -->
<g id="edge3" class="edge"><title>Node5&#45;&gt;Node4</title>
<path fill="none" stroke="midnightblue" d="M217.345,-120.829C217.345,-111.577 217.345,-100.88 217.345,-93.7014"/>
<polygon fill="midnightblue" stroke="midnightblue" points="213.845,-121.062 217.345,-131.062 220.845,-121.063 213.845,-121.062"/>
</g>
<!-- Node6 -->
<g id="node5" class="node"><title>Node6</title>
<g id="a_node5"><a xlink:href="classofx_oui_1_1_component.html" target="_top" xlink:title="Base UI Component (equivalent to a label) ">
<polygon fill="white" stroke="black" points="166.266,-187.5 166.266,-205.5 268.423,-205.5 268.423,-187.5 166.266,-187.5"/>
<text text-anchor="middle" x="217.345" y="-193.5" font-family="Helvetica,sans-Serif" font-size="10.00">ofxOui::Component</text>
</a>
</g>
</g>
<!-- Node6&#45;&gt;Node5 -->
<g id="edge4" class="edge"><title>Node6&#45;&gt;Node5</title>
<path fill="none" stroke="midnightblue" d="M217.345,-176.829C217.345,-167.577 217.345,-156.88 217.345,-149.701"/>
<polygon fill="midnightblue" stroke="midnightblue" points="213.845,-177.062 217.345,-187.062 220.845,-177.063 213.845,-177.062"/>
</g>
<!-- Node6&#45;&gt;Node6 -->
<g id="edge9" class="edge"><title>Node6&#45;&gt;Node6</title>
<path fill="none" stroke="#9a32cd" stroke-dasharray="5,2" d="M278.785,-200.453C283.511,-199.578 286.423,-198.26 286.423,-196.5 286.423,-193.684 278.968,-192 268.558,-191.45"/>
<polygon fill="#9a32cd" stroke="#9a32cd" points="278.127,-197.003 268.558,-201.55 278.874,-203.963 278.127,-197.003"/>
<text text-anchor="middle" x="333.677" y="-193.5" font-family="Helvetica,sans-Serif" font-size="10.00"> blocking_component</text>
</g>
<!-- Node7 -->
<g id="node6" class="node"><title>Node7</title>
<g id="a_node6"><a xlink:href="classofx_oui_1_1_style.html" target="_top" xlink:title="Style structure shared among all components. ">
<polygon fill="white" stroke="black" points="0,-298 0,-316 72.6895,-316 72.6895,-298 0,-298"/>
<text text-anchor="middle" x="36.3447" y="-304" font-family="Helvetica,sans-Serif" font-size="10.00">ofxOui::Style</text>
</a>
</g>
</g>
<!-- Node7&#45;&gt;Node6 -->
<g id="edge5" class="edge"><title>Node7&#45;&gt;Node6</title>
<path fill="none" stroke="#9a32cd" stroke-dasharray="5,2" d="M58.7281,-292.582C96.6681,-269.839 172.507,-224.378 203.582,-205.75"/>
<polygon fill="#9a32cd" stroke="#9a32cd" points="56.7266,-289.701 49.9491,-297.845 60.3257,-295.705 56.7266,-289.701"/>
<text text-anchor="middle" x="180.015" y="-226" font-family="Helvetica,sans-Serif" font-size="10.00"> style</text>
</g>
<!-- Node7&#45;&gt;Node7 -->
<g id="edge6" class="edge"><title>Node7&#45;&gt;Node7</title>
<path fill="none" stroke="#9a32cd" stroke-dasharray="5,2" d="M57.8137,-319.814C74.1365,-324.452 90.6895,-320.181 90.6895,-307 90.6895,-291.232 67.0015,-288.214 48.3566,-297.946"/>
<polygon fill="#9a32cd" stroke="#9a32cd" points="58.9422,-316.496 48.3566,-316.054 56.3558,-323.001 58.9422,-316.496"/>
<text text-anchor="middle" x="127.926" y="-354" font-family="Helvetica,sans-Serif" font-size="10.00"> FramedYellow</text>
<text text-anchor="middle" x="127.926" y="-344" font-family="Helvetica,sans-Serif" font-size="10.00">PlainYellow</text>
<text text-anchor="middle" x="127.926" y="-334" font-family="Helvetica,sans-Serif" font-size="10.00">FramedDefault</text>
<text text-anchor="middle" x="127.926" y="-324" font-family="Helvetica,sans-Serif" font-size="10.00">FramedDarkblue</text>
<text text-anchor="middle" x="127.926" y="-314" font-family="Helvetica,sans-Serif" font-size="10.00">PlainDarkblue</text>
<text text-anchor="middle" x="127.926" y="-304" font-family="Helvetica,sans-Serif" font-size="10.00">FramedRed</text>
<text text-anchor="middle" x="127.926" y="-294" font-family="Helvetica,sans-Serif" font-size="10.00">FramedGray</text>
<text text-anchor="middle" x="127.926" y="-284" font-family="Helvetica,sans-Serif" font-size="10.00">FramedGreen</text>
<text text-anchor="middle" x="127.926" y="-274" font-family="Helvetica,sans-Serif" font-size="10.00">FramedBlue</text>
<text text-anchor="middle" x="127.926" y="-264" font-family="Helvetica,sans-Serif" font-size="10.00">Default</text>
<text text-anchor="middle" x="127.926" y="-254" font-family="Helvetica,sans-Serif" font-size="10.00">...</text>
</g>
<!-- Node8 -->
<g id="node7" class="node"><title>Node8</title>
<g id="a_node7"><a xlink:href="classofx_oui_1_1_icon.html" target="_top" xlink:title="Icon image box wrapper. ">
<polygon fill="white" stroke="black" points="182.665,-298 182.665,-316 252.024,-316 252.024,-298 182.665,-298"/>
<text text-anchor="middle" x="217.345" y="-304" font-family="Helvetica,sans-Serif" font-size="10.00">ofxOui::Icon</text>
</a>
</g>
</g>
<!-- Node8&#45;&gt;Node6 -->
<g id="edge7" class="edge"><title>Node8&#45;&gt;Node6</title>
<path fill="none" stroke="#9a32cd" stroke-dasharray="5,2" d="M217.345,-287.659C217.345,-263.798 217.345,-223.115 217.345,-205.75"/>
<polygon fill="#9a32cd" stroke="#9a32cd" points="213.845,-287.845 217.345,-297.845 220.845,-287.845 213.845,-287.845"/>
<text text-anchor="middle" x="227.906" y="-226" font-family="Helvetica,sans-Serif" font-size="10.00"> icon</text>
</g>
<!-- Node9 -->
<g id="node8" class="node"><title>Node9</title>
<g id="a_node8"><a xlink:href="classofx_oui_1_1_text_box.html" target="_top" xlink:title="Text box font wrapper. ">
<polygon fill="white" stroke="black" points="270.33,-298 270.33,-316 356.359,-316 356.359,-298 270.33,-298"/>
<text text-anchor="middle" x="313.345" y="-304" font-family="Helvetica,sans-Serif" font-size="10.00">ofxOui::TextBox</text>
</a>
</g>
</g>
<!-- Node9&#45;&gt;Node6 -->
<g id="edge8" class="edge"><title>Node9&#45;&gt;Node6</title>
<path fill="none" stroke="#9a32cd" stroke-dasharray="5,2" d="M299.877,-290.043C285.742,-273.39 262.775,-246.603 242.345,-224 236.746,-217.806 230.275,-210.954 225.319,-205.77"/>
<polygon fill="#9a32cd" stroke="#9a32cd" points="297.272,-292.382 306.404,-297.752 302.614,-287.859 297.272,-292.382"/>
<text text-anchor="middle" x="259.074" y="-226" font-family="Helvetica,sans-Serif" font-size="10.00"> font</text>
</g>
</g>
</svg>
