<?xml version="1.0" encoding="UTF-8" standalone="no"?>
<!DOCTYPE svg PUBLIC "-//W3C//DTD SVG 1.1//EN"
 "http://www.w3.org/Graphics/SVG/1.1/DTD/svg11.dtd">
<!-- Generated by graphviz version 2.38.0 (20140413.2041)
 -->
<!-- Title: ofxCuiCui::Numbox Pages: 1 -->
<svg width="412pt" height="239pt"
 viewBox="0.00 0.00 412.28 239.00" xmlns="http://www.w3.org/2000/svg" xmlns:xlink="http://www.w3.org/1999/xlink">
<g id="graph0" class="graph" transform="scale(1 1) rotate(0) translate(4 235)">
<title>ofxCuiCui::Numbox</title>
<polygon fill="white" stroke="none" points="-4,4 -4,-235 408.28,-235 408.28,4 -4,4"/>
<!-- Node1 -->
<g id="node1" class="node"><title>Node1</title>
<polygon fill="#bfbfbf" stroke="black" points="27.1675,-0.5 27.1675,-18.5 129.31,-18.5 129.31,-0.5 27.1675,-0.5"/>
<text text-anchor="middle" x="78.2388" y="-6.5" font-family="Helvetica,sans-Serif" font-size="10.00">ofxCuiCui::Numbox</text>
</g>
<!-- Node2 -->
<g id="node2" class="node"><title>Node2</title>
<g id="a_node2"><a xlink:href="classofx_cui_cui_1_1_component.html" target="_top" xlink:title="Base UI Component (equivalent to a label) ">
<polygon fill="white" stroke="black" points="111.936,-56.5 111.936,-74.5 228.542,-74.5 228.542,-56.5 111.936,-56.5"/>
<text text-anchor="middle" x="170.239" y="-62.5" font-family="Helvetica,sans-Serif" font-size="10.00">ofxCuiCui::Component</text>
</a>
</g>
</g>
<!-- Node2&#45;&gt;Node1 -->
<g id="edge1" class="edge"><title>Node2&#45;&gt;Node1</title>
<path fill="none" stroke="midnightblue" d="M147.318,-51.0465C129.947,-40.8504 106.649,-27.1758 92.0416,-18.6017"/>
<polygon fill="midnightblue" stroke="midnightblue" points="145.87,-54.255 156.266,-56.2986 149.413,-48.218 145.87,-54.255"/>
</g>
<!-- Node3 -->
<g id="node3" class="node"><title>Node3</title>
<g id="a_node3"><a xlink:href="classofx_cui_cui_1_1_text_box.html" target="_top" xlink:title="Text box font wrapper. ">
<polygon fill="white" stroke="black" points="0,-167 0,-185 100.478,-185 100.478,-167 0,-167"/>
<text text-anchor="middle" x="50.2388" y="-173" font-family="Helvetica,sans-Serif" font-size="10.00">ofxCuiCui::TextBox</text>
</a>
</g>
</g>
<!-- Node3&#45;&gt;Node1 -->
<g id="edge6" class="edge"><title>Node3&#45;&gt;Node1</title>
<path fill="none" stroke="#9a32cd" stroke-dasharray="5,2" d="M46.9516,-157.003C43.3279,-133.31 39.2437,-90.6075 49.313,-56 53.5494,-41.4399 64.0074,-27.0868 71.1164,-18.5094"/>
<polygon fill="#9a32cd" stroke="#9a32cd" points="43.5207,-157.707 48.6295,-166.988 50.424,-156.547 43.5207,-157.707"/>
<text text-anchor="middle" x="77.2017" y="-62.5" font-family="Helvetica,sans-Serif" font-size="10.00"> value_text_</text>
</g>
<!-- Node3&#45;&gt;Node2 -->
<g id="edge2" class="edge"><title>Node3&#45;&gt;Node2</title>
<path fill="none" stroke="#9a32cd" stroke-dasharray="5,2" d="M66.7106,-160.107C92.3494,-136.925 140.949,-92.9829 161.115,-74.7498"/>
<polygon fill="#9a32cd" stroke="#9a32cd" points="64.3285,-157.542 59.2583,-166.845 69.0232,-162.734 64.3285,-157.542"/>
<text text-anchor="middle" x="146.968" y="-95" font-family="Helvetica,sans-Serif" font-size="10.00"> font</text>
</g>
<!-- Node4 -->
<g id="node4" class="node"><title>Node4</title>
<g id="a_node4"><a xlink:href="classofx_cui_cui_1_1_icon.html" target="_top" xlink:title="Icon image box wrapper. ">
<polygon fill="white" stroke="black" points="123.335,-167 123.335,-185 207.143,-185 207.143,-167 123.335,-167"/>
<text text-anchor="middle" x="165.239" y="-173" font-family="Helvetica,sans-Serif" font-size="10.00">ofxCuiCui::Icon</text>
</a>
</g>
</g>
<!-- Node4&#45;&gt;Node2 -->
<g id="edge3" class="edge"><title>Node4&#45;&gt;Node2</title>
<path fill="none" stroke="#9a32cd" stroke-dasharray="5,2" d="M166.084,-156.659C167.184,-132.798 169.058,-92.1147 169.859,-74.7498"/>
<polygon fill="#9a32cd" stroke="#9a32cd" points="162.579,-156.694 165.615,-166.845 169.571,-157.017 162.579,-156.694"/>
<text text-anchor="middle" x="178.8" y="-95" font-family="Helvetica,sans-Serif" font-size="10.00"> icon</text>
</g>
<!-- Node5 -->
<g id="node5" class="node"><title>Node5</title>
<g id="a_node5"><a xlink:href="classofx_cui_cui_1_1_style.html" target="_top" xlink:title="Style structure shared among all components. ">
<polygon fill="white" stroke="black" points="224.67,-167 224.67,-185 311.808,-185 311.808,-167 224.67,-167"/>
<text text-anchor="middle" x="268.239" y="-173" font-family="Helvetica,sans-Serif" font-size="10.00">ofxCuiCui::Style</text>
</a>
</g>
</g>
<!-- Node5&#45;&gt;Node2 -->
<g id="edge4" class="edge"><title>Node5&#45;&gt;Node2</title>
<path fill="none" stroke="#9a32cd" stroke-dasharray="5,2" d="M253.962,-159.193C232.821,-135.788 193.945,-92.7461 177.69,-74.7498"/>
<polygon fill="#9a32cd" stroke="#9a32cd" points="251.573,-161.77 260.873,-166.845 256.767,-157.078 251.573,-161.77"/>
<text text-anchor="middle" x="212.909" y="-95" font-family="Helvetica,sans-Serif" font-size="10.00"> style</text>
</g>
<!-- Node5&#45;&gt;Node5 -->
<g id="edge5" class="edge"><title>Node5&#45;&gt;Node5</title>
<path fill="none" stroke="#9a32cd" stroke-dasharray="5,2" d="M291.266,-188.475C310.168,-193.647 329.808,-189.489 329.808,-176 329.808,-160.232 302.971,-157.214 281.847,-166.946"/>
<polygon fill="#9a32cd" stroke="#9a32cd" points="292.441,-185.178 281.847,-185.054 290.052,-191.757 292.441,-185.178"/>
<text text-anchor="middle" x="367.044" y="-223" font-family="Helvetica,sans-Serif" font-size="10.00"> FramedYellow</text>
<text text-anchor="middle" x="367.044" y="-213" font-family="Helvetica,sans-Serif" font-size="10.00">PlainYellow</text>
<text text-anchor="middle" x="367.044" y="-203" font-family="Helvetica,sans-Serif" font-size="10.00">FramedDefault</text>
<text text-anchor="middle" x="367.044" y="-193" font-family="Helvetica,sans-Serif" font-size="10.00">FramedDarkblue</text>
<text text-anchor="middle" x="367.044" y="-183" font-family="Helvetica,sans-Serif" font-size="10.00">PlainDarkblue</text>
<text text-anchor="middle" x="367.044" y="-173" font-family="Helvetica,sans-Serif" font-size="10.00">FramedRed</text>
<text text-anchor="middle" x="367.044" y="-163" font-family="Helvetica,sans-Serif" font-size="10.00">FramedGray</text>
<text text-anchor="middle" x="367.044" y="-153" font-family="Helvetica,sans-Serif" font-size="10.00">FramedGreen</text>
<text text-anchor="middle" x="367.044" y="-143" font-family="Helvetica,sans-Serif" font-size="10.00">FramedBlue</text>
<text text-anchor="middle" x="367.044" y="-133" font-family="Helvetica,sans-Serif" font-size="10.00">Default</text>
<text text-anchor="middle" x="367.044" y="-123" font-family="Helvetica,sans-Serif" font-size="10.00">...</text>
</g>
</g>
</svg>
