<?xml version="1.0" encoding="UTF-8" standalone="no"?>
<!DOCTYPE svg PUBLIC "-//W3C//DTD SVG 1.1//EN"
 "http://www.w3.org/Graphics/SVG/1.1/DTD/svg11.dtd">
<!-- Generated by graphviz version 2.38.0 (20140413.2041)
 -->
<!-- Title: ofxCuiCui::Matrix::ClickEvent Pages: 1 -->
<svg width="407pt" height="379pt"
 viewBox="0.00 0.00 407.28 379.00" xmlns="http://www.w3.org/2000/svg" xmlns:xlink="http://www.w3.org/1999/xlink">
<g id="graph0" class="graph" transform="scale(1 1) rotate(0) translate(4 375)">
<title>ofxCuiCui::Matrix::ClickEvent</title>
<polygon fill="white" stroke="none" points="-4,4 -4,-375 403.28,-375 403.28,4 -4,4"/>
<!-- Node1 -->
<g id="node1" class="node"><title>Node1</title>
<polygon fill="#bfbfbf" stroke="black" points="60.3965,-0.5 60.3965,-28.5 158.081,-28.5 158.081,-0.5 60.3965,-0.5"/>
<text text-anchor="start" x="68.3965" y="-16.5" font-family="Helvetica,sans-Serif" font-size="10.00">ofxCuiCui::Matrix::</text>
<text text-anchor="middle" x="109.239" y="-6.5" font-family="Helvetica,sans-Serif" font-size="10.00">ClickEvent</text>
</g>
<!-- Node2 -->
<g id="node2" class="node"><title>Node2</title>
<polygon fill="white" stroke="#bfbfbf" points="41.0024,-75.5 41.0024,-93.5 111.475,-93.5 111.475,-75.5 41.0024,-75.5"/>
<text text-anchor="middle" x="76.2388" y="-81.5" font-family="Helvetica,sans-Serif" font-size="10.00">ofEventArgs</text>
</g>
<!-- Node2&#45;&gt;Node1 -->
<g id="edge1" class="edge"><title>Node2&#45;&gt;Node1</title>
<path fill="none" stroke="midnightblue" d="M84.5957,-66.2797C90.2622,-54.6033 97.6387,-39.4032 102.839,-28.6867"/>
<polygon fill="midnightblue" stroke="midnightblue" points="81.3711,-64.9078 80.1539,-75.4325 87.6687,-67.964 81.3711,-64.9078"/>
</g>
<!-- Node3 -->
<g id="node3" class="node"><title>Node3</title>
<g id="a_node3"><a xlink:href="classofx_cui_cui_1_1_matrix.html" target="_top" xlink:title="Button Matrix (supports both button &#45;single&#45;button activation&#45; and toggle &#45;multi&#45;button activation&#45;) ...">
<polygon fill="white" stroke="black" points="129.175,-75.5 129.175,-93.5 221.303,-93.5 221.303,-75.5 129.175,-75.5"/>
<text text-anchor="middle" x="175.239" y="-81.5" font-family="Helvetica,sans-Serif" font-size="10.00">ofxCuiCui::Matrix</text>
</a>
</g>
</g>
<!-- Node3&#45;&gt;Node1 -->
<g id="edge2" class="edge"><title>Node3&#45;&gt;Node1</title>
<path fill="none" stroke="#9a32cd" stroke-dasharray="5,2" d="M160.215,-68.0209C148.693,-56.1501 132.964,-39.9444 122.038,-28.6867"/>
<polygon fill="#9a32cd" stroke="#9a32cd" points="157.932,-70.6943 167.409,-75.4325 162.955,-65.819 157.932,-70.6943"/>
<text text-anchor="middle" x="163.916" y="-49" font-family="Helvetica,sans-Serif" font-size="10.00"> sender</text>
</g>
<!-- Node4 -->
<g id="node4" class="node"><title>Node4</title>
<g id="a_node4"><a xlink:href="classofx_cui_cui_1_1_component.html" target="_top" xlink:title="Base UI Component (equivalent to a label) ">
<polygon fill="white" stroke="black" points="101.936,-196.5 101.936,-214.5 218.542,-214.5 218.542,-196.5 101.936,-196.5"/>
<text text-anchor="middle" x="160.239" y="-202.5" font-family="Helvetica,sans-Serif" font-size="10.00">ofxCuiCui::Component</text>
</a>
</g>
</g>
<!-- Node4&#45;&gt;Node3 -->
<g id="edge3" class="edge"><title>Node4&#45;&gt;Node3</title>
<path fill="none" stroke="midnightblue" d="M162.081,-185.797C163.396,-172.91 165.274,-155.398 167.239,-140 169.345,-123.494 172.284,-104.248 173.951,-93.6123"/>
<polygon fill="midnightblue" stroke="midnightblue" points="158.559,-185.84 161.045,-196.139 165.524,-186.537 158.559,-185.84"/>
</g>
<!-- Node8 -->
<g id="node8" class="node"><title>Node8</title>
<g id="a_node8"><a xlink:href="classofx_cui_cui_1_1_button.html" target="_top" xlink:title="Button component (allows both button and toggle modes) ">
<polygon fill="white" stroke="black" points="176.33,-140.5 176.33,-158.5 270.147,-158.5 270.147,-140.5 176.33,-140.5"/>
<text text-anchor="middle" x="223.239" y="-146.5" font-family="Helvetica,sans-Serif" font-size="10.00">ofxCuiCui::Button</text>
</a>
</g>
</g>
<!-- Node4&#45;&gt;Node8 -->
<g id="edge9" class="edge"><title>Node4&#45;&gt;Node8</title>
<path fill="none" stroke="midnightblue" d="M177.563,-189.651C189.169,-179.703 204.019,-166.974 213.58,-158.779"/>
<polygon fill="midnightblue" stroke="midnightblue" points="175.122,-187.133 169.807,-196.299 179.677,-192.448 175.122,-187.133"/>
</g>
<!-- Node5 -->
<g id="node5" class="node"><title>Node5</title>
<g id="a_node5"><a xlink:href="classofx_cui_cui_1_1_text_box.html" target="_top" xlink:title="Text box font wrapper. ">
<polygon fill="white" stroke="black" points="0,-307 0,-325 100.478,-325 100.478,-307 0,-307"/>
<text text-anchor="middle" x="50.2388" y="-313" font-family="Helvetica,sans-Serif" font-size="10.00">ofxCuiCui::TextBox</text>
</a>
</g>
</g>
<!-- Node5&#45;&gt;Node4 -->
<g id="edge4" class="edge"><title>Node5&#45;&gt;Node4</title>
<path fill="none" stroke="#9a32cd" stroke-dasharray="5,2" d="M65.6444,-299.804C89.2254,-276.545 133.47,-232.904 151.875,-214.75"/>
<polygon fill="#9a32cd" stroke="#9a32cd" points="63.1683,-297.331 58.5066,-306.845 68.084,-302.314 63.1683,-297.331"/>
<text text-anchor="middle" x="139.968" y="-235" font-family="Helvetica,sans-Serif" font-size="10.00"> font</text>
</g>
<!-- Node6 -->
<g id="node6" class="node"><title>Node6</title>
<g id="a_node6"><a xlink:href="classofx_cui_cui_1_1_icon.html" target="_top" xlink:title="Icon image box wrapper. ">
<polygon fill="white" stroke="black" points="118.335,-307 118.335,-325 202.143,-325 202.143,-307 118.335,-307"/>
<text text-anchor="middle" x="160.239" y="-313" font-family="Helvetica,sans-Serif" font-size="10.00">ofxCuiCui::Icon</text>
</a>
</g>
</g>
<!-- Node6&#45;&gt;Node4 -->
<g id="edge5" class="edge"><title>Node6&#45;&gt;Node4</title>
<path fill="none" stroke="#9a32cd" stroke-dasharray="5,2" d="M160.239,-296.659C160.239,-272.798 160.239,-232.115 160.239,-214.75"/>
<polygon fill="#9a32cd" stroke="#9a32cd" points="156.739,-296.845 160.239,-306.845 163.739,-296.845 156.739,-296.845"/>
<text text-anchor="middle" x="170.8" y="-235" font-family="Helvetica,sans-Serif" font-size="10.00"> icon</text>
</g>
<!-- Node7 -->
<g id="node7" class="node"><title>Node7</title>
<g id="a_node7"><a xlink:href="classofx_cui_cui_1_1_style.html" target="_top" xlink:title="Style structure shared among all components. ">
<polygon fill="white" stroke="black" points="219.67,-307 219.67,-325 306.808,-325 306.808,-307 219.67,-307"/>
<text text-anchor="middle" x="263.239" y="-313" font-family="Helvetica,sans-Serif" font-size="10.00">ofxCuiCui::Style</text>
</a>
</g>
</g>
<!-- Node7&#45;&gt;Node4 -->
<g id="edge6" class="edge"><title>Node7&#45;&gt;Node4</title>
<path fill="none" stroke="#9a32cd" stroke-dasharray="5,2" d="M248.524,-299.5C226.373,-276.166 185.229,-232.825 168.07,-214.75"/>
<polygon fill="#9a32cd" stroke="#9a32cd" points="246.074,-302.002 255.497,-306.845 251.151,-297.183 246.074,-302.002"/>
<text text-anchor="middle" x="204.909" y="-235" font-family="Helvetica,sans-Serif" font-size="10.00"> style</text>
</g>
<!-- Node7&#45;&gt;Node7 -->
<g id="edge7" class="edge"><title>Node7&#45;&gt;Node7</title>
<path fill="none" stroke="#9a32cd" stroke-dasharray="5,2" d="M286.266,-328.475C305.168,-333.647 324.808,-329.489 324.808,-316 324.808,-300.232 297.971,-297.214 276.847,-306.946"/>
<polygon fill="#9a32cd" stroke="#9a32cd" points="287.441,-325.178 276.847,-325.054 285.052,-331.757 287.441,-325.178"/>
<text text-anchor="middle" x="362.044" y="-363" font-family="Helvetica,sans-Serif" font-size="10.00"> FramedYellow</text>
<text text-anchor="middle" x="362.044" y="-353" font-family="Helvetica,sans-Serif" font-size="10.00">PlainYellow</text>
<text text-anchor="middle" x="362.044" y="-343" font-family="Helvetica,sans-Serif" font-size="10.00">FramedDefault</text>
<text text-anchor="middle" x="362.044" y="-333" font-family="Helvetica,sans-Serif" font-size="10.00">FramedDarkblue</text>
<text text-anchor="middle" x="362.044" y="-323" font-family="Helvetica,sans-Serif" font-size="10.00">PlainDarkblue</text>
<text text-anchor="middle" x="362.044" y="-313" font-family="Helvetica,sans-Serif" font-size="10.00">FramedRed</text>
<text text-anchor="middle" x="362.044" y="-303" font-family="Helvetica,sans-Serif" font-size="10.00">FramedGray</text>
<text text-anchor="middle" x="362.044" y="-293" font-family="Helvetica,sans-Serif" font-size="10.00">FramedGreen</text>
<text text-anchor="middle" x="362.044" y="-283" font-family="Helvetica,sans-Serif" font-size="10.00">FramedBlue</text>
<text text-anchor="middle" x="362.044" y="-273" font-family="Helvetica,sans-Serif" font-size="10.00">Default</text>
<text text-anchor="middle" x="362.044" y="-263" font-family="Helvetica,sans-Serif" font-size="10.00">...</text>
</g>
<!-- Node8&#45;&gt;Node3 -->
<g id="edge8" class="edge"><title>Node8&#45;&gt;Node3</title>
<path fill="none" stroke="#9a32cd" stroke-dasharray="5,2" d="M210.754,-132.114C201.306,-119.713 188.737,-103.217 181.364,-93.539"/>
<polygon fill="#9a32cd" stroke="#9a32cd" points="208.119,-134.431 216.964,-140.264 213.687,-130.188 208.119,-134.431"/>
<text text-anchor="middle" x="240.714" y="-114" font-family="Helvetica,sans-Serif" font-size="10.00"> selected_button_</text>
</g>
</g>
</svg>
