<?xml version="1.0" encoding="UTF-8" standalone="no"?>
<!DOCTYPE svg PUBLIC "-//W3C//DTD SVG 1.1//EN"
 "http://www.w3.org/Graphics/SVG/1.1/DTD/svg11.dtd">
<!-- Generated by graphviz version 2.38.0 (20140413.2041)
 -->
<!-- Title: ofxOui::Graph::BoundsChangedEvent Pages: 1 -->
<svg width="207pt" height="167pt"
 viewBox="0.00 0.00 207.02 167.00" xmlns="http://www.w3.org/2000/svg" xmlns:xlink="http://www.w3.org/1999/xlink">
<g id="graph0" class="graph" transform="scale(1 1) rotate(0) translate(4 163)">
<title>ofxOui::Graph::BoundsChangedEvent</title>
<polygon fill="white" stroke="none" points="-4,4 -4,-163 203.019,-163 203.019,4 -4,4"/>
<!-- Node2 -->
<g id="node1" class="node"><title>Node2</title>
<polygon fill="#bfbfbf" stroke="black" points="0,-0.5 0,-28.5 158.314,-28.5 158.314,-0.5 0,-0.5"/>
<text text-anchor="start" x="8" y="-16.5" font-family="Helvetica,sans-Serif" font-size="10.00">ofxOui::Graph::BoundsChanged</text>
<text text-anchor="middle" x="79.1572" y="-6.5" font-family="Helvetica,sans-Serif" font-size="10.00">Event</text>
</g>
<!-- Node3 -->
<g id="node2" class="node"><title>Node3</title>
<polygon fill="white" stroke="#bfbfbf" points="12.9209,-75.5 12.9209,-93.5 83.3936,-93.5 83.3936,-75.5 12.9209,-75.5"/>
<text text-anchor="middle" x="48.1572" y="-81.5" font-family="Helvetica,sans-Serif" font-size="10.00">ofEventArgs</text>
</g>
<!-- Node3&#45;&gt;Node2 -->
<g id="edge1" class="edge"><title>Node3&#45;&gt;Node2</title>
<path fill="none" stroke="midnightblue" d="M56.0076,-66.2797C61.3307,-54.6033 68.2602,-39.4032 73.1457,-28.6867"/>
<polygon fill="midnightblue" stroke="midnightblue" points="52.7986,-64.8815 51.8351,-75.4325 59.1679,-67.7852 52.7986,-64.8815"/>
</g>
<!-- Node4 -->
<g id="node3" class="node"><title>Node4</title>
<g id="a_node3"><a xlink:href="classofx_oui_1_1_graph.html" target="_top" xlink:title="2D Graph Area (with virtual coordinate system) ">
<polygon fill="white" stroke="black" points="101.032,-75.5 101.032,-93.5 179.283,-93.5 179.283,-75.5 101.032,-75.5"/>
<text text-anchor="middle" x="140.157" y="-81.5" font-family="Helvetica,sans-Serif" font-size="10.00">ofxOui::Graph</text>
</a>
</g>
</g>
<!-- Node4&#45;&gt;Node2 -->
<g id="edge2" class="edge"><title>Node4&#45;&gt;Node2</title>
<path fill="none" stroke="#9a32cd" stroke-dasharray="5,2" d="M125.963,-67.6773C115.344,-55.8389 100.988,-39.8361 90.9864,-28.6867"/>
<polygon fill="#9a32cd" stroke="#9a32cd" points="123.637,-70.3258 132.92,-75.4325 128.848,-65.6515 123.637,-70.3258"/>
<text text-anchor="middle" x="130.834" y="-49" font-family="Helvetica,sans-Serif" font-size="10.00"> sender</text>
</g>
<!-- Node5 -->
<g id="node4" class="node"><title>Node5</title>
<g id="a_node4"><a xlink:href="structofx_oui_1_1_graph_1_1_bounds.html" target="_top" xlink:title="Bounds of the graph space. ">
<polygon fill="white" stroke="black" points="81.2954,-140.5 81.2954,-158.5 199.019,-158.5 199.019,-140.5 81.2954,-140.5"/>
<text text-anchor="middle" x="140.157" y="-146.5" font-family="Helvetica,sans-Serif" font-size="10.00">ofxOui::Graph::Bounds</text>
</a>
</g>
</g>
<!-- Node5&#45;&gt;Node4 -->
<g id="edge3" class="edge"><title>Node5&#45;&gt;Node4</title>
<path fill="none" stroke="#9a32cd" stroke-dasharray="5,2" d="M140.157,-129.907C140.157,-117.815 140.157,-102.653 140.157,-93.539"/>
<polygon fill="#9a32cd" stroke="#9a32cd" points="136.657,-130.264 140.157,-140.264 143.657,-130.264 136.657,-130.264"/>
<text text-anchor="middle" x="167.123" y="-114" font-family="Helvetica,sans-Serif" font-size="10.00"> graph_area</text>
</g>
</g>
</svg>
