<?xml version="1.0" encoding="UTF-8" standalone="no"?>
<!DOCTYPE svg PUBLIC "-//W3C//DTD SVG 1.1//EN"
 "http://www.w3.org/Graphics/SVG/1.1/DTD/svg11.dtd">
<!-- Generated by graphviz version 2.38.0 (20140413.2041)
 -->
<!-- Title: ofxOui::CheckBox Pages: 1 -->
<svg width="389pt" height="295pt"
 viewBox="0.00 0.00 388.93 295.00" xmlns="http://www.w3.org/2000/svg" xmlns:xlink="http://www.w3.org/1999/xlink">
<g id="graph0" class="graph" transform="scale(1 1) rotate(0) translate(4 291)">
<title>ofxOui::CheckBox</title>
<polygon fill="white" stroke="none" points="-4,4 -4,-291 384.93,-291 384.93,4 -4,4"/>
<!-- Node3 -->
<g id="node1" class="node"><title>Node3</title>
<polygon fill="#bfbfbf" stroke="black" points="169.328,-0.5 169.328,-18.5 265.362,-18.5 265.362,-0.5 169.328,-0.5"/>
<text text-anchor="middle" x="217.345" y="-6.5" font-family="Helvetica,sans-Serif" font-size="10.00">ofxOui::CheckBox</text>
</g>
<!-- Node4 -->
<g id="node2" class="node"><title>Node4</title>
<g id="a_node2"><a xlink:href="classofx_oui_1_1_button.html" target="_top" xlink:title="Button component (allows both button and toggle modes) ">
<polygon fill="white" stroke="black" points="177.66,-56.5 177.66,-74.5 257.029,-74.5 257.029,-56.5 177.66,-56.5"/>
<text text-anchor="middle" x="217.345" y="-62.5" font-family="Helvetica,sans-Serif" font-size="10.00">ofxOui::Button</text>
</a>
</g>
</g>
<!-- Node4&#45;&gt;Node3 -->
<g id="edge1" class="edge"><title>Node4&#45;&gt;Node3</title>
<path fill="none" stroke="midnightblue" d="M217.345,-45.8288C217.345,-36.5774 217.345,-25.8798 217.345,-18.7014"/>
<polygon fill="midnightblue" stroke="midnightblue" points="213.845,-46.0625 217.345,-56.0625 220.845,-46.0625 213.845,-46.0625"/>
</g>
<!-- Node5 -->
<g id="node3" class="node"><title>Node5</title>
<g id="a_node3"><a xlink:href="classofx_oui_1_1_component.html" target="_top" xlink:title="Base UI Component (equivalent to a label) ">
<polygon fill="white" stroke="black" points="166.266,-112.5 166.266,-130.5 268.423,-130.5 268.423,-112.5 166.266,-112.5"/>
<text text-anchor="middle" x="217.345" y="-118.5" font-family="Helvetica,sans-Serif" font-size="10.00">ofxOui::Component</text>
</a>
</g>
</g>
<!-- Node5&#45;&gt;Node4 -->
<g id="edge2" class="edge"><title>Node5&#45;&gt;Node4</title>
<path fill="none" stroke="midnightblue" d="M217.345,-101.829C217.345,-92.5774 217.345,-81.8798 217.345,-74.7014"/>
<polygon fill="midnightblue" stroke="midnightblue" points="213.845,-102.062 217.345,-112.062 220.845,-102.063 213.845,-102.062"/>
</g>
<!-- Node5&#45;&gt;Node5 -->
<g id="edge7" class="edge"><title>Node5&#45;&gt;Node5</title>
<path fill="none" stroke="#9a32cd" stroke-dasharray="5,2" d="M278.785,-125.453C283.511,-124.578 286.423,-123.26 286.423,-121.5 286.423,-118.684 278.968,-117 268.558,-116.45"/>
<polygon fill="#9a32cd" stroke="#9a32cd" points="278.127,-122.003 268.558,-126.55 278.874,-128.963 278.127,-122.003"/>
<text text-anchor="middle" x="333.677" y="-118.5" font-family="Helvetica,sans-Serif" font-size="10.00"> blocking_component</text>
</g>
<!-- Node6 -->
<g id="node4" class="node"><title>Node6</title>
<g id="a_node4"><a xlink:href="classofx_oui_1_1_style.html" target="_top" xlink:title="Style structure shared among all components. ">
<polygon fill="white" stroke="black" points="0,-223 0,-241 72.6895,-241 72.6895,-223 0,-223"/>
<text text-anchor="middle" x="36.3447" y="-229" font-family="Helvetica,sans-Serif" font-size="10.00">ofxOui::Style</text>
</a>
</g>
</g>
<!-- Node6&#45;&gt;Node5 -->
<g id="edge3" class="edge"><title>Node6&#45;&gt;Node5</title>
<path fill="none" stroke="#9a32cd" stroke-dasharray="5,2" d="M58.7281,-217.582C96.6681,-194.839 172.507,-149.378 203.582,-130.75"/>
<polygon fill="#9a32cd" stroke="#9a32cd" points="56.7266,-214.701 49.9491,-222.845 60.3257,-220.705 56.7266,-214.701"/>
<text text-anchor="middle" x="181.015" y="-151" font-family="Helvetica,sans-Serif" font-size="10.00"> style</text>
</g>
<!-- Node6&#45;&gt;Node6 -->
<g id="edge4" class="edge"><title>Node6&#45;&gt;Node6</title>
<path fill="none" stroke="#9a32cd" stroke-dasharray="5,2" d="M57.8137,-244.814C74.1365,-249.452 90.6895,-245.181 90.6895,-232 90.6895,-216.232 67.0015,-213.214 48.3566,-222.946"/>
<polygon fill="#9a32cd" stroke="#9a32cd" points="58.9422,-241.496 48.3566,-241.054 56.3558,-248.001 58.9422,-241.496"/>
<text text-anchor="middle" x="127.926" y="-279" font-family="Helvetica,sans-Serif" font-size="10.00"> FramedYellow</text>
<text text-anchor="middle" x="127.926" y="-269" font-family="Helvetica,sans-Serif" font-size="10.00">PlainYellow</text>
<text text-anchor="middle" x="127.926" y="-259" font-family="Helvetica,sans-Serif" font-size="10.00">FramedDefault</text>
<text text-anchor="middle" x="127.926" y="-249" font-family="Helvetica,sans-Serif" font-size="10.00">FramedDarkblue</text>
<text text-anchor="middle" x="127.926" y="-239" font-family="Helvetica,sans-Serif" font-size="10.00">PlainDarkblue</text>
<text text-anchor="middle" x="127.926" y="-229" font-family="Helvetica,sans-Serif" font-size="10.00">FramedRed</text>
<text text-anchor="middle" x="127.926" y="-219" font-family="Helvetica,sans-Serif" font-size="10.00">FramedGray</text>
<text text-anchor="middle" x="127.926" y="-209" font-family="Helvetica,sans-Serif" font-size="10.00">FramedGreen</text>
<text text-anchor="middle" x="127.926" y="-199" font-family="Helvetica,sans-Serif" font-size="10.00">FramedBlue</text>
<text text-anchor="middle" x="127.926" y="-189" font-family="Helvetica,sans-Serif" font-size="10.00">Default</text>
<text text-anchor="middle" x="127.926" y="-179" font-family="Helvetica,sans-Serif" font-size="10.00">...</text>
</g>
<!-- Node7 -->
<g id="node5" class="node"><title>Node7</title>
<g id="a_node5"><a xlink:href="classofx_oui_1_1_icon.html" target="_top" xlink:title="Icon image box wrapper. ">
<polygon fill="white" stroke="black" points="182.665,-223 182.665,-241 252.024,-241 252.024,-223 182.665,-223"/>
<text text-anchor="middle" x="217.345" y="-229" font-family="Helvetica,sans-Serif" font-size="10.00">ofxOui::Icon</text>
</a>
</g>
</g>
<!-- Node7&#45;&gt;Node5 -->
<g id="edge5" class="edge"><title>Node7&#45;&gt;Node5</title>
<path fill="none" stroke="#9a32cd" stroke-dasharray="5,2" d="M217.345,-212.659C217.345,-188.798 217.345,-148.115 217.345,-130.75"/>
<polygon fill="#9a32cd" stroke="#9a32cd" points="213.845,-212.845 217.345,-222.845 220.845,-212.845 213.845,-212.845"/>
<text text-anchor="middle" x="227.906" y="-151" font-family="Helvetica,sans-Serif" font-size="10.00"> icon</text>
</g>
<!-- Node8 -->
<g id="node6" class="node"><title>Node8</title>
<g id="a_node6"><a xlink:href="classofx_oui_1_1_text_box.html" target="_top" xlink:title="Text box font wrapper. ">
<polygon fill="white" stroke="black" points="270.33,-223 270.33,-241 356.359,-241 356.359,-223 270.33,-223"/>
<text text-anchor="middle" x="313.345" y="-229" font-family="Helvetica,sans-Serif" font-size="10.00">ofxOui::TextBox</text>
</a>
</g>
</g>
<!-- Node8&#45;&gt;Node5 -->
<g id="edge6" class="edge"><title>Node8&#45;&gt;Node5</title>
<path fill="none" stroke="#9a32cd" stroke-dasharray="5,2" d="M299.877,-215.043C285.742,-198.39 262.775,-171.603 242.345,-149 236.746,-142.806 230.275,-135.954 225.319,-130.77"/>
<polygon fill="#9a32cd" stroke="#9a32cd" points="297.272,-217.382 306.404,-222.752 302.614,-212.859 297.272,-217.382"/>
<text text-anchor="middle" x="260.074" y="-151" font-family="Helvetica,sans-Serif" font-size="10.00"> font</text>
</g>
</g>
</svg>
