<?xml version="1.0" encoding="UTF-8" standalone="no"?>
<!DOCTYPE svg PUBLIC "-//W3C//DTD SVG 1.1//EN"
 "http://www.w3.org/Graphics/SVG/1.1/DTD/svg11.dtd">
<!-- Generated by graphviz version 2.38.0 (20140413.2041)
 -->
<!-- Title: ofxCuiCui::Numbox Pages: 1 -->
<svg width="125pt" height="137pt"
 viewBox="0.00 0.00 124.61 137.00" xmlns="http://www.w3.org/2000/svg" xmlns:xlink="http://www.w3.org/1999/xlink">
<g id="graph0" class="graph" transform="scale(1 1) rotate(0) translate(4 133)">
<title>ofxCuiCui::Numbox</title>
<polygon fill="white" stroke="none" points="-4,4 -4,-133 120.605,-133 120.605,4 -4,4"/>
<!-- Node1 -->
<g id="node1" class="node"><title>Node1</title>
<polygon fill="#bfbfbf" stroke="black" points="7.23145,-55.5 7.23145,-73.5 109.374,-73.5 109.374,-55.5 7.23145,-55.5"/>
<text text-anchor="middle" x="58.3027" y="-61.5" font-family="Helvetica,sans-Serif" font-size="10.00">ofxCuiCui::Numbox</text>
</g>
<!-- Node3 -->
<g id="node3" class="node"><title>Node3</title>
<g id="a_node3"><a xlink:href="classofx_cui_cui_1_1_slider.html" target="_top" xlink:title="Slider controller. ">
<polygon fill="white" stroke="black" points="13.0664,-0.5 13.0664,-18.5 103.539,-18.5 103.539,-0.5 13.0664,-0.5"/>
<text text-anchor="middle" x="58.3027" y="-6.5" font-family="Helvetica,sans-Serif" font-size="10.00">ofxCuiCui::Slider</text>
</a>
</g>
</g>
<!-- Node1&#45;&gt;Node3 -->
<g id="edge2" class="edge"><title>Node1&#45;&gt;Node3</title>
<path fill="none" stroke="midnightblue" d="M58.3027,-45.1746C58.3027,-36.0945 58.3027,-25.5949 58.3027,-18.5496"/>
<polygon fill="midnightblue" stroke="midnightblue" points="54.8028,-45.2187 58.3027,-55.2188 61.8028,-45.2188 54.8028,-45.2187"/>
</g>
<!-- Node2 -->
<g id="node2" class="node"><title>Node2</title>
<g id="a_node2"><a xlink:href="classofx_cui_cui_1_1_component.html" target="_top" xlink:title="Base UI Component (equivalent to a label) ">
<polygon fill="white" stroke="black" points="0,-110.5 0,-128.5 116.605,-128.5 116.605,-110.5 0,-110.5"/>
<text text-anchor="middle" x="58.3027" y="-116.5" font-family="Helvetica,sans-Serif" font-size="10.00">ofxCuiCui::Component</text>
</a>
</g>
</g>
<!-- Node2&#45;&gt;Node1 -->
<g id="edge1" class="edge"><title>Node2&#45;&gt;Node1</title>
<path fill="none" stroke="midnightblue" d="M58.3027,-100.175C58.3027,-91.0945 58.3027,-80.5949 58.3027,-73.5496"/>
<polygon fill="midnightblue" stroke="midnightblue" points="54.8028,-100.219 58.3027,-110.219 61.8028,-100.219 54.8028,-100.219"/>
</g>
</g>
</svg>
