<?xml version="1.0" encoding="UTF-8" standalone="no"?>
<!DOCTYPE svg PUBLIC "-//W3C//DTD SVG 1.1//EN"
 "http://www.w3.org/Graphics/SVG/1.1/DTD/svg11.dtd">
<!-- Generated by graphviz version 2.38.0 (20140413.2041)
 -->
<!-- Title: ofxCuiCui::ShapeEditor::EditEvent Pages: 1 -->
<svg width="216pt" height="102pt"
 viewBox="0.00 0.00 216.21 102.00" xmlns="http://www.w3.org/2000/svg" xmlns:xlink="http://www.w3.org/1999/xlink">
<g id="graph0" class="graph" transform="scale(1 1) rotate(0) translate(4 98)">
<title>ofxCuiCui::ShapeEditor::EditEvent</title>
<polygon fill="white" stroke="none" points="-4,4 -4,-98 212.209,-98 212.209,4 -4,4"/>
<!-- Node1 -->
<g id="node1" class="node"><title>Node1</title>
<polygon fill="#bfbfbf" stroke="black" points="31.2637,-0.5 31.2637,-28.5 151.209,-28.5 151.209,-0.5 31.2637,-0.5"/>
<text text-anchor="start" x="39.2637" y="-16.5" font-family="Helvetica,sans-Serif" font-size="10.00">ofxCuiCui::ShapeEditor</text>
<text text-anchor="middle" x="91.2363" y="-6.5" font-family="Helvetica,sans-Serif" font-size="10.00">::EditEvent</text>
</g>
<!-- Node2 -->
<g id="node2" class="node"><title>Node2</title>
<polygon fill="white" stroke="#bfbfbf" points="0,-75.5 0,-93.5 70.4727,-93.5 70.4727,-75.5 0,-75.5"/>
<text text-anchor="middle" x="35.2363" y="-81.5" font-family="Helvetica,sans-Serif" font-size="10.00">ofEventArgs</text>
</g>
<!-- Node2&#45;&gt;Node1 -->
<g id="edge1" class="edge"><title>Node2&#45;&gt;Node1</title>
<path fill="none" stroke="midnightblue" d="M48.2668,-67.6773C58.016,-55.8389 71.1948,-39.8361 80.3767,-28.6867"/>
<polygon fill="midnightblue" stroke="midnightblue" points="45.5355,-65.4882 41.8802,-75.4325 50.939,-69.9381 45.5355,-65.4882"/>
</g>
<!-- Node3 -->
<g id="node3" class="node"><title>Node3</title>
<g id="a_node3"><a xlink:href="classofx_cui_cui_1_1_shape_editor.html" target="_top" xlink:title="Shape editor. ">
<polygon fill="white" stroke="black" points="88.2637,-75.5 88.2637,-93.5 208.209,-93.5 208.209,-75.5 88.2637,-75.5"/>
<text text-anchor="middle" x="148.236" y="-81.5" font-family="Helvetica,sans-Serif" font-size="10.00">ofxCuiCui::ShapeEditor</text>
</a>
</g>
</g>
<!-- Node3&#45;&gt;Node1 -->
<g id="edge2" class="edge"><title>Node3&#45;&gt;Node1</title>
<path fill="none" stroke="#9a32cd" stroke-dasharray="5,2" d="M134.973,-67.6773C125.05,-55.8389 111.636,-39.8361 102.29,-28.6867"/>
<polygon fill="#9a32cd" stroke="#9a32cd" points="132.368,-70.0172 141.474,-75.4325 137.732,-65.5203 132.368,-70.0172"/>
<text text-anchor="middle" x="140.914" y="-49" font-family="Helvetica,sans-Serif" font-size="10.00"> sender</text>
</g>
</g>
</svg>
