<?xml version="1.0" encoding="UTF-8" standalone="no"?>
<!DOCTYPE svg PUBLIC "-//W3C//DTD SVG 1.1//EN"
 "http://www.w3.org/Graphics/SVG/1.1/DTD/svg11.dtd">
<!-- Generated by graphviz version 2.38.0 (20140413.2041)
 -->
<!-- Title: ofxOui::Numbox::ValueEvent Pages: 1 -->
<svg width="417pt" height="304pt"
 viewBox="0.00 0.00 417.27 304.00" xmlns="http://www.w3.org/2000/svg" xmlns:xlink="http://www.w3.org/1999/xlink">
<g id="graph0" class="graph" transform="scale(1 1) rotate(0) translate(4 300)">
<title>ofxOui::Numbox::ValueEvent</title>
<polygon fill="white" stroke="none" points="-4,4 -4,-300 413.271,-300 413.271,4 -4,4"/>
<!-- Node2 -->
<g id="node1" class="node"><title>Node2</title>
<polygon fill="#bfbfbf" stroke="black" points="139.514,-0.5 139.514,-18.5 283.175,-18.5 283.175,-0.5 139.514,-0.5"/>
<text text-anchor="middle" x="211.345" y="-6.5" font-family="Helvetica,sans-Serif" font-size="10.00">ofxOui::Numbox::ValueEvent</text>
</g>
<!-- Node3 -->
<g id="node2" class="node"><title>Node3</title>
<polygon fill="white" stroke="#bfbfbf" points="144.108,-65.5 144.108,-83.5 214.581,-83.5 214.581,-65.5 144.108,-65.5"/>
<text text-anchor="middle" x="179.345" y="-71.5" font-family="Helvetica,sans-Serif" font-size="10.00">ofEventArgs</text>
</g>
<!-- Node3&#45;&gt;Node2 -->
<g id="edge1" class="edge"><title>Node3&#45;&gt;Node2</title>
<path fill="none" stroke="midnightblue" d="M188.223,-56.0204C194.452,-43.7582 202.489,-27.9348 207.261,-18.539"/>
<polygon fill="midnightblue" stroke="midnightblue" points="184.936,-54.763 183.528,-65.2639 191.177,-57.9331 184.936,-54.763"/>
</g>
<!-- Node4 -->
<g id="node3" class="node"><title>Node4</title>
<g id="a_node3"><a xlink:href="classofx_oui_1_1_numbox.html" target="_top" xlink:title="Number box (with mouse + keyboard interaction, C74 max style) ">
<polygon fill="white" stroke="black" points="232.498,-65.5 232.498,-83.5 320.192,-83.5 320.192,-65.5 232.498,-65.5"/>
<text text-anchor="middle" x="276.345" y="-71.5" font-family="Helvetica,sans-Serif" font-size="10.00">ofxOui::Numbox</text>
</a>
</g>
</g>
<!-- Node4&#45;&gt;Node2 -->
<g id="edge2" class="edge"><title>Node4&#45;&gt;Node2</title>
<path fill="none" stroke="#9a32cd" stroke-dasharray="5,2" d="M260.546,-58.187C247.642,-45.6802 229.915,-28.4986 219.639,-18.539"/>
<polygon fill="#9a32cd" stroke="#9a32cd" points="258.23,-60.8173 267.847,-65.2639 263.102,-55.7908 258.23,-60.8173"/>
<text text-anchor="middle" x="264.022" y="-39" font-family="Helvetica,sans-Serif" font-size="10.00"> sender</text>
</g>
<!-- Node5 -->
<g id="node4" class="node"><title>Node5</title>
<g id="a_node4"><a xlink:href="classofx_oui_1_1_component.html" target="_top" xlink:title="Base UI Component (equivalent to a label) ">
<polygon fill="white" stroke="black" points="125.266,-121.5 125.266,-139.5 227.423,-139.5 227.423,-121.5 125.266,-121.5"/>
<text text-anchor="middle" x="176.345" y="-127.5" font-family="Helvetica,sans-Serif" font-size="10.00">ofxOui::Component</text>
</a>
</g>
</g>
<!-- Node5&#45;&gt;Node4 -->
<g id="edge3" class="edge"><title>Node5&#45;&gt;Node4</title>
<path fill="none" stroke="midnightblue" d="M200.476,-116.469C219.435,-106.231 245.243,-92.2949 261.342,-83.6017"/>
<polygon fill="midnightblue" stroke="midnightblue" points="198.669,-113.467 191.533,-121.299 201.995,-119.627 198.669,-113.467"/>
</g>
<!-- Node5&#45;&gt;Node5 -->
<g id="edge8" class="edge"><title>Node5&#45;&gt;Node5</title>
<path fill="none" stroke="#9a32cd" stroke-dasharray="5,2" d="M237.785,-134.453C242.511,-133.578 245.423,-132.26 245.423,-130.5 245.423,-127.684 237.968,-126 227.558,-125.45"/>
<polygon fill="#9a32cd" stroke="#9a32cd" points="237.127,-131.003 227.558,-135.55 237.874,-137.963 237.127,-131.003"/>
<text text-anchor="middle" x="292.677" y="-127.5" font-family="Helvetica,sans-Serif" font-size="10.00"> blocking_component</text>
</g>
<!-- Node6 -->
<g id="node5" class="node"><title>Node6</title>
<g id="a_node5"><a xlink:href="classofx_oui_1_1_style.html" target="_top" xlink:title="Style structure shared among all components. ">
<polygon fill="white" stroke="black" points="0,-232 0,-250 72.6895,-250 72.6895,-232 0,-232"/>
<text text-anchor="middle" x="36.3447" y="-238" font-family="Helvetica,sans-Serif" font-size="10.00">ofxOui::Style</text>
</a>
</g>
</g>
<!-- Node6&#45;&gt;Node5 -->
<g id="edge4" class="edge"><title>Node6&#45;&gt;Node5</title>
<path fill="none" stroke="#9a32cd" stroke-dasharray="5,2" d="M54.791,-225.704C84.4895,-202.688 141.969,-158.141 165.7,-139.75"/>
<polygon fill="#9a32cd" stroke="#9a32cd" points="52.6276,-222.953 46.8675,-231.845 56.9157,-228.486 52.6276,-222.953"/>
<text text-anchor="middle" x="151.015" y="-160" font-family="Helvetica,sans-Serif" font-size="10.00"> style</text>
</g>
<!-- Node6&#45;&gt;Node6 -->
<g id="edge5" class="edge"><title>Node6&#45;&gt;Node6</title>
<path fill="none" stroke="#9a32cd" stroke-dasharray="5,2" d="M57.8137,-253.814C74.1365,-258.452 90.6895,-254.181 90.6895,-241 90.6895,-225.232 67.0015,-222.214 48.3566,-231.946"/>
<polygon fill="#9a32cd" stroke="#9a32cd" points="58.9422,-250.496 48.3566,-250.054 56.3558,-257.001 58.9422,-250.496"/>
<text text-anchor="middle" x="127.926" y="-288" font-family="Helvetica,sans-Serif" font-size="10.00"> FramedYellow</text>
<text text-anchor="middle" x="127.926" y="-278" font-family="Helvetica,sans-Serif" font-size="10.00">PlainYellow</text>
<text text-anchor="middle" x="127.926" y="-268" font-family="Helvetica,sans-Serif" font-size="10.00">FramedDefault</text>
<text text-anchor="middle" x="127.926" y="-258" font-family="Helvetica,sans-Serif" font-size="10.00">FramedDarkblue</text>
<text text-anchor="middle" x="127.926" y="-248" font-family="Helvetica,sans-Serif" font-size="10.00">PlainDarkblue</text>
<text text-anchor="middle" x="127.926" y="-238" font-family="Helvetica,sans-Serif" font-size="10.00">FramedRed</text>
<text text-anchor="middle" x="127.926" y="-228" font-family="Helvetica,sans-Serif" font-size="10.00">FramedGray</text>
<text text-anchor="middle" x="127.926" y="-218" font-family="Helvetica,sans-Serif" font-size="10.00">FramedGreen</text>
<text text-anchor="middle" x="127.926" y="-208" font-family="Helvetica,sans-Serif" font-size="10.00">FramedBlue</text>
<text text-anchor="middle" x="127.926" y="-198" font-family="Helvetica,sans-Serif" font-size="10.00">Default</text>
<text text-anchor="middle" x="127.926" y="-188" font-family="Helvetica,sans-Serif" font-size="10.00">...</text>
</g>
<!-- Node7 -->
<g id="node6" class="node"><title>Node7</title>
<g id="a_node6"><a xlink:href="classofx_oui_1_1_icon.html" target="_top" xlink:title="Icon image box wrapper. ">
<polygon fill="white" stroke="black" points="182.665,-232 182.665,-250 252.024,-250 252.024,-232 182.665,-232"/>
<text text-anchor="middle" x="217.345" y="-238" font-family="Helvetica,sans-Serif" font-size="10.00">ofxOui::Icon</text>
</a>
</g>
</g>
<!-- Node7&#45;&gt;Node5 -->
<g id="edge6" class="edge"><title>Node7&#45;&gt;Node5</title>
<path fill="none" stroke="#9a32cd" stroke-dasharray="5,2" d="M210.658,-222.305C201.678,-198.54 186.084,-157.273 179.462,-139.75"/>
<polygon fill="#9a32cd" stroke="#9a32cd" points="207.454,-223.728 214.263,-231.845 214.002,-221.253 207.454,-223.728"/>
<text text-anchor="middle" x="200.906" y="-160" font-family="Helvetica,sans-Serif" font-size="10.00"> icon</text>
</g>
<!-- Node8 -->
<g id="node7" class="node"><title>Node8</title>
<g id="a_node7"><a xlink:href="classofx_oui_1_1_text_box.html" target="_top" xlink:title="Text box font wrapper. ">
<polygon fill="white" stroke="black" points="311.33,-232 311.33,-250 397.359,-250 397.359,-232 311.33,-232"/>
<text text-anchor="middle" x="354.345" y="-238" font-family="Helvetica,sans-Serif" font-size="10.00">ofxOui::TextBox</text>
</a>
</g>
</g>
<!-- Node8&#45;&gt;Node4 -->
<g id="edge9" class="edge"><title>Node8&#45;&gt;Node4</title>
<path fill="none" stroke="#9a32cd" stroke-dasharray="5,2" d="M358.326,-221.655C362.655,-196.948 366.723,-152.454 348.345,-121 337.677,-102.743 316.461,-90.6853 299.81,-83.5977"/>
<polygon fill="#9a32cd" stroke="#9a32cd" points="354.832,-221.288 356.338,-231.775 361.7,-222.637 354.832,-221.288"/>
<text text-anchor="middle" x="382.308" y="-127.5" font-family="Helvetica,sans-Serif" font-size="10.00"> value_text_</text>
</g>
<!-- Node8&#45;&gt;Node5 -->
<g id="edge7" class="edge"><title>Node8&#45;&gt;Node5</title>
<path fill="none" stroke="#9a32cd" stroke-dasharray="5,2" d="M332.332,-226.582C295.021,-203.839 220.439,-158.378 189.879,-139.75"/>
<polygon fill="#9a32cd" stroke="#9a32cd" points="330.605,-229.629 340.966,-231.845 334.249,-223.651 330.605,-229.629"/>
<text text-anchor="middle" x="243.074" y="-160" font-family="Helvetica,sans-Serif" font-size="10.00"> font</text>
</g>
</g>
</svg>
