<?xml version="1.0" encoding="UTF-8" standalone="no"?>
<!DOCTYPE svg PUBLIC "-//W3C//DTD SVG 1.1//EN"
 "http://www.w3.org/Graphics/SVG/1.1/DTD/svg11.dtd">
<!-- Generated by graphviz version 2.38.0 (20140413.2041)
 -->
<!-- Title: ofxOui::MultiSlider::ValueEvent Pages: 1 -->
<svg width="389pt" height="314pt"
 viewBox="0.00 0.00 388.93 314.00" xmlns="http://www.w3.org/2000/svg" xmlns:xlink="http://www.w3.org/1999/xlink">
<g id="graph0" class="graph" transform="scale(1 1) rotate(0) translate(4 310)">
<title>ofxOui::MultiSlider::ValueEvent</title>
<polygon fill="white" stroke="none" points="-4,4 -4,-310 384.93,-310 384.93,4 -4,4"/>
<!-- Node2 -->
<g id="node1" class="node"><title>Node2</title>
<polygon fill="#bfbfbf" stroke="black" points="99.7759,-0.5 99.7759,-28.5 196.914,-28.5 196.914,-0.5 99.7759,-0.5"/>
<text text-anchor="start" x="107.776" y="-16.5" font-family="Helvetica,sans-Serif" font-size="10.00">ofxOui::MultiSlider</text>
<text text-anchor="middle" x="148.345" y="-6.5" font-family="Helvetica,sans-Serif" font-size="10.00">::ValueEvent</text>
</g>
<!-- Node3 -->
<g id="node2" class="node"><title>Node3</title>
<polygon fill="white" stroke="#bfbfbf" points="80.1084,-75.5 80.1084,-93.5 150.581,-93.5 150.581,-75.5 80.1084,-75.5"/>
<text text-anchor="middle" x="115.345" y="-81.5" font-family="Helvetica,sans-Serif" font-size="10.00">ofEventArgs</text>
</g>
<!-- Node3&#45;&gt;Node2 -->
<g id="edge1" class="edge"><title>Node3&#45;&gt;Node2</title>
<path fill="none" stroke="midnightblue" d="M123.702,-66.2797C129.368,-54.6033 136.745,-39.4032 141.945,-28.6867"/>
<polygon fill="midnightblue" stroke="midnightblue" points="120.477,-64.9078 119.26,-75.4325 126.775,-67.964 120.477,-64.9078"/>
</g>
<!-- Node4 -->
<g id="node3" class="node"><title>Node4</title>
<g id="a_node3"><a xlink:href="classofx_oui_1_1_multi_slider.html" target="_top" xlink:title="MultiSlider. ">
<polygon fill="white" stroke="black" points="168.776,-75.5 168.776,-93.5 265.914,-93.5 265.914,-75.5 168.776,-75.5"/>
<text text-anchor="middle" x="217.345" y="-81.5" font-family="Helvetica,sans-Serif" font-size="10.00">ofxOui::MultiSlider</text>
</a>
</g>
</g>
<!-- Node4&#45;&gt;Node2 -->
<g id="edge2" class="edge"><title>Node4&#45;&gt;Node2</title>
<path fill="none" stroke="#9a32cd" stroke-dasharray="5,2" d="M201.984,-68.3621C189.909,-56.4622 173.258,-40.0526 161.725,-28.6867"/>
<polygon fill="#9a32cd" stroke="#9a32cd" points="199.579,-70.9061 209.159,-75.4325 204.493,-65.9203 199.579,-70.9061"/>
<text text-anchor="middle" x="205.022" y="-49" font-family="Helvetica,sans-Serif" font-size="10.00"> sender</text>
</g>
<!-- Node5 -->
<g id="node4" class="node"><title>Node5</title>
<g id="a_node4"><a xlink:href="classofx_oui_1_1_component.html" target="_top" xlink:title="Base UI Component (equivalent to a label) ">
<polygon fill="white" stroke="black" points="166.266,-131.5 166.266,-149.5 268.423,-149.5 268.423,-131.5 166.266,-131.5"/>
<text text-anchor="middle" x="217.345" y="-137.5" font-family="Helvetica,sans-Serif" font-size="10.00">ofxOui::Component</text>
</a>
</g>
</g>
<!-- Node5&#45;&gt;Node4 -->
<g id="edge3" class="edge"><title>Node5&#45;&gt;Node4</title>
<path fill="none" stroke="midnightblue" d="M217.345,-120.829C217.345,-111.577 217.345,-100.88 217.345,-93.7014"/>
<polygon fill="midnightblue" stroke="midnightblue" points="213.845,-121.062 217.345,-131.062 220.845,-121.063 213.845,-121.062"/>
</g>
<!-- Node5&#45;&gt;Node5 -->
<g id="edge8" class="edge"><title>Node5&#45;&gt;Node5</title>
<path fill="none" stroke="#9a32cd" stroke-dasharray="5,2" d="M278.785,-144.453C283.511,-143.578 286.423,-142.26 286.423,-140.5 286.423,-137.684 278.968,-136 268.558,-135.45"/>
<polygon fill="#9a32cd" stroke="#9a32cd" points="278.127,-141.003 268.558,-145.55 278.874,-147.963 278.127,-141.003"/>
<text text-anchor="middle" x="333.677" y="-137.5" font-family="Helvetica,sans-Serif" font-size="10.00"> blocking_component</text>
</g>
<!-- Node6 -->
<g id="node5" class="node"><title>Node6</title>
<g id="a_node5"><a xlink:href="classofx_oui_1_1_style.html" target="_top" xlink:title="Style structure shared among all components. ">
<polygon fill="white" stroke="black" points="0,-242 0,-260 72.6895,-260 72.6895,-242 0,-242"/>
<text text-anchor="middle" x="36.3447" y="-248" font-family="Helvetica,sans-Serif" font-size="10.00">ofxOui::Style</text>
</a>
</g>
</g>
<!-- Node6&#45;&gt;Node5 -->
<g id="edge4" class="edge"><title>Node6&#45;&gt;Node5</title>
<path fill="none" stroke="#9a32cd" stroke-dasharray="5,2" d="M58.7281,-236.582C96.6681,-213.839 172.507,-168.378 203.582,-149.75"/>
<polygon fill="#9a32cd" stroke="#9a32cd" points="56.7266,-233.701 49.9491,-241.845 60.3257,-239.705 56.7266,-233.701"/>
<text text-anchor="middle" x="180.015" y="-170" font-family="Helvetica,sans-Serif" font-size="10.00"> style</text>
</g>
<!-- Node6&#45;&gt;Node6 -->
<g id="edge5" class="edge"><title>Node6&#45;&gt;Node6</title>
<path fill="none" stroke="#9a32cd" stroke-dasharray="5,2" d="M57.8137,-263.814C74.1365,-268.452 90.6895,-264.181 90.6895,-251 90.6895,-235.232 67.0015,-232.214 48.3566,-241.946"/>
<polygon fill="#9a32cd" stroke="#9a32cd" points="58.9422,-260.496 48.3566,-260.054 56.3558,-267.001 58.9422,-260.496"/>
<text text-anchor="middle" x="127.926" y="-298" font-family="Helvetica,sans-Serif" font-size="10.00"> FramedYellow</text>
<text text-anchor="middle" x="127.926" y="-288" font-family="Helvetica,sans-Serif" font-size="10.00">PlainYellow</text>
<text text-anchor="middle" x="127.926" y="-278" font-family="Helvetica,sans-Serif" font-size="10.00">FramedDefault</text>
<text text-anchor="middle" x="127.926" y="-268" font-family="Helvetica,sans-Serif" font-size="10.00">FramedDarkblue</text>
<text text-anchor="middle" x="127.926" y="-258" font-family="Helvetica,sans-Serif" font-size="10.00">PlainDarkblue</text>
<text text-anchor="middle" x="127.926" y="-248" font-family="Helvetica,sans-Serif" font-size="10.00">FramedRed</text>
<text text-anchor="middle" x="127.926" y="-238" font-family="Helvetica,sans-Serif" font-size="10.00">FramedGray</text>
<text text-anchor="middle" x="127.926" y="-228" font-family="Helvetica,sans-Serif" font-size="10.00">FramedGreen</text>
<text text-anchor="middle" x="127.926" y="-218" font-family="Helvetica,sans-Serif" font-size="10.00">FramedBlue</text>
<text text-anchor="middle" x="127.926" y="-208" font-family="Helvetica,sans-Serif" font-size="10.00">Default</text>
<text text-anchor="middle" x="127.926" y="-198" font-family="Helvetica,sans-Serif" font-size="10.00">...</text>
</g>
<!-- Node7 -->
<g id="node6" class="node"><title>Node7</title>
<g id="a_node6"><a xlink:href="classofx_oui_1_1_icon.html" target="_top" xlink:title="Icon image box wrapper. ">
<polygon fill="white" stroke="black" points="182.665,-242 182.665,-260 252.024,-260 252.024,-242 182.665,-242"/>
<text text-anchor="middle" x="217.345" y="-248" font-family="Helvetica,sans-Serif" font-size="10.00">ofxOui::Icon</text>
</a>
</g>
</g>
<!-- Node7&#45;&gt;Node5 -->
<g id="edge6" class="edge"><title>Node7&#45;&gt;Node5</title>
<path fill="none" stroke="#9a32cd" stroke-dasharray="5,2" d="M217.345,-231.659C217.345,-207.798 217.345,-167.115 217.345,-149.75"/>
<polygon fill="#9a32cd" stroke="#9a32cd" points="213.845,-231.845 217.345,-241.845 220.845,-231.845 213.845,-231.845"/>
<text text-anchor="middle" x="227.906" y="-170" font-family="Helvetica,sans-Serif" font-size="10.00"> icon</text>
</g>
<!-- Node8 -->
<g id="node7" class="node"><title>Node8</title>
<g id="a_node7"><a xlink:href="classofx_oui_1_1_text_box.html" target="_top" xlink:title="Text box font wrapper. ">
<polygon fill="white" stroke="black" points="270.33,-242 270.33,-260 356.359,-260 356.359,-242 270.33,-242"/>
<text text-anchor="middle" x="313.345" y="-248" font-family="Helvetica,sans-Serif" font-size="10.00">ofxOui::TextBox</text>
</a>
</g>
</g>
<!-- Node8&#45;&gt;Node5 -->
<g id="edge7" class="edge"><title>Node8&#45;&gt;Node5</title>
<path fill="none" stroke="#9a32cd" stroke-dasharray="5,2" d="M299.877,-234.043C285.742,-217.39 262.775,-190.603 242.345,-168 236.746,-161.806 230.275,-154.954 225.319,-149.77"/>
<polygon fill="#9a32cd" stroke="#9a32cd" points="297.272,-236.382 306.404,-241.752 302.614,-231.859 297.272,-236.382"/>
<text text-anchor="middle" x="259.074" y="-170" font-family="Helvetica,sans-Serif" font-size="10.00"> font</text>
</g>
</g>
</svg>
