<?xml version="1.0" encoding="UTF-8" standalone="no"?>
<!DOCTYPE svg PUBLIC "-//W3C//DTD SVG 1.1//EN"
 "http://www.w3.org/Graphics/SVG/1.1/DTD/svg11.dtd">
<!-- Generated by graphviz version 2.38.0 (20140413.2041)
 -->
<!-- Title: ofxOui::Component Pages: 1 -->
<svg width="389pt" height="183pt"
 viewBox="0.00 0.00 388.93 183.00" xmlns="http://www.w3.org/2000/svg" xmlns:xlink="http://www.w3.org/1999/xlink">
<g id="graph0" class="graph" transform="scale(1 1) rotate(0) translate(4 179)">
<title>ofxOui::Component</title>
<polygon fill="white" stroke="none" points="-4,4 -4,-179 384.93,-179 384.93,4 -4,4"/>
<!-- Node12 -->
<g id="node1" class="node"><title>Node12</title>
<polygon fill="#bfbfbf" stroke="black" points="166.266,-0.5 166.266,-18.5 268.423,-18.5 268.423,-0.5 166.266,-0.5"/>
<text text-anchor="middle" x="217.345" y="-6.5" font-family="Helvetica,sans-Serif" font-size="10.00">ofxOui::Component</text>
</g>
<!-- Node12&#45;&gt;Node12 -->
<g id="edge5" class="edge"><title>Node12&#45;&gt;Node12</title>
<path fill="none" stroke="#9a32cd" stroke-dasharray="5,2" d="M278.785,-14.0175C283.511,-13.0176 286.423,-11.5117 286.423,-9.5 286.423,-6.28125 278.968,-4.35754 268.558,-3.72888"/>
<polygon fill="#9a32cd" stroke="#9a32cd" points="278.057,-10.5805 268.558,-15.2711 278.909,-17.5285 278.057,-10.5805"/>
<text text-anchor="middle" x="333.677" y="-6.5" font-family="Helvetica,sans-Serif" font-size="10.00"> blocking_component</text>
</g>
<!-- Node13 -->
<g id="node2" class="node"><title>Node13</title>
<g id="a_node2"><a xlink:href="classofx_oui_1_1_style.html" target="_top" xlink:title="Style structure shared among all components. ">
<polygon fill="white" stroke="black" points="0,-111 0,-129 72.6895,-129 72.6895,-111 0,-111"/>
<text text-anchor="middle" x="36.3447" y="-117" font-family="Helvetica,sans-Serif" font-size="10.00">ofxOui::Style</text>
</a>
</g>
</g>
<!-- Node13&#45;&gt;Node12 -->
<g id="edge1" class="edge"><title>Node13&#45;&gt;Node12</title>
<path fill="none" stroke="#9a32cd" stroke-dasharray="5,2" d="M58.7281,-105.582C96.6681,-82.8393 172.507,-37.3776 203.582,-18.7498"/>
<polygon fill="#9a32cd" stroke="#9a32cd" points="56.7266,-102.701 49.9491,-110.845 60.3257,-108.705 56.7266,-102.701"/>
<text text-anchor="middle" x="181.015" y="-39" font-family="Helvetica,sans-Serif" font-size="10.00"> style</text>
</g>
<!-- Node13&#45;&gt;Node13 -->
<g id="edge2" class="edge"><title>Node13&#45;&gt;Node13</title>
<path fill="none" stroke="#9a32cd" stroke-dasharray="5,2" d="M57.8137,-132.814C74.1365,-137.452 90.6895,-133.181 90.6895,-120 90.6895,-104.232 67.0015,-101.214 48.3566,-110.946"/>
<polygon fill="#9a32cd" stroke="#9a32cd" points="58.9422,-129.496 48.3566,-129.054 56.3558,-136.001 58.9422,-129.496"/>
<text text-anchor="middle" x="127.926" y="-167" font-family="Helvetica,sans-Serif" font-size="10.00"> FramedYellow</text>
<text text-anchor="middle" x="127.926" y="-157" font-family="Helvetica,sans-Serif" font-size="10.00">PlainYellow</text>
<text text-anchor="middle" x="127.926" y="-147" font-family="Helvetica,sans-Serif" font-size="10.00">FramedDefault</text>
<text text-anchor="middle" x="127.926" y="-137" font-family="Helvetica,sans-Serif" font-size="10.00">FramedDarkblue</text>
<text text-anchor="middle" x="127.926" y="-127" font-family="Helvetica,sans-Serif" font-size="10.00">PlainDarkblue</text>
<text text-anchor="middle" x="127.926" y="-117" font-family="Helvetica,sans-Serif" font-size="10.00">FramedRed</text>
<text text-anchor="middle" x="127.926" y="-107" font-family="Helvetica,sans-Serif" font-size="10.00">FramedGray</text>
<text text-anchor="middle" x="127.926" y="-97" font-family="Helvetica,sans-Serif" font-size="10.00">FramedGreen</text>
<text text-anchor="middle" x="127.926" y="-87" font-family="Helvetica,sans-Serif" font-size="10.00">FramedBlue</text>
<text text-anchor="middle" x="127.926" y="-77" font-family="Helvetica,sans-Serif" font-size="10.00">Default</text>
<text text-anchor="middle" x="127.926" y="-67" font-family="Helvetica,sans-Serif" font-size="10.00">...</text>
</g>
<!-- Node14 -->
<g id="node3" class="node"><title>Node14</title>
<g id="a_node3"><a xlink:href="classofx_oui_1_1_icon.html" target="_top" xlink:title="Icon image box wrapper. ">
<polygon fill="white" stroke="black" points="182.665,-111 182.665,-129 252.024,-129 252.024,-111 182.665,-111"/>
<text text-anchor="middle" x="217.345" y="-117" font-family="Helvetica,sans-Serif" font-size="10.00">ofxOui::Icon</text>
</a>
</g>
</g>
<!-- Node14&#45;&gt;Node12 -->
<g id="edge3" class="edge"><title>Node14&#45;&gt;Node12</title>
<path fill="none" stroke="#9a32cd" stroke-dasharray="5,2" d="M217.345,-100.659C217.345,-76.7983 217.345,-36.1147 217.345,-18.7498"/>
<polygon fill="#9a32cd" stroke="#9a32cd" points="213.845,-100.845 217.345,-110.845 220.845,-100.845 213.845,-100.845"/>
<text text-anchor="middle" x="227.906" y="-39" font-family="Helvetica,sans-Serif" font-size="10.00"> icon</text>
</g>
<!-- Node15 -->
<g id="node4" class="node"><title>Node15</title>
<g id="a_node4"><a xlink:href="classofx_oui_1_1_text_box.html" target="_top" xlink:title="Text box font wrapper. ">
<polygon fill="white" stroke="black" points="270.33,-111 270.33,-129 356.359,-129 356.359,-111 270.33,-111"/>
<text text-anchor="middle" x="313.345" y="-117" font-family="Helvetica,sans-Serif" font-size="10.00">ofxOui::TextBox</text>
</a>
</g>
</g>
<!-- Node15&#45;&gt;Node12 -->
<g id="edge4" class="edge"><title>Node15&#45;&gt;Node12</title>
<path fill="none" stroke="#9a32cd" stroke-dasharray="5,2" d="M299.877,-103.043C285.742,-86.3897 262.775,-59.603 242.345,-37 236.746,-30.8063 230.275,-23.9543 225.319,-18.7696"/>
<polygon fill="#9a32cd" stroke="#9a32cd" points="297.272,-105.382 306.404,-110.752 302.614,-100.859 297.272,-105.382"/>
<text text-anchor="middle" x="260.074" y="-39" font-family="Helvetica,sans-Serif" font-size="10.00"> font</text>
</g>
</g>
</svg>
