<?xml version="1.0" encoding="UTF-8" standalone="no"?>
<!DOCTYPE svg PUBLIC "-//W3C//DTD SVG 1.1//EN"
 "http://www.w3.org/Graphics/SVG/1.1/DTD/svg11.dtd">
<!-- Generated by graphviz version 2.38.0 (20140413.2041)
 -->
<!-- Title: ofxOui::ShapeEditor::EditEvent Pages: 1 -->
<svg width="202pt" height="102pt"
 viewBox="0.00 0.00 201.98 102.00" xmlns="http://www.w3.org/2000/svg" xmlns:xlink="http://www.w3.org/1999/xlink">
<g id="graph0" class="graph" transform="scale(1 1) rotate(0) translate(4 98)">
<title>ofxOui::ShapeEditor::EditEvent</title>
<polygon fill="white" stroke="none" points="-4,4 -4,-98 197.985,-98 197.985,4 -4,4"/>
<!-- Node2 -->
<g id="node1" class="node"><title>Node2</title>
<polygon fill="#bfbfbf" stroke="black" points="35.4878,-0.5 35.4878,-28.5 140.985,-28.5 140.985,-0.5 35.4878,-0.5"/>
<text text-anchor="start" x="43.4878" y="-16.5" font-family="Helvetica,sans-Serif" font-size="10.00">ofxOui::ShapeEditor</text>
<text text-anchor="middle" x="88.2363" y="-6.5" font-family="Helvetica,sans-Serif" font-size="10.00">::EditEvent</text>
</g>
<!-- Node3 -->
<g id="node2" class="node"><title>Node3</title>
<polygon fill="white" stroke="#bfbfbf" points="0,-75.5 0,-93.5 70.4727,-93.5 70.4727,-75.5 0,-75.5"/>
<text text-anchor="middle" x="35.2363" y="-81.5" font-family="Helvetica,sans-Serif" font-size="10.00">ofEventArgs</text>
</g>
<!-- Node3&#45;&gt;Node2 -->
<g id="edge1" class="edge"><title>Node3&#45;&gt;Node2</title>
<path fill="none" stroke="midnightblue" d="M47.8384,-67.3313C57.0375,-55.5287 69.3528,-39.7279 77.9585,-28.6867"/>
<polygon fill="midnightblue" stroke="midnightblue" points="44.9112,-65.3936 41.5243,-75.4325 50.4323,-69.6968 44.9112,-65.3936"/>
</g>
<!-- Node4 -->
<g id="node3" class="node"><title>Node4</title>
<g id="a_node3"><a xlink:href="classofx_oui_1_1_shape_editor.html" target="_top" xlink:title="Shape editor. ">
<polygon fill="white" stroke="black" points="88.4878,-75.5 88.4878,-93.5 193.985,-93.5 193.985,-75.5 88.4878,-75.5"/>
<text text-anchor="middle" x="141.236" y="-81.5" font-family="Helvetica,sans-Serif" font-size="10.00">ofxOui::ShapeEditor</text>
</a>
</g>
</g>
<!-- Node4&#45;&gt;Node2 -->
<g id="edge2" class="edge"><title>Node4&#45;&gt;Node2</title>
<path fill="none" stroke="#9a32cd" stroke-dasharray="5,2" d="M128.634,-67.3313C119.435,-55.5287 107.12,-39.7279 98.5142,-28.6867"/>
<polygon fill="#9a32cd" stroke="#9a32cd" points="126.04,-69.6968 134.948,-75.4325 131.561,-65.3936 126.04,-69.6968"/>
<text text-anchor="middle" x="136.914" y="-49" font-family="Helvetica,sans-Serif" font-size="10.00"> sender</text>
</g>
</g>
</svg>
