<?xml version="1.0" encoding="UTF-8" standalone="no"?>
<!DOCTYPE svg PUBLIC "-//W3C//DTD SVG 1.1//EN"
 "http://www.w3.org/Graphics/SVG/1.1/DTD/svg11.dtd">
<!-- Generated by graphviz version 2.38.0 (20140413.2041)
 -->
<!-- Title: ofxCuiCui::DraggableButton::DropEvent Pages: 1 -->
<svg width="407pt" height="370pt"
 viewBox="0.00 0.00 407.28 370.00" xmlns="http://www.w3.org/2000/svg" xmlns:xlink="http://www.w3.org/1999/xlink">
<g id="graph0" class="graph" transform="scale(1 1) rotate(0) translate(4 366)">
<title>ofxCuiCui::DraggableButton::DropEvent</title>
<polygon fill="white" stroke="none" points="-4,4 -4,-366 403.28,-366 403.28,4 -4,4"/>
<!-- Node1 -->
<g id="node1" class="node"><title>Node1</title>
<polygon fill="#bfbfbf" stroke="black" points="6.25879,-0.5 6.25879,-28.5 146.219,-28.5 146.219,-0.5 6.25879,-0.5"/>
<text text-anchor="start" x="14.2588" y="-16.5" font-family="Helvetica,sans-Serif" font-size="10.00">ofxCuiCui::DraggableButton</text>
<text text-anchor="middle" x="76.2388" y="-6.5" font-family="Helvetica,sans-Serif" font-size="10.00">::DropEvent</text>
</g>
<!-- Node2 -->
<g id="node2" class="node"><title>Node2</title>
<polygon fill="white" stroke="#bfbfbf" points="2.00244,-75.5 2.00244,-93.5 72.4751,-93.5 72.4751,-75.5 2.00244,-75.5"/>
<text text-anchor="middle" x="37.2388" y="-81.5" font-family="Helvetica,sans-Serif" font-size="10.00">ofEventArgs</text>
</g>
<!-- Node2&#45;&gt;Node1 -->
<g id="edge1" class="edge"><title>Node2&#45;&gt;Node1</title>
<path fill="none" stroke="midnightblue" d="M46.9128,-66.6325C53.6355,-54.9109 62.4675,-39.5114 68.6758,-28.6867"/>
<polygon fill="midnightblue" stroke="midnightblue" points="43.8048,-65.0166 41.8657,-75.4325 49.877,-68.4992 43.8048,-65.0166"/>
</g>
<!-- Node3 -->
<g id="node3" class="node"><title>Node3</title>
<g id="a_node3"><a xlink:href="classofx_cui_cui_1_1_draggable_button.html" target="_top" xlink:title="Draggable Button (specialization of button) ">
<polygon fill="white" stroke="black" points="90.2588,-75.5 90.2588,-93.5 230.219,-93.5 230.219,-75.5 90.2588,-75.5"/>
<text text-anchor="middle" x="160.239" y="-81.5" font-family="Helvetica,sans-Serif" font-size="10.00">ofxCuiCui::DraggableButton</text>
</a>
</g>
</g>
<!-- Node3&#45;&gt;Node1 -->
<g id="edge2" class="edge"><title>Node3&#45;&gt;Node1</title>
<path fill="none" stroke="#9a32cd" stroke-dasharray="5,2" d="M142.373,-69.0371C127.614,-57.0892 106.836,-40.2691 92.5282,-28.6867"/>
<polygon fill="#9a32cd" stroke="#9a32cd" points="140.298,-71.8608 150.273,-75.4325 144.703,-66.4201 140.298,-71.8608"/>
<text text-anchor="middle" x="141.916" y="-49" font-family="Helvetica,sans-Serif" font-size="10.00"> sender</text>
</g>
<!-- Node4 -->
<g id="node4" class="node"><title>Node4</title>
<g id="a_node4"><a xlink:href="classofx_cui_cui_1_1_button.html" target="_top" xlink:title="Button component (allows both button and toggle modes) ">
<polygon fill="white" stroke="black" points="113.33,-131.5 113.33,-149.5 207.147,-149.5 207.147,-131.5 113.33,-131.5"/>
<text text-anchor="middle" x="160.239" y="-137.5" font-family="Helvetica,sans-Serif" font-size="10.00">ofxCuiCui::Button</text>
</a>
</g>
</g>
<!-- Node4&#45;&gt;Node3 -->
<g id="edge3" class="edge"><title>Node4&#45;&gt;Node3</title>
<path fill="none" stroke="midnightblue" d="M160.239,-120.829C160.239,-111.577 160.239,-100.88 160.239,-93.7014"/>
<polygon fill="midnightblue" stroke="midnightblue" points="156.739,-121.062 160.239,-131.062 163.739,-121.063 156.739,-121.062"/>
</g>
<!-- Node5 -->
<g id="node5" class="node"><title>Node5</title>
<g id="a_node5"><a xlink:href="classofx_cui_cui_1_1_component.html" target="_top" xlink:title="Base UI Component (equivalent to a label) ">
<polygon fill="white" stroke="black" points="101.936,-187.5 101.936,-205.5 218.542,-205.5 218.542,-187.5 101.936,-187.5"/>
<text text-anchor="middle" x="160.239" y="-193.5" font-family="Helvetica,sans-Serif" font-size="10.00">ofxCuiCui::Component</text>
</a>
</g>
</g>
<!-- Node5&#45;&gt;Node4 -->
<g id="edge4" class="edge"><title>Node5&#45;&gt;Node4</title>
<path fill="none" stroke="midnightblue" d="M160.239,-176.829C160.239,-167.577 160.239,-156.88 160.239,-149.701"/>
<polygon fill="midnightblue" stroke="midnightblue" points="156.739,-177.062 160.239,-187.062 163.739,-177.063 156.739,-177.062"/>
</g>
<!-- Node6 -->
<g id="node6" class="node"><title>Node6</title>
<g id="a_node6"><a xlink:href="classofx_cui_cui_1_1_text_box.html" target="_top" xlink:title="Text box font wrapper. ">
<polygon fill="white" stroke="black" points="0,-298 0,-316 100.478,-316 100.478,-298 0,-298"/>
<text text-anchor="middle" x="50.2388" y="-304" font-family="Helvetica,sans-Serif" font-size="10.00">ofxCuiCui::TextBox</text>
</a>
</g>
</g>
<!-- Node6&#45;&gt;Node5 -->
<g id="edge5" class="edge"><title>Node6&#45;&gt;Node5</title>
<path fill="none" stroke="#9a32cd" stroke-dasharray="5,2" d="M65.6444,-290.804C89.2254,-267.545 133.47,-223.904 151.875,-205.75"/>
<polygon fill="#9a32cd" stroke="#9a32cd" points="63.1683,-288.331 58.5066,-297.845 68.084,-293.314 63.1683,-288.331"/>
<text text-anchor="middle" x="139.968" y="-226" font-family="Helvetica,sans-Serif" font-size="10.00"> font</text>
</g>
<!-- Node7 -->
<g id="node7" class="node"><title>Node7</title>
<g id="a_node7"><a xlink:href="classofx_cui_cui_1_1_icon.html" target="_top" xlink:title="Icon image box wrapper. ">
<polygon fill="white" stroke="black" points="118.335,-298 118.335,-316 202.143,-316 202.143,-298 118.335,-298"/>
<text text-anchor="middle" x="160.239" y="-304" font-family="Helvetica,sans-Serif" font-size="10.00">ofxCuiCui::Icon</text>
</a>
</g>
</g>
<!-- Node7&#45;&gt;Node5 -->
<g id="edge6" class="edge"><title>Node7&#45;&gt;Node5</title>
<path fill="none" stroke="#9a32cd" stroke-dasharray="5,2" d="M160.239,-287.659C160.239,-263.798 160.239,-223.115 160.239,-205.75"/>
<polygon fill="#9a32cd" stroke="#9a32cd" points="156.739,-287.845 160.239,-297.845 163.739,-287.845 156.739,-287.845"/>
<text text-anchor="middle" x="170.8" y="-226" font-family="Helvetica,sans-Serif" font-size="10.00"> icon</text>
</g>
<!-- Node8 -->
<g id="node8" class="node"><title>Node8</title>
<g id="a_node8"><a xlink:href="classofx_cui_cui_1_1_style.html" target="_top" xlink:title="Style structure shared among all components. ">
<polygon fill="white" stroke="black" points="219.67,-298 219.67,-316 306.808,-316 306.808,-298 219.67,-298"/>
<text text-anchor="middle" x="263.239" y="-304" font-family="Helvetica,sans-Serif" font-size="10.00">ofxCuiCui::Style</text>
</a>
</g>
</g>
<!-- Node8&#45;&gt;Node5 -->
<g id="edge7" class="edge"><title>Node8&#45;&gt;Node5</title>
<path fill="none" stroke="#9a32cd" stroke-dasharray="5,2" d="M248.524,-290.5C226.373,-267.166 185.229,-223.825 168.07,-205.75"/>
<polygon fill="#9a32cd" stroke="#9a32cd" points="246.074,-293.002 255.497,-297.845 251.151,-288.183 246.074,-293.002"/>
<text text-anchor="middle" x="204.909" y="-226" font-family="Helvetica,sans-Serif" font-size="10.00"> style</text>
</g>
<!-- Node8&#45;&gt;Node8 -->
<g id="edge8" class="edge"><title>Node8&#45;&gt;Node8</title>
<path fill="none" stroke="#9a32cd" stroke-dasharray="5,2" d="M286.266,-319.475C305.168,-324.647 324.808,-320.489 324.808,-307 324.808,-291.232 297.971,-288.214 276.847,-297.946"/>
<polygon fill="#9a32cd" stroke="#9a32cd" points="287.441,-316.178 276.847,-316.054 285.052,-322.757 287.441,-316.178"/>
<text text-anchor="middle" x="362.044" y="-354" font-family="Helvetica,sans-Serif" font-size="10.00"> FramedYellow</text>
<text text-anchor="middle" x="362.044" y="-344" font-family="Helvetica,sans-Serif" font-size="10.00">PlainYellow</text>
<text text-anchor="middle" x="362.044" y="-334" font-family="Helvetica,sans-Serif" font-size="10.00">FramedDefault</text>
<text text-anchor="middle" x="362.044" y="-324" font-family="Helvetica,sans-Serif" font-size="10.00">FramedDarkblue</text>
<text text-anchor="middle" x="362.044" y="-314" font-family="Helvetica,sans-Serif" font-size="10.00">PlainDarkblue</text>
<text text-anchor="middle" x="362.044" y="-304" font-family="Helvetica,sans-Serif" font-size="10.00">FramedRed</text>
<text text-anchor="middle" x="362.044" y="-294" font-family="Helvetica,sans-Serif" font-size="10.00">FramedGray</text>
<text text-anchor="middle" x="362.044" y="-284" font-family="Helvetica,sans-Serif" font-size="10.00">FramedGreen</text>
<text text-anchor="middle" x="362.044" y="-274" font-family="Helvetica,sans-Serif" font-size="10.00">FramedBlue</text>
<text text-anchor="middle" x="362.044" y="-264" font-family="Helvetica,sans-Serif" font-size="10.00">Default</text>
<text text-anchor="middle" x="362.044" y="-254" font-family="Helvetica,sans-Serif" font-size="10.00">...</text>
</g>
</g>
</svg>
