<?xml version="1.0" encoding="UTF-8" standalone="no"?>
<!DOCTYPE svg PUBLIC "-//W3C//DTD SVG 1.1//EN"
 "http://www.w3.org/Graphics/SVG/1.1/DTD/svg11.dtd">
<!-- Generated by graphviz version 2.38.0 (20140413.2041)
 -->
<!-- Title: ofxCuiCui::Style Pages: 1 -->
<svg width="188pt" height="118pt"
 viewBox="0.00 0.00 187.61 118.00" xmlns="http://www.w3.org/2000/svg" xmlns:xlink="http://www.w3.org/1999/xlink">
<g id="graph0" class="graph" transform="scale(1 1) rotate(0) translate(4 114)">
<title>ofxCuiCui::Style</title>
<polygon fill="white" stroke="none" points="-4,4 -4,-114 183.61,-114 183.61,4 -4,4"/>
<!-- Node1 -->
<g id="node1" class="node"><title>Node1</title>
<polygon fill="#bfbfbf" stroke="black" points="0,-46 0,-64 87.1377,-64 87.1377,-46 0,-46"/>
<text text-anchor="middle" x="43.5688" y="-52" font-family="Helvetica,sans-Serif" font-size="10.00">ofxCuiCui::Style</text>
</g>
<!-- Node1&#45;&gt;Node1 -->
<g id="edge1" class="edge"><title>Node1&#45;&gt;Node1</title>
<path fill="none" stroke="#9a32cd" stroke-dasharray="5,2" d="M97.4493,-57.6518C102.177,-57.0924 105.138,-56.2085 105.138,-55 105.138,-53.0664 97.5593,-51.9637 87.2871,-51.6917"/>
<polygon fill="#9a32cd" stroke="#9a32cd" points="97.0407,-54.1709 87.2871,-58.3083 97.4919,-61.1563 97.0407,-54.1709"/>
<text text-anchor="middle" x="142.374" y="-102" font-family="Helvetica,sans-Serif" font-size="10.00"> FramedYellow</text>
<text text-anchor="middle" x="142.374" y="-92" font-family="Helvetica,sans-Serif" font-size="10.00">PlainYellow</text>
<text text-anchor="middle" x="142.374" y="-82" font-family="Helvetica,sans-Serif" font-size="10.00">FramedDefault</text>
<text text-anchor="middle" x="142.374" y="-72" font-family="Helvetica,sans-Serif" font-size="10.00">FramedDarkblue</text>
<text text-anchor="middle" x="142.374" y="-62" font-family="Helvetica,sans-Serif" font-size="10.00">PlainDarkblue</text>
<text text-anchor="middle" x="142.374" y="-52" font-family="Helvetica,sans-Serif" font-size="10.00">FramedRed</text>
<text text-anchor="middle" x="142.374" y="-42" font-family="Helvetica,sans-Serif" font-size="10.00">FramedGray</text>
<text text-anchor="middle" x="142.374" y="-32" font-family="Helvetica,sans-Serif" font-size="10.00">FramedGreen</text>
<text text-anchor="middle" x="142.374" y="-22" font-family="Helvetica,sans-Serif" font-size="10.00">FramedBlue</text>
<text text-anchor="middle" x="142.374" y="-12" font-family="Helvetica,sans-Serif" font-size="10.00">Default</text>
<text text-anchor="middle" x="142.374" y="-2" font-family="Helvetica,sans-Serif" font-size="10.00">...</text>
</g>
</g>
</svg>
