<?xml version="1.0" encoding="UTF-8" standalone="no"?>
<!DOCTYPE svg PUBLIC "-//W3C//DTD SVG 1.1//EN"
 "http://www.w3.org/Graphics/SVG/1.1/DTD/svg11.dtd">
<!-- Generated by graphviz version 2.38.0 (20140413.2041)
 -->
<!-- Title: ofxOui::Slider Pages: 1 -->
<svg width="414pt" height="295pt"
 viewBox="0.00 0.00 414.27 295.00" xmlns="http://www.w3.org/2000/svg" xmlns:xlink="http://www.w3.org/1999/xlink">
<g id="graph0" class="graph" transform="scale(1 1) rotate(0) translate(4 291)">
<title>ofxOui::Slider</title>
<polygon fill="white" stroke="none" points="-4,4 -4,-291 410.271,-291 410.271,4 -4,4"/>
<!-- Node3 -->
<g id="node1" class="node"><title>Node3</title>
<polygon fill="#bfbfbf" stroke="black" points="287.333,-0.5 287.333,-18.5 363.357,-18.5 363.357,-0.5 287.333,-0.5"/>
<text text-anchor="middle" x="325.345" y="-6.5" font-family="Helvetica,sans-Serif" font-size="10.00">ofxOui::Slider</text>
</g>
<!-- Node4 -->
<g id="node2" class="node"><title>Node4</title>
<g id="a_node2"><a xlink:href="classofx_oui_1_1_numbox.html" target="_top" xlink:title="Number box (with mouse + keyboard interaction, C74 max style) ">
<polygon fill="white" stroke="black" points="281.498,-56.5 281.498,-74.5 369.192,-74.5 369.192,-56.5 281.498,-56.5"/>
<text text-anchor="middle" x="325.345" y="-62.5" font-family="Helvetica,sans-Serif" font-size="10.00">ofxOui::Numbox</text>
</a>
</g>
</g>
<!-- Node4&#45;&gt;Node3 -->
<g id="edge1" class="edge"><title>Node4&#45;&gt;Node3</title>
<path fill="none" stroke="midnightblue" d="M325.345,-45.8288C325.345,-36.5774 325.345,-25.8798 325.345,-18.7014"/>
<polygon fill="midnightblue" stroke="midnightblue" points="321.845,-46.0625 325.345,-56.0625 328.845,-46.0625 321.845,-46.0625"/>
</g>
<!-- Node5 -->
<g id="node3" class="node"><title>Node5</title>
<g id="a_node3"><a xlink:href="classofx_oui_1_1_component.html" target="_top" xlink:title="Base UI Component (equivalent to a label) ">
<polygon fill="white" stroke="black" points="125.266,-112.5 125.266,-130.5 227.423,-130.5 227.423,-112.5 125.266,-112.5"/>
<text text-anchor="middle" x="176.345" y="-118.5" font-family="Helvetica,sans-Serif" font-size="10.00">ofxOui::Component</text>
</a>
</g>
</g>
<!-- Node5&#45;&gt;Node4 -->
<g id="edge2" class="edge"><title>Node5&#45;&gt;Node4</title>
<path fill="none" stroke="midnightblue" d="M208.157,-108.971C236.642,-98.6473 277.694,-83.7693 302.885,-74.6396"/>
<polygon fill="midnightblue" stroke="midnightblue" points="206.861,-105.718 198.652,-112.416 209.246,-112.299 206.861,-105.718"/>
</g>
<!-- Node5&#45;&gt;Node5 -->
<g id="edge7" class="edge"><title>Node5&#45;&gt;Node5</title>
<path fill="none" stroke="#9a32cd" stroke-dasharray="5,2" d="M237.785,-125.453C242.511,-124.578 245.423,-123.26 245.423,-121.5 245.423,-118.684 237.968,-117 227.558,-116.45"/>
<polygon fill="#9a32cd" stroke="#9a32cd" points="237.127,-122.003 227.558,-126.55 237.874,-128.963 237.127,-122.003"/>
<text text-anchor="middle" x="292.677" y="-118.5" font-family="Helvetica,sans-Serif" font-size="10.00"> blocking_component</text>
</g>
<!-- Node6 -->
<g id="node4" class="node"><title>Node6</title>
<g id="a_node4"><a xlink:href="classofx_oui_1_1_style.html" target="_top" xlink:title="Style structure shared among all components. ">
<polygon fill="white" stroke="black" points="0,-223 0,-241 72.6895,-241 72.6895,-223 0,-223"/>
<text text-anchor="middle" x="36.3447" y="-229" font-family="Helvetica,sans-Serif" font-size="10.00">ofxOui::Style</text>
</a>
</g>
</g>
<!-- Node6&#45;&gt;Node5 -->
<g id="edge3" class="edge"><title>Node6&#45;&gt;Node5</title>
<path fill="none" stroke="#9a32cd" stroke-dasharray="5,2" d="M54.791,-216.704C84.4895,-193.688 141.969,-149.141 165.7,-130.75"/>
<polygon fill="#9a32cd" stroke="#9a32cd" points="52.6276,-213.953 46.8675,-222.845 56.9157,-219.486 52.6276,-213.953"/>
<text text-anchor="middle" x="151.015" y="-151" font-family="Helvetica,sans-Serif" font-size="10.00"> style</text>
</g>
<!-- Node6&#45;&gt;Node6 -->
<g id="edge4" class="edge"><title>Node6&#45;&gt;Node6</title>
<path fill="none" stroke="#9a32cd" stroke-dasharray="5,2" d="M57.8137,-244.814C74.1365,-249.452 90.6895,-245.181 90.6895,-232 90.6895,-216.232 67.0015,-213.214 48.3566,-222.946"/>
<polygon fill="#9a32cd" stroke="#9a32cd" points="58.9422,-241.496 48.3566,-241.054 56.3558,-248.001 58.9422,-241.496"/>
<text text-anchor="middle" x="127.926" y="-279" font-family="Helvetica,sans-Serif" font-size="10.00"> FramedYellow</text>
<text text-anchor="middle" x="127.926" y="-269" font-family="Helvetica,sans-Serif" font-size="10.00">PlainYellow</text>
<text text-anchor="middle" x="127.926" y="-259" font-family="Helvetica,sans-Serif" font-size="10.00">FramedDefault</text>
<text text-anchor="middle" x="127.926" y="-249" font-family="Helvetica,sans-Serif" font-size="10.00">FramedDarkblue</text>
<text text-anchor="middle" x="127.926" y="-239" font-family="Helvetica,sans-Serif" font-size="10.00">PlainDarkblue</text>
<text text-anchor="middle" x="127.926" y="-229" font-family="Helvetica,sans-Serif" font-size="10.00">FramedRed</text>
<text text-anchor="middle" x="127.926" y="-219" font-family="Helvetica,sans-Serif" font-size="10.00">FramedGray</text>
<text text-anchor="middle" x="127.926" y="-209" font-family="Helvetica,sans-Serif" font-size="10.00">FramedGreen</text>
<text text-anchor="middle" x="127.926" y="-199" font-family="Helvetica,sans-Serif" font-size="10.00">FramedBlue</text>
<text text-anchor="middle" x="127.926" y="-189" font-family="Helvetica,sans-Serif" font-size="10.00">Default</text>
<text text-anchor="middle" x="127.926" y="-179" font-family="Helvetica,sans-Serif" font-size="10.00">...</text>
</g>
<!-- Node7 -->
<g id="node5" class="node"><title>Node7</title>
<g id="a_node5"><a xlink:href="classofx_oui_1_1_icon.html" target="_top" xlink:title="Icon image box wrapper. ">
<polygon fill="white" stroke="black" points="182.665,-223 182.665,-241 252.024,-241 252.024,-223 182.665,-223"/>
<text text-anchor="middle" x="217.345" y="-229" font-family="Helvetica,sans-Serif" font-size="10.00">ofxOui::Icon</text>
</a>
</g>
</g>
<!-- Node7&#45;&gt;Node5 -->
<g id="edge5" class="edge"><title>Node7&#45;&gt;Node5</title>
<path fill="none" stroke="#9a32cd" stroke-dasharray="5,2" d="M210.658,-213.305C201.678,-189.54 186.084,-148.273 179.462,-130.75"/>
<polygon fill="#9a32cd" stroke="#9a32cd" points="207.454,-214.728 214.263,-222.845 214.002,-212.253 207.454,-214.728"/>
<text text-anchor="middle" x="200.906" y="-151" font-family="Helvetica,sans-Serif" font-size="10.00"> icon</text>
</g>
<!-- Node8 -->
<g id="node6" class="node"><title>Node8</title>
<g id="a_node6"><a xlink:href="classofx_oui_1_1_text_box.html" target="_top" xlink:title="Text box font wrapper. ">
<polygon fill="white" stroke="black" points="311.33,-223 311.33,-241 397.359,-241 397.359,-223 311.33,-223"/>
<text text-anchor="middle" x="354.345" y="-229" font-family="Helvetica,sans-Serif" font-size="10.00">ofxOui::TextBox</text>
</a>
</g>
</g>
<!-- Node8&#45;&gt;Node4 -->
<g id="edge8" class="edge"><title>Node8&#45;&gt;Node4</title>
<path fill="none" stroke="#9a32cd" stroke-dasharray="5,2" d="M355.741,-212.736C357.029,-189.065 357.549,-146.71 348.345,-112 344.669,-98.1401 336.435,-83.6011 330.884,-74.7927"/>
<polygon fill="#9a32cd" stroke="#9a32cd" points="352.247,-212.533 355.086,-222.741 359.232,-212.991 352.247,-212.533"/>
<text text-anchor="middle" x="379.308" y="-118.5" font-family="Helvetica,sans-Serif" font-size="10.00"> value_text_</text>
</g>
<!-- Node8&#45;&gt;Node5 -->
<g id="edge6" class="edge"><title>Node8&#45;&gt;Node5</title>
<path fill="none" stroke="#9a32cd" stroke-dasharray="5,2" d="M332.332,-217.582C295.021,-194.839 220.439,-149.378 189.879,-130.75"/>
<polygon fill="#9a32cd" stroke="#9a32cd" points="330.605,-220.629 340.966,-222.845 334.249,-214.651 330.605,-220.629"/>
<text text-anchor="middle" x="244.074" y="-151" font-family="Helvetica,sans-Serif" font-size="10.00"> font</text>
</g>
</g>
</svg>
