<?xml version="1.0" encoding="UTF-8" standalone="no"?>
<!DOCTYPE svg PUBLIC "-//W3C//DTD SVG 1.1//EN"
 "http://www.w3.org/Graphics/SVG/1.1/DTD/svg11.dtd">
<!-- Generated by graphviz version 2.38.0 (20140413.2041)
 -->
<!-- Title: ofxCuiCui::Component Pages: 1 -->
<svg width="449pt" height="249pt"
 viewBox="0.00 0.00 448.71 249.00" xmlns="http://www.w3.org/2000/svg" xmlns:xlink="http://www.w3.org/1999/xlink">
<g id="graph0" class="graph" transform="scale(1 1) rotate(0) translate(4 245)">
<title>ofxCuiCui::Component</title>
<polygon fill="white" stroke="none" points="-4,4 -4,-245 444.713,-245 444.713,4 -4,4"/>
<!-- Node1 -->
<g id="node1" class="node"><title>Node1</title>
<polygon fill="#bfbfbf" stroke="black" points="0,-111.5 0,-129.5 116.605,-129.5 116.605,-111.5 0,-111.5"/>
<text text-anchor="middle" x="58.3027" y="-117.5" font-family="Helvetica,sans-Serif" font-size="10.00">ofxCuiCui::Component</text>
</g>
<!-- Node2 -->
<g id="node2" class="node"><title>Node2</title>
<g id="a_node2"><a xlink:href="classofx_cui_cui_1_1_bpf.html" target="_top" xlink:title="Breakpoint function component. ">
<polygon fill="white" stroke="black" points="168.721,-222.5 168.721,-240.5 248.637,-240.5 248.637,-222.5 168.721,-222.5"/>
<text text-anchor="middle" x="208.679" y="-228.5" font-family="Helvetica,sans-Serif" font-size="10.00">ofxCuiCui::Bpf</text>
</a>
</g>
</g>
<!-- Node1&#45;&gt;Node2 -->
<g id="edge1" class="edge"><title>Node1&#45;&gt;Node2</title>
<path fill="none" stroke="midnightblue" d="M72.1575,-137.509C88.6544,-158.231 119.163,-193.004 152.605,-213.5 158.438,-217.074 165.057,-220.02 171.634,-222.418"/>
<polygon fill="midnightblue" stroke="midnightblue" points="74.8824,-135.312 65.9776,-129.571 69.3589,-139.612 74.8824,-135.312"/>
</g>
<!-- Node3 -->
<g id="node3" class="node"><title>Node3</title>
<g id="a_node3"><a xlink:href="classofx_cui_cui_1_1_button.html" target="_top" xlink:title="Button component (allows both button and toggle modes) ">
<polygon fill="white" stroke="black" points="161.771,-185.5 161.771,-203.5 255.588,-203.5 255.588,-185.5 161.771,-185.5"/>
<text text-anchor="middle" x="208.679" y="-191.5" font-family="Helvetica,sans-Serif" font-size="10.00">ofxCuiCui::Button</text>
</a>
</g>
</g>
<!-- Node1&#45;&gt;Node3 -->
<g id="edge2" class="edge"><title>Node1&#45;&gt;Node3</title>
<path fill="none" stroke="midnightblue" d="M80.894,-135.371C99.3319,-147.596 126.877,-164.755 152.605,-176.5 159.926,-179.842 168.05,-182.853 175.759,-185.413"/>
<polygon fill="midnightblue" stroke="midnightblue" points="82.6328,-132.323 72.3813,-129.648 78.7271,-138.132 82.6328,-132.323"/>
</g>
<!-- Node6 -->
<g id="node6" class="node"><title>Node6</title>
<g id="a_node6"><a xlink:href="classofx_cui_cui_1_1_drop_down.html" target="_top" xlink:title="Drop&#45;down menu. ">
<polygon fill="white" stroke="black" points="152.605,-148.5 152.605,-166.5 264.753,-166.5 264.753,-148.5 152.605,-148.5"/>
<text text-anchor="middle" x="208.679" y="-154.5" font-family="Helvetica,sans-Serif" font-size="10.00">ofxCuiCui::DropDown</text>
</a>
</g>
</g>
<!-- Node1&#45;&gt;Node6 -->
<g id="edge5" class="edge"><title>Node1&#45;&gt;Node6</title>
<path fill="none" stroke="midnightblue" d="M105.406,-131.997C126.692,-137.305 151.596,-143.515 171.5,-148.478"/>
<polygon fill="midnightblue" stroke="midnightblue" points="106.149,-128.575 95.5997,-129.551 104.456,-135.367 106.149,-128.575"/>
</g>
<!-- Node7 -->
<g id="node7" class="node"><title>Node7</title>
<g id="a_node7"><a xlink:href="classofx_cui_cui_1_1_matrix.html" target="_top" xlink:title="Button Matrix (supports both button &#45;single&#45;button activation&#45; and toggle &#45;multi&#45;button activation&#45;) ...">
<polygon fill="white" stroke="black" points="162.615,-111.5 162.615,-129.5 254.743,-129.5 254.743,-111.5 162.615,-111.5"/>
<text text-anchor="middle" x="208.679" y="-117.5" font-family="Helvetica,sans-Serif" font-size="10.00">ofxCuiCui::Matrix</text>
</a>
</g>
</g>
<!-- Node1&#45;&gt;Node7 -->
<g id="edge6" class="edge"><title>Node1&#45;&gt;Node7</title>
<path fill="none" stroke="midnightblue" d="M126.737,-120.5C138.824,-120.5 151.152,-120.5 162.423,-120.5"/>
<polygon fill="midnightblue" stroke="midnightblue" points="126.669,-117 116.669,-120.5 126.669,-124 126.669,-117"/>
</g>
<!-- Node8 -->
<g id="node8" class="node"><title>Node8</title>
<g id="a_node8"><a xlink:href="classofx_cui_cui_1_1_multi_slider.html" target="_top" xlink:title="MultiSlider. ">
<polygon fill="white" stroke="black" points="152.886,-74.5 152.886,-92.5 264.472,-92.5 264.472,-74.5 152.886,-74.5"/>
<text text-anchor="middle" x="208.679" y="-80.5" font-family="Helvetica,sans-Serif" font-size="10.00">ofxCuiCui::MultiSlider</text>
</a>
</g>
</g>
<!-- Node1&#45;&gt;Node8 -->
<g id="edge7" class="edge"><title>Node1&#45;&gt;Node8</title>
<path fill="none" stroke="midnightblue" d="M105.406,-109.003C126.692,-103.695 151.596,-97.4851 171.5,-92.5218"/>
<polygon fill="midnightblue" stroke="midnightblue" points="104.456,-105.633 95.5997,-111.449 106.149,-112.425 104.456,-105.633"/>
</g>
<!-- Node9 -->
<g id="node9" class="node"><title>Node9</title>
<g id="a_node9"><a xlink:href="classofx_cui_cui_1_1_numbox.html" target="_top" xlink:title="Number box (with mouse + keyboard interaction, C74 max style) ">
<polygon fill="white" stroke="black" points="157.608,-37.5 157.608,-55.5 259.75,-55.5 259.75,-37.5 157.608,-37.5"/>
<text text-anchor="middle" x="208.679" y="-43.5" font-family="Helvetica,sans-Serif" font-size="10.00">ofxCuiCui::Numbox</text>
</a>
</g>
</g>
<!-- Node1&#45;&gt;Node9 -->
<g id="edge8" class="edge"><title>Node1&#45;&gt;Node9</title>
<path fill="none" stroke="midnightblue" d="M81.2999,-105.825C99.7883,-93.9135 127.193,-77.2295 152.605,-65.5 160.595,-61.8123 169.515,-58.4367 177.81,-55.587"/>
<polygon fill="midnightblue" stroke="midnightblue" points="79.2077,-103.011 72.7452,-111.406 83.0327,-108.873 79.2077,-103.011"/>
</g>
<!-- Node11 -->
<g id="node11" class="node"><title>Node11</title>
<g id="a_node11"><a xlink:href="classofx_cui_cui_1_1_text_input.html" target="_top" xlink:title="Text input component (single&#45;line) ">
<polygon fill="white" stroke="black" points="155.936,-0.5 155.936,-18.5 261.423,-18.5 261.423,-0.5 155.936,-0.5"/>
<text text-anchor="middle" x="208.679" y="-6.5" font-family="Helvetica,sans-Serif" font-size="10.00">ofxCuiCui::TextInput</text>
</a>
</g>
</g>
<!-- Node1&#45;&gt;Node11 -->
<g id="edge10" class="edge"><title>Node1&#45;&gt;Node11</title>
<path fill="none" stroke="midnightblue" d="M72.5076,-103.456C89.1585,-83.0174 119.623,-48.9627 152.605,-28.5 159.052,-24.5009 166.448,-21.2142 173.684,-18.5658"/>
<polygon fill="midnightblue" stroke="midnightblue" points="69.7488,-101.302 66.2501,-111.302 75.2215,-105.666 69.7488,-101.302"/>
</g>
<!-- Node4 -->
<g id="node4" class="node"><title>Node4</title>
<g id="a_node4"><a xlink:href="classofx_cui_cui_1_1_check_box.html" target="_top" xlink:title="Check box component (specialization of button) ">
<polygon fill="white" stroke="black" points="315.492,-203.5 315.492,-221.5 425.974,-221.5 425.974,-203.5 315.492,-203.5"/>
<text text-anchor="middle" x="370.733" y="-209.5" font-family="Helvetica,sans-Serif" font-size="10.00">ofxCuiCui::CheckBox</text>
</a>
</g>
</g>
<!-- Node3&#45;&gt;Node4 -->
<g id="edge3" class="edge"><title>Node3&#45;&gt;Node4</title>
<path fill="none" stroke="midnightblue" d="M266.234,-200.86C282.192,-202.655 299.517,-204.603 315.345,-206.383"/>
<polygon fill="midnightblue" stroke="midnightblue" points="266.302,-197.346 255.973,-199.706 265.52,-204.302 266.302,-197.346"/>
</g>
<!-- Node5 -->
<g id="node5" class="node"><title>Node5</title>
<g id="a_node5"><a xlink:href="classofx_cui_cui_1_1_draggable_button.html" target="_top" xlink:title="Draggable Button (specialization of button) ">
<polygon fill="white" stroke="black" points="300.753,-166.5 300.753,-184.5 440.713,-184.5 440.713,-166.5 300.753,-166.5"/>
<text text-anchor="middle" x="370.733" y="-172.5" font-family="Helvetica,sans-Serif" font-size="10.00">ofxCuiCui::DraggableButton</text>
</a>
</g>
</g>
<!-- Node3&#45;&gt;Node5 -->
<g id="edge4" class="edge"><title>Node3&#45;&gt;Node5</title>
<path fill="none" stroke="midnightblue" d="M266.023,-187.811C277.204,-186.484 289.063,-185.076 300.613,-183.705"/>
<polygon fill="midnightblue" stroke="midnightblue" points="265.491,-184.35 255.973,-189.004 266.316,-191.301 265.491,-184.35"/>
</g>
<!-- Node10 -->
<g id="node10" class="node"><title>Node10</title>
<g id="a_node10"><a xlink:href="classofx_cui_cui_1_1_slider.html" target="_top" xlink:title="Slider controller. ">
<polygon fill="white" stroke="black" points="325.497,-37.5 325.497,-55.5 415.969,-55.5 415.969,-37.5 325.497,-37.5"/>
<text text-anchor="middle" x="370.733" y="-43.5" font-family="Helvetica,sans-Serif" font-size="10.00">ofxCuiCui::Slider</text>
</a>
</g>
</g>
<!-- Node9&#45;&gt;Node10 -->
<g id="edge9" class="edge"><title>Node9&#45;&gt;Node10</title>
<path fill="none" stroke="midnightblue" d="M269.93,-46.5C288.341,-46.5 308.242,-46.5 325.392,-46.5"/>
<polygon fill="midnightblue" stroke="midnightblue" points="269.882,-43.0001 259.882,-46.5 269.882,-50.0001 269.882,-43.0001"/>
</g>
</g>
</svg>
