<?xml version="1.0" encoding="UTF-8" standalone="no"?>
<!DOCTYPE svg PUBLIC "-//W3C//DTD SVG 1.1//EN"
 "http://www.w3.org/Graphics/SVG/1.1/DTD/svg11.dtd">
<!-- Generated by graphviz version 2.38.0 (20140413.2041)
 -->
<!-- Title: ofxCuiCui::CheckBox Pages: 1 -->
<svg width="407pt" height="295pt"
 viewBox="0.00 0.00 407.28 295.00" xmlns="http://www.w3.org/2000/svg" xmlns:xlink="http://www.w3.org/1999/xlink">
<g id="graph0" class="graph" transform="scale(1 1) rotate(0) translate(4 291)">
<title>ofxCuiCui::CheckBox</title>
<polygon fill="white" stroke="none" points="-4,4 -4,-291 403.28,-291 403.28,4 -4,4"/>
<!-- Node1 -->
<g id="node1" class="node"><title>Node1</title>
<polygon fill="#bfbfbf" stroke="black" points="104.998,-0.5 104.998,-18.5 215.48,-18.5 215.48,-0.5 104.998,-0.5"/>
<text text-anchor="middle" x="160.239" y="-6.5" font-family="Helvetica,sans-Serif" font-size="10.00">ofxCuiCui::CheckBox</text>
</g>
<!-- Node2 -->
<g id="node2" class="node"><title>Node2</title>
<g id="a_node2"><a xlink:href="classofx_cui_cui_1_1_button.html" target="_top" xlink:title="Button component (allows both button and toggle modes) ">
<polygon fill="white" stroke="black" points="113.33,-56.5 113.33,-74.5 207.147,-74.5 207.147,-56.5 113.33,-56.5"/>
<text text-anchor="middle" x="160.239" y="-62.5" font-family="Helvetica,sans-Serif" font-size="10.00">ofxCuiCui::Button</text>
</a>
</g>
</g>
<!-- Node2&#45;&gt;Node1 -->
<g id="edge1" class="edge"><title>Node2&#45;&gt;Node1</title>
<path fill="none" stroke="midnightblue" d="M160.239,-45.8288C160.239,-36.5774 160.239,-25.8798 160.239,-18.7014"/>
<polygon fill="midnightblue" stroke="midnightblue" points="156.739,-46.0625 160.239,-56.0625 163.739,-46.0625 156.739,-46.0625"/>
</g>
<!-- Node3 -->
<g id="node3" class="node"><title>Node3</title>
<g id="a_node3"><a xlink:href="classofx_cui_cui_1_1_component.html" target="_top" xlink:title="Base UI Component (equivalent to a label) ">
<polygon fill="white" stroke="black" points="101.936,-112.5 101.936,-130.5 218.542,-130.5 218.542,-112.5 101.936,-112.5"/>
<text text-anchor="middle" x="160.239" y="-118.5" font-family="Helvetica,sans-Serif" font-size="10.00">ofxCuiCui::Component</text>
</a>
</g>
</g>
<!-- Node3&#45;&gt;Node2 -->
<g id="edge2" class="edge"><title>Node3&#45;&gt;Node2</title>
<path fill="none" stroke="midnightblue" d="M160.239,-101.829C160.239,-92.5774 160.239,-81.8798 160.239,-74.7014"/>
<polygon fill="midnightblue" stroke="midnightblue" points="156.739,-102.062 160.239,-112.062 163.739,-102.063 156.739,-102.062"/>
</g>
<!-- Node4 -->
<g id="node4" class="node"><title>Node4</title>
<g id="a_node4"><a xlink:href="classofx_cui_cui_1_1_text_box.html" target="_top" xlink:title="Text box font wrapper. ">
<polygon fill="white" stroke="black" points="0,-223 0,-241 100.478,-241 100.478,-223 0,-223"/>
<text text-anchor="middle" x="50.2388" y="-229" font-family="Helvetica,sans-Serif" font-size="10.00">ofxCuiCui::TextBox</text>
</a>
</g>
</g>
<!-- Node4&#45;&gt;Node3 -->
<g id="edge3" class="edge"><title>Node4&#45;&gt;Node3</title>
<path fill="none" stroke="#9a32cd" stroke-dasharray="5,2" d="M65.6444,-215.804C89.2254,-192.545 133.47,-148.904 151.875,-130.75"/>
<polygon fill="#9a32cd" stroke="#9a32cd" points="63.1683,-213.331 58.5066,-222.845 68.084,-218.314 63.1683,-213.331"/>
<text text-anchor="middle" x="140.968" y="-151" font-family="Helvetica,sans-Serif" font-size="10.00"> font</text>
</g>
<!-- Node5 -->
<g id="node5" class="node"><title>Node5</title>
<g id="a_node5"><a xlink:href="classofx_cui_cui_1_1_icon.html" target="_top" xlink:title="Icon image box wrapper. ">
<polygon fill="white" stroke="black" points="118.335,-223 118.335,-241 202.143,-241 202.143,-223 118.335,-223"/>
<text text-anchor="middle" x="160.239" y="-229" font-family="Helvetica,sans-Serif" font-size="10.00">ofxCuiCui::Icon</text>
</a>
</g>
</g>
<!-- Node5&#45;&gt;Node3 -->
<g id="edge4" class="edge"><title>Node5&#45;&gt;Node3</title>
<path fill="none" stroke="#9a32cd" stroke-dasharray="5,2" d="M160.239,-212.659C160.239,-188.798 160.239,-148.115 160.239,-130.75"/>
<polygon fill="#9a32cd" stroke="#9a32cd" points="156.739,-212.845 160.239,-222.845 163.739,-212.845 156.739,-212.845"/>
<text text-anchor="middle" x="170.8" y="-151" font-family="Helvetica,sans-Serif" font-size="10.00"> icon</text>
</g>
<!-- Node6 -->
<g id="node6" class="node"><title>Node6</title>
<g id="a_node6"><a xlink:href="classofx_cui_cui_1_1_style.html" target="_top" xlink:title="Style structure shared among all components. ">
<polygon fill="white" stroke="black" points="219.67,-223 219.67,-241 306.808,-241 306.808,-223 219.67,-223"/>
<text text-anchor="middle" x="263.239" y="-229" font-family="Helvetica,sans-Serif" font-size="10.00">ofxCuiCui::Style</text>
</a>
</g>
</g>
<!-- Node6&#45;&gt;Node3 -->
<g id="edge5" class="edge"><title>Node6&#45;&gt;Node3</title>
<path fill="none" stroke="#9a32cd" stroke-dasharray="5,2" d="M248.524,-215.5C226.373,-192.166 185.229,-148.825 168.07,-130.75"/>
<polygon fill="#9a32cd" stroke="#9a32cd" points="246.074,-218.002 255.497,-222.845 251.151,-213.183 246.074,-218.002"/>
<text text-anchor="middle" x="204.909" y="-151" font-family="Helvetica,sans-Serif" font-size="10.00"> style</text>
</g>
<!-- Node6&#45;&gt;Node6 -->
<g id="edge6" class="edge"><title>Node6&#45;&gt;Node6</title>
<path fill="none" stroke="#9a32cd" stroke-dasharray="5,2" d="M286.266,-244.475C305.168,-249.647 324.808,-245.489 324.808,-232 324.808,-216.232 297.971,-213.214 276.847,-222.946"/>
<polygon fill="#9a32cd" stroke="#9a32cd" points="287.441,-241.178 276.847,-241.054 285.052,-247.757 287.441,-241.178"/>
<text text-anchor="middle" x="362.044" y="-279" font-family="Helvetica,sans-Serif" font-size="10.00"> FramedYellow</text>
<text text-anchor="middle" x="362.044" y="-269" font-family="Helvetica,sans-Serif" font-size="10.00">PlainYellow</text>
<text text-anchor="middle" x="362.044" y="-259" font-family="Helvetica,sans-Serif" font-size="10.00">FramedDefault</text>
<text text-anchor="middle" x="362.044" y="-249" font-family="Helvetica,sans-Serif" font-size="10.00">FramedDarkblue</text>
<text text-anchor="middle" x="362.044" y="-239" font-family="Helvetica,sans-Serif" font-size="10.00">PlainDarkblue</text>
<text text-anchor="middle" x="362.044" y="-229" font-family="Helvetica,sans-Serif" font-size="10.00">FramedRed</text>
<text text-anchor="middle" x="362.044" y="-219" font-family="Helvetica,sans-Serif" font-size="10.00">FramedGray</text>
<text text-anchor="middle" x="362.044" y="-209" font-family="Helvetica,sans-Serif" font-size="10.00">FramedGreen</text>
<text text-anchor="middle" x="362.044" y="-199" font-family="Helvetica,sans-Serif" font-size="10.00">FramedBlue</text>
<text text-anchor="middle" x="362.044" y="-189" font-family="Helvetica,sans-Serif" font-size="10.00">Default</text>
<text text-anchor="middle" x="362.044" y="-179" font-family="Helvetica,sans-Serif" font-size="10.00">...</text>
</g>
</g>
</svg>
