<?xml version="1.0" encoding="UTF-8" standalone="no"?>
<!DOCTYPE svg PUBLIC "-//W3C//DTD SVG 1.1//EN"
 "http://www.w3.org/Graphics/SVG/1.1/DTD/svg11.dtd">
<!-- Generated by graphviz version 2.38.0 (20140413.2041)
 -->
<!-- Title: ofxCuiCui::Numbox::ValueEvent Pages: 1 -->
<svg width="472pt" height="314pt"
 viewBox="0.00 0.00 472.28 314.00" xmlns="http://www.w3.org/2000/svg" xmlns:xlink="http://www.w3.org/1999/xlink">
<g id="graph0" class="graph" transform="scale(1 1) rotate(0) translate(4 310)">
<title>ofxCuiCui::Numbox::ValueEvent</title>
<polygon fill="white" stroke="none" points="-4,4 -4,-310 468.278,-310 468.278,4 -4,4"/>
<!-- Node1 -->
<g id="node1" class="node"><title>Node1</title>
<polygon fill="#bfbfbf" stroke="black" points="15.3867,-0.5 15.3867,-28.5 123.086,-28.5 123.086,-0.5 15.3867,-0.5"/>
<text text-anchor="start" x="23.3867" y="-16.5" font-family="Helvetica,sans-Serif" font-size="10.00">ofxCuiCui::Numbox::</text>
<text text-anchor="middle" x="69.2363" y="-6.5" font-family="Helvetica,sans-Serif" font-size="10.00">ValueEvent</text>
</g>
<!-- Node2 -->
<g id="node2" class="node"><title>Node2</title>
<polygon fill="white" stroke="#bfbfbf" points="0,-75.5 0,-93.5 70.4727,-93.5 70.4727,-75.5 0,-75.5"/>
<text text-anchor="middle" x="35.2363" y="-81.5" font-family="Helvetica,sans-Serif" font-size="10.00">ofEventArgs</text>
</g>
<!-- Node2&#45;&gt;Node1 -->
<g id="edge1" class="edge"><title>Node2&#45;&gt;Node1</title>
<path fill="none" stroke="midnightblue" d="M43.8465,-66.2797C49.6847,-54.6033 57.2848,-39.4032 62.643,-28.6867"/>
<polygon fill="midnightblue" stroke="midnightblue" points="40.6118,-64.9229 39.2701,-75.4325 46.8728,-68.0535 40.6118,-64.9229"/>
</g>
<!-- Node3 -->
<g id="node3" class="node"><title>Node3</title>
<g id="a_node3"><a xlink:href="classofx_cui_cui_1_1_numbox.html" target="_top" xlink:title="Number box (with mouse + keyboard interaction, C74 max style) ">
<polygon fill="white" stroke="black" points="88.165,-75.5 88.165,-93.5 190.308,-93.5 190.308,-75.5 88.165,-75.5"/>
<text text-anchor="middle" x="139.236" y="-81.5" font-family="Helvetica,sans-Serif" font-size="10.00">ofxCuiCui::Numbox</text>
</a>
</g>
</g>
<!-- Node3&#45;&gt;Node1 -->
<g id="edge2" class="edge"><title>Node3&#45;&gt;Node1</title>
<path fill="none" stroke="#9a32cd" stroke-dasharray="5,2" d="M123.653,-68.3621C111.403,-56.4622 94.5111,-40.0526 82.8108,-28.6867"/>
<polygon fill="#9a32cd" stroke="#9a32cd" points="121.32,-70.9751 130.932,-75.4325 126.197,-65.9541 121.32,-70.9751"/>
<text text-anchor="middle" x="126.914" y="-49" font-family="Helvetica,sans-Serif" font-size="10.00"> sender</text>
</g>
<!-- Node4 -->
<g id="node4" class="node"><title>Node4</title>
<g id="a_node4"><a xlink:href="classofx_cui_cui_1_1_component.html" target="_top" xlink:title="Base UI Component (equivalent to a label) ">
<polygon fill="white" stroke="black" points="171.934,-131.5 171.934,-149.5 288.539,-149.5 288.539,-131.5 171.934,-131.5"/>
<text text-anchor="middle" x="230.236" y="-137.5" font-family="Helvetica,sans-Serif" font-size="10.00">ofxCuiCui::Component</text>
</a>
</g>
</g>
<!-- Node4&#45;&gt;Node3 -->
<g id="edge3" class="edge"><title>Node4&#45;&gt;Node3</title>
<path fill="none" stroke="midnightblue" d="M207.565,-126.046C190.382,-115.85 167.338,-102.176 152.889,-93.6017"/>
<polygon fill="midnightblue" stroke="midnightblue" points="206.029,-129.205 216.415,-131.299 209.602,-123.185 206.029,-129.205"/>
</g>
<!-- Node5 -->
<g id="node5" class="node"><title>Node5</title>
<g id="a_node5"><a xlink:href="classofx_cui_cui_1_1_text_box.html" target="_top" xlink:title="Text box font wrapper. ">
<polygon fill="white" stroke="black" points="59.9976,-242 59.9976,-260 160.475,-260 160.475,-242 59.9976,-242"/>
<text text-anchor="middle" x="110.236" y="-248" font-family="Helvetica,sans-Serif" font-size="10.00">ofxCuiCui::TextBox</text>
</a>
</g>
</g>
<!-- Node5&#45;&gt;Node3 -->
<g id="edge8" class="edge"><title>Node5&#45;&gt;Node3</title>
<path fill="none" stroke="#9a32cd" stroke-dasharray="5,2" d="M106.868,-231.979C103.155,-208.259 98.9734,-165.528 109.311,-131 113.649,-116.508 124.254,-102.358 131.598,-93.7827"/>
<polygon fill="#9a32cd" stroke="#9a32cd" points="103.443,-232.715 108.587,-241.977 110.341,-231.528 103.443,-232.715"/>
<text text-anchor="middle" x="136.199" y="-137.5" font-family="Helvetica,sans-Serif" font-size="10.00"> value_text_</text>
</g>
<!-- Node5&#45;&gt;Node4 -->
<g id="edge4" class="edge"><title>Node5&#45;&gt;Node4</title>
<path fill="none" stroke="#9a32cd" stroke-dasharray="5,2" d="M126.708,-235.107C152.347,-211.925 200.946,-167.983 221.112,-149.75"/>
<polygon fill="#9a32cd" stroke="#9a32cd" points="124.326,-232.542 119.256,-241.845 129.021,-237.734 124.326,-232.542"/>
<text text-anchor="middle" x="206.965" y="-170" font-family="Helvetica,sans-Serif" font-size="10.00"> font</text>
</g>
<!-- Node6 -->
<g id="node6" class="node"><title>Node6</title>
<g id="a_node6"><a xlink:href="classofx_cui_cui_1_1_icon.html" target="_top" xlink:title="Icon image box wrapper. ">
<polygon fill="white" stroke="black" points="183.333,-242 183.333,-260 267.14,-260 267.14,-242 183.333,-242"/>
<text text-anchor="middle" x="225.236" y="-248" font-family="Helvetica,sans-Serif" font-size="10.00">ofxCuiCui::Icon</text>
</a>
</g>
</g>
<!-- Node6&#45;&gt;Node4 -->
<g id="edge5" class="edge"><title>Node6&#45;&gt;Node4</title>
<path fill="none" stroke="#9a32cd" stroke-dasharray="5,2" d="M226.082,-231.659C227.181,-207.798 229.056,-167.115 229.856,-149.75"/>
<polygon fill="#9a32cd" stroke="#9a32cd" points="222.576,-231.694 225.612,-241.845 229.569,-232.017 222.576,-231.694"/>
<text text-anchor="middle" x="238.798" y="-170" font-family="Helvetica,sans-Serif" font-size="10.00"> icon</text>
</g>
<!-- Node7 -->
<g id="node7" class="node"><title>Node7</title>
<g id="a_node7"><a xlink:href="classofx_cui_cui_1_1_style.html" target="_top" xlink:title="Style structure shared among all components. ">
<polygon fill="white" stroke="black" points="284.667,-242 284.667,-260 371.805,-260 371.805,-242 284.667,-242"/>
<text text-anchor="middle" x="328.236" y="-248" font-family="Helvetica,sans-Serif" font-size="10.00">ofxCuiCui::Style</text>
</a>
</g>
</g>
<!-- Node7&#45;&gt;Node4 -->
<g id="edge6" class="edge"><title>Node7&#45;&gt;Node4</title>
<path fill="none" stroke="#9a32cd" stroke-dasharray="5,2" d="M313.959,-234.193C292.819,-210.788 253.943,-167.746 237.688,-149.75"/>
<polygon fill="#9a32cd" stroke="#9a32cd" points="311.57,-236.77 320.87,-241.845 316.765,-232.078 311.57,-236.77"/>
<text text-anchor="middle" x="272.906" y="-170" font-family="Helvetica,sans-Serif" font-size="10.00"> style</text>
</g>
<!-- Node7&#45;&gt;Node7 -->
<g id="edge7" class="edge"><title>Node7&#45;&gt;Node7</title>
<path fill="none" stroke="#9a32cd" stroke-dasharray="5,2" d="M351.264,-263.475C370.165,-268.647 389.805,-264.489 389.805,-251 389.805,-235.232 362.968,-232.214 341.845,-241.946"/>
<polygon fill="#9a32cd" stroke="#9a32cd" points="352.439,-260.178 341.845,-260.054 350.05,-266.757 352.439,-260.178"/>
<text text-anchor="middle" x="427.042" y="-298" font-family="Helvetica,sans-Serif" font-size="10.00"> FramedYellow</text>
<text text-anchor="middle" x="427.042" y="-288" font-family="Helvetica,sans-Serif" font-size="10.00">PlainYellow</text>
<text text-anchor="middle" x="427.042" y="-278" font-family="Helvetica,sans-Serif" font-size="10.00">FramedDefault</text>
<text text-anchor="middle" x="427.042" y="-268" font-family="Helvetica,sans-Serif" font-size="10.00">FramedDarkblue</text>
<text text-anchor="middle" x="427.042" y="-258" font-family="Helvetica,sans-Serif" font-size="10.00">PlainDarkblue</text>
<text text-anchor="middle" x="427.042" y="-248" font-family="Helvetica,sans-Serif" font-size="10.00">FramedRed</text>
<text text-anchor="middle" x="427.042" y="-238" font-family="Helvetica,sans-Serif" font-size="10.00">FramedGray</text>
<text text-anchor="middle" x="427.042" y="-228" font-family="Helvetica,sans-Serif" font-size="10.00">FramedGreen</text>
<text text-anchor="middle" x="427.042" y="-218" font-family="Helvetica,sans-Serif" font-size="10.00">FramedBlue</text>
<text text-anchor="middle" x="427.042" y="-208" font-family="Helvetica,sans-Serif" font-size="10.00">Default</text>
<text text-anchor="middle" x="427.042" y="-198" font-family="Helvetica,sans-Serif" font-size="10.00">...</text>
</g>
</g>
</svg>
