<?xml version="1.0" encoding="UTF-8" standalone="no"?>
<!DOCTYPE svg PUBLIC "-//W3C//DTD SVG 1.1//EN"
 "http://www.w3.org/Graphics/SVG/1.1/DTD/svg11.dtd">
<!-- Generated by graphviz version 2.38.0 (20140413.2041)
 -->
<!-- Title: ofxOui::DraggableButton Pages: 1 -->
<svg width="134pt" height="137pt"
 viewBox="0.00 0.00 133.51 137.00" xmlns="http://www.w3.org/2000/svg" xmlns:xlink="http://www.w3.org/1999/xlink">
<g id="graph0" class="graph" transform="scale(1 1) rotate(0) translate(4 133)">
<title>ofxOui::DraggableButton</title>
<polygon fill="white" stroke="none" points="-4,4 -4,-133 129.512,-133 129.512,4 -4,4"/>
<!-- Node0 -->
<g id="node1" class="node"><title>Node0</title>
<polygon fill="#bfbfbf" stroke="black" points="0,-0.5 0,-18.5 125.512,-18.5 125.512,-0.5 0,-0.5"/>
<text text-anchor="middle" x="62.7559" y="-6.5" font-family="Helvetica,sans-Serif" font-size="10.00">ofxOui::DraggableButton</text>
</g>
<!-- Node1 -->
<g id="node2" class="node"><title>Node1</title>
<g id="a_node2"><a xlink:href="classofx_oui_1_1_button.html" target="_top" xlink:title="Button component (allows both button and toggle modes) ">
<polygon fill="white" stroke="black" points="23.0713,-55.5 23.0713,-73.5 102.44,-73.5 102.44,-55.5 23.0713,-55.5"/>
<text text-anchor="middle" x="62.7559" y="-61.5" font-family="Helvetica,sans-Serif" font-size="10.00">ofxOui::Button</text>
</a>
</g>
</g>
<!-- Node1&#45;&gt;Node0 -->
<g id="edge1" class="edge"><title>Node1&#45;&gt;Node0</title>
<path fill="none" stroke="midnightblue" d="M62.7559,-45.1746C62.7559,-36.0945 62.7559,-25.5949 62.7559,-18.5496"/>
<polygon fill="midnightblue" stroke="midnightblue" points="59.256,-45.2187 62.7559,-55.2188 66.256,-45.2188 59.256,-45.2187"/>
</g>
<!-- Node2 -->
<g id="node3" class="node"><title>Node2</title>
<g id="a_node3"><a xlink:href="classofx_oui_1_1_component.html" target="_top" xlink:title="Base UI Component (equivalent to a label) ">
<polygon fill="white" stroke="black" points="11.6772,-110.5 11.6772,-128.5 113.834,-128.5 113.834,-110.5 11.6772,-110.5"/>
<text text-anchor="middle" x="62.7559" y="-116.5" font-family="Helvetica,sans-Serif" font-size="10.00">ofxOui::Component</text>
</a>
</g>
</g>
<!-- Node2&#45;&gt;Node1 -->
<g id="edge2" class="edge"><title>Node2&#45;&gt;Node1</title>
<path fill="none" stroke="midnightblue" d="M62.7559,-100.175C62.7559,-91.0945 62.7559,-80.5949 62.7559,-73.5496"/>
<polygon fill="midnightblue" stroke="midnightblue" points="59.256,-100.219 62.7559,-110.219 66.256,-100.219 59.256,-100.219"/>
</g>
</g>
</svg>
