<?xml version="1.0" encoding="UTF-8" standalone="no"?>
<!DOCTYPE svg PUBLIC "-//W3C//DTD SVG 1.1//EN"
 "http://www.w3.org/Graphics/SVG/1.1/DTD/svg11.dtd">
<!-- Generated by graphviz version 2.38.0 (20140413.2041)
 -->
<!-- Title: ofxCuiCui::Matrix Pages: 1 -->
<svg width="407pt" height="304pt"
 viewBox="0.00 0.00 407.28 304.00" xmlns="http://www.w3.org/2000/svg" xmlns:xlink="http://www.w3.org/1999/xlink">
<g id="graph0" class="graph" transform="scale(1 1) rotate(0) translate(4 300)">
<title>ofxCuiCui::Matrix</title>
<polygon fill="white" stroke="none" points="-4,4 -4,-300 403.28,-300 403.28,4 -4,4"/>
<!-- Node1 -->
<g id="node1" class="node"><title>Node1</title>
<polygon fill="#bfbfbf" stroke="black" points="129.175,-0.5 129.175,-18.5 221.303,-18.5 221.303,-0.5 129.175,-0.5"/>
<text text-anchor="middle" x="175.239" y="-6.5" font-family="Helvetica,sans-Serif" font-size="10.00">ofxCuiCui::Matrix</text>
</g>
<!-- Node2 -->
<g id="node2" class="node"><title>Node2</title>
<g id="a_node2"><a xlink:href="classofx_cui_cui_1_1_component.html" target="_top" xlink:title="Base UI Component (equivalent to a label) ">
<polygon fill="white" stroke="black" points="101.936,-121.5 101.936,-139.5 218.542,-139.5 218.542,-121.5 101.936,-121.5"/>
<text text-anchor="middle" x="160.239" y="-127.5" font-family="Helvetica,sans-Serif" font-size="10.00">ofxCuiCui::Component</text>
</a>
</g>
</g>
<!-- Node2&#45;&gt;Node1 -->
<g id="edge1" class="edge"><title>Node2&#45;&gt;Node1</title>
<path fill="none" stroke="midnightblue" d="M162.081,-110.797C163.396,-97.9095 165.274,-80.3979 167.239,-65 169.345,-48.4939 172.284,-29.2481 173.951,-18.6123"/>
<polygon fill="midnightblue" stroke="midnightblue" points="158.559,-110.84 161.045,-121.139 165.524,-111.537 158.559,-110.84"/>
</g>
<!-- Node6 -->
<g id="node6" class="node"><title>Node6</title>
<g id="a_node6"><a xlink:href="classofx_cui_cui_1_1_button.html" target="_top" xlink:title="Button component (allows both button and toggle modes) ">
<polygon fill="white" stroke="black" points="176.33,-65.5 176.33,-83.5 270.147,-83.5 270.147,-65.5 176.33,-65.5"/>
<text text-anchor="middle" x="223.239" y="-71.5" font-family="Helvetica,sans-Serif" font-size="10.00">ofxCuiCui::Button</text>
</a>
</g>
</g>
<!-- Node2&#45;&gt;Node6 -->
<g id="edge7" class="edge"><title>Node2&#45;&gt;Node6</title>
<path fill="none" stroke="midnightblue" d="M177.563,-114.651C189.169,-104.703 204.019,-91.9744 213.58,-83.7786"/>
<polygon fill="midnightblue" stroke="midnightblue" points="175.122,-112.133 169.807,-121.299 179.677,-117.448 175.122,-112.133"/>
</g>
<!-- Node3 -->
<g id="node3" class="node"><title>Node3</title>
<g id="a_node3"><a xlink:href="classofx_cui_cui_1_1_text_box.html" target="_top" xlink:title="Text box font wrapper. ">
<polygon fill="white" stroke="black" points="0,-232 0,-250 100.478,-250 100.478,-232 0,-232"/>
<text text-anchor="middle" x="50.2388" y="-238" font-family="Helvetica,sans-Serif" font-size="10.00">ofxCuiCui::TextBox</text>
</a>
</g>
</g>
<!-- Node3&#45;&gt;Node2 -->
<g id="edge2" class="edge"><title>Node3&#45;&gt;Node2</title>
<path fill="none" stroke="#9a32cd" stroke-dasharray="5,2" d="M65.6444,-224.804C89.2254,-201.545 133.47,-157.904 151.875,-139.75"/>
<polygon fill="#9a32cd" stroke="#9a32cd" points="63.1683,-222.331 58.5066,-231.845 68.084,-227.314 63.1683,-222.331"/>
<text text-anchor="middle" x="140.968" y="-160" font-family="Helvetica,sans-Serif" font-size="10.00"> font</text>
</g>
<!-- Node4 -->
<g id="node4" class="node"><title>Node4</title>
<g id="a_node4"><a xlink:href="classofx_cui_cui_1_1_icon.html" target="_top" xlink:title="Icon image box wrapper. ">
<polygon fill="white" stroke="black" points="118.335,-232 118.335,-250 202.143,-250 202.143,-232 118.335,-232"/>
<text text-anchor="middle" x="160.239" y="-238" font-family="Helvetica,sans-Serif" font-size="10.00">ofxCuiCui::Icon</text>
</a>
</g>
</g>
<!-- Node4&#45;&gt;Node2 -->
<g id="edge3" class="edge"><title>Node4&#45;&gt;Node2</title>
<path fill="none" stroke="#9a32cd" stroke-dasharray="5,2" d="M160.239,-221.659C160.239,-197.798 160.239,-157.115 160.239,-139.75"/>
<polygon fill="#9a32cd" stroke="#9a32cd" points="156.739,-221.845 160.239,-231.845 163.739,-221.845 156.739,-221.845"/>
<text text-anchor="middle" x="170.8" y="-160" font-family="Helvetica,sans-Serif" font-size="10.00"> icon</text>
</g>
<!-- Node5 -->
<g id="node5" class="node"><title>Node5</title>
<g id="a_node5"><a xlink:href="classofx_cui_cui_1_1_style.html" target="_top" xlink:title="Style structure shared among all components. ">
<polygon fill="white" stroke="black" points="219.67,-232 219.67,-250 306.808,-250 306.808,-232 219.67,-232"/>
<text text-anchor="middle" x="263.239" y="-238" font-family="Helvetica,sans-Serif" font-size="10.00">ofxCuiCui::Style</text>
</a>
</g>
</g>
<!-- Node5&#45;&gt;Node2 -->
<g id="edge4" class="edge"><title>Node5&#45;&gt;Node2</title>
<path fill="none" stroke="#9a32cd" stroke-dasharray="5,2" d="M248.524,-224.5C226.373,-201.166 185.229,-157.825 168.07,-139.75"/>
<polygon fill="#9a32cd" stroke="#9a32cd" points="246.074,-227.002 255.497,-231.845 251.151,-222.183 246.074,-227.002"/>
<text text-anchor="middle" x="205.909" y="-160" font-family="Helvetica,sans-Serif" font-size="10.00"> style</text>
</g>
<!-- Node5&#45;&gt;Node5 -->
<g id="edge5" class="edge"><title>Node5&#45;&gt;Node5</title>
<path fill="none" stroke="#9a32cd" stroke-dasharray="5,2" d="M286.266,-253.475C305.168,-258.647 324.808,-254.489 324.808,-241 324.808,-225.232 297.971,-222.214 276.847,-231.946"/>
<polygon fill="#9a32cd" stroke="#9a32cd" points="287.441,-250.178 276.847,-250.054 285.052,-256.757 287.441,-250.178"/>
<text text-anchor="middle" x="362.044" y="-288" font-family="Helvetica,sans-Serif" font-size="10.00"> FramedYellow</text>
<text text-anchor="middle" x="362.044" y="-278" font-family="Helvetica,sans-Serif" font-size="10.00">PlainYellow</text>
<text text-anchor="middle" x="362.044" y="-268" font-family="Helvetica,sans-Serif" font-size="10.00">FramedDefault</text>
<text text-anchor="middle" x="362.044" y="-258" font-family="Helvetica,sans-Serif" font-size="10.00">FramedDarkblue</text>
<text text-anchor="middle" x="362.044" y="-248" font-family="Helvetica,sans-Serif" font-size="10.00">PlainDarkblue</text>
<text text-anchor="middle" x="362.044" y="-238" font-family="Helvetica,sans-Serif" font-size="10.00">FramedRed</text>
<text text-anchor="middle" x="362.044" y="-228" font-family="Helvetica,sans-Serif" font-size="10.00">FramedGray</text>
<text text-anchor="middle" x="362.044" y="-218" font-family="Helvetica,sans-Serif" font-size="10.00">FramedGreen</text>
<text text-anchor="middle" x="362.044" y="-208" font-family="Helvetica,sans-Serif" font-size="10.00">FramedBlue</text>
<text text-anchor="middle" x="362.044" y="-198" font-family="Helvetica,sans-Serif" font-size="10.00">Default</text>
<text text-anchor="middle" x="362.044" y="-188" font-family="Helvetica,sans-Serif" font-size="10.00">...</text>
</g>
<!-- Node6&#45;&gt;Node1 -->
<g id="edge6" class="edge"><title>Node6&#45;&gt;Node1</title>
<path fill="none" stroke="#9a32cd" stroke-dasharray="5,2" d="M210.754,-57.1142C201.306,-44.7134 188.737,-28.2167 181.364,-18.539"/>
<polygon fill="#9a32cd" stroke="#9a32cd" points="208.119,-59.4307 216.964,-65.2639 213.687,-55.1883 208.119,-59.4307"/>
<text text-anchor="middle" x="241.714" y="-39" font-family="Helvetica,sans-Serif" font-size="10.00"> selected_button_</text>
</g>
</g>
</svg>
