<?xml version="1.0" encoding="UTF-8" standalone="no"?>
<!DOCTYPE svg PUBLIC "-//W3C//DTD SVG 1.1//EN"
 "http://www.w3.org/Graphics/SVG/1.1/DTD/svg11.dtd">
<!-- Generated by graphviz version 2.38.0 (20140413.2041)
 -->
<!-- Title: ofxCuiCui::TextBox Pages: 1 -->
<svg width="108pt" height="102pt"
 viewBox="0.00 0.00 108.48 102.00" xmlns="http://www.w3.org/2000/svg" xmlns:xlink="http://www.w3.org/1999/xlink">
<g id="graph0" class="graph" transform="scale(1 1) rotate(0) translate(4 98)">
<title>ofxCuiCui::TextBox</title>
<polygon fill="white" stroke="none" points="-4,4 -4,-98 104.478,-98 104.478,4 -4,4"/>
<!-- Node1 -->
<g id="node1" class="node"><title>Node1</title>
<polygon fill="#bfbfbf" stroke="black" points="0,-0.5 0,-18.5 100.478,-18.5 100.478,-0.5 0,-0.5"/>
<text text-anchor="middle" x="50.2388" y="-6.5" font-family="Helvetica,sans-Serif" font-size="10.00">ofxCuiCui::TextBox</text>
</g>
<!-- Node2 -->
<g id="node2" class="node"><title>Node2</title>
<g id="a_node2"><a xlink:href="classofx_cui_cui_1_1_text_box_1_1_font_catalog.html" target="_top" xlink:title="ofxCuiCui::TextBox\l::FontCatalog">
<polygon fill="white" stroke="black" points="0,-65.5 0,-93.5 100.478,-93.5 100.478,-65.5 0,-65.5"/>
<text text-anchor="start" x="8" y="-81.5" font-family="Helvetica,sans-Serif" font-size="10.00">ofxCuiCui::TextBox</text>
<text text-anchor="middle" x="50.2388" y="-71.5" font-family="Helvetica,sans-Serif" font-size="10.00">::FontCatalog</text>
</a>
</g>
</g>
<!-- Node2&#45;&gt;Node1 -->
<g id="edge1" class="edge"><title>Node2&#45;&gt;Node1</title>
<path fill="none" stroke="#9a32cd" stroke-dasharray="5,2" d="M50.2388,-55.1036C50.2388,-42.547 50.2388,-27.8462 50.2388,-18.8552"/>
<polygon fill="#9a32cd" stroke="#9a32cd" points="46.7389,-55.3889 50.2388,-65.3889 53.7389,-55.389 46.7389,-55.3889"/>
<text text-anchor="middle" x="67.751" y="-39" font-family="Helvetica,sans-Serif" font-size="10.00"> catalog</text>
</g>
</g>
</svg>
