<?xml version="1.0" encoding="UTF-8" standalone="no"?>
<!DOCTYPE svg PUBLIC "-//W3C//DTD SVG 1.1//EN"
 "http://www.w3.org/Graphics/SVG/1.1/DTD/svg11.dtd">
<!-- Generated by graphviz version 2.38.0 (20140413.2041)
 -->
<!-- Title: ofxOui::Numbox Pages: 1 -->
<svg width="110pt" height="137pt"
 viewBox="0.00 0.00 110.16 137.00" xmlns="http://www.w3.org/2000/svg" xmlns:xlink="http://www.w3.org/1999/xlink">
<g id="graph0" class="graph" transform="scale(1 1) rotate(0) translate(4 133)">
<title>ofxOui::Numbox</title>
<polygon fill="white" stroke="none" points="-4,4 -4,-133 106.157,-133 106.157,4 -4,4"/>
<!-- Node0 -->
<g id="node1" class="node"><title>Node0</title>
<polygon fill="#bfbfbf" stroke="black" points="7.23145,-55.5 7.23145,-73.5 94.9258,-73.5 94.9258,-55.5 7.23145,-55.5"/>
<text text-anchor="middle" x="51.0786" y="-61.5" font-family="Helvetica,sans-Serif" font-size="10.00">ofxOui::Numbox</text>
</g>
<!-- Node2 -->
<g id="node3" class="node"><title>Node2</title>
<g id="a_node3"><a xlink:href="classofx_oui_1_1_slider.html" target="_top" xlink:title="Slider controller. ">
<polygon fill="white" stroke="black" points="13.0664,-0.5 13.0664,-18.5 89.0908,-18.5 89.0908,-0.5 13.0664,-0.5"/>
<text text-anchor="middle" x="51.0786" y="-6.5" font-family="Helvetica,sans-Serif" font-size="10.00">ofxOui::Slider</text>
</a>
</g>
</g>
<!-- Node0&#45;&gt;Node2 -->
<g id="edge2" class="edge"><title>Node0&#45;&gt;Node2</title>
<path fill="none" stroke="midnightblue" d="M51.0786,-45.1746C51.0786,-36.0945 51.0786,-25.5949 51.0786,-18.5496"/>
<polygon fill="midnightblue" stroke="midnightblue" points="47.5787,-45.2187 51.0786,-55.2188 54.5787,-45.2188 47.5787,-45.2187"/>
</g>
<!-- Node1 -->
<g id="node2" class="node"><title>Node1</title>
<g id="a_node2"><a xlink:href="classofx_oui_1_1_component.html" target="_top" xlink:title="Base UI Component (equivalent to a label) ">
<polygon fill="white" stroke="black" points="0,-110.5 0,-128.5 102.157,-128.5 102.157,-110.5 0,-110.5"/>
<text text-anchor="middle" x="51.0786" y="-116.5" font-family="Helvetica,sans-Serif" font-size="10.00">ofxOui::Component</text>
</a>
</g>
</g>
<!-- Node1&#45;&gt;Node0 -->
<g id="edge1" class="edge"><title>Node1&#45;&gt;Node0</title>
<path fill="none" stroke="midnightblue" d="M51.0786,-100.175C51.0786,-91.0945 51.0786,-80.5949 51.0786,-73.5496"/>
<polygon fill="midnightblue" stroke="midnightblue" points="47.5787,-100.219 51.0786,-110.219 54.5787,-100.219 47.5787,-100.219"/>
</g>
</g>
</svg>
