<?xml version="1.0" encoding="UTF-8" standalone="no"?>
<!DOCTYPE svg PUBLIC "-//W3C//DTD SVG 1.1//EN"
 "http://www.w3.org/Graphics/SVG/1.1/DTD/svg11.dtd">
<!-- Generated by graphviz version 2.38.0 (20140413.2041)
 -->
<!-- Title: ofxCuiCui::Button::ClickEvent Pages: 1 -->
<svg width="407pt" height="314pt"
 viewBox="0.00 0.00 407.28 314.00" xmlns="http://www.w3.org/2000/svg" xmlns:xlink="http://www.w3.org/1999/xlink">
<g id="graph0" class="graph" transform="scale(1 1) rotate(0) translate(4 310)">
<title>ofxCuiCui::Button::ClickEvent</title>
<polygon fill="white" stroke="none" points="-4,4 -4,-310 403.28,-310 403.28,4 -4,4"/>
<!-- Node1 -->
<g id="node1" class="node"><title>Node1</title>
<polygon fill="#bfbfbf" stroke="black" points="43.5518,-0.5 43.5518,-28.5 142.926,-28.5 142.926,-0.5 43.5518,-0.5"/>
<text text-anchor="start" x="51.5518" y="-16.5" font-family="Helvetica,sans-Serif" font-size="10.00">ofxCuiCui::Button::</text>
<text text-anchor="middle" x="93.2388" y="-6.5" font-family="Helvetica,sans-Serif" font-size="10.00">ClickEvent</text>
</g>
<!-- Node2 -->
<g id="node2" class="node"><title>Node2</title>
<polygon fill="white" stroke="#bfbfbf" points="25.0024,-75.5 25.0024,-93.5 95.4751,-93.5 95.4751,-75.5 25.0024,-75.5"/>
<text text-anchor="middle" x="60.2388" y="-81.5" font-family="Helvetica,sans-Serif" font-size="10.00">ofEventArgs</text>
</g>
<!-- Node2&#45;&gt;Node1 -->
<g id="edge1" class="edge"><title>Node2&#45;&gt;Node1</title>
<path fill="none" stroke="midnightblue" d="M68.5957,-66.2797C74.2622,-54.6033 81.6387,-39.4032 86.8394,-28.6867"/>
<polygon fill="midnightblue" stroke="midnightblue" points="65.3711,-64.9078 64.1539,-75.4325 71.6687,-67.964 65.3711,-64.9078"/>
</g>
<!-- Node3 -->
<g id="node3" class="node"><title>Node3</title>
<g id="a_node3"><a xlink:href="classofx_cui_cui_1_1_button.html" target="_top" xlink:title="Button component (allows both button and toggle modes) ">
<polygon fill="white" stroke="black" points="113.33,-75.5 113.33,-93.5 207.147,-93.5 207.147,-75.5 113.33,-75.5"/>
<text text-anchor="middle" x="160.239" y="-81.5" font-family="Helvetica,sans-Serif" font-size="10.00">ofxCuiCui::Button</text>
</a>
</g>
</g>
<!-- Node3&#45;&gt;Node1 -->
<g id="edge2" class="edge"><title>Node3&#45;&gt;Node1</title>
<path fill="none" stroke="#9a32cd" stroke-dasharray="5,2" d="M144.987,-68.0209C133.291,-56.1501 117.324,-39.9444 106.232,-28.6867"/>
<polygon fill="#9a32cd" stroke="#9a32cd" points="142.778,-70.7657 152.29,-75.4325 147.765,-65.8527 142.778,-70.7657"/>
<text text-anchor="middle" x="148.916" y="-49" font-family="Helvetica,sans-Serif" font-size="10.00"> sender</text>
</g>
<!-- Node4 -->
<g id="node4" class="node"><title>Node4</title>
<g id="a_node4"><a xlink:href="classofx_cui_cui_1_1_component.html" target="_top" xlink:title="Base UI Component (equivalent to a label) ">
<polygon fill="white" stroke="black" points="101.936,-131.5 101.936,-149.5 218.542,-149.5 218.542,-131.5 101.936,-131.5"/>
<text text-anchor="middle" x="160.239" y="-137.5" font-family="Helvetica,sans-Serif" font-size="10.00">ofxCuiCui::Component</text>
</a>
</g>
</g>
<!-- Node4&#45;&gt;Node3 -->
<g id="edge3" class="edge"><title>Node4&#45;&gt;Node3</title>
<path fill="none" stroke="midnightblue" d="M160.239,-120.829C160.239,-111.577 160.239,-100.88 160.239,-93.7014"/>
<polygon fill="midnightblue" stroke="midnightblue" points="156.739,-121.062 160.239,-131.062 163.739,-121.063 156.739,-121.062"/>
</g>
<!-- Node5 -->
<g id="node5" class="node"><title>Node5</title>
<g id="a_node5"><a xlink:href="classofx_cui_cui_1_1_text_box.html" target="_top" xlink:title="Text box font wrapper. ">
<polygon fill="white" stroke="black" points="0,-242 0,-260 100.478,-260 100.478,-242 0,-242"/>
<text text-anchor="middle" x="50.2388" y="-248" font-family="Helvetica,sans-Serif" font-size="10.00">ofxCuiCui::TextBox</text>
</a>
</g>
</g>
<!-- Node5&#45;&gt;Node4 -->
<g id="edge4" class="edge"><title>Node5&#45;&gt;Node4</title>
<path fill="none" stroke="#9a32cd" stroke-dasharray="5,2" d="M65.6444,-234.804C89.2254,-211.545 133.47,-167.904 151.875,-149.75"/>
<polygon fill="#9a32cd" stroke="#9a32cd" points="63.1683,-232.331 58.5066,-241.845 68.084,-237.314 63.1683,-232.331"/>
<text text-anchor="middle" x="139.968" y="-170" font-family="Helvetica,sans-Serif" font-size="10.00"> font</text>
</g>
<!-- Node6 -->
<g id="node6" class="node"><title>Node6</title>
<g id="a_node6"><a xlink:href="classofx_cui_cui_1_1_icon.html" target="_top" xlink:title="Icon image box wrapper. ">
<polygon fill="white" stroke="black" points="118.335,-242 118.335,-260 202.143,-260 202.143,-242 118.335,-242"/>
<text text-anchor="middle" x="160.239" y="-248" font-family="Helvetica,sans-Serif" font-size="10.00">ofxCuiCui::Icon</text>
</a>
</g>
</g>
<!-- Node6&#45;&gt;Node4 -->
<g id="edge5" class="edge"><title>Node6&#45;&gt;Node4</title>
<path fill="none" stroke="#9a32cd" stroke-dasharray="5,2" d="M160.239,-231.659C160.239,-207.798 160.239,-167.115 160.239,-149.75"/>
<polygon fill="#9a32cd" stroke="#9a32cd" points="156.739,-231.845 160.239,-241.845 163.739,-231.845 156.739,-231.845"/>
<text text-anchor="middle" x="170.8" y="-170" font-family="Helvetica,sans-Serif" font-size="10.00"> icon</text>
</g>
<!-- Node7 -->
<g id="node7" class="node"><title>Node7</title>
<g id="a_node7"><a xlink:href="classofx_cui_cui_1_1_style.html" target="_top" xlink:title="Style structure shared among all components. ">
<polygon fill="white" stroke="black" points="219.67,-242 219.67,-260 306.808,-260 306.808,-242 219.67,-242"/>
<text text-anchor="middle" x="263.239" y="-248" font-family="Helvetica,sans-Serif" font-size="10.00">ofxCuiCui::Style</text>
</a>
</g>
</g>
<!-- Node7&#45;&gt;Node4 -->
<g id="edge6" class="edge"><title>Node7&#45;&gt;Node4</title>
<path fill="none" stroke="#9a32cd" stroke-dasharray="5,2" d="M248.524,-234.5C226.373,-211.166 185.229,-167.825 168.07,-149.75"/>
<polygon fill="#9a32cd" stroke="#9a32cd" points="246.074,-237.002 255.497,-241.845 251.151,-232.183 246.074,-237.002"/>
<text text-anchor="middle" x="204.909" y="-170" font-family="Helvetica,sans-Serif" font-size="10.00"> style</text>
</g>
<!-- Node7&#45;&gt;Node7 -->
<g id="edge7" class="edge"><title>Node7&#45;&gt;Node7</title>
<path fill="none" stroke="#9a32cd" stroke-dasharray="5,2" d="M286.266,-263.475C305.168,-268.647 324.808,-264.489 324.808,-251 324.808,-235.232 297.971,-232.214 276.847,-241.946"/>
<polygon fill="#9a32cd" stroke="#9a32cd" points="287.441,-260.178 276.847,-260.054 285.052,-266.757 287.441,-260.178"/>
<text text-anchor="middle" x="362.044" y="-298" font-family="Helvetica,sans-Serif" font-size="10.00"> FramedYellow</text>
<text text-anchor="middle" x="362.044" y="-288" font-family="Helvetica,sans-Serif" font-size="10.00">PlainYellow</text>
<text text-anchor="middle" x="362.044" y="-278" font-family="Helvetica,sans-Serif" font-size="10.00">FramedDefault</text>
<text text-anchor="middle" x="362.044" y="-268" font-family="Helvetica,sans-Serif" font-size="10.00">FramedDarkblue</text>
<text text-anchor="middle" x="362.044" y="-258" font-family="Helvetica,sans-Serif" font-size="10.00">PlainDarkblue</text>
<text text-anchor="middle" x="362.044" y="-248" font-family="Helvetica,sans-Serif" font-size="10.00">FramedRed</text>
<text text-anchor="middle" x="362.044" y="-238" font-family="Helvetica,sans-Serif" font-size="10.00">FramedGray</text>
<text text-anchor="middle" x="362.044" y="-228" font-family="Helvetica,sans-Serif" font-size="10.00">FramedGreen</text>
<text text-anchor="middle" x="362.044" y="-218" font-family="Helvetica,sans-Serif" font-size="10.00">FramedBlue</text>
<text text-anchor="middle" x="362.044" y="-208" font-family="Helvetica,sans-Serif" font-size="10.00">Default</text>
<text text-anchor="middle" x="362.044" y="-198" font-family="Helvetica,sans-Serif" font-size="10.00">...</text>
</g>
</g>
</svg>
