<?xml version="1.0" encoding="UTF-8" standalone="no"?>
<!DOCTYPE svg PUBLIC "-//W3C//DTD SVG 1.1//EN"
 "http://www.w3.org/Graphics/SVG/1.1/DTD/svg11.dtd">
<!-- Generated by graphviz version 2.38.0 (20140413.2041)
 -->
<!-- Title: ofxOui::Matrix::ClickEvent Pages: 1 -->
<svg width="389pt" height="369pt"
 viewBox="0.00 0.00 388.93 369.00" xmlns="http://www.w3.org/2000/svg" xmlns:xlink="http://www.w3.org/1999/xlink">
<g id="graph0" class="graph" transform="scale(1 1) rotate(0) translate(4 365)">
<title>ofxOui::Matrix::ClickEvent</title>
<polygon fill="white" stroke="none" points="-4,4 -4,-365 384.93,-365 384.93,4 -4,4"/>
<!-- Node2 -->
<g id="node1" class="node"><title>Node2</title>
<polygon fill="#bfbfbf" stroke="black" points="104.108,-0.5 104.108,-18.5 234.581,-18.5 234.581,-0.5 104.108,-0.5"/>
<text text-anchor="middle" x="169.345" y="-6.5" font-family="Helvetica,sans-Serif" font-size="10.00">ofxOui::Matrix::ClickEvent</text>
</g>
<!-- Node3 -->
<g id="node2" class="node"><title>Node3</title>
<polygon fill="white" stroke="#bfbfbf" points="103.108,-65.5 103.108,-83.5 173.581,-83.5 173.581,-65.5 103.108,-65.5"/>
<text text-anchor="middle" x="138.345" y="-71.5" font-family="Helvetica,sans-Serif" font-size="10.00">ofEventArgs</text>
</g>
<!-- Node3&#45;&gt;Node2 -->
<g id="edge1" class="edge"><title>Node3&#45;&gt;Node2</title>
<path fill="none" stroke="midnightblue" d="M146.946,-56.0204C152.98,-43.7582 160.766,-27.9348 165.389,-18.539"/>
<polygon fill="midnightblue" stroke="midnightblue" points="143.672,-54.746 142.397,-65.2639 149.953,-57.8366 143.672,-54.746"/>
</g>
<!-- Node4 -->
<g id="node3" class="node"><title>Node4</title>
<g id="a_node3"><a xlink:href="classofx_oui_1_1_matrix.html" target="_top" xlink:title="Button Matrix (supports both button &#45;single&#45;button activation&#45; and toggle &#45;multi&#45;button activation&#45;) ...">
<polygon fill="white" stroke="black" points="191.505,-65.5 191.505,-83.5 269.185,-83.5 269.185,-65.5 191.505,-65.5"/>
<text text-anchor="middle" x="230.345" y="-71.5" font-family="Helvetica,sans-Serif" font-size="10.00">ofxOui::Matrix</text>
</a>
</g>
</g>
<!-- Node4&#45;&gt;Node2 -->
<g id="edge2" class="edge"><title>Node4&#45;&gt;Node2</title>
<path fill="none" stroke="#9a32cd" stroke-dasharray="5,2" d="M215.174,-57.8318C203.095,-45.3566 186.681,-28.4046 177.129,-18.539"/>
<polygon fill="#9a32cd" stroke="#9a32cd" points="212.899,-60.5143 222.37,-65.2639 217.928,-55.645 212.899,-60.5143"/>
<text text-anchor="middle" x="220.022" y="-39" font-family="Helvetica,sans-Serif" font-size="10.00"> sender</text>
</g>
<!-- Node5 -->
<g id="node4" class="node"><title>Node5</title>
<g id="a_node4"><a xlink:href="classofx_oui_1_1_component.html" target="_top" xlink:title="Base UI Component (equivalent to a label) ">
<polygon fill="white" stroke="black" points="166.266,-186.5 166.266,-204.5 268.423,-204.5 268.423,-186.5 166.266,-186.5"/>
<text text-anchor="middle" x="217.345" y="-192.5" font-family="Helvetica,sans-Serif" font-size="10.00">ofxOui::Component</text>
</a>
</g>
</g>
<!-- Node5&#45;&gt;Node4 -->
<g id="edge3" class="edge"><title>Node5&#45;&gt;Node4</title>
<path fill="none" stroke="midnightblue" d="M219.365,-175.818C220.759,-162.94 222.658,-145.431 224.345,-130 226.144,-113.535 228.27,-94.2745 229.446,-83.625"/>
<polygon fill="midnightblue" stroke="midnightblue" points="215.843,-175.832 218.247,-186.15 222.802,-176.585 215.843,-175.832"/>
</g>
<!-- Node5&#45;&gt;Node5 -->
<g id="edge8" class="edge"><title>Node5&#45;&gt;Node5</title>
<path fill="none" stroke="#9a32cd" stroke-dasharray="5,2" d="M278.785,-199.453C283.511,-198.578 286.423,-197.26 286.423,-195.5 286.423,-192.684 278.968,-191 268.558,-190.45"/>
<polygon fill="#9a32cd" stroke="#9a32cd" points="278.127,-196.003 268.558,-200.55 278.874,-202.963 278.127,-196.003"/>
<text text-anchor="middle" x="333.677" y="-192.5" font-family="Helvetica,sans-Serif" font-size="10.00"> blocking_component</text>
</g>
<!-- Node9 -->
<g id="node8" class="node"><title>Node9</title>
<g id="a_node8"><a xlink:href="classofx_oui_1_1_button.html" target="_top" xlink:title="Button component (allows both button and toggle modes) ">
<polygon fill="white" stroke="black" points="233.66,-130.5 233.66,-148.5 313.029,-148.5 313.029,-130.5 233.66,-130.5"/>
<text text-anchor="middle" x="273.345" y="-136.5" font-family="Helvetica,sans-Serif" font-size="10.00">ofxOui::Button</text>
</a>
</g>
</g>
<!-- Node5&#45;&gt;Node9 -->
<g id="edge10" class="edge"><title>Node5&#45;&gt;Node9</title>
<path fill="none" stroke="midnightblue" d="M233.303,-179.112C243.566,-169.215 256.496,-156.747 264.84,-148.701"/>
<polygon fill="midnightblue" stroke="midnightblue" points="230.864,-176.602 226.095,-186.062 235.723,-181.641 230.864,-176.602"/>
</g>
<!-- Node6 -->
<g id="node5" class="node"><title>Node6</title>
<g id="a_node5"><a xlink:href="classofx_oui_1_1_style.html" target="_top" xlink:title="Style structure shared among all components. ">
<polygon fill="white" stroke="black" points="0,-297 0,-315 72.6895,-315 72.6895,-297 0,-297"/>
<text text-anchor="middle" x="36.3447" y="-303" font-family="Helvetica,sans-Serif" font-size="10.00">ofxOui::Style</text>
</a>
</g>
</g>
<!-- Node6&#45;&gt;Node5 -->
<g id="edge4" class="edge"><title>Node6&#45;&gt;Node5</title>
<path fill="none" stroke="#9a32cd" stroke-dasharray="5,2" d="M58.7281,-291.582C96.6681,-268.839 172.507,-223.378 203.582,-204.75"/>
<polygon fill="#9a32cd" stroke="#9a32cd" points="56.7266,-288.701 49.9491,-296.845 60.3257,-294.705 56.7266,-288.701"/>
<text text-anchor="middle" x="181.015" y="-225" font-family="Helvetica,sans-Serif" font-size="10.00"> style</text>
</g>
<!-- Node6&#45;&gt;Node6 -->
<g id="edge5" class="edge"><title>Node6&#45;&gt;Node6</title>
<path fill="none" stroke="#9a32cd" stroke-dasharray="5,2" d="M57.8137,-318.814C74.1365,-323.452 90.6895,-319.181 90.6895,-306 90.6895,-290.232 67.0015,-287.214 48.3566,-296.946"/>
<polygon fill="#9a32cd" stroke="#9a32cd" points="58.9422,-315.496 48.3566,-315.054 56.3558,-322.001 58.9422,-315.496"/>
<text text-anchor="middle" x="127.926" y="-353" font-family="Helvetica,sans-Serif" font-size="10.00"> FramedYellow</text>
<text text-anchor="middle" x="127.926" y="-343" font-family="Helvetica,sans-Serif" font-size="10.00">PlainYellow</text>
<text text-anchor="middle" x="127.926" y="-333" font-family="Helvetica,sans-Serif" font-size="10.00">FramedDefault</text>
<text text-anchor="middle" x="127.926" y="-323" font-family="Helvetica,sans-Serif" font-size="10.00">FramedDarkblue</text>
<text text-anchor="middle" x="127.926" y="-313" font-family="Helvetica,sans-Serif" font-size="10.00">PlainDarkblue</text>
<text text-anchor="middle" x="127.926" y="-303" font-family="Helvetica,sans-Serif" font-size="10.00">FramedRed</text>
<text text-anchor="middle" x="127.926" y="-293" font-family="Helvetica,sans-Serif" font-size="10.00">FramedGray</text>
<text text-anchor="middle" x="127.926" y="-283" font-family="Helvetica,sans-Serif" font-size="10.00">FramedGreen</text>
<text text-anchor="middle" x="127.926" y="-273" font-family="Helvetica,sans-Serif" font-size="10.00">FramedBlue</text>
<text text-anchor="middle" x="127.926" y="-263" font-family="Helvetica,sans-Serif" font-size="10.00">Default</text>
<text text-anchor="middle" x="127.926" y="-253" font-family="Helvetica,sans-Serif" font-size="10.00">...</text>
</g>
<!-- Node7 -->
<g id="node6" class="node"><title>Node7</title>
<g id="a_node6"><a xlink:href="classofx_oui_1_1_icon.html" target="_top" xlink:title="Icon image box wrapper. ">
<polygon fill="white" stroke="black" points="182.665,-297 182.665,-315 252.024,-315 252.024,-297 182.665,-297"/>
<text text-anchor="middle" x="217.345" y="-303" font-family="Helvetica,sans-Serif" font-size="10.00">ofxOui::Icon</text>
</a>
</g>
</g>
<!-- Node7&#45;&gt;Node5 -->
<g id="edge6" class="edge"><title>Node7&#45;&gt;Node5</title>
<path fill="none" stroke="#9a32cd" stroke-dasharray="5,2" d="M217.345,-286.659C217.345,-262.798 217.345,-222.115 217.345,-204.75"/>
<polygon fill="#9a32cd" stroke="#9a32cd" points="213.845,-286.845 217.345,-296.845 220.845,-286.845 213.845,-286.845"/>
<text text-anchor="middle" x="227.906" y="-225" font-family="Helvetica,sans-Serif" font-size="10.00"> icon</text>
</g>
<!-- Node8 -->
<g id="node7" class="node"><title>Node8</title>
<g id="a_node7"><a xlink:href="classofx_oui_1_1_text_box.html" target="_top" xlink:title="Text box font wrapper. ">
<polygon fill="white" stroke="black" points="270.33,-297 270.33,-315 356.359,-315 356.359,-297 270.33,-297"/>
<text text-anchor="middle" x="313.345" y="-303" font-family="Helvetica,sans-Serif" font-size="10.00">ofxOui::TextBox</text>
</a>
</g>
</g>
<!-- Node8&#45;&gt;Node5 -->
<g id="edge7" class="edge"><title>Node8&#45;&gt;Node5</title>
<path fill="none" stroke="#9a32cd" stroke-dasharray="5,2" d="M299.877,-289.043C285.742,-272.39 262.775,-245.603 242.345,-223 236.746,-216.806 230.275,-209.954 225.319,-204.77"/>
<polygon fill="#9a32cd" stroke="#9a32cd" points="297.272,-291.382 306.404,-296.752 302.614,-286.859 297.272,-291.382"/>
<text text-anchor="middle" x="259.074" y="-225" font-family="Helvetica,sans-Serif" font-size="10.00"> font</text>
</g>
<!-- Node9&#45;&gt;Node4 -->
<g id="edge9" class="edge"><title>Node9&#45;&gt;Node4</title>
<path fill="none" stroke="#9a32cd" stroke-dasharray="5,2" d="M261.913,-121.752C253.479,-109.394 242.373,-93.1227 235.832,-83.539"/>
<polygon fill="#9a32cd" stroke="#9a32cd" points="259.195,-123.977 267.723,-130.264 264.977,-120.031 259.195,-123.977"/>
<text text-anchor="middle" x="293.82" y="-104" font-family="Helvetica,sans-Serif" font-size="10.00"> selected_button_</text>
</g>
</g>
</svg>
