<?xml version="1.0" encoding="UTF-8" standalone="no"?>
<!DOCTYPE svg PUBLIC "-//W3C//DTD SVG 1.1//EN"
 "http://www.w3.org/Graphics/SVG/1.1/DTD/svg11.dtd">
<!-- Generated by graphviz version 2.38.0 (20140413.2041)
 -->
<!-- Title: ofxCuiCui::Button Pages: 1 -->
<svg width="407pt" height="239pt"
 viewBox="0.00 0.00 407.28 239.00" xmlns="http://www.w3.org/2000/svg" xmlns:xlink="http://www.w3.org/1999/xlink">
<g id="graph0" class="graph" transform="scale(1 1) rotate(0) translate(4 235)">
<title>ofxCuiCui::Button</title>
<polygon fill="white" stroke="none" points="-4,4 -4,-235 403.28,-235 403.28,4 -4,4"/>
<!-- Node1 -->
<g id="node1" class="node"><title>Node1</title>
<polygon fill="#bfbfbf" stroke="black" points="113.33,-0.5 113.33,-18.5 207.147,-18.5 207.147,-0.5 113.33,-0.5"/>
<text text-anchor="middle" x="160.239" y="-6.5" font-family="Helvetica,sans-Serif" font-size="10.00">ofxCuiCui::Button</text>
</g>
<!-- Node2 -->
<g id="node2" class="node"><title>Node2</title>
<g id="a_node2"><a xlink:href="classofx_cui_cui_1_1_component.html" target="_top" xlink:title="Base UI Component (equivalent to a label) ">
<polygon fill="white" stroke="black" points="101.936,-56.5 101.936,-74.5 218.542,-74.5 218.542,-56.5 101.936,-56.5"/>
<text text-anchor="middle" x="160.239" y="-62.5" font-family="Helvetica,sans-Serif" font-size="10.00">ofxCuiCui::Component</text>
</a>
</g>
</g>
<!-- Node2&#45;&gt;Node1 -->
<g id="edge1" class="edge"><title>Node2&#45;&gt;Node1</title>
<path fill="none" stroke="midnightblue" d="M160.239,-45.8288C160.239,-36.5774 160.239,-25.8798 160.239,-18.7014"/>
<polygon fill="midnightblue" stroke="midnightblue" points="156.739,-46.0625 160.239,-56.0625 163.739,-46.0625 156.739,-46.0625"/>
</g>
<!-- Node3 -->
<g id="node3" class="node"><title>Node3</title>
<g id="a_node3"><a xlink:href="classofx_cui_cui_1_1_text_box.html" target="_top" xlink:title="Text box font wrapper. ">
<polygon fill="white" stroke="black" points="0,-167 0,-185 100.478,-185 100.478,-167 0,-167"/>
<text text-anchor="middle" x="50.2388" y="-173" font-family="Helvetica,sans-Serif" font-size="10.00">ofxCuiCui::TextBox</text>
</a>
</g>
</g>
<!-- Node3&#45;&gt;Node2 -->
<g id="edge2" class="edge"><title>Node3&#45;&gt;Node2</title>
<path fill="none" stroke="#9a32cd" stroke-dasharray="5,2" d="M65.6444,-159.804C89.2254,-136.545 133.47,-92.904 151.875,-74.7498"/>
<polygon fill="#9a32cd" stroke="#9a32cd" points="63.1683,-157.331 58.5066,-166.845 68.084,-162.314 63.1683,-157.331"/>
<text text-anchor="middle" x="140.968" y="-95" font-family="Helvetica,sans-Serif" font-size="10.00"> font</text>
</g>
<!-- Node4 -->
<g id="node4" class="node"><title>Node4</title>
<g id="a_node4"><a xlink:href="classofx_cui_cui_1_1_icon.html" target="_top" xlink:title="Icon image box wrapper. ">
<polygon fill="white" stroke="black" points="118.335,-167 118.335,-185 202.143,-185 202.143,-167 118.335,-167"/>
<text text-anchor="middle" x="160.239" y="-173" font-family="Helvetica,sans-Serif" font-size="10.00">ofxCuiCui::Icon</text>
</a>
</g>
</g>
<!-- Node4&#45;&gt;Node2 -->
<g id="edge3" class="edge"><title>Node4&#45;&gt;Node2</title>
<path fill="none" stroke="#9a32cd" stroke-dasharray="5,2" d="M160.239,-156.659C160.239,-132.798 160.239,-92.1147 160.239,-74.7498"/>
<polygon fill="#9a32cd" stroke="#9a32cd" points="156.739,-156.845 160.239,-166.845 163.739,-156.845 156.739,-156.845"/>
<text text-anchor="middle" x="170.8" y="-95" font-family="Helvetica,sans-Serif" font-size="10.00"> icon</text>
</g>
<!-- Node5 -->
<g id="node5" class="node"><title>Node5</title>
<g id="a_node5"><a xlink:href="classofx_cui_cui_1_1_style.html" target="_top" xlink:title="Style structure shared among all components. ">
<polygon fill="white" stroke="black" points="219.67,-167 219.67,-185 306.808,-185 306.808,-167 219.67,-167"/>
<text text-anchor="middle" x="263.239" y="-173" font-family="Helvetica,sans-Serif" font-size="10.00">ofxCuiCui::Style</text>
</a>
</g>
</g>
<!-- Node5&#45;&gt;Node2 -->
<g id="edge4" class="edge"><title>Node5&#45;&gt;Node2</title>
<path fill="none" stroke="#9a32cd" stroke-dasharray="5,2" d="M248.524,-159.5C226.373,-136.166 185.229,-92.8251 168.07,-74.7498"/>
<polygon fill="#9a32cd" stroke="#9a32cd" points="246.074,-162.002 255.497,-166.845 251.151,-157.183 246.074,-162.002"/>
<text text-anchor="middle" x="204.909" y="-95" font-family="Helvetica,sans-Serif" font-size="10.00"> style</text>
</g>
<!-- Node5&#45;&gt;Node5 -->
<g id="edge5" class="edge"><title>Node5&#45;&gt;Node5</title>
<path fill="none" stroke="#9a32cd" stroke-dasharray="5,2" d="M286.266,-188.475C305.168,-193.647 324.808,-189.489 324.808,-176 324.808,-160.232 297.971,-157.214 276.847,-166.946"/>
<polygon fill="#9a32cd" stroke="#9a32cd" points="287.441,-185.178 276.847,-185.054 285.052,-191.757 287.441,-185.178"/>
<text text-anchor="middle" x="362.044" y="-223" font-family="Helvetica,sans-Serif" font-size="10.00"> FramedYellow</text>
<text text-anchor="middle" x="362.044" y="-213" font-family="Helvetica,sans-Serif" font-size="10.00">PlainYellow</text>
<text text-anchor="middle" x="362.044" y="-203" font-family="Helvetica,sans-Serif" font-size="10.00">FramedDefault</text>
<text text-anchor="middle" x="362.044" y="-193" font-family="Helvetica,sans-Serif" font-size="10.00">FramedDarkblue</text>
<text text-anchor="middle" x="362.044" y="-183" font-family="Helvetica,sans-Serif" font-size="10.00">PlainDarkblue</text>
<text text-anchor="middle" x="362.044" y="-173" font-family="Helvetica,sans-Serif" font-size="10.00">FramedRed</text>
<text text-anchor="middle" x="362.044" y="-163" font-family="Helvetica,sans-Serif" font-size="10.00">FramedGray</text>
<text text-anchor="middle" x="362.044" y="-153" font-family="Helvetica,sans-Serif" font-size="10.00">FramedGreen</text>
<text text-anchor="middle" x="362.044" y="-143" font-family="Helvetica,sans-Serif" font-size="10.00">FramedBlue</text>
<text text-anchor="middle" x="362.044" y="-133" font-family="Helvetica,sans-Serif" font-size="10.00">Default</text>
<text text-anchor="middle" x="362.044" y="-123" font-family="Helvetica,sans-Serif" font-size="10.00">...</text>
</g>
</g>
</svg>
