<?xml version="1.0" encoding="UTF-8" standalone="no"?>
<!DOCTYPE svg PUBLIC "-//W3C//DTD SVG 1.1//EN"
 "http://www.w3.org/Graphics/SVG/1.1/DTD/svg11.dtd">
<!-- Generated by graphviz version 2.38.0 (20140413.2041)
 -->
<!-- Title: ofxOui::Button Pages: 1 -->
<svg width="248pt" height="137pt"
 viewBox="0.00 0.00 247.77 137.00" xmlns="http://www.w3.org/2000/svg" xmlns:xlink="http://www.w3.org/1999/xlink">
<g id="graph0" class="graph" transform="scale(1 1) rotate(0) translate(4 133)">
<title>ofxOui::Button</title>
<polygon fill="white" stroke="none" points="-4,4 -4,-133 243.773,-133 243.773,4 -4,4"/>
<!-- Node0 -->
<g id="node1" class="node"><title>Node0</title>
<polygon fill="#bfbfbf" stroke="black" points="72.3325,-55.5 72.3325,-73.5 151.702,-73.5 151.702,-55.5 72.3325,-55.5"/>
<text text-anchor="middle" x="112.017" y="-61.5" font-family="Helvetica,sans-Serif" font-size="10.00">ofxOui::Button</text>
</g>
<!-- Node2 -->
<g id="node3" class="node"><title>Node2</title>
<g id="a_node3"><a xlink:href="classofx_oui_1_1_check_box.html" target="_top" xlink:title="Check box component (specialization of button) ">
<polygon fill="white" stroke="black" points="0,-0.5 0,-18.5 96.0342,-18.5 96.0342,-0.5 0,-0.5"/>
<text text-anchor="middle" x="48.0171" y="-6.5" font-family="Helvetica,sans-Serif" font-size="10.00">ofxOui::CheckBox</text>
</a>
</g>
</g>
<!-- Node0&#45;&gt;Node2 -->
<g id="edge2" class="edge"><title>Node0&#45;&gt;Node2</title>
<path fill="none" stroke="midnightblue" d="M94.4182,-48.9259C82.6281,-39.1622 67.5423,-26.6693 57.8288,-18.6253"/>
<polygon fill="midnightblue" stroke="midnightblue" points="92.3626,-51.7679 102.297,-55.4504 96.8273,-46.3766 92.3626,-51.7679"/>
</g>
<!-- Node3 -->
<g id="node4" class="node"><title>Node3</title>
<g id="a_node4"><a xlink:href="classofx_oui_1_1_draggable_button.html" target="_top" xlink:title="Draggable Button (specialization of button) ">
<polygon fill="white" stroke="black" points="114.261,-0.5 114.261,-18.5 239.773,-18.5 239.773,-0.5 114.261,-0.5"/>
<text text-anchor="middle" x="177.017" y="-6.5" font-family="Helvetica,sans-Serif" font-size="10.00">ofxOui::DraggableButton</text>
</a>
</g>
</g>
<!-- Node0&#45;&gt;Node3 -->
<g id="edge3" class="edge"><title>Node0&#45;&gt;Node3</title>
<path fill="none" stroke="midnightblue" d="M129.891,-48.9259C141.865,-39.1622 157.187,-26.6693 167.052,-18.6253"/>
<polygon fill="midnightblue" stroke="midnightblue" points="127.428,-46.4184 121.889,-55.4504 131.851,-51.8436 127.428,-46.4184"/>
</g>
<!-- Node1 -->
<g id="node2" class="node"><title>Node1</title>
<g id="a_node2"><a xlink:href="classofx_oui_1_1_component.html" target="_top" xlink:title="Base UI Component (equivalent to a label) ">
<polygon fill="white" stroke="black" points="60.9385,-110.5 60.9385,-128.5 163.096,-128.5 163.096,-110.5 60.9385,-110.5"/>
<text text-anchor="middle" x="112.017" y="-116.5" font-family="Helvetica,sans-Serif" font-size="10.00">ofxOui::Component</text>
</a>
</g>
</g>
<!-- Node1&#45;&gt;Node0 -->
<g id="edge1" class="edge"><title>Node1&#45;&gt;Node0</title>
<path fill="none" stroke="midnightblue" d="M112.017,-100.175C112.017,-91.0945 112.017,-80.5949 112.017,-73.5496"/>
<polygon fill="midnightblue" stroke="midnightblue" points="108.517,-100.219 112.017,-110.219 115.517,-100.219 108.517,-100.219"/>
</g>
</g>
</svg>
