<?xml version="1.0" encoding="UTF-8" standalone="no"?>
<!DOCTYPE svg PUBLIC "-//W3C//DTD SVG 1.1//EN"
 "http://www.w3.org/Graphics/SVG/1.1/DTD/svg11.dtd">
<!-- Generated by graphviz version 2.38.0 (20140413.2041)
 -->
<!-- Title: ofxCuiCui::Slider Pages: 1 -->
<svg width="412pt" height="295pt"
 viewBox="0.00 0.00 412.28 295.00" xmlns="http://www.w3.org/2000/svg" xmlns:xlink="http://www.w3.org/1999/xlink">
<g id="graph0" class="graph" transform="scale(1 1) rotate(0) translate(4 291)">
<title>ofxCuiCui::Slider</title>
<polygon fill="white" stroke="none" points="-4,4 -4,-291 408.28,-291 408.28,4 -4,4"/>
<!-- Node1 -->
<g id="node1" class="node"><title>Node1</title>
<polygon fill="#bfbfbf" stroke="black" points="33.0024,-0.5 33.0024,-18.5 123.475,-18.5 123.475,-0.5 33.0024,-0.5"/>
<text text-anchor="middle" x="78.2388" y="-6.5" font-family="Helvetica,sans-Serif" font-size="10.00">ofxCuiCui::Slider</text>
</g>
<!-- Node2 -->
<g id="node2" class="node"><title>Node2</title>
<g id="a_node2"><a xlink:href="classofx_cui_cui_1_1_numbox.html" target="_top" xlink:title="Number box (with mouse + keyboard interaction, C74 max style) ">
<polygon fill="white" stroke="black" points="27.1675,-56.5 27.1675,-74.5 129.31,-74.5 129.31,-56.5 27.1675,-56.5"/>
<text text-anchor="middle" x="78.2388" y="-62.5" font-family="Helvetica,sans-Serif" font-size="10.00">ofxCuiCui::Numbox</text>
</a>
</g>
</g>
<!-- Node2&#45;&gt;Node1 -->
<g id="edge1" class="edge"><title>Node2&#45;&gt;Node1</title>
<path fill="none" stroke="midnightblue" d="M78.2388,-45.8288C78.2388,-36.5774 78.2388,-25.8798 78.2388,-18.7014"/>
<polygon fill="midnightblue" stroke="midnightblue" points="74.7389,-46.0625 78.2388,-56.0625 81.7389,-46.0625 74.7389,-46.0625"/>
</g>
<!-- Node3 -->
<g id="node3" class="node"><title>Node3</title>
<g id="a_node3"><a xlink:href="classofx_cui_cui_1_1_component.html" target="_top" xlink:title="Base UI Component (equivalent to a label) ">
<polygon fill="white" stroke="black" points="111.936,-112.5 111.936,-130.5 228.542,-130.5 228.542,-112.5 111.936,-112.5"/>
<text text-anchor="middle" x="170.239" y="-118.5" font-family="Helvetica,sans-Serif" font-size="10.00">ofxCuiCui::Component</text>
</a>
</g>
</g>
<!-- Node3&#45;&gt;Node2 -->
<g id="edge2" class="edge"><title>Node3&#45;&gt;Node2</title>
<path fill="none" stroke="midnightblue" d="M147.318,-107.046C129.947,-96.8504 106.649,-83.1758 92.0416,-74.6017"/>
<polygon fill="midnightblue" stroke="midnightblue" points="145.87,-110.255 156.266,-112.299 149.413,-104.218 145.87,-110.255"/>
</g>
<!-- Node4 -->
<g id="node4" class="node"><title>Node4</title>
<g id="a_node4"><a xlink:href="classofx_cui_cui_1_1_text_box.html" target="_top" xlink:title="Text box font wrapper. ">
<polygon fill="white" stroke="black" points="0,-223 0,-241 100.478,-241 100.478,-223 0,-223"/>
<text text-anchor="middle" x="50.2388" y="-229" font-family="Helvetica,sans-Serif" font-size="10.00">ofxCuiCui::TextBox</text>
</a>
</g>
</g>
<!-- Node4&#45;&gt;Node2 -->
<g id="edge7" class="edge"><title>Node4&#45;&gt;Node2</title>
<path fill="none" stroke="#9a32cd" stroke-dasharray="5,2" d="M46.9516,-213.003C43.3279,-189.31 39.2437,-146.608 49.313,-112 53.5494,-97.4399 64.0074,-83.0868 71.1164,-74.5094"/>
<polygon fill="#9a32cd" stroke="#9a32cd" points="43.5207,-213.707 48.6295,-222.988 50.424,-212.547 43.5207,-213.707"/>
<text text-anchor="middle" x="77.2017" y="-118.5" font-family="Helvetica,sans-Serif" font-size="10.00"> value_text_</text>
</g>
<!-- Node4&#45;&gt;Node3 -->
<g id="edge3" class="edge"><title>Node4&#45;&gt;Node3</title>
<path fill="none" stroke="#9a32cd" stroke-dasharray="5,2" d="M66.7106,-216.107C92.3494,-192.925 140.949,-148.983 161.115,-130.75"/>
<polygon fill="#9a32cd" stroke="#9a32cd" points="64.3285,-213.542 59.2583,-222.845 69.0232,-218.734 64.3285,-213.542"/>
<text text-anchor="middle" x="146.968" y="-151" font-family="Helvetica,sans-Serif" font-size="10.00"> font</text>
</g>
<!-- Node5 -->
<g id="node5" class="node"><title>Node5</title>
<g id="a_node5"><a xlink:href="classofx_cui_cui_1_1_icon.html" target="_top" xlink:title="Icon image box wrapper. ">
<polygon fill="white" stroke="black" points="123.335,-223 123.335,-241 207.143,-241 207.143,-223 123.335,-223"/>
<text text-anchor="middle" x="165.239" y="-229" font-family="Helvetica,sans-Serif" font-size="10.00">ofxCuiCui::Icon</text>
</a>
</g>
</g>
<!-- Node5&#45;&gt;Node3 -->
<g id="edge4" class="edge"><title>Node5&#45;&gt;Node3</title>
<path fill="none" stroke="#9a32cd" stroke-dasharray="5,2" d="M166.084,-212.659C167.184,-188.798 169.058,-148.115 169.859,-130.75"/>
<polygon fill="#9a32cd" stroke="#9a32cd" points="162.579,-212.694 165.615,-222.845 169.571,-213.017 162.579,-212.694"/>
<text text-anchor="middle" x="178.8" y="-151" font-family="Helvetica,sans-Serif" font-size="10.00"> icon</text>
</g>
<!-- Node6 -->
<g id="node6" class="node"><title>Node6</title>
<g id="a_node6"><a xlink:href="classofx_cui_cui_1_1_style.html" target="_top" xlink:title="Style structure shared among all components. ">
<polygon fill="white" stroke="black" points="224.67,-223 224.67,-241 311.808,-241 311.808,-223 224.67,-223"/>
<text text-anchor="middle" x="268.239" y="-229" font-family="Helvetica,sans-Serif" font-size="10.00">ofxCuiCui::Style</text>
</a>
</g>
</g>
<!-- Node6&#45;&gt;Node3 -->
<g id="edge5" class="edge"><title>Node6&#45;&gt;Node3</title>
<path fill="none" stroke="#9a32cd" stroke-dasharray="5,2" d="M253.962,-215.193C232.821,-191.788 193.945,-148.746 177.69,-130.75"/>
<polygon fill="#9a32cd" stroke="#9a32cd" points="251.573,-217.77 260.873,-222.845 256.767,-213.078 251.573,-217.77"/>
<text text-anchor="middle" x="212.909" y="-151" font-family="Helvetica,sans-Serif" font-size="10.00"> style</text>
</g>
<!-- Node6&#45;&gt;Node6 -->
<g id="edge6" class="edge"><title>Node6&#45;&gt;Node6</title>
<path fill="none" stroke="#9a32cd" stroke-dasharray="5,2" d="M291.266,-244.475C310.168,-249.647 329.808,-245.489 329.808,-232 329.808,-216.232 302.971,-213.214 281.847,-222.946"/>
<polygon fill="#9a32cd" stroke="#9a32cd" points="292.441,-241.178 281.847,-241.054 290.052,-247.757 292.441,-241.178"/>
<text text-anchor="middle" x="367.044" y="-279" font-family="Helvetica,sans-Serif" font-size="10.00"> FramedYellow</text>
<text text-anchor="middle" x="367.044" y="-269" font-family="Helvetica,sans-Serif" font-size="10.00">PlainYellow</text>
<text text-anchor="middle" x="367.044" y="-259" font-family="Helvetica,sans-Serif" font-size="10.00">FramedDefault</text>
<text text-anchor="middle" x="367.044" y="-249" font-family="Helvetica,sans-Serif" font-size="10.00">FramedDarkblue</text>
<text text-anchor="middle" x="367.044" y="-239" font-family="Helvetica,sans-Serif" font-size="10.00">PlainDarkblue</text>
<text text-anchor="middle" x="367.044" y="-229" font-family="Helvetica,sans-Serif" font-size="10.00">FramedRed</text>
<text text-anchor="middle" x="367.044" y="-219" font-family="Helvetica,sans-Serif" font-size="10.00">FramedGray</text>
<text text-anchor="middle" x="367.044" y="-209" font-family="Helvetica,sans-Serif" font-size="10.00">FramedGreen</text>
<text text-anchor="middle" x="367.044" y="-199" font-family="Helvetica,sans-Serif" font-size="10.00">FramedBlue</text>
<text text-anchor="middle" x="367.044" y="-189" font-family="Helvetica,sans-Serif" font-size="10.00">Default</text>
<text text-anchor="middle" x="367.044" y="-179" font-family="Helvetica,sans-Serif" font-size="10.00">...</text>
</g>
</g>
</svg>
