<?xml version="1.0" encoding="UTF-8" standalone="no"?>
<!DOCTYPE svg PUBLIC "-//W3C//DTD SVG 1.1//EN"
 "http://www.w3.org/Graphics/SVG/1.1/DTD/svg11.dtd">
<!-- Generated by graphviz version 2.38.0 (20140413.2041)
 -->
<!-- Title: ofxOui::Numbox Pages: 1 -->
<svg width="414pt" height="239pt"
 viewBox="0.00 0.00 414.27 239.00" xmlns="http://www.w3.org/2000/svg" xmlns:xlink="http://www.w3.org/1999/xlink">
<g id="graph0" class="graph" transform="scale(1 1) rotate(0) translate(4 235)">
<title>ofxOui::Numbox</title>
<polygon fill="white" stroke="none" points="-4,4 -4,-235 410.271,-235 410.271,4 -4,4"/>
<!-- Node3 -->
<g id="node1" class="node"><title>Node3</title>
<polygon fill="#bfbfbf" stroke="black" points="281.498,-0.5 281.498,-18.5 369.192,-18.5 369.192,-0.5 281.498,-0.5"/>
<text text-anchor="middle" x="325.345" y="-6.5" font-family="Helvetica,sans-Serif" font-size="10.00">ofxOui::Numbox</text>
</g>
<!-- Node4 -->
<g id="node2" class="node"><title>Node4</title>
<g id="a_node2"><a xlink:href="classofx_oui_1_1_component.html" target="_top" xlink:title="Base UI Component (equivalent to a label) ">
<polygon fill="white" stroke="black" points="125.266,-56.5 125.266,-74.5 227.423,-74.5 227.423,-56.5 125.266,-56.5"/>
<text text-anchor="middle" x="176.345" y="-62.5" font-family="Helvetica,sans-Serif" font-size="10.00">ofxOui::Component</text>
</a>
</g>
</g>
<!-- Node4&#45;&gt;Node3 -->
<g id="edge1" class="edge"><title>Node4&#45;&gt;Node3</title>
<path fill="none" stroke="midnightblue" d="M208.157,-52.9709C236.642,-42.6473 277.694,-27.7693 302.885,-18.6396"/>
<polygon fill="midnightblue" stroke="midnightblue" points="206.861,-49.7177 198.652,-56.4157 209.246,-56.2989 206.861,-49.7177"/>
</g>
<!-- Node4&#45;&gt;Node4 -->
<g id="edge6" class="edge"><title>Node4&#45;&gt;Node4</title>
<path fill="none" stroke="#9a32cd" stroke-dasharray="5,2" d="M237.785,-69.4528C242.511,-68.5779 245.423,-67.2603 245.423,-65.5 245.423,-62.6836 237.968,-61.0004 227.558,-60.4503"/>
<polygon fill="#9a32cd" stroke="#9a32cd" points="237.127,-66.0033 227.558,-70.5497 237.874,-72.9633 237.127,-66.0033"/>
<text text-anchor="middle" x="292.677" y="-62.5" font-family="Helvetica,sans-Serif" font-size="10.00"> blocking_component</text>
</g>
<!-- Node5 -->
<g id="node3" class="node"><title>Node5</title>
<g id="a_node3"><a xlink:href="classofx_oui_1_1_style.html" target="_top" xlink:title="Style structure shared among all components. ">
<polygon fill="white" stroke="black" points="0,-167 0,-185 72.6895,-185 72.6895,-167 0,-167"/>
<text text-anchor="middle" x="36.3447" y="-173" font-family="Helvetica,sans-Serif" font-size="10.00">ofxOui::Style</text>
</a>
</g>
</g>
<!-- Node5&#45;&gt;Node4 -->
<g id="edge2" class="edge"><title>Node5&#45;&gt;Node4</title>
<path fill="none" stroke="#9a32cd" stroke-dasharray="5,2" d="M54.791,-160.704C84.4895,-137.688 141.969,-93.1408 165.7,-74.7498"/>
<polygon fill="#9a32cd" stroke="#9a32cd" points="52.6276,-157.953 46.8675,-166.845 56.9157,-163.486 52.6276,-157.953"/>
<text text-anchor="middle" x="151.015" y="-95" font-family="Helvetica,sans-Serif" font-size="10.00"> style</text>
</g>
<!-- Node5&#45;&gt;Node5 -->
<g id="edge3" class="edge"><title>Node5&#45;&gt;Node5</title>
<path fill="none" stroke="#9a32cd" stroke-dasharray="5,2" d="M57.8137,-188.814C74.1365,-193.452 90.6895,-189.181 90.6895,-176 90.6895,-160.232 67.0015,-157.214 48.3566,-166.946"/>
<polygon fill="#9a32cd" stroke="#9a32cd" points="58.9422,-185.496 48.3566,-185.054 56.3558,-192.001 58.9422,-185.496"/>
<text text-anchor="middle" x="127.926" y="-223" font-family="Helvetica,sans-Serif" font-size="10.00"> FramedYellow</text>
<text text-anchor="middle" x="127.926" y="-213" font-family="Helvetica,sans-Serif" font-size="10.00">PlainYellow</text>
<text text-anchor="middle" x="127.926" y="-203" font-family="Helvetica,sans-Serif" font-size="10.00">FramedDefault</text>
<text text-anchor="middle" x="127.926" y="-193" font-family="Helvetica,sans-Serif" font-size="10.00">FramedDarkblue</text>
<text text-anchor="middle" x="127.926" y="-183" font-family="Helvetica,sans-Serif" font-size="10.00">PlainDarkblue</text>
<text text-anchor="middle" x="127.926" y="-173" font-family="Helvetica,sans-Serif" font-size="10.00">FramedRed</text>
<text text-anchor="middle" x="127.926" y="-163" font-family="Helvetica,sans-Serif" font-size="10.00">FramedGray</text>
<text text-anchor="middle" x="127.926" y="-153" font-family="Helvetica,sans-Serif" font-size="10.00">FramedGreen</text>
<text text-anchor="middle" x="127.926" y="-143" font-family="Helvetica,sans-Serif" font-size="10.00">FramedBlue</text>
<text text-anchor="middle" x="127.926" y="-133" font-family="Helvetica,sans-Serif" font-size="10.00">Default</text>
<text text-anchor="middle" x="127.926" y="-123" font-family="Helvetica,sans-Serif" font-size="10.00">...</text>
</g>
<!-- Node6 -->
<g id="node4" class="node"><title>Node6</title>
<g id="a_node4"><a xlink:href="classofx_oui_1_1_icon.html" target="_top" xlink:title="Icon image box wrapper. ">
<polygon fill="white" stroke="black" points="182.665,-167 182.665,-185 252.024,-185 252.024,-167 182.665,-167"/>
<text text-anchor="middle" x="217.345" y="-173" font-family="Helvetica,sans-Serif" font-size="10.00">ofxOui::Icon</text>
</a>
</g>
</g>
<!-- Node6&#45;&gt;Node4 -->
<g id="edge4" class="edge"><title>Node6&#45;&gt;Node4</title>
<path fill="none" stroke="#9a32cd" stroke-dasharray="5,2" d="M210.658,-157.305C201.678,-133.54 186.084,-92.2726 179.462,-74.7498"/>
<polygon fill="#9a32cd" stroke="#9a32cd" points="207.454,-158.728 214.263,-166.845 214.002,-156.253 207.454,-158.728"/>
<text text-anchor="middle" x="200.906" y="-95" font-family="Helvetica,sans-Serif" font-size="10.00"> icon</text>
</g>
<!-- Node7 -->
<g id="node5" class="node"><title>Node7</title>
<g id="a_node5"><a xlink:href="classofx_oui_1_1_text_box.html" target="_top" xlink:title="Text box font wrapper. ">
<polygon fill="white" stroke="black" points="311.33,-167 311.33,-185 397.359,-185 397.359,-167 311.33,-167"/>
<text text-anchor="middle" x="354.345" y="-173" font-family="Helvetica,sans-Serif" font-size="10.00">ofxOui::TextBox</text>
</a>
</g>
</g>
<!-- Node7&#45;&gt;Node3 -->
<g id="edge7" class="edge"><title>Node7&#45;&gt;Node3</title>
<path fill="none" stroke="#9a32cd" stroke-dasharray="5,2" d="M355.741,-156.736C357.029,-133.065 357.549,-90.7099 348.345,-56 344.669,-42.1401 336.435,-27.6011 330.884,-18.7927"/>
<polygon fill="#9a32cd" stroke="#9a32cd" points="352.247,-156.533 355.086,-166.741 359.232,-156.991 352.247,-156.533"/>
<text text-anchor="middle" x="379.308" y="-62.5" font-family="Helvetica,sans-Serif" font-size="10.00"> value_text_</text>
</g>
<!-- Node7&#45;&gt;Node4 -->
<g id="edge5" class="edge"><title>Node7&#45;&gt;Node4</title>
<path fill="none" stroke="#9a32cd" stroke-dasharray="5,2" d="M332.332,-161.582C295.021,-138.839 220.439,-93.3776 189.879,-74.7498"/>
<polygon fill="#9a32cd" stroke="#9a32cd" points="330.605,-164.629 340.966,-166.845 334.249,-158.651 330.605,-164.629"/>
<text text-anchor="middle" x="244.074" y="-95" font-family="Helvetica,sans-Serif" font-size="10.00"> font</text>
</g>
</g>
</svg>
