<?xml version="1.0" encoding="UTF-8" standalone="no"?>
<!DOCTYPE svg PUBLIC "-//W3C//DTD SVG 1.1//EN"
 "http://www.w3.org/Graphics/SVG/1.1/DTD/svg11.dtd">
<!-- Generated by graphviz version 2.38.0 (20140413.2041)
 -->
<!-- Title: ofxCuiCui::Graph Pages: 1 -->
<svg width="314pt" height="92pt"
 viewBox="0.00 0.00 314.02 92.00" xmlns="http://www.w3.org/2000/svg" xmlns:xlink="http://www.w3.org/1999/xlink">
<g id="graph0" class="graph" transform="scale(1 1) rotate(0) translate(4 88)">
<title>ofxCuiCui::Graph</title>
<polygon fill="white" stroke="none" points="-4,4 -4,-88 310.025,-88 310.025,4 -4,4"/>
<!-- Node1 -->
<g id="node1" class="node"><title>Node1</title>
<polygon fill="#bfbfbf" stroke="black" points="105.089,-0.5 105.089,-18.5 197.789,-18.5 197.789,-0.5 105.089,-0.5"/>
<text text-anchor="middle" x="151.439" y="-6.5" font-family="Helvetica,sans-Serif" font-size="10.00">ofxCuiCui::Graph</text>
</g>
<!-- Node2 -->
<g id="node2" class="node"><title>Node2</title>
<g id="a_node2"><a xlink:href="structofx_cui_cui_1_1_graph_1_1_view_area.html" target="_top" xlink:title="View area rectangle (in pixels) ">
<polygon fill="white" stroke="black" points="0,-65.5 0,-83.5 140.878,-83.5 140.878,-65.5 0,-65.5"/>
<text text-anchor="middle" x="70.439" y="-71.5" font-family="Helvetica,sans-Serif" font-size="10.00">ofxCuiCui::Graph::ViewArea</text>
</a>
</g>
</g>
<!-- Node2&#45;&gt;Node1 -->
<g id="edge1" class="edge"><title>Node2&#45;&gt;Node1</title>
<path fill="none" stroke="#9a32cd" stroke-dasharray="5,2" d="M89.2234,-58.8899C105.37,-46.3311 128.056,-28.6865 141.103,-18.539"/>
<polygon fill="#9a32cd" stroke="#9a32cd" points="86.773,-56.3617 81.0283,-65.2639 91.0706,-61.8871 86.773,-56.3617"/>
<text text-anchor="middle" x="140.619" y="-39" font-family="Helvetica,sans-Serif" font-size="10.00"> view_area</text>
</g>
<!-- Node3 -->
<g id="node3" class="node"><title>Node3</title>
<g id="a_node3"><a xlink:href="structofx_cui_cui_1_1_graph_1_1_graph_area.html" target="_top" xlink:title="Bounds of the graph space. ">
<polygon fill="white" stroke="black" points="158.853,-65.5 158.853,-83.5 306.025,-83.5 306.025,-65.5 158.853,-65.5"/>
<text text-anchor="middle" x="232.439" y="-71.5" font-family="Helvetica,sans-Serif" font-size="10.00">ofxCuiCui::Graph::GraphArea</text>
</a>
</g>
</g>
<!-- Node3&#45;&gt;Node1 -->
<g id="edge2" class="edge"><title>Node3&#45;&gt;Node1</title>
<path fill="none" stroke="#9a32cd" stroke-dasharray="5,2" d="M213.655,-58.8899C197.508,-46.3311 174.822,-28.6865 161.775,-18.539"/>
<polygon fill="#9a32cd" stroke="#9a32cd" points="211.807,-61.8871 221.85,-65.2639 216.105,-56.3617 211.807,-61.8871"/>
<text text-anchor="middle" x="223.404" y="-39" font-family="Helvetica,sans-Serif" font-size="10.00"> graph_area</text>
</g>
</g>
</svg>
