<?xml version="1.0" encoding="UTF-8" standalone="no"?>
<!DOCTYPE svg PUBLIC "-//W3C//DTD SVG 1.1//EN"
 "http://www.w3.org/Graphics/SVG/1.1/DTD/svg11.dtd">
<!-- Generated by graphviz version 2.38.0 (20140413.2041)
 -->
<!-- Title: ofxOui::Button::ClickEvent Pages: 1 -->
<svg width="389pt" height="304pt"
 viewBox="0.00 0.00 388.93 304.00" xmlns="http://www.w3.org/2000/svg" xmlns:xlink="http://www.w3.org/1999/xlink">
<g id="graph0" class="graph" transform="scale(1 1) rotate(0) translate(4 300)">
<title>ofxOui::Button::ClickEvent</title>
<polygon fill="white" stroke="none" points="-4,4 -4,-300 384.93,-300 384.93,4 -4,4"/>
<!-- Node2 -->
<g id="node1" class="node"><title>Node2</title>
<polygon fill="#bfbfbf" stroke="black" points="89.2637,-0.5 89.2637,-18.5 221.426,-18.5 221.426,-0.5 89.2637,-0.5"/>
<text text-anchor="middle" x="155.345" y="-6.5" font-family="Helvetica,sans-Serif" font-size="10.00">ofxOui::Button::ClickEvent</text>
</g>
<!-- Node3 -->
<g id="node2" class="node"><title>Node3</title>
<polygon fill="white" stroke="#bfbfbf" points="89.1084,-65.5 89.1084,-83.5 159.581,-83.5 159.581,-65.5 89.1084,-65.5"/>
<text text-anchor="middle" x="124.345" y="-71.5" font-family="Helvetica,sans-Serif" font-size="10.00">ofEventArgs</text>
</g>
<!-- Node3&#45;&gt;Node2 -->
<g id="edge1" class="edge"><title>Node3&#45;&gt;Node2</title>
<path fill="none" stroke="midnightblue" d="M132.946,-56.0204C138.98,-43.7582 146.766,-27.9348 151.389,-18.539"/>
<polygon fill="midnightblue" stroke="midnightblue" points="129.672,-54.746 128.397,-65.2639 135.953,-57.8366 129.672,-54.746"/>
</g>
<!-- Node4 -->
<g id="node3" class="node"><title>Node4</title>
<g id="a_node3"><a xlink:href="classofx_oui_1_1_button.html" target="_top" xlink:title="Button component (allows both button and toggle modes) ">
<polygon fill="white" stroke="black" points="177.66,-65.5 177.66,-83.5 257.029,-83.5 257.029,-65.5 177.66,-65.5"/>
<text text-anchor="middle" x="217.345" y="-71.5" font-family="Helvetica,sans-Serif" font-size="10.00">ofxOui::Button</text>
</a>
</g>
</g>
<!-- Node4&#45;&gt;Node2 -->
<g id="edge2" class="edge"><title>Node4&#45;&gt;Node2</title>
<path fill="none" stroke="#9a32cd" stroke-dasharray="5,2" d="M201.925,-57.8318C189.648,-45.3566 172.965,-28.4046 163.256,-18.539"/>
<polygon fill="#9a32cd" stroke="#9a32cd" points="199.73,-60.5914 209.239,-65.2639 204.72,-55.6814 199.73,-60.5914"/>
<text text-anchor="middle" x="206.022" y="-39" font-family="Helvetica,sans-Serif" font-size="10.00"> sender</text>
</g>
<!-- Node5 -->
<g id="node4" class="node"><title>Node5</title>
<g id="a_node4"><a xlink:href="classofx_oui_1_1_component.html" target="_top" xlink:title="Base UI Component (equivalent to a label) ">
<polygon fill="white" stroke="black" points="166.266,-121.5 166.266,-139.5 268.423,-139.5 268.423,-121.5 166.266,-121.5"/>
<text text-anchor="middle" x="217.345" y="-127.5" font-family="Helvetica,sans-Serif" font-size="10.00">ofxOui::Component</text>
</a>
</g>
</g>
<!-- Node5&#45;&gt;Node4 -->
<g id="edge3" class="edge"><title>Node5&#45;&gt;Node4</title>
<path fill="none" stroke="midnightblue" d="M217.345,-110.829C217.345,-101.577 217.345,-90.8798 217.345,-83.7014"/>
<polygon fill="midnightblue" stroke="midnightblue" points="213.845,-111.062 217.345,-121.062 220.845,-111.063 213.845,-111.062"/>
</g>
<!-- Node5&#45;&gt;Node5 -->
<g id="edge8" class="edge"><title>Node5&#45;&gt;Node5</title>
<path fill="none" stroke="#9a32cd" stroke-dasharray="5,2" d="M278.785,-134.453C283.511,-133.578 286.423,-132.26 286.423,-130.5 286.423,-127.684 278.968,-126 268.558,-125.45"/>
<polygon fill="#9a32cd" stroke="#9a32cd" points="278.127,-131.003 268.558,-135.55 278.874,-137.963 278.127,-131.003"/>
<text text-anchor="middle" x="333.677" y="-127.5" font-family="Helvetica,sans-Serif" font-size="10.00"> blocking_component</text>
</g>
<!-- Node6 -->
<g id="node5" class="node"><title>Node6</title>
<g id="a_node5"><a xlink:href="classofx_oui_1_1_style.html" target="_top" xlink:title="Style structure shared among all components. ">
<polygon fill="white" stroke="black" points="0,-232 0,-250 72.6895,-250 72.6895,-232 0,-232"/>
<text text-anchor="middle" x="36.3447" y="-238" font-family="Helvetica,sans-Serif" font-size="10.00">ofxOui::Style</text>
</a>
</g>
</g>
<!-- Node6&#45;&gt;Node5 -->
<g id="edge4" class="edge"><title>Node6&#45;&gt;Node5</title>
<path fill="none" stroke="#9a32cd" stroke-dasharray="5,2" d="M58.7281,-226.582C96.6681,-203.839 172.507,-158.378 203.582,-139.75"/>
<polygon fill="#9a32cd" stroke="#9a32cd" points="56.7266,-223.701 49.9491,-231.845 60.3257,-229.705 56.7266,-223.701"/>
<text text-anchor="middle" x="180.015" y="-160" font-family="Helvetica,sans-Serif" font-size="10.00"> style</text>
</g>
<!-- Node6&#45;&gt;Node6 -->
<g id="edge5" class="edge"><title>Node6&#45;&gt;Node6</title>
<path fill="none" stroke="#9a32cd" stroke-dasharray="5,2" d="M57.8137,-253.814C74.1365,-258.452 90.6895,-254.181 90.6895,-241 90.6895,-225.232 67.0015,-222.214 48.3566,-231.946"/>
<polygon fill="#9a32cd" stroke="#9a32cd" points="58.9422,-250.496 48.3566,-250.054 56.3558,-257.001 58.9422,-250.496"/>
<text text-anchor="middle" x="127.926" y="-288" font-family="Helvetica,sans-Serif" font-size="10.00"> FramedYellow</text>
<text text-anchor="middle" x="127.926" y="-278" font-family="Helvetica,sans-Serif" font-size="10.00">PlainYellow</text>
<text text-anchor="middle" x="127.926" y="-268" font-family="Helvetica,sans-Serif" font-size="10.00">FramedDefault</text>
<text text-anchor="middle" x="127.926" y="-258" font-family="Helvetica,sans-Serif" font-size="10.00">FramedDarkblue</text>
<text text-anchor="middle" x="127.926" y="-248" font-family="Helvetica,sans-Serif" font-size="10.00">PlainDarkblue</text>
<text text-anchor="middle" x="127.926" y="-238" font-family="Helvetica,sans-Serif" font-size="10.00">FramedRed</text>
<text text-anchor="middle" x="127.926" y="-228" font-family="Helvetica,sans-Serif" font-size="10.00">FramedGray</text>
<text text-anchor="middle" x="127.926" y="-218" font-family="Helvetica,sans-Serif" font-size="10.00">FramedGreen</text>
<text text-anchor="middle" x="127.926" y="-208" font-family="Helvetica,sans-Serif" font-size="10.00">FramedBlue</text>
<text text-anchor="middle" x="127.926" y="-198" font-family="Helvetica,sans-Serif" font-size="10.00">Default</text>
<text text-anchor="middle" x="127.926" y="-188" font-family="Helvetica,sans-Serif" font-size="10.00">...</text>
</g>
<!-- Node7 -->
<g id="node6" class="node"><title>Node7</title>
<g id="a_node6"><a xlink:href="classofx_oui_1_1_icon.html" target="_top" xlink:title="Icon image box wrapper. ">
<polygon fill="white" stroke="black" points="182.665,-232 182.665,-250 252.024,-250 252.024,-232 182.665,-232"/>
<text text-anchor="middle" x="217.345" y="-238" font-family="Helvetica,sans-Serif" font-size="10.00">ofxOui::Icon</text>
</a>
</g>
</g>
<!-- Node7&#45;&gt;Node5 -->
<g id="edge6" class="edge"><title>Node7&#45;&gt;Node5</title>
<path fill="none" stroke="#9a32cd" stroke-dasharray="5,2" d="M217.345,-221.659C217.345,-197.798 217.345,-157.115 217.345,-139.75"/>
<polygon fill="#9a32cd" stroke="#9a32cd" points="213.845,-221.845 217.345,-231.845 220.845,-221.845 213.845,-221.845"/>
<text text-anchor="middle" x="227.906" y="-160" font-family="Helvetica,sans-Serif" font-size="10.00"> icon</text>
</g>
<!-- Node8 -->
<g id="node7" class="node"><title>Node8</title>
<g id="a_node7"><a xlink:href="classofx_oui_1_1_text_box.html" target="_top" xlink:title="Text box font wrapper. ">
<polygon fill="white" stroke="black" points="270.33,-232 270.33,-250 356.359,-250 356.359,-232 270.33,-232"/>
<text text-anchor="middle" x="313.345" y="-238" font-family="Helvetica,sans-Serif" font-size="10.00">ofxOui::TextBox</text>
</a>
</g>
</g>
<!-- Node8&#45;&gt;Node5 -->
<g id="edge7" class="edge"><title>Node8&#45;&gt;Node5</title>
<path fill="none" stroke="#9a32cd" stroke-dasharray="5,2" d="M299.877,-224.043C285.742,-207.39 262.775,-180.603 242.345,-158 236.746,-151.806 230.275,-144.954 225.319,-139.77"/>
<polygon fill="#9a32cd" stroke="#9a32cd" points="297.272,-226.382 306.404,-231.752 302.614,-221.859 297.272,-226.382"/>
<text text-anchor="middle" x="259.074" y="-160" font-family="Helvetica,sans-Serif" font-size="10.00"> font</text>
</g>
</g>
</svg>
