<?xml version="1.0" encoding="UTF-8" standalone="no"?>
<!DOCTYPE svg PUBLIC "-//W3C//DTD SVG 1.1//EN"
 "http://www.w3.org/Graphics/SVG/1.1/DTD/svg11.dtd">
<!-- Generated by graphviz version 2.38.0 (20140413.2041)
 -->
<!-- Title: ofxOui::Style Pages: 1 -->
<svg width="173pt" height="118pt"
 viewBox="0.00 0.00 173.16 118.00" xmlns="http://www.w3.org/2000/svg" xmlns:xlink="http://www.w3.org/1999/xlink">
<g id="graph0" class="graph" transform="scale(1 1) rotate(0) translate(4 114)">
<title>ofxOui::Style</title>
<polygon fill="white" stroke="none" points="-4,4 -4,-114 169.162,-114 169.162,4 -4,4"/>
<!-- Node1 -->
<g id="node1" class="node"><title>Node1</title>
<polygon fill="#bfbfbf" stroke="black" points="0,-46 0,-64 72.6895,-64 72.6895,-46 0,-46"/>
<text text-anchor="middle" x="36.3447" y="-52" font-family="Helvetica,sans-Serif" font-size="10.00">ofxOui::Style</text>
</g>
<!-- Node1&#45;&gt;Node1 -->
<g id="edge1" class="edge"><title>Node1&#45;&gt;Node1</title>
<path fill="none" stroke="#9a32cd" stroke-dasharray="5,2" d="M82.9683,-57.7687C87.6826,-57.2193 90.6895,-56.2964 90.6895,-55 90.6895,-52.9258 82.9919,-51.8076 72.919,-51.6456"/>
<polygon fill="#9a32cd" stroke="#9a32cd" points="82.6984,-54.2784 72.919,-58.3544 83.1058,-61.2666 82.6984,-54.2784"/>
<text text-anchor="middle" x="127.926" y="-102" font-family="Helvetica,sans-Serif" font-size="10.00"> FramedYellow</text>
<text text-anchor="middle" x="127.926" y="-92" font-family="Helvetica,sans-Serif" font-size="10.00">PlainYellow</text>
<text text-anchor="middle" x="127.926" y="-82" font-family="Helvetica,sans-Serif" font-size="10.00">FramedDefault</text>
<text text-anchor="middle" x="127.926" y="-72" font-family="Helvetica,sans-Serif" font-size="10.00">FramedDarkblue</text>
<text text-anchor="middle" x="127.926" y="-62" font-family="Helvetica,sans-Serif" font-size="10.00">PlainDarkblue</text>
<text text-anchor="middle" x="127.926" y="-52" font-family="Helvetica,sans-Serif" font-size="10.00">FramedRed</text>
<text text-anchor="middle" x="127.926" y="-42" font-family="Helvetica,sans-Serif" font-size="10.00">FramedGray</text>
<text text-anchor="middle" x="127.926" y="-32" font-family="Helvetica,sans-Serif" font-size="10.00">FramedGreen</text>
<text text-anchor="middle" x="127.926" y="-22" font-family="Helvetica,sans-Serif" font-size="10.00">FramedBlue</text>
<text text-anchor="middle" x="127.926" y="-12" font-family="Helvetica,sans-Serif" font-size="10.00">Default</text>
<text text-anchor="middle" x="127.926" y="-2" font-family="Helvetica,sans-Serif" font-size="10.00">...</text>
</g>
</g>
</svg>
