<?xml version="1.0" encoding="UTF-8" standalone="no"?>
<!DOCTYPE svg PUBLIC "-//W3C//DTD SVG 1.1//EN"
 "http://www.w3.org/Graphics/SVG/1.1/DTD/svg11.dtd">
<!-- Generated by graphviz version 2.38.0 (20140413.2041)
 -->
<!-- Title: ofxCuiCui::Bpf Pages: 1 -->
<svg width="506pt" height="303pt"
 viewBox="0.00 0.00 505.98 303.00" xmlns="http://www.w3.org/2000/svg" xmlns:xlink="http://www.w3.org/1999/xlink">
<g id="graph0" class="graph" transform="scale(1 1) rotate(0) translate(4 299)">
<title>ofxCuiCui::Bpf</title>
<polygon fill="white" stroke="none" points="-4,4 -4,-299 501.979,-299 501.979,4 -4,4"/>
<!-- Node1 -->
<g id="node1" class="node"><title>Node1</title>
<polygon fill="#bfbfbf" stroke="black" points="418.062,-98.5 418.062,-116.5 497.979,-116.5 497.979,-98.5 418.062,-98.5"/>
<text text-anchor="middle" x="458.021" y="-104.5" font-family="Helvetica,sans-Serif" font-size="10.00">ofxCuiCui::Bpf</text>
</g>
<!-- Node2 -->
<g id="node2" class="node"><title>Node2</title>
<g id="a_node2"><a xlink:href="classofx_cui_cui_1_1_component.html" target="_top" xlink:title="Base UI Component (equivalent to a label) ">
<polygon fill="white" stroke="black" points="237.103,-140.5 237.103,-158.5 353.708,-158.5 353.708,-140.5 237.103,-140.5"/>
<text text-anchor="middle" x="295.405" y="-146.5" font-family="Helvetica,sans-Serif" font-size="10.00">ofxCuiCui::Component</text>
</a>
</g>
</g>
<!-- Node2&#45;&gt;Node1 -->
<g id="edge1" class="edge"><title>Node2&#45;&gt;Node1</title>
<path fill="none" stroke="midnightblue" d="M340.751,-137.904C366.495,-131.172 398.453,-122.815 422.345,-116.568"/>
<polygon fill="midnightblue" stroke="midnightblue" points="339.65,-134.574 330.861,-140.49 341.421,-141.346 339.65,-134.574"/>
</g>
<!-- Node3 -->
<g id="node3" class="node"><title>Node3</title>
<g id="a_node3"><a xlink:href="classofx_cui_cui_1_1_text_box.html" target="_top" xlink:title="Text box font wrapper. ">
<polygon fill="white" stroke="black" points="23.3472,-276.5 23.3472,-294.5 123.825,-294.5 123.825,-276.5 23.3472,-276.5"/>
<text text-anchor="middle" x="73.5859" y="-282.5" font-family="Helvetica,sans-Serif" font-size="10.00">ofxCuiCui::TextBox</text>
</a>
</g>
</g>
<!-- Node3&#45;&gt;Node2 -->
<g id="edge2" class="edge"><title>Node3&#45;&gt;Node2</title>
<path fill="none" stroke="#9a32cd" stroke-dasharray="5,2" d="M132.621,-273.966C160.669,-266.359 193.675,-254.239 219.103,-235.5 249.776,-212.895 276.797,-175.823 288.39,-158.699"/>
<polygon fill="#9a32cd" stroke="#9a32cd" points="131.733,-270.58 122.927,-276.472 133.484,-277.358 131.733,-270.58"/>
<text text-anchor="middle" x="192.137" y="-264.5" font-family="Helvetica,sans-Serif" font-size="10.00"> font</text>
</g>
<!-- Node4 -->
<g id="node4" class="node"><title>Node4</title>
<g id="a_node4"><a xlink:href="classofx_cui_cui_1_1_icon.html" target="_top" xlink:title="Icon image box wrapper. ">
<polygon fill="white" stroke="black" points="31.6821,-239.5 31.6821,-257.5 115.49,-257.5 115.49,-239.5 31.6821,-239.5"/>
<text text-anchor="middle" x="73.5859" y="-245.5" font-family="Helvetica,sans-Serif" font-size="10.00">ofxCuiCui::Icon</text>
</a>
</g>
</g>
<!-- Node4&#45;&gt;Node2 -->
<g id="edge3" class="edge"><title>Node4&#45;&gt;Node2</title>
<path fill="none" stroke="#9a32cd" stroke-dasharray="5,2" d="M125.728,-237.6C133.022,-235.533 140.356,-233.167 147.172,-230.5 199.063,-210.193 255.481,-175.099 280.786,-158.587"/>
<polygon fill="#9a32cd" stroke="#9a32cd" points="124.619,-234.274 115.86,-240.234 126.425,-241.037 124.619,-234.274"/>
<text text-anchor="middle" x="192.137" y="-223.5" font-family="Helvetica,sans-Serif" font-size="10.00"> icon</text>
</g>
<!-- Node5 -->
<g id="node5" class="node"><title>Node5</title>
<g id="a_node5"><a xlink:href="classofx_cui_cui_1_1_style.html" target="_top" xlink:title="Style structure shared among all components. ">
<polygon fill="white" stroke="black" points="30.0171,-74.5 30.0171,-92.5 117.155,-92.5 117.155,-74.5 30.0171,-74.5"/>
<text text-anchor="middle" x="73.5859" y="-80.5" font-family="Helvetica,sans-Serif" font-size="10.00">ofxCuiCui::Style</text>
</a>
</g>
</g>
<!-- Node5&#45;&gt;Node2 -->
<g id="edge4" class="edge"><title>Node5&#45;&gt;Node2</title>
<path fill="none" stroke="#9a32cd" stroke-dasharray="5,2" d="M114.293,-95.4219C157.429,-108.373 225.375,-128.774 264.313,-140.465"/>
<polygon fill="#9a32cd" stroke="#9a32cd" points="115.274,-92.0622 104.69,-92.5386 113.261,-98.7665 115.274,-92.0622"/>
<text text-anchor="middle" x="192.137" y="-127.5" font-family="Helvetica,sans-Serif" font-size="10.00"> style</text>
</g>
<!-- Node5&#45;&gt;Node5 -->
<g id="edge5" class="edge"><title>Node5&#45;&gt;Node5</title>
<path fill="none" stroke="#9a32cd" stroke-dasharray="5,2" d="M51.5085,-101.477C52.161,-106.832 59.5201,-111 73.5859,-111 95.0195,-111 100.88,-101.322 91.1682,-92.5134"/>
<polygon fill="#9a32cd" stroke="#9a32cd" points="54.6495,-103.021 56.0037,-92.5134 48.3922,-99.8834 54.6495,-103.021"/>
<text text-anchor="middle" x="73.5859" y="-213" font-family="Helvetica,sans-Serif" font-size="10.00"> FramedYellow</text>
<text text-anchor="middle" x="73.5859" y="-203" font-family="Helvetica,sans-Serif" font-size="10.00">PlainYellow</text>
<text text-anchor="middle" x="73.5859" y="-193" font-family="Helvetica,sans-Serif" font-size="10.00">FramedDefault</text>
<text text-anchor="middle" x="73.5859" y="-183" font-family="Helvetica,sans-Serif" font-size="10.00">FramedDarkblue</text>
<text text-anchor="middle" x="73.5859" y="-173" font-family="Helvetica,sans-Serif" font-size="10.00">PlainDarkblue</text>
<text text-anchor="middle" x="73.5859" y="-163" font-family="Helvetica,sans-Serif" font-size="10.00">FramedRed</text>
<text text-anchor="middle" x="73.5859" y="-153" font-family="Helvetica,sans-Serif" font-size="10.00">FramedGray</text>
<text text-anchor="middle" x="73.5859" y="-143" font-family="Helvetica,sans-Serif" font-size="10.00">FramedGreen</text>
<text text-anchor="middle" x="73.5859" y="-133" font-family="Helvetica,sans-Serif" font-size="10.00">FramedBlue</text>
<text text-anchor="middle" x="73.5859" y="-123" font-family="Helvetica,sans-Serif" font-size="10.00">Default</text>
<text text-anchor="middle" x="73.5859" y="-113" font-family="Helvetica,sans-Serif" font-size="10.00">...</text>
</g>
<!-- Node6 -->
<g id="node6" class="node"><title>Node6</title>
<g id="a_node6"><a xlink:href="classofx_cui_cui_1_1_graph.html" target="_top" xlink:title="2D Graph Area (with virtual coordinate system) ">
<polygon fill="white" stroke="black" points="249.056,-37.5 249.056,-55.5 341.755,-55.5 341.755,-37.5 249.056,-37.5"/>
<text text-anchor="middle" x="295.405" y="-43.5" font-family="Helvetica,sans-Serif" font-size="10.00">ofxCuiCui::Graph</text>
</a>
</g>
</g>
<!-- Node6&#45;&gt;Node1 -->
<g id="edge6" class="edge"><title>Node6&#45;&gt;Node1</title>
<path fill="none" stroke="#9a32cd" stroke-dasharray="5,2" d="M329.589,-59.1028C360.485,-70.8368 405.78,-88.0395 433.224,-98.4623"/>
<polygon fill="#9a32cd" stroke="#9a32cd" points="330.696,-55.7793 320.105,-55.5008 328.21,-62.3233 330.696,-55.7793"/>
<text text-anchor="middle" x="385.885" y="-87.5" font-family="Helvetica,sans-Serif" font-size="10.00"> graph</text>
</g>
<!-- Node7 -->
<g id="node7" class="node"><title>Node7</title>
<g id="a_node7"><a xlink:href="structofx_cui_cui_1_1_graph_1_1_view_area.html" target="_top" xlink:title="View area rectangle (in pixels) ">
<polygon fill="white" stroke="black" points="3.14697,-37.5 3.14697,-55.5 144.025,-55.5 144.025,-37.5 3.14697,-37.5"/>
<text text-anchor="middle" x="73.5859" y="-43.5" font-family="Helvetica,sans-Serif" font-size="10.00">ofxCuiCui::Graph::ViewArea</text>
</a>
</g>
</g>
<!-- Node7&#45;&gt;Node6 -->
<g id="edge7" class="edge"><title>Node7&#45;&gt;Node6</title>
<path fill="none" stroke="#9a32cd" stroke-dasharray="5,2" d="M154.32,-46.5C186.121,-46.5 221.575,-46.5 248.859,-46.5"/>
<polygon fill="#9a32cd" stroke="#9a32cd" points="154.138,-43.0001 144.138,-46.5 154.138,-50.0001 154.138,-43.0001"/>
<text text-anchor="middle" x="192.137" y="-48.5" font-family="Helvetica,sans-Serif" font-size="10.00"> view_area</text>
</g>
<!-- Node8 -->
<g id="node8" class="node"><title>Node8</title>
<g id="a_node8"><a xlink:href="structofx_cui_cui_1_1_graph_1_1_graph_area.html" target="_top" xlink:title="Bounds of the graph space. ">
<polygon fill="white" stroke="black" points="0,-0.5 0,-18.5 147.172,-18.5 147.172,-0.5 0,-0.5"/>
<text text-anchor="middle" x="73.5859" y="-6.5" font-family="Helvetica,sans-Serif" font-size="10.00">ofxCuiCui::Graph::GraphArea</text>
</a>
</g>
</g>
<!-- Node8&#45;&gt;Node6 -->
<g id="edge8" class="edge"><title>Node8&#45;&gt;Node6</title>
<path fill="none" stroke="#9a32cd" stroke-dasharray="5,2" d="M143.745,-20.1323C167.639,-23.9051 194.568,-28.2676 219.103,-32.5 228.799,-34.1727 239.182,-36.0482 249.044,-37.8695"/>
<polygon fill="#9a32cd" stroke="#9a32cd" points="144.128,-16.6497 133.706,-18.5536 143.041,-23.5648 144.128,-16.6497"/>
<text text-anchor="middle" x="192.137" y="-34.5" font-family="Helvetica,sans-Serif" font-size="10.00"> graph_area</text>
</g>
</g>
</svg>
