<?xml version="1.0" encoding="UTF-8" standalone="no"?>
<!DOCTYPE svg PUBLIC "-//W3C//DTD SVG 1.1//EN"
 "http://www.w3.org/Graphics/SVG/1.1/DTD/svg11.dtd">
<!-- Generated by graphviz version 2.38.0 (20140413.2041)
 -->
<!-- Title: ofxCuiCui::Component Pages: 1 -->
<svg width="407pt" height="183pt"
 viewBox="0.00 0.00 407.28 183.00" xmlns="http://www.w3.org/2000/svg" xmlns:xlink="http://www.w3.org/1999/xlink">
<g id="graph0" class="graph" transform="scale(1 1) rotate(0) translate(4 179)">
<title>ofxCuiCui::Component</title>
<polygon fill="white" stroke="none" points="-4,4 -4,-179 403.28,-179 403.28,4 -4,4"/>
<!-- Node1 -->
<g id="node1" class="node"><title>Node1</title>
<polygon fill="#bfbfbf" stroke="black" points="101.936,-0.5 101.936,-18.5 218.542,-18.5 218.542,-0.5 101.936,-0.5"/>
<text text-anchor="middle" x="160.239" y="-6.5" font-family="Helvetica,sans-Serif" font-size="10.00">ofxCuiCui::Component</text>
</g>
<!-- Node2 -->
<g id="node2" class="node"><title>Node2</title>
<g id="a_node2"><a xlink:href="classofx_cui_cui_1_1_text_box.html" target="_top" xlink:title="Text box font wrapper. ">
<polygon fill="white" stroke="black" points="0,-111 0,-129 100.478,-129 100.478,-111 0,-111"/>
<text text-anchor="middle" x="50.2388" y="-117" font-family="Helvetica,sans-Serif" font-size="10.00">ofxCuiCui::TextBox</text>
</a>
</g>
</g>
<!-- Node2&#45;&gt;Node1 -->
<g id="edge1" class="edge"><title>Node2&#45;&gt;Node1</title>
<path fill="none" stroke="#9a32cd" stroke-dasharray="5,2" d="M65.6444,-103.804C89.2254,-80.545 133.47,-36.904 151.875,-18.7498"/>
<polygon fill="#9a32cd" stroke="#9a32cd" points="63.1683,-101.331 58.5066,-110.845 68.084,-106.314 63.1683,-101.331"/>
<text text-anchor="middle" x="140.968" y="-39" font-family="Helvetica,sans-Serif" font-size="10.00"> font</text>
</g>
<!-- Node3 -->
<g id="node3" class="node"><title>Node3</title>
<g id="a_node3"><a xlink:href="classofx_cui_cui_1_1_icon.html" target="_top" xlink:title="Icon image box wrapper. ">
<polygon fill="white" stroke="black" points="118.335,-111 118.335,-129 202.143,-129 202.143,-111 118.335,-111"/>
<text text-anchor="middle" x="160.239" y="-117" font-family="Helvetica,sans-Serif" font-size="10.00">ofxCuiCui::Icon</text>
</a>
</g>
</g>
<!-- Node3&#45;&gt;Node1 -->
<g id="edge2" class="edge"><title>Node3&#45;&gt;Node1</title>
<path fill="none" stroke="#9a32cd" stroke-dasharray="5,2" d="M160.239,-100.659C160.239,-76.7983 160.239,-36.1147 160.239,-18.7498"/>
<polygon fill="#9a32cd" stroke="#9a32cd" points="156.739,-100.845 160.239,-110.845 163.739,-100.845 156.739,-100.845"/>
<text text-anchor="middle" x="170.8" y="-39" font-family="Helvetica,sans-Serif" font-size="10.00"> icon</text>
</g>
<!-- Node4 -->
<g id="node4" class="node"><title>Node4</title>
<g id="a_node4"><a xlink:href="classofx_cui_cui_1_1_style.html" target="_top" xlink:title="Style structure shared among all components. ">
<polygon fill="white" stroke="black" points="219.67,-111 219.67,-129 306.808,-129 306.808,-111 219.67,-111"/>
<text text-anchor="middle" x="263.239" y="-117" font-family="Helvetica,sans-Serif" font-size="10.00">ofxCuiCui::Style</text>
</a>
</g>
</g>
<!-- Node4&#45;&gt;Node1 -->
<g id="edge3" class="edge"><title>Node4&#45;&gt;Node1</title>
<path fill="none" stroke="#9a32cd" stroke-dasharray="5,2" d="M248.524,-103.5C226.373,-80.166 185.229,-36.8251 168.07,-18.7498"/>
<polygon fill="#9a32cd" stroke="#9a32cd" points="246.074,-106.002 255.497,-110.845 251.151,-101.183 246.074,-106.002"/>
<text text-anchor="middle" x="204.909" y="-39" font-family="Helvetica,sans-Serif" font-size="10.00"> style</text>
</g>
<!-- Node4&#45;&gt;Node4 -->
<g id="edge4" class="edge"><title>Node4&#45;&gt;Node4</title>
<path fill="none" stroke="#9a32cd" stroke-dasharray="5,2" d="M286.266,-132.475C305.168,-137.647 324.808,-133.489 324.808,-120 324.808,-104.232 297.971,-101.214 276.847,-110.946"/>
<polygon fill="#9a32cd" stroke="#9a32cd" points="287.441,-129.178 276.847,-129.054 285.052,-135.757 287.441,-129.178"/>
<text text-anchor="middle" x="362.044" y="-167" font-family="Helvetica,sans-Serif" font-size="10.00"> FramedYellow</text>
<text text-anchor="middle" x="362.044" y="-157" font-family="Helvetica,sans-Serif" font-size="10.00">PlainYellow</text>
<text text-anchor="middle" x="362.044" y="-147" font-family="Helvetica,sans-Serif" font-size="10.00">FramedDefault</text>
<text text-anchor="middle" x="362.044" y="-137" font-family="Helvetica,sans-Serif" font-size="10.00">FramedDarkblue</text>
<text text-anchor="middle" x="362.044" y="-127" font-family="Helvetica,sans-Serif" font-size="10.00">PlainDarkblue</text>
<text text-anchor="middle" x="362.044" y="-117" font-family="Helvetica,sans-Serif" font-size="10.00">FramedRed</text>
<text text-anchor="middle" x="362.044" y="-107" font-family="Helvetica,sans-Serif" font-size="10.00">FramedGray</text>
<text text-anchor="middle" x="362.044" y="-97" font-family="Helvetica,sans-Serif" font-size="10.00">FramedGreen</text>
<text text-anchor="middle" x="362.044" y="-87" font-family="Helvetica,sans-Serif" font-size="10.00">FramedBlue</text>
<text text-anchor="middle" x="362.044" y="-77" font-family="Helvetica,sans-Serif" font-size="10.00">Default</text>
<text text-anchor="middle" x="362.044" y="-67" font-family="Helvetica,sans-Serif" font-size="10.00">...</text>
</g>
</g>
</svg>
