<?xml version="1.0" encoding="UTF-8" standalone="no"?>
<!DOCTYPE svg PUBLIC "-//W3C//DTD SVG 1.1//EN"
 "http://www.w3.org/Graphics/SVG/1.1/DTD/svg11.dtd">
<!-- Generated by graphviz version 2.38.0 (20140413.2041)
 -->
<!-- Title: ofxCuiCui::Button Pages: 1 -->
<svg width="276pt" height="137pt"
 viewBox="0.00 0.00 276.22 137.00" xmlns="http://www.w3.org/2000/svg" xmlns:xlink="http://www.w3.org/1999/xlink">
<g id="graph0" class="graph" transform="scale(1 1) rotate(0) translate(4 133)">
<title>ofxCuiCui::Button</title>
<polygon fill="white" stroke="none" points="-4,4 -4,-133 272.221,-133 272.221,4 -4,4"/>
<!-- Node1 -->
<g id="node1" class="node"><title>Node1</title>
<polygon fill="#bfbfbf" stroke="black" points="79.3325,-55.5 79.3325,-73.5 173.15,-73.5 173.15,-55.5 79.3325,-55.5"/>
<text text-anchor="middle" x="126.241" y="-61.5" font-family="Helvetica,sans-Serif" font-size="10.00">ofxCuiCui::Button</text>
</g>
<!-- Node3 -->
<g id="node3" class="node"><title>Node3</title>
<g id="a_node3"><a xlink:href="classofx_cui_cui_1_1_check_box.html" target="_top" xlink:title="Check box component (specialization of button) ">
<polygon fill="white" stroke="black" points="0,-0.5 0,-18.5 110.482,-18.5 110.482,-0.5 0,-0.5"/>
<text text-anchor="middle" x="55.2412" y="-6.5" font-family="Helvetica,sans-Serif" font-size="10.00">ofxCuiCui::CheckBox</text>
</a>
</g>
</g>
<!-- Node1&#45;&gt;Node3 -->
<g id="edge2" class="edge"><title>Node1&#45;&gt;Node3</title>
<path fill="none" stroke="midnightblue" d="M107.097,-49.2095C93.9633,-39.4052 77.0067,-26.7474 66.1261,-18.6253"/>
<polygon fill="midnightblue" stroke="midnightblue" points="105.351,-52.2732 115.458,-55.4504 109.538,-46.6637 105.351,-52.2732"/>
</g>
<!-- Node4 -->
<g id="node4" class="node"><title>Node4</title>
<g id="a_node4"><a xlink:href="classofx_cui_cui_1_1_draggable_button.html" target="_top" xlink:title="Draggable Button (specialization of button) ">
<polygon fill="white" stroke="black" points="128.261,-0.5 128.261,-18.5 268.221,-18.5 268.221,-0.5 128.261,-0.5"/>
<text text-anchor="middle" x="198.241" y="-6.5" font-family="Helvetica,sans-Serif" font-size="10.00">ofxCuiCui::DraggableButton</text>
</a>
</g>
</g>
<!-- Node1&#45;&gt;Node4 -->
<g id="edge3" class="edge"><title>Node1&#45;&gt;Node4</title>
<path fill="none" stroke="midnightblue" d="M145.272,-49.4916C158.642,-39.6491 176.063,-26.8255 187.203,-18.6253"/>
<polygon fill="midnightblue" stroke="midnightblue" points="143.155,-46.7035 137.176,-55.4504 147.305,-52.3409 143.155,-46.7035"/>
</g>
<!-- Node2 -->
<g id="node2" class="node"><title>Node2</title>
<g id="a_node2"><a xlink:href="classofx_cui_cui_1_1_component.html" target="_top" xlink:title="Base UI Component (equivalent to a label) ">
<polygon fill="white" stroke="black" points="67.9385,-110.5 67.9385,-128.5 184.544,-128.5 184.544,-110.5 67.9385,-110.5"/>
<text text-anchor="middle" x="126.241" y="-116.5" font-family="Helvetica,sans-Serif" font-size="10.00">ofxCuiCui::Component</text>
</a>
</g>
</g>
<!-- Node2&#45;&gt;Node1 -->
<g id="edge1" class="edge"><title>Node2&#45;&gt;Node1</title>
<path fill="none" stroke="midnightblue" d="M126.241,-100.175C126.241,-91.0945 126.241,-80.5949 126.241,-73.5496"/>
<polygon fill="midnightblue" stroke="midnightblue" points="122.741,-100.219 126.241,-110.219 129.741,-100.219 122.741,-100.219"/>
</g>
</g>
</svg>
