<?xml version="1.0" encoding="UTF-8" standalone="no"?>
<!DOCTYPE svg PUBLIC "-//W3C//DTD SVG 1.1//EN"
 "http://www.w3.org/Graphics/SVG/1.1/DTD/svg11.dtd">
<!-- Generated by graphviz version 2.38.0 (20140413.2041)
 -->
<!-- Title: ofxOui::Button Pages: 1 -->
<svg width="389pt" height="239pt"
 viewBox="0.00 0.00 388.93 239.00" xmlns="http://www.w3.org/2000/svg" xmlns:xlink="http://www.w3.org/1999/xlink">
<g id="graph0" class="graph" transform="scale(1 1) rotate(0) translate(4 235)">
<title>ofxOui::Button</title>
<polygon fill="white" stroke="none" points="-4,4 -4,-235 384.93,-235 384.93,4 -4,4"/>
<!-- Node4 -->
<g id="node1" class="node"><title>Node4</title>
<polygon fill="#bfbfbf" stroke="black" points="177.66,-0.5 177.66,-18.5 257.029,-18.5 257.029,-0.5 177.66,-0.5"/>
<text text-anchor="middle" x="217.345" y="-6.5" font-family="Helvetica,sans-Serif" font-size="10.00">ofxOui::Button</text>
</g>
<!-- Node5 -->
<g id="node2" class="node"><title>Node5</title>
<g id="a_node2"><a xlink:href="classofx_oui_1_1_component.html" target="_top" xlink:title="Base UI Component (equivalent to a label) ">
<polygon fill="white" stroke="black" points="166.266,-56.5 166.266,-74.5 268.423,-74.5 268.423,-56.5 166.266,-56.5"/>
<text text-anchor="middle" x="217.345" y="-62.5" font-family="Helvetica,sans-Serif" font-size="10.00">ofxOui::Component</text>
</a>
</g>
</g>
<!-- Node5&#45;&gt;Node4 -->
<g id="edge1" class="edge"><title>Node5&#45;&gt;Node4</title>
<path fill="none" stroke="midnightblue" d="M217.345,-45.8288C217.345,-36.5774 217.345,-25.8798 217.345,-18.7014"/>
<polygon fill="midnightblue" stroke="midnightblue" points="213.845,-46.0625 217.345,-56.0625 220.845,-46.0625 213.845,-46.0625"/>
</g>
<!-- Node5&#45;&gt;Node5 -->
<g id="edge6" class="edge"><title>Node5&#45;&gt;Node5</title>
<path fill="none" stroke="#9a32cd" stroke-dasharray="5,2" d="M278.785,-69.4528C283.511,-68.5779 286.423,-67.2603 286.423,-65.5 286.423,-62.6836 278.968,-61.0004 268.558,-60.4503"/>
<polygon fill="#9a32cd" stroke="#9a32cd" points="278.127,-66.0033 268.558,-70.5497 278.874,-72.9633 278.127,-66.0033"/>
<text text-anchor="middle" x="333.677" y="-62.5" font-family="Helvetica,sans-Serif" font-size="10.00"> blocking_component</text>
</g>
<!-- Node6 -->
<g id="node3" class="node"><title>Node6</title>
<g id="a_node3"><a xlink:href="classofx_oui_1_1_style.html" target="_top" xlink:title="Style structure shared among all components. ">
<polygon fill="white" stroke="black" points="0,-167 0,-185 72.6895,-185 72.6895,-167 0,-167"/>
<text text-anchor="middle" x="36.3447" y="-173" font-family="Helvetica,sans-Serif" font-size="10.00">ofxOui::Style</text>
</a>
</g>
</g>
<!-- Node6&#45;&gt;Node5 -->
<g id="edge2" class="edge"><title>Node6&#45;&gt;Node5</title>
<path fill="none" stroke="#9a32cd" stroke-dasharray="5,2" d="M58.7281,-161.582C96.6681,-138.839 172.507,-93.3776 203.582,-74.7498"/>
<polygon fill="#9a32cd" stroke="#9a32cd" points="56.7266,-158.701 49.9491,-166.845 60.3257,-164.705 56.7266,-158.701"/>
<text text-anchor="middle" x="181.015" y="-95" font-family="Helvetica,sans-Serif" font-size="10.00"> style</text>
</g>
<!-- Node6&#45;&gt;Node6 -->
<g id="edge3" class="edge"><title>Node6&#45;&gt;Node6</title>
<path fill="none" stroke="#9a32cd" stroke-dasharray="5,2" d="M57.8137,-188.814C74.1365,-193.452 90.6895,-189.181 90.6895,-176 90.6895,-160.232 67.0015,-157.214 48.3566,-166.946"/>
<polygon fill="#9a32cd" stroke="#9a32cd" points="58.9422,-185.496 48.3566,-185.054 56.3558,-192.001 58.9422,-185.496"/>
<text text-anchor="middle" x="127.926" y="-223" font-family="Helvetica,sans-Serif" font-size="10.00"> FramedYellow</text>
<text text-anchor="middle" x="127.926" y="-213" font-family="Helvetica,sans-Serif" font-size="10.00">PlainYellow</text>
<text text-anchor="middle" x="127.926" y="-203" font-family="Helvetica,sans-Serif" font-size="10.00">FramedDefault</text>
<text text-anchor="middle" x="127.926" y="-193" font-family="Helvetica,sans-Serif" font-size="10.00">FramedDarkblue</text>
<text text-anchor="middle" x="127.926" y="-183" font-family="Helvetica,sans-Serif" font-size="10.00">PlainDarkblue</text>
<text text-anchor="middle" x="127.926" y="-173" font-family="Helvetica,sans-Serif" font-size="10.00">FramedRed</text>
<text text-anchor="middle" x="127.926" y="-163" font-family="Helvetica,sans-Serif" font-size="10.00">FramedGray</text>
<text text-anchor="middle" x="127.926" y="-153" font-family="Helvetica,sans-Serif" font-size="10.00">FramedGreen</text>
<text text-anchor="middle" x="127.926" y="-143" font-family="Helvetica,sans-Serif" font-size="10.00">FramedBlue</text>
<text text-anchor="middle" x="127.926" y="-133" font-family="Helvetica,sans-Serif" font-size="10.00">Default</text>
<text text-anchor="middle" x="127.926" y="-123" font-family="Helvetica,sans-Serif" font-size="10.00">...</text>
</g>
<!-- Node7 -->
<g id="node4" class="node"><title>Node7</title>
<g id="a_node4"><a xlink:href="classofx_oui_1_1_icon.html" target="_top" xlink:title="Icon image box wrapper. ">
<polygon fill="white" stroke="black" points="182.665,-167 182.665,-185 252.024,-185 252.024,-167 182.665,-167"/>
<text text-anchor="middle" x="217.345" y="-173" font-family="Helvetica,sans-Serif" font-size="10.00">ofxOui::Icon</text>
</a>
</g>
</g>
<!-- Node7&#45;&gt;Node5 -->
<g id="edge4" class="edge"><title>Node7&#45;&gt;Node5</title>
<path fill="none" stroke="#9a32cd" stroke-dasharray="5,2" d="M217.345,-156.659C217.345,-132.798 217.345,-92.1147 217.345,-74.7498"/>
<polygon fill="#9a32cd" stroke="#9a32cd" points="213.845,-156.845 217.345,-166.845 220.845,-156.845 213.845,-156.845"/>
<text text-anchor="middle" x="227.906" y="-95" font-family="Helvetica,sans-Serif" font-size="10.00"> icon</text>
</g>
<!-- Node8 -->
<g id="node5" class="node"><title>Node8</title>
<g id="a_node5"><a xlink:href="classofx_oui_1_1_text_box.html" target="_top" xlink:title="Text box font wrapper. ">
<polygon fill="white" stroke="black" points="270.33,-167 270.33,-185 356.359,-185 356.359,-167 270.33,-167"/>
<text text-anchor="middle" x="313.345" y="-173" font-family="Helvetica,sans-Serif" font-size="10.00">ofxOui::TextBox</text>
</a>
</g>
</g>
<!-- Node8&#45;&gt;Node5 -->
<g id="edge5" class="edge"><title>Node8&#45;&gt;Node5</title>
<path fill="none" stroke="#9a32cd" stroke-dasharray="5,2" d="M299.877,-159.043C285.742,-142.39 262.775,-115.603 242.345,-93 236.746,-86.8063 230.275,-79.9543 225.319,-74.7696"/>
<polygon fill="#9a32cd" stroke="#9a32cd" points="297.272,-161.382 306.404,-166.752 302.614,-156.859 297.272,-161.382"/>
<text text-anchor="middle" x="260.074" y="-95" font-family="Helvetica,sans-Serif" font-size="10.00"> font</text>
</g>
</g>
</svg>
