<?xml version="1.0" encoding="UTF-8" standalone="no"?>
<!DOCTYPE svg PUBLIC "-//W3C//DTD SVG 1.1//EN"
 "http://www.w3.org/Graphics/SVG/1.1/DTD/svg11.dtd">
<!-- Generated by graphviz version 2.38.0 (20140413.2041)
 -->
<!-- Title: ofxOui::Bpf Pages: 1 -->
<svg width="504pt" height="248pt"
 viewBox="0.00 0.00 504.21 248.00" xmlns="http://www.w3.org/2000/svg" xmlns:xlink="http://www.w3.org/1999/xlink">
<g id="graph0" class="graph" transform="scale(1 1) rotate(0) translate(4 244)">
<title>ofxOui::Bpf</title>
<polygon fill="white" stroke="none" points="-4,4 -4,-244 500.207,-244 500.207,4 -4,4"/>
<!-- Node2 -->
<g id="node1" class="node"><title>Node2</title>
<polygon fill="#bfbfbf" stroke="black" points="317.611,-0.5 317.611,-18.5 383.079,-18.5 383.079,-0.5 317.611,-0.5"/>
<text text-anchor="middle" x="350.345" y="-6.5" font-family="Helvetica,sans-Serif" font-size="10.00">ofxOui::Bpf</text>
</g>
<!-- Node3 -->
<g id="node2" class="node"><title>Node3</title>
<g id="a_node2"><a xlink:href="classofx_oui_1_1_component.html" target="_top" xlink:title="Base UI Component (equivalent to a label) ">
<polygon fill="white" stroke="black" points="166.266,-65.5 166.266,-83.5 268.423,-83.5 268.423,-65.5 166.266,-65.5"/>
<text text-anchor="middle" x="217.345" y="-71.5" font-family="Helvetica,sans-Serif" font-size="10.00">ofxOui::Component</text>
</a>
</g>
</g>
<!-- Node3&#45;&gt;Node2 -->
<g id="edge1" class="edge"><title>Node3&#45;&gt;Node2</title>
<path fill="none" stroke="midnightblue" d="M243.58,-61.0728C270.187,-48.4696 310.585,-29.3337 333.295,-18.5761"/>
<polygon fill="midnightblue" stroke="midnightblue" points="241.999,-57.9488 234.46,-65.3928 244.996,-64.275 241.999,-57.9488"/>
</g>
<!-- Node3&#45;&gt;Node3 -->
<g id="edge6" class="edge"><title>Node3&#45;&gt;Node3</title>
<path fill="none" stroke="#9a32cd" stroke-dasharray="5,2" d="M278.785,-79.0175C283.511,-78.0176 286.423,-76.5117 286.423,-74.5 286.423,-71.2812 278.968,-69.3575 268.558,-68.7289"/>
<polygon fill="#9a32cd" stroke="#9a32cd" points="278.057,-75.5805 268.558,-80.2711 278.909,-82.5285 278.057,-75.5805"/>
<text text-anchor="middle" x="333.677" y="-71.5" font-family="Helvetica,sans-Serif" font-size="10.00"> blocking_component</text>
</g>
<!-- Node4 -->
<g id="node3" class="node"><title>Node4</title>
<g id="a_node3"><a xlink:href="classofx_oui_1_1_style.html" target="_top" xlink:title="Style structure shared among all components. ">
<polygon fill="white" stroke="black" points="0,-176 0,-194 72.6895,-194 72.6895,-176 0,-176"/>
<text text-anchor="middle" x="36.3447" y="-182" font-family="Helvetica,sans-Serif" font-size="10.00">ofxOui::Style</text>
</a>
</g>
</g>
<!-- Node4&#45;&gt;Node3 -->
<g id="edge2" class="edge"><title>Node4&#45;&gt;Node3</title>
<path fill="none" stroke="#9a32cd" stroke-dasharray="5,2" d="M58.7281,-170.582C96.6681,-147.839 172.507,-102.378 203.582,-83.7498"/>
<polygon fill="#9a32cd" stroke="#9a32cd" points="56.7266,-167.701 49.9491,-175.845 60.3257,-173.705 56.7266,-167.701"/>
<text text-anchor="middle" x="181.015" y="-104" font-family="Helvetica,sans-Serif" font-size="10.00"> style</text>
</g>
<!-- Node4&#45;&gt;Node4 -->
<g id="edge3" class="edge"><title>Node4&#45;&gt;Node4</title>
<path fill="none" stroke="#9a32cd" stroke-dasharray="5,2" d="M57.8137,-197.814C74.1365,-202.452 90.6895,-198.181 90.6895,-185 90.6895,-169.232 67.0015,-166.214 48.3566,-175.946"/>
<polygon fill="#9a32cd" stroke="#9a32cd" points="58.9422,-194.496 48.3566,-194.054 56.3558,-201.001 58.9422,-194.496"/>
<text text-anchor="middle" x="127.926" y="-232" font-family="Helvetica,sans-Serif" font-size="10.00"> FramedYellow</text>
<text text-anchor="middle" x="127.926" y="-222" font-family="Helvetica,sans-Serif" font-size="10.00">PlainYellow</text>
<text text-anchor="middle" x="127.926" y="-212" font-family="Helvetica,sans-Serif" font-size="10.00">FramedDefault</text>
<text text-anchor="middle" x="127.926" y="-202" font-family="Helvetica,sans-Serif" font-size="10.00">FramedDarkblue</text>
<text text-anchor="middle" x="127.926" y="-192" font-family="Helvetica,sans-Serif" font-size="10.00">PlainDarkblue</text>
<text text-anchor="middle" x="127.926" y="-182" font-family="Helvetica,sans-Serif" font-size="10.00">FramedRed</text>
<text text-anchor="middle" x="127.926" y="-172" font-family="Helvetica,sans-Serif" font-size="10.00">FramedGray</text>
<text text-anchor="middle" x="127.926" y="-162" font-family="Helvetica,sans-Serif" font-size="10.00">FramedGreen</text>
<text text-anchor="middle" x="127.926" y="-152" font-family="Helvetica,sans-Serif" font-size="10.00">FramedBlue</text>
<text text-anchor="middle" x="127.926" y="-142" font-family="Helvetica,sans-Serif" font-size="10.00">Default</text>
<text text-anchor="middle" x="127.926" y="-132" font-family="Helvetica,sans-Serif" font-size="10.00">...</text>
</g>
<!-- Node5 -->
<g id="node4" class="node"><title>Node5</title>
<g id="a_node4"><a xlink:href="classofx_oui_1_1_icon.html" target="_top" xlink:title="Icon image box wrapper. ">
<polygon fill="white" stroke="black" points="182.665,-176 182.665,-194 252.024,-194 252.024,-176 182.665,-176"/>
<text text-anchor="middle" x="217.345" y="-182" font-family="Helvetica,sans-Serif" font-size="10.00">ofxOui::Icon</text>
</a>
</g>
</g>
<!-- Node5&#45;&gt;Node3 -->
<g id="edge4" class="edge"><title>Node5&#45;&gt;Node3</title>
<path fill="none" stroke="#9a32cd" stroke-dasharray="5,2" d="M217.345,-165.659C217.345,-141.798 217.345,-101.115 217.345,-83.7498"/>
<polygon fill="#9a32cd" stroke="#9a32cd" points="213.845,-165.845 217.345,-175.845 220.845,-165.845 213.845,-165.845"/>
<text text-anchor="middle" x="227.906" y="-104" font-family="Helvetica,sans-Serif" font-size="10.00"> icon</text>
</g>
<!-- Node6 -->
<g id="node5" class="node"><title>Node6</title>
<g id="a_node5"><a xlink:href="classofx_oui_1_1_text_box.html" target="_top" xlink:title="Text box font wrapper. ">
<polygon fill="white" stroke="black" points="270.33,-176 270.33,-194 356.359,-194 356.359,-176 270.33,-176"/>
<text text-anchor="middle" x="313.345" y="-182" font-family="Helvetica,sans-Serif" font-size="10.00">ofxOui::TextBox</text>
</a>
</g>
</g>
<!-- Node6&#45;&gt;Node3 -->
<g id="edge5" class="edge"><title>Node6&#45;&gt;Node3</title>
<path fill="none" stroke="#9a32cd" stroke-dasharray="5,2" d="M299.877,-168.043C285.742,-151.39 262.775,-124.603 242.345,-102 236.746,-95.8063 230.275,-88.9543 225.319,-83.7696"/>
<polygon fill="#9a32cd" stroke="#9a32cd" points="297.272,-170.382 306.404,-175.752 302.614,-165.859 297.272,-170.382"/>
<text text-anchor="middle" x="260.074" y="-104" font-family="Helvetica,sans-Serif" font-size="10.00"> font</text>
</g>
<!-- Node7 -->
<g id="node6" class="node"><title>Node7</title>
<g id="a_node6"><a xlink:href="classofx_oui_1_1_graph.html" target="_top" xlink:title="2D Graph Area (with virtual coordinate system) ">
<polygon fill="white" stroke="black" points="398.219,-65.5 398.219,-83.5 476.47,-83.5 476.47,-65.5 398.219,-65.5"/>
<text text-anchor="middle" x="437.345" y="-71.5" font-family="Helvetica,sans-Serif" font-size="10.00">ofxOui::Graph</text>
</a>
</g>
</g>
<!-- Node7&#45;&gt;Node2 -->
<g id="edge7" class="edge"><title>Node7&#45;&gt;Node2</title>
<path fill="none" stroke="#9a32cd" stroke-dasharray="5,2" d="M417.649,-59.2374C400.278,-46.6585 375.589,-28.7804 361.446,-18.539"/>
<polygon fill="#9a32cd" stroke="#9a32cd" points="415.819,-62.2335 425.971,-65.2639 419.924,-56.5639 415.819,-62.2335"/>
<text text-anchor="middle" x="413.522" y="-39" font-family="Helvetica,sans-Serif" font-size="10.00"> graph</text>
</g>
<!-- Node8 -->
<g id="node7" class="node"><title>Node8</title>
<g id="a_node7"><a xlink:href="structofx_oui_1_1_graph_1_1_bounds.html" target="_top" xlink:title="Bounds of the graph space. ">
<polygon fill="white" stroke="black" points="378.483,-176 378.483,-194 496.207,-194 496.207,-176 378.483,-176"/>
<text text-anchor="middle" x="437.345" y="-182" font-family="Helvetica,sans-Serif" font-size="10.00">ofxOui::Graph::Bounds</text>
</a>
</g>
</g>
<!-- Node8&#45;&gt;Node7 -->
<g id="edge8" class="edge"><title>Node8&#45;&gt;Node7</title>
<path fill="none" stroke="#9a32cd" stroke-dasharray="5,2" d="M437.345,-165.659C437.345,-141.798 437.345,-101.115 437.345,-83.7498"/>
<polygon fill="#9a32cd" stroke="#9a32cd" points="433.845,-165.845 437.345,-175.845 440.845,-165.845 433.845,-165.845"/>
<text text-anchor="middle" x="464.31" y="-104" font-family="Helvetica,sans-Serif" font-size="10.00"> graph_area</text>
</g>
</g>
</svg>
