<?xml version="1.0" encoding="UTF-8" standalone="no"?>
<!DOCTYPE svg PUBLIC "-//W3C//DTD SVG 1.1//EN"
 "http://www.w3.org/Graphics/SVG/1.1/DTD/svg11.dtd">
<!-- Generated by graphviz version 2.38.0 (20140413.2041)
 -->
<!-- Title: src Pages: 1 -->
<svg width="110pt" height="220pt"
 viewBox="0.00 0.00 110.00 220.00" xmlns="http://www.w3.org/2000/svg" xmlns:xlink="http://www.w3.org/1999/xlink">
<g id="graph0" class="graph" transform="scale(1 1) rotate(0) translate(4 216)">
<title>src</title>
<polygon fill="white" stroke="none" points="-4,4 -4,-216 106,-216 106,4 -4,4"/>
<g id="clust1" class="cluster"><title>clusterdir_68267d1309a1af8e8297ef4c3efbcdba</title>
<g id="a_clust1"><a xlink:href="dir_68267d1309a1af8e8297ef4c3efbcdba.html" target="_top">
<polygon fill="#eeeeff" stroke="black" points="8,-8 8,-204 94,-204 94,-8 8,-8"/>
</a>
</g>
</g>
<!-- dir_68267d1309a1af8e8297ef4c3efbcdba -->
<g id="node1" class="node"><title>dir_68267d1309a1af8e8297ef4c3efbcdba</title>
<text text-anchor="middle" x="51" y="-175" font-family="Helvetica,sans-Serif" font-size="10.00">src</text>
</g>
<!-- dir_3c4c7c1a85608ccd561c026bec818e51 -->
<g id="node2" class="node"><title>dir_3c4c7c1a85608ccd561c026bec818e51</title>
<g id="a_node2"><a xlink:href="dir_3c4c7c1a85608ccd561c026bec818e51.html" target="_top" xlink:title="components">
<polygon fill="white" stroke="black" points="86.4792,-124 15.5208,-124 15.5208,-88 86.4792,-88 86.4792,-124"/>
<text text-anchor="middle" x="51" y="-103" font-family="Helvetica,sans-Serif" font-size="10.00">components</text>
</a>
</g>
</g>
<!-- dir_68267d1309a1af8e8297ef4c3efbcdba&#45;&gt;dir_3c4c7c1a85608ccd561c026bec818e51 -->
<g id="edge1" class="edge"><title>dir_68267d1309a1af8e8297ef4c3efbcdba&#45;&gt;dir_3c4c7c1a85608ccd561c026bec818e51</title>
<path fill="none" stroke="black" d="M51,-159.697C51,-151.983 51,-142.712 51,-134.112"/>
<polygon fill="black" stroke="black" points="54.5001,-134.104 51,-124.104 47.5001,-134.104 54.5001,-134.104"/>
<g id="a_edge1&#45;headlabel"><a xlink:href="dir_000000_000001.html" target="_top" xlink:title="12">
<text text-anchor="middle" x="57.3393" y="-134.699" font-family="Helvetica,sans-Serif" font-size="10.00">12</text>
</a>
</g>
</g>
<!-- dir_aebb8dcc11953d78e620bbef0b9e2183 -->
<g id="node3" class="node"><title>dir_aebb8dcc11953d78e620bbef0b9e2183</title>
<g id="a_node3"><a xlink:href="dir_aebb8dcc11953d78e620bbef0b9e2183.html" target="_top" xlink:title="core">
<polygon fill="white" stroke="black" points="78,-52 24,-52 24,-16 78,-16 78,-52"/>
<text text-anchor="middle" x="51" y="-31" font-family="Helvetica,sans-Serif" font-size="10.00">core</text>
</a>
</g>
</g>
<!-- dir_3c4c7c1a85608ccd561c026bec818e51&#45;&gt;dir_aebb8dcc11953d78e620bbef0b9e2183 -->
<g id="edge2" class="edge"><title>dir_3c4c7c1a85608ccd561c026bec818e51&#45;&gt;dir_aebb8dcc11953d78e620bbef0b9e2183</title>
<path fill="none" stroke="black" d="M51,-87.6966C51,-79.9827 51,-70.7125 51,-62.1124"/>
<polygon fill="black" stroke="black" points="54.5001,-62.1043 51,-52.1043 47.5001,-62.1044 54.5001,-62.1043"/>
<g id="a_edge2&#45;headlabel"><a xlink:href="dir_000001_000002.html" target="_top" xlink:title="8">
<text text-anchor="middle" x="57.3393" y="-62.699" font-family="Helvetica,sans-Serif" font-size="10.00">8</text>
</a>
</g>
</g>
</g>
</svg>
