<?xml version="1.0" encoding="UTF-8" standalone="no"?>
<!DOCTYPE svg PUBLIC "-//W3C//DTD SVG 1.1//EN"
 "http://www.w3.org/Graphics/SVG/1.1/DTD/svg11.dtd">
<!-- Generated by graphviz version 2.38.0 (20140413.2041)
 -->
<!-- Title: Graphical Class Hierarchy Pages: 1 -->
<svg width="273pt" height="457pt"
 viewBox="0.00 0.00 272.79 457.00" xmlns="http://www.w3.org/2000/svg" xmlns:xlink="http://www.w3.org/1999/xlink">
<g id="graph0" class="graph" transform="scale(1 1) rotate(0) translate(4 453)">
<title>Graphical Class Hierarchy</title>
<polygon fill="white" stroke="none" points="-4,4 -4,-453 268.787,-453 268.787,4 -4,4"/>
<!-- Node4 -->
<g id="node1" class="node"><title>Node4</title>
<polygon fill="white" stroke="#bfbfbf" points="0,-215.5 0,-233.5 70.4727,-233.5 70.4727,-215.5 0,-215.5"/>
<text text-anchor="middle" x="35.2363" y="-221.5" font-family="Helvetica,sans-Serif" font-size="10.00">ofEventArgs</text>
</g>
<!-- Node0 -->
<g id="node2" class="node"><title>Node0</title>
<g id="a_node2"><a xlink:href="classofx_oui_1_1_bpf_1_1_edit_point_event.html" target="_top" xlink:title="Event arguments when a point is edited. ">
<polygon fill="white" stroke="black" points="117.32,-430.5 117.32,-448.5 253.94,-448.5 253.94,-430.5 117.32,-430.5"/>
<text text-anchor="middle" x="185.63" y="-436.5" font-family="Helvetica,sans-Serif" font-size="10.00">ofxOui::Bpf::EditPointEvent</text>
</a>
</g>
</g>
<!-- Node4&#45;&gt;Node0 -->
<g id="edge1" class="edge"><title>Node4&#45;&gt;Node0</title>
<path fill="none" stroke="midnightblue" d="M37.2138,-243.734C40.3053,-283.294 53.153,-374.038 106.473,-421.5 110.529,-425.111 115.163,-428.039 120.105,-430.409"/>
<polygon fill="midnightblue" stroke="midnightblue" points="40.6968,-243.358 36.554,-233.606 33.7116,-243.813 40.6968,-243.358"/>
</g>
<!-- Node6 -->
<g id="node3" class="node"><title>Node6</title>
<g id="a_node3"><a xlink:href="classofx_oui_1_1_button_1_1_click_event.html" target="_top" xlink:title="Event arguments for button clicks. ">
<polygon fill="white" stroke="black" points="119.549,-393.5 119.549,-411.5 251.711,-411.5 251.711,-393.5 119.549,-393.5"/>
<text text-anchor="middle" x="185.63" y="-399.5" font-family="Helvetica,sans-Serif" font-size="10.00">ofxOui::Button::ClickEvent</text>
</a>
</g>
</g>
<!-- Node4&#45;&gt;Node6 -->
<g id="edge2" class="edge"><title>Node4&#45;&gt;Node6</title>
<path fill="none" stroke="midnightblue" d="M39.0234,-243.819C44.973,-277.725 62.1835,-347.816 106.473,-384.5 110.869,-388.142 115.862,-391.079 121.148,-393.443"/>
<polygon fill="midnightblue" stroke="midnightblue" points="42.457,-243.126 37.4145,-233.809 35.5457,-244.237 42.457,-243.126"/>
</g>
<!-- Node7 -->
<g id="node4" class="node"><title>Node7</title>
<g id="a_node4"><a xlink:href="classofx_oui_1_1_draggable_button_1_1_drop_event.html" target="_top" xlink:title="Event arguments for Drag and Drop events. ">
<polygon fill="white" stroke="black" points="122.874,-346.5 122.874,-374.5 248.386,-374.5 248.386,-346.5 122.874,-346.5"/>
<text text-anchor="start" x="130.874" y="-362.5" font-family="Helvetica,sans-Serif" font-size="10.00">ofxOui::DraggableButton</text>
<text text-anchor="middle" x="185.63" y="-352.5" font-family="Helvetica,sans-Serif" font-size="10.00">::DropEvent</text>
</a>
</g>
</g>
<!-- Node4&#45;&gt;Node7 -->
<g id="edge3" class="edge"><title>Node4&#45;&gt;Node7</title>
<path fill="none" stroke="midnightblue" d="M42.9207,-243.175C52.8749,-268.327 73.9816,-312.778 106.473,-337.5 111.425,-341.269 116.985,-344.421 122.795,-347.058"/>
<polygon fill="midnightblue" stroke="midnightblue" points="46.1458,-241.808 39.3367,-233.691 39.5977,-244.283 46.1458,-241.808"/>
</g>
<!-- Node8 -->
<g id="node5" class="node"><title>Node8</title>
<g id="a_node5"><a xlink:href="classofx_oui_1_1_drop_down_1_1_select_event.html" target="_top" xlink:title="Event arguments for menu item selection. ">
<polygon fill="white" stroke="black" points="120.105,-299.5 120.105,-327.5 251.154,-327.5 251.154,-299.5 120.105,-299.5"/>
<text text-anchor="start" x="128.105" y="-315.5" font-family="Helvetica,sans-Serif" font-size="10.00">ofxOui::DropDown::Select</text>
<text text-anchor="middle" x="185.63" y="-305.5" font-family="Helvetica,sans-Serif" font-size="10.00">Event</text>
</a>
</g>
</g>
<!-- Node4&#45;&gt;Node8 -->
<g id="edge4" class="edge"><title>Node4&#45;&gt;Node8</title>
<path fill="none" stroke="midnightblue" d="M50.2008,-241.538C63.2893,-256.46 84.1409,-277.706 106.473,-290.5 112.486,-293.945 119.061,-296.914 125.762,-299.463"/>
<polygon fill="midnightblue" stroke="midnightblue" points="52.5861,-238.94 43.4391,-233.594 47.2556,-243.477 52.5861,-238.94"/>
</g>
<!-- Node9 -->
<g id="node6" class="node"><title>Node9</title>
<g id="a_node6"><a xlink:href="classofx_oui_1_1_graph_1_1_bounds_changed_event.html" target="_top" xlink:title="Event arguments for pan/zoom events resulting in bounds changes of the graph area. ">
<polygon fill="white" stroke="black" points="106.473,-252.5 106.473,-280.5 264.787,-280.5 264.787,-252.5 106.473,-252.5"/>
<text text-anchor="start" x="114.473" y="-268.5" font-family="Helvetica,sans-Serif" font-size="10.00">ofxOui::Graph::BoundsChanged</text>
<text text-anchor="middle" x="185.63" y="-258.5" font-family="Helvetica,sans-Serif" font-size="10.00">Event</text>
</a>
</g>
</g>
<!-- Node4&#45;&gt;Node9 -->
<g id="edge5" class="edge"><title>Node4&#45;&gt;Node9</title>
<path fill="none" stroke="midnightblue" d="M78.1029,-236.35C95.8101,-241.361 116.571,-247.237 135.039,-252.464"/>
<polygon fill="midnightblue" stroke="midnightblue" points="78.6457,-232.866 68.0705,-233.51 76.7393,-239.601 78.6457,-232.866"/>
</g>
<!-- Node10 -->
<g id="node7" class="node"><title>Node10</title>
<g id="a_node7"><a xlink:href="classofx_oui_1_1_matrix_1_1_click_event.html" target="_top" xlink:title="Event arguments for button clicks. ">
<polygon fill="white" stroke="black" points="120.394,-215.5 120.394,-233.5 250.866,-233.5 250.866,-215.5 120.394,-215.5"/>
<text text-anchor="middle" x="185.63" y="-221.5" font-family="Helvetica,sans-Serif" font-size="10.00">ofxOui::Matrix::ClickEvent</text>
</a>
</g>
</g>
<!-- Node4&#45;&gt;Node10 -->
<g id="edge6" class="edge"><title>Node4&#45;&gt;Node10</title>
<path fill="none" stroke="midnightblue" d="M80.7664,-224.5C93.2256,-224.5 107.021,-224.5 120.378,-224.5"/>
<polygon fill="midnightblue" stroke="midnightblue" points="80.6538,-221 70.6538,-224.5 80.6537,-228 80.6538,-221"/>
</g>
<!-- Node11 -->
<g id="node8" class="node"><title>Node11</title>
<g id="a_node8"><a xlink:href="classofx_oui_1_1_multi_slider_1_1_value_event.html" target="_top" xlink:title="Event arguments for slider editing events. ">
<polygon fill="white" stroke="black" points="137.061,-168.5 137.061,-196.5 234.199,-196.5 234.199,-168.5 137.061,-168.5"/>
<text text-anchor="start" x="145.061" y="-184.5" font-family="Helvetica,sans-Serif" font-size="10.00">ofxOui::MultiSlider</text>
<text text-anchor="middle" x="185.63" y="-174.5" font-family="Helvetica,sans-Serif" font-size="10.00">::ValueEvent</text>
</a>
</g>
</g>
<!-- Node4&#45;&gt;Node11 -->
<g id="edge7" class="edge"><title>Node4&#45;&gt;Node11</title>
<path fill="none" stroke="midnightblue" d="M77.9101,-212.705C96.3059,-207.498 118.027,-201.351 137.055,-195.965"/>
<polygon fill="midnightblue" stroke="midnightblue" points="76.7393,-209.399 68.0705,-215.49 78.6457,-216.134 76.7393,-209.399"/>
</g>
<!-- Node12 -->
<g id="node9" class="node"><title>Node12</title>
<g id="a_node9"><a xlink:href="classofx_oui_1_1_numbox_1_1_value_event.html" target="_top" xlink:title="Event arguments for value editing events. ">
<polygon fill="white" stroke="black" points="113.799,-131.5 113.799,-149.5 257.46,-149.5 257.46,-131.5 113.799,-131.5"/>
<text text-anchor="middle" x="185.63" y="-137.5" font-family="Helvetica,sans-Serif" font-size="10.00">ofxOui::Numbox::ValueEvent</text>
</a>
</g>
</g>
<!-- Node4&#45;&gt;Node12 -->
<g id="edge8" class="edge"><title>Node4&#45;&gt;Node12</title>
<path fill="none" stroke="midnightblue" d="M50.1124,-207.474C63.1416,-192.613 83.956,-171.585 106.473,-159.5 114.224,-155.34 122.894,-152.076 131.56,-149.52"/>
<polygon fill="midnightblue" stroke="midnightblue" points="47.1896,-205.509 43.3866,-215.398 52.5263,-210.039 47.1896,-205.509"/>
</g>
<!-- Node13 -->
<g id="node10" class="node"><title>Node13</title>
<g id="a_node10"><a xlink:href="classofx_oui_1_1_shape_editor_1_1_edit_event.html" target="_top" xlink:title="Event arguments for shape editing events. ">
<polygon fill="white" stroke="black" points="132.881,-84.5 132.881,-112.5 238.378,-112.5 238.378,-84.5 132.881,-84.5"/>
<text text-anchor="start" x="140.881" y="-100.5" font-family="Helvetica,sans-Serif" font-size="10.00">ofxOui::ShapeEditor</text>
<text text-anchor="middle" x="185.63" y="-90.5" font-family="Helvetica,sans-Serif" font-size="10.00">::EditEvent</text>
</a>
</g>
</g>
<!-- Node4&#45;&gt;Node13 -->
<g id="edge9" class="edge"><title>Node4&#45;&gt;Node13</title>
<path fill="none" stroke="midnightblue" d="M44.2205,-206.053C55.0557,-183.154 76.5544,-144.445 106.473,-122.5 114.256,-116.791 123.418,-112.422 132.679,-109.083"/>
<polygon fill="midnightblue" stroke="midnightblue" points="40.9489,-204.793 40.0007,-215.345 47.3225,-207.687 40.9489,-204.793"/>
</g>
<!-- Node14 -->
<g id="node11" class="node"><title>Node14</title>
<g id="a_node11"><a xlink:href="classofx_oui_1_1_text_input_1_1_text_input_event.html" target="_top" xlink:title="Event arguments for text editing events. ">
<polygon fill="white" stroke="black" points="137.332,-37.5 137.332,-65.5 233.928,-65.5 233.928,-37.5 137.332,-37.5"/>
<text text-anchor="start" x="145.332" y="-53.5" font-family="Helvetica,sans-Serif" font-size="10.00">ofxOui::TextInput::</text>
<text text-anchor="middle" x="185.63" y="-43.5" font-family="Helvetica,sans-Serif" font-size="10.00">TextInputEvent</text>
</a>
</g>
</g>
<!-- Node4&#45;&gt;Node14 -->
<g id="edge10" class="edge"><title>Node4&#45;&gt;Node14</title>
<path fill="none" stroke="midnightblue" d="M40.0861,-205.058C47.3848,-173.303 66.2464,-110.365 106.473,-75.5 115.161,-67.9698 126.176,-62.8021 137.175,-59.2557"/>
<polygon fill="midnightblue" stroke="midnightblue" points="36.5781,-204.724 37.9021,-215.236 43.4223,-206.193 36.5781,-204.724"/>
</g>
<!-- Node15 -->
<g id="node12" class="node"><title>Node15</title>
<g id="a_node12"><a xlink:href="classofx_oui_1_1_waveform_1_1_edit_event.html" target="_top" xlink:title="Event arguments when a frame is edited. ">
<polygon fill="white" stroke="black" points="113.624,-0.5 113.624,-18.5 257.636,-18.5 257.636,-0.5 113.624,-0.5"/>
<text text-anchor="middle" x="185.63" y="-6.5" font-family="Helvetica,sans-Serif" font-size="10.00">ofxOui::Waveform::EditEvent</text>
</a>
</g>
</g>
<!-- Node4&#45;&gt;Node15 -->
<g id="edge11" class="edge"><title>Node4&#45;&gt;Node15</title>
<path fill="none" stroke="midnightblue" d="M37.2928,-205.413C40.5322,-166.146 53.6419,-76.026 106.473,-28.5 111.041,-24.3908 116.347,-21.1328 122.003,-18.5549"/>
<polygon fill="midnightblue" stroke="midnightblue" points="33.7961,-205.246 36.5933,-215.464 40.7792,-205.732 33.7961,-205.246"/>
</g>
</g>
</svg>
