<?xml version="1.0" encoding="UTF-8" standalone="no"?>
<!DOCTYPE svg PUBLIC "-//W3C//DTD SVG 1.1//EN"
 "http://www.w3.org/Graphics/SVG/1.1/DTD/svg11.dtd">
<!-- Generated by graphviz version 2.38.0 (20140413.2041)
 -->
<!-- Title: Graphical Class Hierarchy Pages: 1 -->
<svg width="405pt" height="286pt"
 viewBox="0.00 0.00 405.37 286.00" xmlns="http://www.w3.org/2000/svg" xmlns:xlink="http://www.w3.org/1999/xlink">
<g id="graph0" class="graph" transform="scale(1 1) rotate(0) translate(4 282)">
<title>Graphical Class Hierarchy</title>
<polygon fill="white" stroke="none" points="-4,4 -4,-282 401.368,-282 401.368,4 -4,4"/>
<!-- Node0 -->
<g id="node1" class="node"><title>Node0</title>
<g id="a_node1"><a xlink:href="classofx_oui_1_1_component.html" target="_top" xlink:title="Base UI Component (equivalent to a label) ">
<polygon fill="white" stroke="black" points="0,-129.5 0,-147.5 102.157,-147.5 102.157,-129.5 0,-129.5"/>
<text text-anchor="middle" x="51.0786" y="-135.5" font-family="Helvetica,sans-Serif" font-size="10.00">ofxOui::Component</text>
</a>
</g>
</g>
<!-- Node1 -->
<g id="node2" class="node"><title>Node1</title>
<g id="a_node2"><a xlink:href="classofx_oui_1_1_bpf.html" target="_top" xlink:title="Breakpoint function component. ">
<polygon fill="white" stroke="black" points="154.273,-259.5 154.273,-277.5 219.741,-277.5 219.741,-259.5 154.273,-259.5"/>
<text text-anchor="middle" x="187.007" y="-265.5" font-family="Helvetica,sans-Serif" font-size="10.00">ofxOui::Bpf</text>
</a>
</g>
</g>
<!-- Node0&#45;&gt;Node1 -->
<g id="edge1" class="edge"><title>Node0&#45;&gt;Node1</title>
<path fill="none" stroke="midnightblue" d="M61.727,-156.673C75.589,-181.178 103.347,-224.709 138.157,-250.5 143.007,-254.093 148.656,-257.047 154.338,-259.449"/>
<polygon fill="midnightblue" stroke="midnightblue" points="64.6916,-154.801 56.8066,-147.724 58.5577,-158.173 64.6916,-154.801"/>
</g>
<!-- Node2 -->
<g id="node3" class="node"><title>Node2</title>
<g id="a_node3"><a xlink:href="classofx_oui_1_1_button.html" target="_top" xlink:title="Button component (allows both button and toggle modes) ">
<polygon fill="white" stroke="black" points="147.322,-222.5 147.322,-240.5 226.691,-240.5 226.691,-222.5 147.322,-222.5"/>
<text text-anchor="middle" x="187.007" y="-228.5" font-family="Helvetica,sans-Serif" font-size="10.00">ofxOui::Button</text>
</a>
</g>
</g>
<!-- Node0&#45;&gt;Node2 -->
<g id="edge2" class="edge"><title>Node0&#45;&gt;Node2</title>
<path fill="none" stroke="midnightblue" d="M67.3531,-154.887C83.5871,-171.516 110.662,-197.083 138.157,-213.5 143.949,-216.958 150.519,-219.949 156.895,-222.446"/>
<polygon fill="midnightblue" stroke="midnightblue" points="69.744,-152.323 60.3001,-147.52 64.6879,-157.164 69.744,-152.323"/>
</g>
<!-- Node5 -->
<g id="node6" class="node"><title>Node5</title>
<g id="a_node6"><a xlink:href="classofx_oui_1_1_drop_down.html" target="_top" xlink:title="Drop&#45;down menu. ">
<polygon fill="white" stroke="black" points="138.157,-185.5 138.157,-203.5 235.856,-203.5 235.856,-185.5 138.157,-185.5"/>
<text text-anchor="middle" x="187.007" y="-191.5" font-family="Helvetica,sans-Serif" font-size="10.00">ofxOui::DropDown</text>
</a>
</g>
</g>
<!-- Node0&#45;&gt;Node5 -->
<g id="edge5" class="edge"><title>Node0&#45;&gt;Node5</title>
<path fill="none" stroke="midnightblue" d="M80.9673,-151.736C97.5955,-159.233 118.942,-168.652 138.157,-176.5 145.552,-179.52 153.662,-182.642 161.069,-185.42"/>
<polygon fill="midnightblue" stroke="midnightblue" points="82.327,-148.509 71.7739,-147.57 79.438,-154.886 82.327,-148.509"/>
</g>
<!-- Node6 -->
<g id="node7" class="node"><title>Node6</title>
<g id="a_node7"><a xlink:href="classofx_oui_1_1_matrix.html" target="_top" xlink:title="Button Matrix (supports both button &#45;single&#45;button activation&#45; and toggle &#45;multi&#45;button activation&#45;) ...">
<polygon fill="white" stroke="black" points="148.167,-148.5 148.167,-166.5 225.847,-166.5 225.847,-148.5 148.167,-148.5"/>
<text text-anchor="middle" x="187.007" y="-154.5" font-family="Helvetica,sans-Serif" font-size="10.00">ofxOui::Matrix</text>
</a>
</g>
</g>
<!-- Node0&#45;&gt;Node6 -->
<g id="edge6" class="edge"><title>Node0&#45;&gt;Node6</title>
<path fill="none" stroke="midnightblue" d="M112.406,-147.058C124.525,-148.778 136.938,-150.539 148.034,-152.113"/>
<polygon fill="midnightblue" stroke="midnightblue" points="112.722,-143.568 102.33,-145.629 111.739,-150.499 112.722,-143.568"/>
</g>
<!-- Node7 -->
<g id="node8" class="node"><title>Node7</title>
<g id="a_node8"><a xlink:href="classofx_oui_1_1_multi_slider.html" target="_top" xlink:title="MultiSlider. ">
<polygon fill="white" stroke="black" points="138.438,-111.5 138.438,-129.5 235.576,-129.5 235.576,-111.5 138.438,-111.5"/>
<text text-anchor="middle" x="187.007" y="-117.5" font-family="Helvetica,sans-Serif" font-size="10.00">ofxOui::MultiSlider</text>
</a>
</g>
</g>
<!-- Node0&#45;&gt;Node7 -->
<g id="edge7" class="edge"><title>Node0&#45;&gt;Node7</title>
<path fill="none" stroke="midnightblue" d="M112.363,-130.398C120.998,-129.237 129.783,-128.056 138.136,-126.934"/>
<polygon fill="midnightblue" stroke="midnightblue" points="111.774,-126.945 102.33,-131.746 112.707,-133.883 111.774,-126.945"/>
</g>
<!-- Node8 -->
<g id="node9" class="node"><title>Node8</title>
<g id="a_node9"><a xlink:href="classofx_oui_1_1_numbox.html" target="_top" xlink:title="Number box (with mouse + keyboard interaction, C74 max style) ">
<polygon fill="white" stroke="black" points="143.16,-74.5 143.16,-92.5 230.854,-92.5 230.854,-74.5 143.16,-74.5"/>
<text text-anchor="middle" x="187.007" y="-80.5" font-family="Helvetica,sans-Serif" font-size="10.00">ofxOui::Numbox</text>
</a>
</g>
</g>
<!-- Node0&#45;&gt;Node8 -->
<g id="edge8" class="edge"><title>Node0&#45;&gt;Node8</title>
<path fill="none" stroke="midnightblue" d="M83.2066,-125.322C99.5385,-118.448 119.897,-109.943 138.157,-102.5 146.269,-99.1937 155.182,-95.6344 163.094,-92.5004"/>
<polygon fill="midnightblue" stroke="midnightblue" points="81.4675,-122.256 73.6128,-129.367 84.1871,-128.707 81.4675,-122.256"/>
</g>
<!-- Node10 -->
<g id="node11" class="node"><title>Node10</title>
<g id="a_node11"><a xlink:href="classofx_oui_1_1_text_input.html" target="_top" xlink:title="Text input component (single&#45;line) ">
<polygon fill="white" stroke="black" points="141.487,-37.5 141.487,-55.5 232.526,-55.5 232.526,-37.5 141.487,-37.5"/>
<text text-anchor="middle" x="187.007" y="-43.5" font-family="Helvetica,sans-Serif" font-size="10.00">ofxOui::TextInput</text>
</a>
</g>
</g>
<!-- Node0&#45;&gt;Node10 -->
<g id="edge10" class="edge"><title>Node0&#45;&gt;Node10</title>
<path fill="none" stroke="midnightblue" d="M68.0227,-122.163C84.4257,-106.071 111.304,-81.6213 138.157,-65.5 144.441,-61.7275 151.609,-58.4224 158.449,-55.6722"/>
<polygon fill="midnightblue" stroke="midnightblue" points="65.4603,-119.776 60.8578,-129.318 70.4068,-124.729 65.4603,-119.776"/>
</g>
<!-- Node11 -->
<g id="node12" class="node"><title>Node11</title>
<g id="a_node12"><a xlink:href="classofx_oui_1_1_waveform.html" target="_top" xlink:title="Breakpoint function component. ">
<polygon fill="white" stroke="black" points="139.18,-0.5 139.18,-18.5 234.833,-18.5 234.833,-0.5 139.18,-0.5"/>
<text text-anchor="middle" x="187.007" y="-6.5" font-family="Helvetica,sans-Serif" font-size="10.00">ofxOui::Waveform</text>
</a>
</g>
</g>
<!-- Node0&#45;&gt;Node11 -->
<g id="edge11" class="edge"><title>Node0&#45;&gt;Node11</title>
<path fill="none" stroke="midnightblue" d="M61.8741,-120.748C75.9054,-96.7914 103.857,-54.1653 138.157,-28.5 143.525,-24.4838 149.854,-21.19 156.121,-18.5401"/>
<polygon fill="midnightblue" stroke="midnightblue" points="58.8002,-119.073 56.887,-129.493 64.8811,-122.54 58.8002,-119.073"/>
</g>
<!-- Node3 -->
<g id="node4" class="node"><title>Node3</title>
<g id="a_node4"><a xlink:href="classofx_oui_1_1_check_box.html" target="_top" xlink:title="Check box component (specialization of button) ">
<polygon fill="white" stroke="black" points="286.595,-240.5 286.595,-258.5 382.629,-258.5 382.629,-240.5 286.595,-240.5"/>
<text text-anchor="middle" x="334.612" y="-246.5" font-family="Helvetica,sans-Serif" font-size="10.00">ofxOui::CheckBox</text>
</a>
</g>
</g>
<!-- Node2&#45;&gt;Node3 -->
<g id="edge3" class="edge"><title>Node2&#45;&gt;Node3</title>
<path fill="none" stroke="midnightblue" d="M237.197,-237.581C253.1,-239.547 270.688,-241.721 286.441,-243.669"/>
<polygon fill="midnightblue" stroke="midnightblue" points="237.38,-234.077 227.026,-236.324 236.521,-241.024 237.38,-234.077"/>
</g>
<!-- Node4 -->
<g id="node5" class="node"><title>Node4</title>
<g id="a_node5"><a xlink:href="classofx_oui_1_1_draggable_button.html" target="_top" xlink:title="Draggable Button (specialization of button) ">
<polygon fill="white" stroke="black" points="271.856,-203.5 271.856,-221.5 397.368,-221.5 397.368,-203.5 271.856,-203.5"/>
<text text-anchor="middle" x="334.612" y="-209.5" font-family="Helvetica,sans-Serif" font-size="10.00">ofxOui::DraggableButton</text>
</a>
</g>
</g>
<!-- Node2&#45;&gt;Node4 -->
<g id="edge4" class="edge"><title>Node2&#45;&gt;Node4</title>
<path fill="none" stroke="midnightblue" d="M236.986,-225.109C248.124,-223.655 260.098,-222.093 271.696,-220.579"/>
<polygon fill="midnightblue" stroke="midnightblue" points="236.489,-221.644 227.026,-226.408 237.395,-228.585 236.489,-221.644"/>
</g>
<!-- Node9 -->
<g id="node10" class="node"><title>Node9</title>
<g id="a_node10"><a xlink:href="classofx_oui_1_1_slider.html" target="_top" xlink:title="Slider controller. ">
<polygon fill="white" stroke="black" points="296.6,-74.5 296.6,-92.5 372.625,-92.5 372.625,-74.5 296.6,-74.5"/>
<text text-anchor="middle" x="334.612" y="-80.5" font-family="Helvetica,sans-Serif" font-size="10.00">ofxOui::Slider</text>
</a>
</g>
</g>
<!-- Node8&#45;&gt;Node9 -->
<g id="edge9" class="edge"><title>Node8&#45;&gt;Node9</title>
<path fill="none" stroke="midnightblue" d="M240.913,-83.5C259.327,-83.5 279.58,-83.5 296.446,-83.5"/>
<polygon fill="midnightblue" stroke="midnightblue" points="240.906,-80.0001 230.906,-83.5 240.906,-87.0001 240.906,-80.0001"/>
</g>
</g>
</svg>
