<?xml version="1.0" encoding="UTF-8" standalone="no"?>
<!DOCTYPE svg PUBLIC "-//W3C//DTD SVG 1.1//EN"
 "http://www.w3.org/Graphics/SVG/1.1/DTD/svg11.dtd">
<!-- Generated by graphviz version 2.38.0 (20140413.2041)
 -->
<!-- Title: Graphical Class Hierarchy Pages: 1 -->
<svg width="254pt" height="413pt"
 viewBox="0.00 0.00 254.43 413.00" xmlns="http://www.w3.org/2000/svg" xmlns:xlink="http://www.w3.org/1999/xlink">
<g id="graph0" class="graph" transform="scale(1 1) rotate(0) translate(4 409)">
<title>Graphical Class Hierarchy</title>
<polygon fill="white" stroke="none" points="-4,4 -4,-409 250.433,-409 250.433,4 -4,4"/>
<!-- Node1 -->
<g id="node1" class="node"><title>Node1</title>
<polygon fill="white" stroke="#bfbfbf" points="0,-193.5 0,-211.5 70.4727,-211.5 70.4727,-193.5 0,-193.5"/>
<text text-anchor="middle" x="35.2363" y="-199.5" font-family="Helvetica,sans-Serif" font-size="10.00">ofEventArgs</text>
</g>
<!-- Node2 -->
<g id="node2" class="node"><title>Node2</title>
<g id="a_node2"><a xlink:href="classofx_cui_cui_1_1_bpf_1_1_edit_point_event.html" target="_top" xlink:title="Event arguments when a point is edited. ">
<polygon fill="white" stroke="black" points="113.704,-376.5 113.704,-404.5 239.201,-404.5 239.201,-376.5 113.704,-376.5"/>
<text text-anchor="start" x="121.704" y="-392.5" font-family="Helvetica,sans-Serif" font-size="10.00">ofxCuiCui::Bpf::EditPoint</text>
<text text-anchor="middle" x="176.453" y="-382.5" font-family="Helvetica,sans-Serif" font-size="10.00">Event</text>
</a>
</g>
</g>
<!-- Node1&#45;&gt;Node2 -->
<g id="edge1" class="edge"><title>Node1&#45;&gt;Node2</title>
<path fill="none" stroke="midnightblue" d="M39.2069,-221.981C45.4446,-256.253 63.0922,-327.482 106.473,-367.5 110.184,-370.924 114.42,-373.839 118.925,-376.321"/>
<polygon fill="midnightblue" stroke="midnightblue" points="42.6173,-221.155 37.5082,-211.874 35.7141,-222.316 42.6173,-221.155"/>
</g>
<!-- Node3 -->
<g id="node3" class="node"><title>Node3</title>
<g id="a_node3"><a xlink:href="classofx_cui_cui_1_1_button_1_1_click_event.html" target="_top" xlink:title="Event arguments for button clicks. ">
<polygon fill="white" stroke="black" points="126.766,-329.5 126.766,-357.5 226.14,-357.5 226.14,-329.5 126.766,-329.5"/>
<text text-anchor="start" x="134.766" y="-345.5" font-family="Helvetica,sans-Serif" font-size="10.00">ofxCuiCui::Button::</text>
<text text-anchor="middle" x="176.453" y="-335.5" font-family="Helvetica,sans-Serif" font-size="10.00">ClickEvent</text>
</a>
</g>
</g>
<!-- Node1&#45;&gt;Node3 -->
<g id="edge2" class="edge"><title>Node1&#45;&gt;Node3</title>
<path fill="none" stroke="midnightblue" d="M42.5499,-221.094C52.2752,-247.015 73.3411,-293.824 106.473,-320.5 112.372,-325.25 119.296,-329.037 126.439,-332.051"/>
<polygon fill="midnightblue" stroke="midnightblue" points="45.8432,-219.909 39.174,-211.676 39.2538,-222.271 45.8432,-219.909"/>
</g>
<!-- Node4 -->
<g id="node4" class="node"><title>Node4</title>
<g id="a_node4"><a xlink:href="classofx_cui_cui_1_1_draggable_button_1_1_drop_event.html" target="_top" xlink:title="Event arguments for Drag and Drop events. ">
<polygon fill="white" stroke="black" points="106.473,-282.5 106.473,-310.5 246.433,-310.5 246.433,-282.5 106.473,-282.5"/>
<text text-anchor="start" x="114.473" y="-298.5" font-family="Helvetica,sans-Serif" font-size="10.00">ofxCuiCui::DraggableButton</text>
<text text-anchor="middle" x="176.453" y="-288.5" font-family="Helvetica,sans-Serif" font-size="10.00">::DropEvent</text>
</a>
</g>
</g>
<!-- Node1&#45;&gt;Node4 -->
<g id="edge3" class="edge"><title>Node1&#45;&gt;Node4</title>
<path fill="none" stroke="midnightblue" d="M49.268,-219.712C62.1933,-235.697 83.3651,-259.131 106.473,-273.5 111.94,-276.9 117.967,-279.858 124.113,-282.415"/>
<polygon fill="midnightblue" stroke="midnightblue" points="51.9059,-217.404 42.9758,-211.703 46.4014,-221.728 51.9059,-217.404"/>
</g>
<!-- Node5 -->
<g id="node5" class="node"><title>Node5</title>
<g id="a_node5"><a xlink:href="classofx_cui_cui_1_1_drop_down_1_1_select_event.html" target="_top" xlink:title="Event arguments for menu item selection. ">
<polygon fill="white" stroke="black" points="120.379,-235.5 120.379,-263.5 232.526,-263.5 232.526,-235.5 120.379,-235.5"/>
<text text-anchor="start" x="128.379" y="-251.5" font-family="Helvetica,sans-Serif" font-size="10.00">ofxCuiCui::DropDown</text>
<text text-anchor="middle" x="176.453" y="-241.5" font-family="Helvetica,sans-Serif" font-size="10.00">::SelectEvent</text>
</a>
</g>
</g>
<!-- Node1&#45;&gt;Node5 -->
<g id="edge4" class="edge"><title>Node1&#45;&gt;Node5</title>
<path fill="none" stroke="midnightblue" d="M72.2714,-214.871C83.2467,-218.623 95.3489,-222.745 106.473,-226.5 115.084,-229.407 124.308,-232.498 133.119,-235.44"/>
<polygon fill="midnightblue" stroke="midnightblue" points="73.1639,-211.477 62.5693,-211.55 70.897,-218.1 73.1639,-211.477"/>
</g>
<!-- Node6 -->
<g id="node6" class="node"><title>Node6</title>
<g id="a_node6"><a xlink:href="classofx_cui_cui_1_1_matrix_1_1_click_event.html" target="_top" xlink:title="Event arguments for button clicks. ">
<polygon fill="white" stroke="black" points="127.61,-188.5 127.61,-216.5 225.295,-216.5 225.295,-188.5 127.61,-188.5"/>
<text text-anchor="start" x="135.61" y="-204.5" font-family="Helvetica,sans-Serif" font-size="10.00">ofxCuiCui::Matrix::</text>
<text text-anchor="middle" x="176.453" y="-194.5" font-family="Helvetica,sans-Serif" font-size="10.00">ClickEvent</text>
</a>
</g>
</g>
<!-- Node1&#45;&gt;Node6 -->
<g id="edge5" class="edge"><title>Node1&#45;&gt;Node6</title>
<path fill="none" stroke="midnightblue" d="M80.6638,-202.5C95.6006,-202.5 112.325,-202.5 127.519,-202.5"/>
<polygon fill="midnightblue" stroke="midnightblue" points="80.6494,-199 70.6494,-202.5 80.6493,-206 80.6494,-199"/>
</g>
<!-- Node7 -->
<g id="node7" class="node"><title>Node7</title>
<g id="a_node7"><a xlink:href="classofx_cui_cui_1_1_multi_slider_1_1_value_event.html" target="_top" xlink:title="Event arguments for slider editing events. ">
<polygon fill="white" stroke="black" points="120.66,-141.5 120.66,-169.5 232.246,-169.5 232.246,-141.5 120.66,-141.5"/>
<text text-anchor="start" x="128.66" y="-157.5" font-family="Helvetica,sans-Serif" font-size="10.00">ofxCuiCui::MultiSlider</text>
<text text-anchor="middle" x="176.453" y="-147.5" font-family="Helvetica,sans-Serif" font-size="10.00">::ValueEvent</text>
</a>
</g>
</g>
<!-- Node1&#45;&gt;Node7 -->
<g id="edge6" class="edge"><title>Node1&#45;&gt;Node7</title>
<path fill="none" stroke="midnightblue" d="M72.7455,-190.174C91.509,-183.84 114.455,-176.093 133.895,-169.53"/>
<polygon fill="midnightblue" stroke="midnightblue" points="71.4337,-186.923 63.0786,-193.438 73.6728,-193.555 71.4337,-186.923"/>
</g>
<!-- Node8 -->
<g id="node8" class="node"><title>Node8</title>
<g id="a_node8"><a xlink:href="classofx_cui_cui_1_1_numbox_1_1_value_event.html" target="_top" xlink:title="Event arguments for value editing events. ">
<polygon fill="white" stroke="black" points="122.603,-94.5 122.603,-122.5 230.302,-122.5 230.302,-94.5 122.603,-94.5"/>
<text text-anchor="start" x="130.603" y="-110.5" font-family="Helvetica,sans-Serif" font-size="10.00">ofxCuiCui::Numbox::</text>
<text text-anchor="middle" x="176.453" y="-100.5" font-family="Helvetica,sans-Serif" font-size="10.00">ValueEvent</text>
</a>
</g>
</g>
<!-- Node1&#45;&gt;Node8 -->
<g id="edge7" class="edge"><title>Node1&#45;&gt;Node8</title>
<path fill="none" stroke="midnightblue" d="M49.3606,-185.606C62.3528,-169.901 83.5712,-146.835 106.473,-132.5 112.599,-128.665 119.417,-125.348 126.315,-122.509"/>
<polygon fill="midnightblue" stroke="midnightblue" points="46.5736,-183.487 43.0306,-193.472 52.0269,-187.876 46.5736,-183.487"/>
</g>
<!-- Node9 -->
<g id="node9" class="node"><title>Node9</title>
<g id="a_node9"><a xlink:href="classofx_cui_cui_1_1_shape_editor_1_1_edit_event.html" target="_top" xlink:title="Event arguments for shape editing events. ">
<polygon fill="white" stroke="black" points="116.48,-47.5 116.48,-75.5 236.425,-75.5 236.425,-47.5 116.48,-47.5"/>
<text text-anchor="start" x="124.48" y="-63.5" font-family="Helvetica,sans-Serif" font-size="10.00">ofxCuiCui::ShapeEditor</text>
<text text-anchor="middle" x="176.453" y="-53.5" font-family="Helvetica,sans-Serif" font-size="10.00">::EditEvent</text>
</a>
</g>
</g>
<!-- Node1&#45;&gt;Node9 -->
<g id="edge8" class="edge"><title>Node1&#45;&gt;Node9</title>
<path fill="none" stroke="midnightblue" d="M42.7726,-183.779C52.6638,-158.079 73.8168,-112.042 106.473,-85.5 111.294,-81.5812 116.797,-78.2833 122.544,-75.5122"/>
<polygon fill="midnightblue" stroke="midnightblue" points="39.3892,-182.839 39.2222,-193.432 45.959,-185.255 39.3892,-182.839"/>
</g>
<!-- Node10 -->
<g id="node10" class="node"><title>Node10</title>
<g id="a_node10"><a xlink:href="classofx_cui_cui_1_1_text_input_1_1_text_input_event.html" target="_top" xlink:title="Event arguments for text editing events. ">
<polygon fill="white" stroke="black" points="123.709,-0.5 123.709,-28.5 229.196,-28.5 229.196,-0.5 123.709,-0.5"/>
<text text-anchor="start" x="131.709" y="-16.5" font-family="Helvetica,sans-Serif" font-size="10.00">ofxCuiCui::TextInput</text>
<text text-anchor="middle" x="176.453" y="-6.5" font-family="Helvetica,sans-Serif" font-size="10.00">::TextInputEvent</text>
</a>
</g>
</g>
<!-- Node1&#45;&gt;Node10 -->
<g id="edge9" class="edge"><title>Node1&#45;&gt;Node10</title>
<path fill="none" stroke="midnightblue" d="M39.2954,-183.191C45.6719,-149.212 63.5302,-78.5446 106.473,-38.5 111.388,-33.9168 117.224,-30.2026 123.39,-27.194"/>
<polygon fill="midnightblue" stroke="midnightblue" points="35.8181,-182.759 37.5534,-193.211 42.7147,-183.958 35.8181,-182.759"/>
</g>
</g>
</svg>
