<?xml version="1.0" encoding="UTF-8" standalone="no"?>
<!DOCTYPE svg PUBLIC "-//W3C//DTD SVG 1.1//EN"
 "http://www.w3.org/Graphics/SVG/1.1/DTD/svg11.dtd">
<!-- Generated by graphviz version 2.38.0 (20140413.2041)
 -->
<!-- Title: ofxOui.hpp Pages: 1 -->
<svg width="1629pt" height="367pt"
 viewBox="0.00 0.00 1629.00 367.00" xmlns="http://www.w3.org/2000/svg" xmlns:xlink="http://www.w3.org/1999/xlink">
<g id="graph0" class="graph" transform="scale(1 1) rotate(0) translate(4 363)">
<title>ofxOui.hpp</title>
<polygon fill="white" stroke="none" points="-4,4 -4,-363 1625,-363 1625,4 -4,4"/>
<!-- Node0 -->
<g id="node1" class="node"><title>Node0</title>
<polygon fill="#bfbfbf" stroke="black" points="867.818,-340.5 867.818,-358.5 932.182,-358.5 932.182,-340.5 867.818,-340.5"/>
<text text-anchor="middle" x="900" y="-346.5" font-family="Helvetica,sans-Serif" font-size="10.00">ofxOui.hpp</text>
</g>
<!-- Node1 -->
<g id="node2" class="node"><title>Node1</title>
<g id="a_node2"><a xlink:href="ofx_oui_bpf_8hpp.html" target="_top" xlink:title="components/ofxOuiBpf.hpp">
<polygon fill="white" stroke="black" points="1079.69,-220.5 1079.69,-238.5 1216.31,-238.5 1216.31,-220.5 1079.69,-220.5"/>
<text text-anchor="middle" x="1148" y="-226.5" font-family="Helvetica,sans-Serif" font-size="10.00">components/ofxOuiBpf.hpp</text>
</a>
</g>
</g>
<!-- Node0&#45;&gt;Node1 -->
<g id="edge1" class="edge"><title>Node0&#45;&gt;Node1</title>
<path fill="none" stroke="midnightblue" d="M932.446,-347.41C1024.78,-343.976 1283.96,-331.913 1309,-304 1339.73,-269.748 1279.41,-250.417 1224.05,-240.272"/>
<polygon fill="midnightblue" stroke="midnightblue" points="1224.6,-236.816 1214.15,-238.543 1223.4,-243.712 1224.6,-236.816"/>
</g>
<!-- Node2 -->
<g id="node3" class="node"><title>Node2</title>
<g id="a_node3"><a xlink:href="ofx_oui_component_8hpp.html" target="_top" xlink:title="ofxOuiComponent.hpp">
<polygon fill="white" stroke="black" points="742.968,-165.5 742.968,-183.5 859.032,-183.5 859.032,-165.5 742.968,-165.5"/>
<text text-anchor="middle" x="801" y="-171.5" font-family="Helvetica,sans-Serif" font-size="10.00">ofxOuiComponent.hpp</text>
</a>
</g>
</g>
<!-- Node0&#45;&gt;Node2 -->
<g id="edge41" class="edge"><title>Node0&#45;&gt;Node2</title>
<path fill="none" stroke="midnightblue" d="M867.565,-347.177C779.042,-343.235 538.333,-330.185 515,-304 489.757,-275.671 544.827,-222.83 549,-220 578.273,-200.147 668.625,-187.774 732.748,-181.258"/>
<polygon fill="midnightblue" stroke="midnightblue" points="733.195,-184.731 742.801,-180.262 732.505,-177.765 733.195,-184.731"/>
</g>
<!-- Node3 -->
<g id="node4" class="node"><title>Node3</title>
<g id="a_node4"><a xlink:href="ofx_oui_icon_8hpp.html" target="_top" xlink:title="ofxOuiIcon.hpp">
<polygon fill="white" stroke="black" points="704.367,-110.5 704.367,-128.5 787.633,-128.5 787.633,-110.5 704.367,-110.5"/>
<text text-anchor="middle" x="746" y="-116.5" font-family="Helvetica,sans-Serif" font-size="10.00">ofxOuiIcon.hpp</text>
</a>
</g>
</g>
<!-- Node0&#45;&gt;Node3 -->
<g id="edge43" class="edge"><title>Node0&#45;&gt;Node3</title>
<path fill="none" stroke="midnightblue" d="M867.78,-347.992C718.575,-345.484 100.816,-333.353 73,-304 38.9368,-268.055 109.385,-227.112 122,-220 220.158,-164.659 562.621,-134.062 694.074,-124.135"/>
<polygon fill="midnightblue" stroke="midnightblue" points="694.569,-127.608 704.281,-123.374 694.048,-120.627 694.569,-127.608"/>
</g>
<!-- Node4 -->
<g id="node5" class="node"><title>Node4</title>
<g id="a_node5"><a xlink:href="ofx_oui_common_8hpp.html" target="_top" xlink:title="ofxOuiCommon.hpp">
<polygon fill="white" stroke="black" points="859.535,-55.5 859.535,-73.5 964.465,-73.5 964.465,-55.5 859.535,-55.5"/>
<text text-anchor="middle" x="912" y="-61.5" font-family="Helvetica,sans-Serif" font-size="10.00">ofxOuiCommon.hpp</text>
</a>
</g>
</g>
<!-- Node0&#45;&gt;Node4 -->
<g id="edge40" class="edge"><title>Node0&#45;&gt;Node4</title>
<path fill="none" stroke="midnightblue" d="M867.812,-348.326C722.672,-347.336 133.011,-341.046 60,-304 22.3949,-284.919 0,-272.669 0,-230.5 0,-230.5 0,-230.5 0,-173.5 0,-87.803 643.241,-69.8739 849.302,-66.329"/>
<polygon fill="midnightblue" stroke="midnightblue" points="849.418,-69.8276 859.359,-66.1615 849.302,-62.8286 849.418,-69.8276"/>
</g>
<!-- Node6 -->
<g id="node7" class="node"><title>Node6</title>
<g id="a_node7"><a xlink:href="ofx_oui_style_8hpp.html" target="_top" xlink:title="ofxOuiStyle.hpp">
<polygon fill="white" stroke="black" points="923.702,-110.5 923.702,-128.5 1010.3,-128.5 1010.3,-110.5 923.702,-110.5"/>
<text text-anchor="middle" x="967" y="-116.5" font-family="Helvetica,sans-Serif" font-size="10.00">ofxOuiStyle.hpp</text>
</a>
</g>
</g>
<!-- Node0&#45;&gt;Node6 -->
<g id="edge44" class="edge"><title>Node0&#45;&gt;Node6</title>
<path fill="none" stroke="midnightblue" d="M932.485,-348.095C1022.4,-346.53 1272.74,-339.057 1346,-304 1382.57,-286.501 1394.63,-276.516 1410,-239 1440.6,-164.298 1144.71,-133.586 1020.41,-124.048"/>
<polygon fill="midnightblue" stroke="midnightblue" points="1020.58,-120.55 1010.34,-123.293 1020.05,-127.531 1020.58,-120.55"/>
</g>
<!-- Node7 -->
<g id="node8" class="node"><title>Node7</title>
<g id="a_node8"><a xlink:href="ofx_oui_text_box_8hpp.html" target="_top" xlink:title="ofxOuiTextBox.hpp">
<polygon fill="white" stroke="black" points="806.032,-110.5 806.032,-128.5 905.968,-128.5 905.968,-110.5 806.032,-110.5"/>
<text text-anchor="middle" x="856" y="-116.5" font-family="Helvetica,sans-Serif" font-size="10.00">ofxOuiTextBox.hpp</text>
</a>
</g>
</g>
<!-- Node0&#45;&gt;Node7 -->
<g id="edge45" class="edge"><title>Node0&#45;&gt;Node7</title>
<path fill="none" stroke="midnightblue" d="M867.661,-347.94C720.726,-345.244 121.997,-332.531 95,-304 38.7582,-244.563 114.931,-246.263 190,-220 204.333,-214.986 634.266,-152.545 795.614,-129.216"/>
<polygon fill="midnightblue" stroke="midnightblue" points="796.45,-132.632 805.846,-127.737 795.449,-125.704 796.45,-132.632"/>
</g>
<!-- Node8 -->
<g id="node9" class="node"><title>Node8</title>
<g id="a_node9"><a xlink:href="ofx_oui_graph_8hpp.html" target="_top" xlink:title="ofxOuiGraph.hpp">
<polygon fill="white" stroke="black" points="1184.92,-165.5 1184.92,-183.5 1277.08,-183.5 1277.08,-165.5 1184.92,-165.5"/>
<text text-anchor="middle" x="1231" y="-171.5" font-family="Helvetica,sans-Serif" font-size="10.00">ofxOuiGraph.hpp</text>
</a>
</g>
</g>
<!-- Node0&#45;&gt;Node8 -->
<g id="edge42" class="edge"><title>Node0&#45;&gt;Node8</title>
<path fill="none" stroke="midnightblue" d="M932.485,-348.095C1022.4,-346.53 1272.74,-339.057 1346,-304 1382.57,-286.501 1394.63,-276.516 1410,-239 1413.2,-231.186 1415.2,-226.653 1410,-220 1394.93,-200.728 1334.09,-188.609 1287.48,-181.969"/>
<polygon fill="midnightblue" stroke="midnightblue" points="1287.85,-178.488 1277.47,-180.596 1286.9,-185.423 1287.85,-178.488"/>
</g>
<!-- Node9 -->
<g id="node10" class="node"><title>Node9</title>
<g id="a_node10"><a xlink:href="ofx_oui_button_8hpp.html" target="_top" xlink:title="components/ofxOuiButton.hpp">
<polygon fill="white" stroke="black" points="557.734,-220.5 557.734,-238.5 708.266,-238.5 708.266,-220.5 557.734,-220.5"/>
<text text-anchor="middle" x="633" y="-226.5" font-family="Helvetica,sans-Serif" font-size="10.00">components/ofxOuiButton.hpp</text>
</a>
</g>
</g>
<!-- Node0&#45;&gt;Node9 -->
<g id="edge13" class="edge"><title>Node0&#45;&gt;Node9</title>
<path fill="none" stroke="midnightblue" d="M867.687,-345.139C830.202,-340.229 767.367,-328.821 719,-304 703.728,-296.163 669.217,-264.761 648.86,-245.629"/>
<polygon fill="midnightblue" stroke="midnightblue" points="651.249,-243.071 641.579,-238.742 646.439,-248.156 651.249,-243.071"/>
</g>
<!-- Node10 -->
<g id="node11" class="node"><title>Node10</title>
<g id="a_node11"><a xlink:href="ofx_oui_check_box_8hpp.html" target="_top" xlink:title="components/ofxOuiCheckBox.hpp">
<polygon fill="white" stroke="black" points="728.402,-280.5 728.402,-298.5 895.598,-298.5 895.598,-280.5 728.402,-280.5"/>
<text text-anchor="middle" x="812" y="-286.5" font-family="Helvetica,sans-Serif" font-size="10.00">components/ofxOuiCheckBox.hpp</text>
</a>
</g>
</g>
<!-- Node0&#45;&gt;Node10 -->
<g id="edge15" class="edge"><title>Node0&#45;&gt;Node10</title>
<path fill="none" stroke="midnightblue" d="M887.764,-340.435C873.658,-331.138 850.226,-315.694 833.149,-304.439"/>
<polygon fill="midnightblue" stroke="midnightblue" points="834.692,-301.264 824.416,-298.683 830.839,-307.109 834.692,-301.264"/>
</g>
<!-- Node11 -->
<g id="node12" class="node"><title>Node11</title>
<g id="a_node12"><a xlink:href="ofx_oui_draggable_button_8hpp.html" target="_top" xlink:title="components/ofxOuiDraggable\lButton.hpp">
<polygon fill="white" stroke="black" points="913.85,-275.5 913.85,-303.5 1062.15,-303.5 1062.15,-275.5 913.85,-275.5"/>
<text text-anchor="start" x="921.85" y="-291.5" font-family="Helvetica,sans-Serif" font-size="10.00">components/ofxOuiDraggable</text>
<text text-anchor="middle" x="988" y="-281.5" font-family="Helvetica,sans-Serif" font-size="10.00">Button.hpp</text>
</a>
</g>
</g>
<!-- Node0&#45;&gt;Node11 -->
<g id="edge17" class="edge"><title>Node0&#45;&gt;Node11</title>
<path fill="none" stroke="midnightblue" d="M912.236,-340.435C924.429,-332.399 943.591,-319.769 959.593,-309.223"/>
<polygon fill="midnightblue" stroke="midnightblue" points="961.67,-312.046 968.093,-303.62 957.818,-306.201 961.67,-312.046"/>
</g>
<!-- Node12 -->
<g id="node13" class="node"><title>Node12</title>
<g id="a_node13"><a xlink:href="ofx_oui_drop_down_8hpp.html" target="_top" xlink:title="components/ofxOuiDropDown.hpp">
<polygon fill="white" stroke="black" points="1080.57,-280.5 1080.57,-298.5 1249.43,-298.5 1249.43,-280.5 1080.57,-280.5"/>
<text text-anchor="middle" x="1165" y="-286.5" font-family="Helvetica,sans-Serif" font-size="10.00">components/ofxOuiDropDown.hpp</text>
</a>
</g>
</g>
<!-- Node0&#45;&gt;Node12 -->
<g id="edge19" class="edge"><title>Node0&#45;&gt;Node12</title>
<path fill="none" stroke="midnightblue" d="M932.229,-341.446C978.75,-331.264 1064.98,-312.39 1118.43,-300.694"/>
<polygon fill="midnightblue" stroke="midnightblue" points="1119.31,-304.083 1128.33,-298.526 1117.81,-297.245 1119.31,-304.083"/>
</g>
<!-- Node13 -->
<g id="node14" class="node"><title>Node13</title>
<g id="a_node14"><a xlink:href="ofx_oui_group_8hpp.html" target="_top" xlink:title="components/ofxOuiGroup.hpp">
<polygon fill="white" stroke="black" points="726.293,-220.5 726.293,-238.5 875.707,-238.5 875.707,-220.5 726.293,-220.5"/>
<text text-anchor="middle" x="801" y="-226.5" font-family="Helvetica,sans-Serif" font-size="10.00">components/ofxOuiGroup.hpp</text>
</a>
</g>
</g>
<!-- Node0&#45;&gt;Node13 -->
<g id="edge21" class="edge"><title>Node0&#45;&gt;Node13</title>
<path fill="none" stroke="midnightblue" d="M932.272,-346.887C1016.25,-342.36 1236.57,-328.262 1258,-304 1266.53,-294.34 1266.66,-284.542 1258,-275 1231.48,-245.802 957.686,-243.293 886.102,-238.877"/>
<polygon fill="midnightblue" stroke="midnightblue" points="886.341,-235.385 876.104,-238.117 885.81,-242.365 886.341,-235.385"/>
</g>
<!-- Node14 -->
<g id="node15" class="node"><title>Node14</title>
<g id="a_node15"><a xlink:href="ofx_oui_matrix_8hpp.html" target="_top" xlink:title="components/ofxOuiMatrix.hpp">
<polygon fill="white" stroke="black" points="523.579,-280.5 523.579,-298.5 672.421,-298.5 672.421,-280.5 523.579,-280.5"/>
<text text-anchor="middle" x="598" y="-286.5" font-family="Helvetica,sans-Serif" font-size="10.00">components/ofxOuiMatrix.hpp</text>
</a>
</g>
</g>
<!-- Node0&#45;&gt;Node14 -->
<g id="edge23" class="edge"><title>Node0&#45;&gt;Node14</title>
<path fill="none" stroke="midnightblue" d="M867.681,-342.293C815.502,-332.272 712.248,-312.442 649.739,-300.437"/>
<polygon fill="midnightblue" stroke="midnightblue" points="650.175,-296.957 639.695,-298.508 648.855,-303.831 650.175,-296.957"/>
</g>
<!-- Node15 -->
<g id="node16" class="node"><title>Node15</title>
<g id="a_node16"><a xlink:href="ofx_oui_multi_slider_8hpp.html" target="_top" xlink:title="components/ofxOuiMultiSlider.hpp">
<polygon fill="white" stroke="black" points="894.124,-220.5 894.124,-238.5 1061.88,-238.5 1061.88,-220.5 894.124,-220.5"/>
<text text-anchor="middle" x="978" y="-226.5" font-family="Helvetica,sans-Serif" font-size="10.00">components/ofxOuiMultiSlider.hpp</text>
</a>
</g>
</g>
<!-- Node0&#45;&gt;Node15 -->
<g id="edge25" class="edge"><title>Node0&#45;&gt;Node15</title>
<path fill="none" stroke="midnightblue" d="M932.295,-347.244C1021.66,-343.439 1267.23,-330.631 1291,-304 1299.58,-294.385 1299.45,-284.734 1291,-275 1283.47,-266.322 1151.84,-249.954 1061.7,-239.671"/>
<polygon fill="midnightblue" stroke="midnightblue" points="1062.08,-236.192 1051.75,-238.541 1061.29,-243.147 1062.08,-236.192"/>
</g>
<!-- Node16 -->
<g id="node17" class="node"><title>Node16</title>
<g id="a_node17"><a xlink:href="ofx_oui_numbox_8hpp.html" target="_top" xlink:title="components/ofxOuiNumbox.hpp">
<polygon fill="white" stroke="black" points="198.572,-220.5 198.572,-238.5 357.428,-238.5 357.428,-220.5 198.572,-220.5"/>
<text text-anchor="middle" x="278" y="-226.5" font-family="Helvetica,sans-Serif" font-size="10.00">components/ofxOuiNumbox.hpp</text>
</a>
</g>
</g>
<!-- Node0&#45;&gt;Node16 -->
<g id="edge27" class="edge"><title>Node0&#45;&gt;Node16</title>
<path fill="none" stroke="midnightblue" d="M867.807,-348.281C749.173,-347.185 341.014,-340.753 297,-304 281.218,-290.821 277.615,-266.411 277.208,-249.351"/>
<polygon fill="midnightblue" stroke="midnightblue" points="280.713,-248.982 277.327,-238.943 273.713,-248.903 280.713,-248.982"/>
</g>
<!-- Node17 -->
<g id="node18" class="node"><title>Node17</title>
<g id="a_node18"><a xlink:href="ofx_oui_shape_editor_8hpp.html" target="_top" xlink:title="components/ofxOuiShapeEditor.hpp">
<polygon fill="white" stroke="black" points="1416.94,-165.5 1416.94,-183.5 1593.06,-183.5 1593.06,-165.5 1416.94,-165.5"/>
<text text-anchor="middle" x="1505" y="-171.5" font-family="Helvetica,sans-Serif" font-size="10.00">components/ofxOuiShapeEditor.hpp</text>
</a>
</g>
</g>
<!-- Node0&#45;&gt;Node17 -->
<g id="edge29" class="edge"><title>Node0&#45;&gt;Node17</title>
<path fill="none" stroke="midnightblue" d="M932.379,-348.428C1027.14,-347.766 1302.25,-342.491 1382,-304 1434.47,-278.674 1476.41,-220.881 1494.84,-192.234"/>
<polygon fill="midnightblue" stroke="midnightblue" points="1497.83,-194.058 1500.17,-183.725 1491.9,-190.342 1497.83,-194.058"/>
</g>
<!-- Node18 -->
<g id="node19" class="node"><title>Node18</title>
<g id="a_node19"><a xlink:href="ofx_oui_slider_8hpp.html" target="_top" xlink:title="components/ofxOuiSlider.hpp">
<polygon fill="white" stroke="black" points="103.68,-280.5 103.68,-298.5 250.32,-298.5 250.32,-280.5 103.68,-280.5"/>
<text text-anchor="middle" x="177" y="-286.5" font-family="Helvetica,sans-Serif" font-size="10.00">components/ofxOuiSlider.hpp</text>
</a>
</g>
</g>
<!-- Node0&#45;&gt;Node18 -->
<g id="edge31" class="edge"><title>Node0&#45;&gt;Node18</title>
<path fill="none" stroke="midnightblue" d="M867.816,-347.206C774.317,-343.241 494.713,-329.925 264,-304 254.203,-302.899 243.82,-301.496 233.768,-300.013"/>
<polygon fill="midnightblue" stroke="midnightblue" points="234.272,-296.549 223.86,-298.511 233.223,-303.47 234.272,-296.549"/>
</g>
<!-- Node19 -->
<g id="node20" class="node"><title>Node19</title>
<g id="a_node20"><a xlink:href="ofx_oui_text_input_8hpp.html" target="_top" xlink:title="components/ofxOuiTextInput.hpp">
<polygon fill="white" stroke="black" points="305.899,-280.5 305.899,-298.5 468.101,-298.5 468.101,-280.5 305.899,-280.5"/>
<text text-anchor="middle" x="387" y="-286.5" font-family="Helvetica,sans-Serif" font-size="10.00">components/ofxOuiTextInput.hpp</text>
</a>
</g>
</g>
<!-- Node0&#45;&gt;Node19 -->
<g id="edge33" class="edge"><title>Node0&#45;&gt;Node19</title>
<path fill="none" stroke="midnightblue" d="M867.702,-345.451C797.46,-338.736 625.578,-321.839 482,-304 472.081,-302.768 461.593,-301.371 451.348,-299.956"/>
<polygon fill="midnightblue" stroke="midnightblue" points="451.602,-296.457 441.213,-298.539 450.632,-303.39 451.602,-296.457"/>
</g>
<!-- Node20 -->
<g id="node21" class="node"><title>Node20</title>
<g id="a_node21"><a xlink:href="ofx_oui_waveform_8hpp.html" target="_top" xlink:title="components/ofxOuiWaveform.hpp">
<polygon fill="white" stroke="black" points="1234.59,-220.5 1234.59,-238.5 1401.41,-238.5 1401.41,-220.5 1234.59,-220.5"/>
<text text-anchor="middle" x="1318" y="-226.5" font-family="Helvetica,sans-Serif" font-size="10.00">components/ofxOuiWaveform.hpp</text>
</a>
</g>
</g>
<!-- Node0&#45;&gt;Node20 -->
<g id="edge35" class="edge"><title>Node0&#45;&gt;Node20</title>
<path fill="none" stroke="midnightblue" d="M932.241,-347.582C1027.32,-344.548 1301.58,-333.305 1328,-304 1341.71,-288.791 1334.53,-264.121 1327.12,-247.61"/>
<polygon fill="midnightblue" stroke="midnightblue" points="1330.22,-245.972 1322.67,-238.541 1323.94,-249.059 1330.22,-245.972"/>
</g>
<!-- Node21 -->
<g id="node22" class="node"><title>Node21</title>
<g id="a_node22"><a xlink:href="ofx_oui_colormap_8hpp.html" target="_top" xlink:title="core/ofxOuiColormap.hpp">
<polygon fill="white" stroke="black" points="1408.03,-55.5 1408.03,-73.5 1537.97,-73.5 1537.97,-55.5 1408.03,-55.5"/>
<text text-anchor="middle" x="1473" y="-61.5" font-family="Helvetica,sans-Serif" font-size="10.00">core/ofxOuiColormap.hpp</text>
</a>
</g>
</g>
<!-- Node0&#45;&gt;Node21 -->
<g id="edge38" class="edge"><title>Node0&#45;&gt;Node21</title>
<path fill="none" stroke="midnightblue" d="M932.267,-348.638C1014.37,-348.364 1237.5,-343.707 1418,-304 1511.71,-283.384 1621,-326.454 1621,-230.5 1621,-230.5 1621,-230.5 1621,-173.5 1621,-120.714 1558.81,-90.9811 1515.06,-76.5945"/>
<polygon fill="midnightblue" stroke="midnightblue" points="1516.07,-73.2442 1505.48,-73.5903 1513.97,-79.9233 1516.07,-73.2442"/>
</g>
<!-- Node1&#45;&gt;Node2 -->
<g id="edge2" class="edge"><title>Node1&#45;&gt;Node2</title>
<path fill="none" stroke="midnightblue" d="M1095.3,-220.45C1033.08,-210.948 929.724,-195.161 863.52,-185.049"/>
<polygon fill="midnightblue" stroke="midnightblue" points="864.042,-181.588 853.628,-183.538 862.985,-188.508 864.042,-181.588"/>
</g>
<!-- Node1&#45;&gt;Node8 -->
<g id="edge10" class="edge"><title>Node1&#45;&gt;Node8</title>
<path fill="none" stroke="midnightblue" d="M1160.61,-220.45C1173.65,-212.123 1194.24,-198.97 1209.8,-189.039"/>
<polygon fill="midnightblue" stroke="midnightblue" points="1211.73,-191.957 1218.28,-183.625 1207.96,-186.057 1211.73,-191.957"/>
</g>
<!-- Node2&#45;&gt;Node3 -->
<g id="edge3" class="edge"><title>Node2&#45;&gt;Node3</title>
<path fill="none" stroke="midnightblue" d="M792.406,-165.219C784.205,-157.316 771.657,-145.224 761.676,-135.606"/>
<polygon fill="midnightblue" stroke="midnightblue" points="763.983,-132.968 754.353,-128.55 759.125,-138.009 763.983,-132.968"/>
</g>
<!-- Node2&#45;&gt;Node6 -->
<g id="edge6" class="edge"><title>Node2&#45;&gt;Node6</title>
<path fill="none" stroke="midnightblue" d="M826.212,-165.45C854.447,-156.436 900.396,-141.765 932.079,-131.65"/>
<polygon fill="midnightblue" stroke="midnightblue" points="933.362,-134.914 941.823,-128.538 931.233,-128.246 933.362,-134.914"/>
</g>
<!-- Node2&#45;&gt;Node7 -->
<g id="edge8" class="edge"><title>Node2&#45;&gt;Node7</title>
<path fill="none" stroke="midnightblue" d="M809.594,-165.219C817.795,-157.316 830.343,-145.224 840.324,-135.606"/>
<polygon fill="midnightblue" stroke="midnightblue" points="842.875,-138.009 847.647,-128.55 838.017,-132.968 842.875,-138.009"/>
</g>
<!-- Node3&#45;&gt;Node4 -->
<g id="edge4" class="edge"><title>Node3&#45;&gt;Node4</title>
<path fill="none" stroke="midnightblue" d="M771.212,-110.45C799.447,-101.436 845.396,-86.7653 877.079,-76.6496"/>
<polygon fill="midnightblue" stroke="midnightblue" points="878.362,-79.9141 886.823,-73.5383 876.233,-73.2457 878.362,-79.9141"/>
</g>
<!-- Node5 -->
<g id="node6" class="node"><title>Node5</title>
<polygon fill="white" stroke="#bfbfbf" points="1203.82,-0.5 1203.82,-18.5 1258.18,-18.5 1258.18,-0.5 1203.82,-0.5"/>
<text text-anchor="middle" x="1231" y="-6.5" font-family="Helvetica,sans-Serif" font-size="10.00">ofMain.h</text>
</g>
<!-- Node4&#45;&gt;Node5 -->
<g id="edge5" class="edge"><title>Node4&#45;&gt;Node5</title>
<path fill="none" stroke="midnightblue" d="M960.449,-55.4504C1024.44,-44.8185 1135.78,-26.3205 1193.65,-16.7048"/>
<polygon fill="midnightblue" stroke="midnightblue" points="1194.52,-20.1083 1203.82,-15.0166 1193.38,-13.203 1194.52,-20.1083"/>
</g>
<!-- Node6&#45;&gt;Node4 -->
<g id="edge7" class="edge"><title>Node6&#45;&gt;Node4</title>
<path fill="none" stroke="midnightblue" d="M958.406,-110.219C950.205,-102.316 937.657,-90.2241 927.676,-80.6057"/>
<polygon fill="midnightblue" stroke="midnightblue" points="929.983,-77.9682 920.353,-73.5496 925.125,-83.0088 929.983,-77.9682"/>
</g>
<!-- Node7&#45;&gt;Node4 -->
<g id="edge9" class="edge"><title>Node7&#45;&gt;Node4</title>
<path fill="none" stroke="midnightblue" d="M864.75,-110.219C873.1,-102.316 885.876,-90.2241 896.039,-80.6057"/>
<polygon fill="midnightblue" stroke="midnightblue" points="898.638,-82.9655 903.495,-73.5496 893.826,-77.8814 898.638,-82.9655"/>
</g>
<!-- Node8&#45;&gt;Node5 -->
<g id="edge11" class="edge"><title>Node8&#45;&gt;Node5</title>
<path fill="none" stroke="midnightblue" d="M1231,-165.193C1231,-140.013 1231,-64.1144 1231,-28.8621"/>
<polygon fill="midnightblue" stroke="midnightblue" points="1234.5,-28.5971 1231,-18.5971 1227.5,-28.5972 1234.5,-28.5971"/>
</g>
<!-- Node8&#45;&gt;Node7 -->
<g id="edge12" class="edge"><title>Node8&#45;&gt;Node7</title>
<path fill="none" stroke="midnightblue" d="M1184.68,-167.024C1125.07,-158.68 1018.03,-143.661 916.349,-129.188"/>
<polygon fill="midnightblue" stroke="midnightblue" points="916.604,-125.69 906.21,-127.745 915.617,-132.62 916.604,-125.69"/>
</g>
<!-- Node9&#45;&gt;Node2 -->
<g id="edge14" class="edge"><title>Node9&#45;&gt;Node2</title>
<path fill="none" stroke="midnightblue" d="M658.516,-220.45C687.091,-211.436 733.593,-196.765 765.658,-186.65"/>
<polygon fill="midnightblue" stroke="midnightblue" points="767.036,-189.885 775.52,-183.538 764.93,-183.209 767.036,-189.885"/>
</g>
<!-- Node10&#45;&gt;Node9 -->
<g id="edge16" class="edge"><title>Node10&#45;&gt;Node9</title>
<path fill="none" stroke="midnightblue" d="M787.111,-280.435C756.072,-270.378 702.835,-253.128 667.777,-241.769"/>
<polygon fill="midnightblue" stroke="midnightblue" points="668.558,-238.342 657.966,-238.589 666.4,-245.002 668.558,-238.342"/>
</g>
<!-- Node11&#45;&gt;Node9 -->
<g id="edge18" class="edge"><title>Node11&#45;&gt;Node9</title>
<path fill="none" stroke="midnightblue" d="M913.58,-276.341C847.753,-265.586 752.98,-250.102 692.193,-240.171"/>
<polygon fill="midnightblue" stroke="midnightblue" points="692.43,-236.663 681.997,-238.505 691.301,-243.572 692.43,-236.663"/>
</g>
<!-- Node12&#45;&gt;Node9 -->
<g id="edge20" class="edge"><title>Node12&#45;&gt;Node9</title>
<path fill="none" stroke="midnightblue" d="M1111.86,-280.477C1098.53,-278.572 1084.26,-276.624 1071,-275 1066.66,-274.468 844.603,-251.947 718.387,-239.153"/>
<polygon fill="midnightblue" stroke="midnightblue" points="718.652,-235.662 708.35,-238.136 717.946,-242.626 718.652,-235.662"/>
</g>
<!-- Node13&#45;&gt;Node2 -->
<g id="edge22" class="edge"><title>Node13&#45;&gt;Node2</title>
<path fill="none" stroke="midnightblue" d="M801,-220.219C801,-213.177 801,-202.808 801,-193.828"/>
<polygon fill="midnightblue" stroke="midnightblue" points="804.5,-193.55 801,-183.55 797.5,-193.55 804.5,-193.55"/>
</g>
<!-- Node14&#45;&gt;Node9 -->
<g id="edge24" class="edge"><title>Node14&#45;&gt;Node9</title>
<path fill="none" stroke="midnightblue" d="M602.867,-280.435C607.98,-271.961 616.176,-258.38 622.73,-247.519"/>
<polygon fill="midnightblue" stroke="midnightblue" points="625.778,-249.242 627.948,-238.872 619.785,-245.625 625.778,-249.242"/>
</g>
<!-- Node15&#45;&gt;Node2 -->
<g id="edge26" class="edge"><title>Node15&#45;&gt;Node2</title>
<path fill="none" stroke="midnightblue" d="M951.118,-220.45C920.881,-211.396 871.593,-196.638 837.798,-186.519"/>
<polygon fill="midnightblue" stroke="midnightblue" points="838.429,-183.054 827.845,-183.538 836.421,-189.76 838.429,-183.054"/>
</g>
<!-- Node16&#45;&gt;Node2 -->
<g id="edge28" class="edge"><title>Node16&#45;&gt;Node2</title>
<path fill="none" stroke="midnightblue" d="M357.148,-220.479C459.47,-210.11 635.963,-192.225 732.696,-182.422"/>
<polygon fill="midnightblue" stroke="midnightblue" points="733.063,-185.903 742.659,-181.412 732.357,-178.938 733.063,-185.903"/>
</g>
<!-- Node17&#45;&gt;Node4 -->
<g id="edge30" class="edge"><title>Node17&#45;&gt;Node4</title>
<path fill="none" stroke="midnightblue" d="M1460.91,-165.471C1354.22,-146.039 1082.33,-96.5218 966.067,-75.347"/>
<polygon fill="midnightblue" stroke="midnightblue" points="966.439,-71.8573 955.974,-73.5088 965.185,-78.744 966.439,-71.8573"/>
</g>
<!-- Node18&#45;&gt;Node16 -->
<g id="edge32" class="edge"><title>Node18&#45;&gt;Node16</title>
<path fill="none" stroke="midnightblue" d="M191.044,-280.435C207.608,-270.923 235.378,-254.976 255.076,-243.665"/>
<polygon fill="midnightblue" stroke="midnightblue" points="256.821,-246.698 263.75,-238.683 253.335,-240.628 256.821,-246.698"/>
</g>
<!-- Node19&#45;&gt;Node2 -->
<g id="edge34" class="edge"><title>Node19&#45;&gt;Node2</title>
<path fill="none" stroke="midnightblue" d="M395.293,-280.292C410.815,-265.477 445.958,-234.465 482,-220 563.894,-187.133 666.041,-177.877 732.353,-175.612"/>
<polygon fill="midnightblue" stroke="midnightblue" points="732.787,-179.101 742.679,-175.306 732.58,-172.104 732.787,-179.101"/>
</g>
<!-- Node20&#45;&gt;Node2 -->
<g id="edge36" class="edge"><title>Node20&#45;&gt;Node2</title>
<path fill="none" stroke="midnightblue" d="M1239.76,-220.479C1138.85,-210.135 964.966,-192.309 869.198,-182.491"/>
<polygon fill="midnightblue" stroke="midnightblue" points="869.353,-178.989 859.048,-181.451 868.639,-185.952 869.353,-178.989"/>
</g>
<!-- Node20&#45;&gt;Node8 -->
<g id="edge37" class="edge"><title>Node20&#45;&gt;Node8</title>
<path fill="none" stroke="midnightblue" d="M1304.79,-220.45C1291.12,-212.123 1269.53,-198.97 1253.23,-189.039"/>
<polygon fill="midnightblue" stroke="midnightblue" points="1254.7,-185.839 1244.34,-183.625 1251.06,-191.817 1254.7,-185.839"/>
</g>
<!-- Node21&#45;&gt;Node5 -->
<g id="edge39" class="edge"><title>Node21&#45;&gt;Node5</title>
<path fill="none" stroke="midnightblue" d="M1436.25,-55.4504C1390.76,-45.4893 1313.75,-28.6233 1268.11,-18.6267"/>
<polygon fill="midnightblue" stroke="midnightblue" points="1268.83,-15.2029 1258.32,-16.4824 1267.34,-22.0408 1268.83,-15.2029"/>
</g>
</g>
</svg>
