<?xml version="1.0" encoding="UTF-8" standalone="no"?>
<!DOCTYPE svg PUBLIC "-//W3C//DTD SVG 1.1//EN"
 "http://www.w3.org/Graphics/SVG/1.1/DTD/svg11.dtd">
<!-- Generated by graphviz version 2.38.0 (20140413.2041)
 -->
<!-- Title: ofxOuiMatrix.hpp Pages: 1 -->
<svg width="182pt" height="82pt"
 viewBox="0.00 0.00 181.69 82.00" xmlns="http://www.w3.org/2000/svg" xmlns:xlink="http://www.w3.org/1999/xlink">
<g id="graph0" class="graph" transform="scale(1 1) rotate(0) translate(4 78)">
<title>ofxOuiMatrix.hpp</title>
<polygon fill="white" stroke="none" points="-4,4 -4,-78 177.694,-78 177.694,4 -4,4"/>
<!-- Node8 -->
<g id="node1" class="node"><title>Node8</title>
<polygon fill="#bfbfbf" stroke="black" points="34.3892,-55.5 34.3892,-73.5 125.975,-73.5 125.975,-55.5 34.3892,-55.5"/>
<text text-anchor="middle" x="80.1821" y="-61.5" font-family="Helvetica,sans-Serif" font-size="10.00">ofxOuiMatrix.hpp</text>
</g>
<!-- Node9 -->
<g id="node2" class="node"><title>Node9</title>
<g id="a_node2"><a xlink:href="ofx_oui_8hpp.html" target="_top" xlink:title="ofxOui.hpp">
<polygon fill="white" stroke="black" points="0,-0.5 0,-18.5 64.3643,-18.5 64.3643,-0.5 0,-0.5"/>
<text text-anchor="middle" x="32.1821" y="-6.5" font-family="Helvetica,sans-Serif" font-size="10.00">ofxOui.hpp</text>
</a>
</g>
</g>
<!-- Node8&#45;&gt;Node9 -->
<g id="edge1" class="edge"><title>Node8&#45;&gt;Node9</title>
<path fill="none" stroke="midnightblue" d="M65.7216,-47.5331C57.0581,-37.9673 46.414,-26.2143 39.4723,-18.5496"/>
<polygon fill="midnightblue" stroke="midnightblue" points="63.3751,-50.1562 72.6821,-55.2188 68.5635,-45.4572 63.3751,-50.1562"/>
</g>
<!-- Node10 -->
<g id="node3" class="node"><title>Node10</title>
<g id="a_node3"><a xlink:href="ofx_oui_matrix_8cpp.html" target="_top" xlink:title="ofxOuiMatrix.cpp">
<polygon fill="white" stroke="black" points="82.6699,-0.5 82.6699,-18.5 173.694,-18.5 173.694,-0.5 82.6699,-0.5"/>
<text text-anchor="middle" x="128.182" y="-6.5" font-family="Helvetica,sans-Serif" font-size="10.00">ofxOuiMatrix.cpp</text>
</a>
</g>
</g>
<!-- Node8&#45;&gt;Node10 -->
<g id="edge2" class="edge"><title>Node8&#45;&gt;Node10</title>
<path fill="none" stroke="midnightblue" d="M94.6427,-47.5331C103.306,-37.9673 113.95,-26.2143 120.892,-18.5496"/>
<polygon fill="midnightblue" stroke="midnightblue" points="91.8007,-45.4572 87.6821,-55.2188 96.9892,-50.1562 91.8007,-45.4572"/>
</g>
</g>
</svg>
