<?xml version="1.0" encoding="UTF-8" standalone="no"?>
<!DOCTYPE svg PUBLIC "-//W3C//DTD SVG 1.1//EN"
 "http://www.w3.org/Graphics/SVG/1.1/DTD/svg11.dtd">
<!-- Generated by graphviz version 2.38.0 (20140413.2041)
 -->
<!-- Title: ofxOuiColormap.cpp Pages: 1 -->
<svg width="116pt" height="137pt"
 viewBox="0.00 0.00 115.71 137.00" xmlns="http://www.w3.org/2000/svg" xmlns:xlink="http://www.w3.org/1999/xlink">
<g id="graph0" class="graph" transform="scale(1 1) rotate(0) translate(4 133)">
<title>ofxOuiColormap.cpp</title>
<polygon fill="white" stroke="none" points="-4,4 -4,-133 111.714,-133 111.714,4 -4,4"/>
<!-- Node0 -->
<g id="node1" class="node"><title>Node0</title>
<polygon fill="#bfbfbf" stroke="black" points="0.280762,-110.5 0.280762,-128.5 107.433,-128.5 107.433,-110.5 0.280762,-110.5"/>
<text text-anchor="middle" x="53.8569" y="-116.5" font-family="Helvetica,sans-Serif" font-size="10.00">ofxOuiColormap.cpp</text>
</g>
<!-- Node1 -->
<g id="node2" class="node"><title>Node1</title>
<g id="a_node2"><a xlink:href="ofx_oui_colormap_8hpp.html" target="_top" xlink:title="ofxOuiColormap.hpp">
<polygon fill="white" stroke="black" points="0,-55.5 0,-73.5 107.714,-73.5 107.714,-55.5 0,-55.5"/>
<text text-anchor="middle" x="53.8569" y="-61.5" font-family="Helvetica,sans-Serif" font-size="10.00">ofxOuiColormap.hpp</text>
</a>
</g>
</g>
<!-- Node0&#45;&gt;Node1 -->
<g id="edge1" class="edge"><title>Node0&#45;&gt;Node1</title>
<path fill="none" stroke="midnightblue" d="M53.8569,-110.219C53.8569,-103.177 53.8569,-92.8083 53.8569,-83.8277"/>
<polygon fill="midnightblue" stroke="midnightblue" points="57.357,-83.5495 53.8569,-73.5496 50.357,-83.5496 57.357,-83.5495"/>
</g>
<!-- Node2 -->
<g id="node3" class="node"><title>Node2</title>
<polygon fill="white" stroke="#bfbfbf" points="26.6797,-0.5 26.6797,-18.5 81.0342,-18.5 81.0342,-0.5 26.6797,-0.5"/>
<text text-anchor="middle" x="53.8569" y="-6.5" font-family="Helvetica,sans-Serif" font-size="10.00">ofMain.h</text>
</g>
<!-- Node1&#45;&gt;Node2 -->
<g id="edge2" class="edge"><title>Node1&#45;&gt;Node2</title>
<path fill="none" stroke="midnightblue" d="M53.8569,-55.2188C53.8569,-48.1769 53.8569,-37.8083 53.8569,-28.8277"/>
<polygon fill="midnightblue" stroke="midnightblue" points="57.357,-28.5495 53.8569,-18.5496 50.357,-28.5496 57.357,-28.5495"/>
</g>
</g>
</svg>
