<?xml version="1.0" encoding="UTF-8" standalone="no"?>
<!DOCTYPE svg PUBLIC "-//W3C//DTD SVG 1.1//EN"
 "http://www.w3.org/Graphics/SVG/1.1/DTD/svg11.dtd">
<!-- Generated by graphviz version 2.38.0 (20140413.2041)
 -->
<!-- Title: ofxCuiCuiComponent.hpp Pages: 1 -->
<svg width="1773pt" height="192pt"
 viewBox="0.00 0.00 1773.17 192.00" xmlns="http://www.w3.org/2000/svg" xmlns:xlink="http://www.w3.org/1999/xlink">
<g id="graph0" class="graph" transform="scale(1 1) rotate(0) translate(4 188)">
<title>ofxCuiCuiComponent.hpp</title>
<polygon fill="white" stroke="none" points="-4,4 -4,-188 1769.17,-188 1769.17,4 -4,4"/>
<!-- Node1 -->
<g id="node1" class="node"><title>Node1</title>
<polygon fill="#bfbfbf" stroke="black" points="1077.94,-165.5 1077.94,-183.5 1208.45,-183.5 1208.45,-165.5 1077.94,-165.5"/>
<text text-anchor="middle" x="1143.19" y="-171.5" font-family="Helvetica,sans-Serif" font-size="10.00">ofxCuiCuiComponent.hpp</text>
</g>
<!-- Node2 -->
<g id="node2" class="node"><title>Node2</title>
<g id="a_node2"><a xlink:href="ofx_cui_cui_bpf_8hpp.html" target="_top" xlink:title="ofxCuiCuiBpf.hpp">
<polygon fill="white" stroke="black" points="1155.28,-110.5 1155.28,-128.5 1249.11,-128.5 1249.11,-110.5 1155.28,-110.5"/>
<text text-anchor="middle" x="1202.19" y="-116.5" font-family="Helvetica,sans-Serif" font-size="10.00">ofxCuiCuiBpf.hpp</text>
</a>
</g>
</g>
<!-- Node1&#45;&gt;Node2 -->
<g id="edge1" class="edge"><title>Node1&#45;&gt;Node2</title>
<path fill="none" stroke="midnightblue" d="M1159.74,-158.641C1170.56,-148.92 1184.28,-136.591 1193.15,-128.625"/>
<polygon fill="midnightblue" stroke="midnightblue" points="1157.26,-156.164 1152.16,-165.45 1161.93,-161.371 1157.26,-156.164"/>
</g>
<!-- Node3 -->
<g id="node3" class="node"><title>Node3</title>
<g id="a_node3"><a xlink:href="ofx_cui_cui_8hpp.html" target="_top" xlink:title="ofxCuiCui.hpp">
<polygon fill="white" stroke="black" points="806.788,-0.5 806.788,-18.5 885.601,-18.5 885.601,-0.5 806.788,-0.5"/>
<text text-anchor="middle" x="846.194" y="-6.5" font-family="Helvetica,sans-Serif" font-size="10.00">ofxCuiCui.hpp</text>
</a>
</g>
</g>
<!-- Node1&#45;&gt;Node3 -->
<g id="edge34" class="edge"><title>Node1&#45;&gt;Node3</title>
<path fill="none" stroke="midnightblue" d="M1067.87,-169.382C1010.78,-164.387 931.161,-153.352 865.194,-129 821.217,-112.766 798.125,-114.887 775.194,-74 761.281,-49.1915 798.114,-29.0545 823.784,-18.5106"/>
<polygon fill="midnightblue" stroke="midnightblue" points="1067.65,-172.876 1077.91,-170.218 1068.23,-165.9 1067.65,-172.876"/>
</g>
<!-- Node5 -->
<g id="node5" class="node"><title>Node5</title>
<g id="a_node5"><a xlink:href="ofx_cui_cui_button_8hpp.html" target="_top" xlink:title="ofxCuiCuiButton.hpp">
<polygon fill="white" stroke="black" points="458.333,-110.5 458.333,-128.5 566.056,-128.5 566.056,-110.5 458.333,-110.5"/>
<text text-anchor="middle" x="512.194" y="-116.5" font-family="Helvetica,sans-Serif" font-size="10.00">ofxCuiCuiButton.hpp</text>
</a>
</g>
</g>
<!-- Node1&#45;&gt;Node5 -->
<g id="edge4" class="edge"><title>Node1&#45;&gt;Node5</title>
<path fill="none" stroke="midnightblue" d="M1067.56,-167.147C938.583,-156.314 679.126,-134.521 566.467,-125.059"/>
<polygon fill="midnightblue" stroke="midnightblue" points="1067.49,-170.654 1077.75,-168.003 1068.08,-163.678 1067.49,-170.654"/>
</g>
<!-- Node15 -->
<g id="node15" class="node"><title>Node15</title>
<g id="a_node15"><a xlink:href="ofx_cui_cui_group_8hpp.html" target="_top" xlink:title="ofxCuiCuiGroup.hpp">
<polygon fill="white" stroke="black" points="1030.89,-110.5 1030.89,-128.5 1137.5,-128.5 1137.5,-110.5 1030.89,-110.5"/>
<text text-anchor="middle" x="1084.19" y="-116.5" font-family="Helvetica,sans-Serif" font-size="10.00">ofxCuiCuiGroup.hpp</text>
</a>
</g>
</g>
<!-- Node1&#45;&gt;Node15 -->
<g id="edge19" class="edge"><title>Node1&#45;&gt;Node15</title>
<path fill="none" stroke="midnightblue" d="M1126.65,-158.641C1115.83,-148.92 1102.11,-136.591 1093.24,-128.625"/>
<polygon fill="midnightblue" stroke="midnightblue" points="1124.46,-161.371 1134.23,-165.45 1129.13,-156.164 1124.46,-161.371"/>
</g>
<!-- Node17 -->
<g id="node17" class="node"><title>Node17</title>
<g id="a_node17"><a xlink:href="ofx_cui_cui_multi_slider_8hpp.html" target="_top" xlink:title="ofxCuiCuiMultiSlider.hpp">
<polygon fill="white" stroke="black" points="873.722,-110.5 873.722,-128.5 998.667,-128.5 998.667,-110.5 873.722,-110.5"/>
<text text-anchor="middle" x="936.194" y="-116.5" font-family="Helvetica,sans-Serif" font-size="10.00">ofxCuiCuiMultiSlider.hpp</text>
</a>
</g>
</g>
<!-- Node1&#45;&gt;Node17 -->
<g id="edge22" class="edge"><title>Node1&#45;&gt;Node17</title>
<path fill="none" stroke="midnightblue" d="M1101.89,-162.924C1062.32,-152.792 1003.47,-137.724 967.589,-128.538"/>
<polygon fill="midnightblue" stroke="midnightblue" points="1101.2,-166.361 1111.76,-165.45 1102.94,-159.579 1101.2,-166.361"/>
</g>
<!-- Node19 -->
<g id="node19" class="node"><title>Node19</title>
<g id="a_node19"><a xlink:href="ofx_cui_cui_numbox_8hpp.html" target="_top" xlink:title="ofxCuiCuiNumbox.hpp">
<polygon fill="white" stroke="black" points="1297.17,-110.5 1297.17,-128.5 1413.22,-128.5 1413.22,-110.5 1297.17,-110.5"/>
<text text-anchor="middle" x="1355.19" y="-116.5" font-family="Helvetica,sans-Serif" font-size="10.00">ofxCuiCuiNumbox.hpp</text>
</a>
</g>
</g>
<!-- Node1&#45;&gt;Node19 -->
<g id="edge25" class="edge"><title>Node1&#45;&gt;Node19</title>
<path fill="none" stroke="midnightblue" d="M1185.24,-162.988C1225.77,-152.856 1286.22,-137.744 1323.04,-128.538"/>
<polygon fill="midnightblue" stroke="midnightblue" points="1184.25,-159.63 1175.39,-165.45 1185.94,-166.421 1184.25,-159.63"/>
</g>
<!-- Node23 -->
<g id="node23" class="node"><title>Node23</title>
<g id="a_node23"><a xlink:href="ofx_cui_cui_text_input_8hpp.html" target="_top" xlink:title="ofxCuiCuiTextInput.hpp">
<polygon fill="white" stroke="black" points="1497.5,-110.5 1497.5,-128.5 1616.89,-128.5 1616.89,-110.5 1497.5,-110.5"/>
<text text-anchor="middle" x="1557.19" y="-116.5" font-family="Helvetica,sans-Serif" font-size="10.00">ofxCuiCuiTextInput.hpp</text>
</a>
</g>
</g>
<!-- Node1&#45;&gt;Node23 -->
<g id="edge31" class="edge"><title>Node1&#45;&gt;Node23</title>
<path fill="none" stroke="midnightblue" d="M1216.07,-164.17C1296.09,-153.927 1423.05,-137.673 1497.43,-128.151"/>
<polygon fill="midnightblue" stroke="midnightblue" points="1215.55,-160.709 1206.07,-165.45 1216.44,-167.652 1215.55,-160.709"/>
</g>
<!-- Node25 -->
<g id="node25" class="node"><title>Node25</title>
<g id="a_node25"><a xlink:href="ofx_cui_cui_component_8cpp.html" target="_top" xlink:title="ofxCuiCuiComponent.cpp">
<polygon fill="white" stroke="black" points="1635.22,-110.5 1635.22,-128.5 1765.17,-128.5 1765.17,-110.5 1635.22,-110.5"/>
<text text-anchor="middle" x="1700.19" y="-116.5" font-family="Helvetica,sans-Serif" font-size="10.00">ofxCuiCuiComponent.cpp</text>
</a>
</g>
</g>
<!-- Node1&#45;&gt;Node25 -->
<g id="edge35" class="edge"><title>Node1&#45;&gt;Node25</title>
<path fill="none" stroke="midnightblue" d="M1218.57,-167.084C1313.65,-158.869 1482.14,-143.908 1626.19,-129 1629.02,-128.707 1631.91,-128.402 1634.83,-128.088"/>
<polygon fill="midnightblue" stroke="midnightblue" points="1218.13,-163.608 1208.47,-167.955 1218.74,-170.582 1218.13,-163.608"/>
</g>
<!-- Node2&#45;&gt;Node3 -->
<g id="edge2" class="edge"><title>Node2&#45;&gt;Node3</title>
<path fill="none" stroke="midnightblue" d="M1217.85,-102.41C1229.46,-88.5328 1241.33,-68.6318 1229.19,-55 1206.6,-29.6296 979.009,-16.5135 885.74,-12.17"/>
<polygon fill="midnightblue" stroke="midnightblue" points="1214.96,-100.387 1210.88,-110.163 1220.17,-105.069 1214.96,-100.387"/>
</g>
<!-- Node4 -->
<g id="node4" class="node"><title>Node4</title>
<g id="a_node4"><a xlink:href="ofx_cui_cui_bpf_8cpp.html" target="_top" xlink:title="ofxCuiCuiBpf.cpp">
<polygon fill="white" stroke="black" points="1126.56,-55.5 1126.56,-73.5 1219.82,-73.5 1219.82,-55.5 1126.56,-55.5"/>
<text text-anchor="middle" x="1173.19" y="-61.5" font-family="Helvetica,sans-Serif" font-size="10.00">ofxCuiCuiBpf.cpp</text>
</a>
</g>
</g>
<!-- Node2&#45;&gt;Node4 -->
<g id="edge3" class="edge"><title>Node2&#45;&gt;Node4</title>
<path fill="none" stroke="midnightblue" d="M1192.82,-101.363C1187.71,-92.0242 1181.62,-80.9046 1177.6,-73.5496"/>
<polygon fill="midnightblue" stroke="midnightblue" points="1189.79,-103.126 1197.66,-110.219 1195.93,-99.7661 1189.79,-103.126"/>
</g>
<!-- Node5&#45;&gt;Node3 -->
<g id="edge5" class="edge"><title>Node5&#45;&gt;Node3</title>
<path fill="none" stroke="midnightblue" d="M566.175,-108.378C603.927,-100.641 655.253,-88.7982 699.194,-74 718.995,-67.3316 723.034,-63.332 742.194,-55 771.73,-42.1561 806.105,-27.5056 826.997,-18.6344"/>
<polygon fill="midnightblue" stroke="midnightblue" points="565.014,-105.041 555.904,-110.45 566.399,-111.903 565.014,-105.041"/>
</g>
<!-- Node6 -->
<g id="node6" class="node"><title>Node6</title>
<g id="a_node6"><a xlink:href="ofx_cui_cui_check_box_8hpp.html" target="_top" xlink:title="ofxCuiCuiCheckBox.hpp">
<polygon fill="white" stroke="black" points="0,-55.5 0,-73.5 124.389,-73.5 124.389,-55.5 0,-55.5"/>
<text text-anchor="middle" x="62.1943" y="-61.5" font-family="Helvetica,sans-Serif" font-size="10.00">ofxCuiCuiCheckBox.hpp</text>
</a>
</g>
</g>
<!-- Node5&#45;&gt;Node6 -->
<g id="edge6" class="edge"><title>Node5&#45;&gt;Node6</title>
<path fill="none" stroke="midnightblue" d="M447.938,-111C372.547,-102.191 243.783,-87.1121 133.194,-74 130.359,-73.6638 127.46,-73.3194 124.531,-72.971"/>
<polygon fill="midnightblue" stroke="midnightblue" points="447.876,-114.517 458.214,-112.201 448.688,-107.564 447.876,-114.517"/>
</g>
<!-- Node8 -->
<g id="node8" class="node"><title>Node8</title>
<g id="a_node8"><a xlink:href="ofx_cui_cui_draggable_button_8hpp.html" target="_top" xlink:title="ofxCuiCuiDraggableButton.hpp">
<polygon fill="white" stroke="black" points="142.261,-55.5 142.261,-73.5 296.127,-73.5 296.127,-55.5 142.261,-55.5"/>
<text text-anchor="middle" x="219.194" y="-61.5" font-family="Helvetica,sans-Serif" font-size="10.00">ofxCuiCuiDraggableButton.hpp</text>
</a>
</g>
</g>
<!-- Node5&#45;&gt;Node8 -->
<g id="edge9" class="edge"><title>Node5&#45;&gt;Node8</title>
<path fill="none" stroke="midnightblue" d="M457.605,-108.626C401.623,-98.499 315.6,-82.9386 263.633,-73.5383"/>
<polygon fill="midnightblue" stroke="midnightblue" points="457.231,-112.114 467.694,-110.45 458.477,-105.226 457.231,-112.114"/>
</g>
<!-- Node10 -->
<g id="node10" class="node"><title>Node10</title>
<g id="a_node10"><a xlink:href="ofx_cui_cui_drop_down_8hpp.html" target="_top" xlink:title="ofxCuiCuiDropDown.hpp">
<polygon fill="white" stroke="black" points="314.167,-55.5 314.167,-73.5 440.221,-73.5 440.221,-55.5 314.167,-55.5"/>
<text text-anchor="middle" x="377.194" y="-61.5" font-family="Helvetica,sans-Serif" font-size="10.00">ofxCuiCuiDropDown.hpp</text>
</a>
</g>
</g>
<!-- Node5&#45;&gt;Node10 -->
<g id="edge12" class="edge"><title>Node5&#45;&gt;Node10</title>
<path fill="none" stroke="midnightblue" d="M482.102,-106.686C456.488,-96.63 420.37,-82.4503 397.891,-73.6253"/>
<polygon fill="midnightblue" stroke="midnightblue" points="481.103,-110.054 491.691,-110.45 483.661,-103.538 481.103,-110.054"/>
</g>
<!-- Node12 -->
<g id="node12" class="node"><title>Node12</title>
<g id="a_node12"><a xlink:href="ofx_cui_cui_matrix_8hpp.html" target="_top" xlink:title="ofxCuiCuiMatrix.hpp">
<polygon fill="white" stroke="black" points="584.177,-55.5 584.177,-73.5 690.211,-73.5 690.211,-55.5 584.177,-55.5"/>
<text text-anchor="middle" x="637.194" y="-61.5" font-family="Helvetica,sans-Serif" font-size="10.00">ofxCuiCuiMatrix.hpp</text>
</a>
</g>
</g>
<!-- Node5&#45;&gt;Node12 -->
<g id="edge15" class="edge"><title>Node5&#45;&gt;Node12</title>
<path fill="none" stroke="midnightblue" d="M540.69,-106.418C564.366,-96.3794 597.401,-82.3722 618.031,-73.6253"/>
<polygon fill="midnightblue" stroke="midnightblue" points="539.019,-103.324 531.179,-110.45 541.752,-109.769 539.019,-103.324"/>
</g>
<!-- Node14 -->
<g id="node14" class="node"><title>Node14</title>
<g id="a_node14"><a xlink:href="ofx_cui_cui_button_8cpp.html" target="_top" xlink:title="ofxCuiCuiButton.cpp">
<polygon fill="white" stroke="black" points="458.613,-55.5 458.613,-73.5 565.775,-73.5 565.775,-55.5 458.613,-55.5"/>
<text text-anchor="middle" x="512.194" y="-61.5" font-family="Helvetica,sans-Serif" font-size="10.00">ofxCuiCuiButton.cpp</text>
</a>
</g>
</g>
<!-- Node5&#45;&gt;Node14 -->
<g id="edge18" class="edge"><title>Node5&#45;&gt;Node14</title>
<path fill="none" stroke="midnightblue" d="M512.194,-100.175C512.194,-91.0945 512.194,-80.5949 512.194,-73.5496"/>
<polygon fill="midnightblue" stroke="midnightblue" points="508.694,-100.219 512.194,-110.219 515.694,-100.219 508.694,-100.219"/>
</g>
<!-- Node6&#45;&gt;Node3 -->
<g id="edge7" class="edge"><title>Node6&#45;&gt;Node3</title>
<path fill="none" stroke="midnightblue" d="M134.525,-54.9797C234.467,-46.8601 672.176,-20.7971 806.742,-12.8305"/>
<polygon fill="midnightblue" stroke="midnightblue" points="134.176,-51.4967 124.511,-55.8365 134.773,-58.4712 134.176,-51.4967"/>
</g>
<!-- Node7 -->
<g id="node7" class="node"><title>Node7</title>
<g id="a_node7"><a xlink:href="ofx_cui_cui_check_box_8cpp.html" target="_top" xlink:title="ofxCuiCuiCheckBox.cpp">
<polygon fill="white" stroke="black" points="0.280762,-0.5 0.280762,-18.5 124.108,-18.5 124.108,-0.5 0.280762,-0.5"/>
<text text-anchor="middle" x="62.1943" y="-6.5" font-family="Helvetica,sans-Serif" font-size="10.00">ofxCuiCuiCheckBox.cpp</text>
</a>
</g>
</g>
<!-- Node6&#45;&gt;Node7 -->
<g id="edge8" class="edge"><title>Node6&#45;&gt;Node7</title>
<path fill="none" stroke="midnightblue" d="M62.1943,-45.1746C62.1943,-36.0945 62.1943,-25.5949 62.1943,-18.5496"/>
<polygon fill="midnightblue" stroke="midnightblue" points="58.6944,-45.2187 62.1943,-55.2188 65.6944,-45.2188 58.6944,-45.2187"/>
</g>
<!-- Node8&#45;&gt;Node3 -->
<g id="edge10" class="edge"><title>Node8&#45;&gt;Node3</title>
<path fill="none" stroke="midnightblue" d="M306.623,-54.8837C500.3,-37.428 718.488,-20.3298 806.469,-13.5427"/>
<polygon fill="midnightblue" stroke="midnightblue" points="306.188,-51.4086 296.544,-55.7944 306.818,-58.3802 306.188,-51.4086"/>
</g>
<!-- Node9 -->
<g id="node9" class="node"><title>Node9</title>
<g id="a_node9"><a xlink:href="ofx_cui_cui_draggable_button_8cpp.html" target="_top" xlink:title="ofxCuiCuiDraggableButton.cpp">
<polygon fill="white" stroke="black" points="142.542,-0.5 142.542,-18.5 295.847,-18.5 295.847,-0.5 142.542,-0.5"/>
<text text-anchor="middle" x="219.194" y="-6.5" font-family="Helvetica,sans-Serif" font-size="10.00">ofxCuiCuiDraggableButton.cpp</text>
</a>
</g>
</g>
<!-- Node8&#45;&gt;Node9 -->
<g id="edge11" class="edge"><title>Node8&#45;&gt;Node9</title>
<path fill="none" stroke="midnightblue" d="M219.194,-45.1746C219.194,-36.0945 219.194,-25.5949 219.194,-18.5496"/>
<polygon fill="midnightblue" stroke="midnightblue" points="215.694,-45.2187 219.194,-55.2188 222.694,-45.2188 215.694,-45.2187"/>
</g>
<!-- Node10&#45;&gt;Node3 -->
<g id="edge13" class="edge"><title>Node10&#45;&gt;Node3</title>
<path fill="none" stroke="midnightblue" d="M450.666,-54.8363C587.637,-39.1007 737.122,-22.5278 806.742,-14.8444"/>
<polygon fill="midnightblue" stroke="midnightblue" points="449.943,-51.3964 440.408,-56.016 450.742,-58.3505 449.943,-51.3964"/>
</g>
<!-- Node11 -->
<g id="node11" class="node"><title>Node11</title>
<g id="a_node11"><a xlink:href="ofx_cui_cui_drop_down_8cpp.html" target="_top" xlink:title="ofxCuiCuiDropDown.cpp">
<polygon fill="white" stroke="black" points="314.448,-0.5 314.448,-18.5 439.94,-18.5 439.94,-0.5 314.448,-0.5"/>
<text text-anchor="middle" x="377.194" y="-6.5" font-family="Helvetica,sans-Serif" font-size="10.00">ofxCuiCuiDropDown.cpp</text>
</a>
</g>
</g>
<!-- Node10&#45;&gt;Node11 -->
<g id="edge14" class="edge"><title>Node10&#45;&gt;Node11</title>
<path fill="none" stroke="midnightblue" d="M377.194,-45.1746C377.194,-36.0945 377.194,-25.5949 377.194,-18.5496"/>
<polygon fill="midnightblue" stroke="midnightblue" points="373.694,-45.2187 377.194,-55.2188 380.694,-45.2188 373.694,-45.2187"/>
</g>
<!-- Node12&#45;&gt;Node3 -->
<g id="edge16" class="edge"><title>Node12&#45;&gt;Node3</title>
<path fill="none" stroke="midnightblue" d="M678.646,-52.9883C718.602,-42.856 778.196,-27.7436 814.496,-18.5383"/>
<polygon fill="midnightblue" stroke="midnightblue" points="677.77,-49.5997 668.937,-55.4504 679.49,-56.3849 677.77,-49.5997"/>
</g>
<!-- Node13 -->
<g id="node13" class="node"><title>Node13</title>
<g id="a_node13"><a xlink:href="ofx_cui_cui_matrix_8cpp.html" target="_top" xlink:title="ofxCuiCuiMatrix.cpp">
<polygon fill="white" stroke="black" points="584.458,-0.5 584.458,-18.5 689.931,-18.5 689.931,-0.5 584.458,-0.5"/>
<text text-anchor="middle" x="637.194" y="-6.5" font-family="Helvetica,sans-Serif" font-size="10.00">ofxCuiCuiMatrix.cpp</text>
</a>
</g>
</g>
<!-- Node12&#45;&gt;Node13 -->
<g id="edge17" class="edge"><title>Node12&#45;&gt;Node13</title>
<path fill="none" stroke="midnightblue" d="M637.194,-45.1746C637.194,-36.0945 637.194,-25.5949 637.194,-18.5496"/>
<polygon fill="midnightblue" stroke="midnightblue" points="633.694,-45.2187 637.194,-55.2188 640.694,-45.2188 633.694,-45.2187"/>
</g>
<!-- Node15&#45;&gt;Node3 -->
<g id="edge20" class="edge"><title>Node15&#45;&gt;Node3</title>
<path fill="none" stroke="midnightblue" d="M1088.15,-100.286C1090.08,-86.189 1090.02,-67.0906 1079.19,-55 1053.99,-26.8519 945.202,-16.1928 885.607,-12.4129"/>
<polygon fill="midnightblue" stroke="midnightblue" points="1084.68,-99.8284 1086.36,-110.29 1091.57,-101.067 1084.68,-99.8284"/>
</g>
<!-- Node16 -->
<g id="node16" class="node"><title>Node16</title>
<g id="a_node16"><a xlink:href="ofx_cui_cui_group_8cpp.html" target="_top" xlink:title="ofxCuiCuiGroup.cpp">
<polygon fill="white" stroke="black" points="964.172,-55.5 964.172,-73.5 1070.22,-73.5 1070.22,-55.5 964.172,-55.5"/>
<text text-anchor="middle" x="1017.19" y="-61.5" font-family="Helvetica,sans-Serif" font-size="10.00">ofxCuiCuiGroup.cpp</text>
</a>
</g>
</g>
<!-- Node15&#45;&gt;Node16 -->
<g id="edge21" class="edge"><title>Node15&#45;&gt;Node16</title>
<path fill="none" stroke="midnightblue" d="M1066.13,-104.21C1053.73,-94.4052 1037.73,-81.7474 1027.47,-73.6253"/>
<polygon fill="midnightblue" stroke="midnightblue" points="1064,-106.991 1074.02,-110.45 1068.35,-101.501 1064,-106.991"/>
</g>
<!-- Node17&#45;&gt;Node3 -->
<g id="edge23" class="edge"><title>Node17&#45;&gt;Node3</title>
<path fill="none" stroke="midnightblue" d="M934.219,-100.171C931.974,-86.563 927.216,-68.1602 917.194,-55 904.238,-37.9868 882.751,-25.8394 866.802,-18.5793"/>
<polygon fill="midnightblue" stroke="midnightblue" points="930.774,-100.81 935.575,-110.254 937.711,-99.8767 930.774,-100.81"/>
</g>
<!-- Node18 -->
<g id="node18" class="node"><title>Node18</title>
<g id="a_node18"><a xlink:href="ofx_cui_cui_multi_slider_8cpp.html" target="_top" xlink:title="ofxCuiCuiMultiSlider.cpp">
<polygon fill="white" stroke="black" points="784.002,-55.5 784.002,-73.5 908.386,-73.5 908.386,-55.5 784.002,-55.5"/>
<text text-anchor="middle" x="846.194" y="-61.5" font-family="Helvetica,sans-Serif" font-size="10.00">ofxCuiCuiMultiSlider.cpp</text>
</a>
</g>
</g>
<!-- Node17&#45;&gt;Node18 -->
<g id="edge24" class="edge"><title>Node17&#45;&gt;Node18</title>
<path fill="none" stroke="midnightblue" d="M913.826,-105.328C896.943,-95.3856 874.315,-82.0598 859.992,-73.6253"/>
<polygon fill="midnightblue" stroke="midnightblue" points="912.132,-108.392 922.525,-110.45 915.684,-102.36 912.132,-108.392"/>
</g>
<!-- Node19&#45;&gt;Node3 -->
<g id="edge26" class="edge"><title>Node19&#45;&gt;Node3</title>
<path fill="none" stroke="midnightblue" d="M1336.54,-104.332C1315.71,-89.3381 1280.43,-66.313 1246.19,-55 1119.31,-13.0718 958.763,-8.95417 885.666,-9.5535"/>
<polygon fill="midnightblue" stroke="midnightblue" points="1334.65,-107.29 1344.78,-110.397 1338.8,-101.652 1334.65,-107.29"/>
</g>
<!-- Node20 -->
<g id="node20" class="node"><title>Node20</title>
<g id="a_node20"><a xlink:href="ofx_cui_cui_slider_8hpp.html" target="_top" xlink:title="ofxCuiCuiSlider.hpp">
<polygon fill="white" stroke="black" points="1448.28,-55.5 1448.28,-73.5 1552.11,-73.5 1552.11,-55.5 1448.28,-55.5"/>
<text text-anchor="middle" x="1500.19" y="-61.5" font-family="Helvetica,sans-Serif" font-size="10.00">ofxCuiCuiSlider.hpp</text>
</a>
</g>
</g>
<!-- Node19&#45;&gt;Node20 -->
<g id="edge27" class="edge"><title>Node19&#45;&gt;Node20</title>
<path fill="none" stroke="midnightblue" d="M1386.79,-106.952C1414.34,-96.8814 1453.61,-82.5284 1477.96,-73.6253"/>
<polygon fill="midnightblue" stroke="midnightblue" points="1385.41,-103.73 1377.22,-110.45 1387.81,-110.305 1385.41,-103.73"/>
</g>
<!-- Node22 -->
<g id="node22" class="node"><title>Node22</title>
<g id="a_node22"><a xlink:href="ofx_cui_cui_numbox_8cpp.html" target="_top" xlink:title="ofxCuiCuiNumbox.cpp">
<polygon fill="white" stroke="black" points="1314.45,-55.5 1314.45,-73.5 1429.94,-73.5 1429.94,-55.5 1314.45,-55.5"/>
<text text-anchor="middle" x="1372.19" y="-61.5" font-family="Helvetica,sans-Serif" font-size="10.00">ofxCuiCuiNumbox.cpp</text>
</a>
</g>
</g>
<!-- Node19&#45;&gt;Node22 -->
<g id="edge30" class="edge"><title>Node19&#45;&gt;Node22</title>
<path fill="none" stroke="midnightblue" d="M1360.98,-100.473C1363.91,-91.3257 1367.33,-80.6724 1369.61,-73.5496"/>
<polygon fill="midnightblue" stroke="midnightblue" points="1357.57,-99.6276 1357.85,-110.219 1364.24,-101.766 1357.57,-99.6276"/>
</g>
<!-- Node20&#45;&gt;Node3 -->
<g id="edge28" class="edge"><title>Node20&#45;&gt;Node3</title>
<path fill="none" stroke="midnightblue" d="M1437.8,-54.9174C1223.54,-32.2771 979.775,-17.7701 885.83,-12.6016"/>
<polygon fill="midnightblue" stroke="midnightblue" points="1437.66,-58.4227 1447.98,-56.0016 1438.4,-51.4621 1437.66,-58.4227"/>
</g>
<!-- Node21 -->
<g id="node21" class="node"><title>Node21</title>
<g id="a_node21"><a xlink:href="ofx_cui_cui_slider_8cpp.html" target="_top" xlink:title="ofxCuiCuiSlider.cpp">
<polygon fill="white" stroke="black" points="1448.56,-0.5 1448.56,-18.5 1551.83,-18.5 1551.83,-0.5 1448.56,-0.5"/>
<text text-anchor="middle" x="1500.19" y="-6.5" font-family="Helvetica,sans-Serif" font-size="10.00">ofxCuiCuiSlider.cpp</text>
</a>
</g>
</g>
<!-- Node20&#45;&gt;Node21 -->
<g id="edge29" class="edge"><title>Node20&#45;&gt;Node21</title>
<path fill="none" stroke="midnightblue" d="M1500.19,-45.1746C1500.19,-36.0945 1500.19,-25.5949 1500.19,-18.5496"/>
<polygon fill="midnightblue" stroke="midnightblue" points="1496.69,-45.2187 1500.19,-55.2188 1503.69,-45.2188 1496.69,-45.2187"/>
</g>
<!-- Node23&#45;&gt;Node3 -->
<g id="edge32" class="edge"><title>Node23&#45;&gt;Node3</title>
<path fill="none" stroke="midnightblue" d="M1564.69,-100.555C1569.29,-86.3329 1572.41,-66.9312 1561.19,-55 1537.91,-30.2171 1032.35,-15.2958 885.725,-11.4782"/>
<polygon fill="midnightblue" stroke="midnightblue" points="1561.3,-99.6189 1561.08,-110.212 1567.86,-102.066 1561.3,-99.6189"/>
</g>
<!-- Node24 -->
<g id="node24" class="node"><title>Node24</title>
<g id="a_node24"><a xlink:href="ofx_cui_cui_text_input_8cpp.html" target="_top" xlink:title="ofxCuiCuiTextInput.cpp">
<polygon fill="white" stroke="black" points="1607.78,-55.5 1607.78,-73.5 1726.61,-73.5 1726.61,-55.5 1607.78,-55.5"/>
<text text-anchor="middle" x="1667.19" y="-61.5" font-family="Helvetica,sans-Serif" font-size="10.00">ofxCuiCuiTextInput.cpp</text>
</a>
</g>
</g>
<!-- Node23&#45;&gt;Node24 -->
<g id="edge33" class="edge"><title>Node23&#45;&gt;Node24</title>
<path fill="none" stroke="midnightblue" d="M1583.11,-106.013C1603.88,-96.0052 1632.42,-82.2551 1650.33,-73.6253"/>
<polygon fill="midnightblue" stroke="midnightblue" points="1581.39,-102.957 1573.9,-110.45 1584.43,-109.263 1581.39,-102.957"/>
</g>
</g>
</svg>
