<?xml version="1.0" encoding="UTF-8" standalone="no"?>
<!DOCTYPE svg PUBLIC "-//W3C//DTD SVG 1.1//EN"
 "http://www.w3.org/Graphics/SVG/1.1/DTD/svg11.dtd">
<!-- Generated by graphviz version 2.38.0 (20140413.2041)
 -->
<!-- Title: ofxOuiGraph.cpp Pages: 1 -->
<svg width="148pt" height="247pt"
 viewBox="0.00 0.00 147.54 247.00" xmlns="http://www.w3.org/2000/svg" xmlns:xlink="http://www.w3.org/1999/xlink">
<g id="graph0" class="graph" transform="scale(1 1) rotate(0) translate(4 243)">
<title>ofxOuiGraph.cpp</title>
<polygon fill="white" stroke="none" points="-4,4 -4,-243 143.544,-243 143.544,4 -4,4"/>
<!-- Node0 -->
<g id="node1" class="node"><title>Node0</title>
<polygon fill="#bfbfbf" stroke="black" points="0.280762,-220.5 0.280762,-238.5 91.8765,-238.5 91.8765,-220.5 0.280762,-220.5"/>
<text text-anchor="middle" x="46.0786" y="-226.5" font-family="Helvetica,sans-Serif" font-size="10.00">ofxOuiGraph.cpp</text>
</g>
<!-- Node1 -->
<g id="node2" class="node"><title>Node1</title>
<g id="a_node2"><a xlink:href="ofx_oui_graph_8hpp.html" target="_top" xlink:title="ofxOuiGraph.hpp">
<polygon fill="white" stroke="black" points="0,-165.5 0,-183.5 92.1572,-183.5 92.1572,-165.5 0,-165.5"/>
<text text-anchor="middle" x="46.0786" y="-171.5" font-family="Helvetica,sans-Serif" font-size="10.00">ofxOuiGraph.hpp</text>
</a>
</g>
</g>
<!-- Node0&#45;&gt;Node1 -->
<g id="edge1" class="edge"><title>Node0&#45;&gt;Node1</title>
<path fill="none" stroke="midnightblue" d="M46.0786,-220.219C46.0786,-213.177 46.0786,-202.808 46.0786,-193.828"/>
<polygon fill="midnightblue" stroke="midnightblue" points="49.5787,-193.55 46.0786,-183.55 42.5787,-193.55 49.5787,-193.55"/>
</g>
<!-- Node2 -->
<g id="node3" class="node"><title>Node2</title>
<polygon fill="white" stroke="#bfbfbf" points="19.9014,-0.5 19.9014,-18.5 74.2559,-18.5 74.2559,-0.5 19.9014,-0.5"/>
<text text-anchor="middle" x="47.0786" y="-6.5" font-family="Helvetica,sans-Serif" font-size="10.00">ofMain.h</text>
</g>
<!-- Node1&#45;&gt;Node2 -->
<g id="edge2" class="edge"><title>Node1&#45;&gt;Node2</title>
<path fill="none" stroke="midnightblue" d="M41.4268,-165.289C36.7789,-156.593 29.9269,-142.307 27.0786,-129 20.1944,-96.8366 18.8858,-87.0958 26.0786,-55 28.2302,-45.3993 32.6962,-35.4303 36.9588,-27.3675"/>
<polygon fill="midnightblue" stroke="midnightblue" points="40.0223,-29.0603 41.8879,-18.6311 33.9257,-25.6206 40.0223,-29.0603"/>
</g>
<!-- Node3 -->
<g id="node4" class="node"><title>Node3</title>
<g id="a_node4"><a xlink:href="ofx_oui_text_box_8hpp.html" target="_top" xlink:title="ofxOuiTextBox.hpp">
<polygon fill="white" stroke="black" points="36.1108,-110.5 36.1108,-128.5 136.046,-128.5 136.046,-110.5 36.1108,-110.5"/>
<text text-anchor="middle" x="86.0786" y="-116.5" font-family="Helvetica,sans-Serif" font-size="10.00">ofxOuiTextBox.hpp</text>
</a>
</g>
</g>
<!-- Node1&#45;&gt;Node3 -->
<g id="edge3" class="edge"><title>Node1&#45;&gt;Node3</title>
<path fill="none" stroke="midnightblue" d="M52.3286,-165.219C58.0566,-157.629 66.701,-146.175 73.8072,-136.76"/>
<polygon fill="midnightblue" stroke="midnightblue" points="76.773,-138.64 80.0035,-128.55 71.1857,-134.423 76.773,-138.64"/>
</g>
<!-- Node4 -->
<g id="node5" class="node"><title>Node4</title>
<g id="a_node5"><a xlink:href="ofx_oui_common_8hpp.html" target="_top" xlink:title="ofxOuiCommon.hpp">
<polygon fill="white" stroke="black" points="34.6133,-55.5 34.6133,-73.5 139.544,-73.5 139.544,-55.5 34.6133,-55.5"/>
<text text-anchor="middle" x="87.0786" y="-61.5" font-family="Helvetica,sans-Serif" font-size="10.00">ofxOuiCommon.hpp</text>
</a>
</g>
</g>
<!-- Node3&#45;&gt;Node4 -->
<g id="edge4" class="edge"><title>Node3&#45;&gt;Node4</title>
<path fill="none" stroke="midnightblue" d="M86.2349,-110.219C86.3677,-103.177 86.5634,-92.8083 86.7328,-83.8277"/>
<polygon fill="midnightblue" stroke="midnightblue" points="90.2374,-83.6138 86.9267,-73.5496 83.2386,-83.4817 90.2374,-83.6138"/>
</g>
<!-- Node4&#45;&gt;Node2 -->
<g id="edge5" class="edge"><title>Node4&#45;&gt;Node2</title>
<path fill="none" stroke="midnightblue" d="M80.8286,-55.2188C75.1006,-47.6292 66.4562,-36.1753 59.3501,-26.7597"/>
<polygon fill="midnightblue" stroke="midnightblue" points="61.9715,-24.423 53.1538,-18.5496 56.3842,-28.6399 61.9715,-24.423"/>
</g>
</g>
</svg>
