<?xml version="1.0" encoding="UTF-8" standalone="no"?>
<!DOCTYPE svg PUBLIC "-//W3C//DTD SVG 1.1//EN"
 "http://www.w3.org/Graphics/SVG/1.1/DTD/svg11.dtd">
<!-- Generated by graphviz version 2.38.0 (20140413.2041)
 -->
<!-- Title: ofxCuiCuiGraph.cpp Pages: 1 -->
<svg width="115pt" height="137pt"
 viewBox="0.00 0.00 114.61 137.00" xmlns="http://www.w3.org/2000/svg" xmlns:xlink="http://www.w3.org/1999/xlink">
<g id="graph0" class="graph" transform="scale(1 1) rotate(0) translate(4 133)">
<title>ofxCuiCuiGraph.cpp</title>
<polygon fill="white" stroke="none" points="-4,4 -4,-133 110.605,-133 110.605,4 -4,4"/>
<!-- Node1 -->
<g id="node1" class="node"><title>Node1</title>
<polygon fill="#bfbfbf" stroke="black" points="0.280762,-110.5 0.280762,-128.5 106.325,-128.5 106.325,-110.5 0.280762,-110.5"/>
<text text-anchor="middle" x="53.3027" y="-116.5" font-family="Helvetica,sans-Serif" font-size="10.00">ofxCuiCuiGraph.cpp</text>
</g>
<!-- Node2 -->
<g id="node2" class="node"><title>Node2</title>
<g id="a_node2"><a xlink:href="ofx_cui_cui_graph_8hpp.html" target="_top" xlink:title="ofxCuiCuiGraph.hpp">
<polygon fill="white" stroke="black" points="0,-55.5 0,-73.5 106.605,-73.5 106.605,-55.5 0,-55.5"/>
<text text-anchor="middle" x="53.3027" y="-61.5" font-family="Helvetica,sans-Serif" font-size="10.00">ofxCuiCuiGraph.hpp</text>
</a>
</g>
</g>
<!-- Node1&#45;&gt;Node2 -->
<g id="edge1" class="edge"><title>Node1&#45;&gt;Node2</title>
<path fill="none" stroke="midnightblue" d="M53.3027,-110.219C53.3027,-103.177 53.3027,-92.8083 53.3027,-83.8277"/>
<polygon fill="midnightblue" stroke="midnightblue" points="56.8028,-83.5495 53.3027,-73.5496 49.8028,-83.5496 56.8028,-83.5495"/>
</g>
<!-- Node3 -->
<g id="node3" class="node"><title>Node3</title>
<polygon fill="white" stroke="#bfbfbf" points="26.1255,-0.5 26.1255,-18.5 80.48,-18.5 80.48,-0.5 26.1255,-0.5"/>
<text text-anchor="middle" x="53.3027" y="-6.5" font-family="Helvetica,sans-Serif" font-size="10.00">ofMain.h</text>
</g>
<!-- Node2&#45;&gt;Node3 -->
<g id="edge2" class="edge"><title>Node2&#45;&gt;Node3</title>
<path fill="none" stroke="midnightblue" d="M53.3027,-55.2188C53.3027,-48.1769 53.3027,-37.8083 53.3027,-28.8277"/>
<polygon fill="midnightblue" stroke="midnightblue" points="56.8028,-28.5495 53.3027,-18.5496 49.8028,-28.5496 56.8028,-28.5495"/>
</g>
</g>
</svg>
