<?xml version="1.0" encoding="UTF-8" standalone="no"?>
<!DOCTYPE svg PUBLIC "-//W3C//DTD SVG 1.1//EN"
 "http://www.w3.org/Graphics/SVG/1.1/DTD/svg11.dtd">
<!-- Generated by graphviz version 2.38.0 (20140413.2041)
 -->
<!-- Title: ofxOuiGraph.hpp Pages: 1 -->
<svg width="385pt" height="137pt"
 viewBox="0.00 0.00 385.20 137.00" xmlns="http://www.w3.org/2000/svg" xmlns:xlink="http://www.w3.org/1999/xlink">
<g id="graph0" class="graph" transform="scale(1 1) rotate(0) translate(4 133)">
<title>ofxOuiGraph.hpp</title>
<polygon fill="white" stroke="none" points="-4,4 -4,-133 381.204,-133 381.204,4 -4,4"/>
<!-- Node4 -->
<g id="node1" class="node"><title>Node4</title>
<polygon fill="#bfbfbf" stroke="black" points="124.328,-110.5 124.328,-128.5 216.485,-128.5 216.485,-110.5 124.328,-110.5"/>
<text text-anchor="middle" x="170.406" y="-116.5" font-family="Helvetica,sans-Serif" font-size="10.00">ofxOuiGraph.hpp</text>
</g>
<!-- Node5 -->
<g id="node2" class="node"><title>Node5</title>
<g id="a_node2"><a xlink:href="ofx_oui_bpf_8hpp.html" target="_top" xlink:title="ofxOuiBpf.hpp">
<polygon fill="white" stroke="black" points="21.7192,-55.5 21.7192,-73.5 101.093,-73.5 101.093,-55.5 21.7192,-55.5"/>
<text text-anchor="middle" x="61.4062" y="-61.5" font-family="Helvetica,sans-Serif" font-size="10.00">ofxOuiBpf.hpp</text>
</a>
</g>
</g>
<!-- Node4&#45;&gt;Node5 -->
<g id="edge1" class="edge"><title>Node4&#45;&gt;Node5</title>
<path fill="none" stroke="midnightblue" d="M144.725,-106.013C124.143,-96.0052 95.8648,-82.2551 78.1168,-73.6253"/>
<polygon fill="midnightblue" stroke="midnightblue" points="143.328,-109.225 153.851,-110.45 146.389,-102.93 143.328,-109.225"/>
</g>
<!-- Node6 -->
<g id="node3" class="node"><title>Node6</title>
<g id="a_node3"><a xlink:href="ofx_oui_8hpp.html" target="_top" xlink:title="ofxOui.hpp">
<polygon fill="white" stroke="black" points="97.2241,-0.5 97.2241,-18.5 161.588,-18.5 161.588,-0.5 97.2241,-0.5"/>
<text text-anchor="middle" x="129.406" y="-6.5" font-family="Helvetica,sans-Serif" font-size="10.00">ofxOui.hpp</text>
</a>
</g>
</g>
<!-- Node4&#45;&gt;Node6 -->
<g id="edge7" class="edge"><title>Node4&#45;&gt;Node6</title>
<path fill="none" stroke="midnightblue" d="M161.213,-101.602C156.977,-93.4141 152.086,-83.3503 148.406,-74 140.821,-54.7259 134.509,-31.1626 131.43,-18.8706"/>
<polygon fill="midnightblue" stroke="midnightblue" points="158.149,-103.294 165.93,-110.485 164.332,-100.011 158.149,-103.294"/>
</g>
<!-- Node8 -->
<g id="node5" class="node"><title>Node8</title>
<g id="a_node5"><a xlink:href="ofx_oui_waveform_8hpp.html" target="_top" xlink:title="ofxOuiWaveform.hpp">
<polygon fill="white" stroke="black" points="157.626,-55.5 157.626,-73.5 267.186,-73.5 267.186,-55.5 157.626,-55.5"/>
<text text-anchor="middle" x="212.406" y="-61.5" font-family="Helvetica,sans-Serif" font-size="10.00">ofxOuiWaveform.hpp</text>
</a>
</g>
</g>
<!-- Node4&#45;&gt;Node8 -->
<g id="edge4" class="edge"><title>Node4&#45;&gt;Node8</title>
<path fill="none" stroke="midnightblue" d="M183.289,-102.243C190.828,-92.7302 200.015,-81.1369 206.027,-73.5496"/>
<polygon fill="midnightblue" stroke="midnightblue" points="180.436,-100.207 176.969,-110.219 185.923,-104.555 180.436,-100.207"/>
</g>
<!-- Node10 -->
<g id="node7" class="node"><title>Node10</title>
<g id="a_node7"><a xlink:href="ofx_oui_graph_8cpp.html" target="_top" xlink:title="ofxOuiGraph.cpp">
<polygon fill="white" stroke="black" points="285.608,-55.5 285.608,-73.5 377.204,-73.5 377.204,-55.5 285.608,-55.5"/>
<text text-anchor="middle" x="331.406" y="-61.5" font-family="Helvetica,sans-Serif" font-size="10.00">ofxOuiGraph.cpp</text>
</a>
</g>
</g>
<!-- Node4&#45;&gt;Node10 -->
<g id="edge8" class="edge"><title>Node4&#45;&gt;Node10</title>
<path fill="none" stroke="midnightblue" d="M204.714,-107.206C235.44,-97.0914 279.736,-82.5095 306.988,-73.5383"/>
<polygon fill="midnightblue" stroke="midnightblue" points="203.263,-103.999 194.859,-110.45 205.452,-110.648 203.263,-103.999"/>
</g>
<!-- Node5&#45;&gt;Node6 -->
<g id="edge2" class="edge"><title>Node5&#45;&gt;Node6</title>
<path fill="none" stroke="midnightblue" d="M79.7412,-49.2095C92.3203,-39.4052 108.56,-26.7474 118.981,-18.6253"/>
<polygon fill="midnightblue" stroke="midnightblue" points="77.4697,-46.5424 71.734,-55.4504 81.7729,-52.0635 77.4697,-46.5424"/>
</g>
<!-- Node7 -->
<g id="node4" class="node"><title>Node7</title>
<g id="a_node4"><a xlink:href="ofx_oui_bpf_8cpp.html" target="_top" xlink:title="ofxOuiBpf.cpp">
<polygon fill="white" stroke="black" points="0,-0.5 0,-18.5 78.8125,-18.5 78.8125,-0.5 0,-0.5"/>
<text text-anchor="middle" x="39.4062" y="-6.5" font-family="Helvetica,sans-Serif" font-size="10.00">ofxOuiBpf.cpp</text>
</a>
</g>
</g>
<!-- Node5&#45;&gt;Node7 -->
<g id="edge3" class="edge"><title>Node5&#45;&gt;Node7</title>
<path fill="none" stroke="midnightblue" d="M54.0471,-45.7712C50.2226,-36.5577 45.7364,-25.7498 42.7476,-18.5496"/>
<polygon fill="midnightblue" stroke="midnightblue" points="50.9023,-47.3247 57.9688,-55.2188 57.3675,-44.641 50.9023,-47.3247"/>
</g>
<!-- Node8&#45;&gt;Node6 -->
<g id="edge5" class="edge"><title>Node8&#45;&gt;Node6</title>
<path fill="none" stroke="midnightblue" d="M191.344,-50.0507C175.822,-40.1393 155.217,-26.9817 142.131,-18.6253"/>
<polygon fill="midnightblue" stroke="midnightblue" points="189.488,-53.0184 199.8,-55.4504 193.256,-47.1186 189.488,-53.0184"/>
</g>
<!-- Node9 -->
<g id="node6" class="node"><title>Node9</title>
<g id="a_node6"><a xlink:href="ofx_oui_waveform_8cpp.html" target="_top" xlink:title="ofxOuiWaveform.cpp">
<polygon fill="white" stroke="black" points="179.907,-0.5 179.907,-18.5 288.905,-18.5 288.905,-0.5 179.907,-0.5"/>
<text text-anchor="middle" x="234.406" y="-6.5" font-family="Helvetica,sans-Serif" font-size="10.00">ofxOuiWaveform.cpp</text>
</a>
</g>
</g>
<!-- Node8&#45;&gt;Node9 -->
<g id="edge6" class="edge"><title>Node8&#45;&gt;Node9</title>
<path fill="none" stroke="midnightblue" d="M219.765,-45.7712C223.59,-36.5577 228.076,-25.7498 231.065,-18.5496"/>
<polygon fill="midnightblue" stroke="midnightblue" points="216.445,-44.641 215.844,-55.2188 222.91,-47.3247 216.445,-44.641"/>
</g>
</g>
</svg>
