<?xml version="1.0" encoding="UTF-8" standalone="no"?>
<!DOCTYPE svg PUBLIC "-//W3C//DTD SVG 1.1//EN"
 "http://www.w3.org/Graphics/SVG/1.1/DTD/svg11.dtd">
<!-- Generated by graphviz version 2.38.0 (20140413.2041)
 -->
<!-- Title: ofxCuiCuiIcon.cpp Pages: 1 -->
<svg width="127pt" height="192pt"
 viewBox="0.00 0.00 127.38 192.00" xmlns="http://www.w3.org/2000/svg" xmlns:xlink="http://www.w3.org/1999/xlink">
<g id="graph0" class="graph" transform="scale(1 1) rotate(0) translate(4 188)">
<title>ofxCuiCuiIcon.cpp</title>
<polygon fill="white" stroke="none" points="-4,4 -4,-188 123.379,-188 123.379,4 -4,4"/>
<!-- Node1 -->
<g id="node1" class="node"><title>Node1</title>
<polygon fill="#bfbfbf" stroke="black" points="11.1133,-165.5 11.1133,-183.5 108.266,-183.5 108.266,-165.5 11.1133,-165.5"/>
<text text-anchor="middle" x="59.6895" y="-171.5" font-family="Helvetica,sans-Serif" font-size="10.00">ofxCuiCuiIcon.cpp</text>
</g>
<!-- Node2 -->
<g id="node2" class="node"><title>Node2</title>
<g id="a_node2"><a xlink:href="ofx_cui_cui_icon_8hpp.html" target="_top" xlink:title="ofxCuiCuiIcon.hpp">
<polygon fill="white" stroke="black" points="10.8325,-110.5 10.8325,-128.5 108.546,-128.5 108.546,-110.5 10.8325,-110.5"/>
<text text-anchor="middle" x="59.6895" y="-116.5" font-family="Helvetica,sans-Serif" font-size="10.00">ofxCuiCuiIcon.hpp</text>
</a>
</g>
</g>
<!-- Node1&#45;&gt;Node2 -->
<g id="edge1" class="edge"><title>Node1&#45;&gt;Node2</title>
<path fill="none" stroke="midnightblue" d="M59.6895,-165.219C59.6895,-158.177 59.6895,-147.808 59.6895,-138.828"/>
<polygon fill="midnightblue" stroke="midnightblue" points="63.1896,-138.55 59.6895,-128.55 56.1896,-138.55 63.1896,-138.55"/>
</g>
<!-- Node3 -->
<g id="node3" class="node"><title>Node3</title>
<g id="a_node3"><a xlink:href="ofx_cui_cui_common_8hpp.html" target="_top" xlink:title="ofxCuiCuiCommon.hpp">
<polygon fill="white" stroke="black" points="0,-55.5 0,-73.5 119.379,-73.5 119.379,-55.5 0,-55.5"/>
<text text-anchor="middle" x="59.6895" y="-61.5" font-family="Helvetica,sans-Serif" font-size="10.00">ofxCuiCuiCommon.hpp</text>
</a>
</g>
</g>
<!-- Node2&#45;&gt;Node3 -->
<g id="edge2" class="edge"><title>Node2&#45;&gt;Node3</title>
<path fill="none" stroke="midnightblue" d="M59.6895,-110.219C59.6895,-103.177 59.6895,-92.8083 59.6895,-83.8277"/>
<polygon fill="midnightblue" stroke="midnightblue" points="63.1896,-83.5495 59.6895,-73.5496 56.1896,-83.5496 63.1896,-83.5495"/>
</g>
<!-- Node4 -->
<g id="node4" class="node"><title>Node4</title>
<polygon fill="white" stroke="#bfbfbf" points="32.5122,-0.5 32.5122,-18.5 86.8667,-18.5 86.8667,-0.5 32.5122,-0.5"/>
<text text-anchor="middle" x="59.6895" y="-6.5" font-family="Helvetica,sans-Serif" font-size="10.00">ofMain.h</text>
</g>
<!-- Node3&#45;&gt;Node4 -->
<g id="edge3" class="edge"><title>Node3&#45;&gt;Node4</title>
<path fill="none" stroke="midnightblue" d="M59.6895,-55.2188C59.6895,-48.1769 59.6895,-37.8083 59.6895,-28.8277"/>
<polygon fill="midnightblue" stroke="midnightblue" points="63.1896,-28.5495 59.6895,-18.5496 56.1896,-28.5496 63.1896,-28.5495"/>
</g>
</g>
</svg>
