<?xml version="1.0" encoding="UTF-8" standalone="no"?>
<!DOCTYPE svg PUBLIC "-//W3C//DTD SVG 1.1//EN"
 "http://www.w3.org/Graphics/SVG/1.1/DTD/svg11.dtd">
<!-- Generated by graphviz version 2.38.0 (20140413.2041)
 -->
<!-- Title: ofxOuiIcon.hpp Pages: 1 -->
<svg width="1759pt" height="247pt"
 viewBox="0.00 0.00 1759.22 247.00" xmlns="http://www.w3.org/2000/svg" xmlns:xlink="http://www.w3.org/1999/xlink">
<g id="graph0" class="graph" transform="scale(1 1) rotate(0) translate(4 243)">
<title>ofxOuiIcon.hpp</title>
<polygon fill="white" stroke="none" points="-4,4 -4,-243 1755.22,-243 1755.22,4 -4,4"/>
<!-- Node3 -->
<g id="node1" class="node"><title>Node3</title>
<polygon fill="#bfbfbf" stroke="black" points="665.795,-220.5 665.795,-238.5 749.061,-238.5 749.061,-220.5 665.795,-220.5"/>
<text text-anchor="middle" x="707.428" y="-226.5" font-family="Helvetica,sans-Serif" font-size="10.00">ofxOuiIcon.hpp</text>
</g>
<!-- Node4 -->
<g id="node2" class="node"><title>Node4</title>
<g id="a_node2"><a xlink:href="ofx_oui_component_8hpp.html" target="_top" xlink:title="ofxOuiComponent.hpp">
<polygon fill="white" stroke="black" points="649.396,-165.5 649.396,-183.5 765.46,-183.5 765.46,-165.5 649.396,-165.5"/>
<text text-anchor="middle" x="707.428" y="-171.5" font-family="Helvetica,sans-Serif" font-size="10.00">ofxOuiComponent.hpp</text>
</a>
</g>
</g>
<!-- Node3&#45;&gt;Node4 -->
<g id="edge1" class="edge"><title>Node3&#45;&gt;Node4</title>
<path fill="none" stroke="midnightblue" d="M707.428,-210.175C707.428,-201.094 707.428,-190.595 707.428,-183.55"/>
<polygon fill="midnightblue" stroke="midnightblue" points="703.928,-210.219 707.428,-220.219 710.928,-210.219 703.928,-210.219"/>
</g>
<!-- Node6 -->
<g id="node4" class="node"><title>Node6</title>
<g id="a_node4"><a xlink:href="ofx_oui_8hpp.html" target="_top" xlink:title="ofxOui.hpp">
<polygon fill="white" stroke="black" points="772.246,-0.5 772.246,-18.5 836.61,-18.5 836.61,-0.5 772.246,-0.5"/>
<text text-anchor="middle" x="804.428" y="-6.5" font-family="Helvetica,sans-Serif" font-size="10.00">ofxOui.hpp</text>
</a>
</g>
</g>
<!-- Node3&#45;&gt;Node6 -->
<g id="edge40" class="edge"><title>Node3&#45;&gt;Node6</title>
<path fill="none" stroke="midnightblue" d="M655.694,-224.35C479.356,-209.262 -82.2347,-153.001 10.4279,-55 37.0169,-26.8791 626.287,-13.8783 772.045,-11.086"/>
<polygon fill="midnightblue" stroke="midnightblue" points="655.506,-227.846 665.765,-225.203 656.096,-220.871 655.506,-227.846"/>
</g>
<!-- Node31 -->
<g id="node29" class="node"><title>Node31</title>
<g id="a_node29"><a xlink:href="ofx_oui_icon_8cpp.html" target="_top" xlink:title="ofxOuiIcon.cpp">
<polygon fill="white" stroke="black" points="783.076,-165.5 783.076,-183.5 865.78,-183.5 865.78,-165.5 783.076,-165.5"/>
<text text-anchor="middle" x="824.428" y="-171.5" font-family="Helvetica,sans-Serif" font-size="10.00">ofxOuiIcon.cpp</text>
</a>
</g>
</g>
<!-- Node3&#45;&gt;Node31 -->
<g id="edge41" class="edge"><title>Node3&#45;&gt;Node31</title>
<path fill="none" stroke="midnightblue" d="M734.397,-216.283C756.536,-206.254 787.268,-192.333 806.491,-183.625"/>
<polygon fill="midnightblue" stroke="midnightblue" points="732.862,-213.136 725.198,-220.45 735.751,-219.512 732.862,-213.136"/>
</g>
<!-- Node5 -->
<g id="node3" class="node"><title>Node5</title>
<g id="a_node3"><a xlink:href="ofx_oui_bpf_8hpp.html" target="_top" xlink:title="ofxOuiBpf.hpp">
<polygon fill="white" stroke="black" points="908.741,-110.5 908.741,-128.5 988.115,-128.5 988.115,-110.5 908.741,-110.5"/>
<text text-anchor="middle" x="948.428" y="-116.5" font-family="Helvetica,sans-Serif" font-size="10.00">ofxOuiBpf.hpp</text>
</a>
</g>
</g>
<!-- Node4&#45;&gt;Node5 -->
<g id="edge2" class="edge"><title>Node4&#45;&gt;Node5</title>
<path fill="none" stroke="midnightblue" d="M754.06,-163.245C800.133,-153.113 869.664,-137.822 911.876,-128.538"/>
<polygon fill="midnightblue" stroke="midnightblue" points="753.045,-159.884 744.031,-165.45 754.549,-166.721 753.045,-159.884"/>
</g>
<!-- Node4&#45;&gt;Node6 -->
<g id="edge38" class="edge"><title>Node4&#45;&gt;Node6</title>
<path fill="none" stroke="midnightblue" d="M717.718,-156.209C738.462,-121.35 784.601,-43.8171 799.609,-18.5971"/>
<polygon fill="midnightblue" stroke="midnightblue" points="714.478,-154.809 712.372,-165.193 720.493,-158.389 714.478,-154.809"/>
</g>
<!-- Node8 -->
<g id="node6" class="node"><title>Node8</title>
<g id="a_node6"><a xlink:href="ofx_oui_button_8hpp.html" target="_top" xlink:title="ofxOuiButton.hpp">
<polygon fill="white" stroke="black" points="1251.79,-110.5 1251.79,-128.5 1345.07,-128.5 1345.07,-110.5 1251.79,-110.5"/>
<text text-anchor="middle" x="1298.43" y="-116.5" font-family="Helvetica,sans-Serif" font-size="10.00">ofxOuiButton.hpp</text>
</a>
</g>
</g>
<!-- Node4&#45;&gt;Node8 -->
<g id="edge5" class="edge"><title>Node4&#45;&gt;Node8</title>
<path fill="none" stroke="midnightblue" d="M775.556,-164.922C957.88,-145.808 1161.78,-130.335 1251.75,-123.811"/>
<polygon fill="midnightblue" stroke="midnightblue" points="775.093,-161.452 765.515,-165.981 775.827,-168.413 775.093,-161.452"/>
</g>
<!-- Node18 -->
<g id="node16" class="node"><title>Node18</title>
<g id="a_node16"><a xlink:href="ofx_oui_group_8hpp.html" target="_top" xlink:title="ofxOuiGroup.hpp">
<polygon fill="white" stroke="black" points="1006.35,-110.5 1006.35,-128.5 1098.51,-128.5 1098.51,-110.5 1006.35,-110.5"/>
<text text-anchor="middle" x="1052.43" y="-116.5" font-family="Helvetica,sans-Serif" font-size="10.00">ofxOuiGroup.hpp</text>
</a>
</g>
</g>
<!-- Node4&#45;&gt;Node18 -->
<g id="edge20" class="edge"><title>Node4&#45;&gt;Node18</title>
<path fill="none" stroke="midnightblue" d="M770.049,-163.911C828.785,-154.912 919.067,-141.067 997.428,-129 1000.29,-128.559 1003.24,-128.104 1006.21,-127.646"/>
<polygon fill="midnightblue" stroke="midnightblue" points="769.174,-160.504 759.82,-165.478 770.234,-167.423 769.174,-160.504"/>
</g>
<!-- Node20 -->
<g id="node18" class="node"><title>Node20</title>
<g id="a_node18"><a xlink:href="ofx_oui_multi_slider_8hpp.html" target="_top" xlink:title="ofxOuiMultiSlider.hpp">
<polygon fill="white" stroke="black" points="359.179,-110.5 359.179,-128.5 469.676,-128.5 469.676,-110.5 359.179,-110.5"/>
<text text-anchor="middle" x="414.428" y="-116.5" font-family="Helvetica,sans-Serif" font-size="10.00">ofxOuiMultiSlider.hpp</text>
</a>
</g>
</g>
<!-- Node4&#45;&gt;Node20 -->
<g id="edge23" class="edge"><title>Node4&#45;&gt;Node20</title>
<path fill="none" stroke="midnightblue" d="M652.839,-163.626C596.856,-153.499 510.834,-137.939 458.866,-128.538"/>
<polygon fill="midnightblue" stroke="midnightblue" points="652.464,-167.114 662.928,-165.45 653.71,-160.226 652.464,-167.114"/>
</g>
<!-- Node22 -->
<g id="node20" class="node"><title>Node22</title>
<g id="a_node20"><a xlink:href="ofx_oui_numbox_8hpp.html" target="_top" xlink:title="ofxOuiNumbox.hpp">
<polygon fill="white" stroke="black" points="126.628,-110.5 126.628,-128.5 228.228,-128.5 228.228,-110.5 126.628,-110.5"/>
<text text-anchor="middle" x="177.428" y="-116.5" font-family="Helvetica,sans-Serif" font-size="10.00">ofxOuiNumbox.hpp</text>
</a>
</g>
</g>
<!-- Node4&#45;&gt;Node22 -->
<g id="edge26" class="edge"><title>Node4&#45;&gt;Node22</title>
<path fill="none" stroke="midnightblue" d="M639.074,-166.665C531.242,-155.881 324.081,-135.165 228.297,-125.587"/>
<polygon fill="midnightblue" stroke="midnightblue" points="638.894,-170.164 649.193,-167.676 639.59,-163.199 638.894,-170.164"/>
</g>
<!-- Node26 -->
<g id="node24" class="node"><title>Node26</title>
<g id="a_node24"><a xlink:href="ofx_oui_text_input_8hpp.html" target="_top" xlink:title="ofxOuiTextInput.hpp">
<polygon fill="white" stroke="black" points="614.955,-110.5 614.955,-128.5 719.901,-128.5 719.901,-110.5 614.955,-110.5"/>
<text text-anchor="middle" x="667.428" y="-116.5" font-family="Helvetica,sans-Serif" font-size="10.00">ofxOuiTextInput.hpp</text>
</a>
</g>
</g>
<!-- Node4&#45;&gt;Node26 -->
<g id="edge32" class="edge"><title>Node4&#45;&gt;Node26</title>
<path fill="none" stroke="midnightblue" d="M694.938,-156.951C687.801,-147.494 679.171,-136.059 673.503,-128.55"/>
<polygon fill="midnightblue" stroke="midnightblue" points="692.36,-159.345 701.178,-165.219 697.947,-155.128 692.36,-159.345"/>
</g>
<!-- Node28 -->
<g id="node26" class="node"><title>Node28</title>
<g id="a_node26"><a xlink:href="ofx_oui_waveform_8hpp.html" target="_top" xlink:title="ofxOuiWaveform.hpp">
<polygon fill="white" stroke="black" points="487.648,-110.5 487.648,-128.5 597.208,-128.5 597.208,-110.5 487.648,-110.5"/>
<text text-anchor="middle" x="542.428" y="-116.5" font-family="Helvetica,sans-Serif" font-size="10.00">ofxOuiWaveform.hpp</text>
</a>
</g>
</g>
<!-- Node4&#45;&gt;Node28 -->
<g id="edge35" class="edge"><title>Node4&#45;&gt;Node28</title>
<path fill="none" stroke="midnightblue" d="M672.677,-162.338C641.174,-152.218 595.504,-137.549 567.453,-128.538"/>
<polygon fill="midnightblue" stroke="midnightblue" points="671.777,-165.724 682.368,-165.45 673.917,-159.06 671.777,-165.724"/>
</g>
<!-- Node30 -->
<g id="node28" class="node"><title>Node30</title>
<g id="a_node28"><a xlink:href="ofx_oui_component_8cpp.html" target="_top" xlink:title="ofxOuiComponent.cpp">
<polygon fill="white" stroke="black" points="775.677,-110.5 775.677,-128.5 891.179,-128.5 891.179,-110.5 775.677,-110.5"/>
<text text-anchor="middle" x="833.428" y="-116.5" font-family="Helvetica,sans-Serif" font-size="10.00">ofxOuiComponent.cpp</text>
</a>
</g>
</g>
<!-- Node4&#45;&gt;Node30 -->
<g id="edge39" class="edge"><title>Node4&#45;&gt;Node30</title>
<path fill="none" stroke="midnightblue" d="M735.832,-161.552C759.719,-151.505 793.224,-137.411 814.111,-128.625"/>
<polygon fill="midnightblue" stroke="midnightblue" points="734.425,-158.347 726.565,-165.45 737.139,-164.799 734.425,-158.347"/>
</g>
<!-- Node5&#45;&gt;Node6 -->
<g id="edge3" class="edge"><title>Node5&#45;&gt;Node6</title>
<path fill="none" stroke="midnightblue" d="M905.332,-107.302C884.59,-100.296 860.39,-89.5799 842.428,-74 824.376,-58.3421 812.496,-31.9159 807.349,-18.6347"/>
<polygon fill="midnightblue" stroke="midnightblue" points="904.297,-110.645 914.888,-110.355 906.428,-103.977 904.297,-110.645"/>
</g>
<!-- Node7 -->
<g id="node5" class="node"><title>Node7</title>
<g id="a_node5"><a xlink:href="ofx_oui_bpf_8cpp.html" target="_top" xlink:title="ofxOuiBpf.cpp">
<polygon fill="white" stroke="black" points="851.022,-55.5 851.022,-73.5 929.834,-73.5 929.834,-55.5 851.022,-55.5"/>
<text text-anchor="middle" x="890.428" y="-61.5" font-family="Helvetica,sans-Serif" font-size="10.00">ofxOuiBpf.cpp</text>
</a>
</g>
</g>
<!-- Node5&#45;&gt;Node7 -->
<g id="edge4" class="edge"><title>Node5&#45;&gt;Node7</title>
<path fill="none" stroke="midnightblue" d="M931.9,-103.397C921.27,-93.6833 907.879,-81.4466 899.237,-73.5496"/>
<polygon fill="midnightblue" stroke="midnightblue" points="929.622,-106.057 939.365,-110.219 934.344,-100.889 929.622,-106.057"/>
</g>
<!-- Node8&#45;&gt;Node6 -->
<g id="edge6" class="edge"><title>Node8&#45;&gt;Node6</title>
<path fill="none" stroke="midnightblue" d="M1253.91,-108.042C1218.61,-99.5272 1168.13,-86.8529 1124.43,-74 1098.81,-66.4648 1093.34,-61.4689 1067.43,-55 985.432,-34.5268 886.684,-20.6284 836.741,-14.3354"/>
<polygon fill="midnightblue" stroke="midnightblue" points="1253.35,-111.508 1263.89,-110.438 1254.99,-104.701 1253.35,-111.508"/>
</g>
<!-- Node9 -->
<g id="node7" class="node"><title>Node9</title>
<g id="a_node7"><a xlink:href="ofx_oui_check_box_8hpp.html" target="_top" xlink:title="ofxOuiCheckBox.hpp">
<polygon fill="white" stroke="black" points="1243.46,-55.5 1243.46,-73.5 1353.4,-73.5 1353.4,-55.5 1243.46,-55.5"/>
<text text-anchor="middle" x="1298.43" y="-61.5" font-family="Helvetica,sans-Serif" font-size="10.00">ofxOuiCheckBox.hpp</text>
</a>
</g>
</g>
<!-- Node8&#45;&gt;Node9 -->
<g id="edge7" class="edge"><title>Node8&#45;&gt;Node9</title>
<path fill="none" stroke="midnightblue" d="M1298.43,-100.175C1298.43,-91.0945 1298.43,-80.5949 1298.43,-73.5496"/>
<polygon fill="midnightblue" stroke="midnightblue" points="1294.93,-100.219 1298.43,-110.219 1301.93,-100.219 1294.93,-100.219"/>
</g>
<!-- Node11 -->
<g id="node9" class="node"><title>Node11</title>
<g id="a_node9"><a xlink:href="ofx_oui_draggable_button_8hpp.html" target="_top" xlink:title="ofxOuiDraggableButton.hpp">
<polygon fill="white" stroke="black" points="1371.72,-55.5 1371.72,-73.5 1511.14,-73.5 1511.14,-55.5 1371.72,-55.5"/>
<text text-anchor="middle" x="1441.43" y="-61.5" font-family="Helvetica,sans-Serif" font-size="10.00">ofxOuiDraggableButton.hpp</text>
</a>
</g>
</g>
<!-- Node8&#45;&gt;Node11 -->
<g id="edge10" class="edge"><title>Node8&#45;&gt;Node11</title>
<path fill="none" stroke="midnightblue" d="M1329.59,-106.952C1356.76,-96.8814 1395.48,-82.5284 1419.5,-73.6253"/>
<polygon fill="midnightblue" stroke="midnightblue" points="1328.31,-103.693 1320.15,-110.45 1330.74,-110.257 1328.31,-103.693"/>
</g>
<!-- Node13 -->
<g id="node11" class="node"><title>Node13</title>
<g id="a_node11"><a xlink:href="ofx_oui_drop_down_8hpp.html" target="_top" xlink:title="ofxOuiDropDown.hpp">
<polygon fill="white" stroke="black" points="1529.63,-55.5 1529.63,-73.5 1641.23,-73.5 1641.23,-55.5 1529.63,-55.5"/>
<text text-anchor="middle" x="1585.43" y="-61.5" font-family="Helvetica,sans-Serif" font-size="10.00">ofxOuiDropDown.hpp</text>
</a>
</g>
</g>
<!-- Node8&#45;&gt;Node13 -->
<g id="edge13" class="edge"><title>Node8&#45;&gt;Node13</title>
<path fill="none" stroke="midnightblue" d="M1351.9,-108.626C1406.74,-98.499 1491,-82.9386 1541.9,-73.5383"/>
<polygon fill="midnightblue" stroke="midnightblue" points="1351.22,-105.193 1342.02,-110.45 1352.49,-112.076 1351.22,-105.193"/>
</g>
<!-- Node15 -->
<g id="node13" class="node"><title>Node15</title>
<g id="a_node13"><a xlink:href="ofx_oui_matrix_8hpp.html" target="_top" xlink:title="ofxOuiMatrix.hpp">
<polygon fill="white" stroke="black" points="1659.63,-55.5 1659.63,-73.5 1751.22,-73.5 1751.22,-55.5 1659.63,-55.5"/>
<text text-anchor="middle" x="1705.43" y="-61.5" font-family="Helvetica,sans-Serif" font-size="10.00">ofxOuiMatrix.hpp</text>
</a>
</g>
</g>
<!-- Node8&#45;&gt;Node15 -->
<g id="edge16" class="edge"><title>Node8&#45;&gt;Node15</title>
<path fill="none" stroke="midnightblue" d="M1355.48,-111.777C1425.16,-103.455 1546.57,-88.5872 1650.43,-74 1653.39,-73.5834 1656.45,-73.143 1659.53,-72.6908"/>
<polygon fill="midnightblue" stroke="midnightblue" points="1354.69,-108.348 1345.17,-113.006 1355.52,-115.298 1354.69,-108.348"/>
</g>
<!-- Node17 -->
<g id="node15" class="node"><title>Node17</title>
<g id="a_node15"><a xlink:href="ofx_oui_button_8cpp.html" target="_top" xlink:title="ofxOuiButton.cpp">
<polygon fill="white" stroke="black" points="1133.07,-55.5 1133.07,-73.5 1225.78,-73.5 1225.78,-55.5 1133.07,-55.5"/>
<text text-anchor="middle" x="1179.43" y="-61.5" font-family="Helvetica,sans-Serif" font-size="10.00">ofxOuiButton.cpp</text>
</a>
</g>
</g>
<!-- Node8&#45;&gt;Node17 -->
<g id="edge19" class="edge"><title>Node8&#45;&gt;Node17</title>
<path fill="none" stroke="midnightblue" d="M1271,-106.283C1248.48,-96.2545 1217.22,-82.3332 1197.67,-73.6253"/>
<polygon fill="midnightblue" stroke="midnightblue" points="1269.8,-109.579 1280.35,-110.45 1272.64,-103.185 1269.8,-109.579"/>
</g>
<!-- Node9&#45;&gt;Node6 -->
<g id="edge8" class="edge"><title>Node9&#45;&gt;Node6</title>
<path fill="none" stroke="midnightblue" d="M1233.13,-54.8767C1078.53,-36.7465 907.005,-20.1626 836.828,-13.5302"/>
<polygon fill="midnightblue" stroke="midnightblue" points="1232.94,-58.3792 1243.28,-56.0731 1233.76,-51.4273 1232.94,-58.3792"/>
</g>
<!-- Node10 -->
<g id="node8" class="node"><title>Node10</title>
<g id="a_node8"><a xlink:href="ofx_oui_check_box_8cpp.html" target="_top" xlink:title="ofxOuiCheckBox.cpp">
<polygon fill="white" stroke="black" points="1243.74,-0.5 1243.74,-18.5 1353.12,-18.5 1353.12,-0.5 1243.74,-0.5"/>
<text text-anchor="middle" x="1298.43" y="-6.5" font-family="Helvetica,sans-Serif" font-size="10.00">ofxOuiCheckBox.cpp</text>
</a>
</g>
</g>
<!-- Node9&#45;&gt;Node10 -->
<g id="edge9" class="edge"><title>Node9&#45;&gt;Node10</title>
<path fill="none" stroke="midnightblue" d="M1298.43,-45.1746C1298.43,-36.0945 1298.43,-25.5949 1298.43,-18.5496"/>
<polygon fill="midnightblue" stroke="midnightblue" points="1294.93,-45.2187 1298.43,-55.2188 1301.93,-45.2188 1294.93,-45.2187"/>
</g>
<!-- Node11&#45;&gt;Node6 -->
<g id="edge11" class="edge"><title>Node11&#45;&gt;Node6</title>
<path fill="none" stroke="midnightblue" d="M1361.54,-54.9422C1155.16,-35.7502 921.285,-18.753 836.848,-12.771"/>
<polygon fill="midnightblue" stroke="midnightblue" points="1361.37,-58.4419 1371.65,-55.8868 1362.02,-51.4722 1361.37,-58.4419"/>
</g>
<!-- Node12 -->
<g id="node10" class="node"><title>Node12</title>
<g id="a_node10"><a xlink:href="ofx_oui_draggable_button_8cpp.html" target="_top" xlink:title="ofxOuiDraggableButton.cpp">
<polygon fill="white" stroke="black" points="1372,-0.5 1372,-18.5 1510.86,-18.5 1510.86,-0.5 1372,-0.5"/>
<text text-anchor="middle" x="1441.43" y="-6.5" font-family="Helvetica,sans-Serif" font-size="10.00">ofxOuiDraggableButton.cpp</text>
</a>
</g>
</g>
<!-- Node11&#45;&gt;Node12 -->
<g id="edge12" class="edge"><title>Node11&#45;&gt;Node12</title>
<path fill="none" stroke="midnightblue" d="M1441.43,-45.1746C1441.43,-36.0945 1441.43,-25.5949 1441.43,-18.5496"/>
<polygon fill="midnightblue" stroke="midnightblue" points="1437.93,-45.2187 1441.43,-55.2188 1444.93,-45.2188 1437.93,-45.2187"/>
</g>
<!-- Node13&#45;&gt;Node6 -->
<g id="edge14" class="edge"><title>Node13&#45;&gt;Node6</title>
<path fill="none" stroke="midnightblue" d="M1519.45,-54.9754C1249.54,-29.3102 937.069,-15.6961 836.96,-11.7335"/>
<polygon fill="midnightblue" stroke="midnightblue" points="1519.15,-58.4624 1529.44,-55.9324 1519.82,-51.4943 1519.15,-58.4624"/>
</g>
<!-- Node14 -->
<g id="node12" class="node"><title>Node14</title>
<g id="a_node12"><a xlink:href="ofx_oui_drop_down_8cpp.html" target="_top" xlink:title="ofxOuiDropDown.cpp">
<polygon fill="white" stroke="black" points="1529.91,-0.5 1529.91,-18.5 1640.95,-18.5 1640.95,-0.5 1529.91,-0.5"/>
<text text-anchor="middle" x="1585.43" y="-6.5" font-family="Helvetica,sans-Serif" font-size="10.00">ofxOuiDropDown.cpp</text>
</a>
</g>
</g>
<!-- Node13&#45;&gt;Node14 -->
<g id="edge15" class="edge"><title>Node13&#45;&gt;Node14</title>
<path fill="none" stroke="midnightblue" d="M1585.43,-45.1746C1585.43,-36.0945 1585.43,-25.5949 1585.43,-18.5496"/>
<polygon fill="midnightblue" stroke="midnightblue" points="1581.93,-45.2187 1585.43,-55.2188 1588.93,-45.2188 1581.93,-45.2187"/>
</g>
<!-- Node15&#45;&gt;Node6 -->
<g id="edge17" class="edge"><title>Node15&#45;&gt;Node6</title>
<path fill="none" stroke="midnightblue" d="M1649.54,-55.028C1326.55,-22.1655 948.242,-13.0966 836.791,-11.0287"/>
<polygon fill="midnightblue" stroke="midnightblue" points="1649.25,-58.517 1659.56,-56.057 1649.97,-51.5536 1649.25,-58.517"/>
</g>
<!-- Node16 -->
<g id="node14" class="node"><title>Node16</title>
<g id="a_node14"><a xlink:href="ofx_oui_matrix_8cpp.html" target="_top" xlink:title="ofxOuiMatrix.cpp">
<polygon fill="white" stroke="black" points="1659.92,-0.5 1659.92,-18.5 1750.94,-18.5 1750.94,-0.5 1659.92,-0.5"/>
<text text-anchor="middle" x="1705.43" y="-6.5" font-family="Helvetica,sans-Serif" font-size="10.00">ofxOuiMatrix.cpp</text>
</a>
</g>
</g>
<!-- Node15&#45;&gt;Node16 -->
<g id="edge18" class="edge"><title>Node15&#45;&gt;Node16</title>
<path fill="none" stroke="midnightblue" d="M1705.43,-45.1746C1705.43,-36.0945 1705.43,-25.5949 1705.43,-18.5496"/>
<polygon fill="midnightblue" stroke="midnightblue" points="1701.93,-45.2187 1705.43,-55.2188 1708.93,-45.2188 1701.93,-45.2187"/>
</g>
<!-- Node18&#45;&gt;Node6 -->
<g id="edge21" class="edge"><title>Node18&#45;&gt;Node6</title>
<path fill="none" stroke="midnightblue" d="M1056.75,-100.3C1058.93,-86.2114 1059.2,-67.1168 1048.43,-55 1020.89,-24.0239 896.802,-14.4712 836.936,-11.638"/>
<polygon fill="midnightblue" stroke="midnightblue" points="1053.28,-99.8064 1054.76,-110.298 1060.14,-101.174 1053.28,-99.8064"/>
</g>
<!-- Node19 -->
<g id="node17" class="node"><title>Node19</title>
<g id="a_node17"><a xlink:href="ofx_oui_group_8cpp.html" target="_top" xlink:title="ofxOuiGroup.cpp">
<polygon fill="white" stroke="black" points="947.63,-55.5 947.63,-73.5 1039.23,-73.5 1039.23,-55.5 947.63,-55.5"/>
<text text-anchor="middle" x="993.428" y="-61.5" font-family="Helvetica,sans-Serif" font-size="10.00">ofxOuiGroup.cpp</text>
</a>
</g>
</g>
<!-- Node18&#45;&gt;Node19 -->
<g id="edge22" class="edge"><title>Node18&#45;&gt;Node19</title>
<path fill="none" stroke="midnightblue" d="M1035.89,-103.641C1025.07,-93.9201 1011.34,-81.5913 1002.47,-73.6253"/>
<polygon fill="midnightblue" stroke="midnightblue" points="1033.69,-106.371 1043.47,-110.45 1038.37,-101.164 1033.69,-106.371"/>
</g>
<!-- Node20&#45;&gt;Node6 -->
<g id="edge24" class="edge"><title>Node20&#45;&gt;Node6</title>
<path fill="none" stroke="midnightblue" d="M424.714,-101.43C434.68,-86.5311 451.228,-65.6727 471.428,-55 523.257,-27.6164 698.983,-15.8007 772.098,-11.9876"/>
<polygon fill="midnightblue" stroke="midnightblue" points="421.555,-99.8762 419.144,-110.193 427.462,-103.631 421.555,-99.8762"/>
</g>
<!-- Node21 -->
<g id="node19" class="node"><title>Node21</title>
<g id="a_node19"><a xlink:href="ofx_oui_multi_slider_8cpp.html" target="_top" xlink:title="ofxOuiMultiSlider.cpp">
<polygon fill="white" stroke="black" points="284.46,-55.5 284.46,-73.5 394.396,-73.5 394.396,-55.5 284.46,-55.5"/>
<text text-anchor="middle" x="339.428" y="-61.5" font-family="Helvetica,sans-Serif" font-size="10.00">ofxOuiMultiSlider.cpp</text>
</a>
</g>
</g>
<!-- Node20&#45;&gt;Node21 -->
<g id="edge25" class="edge"><title>Node20&#45;&gt;Node21</title>
<path fill="none" stroke="midnightblue" d="M394.605,-104.492C380.677,-94.6491 362.53,-81.8255 350.926,-73.6253"/>
<polygon fill="midnightblue" stroke="midnightblue" points="392.85,-107.538 403.037,-110.45 396.89,-101.821 392.85,-107.538"/>
</g>
<!-- Node22&#45;&gt;Node6 -->
<g id="edge27" class="edge"><title>Node22&#45;&gt;Node6</title>
<path fill="none" stroke="midnightblue" d="M163.995,-102.123C154.118,-88.0199 144.337,-67.9496 156.428,-55 198.754,-9.66731 646.897,-9.3858 772.1,-10.2031"/>
<polygon fill="midnightblue" stroke="midnightblue" points="161.438,-104.543 170.27,-110.394 167.014,-100.312 161.438,-104.543"/>
</g>
<!-- Node23 -->
<g id="node21" class="node"><title>Node23</title>
<g id="a_node21"><a xlink:href="ofx_oui_slider_8hpp.html" target="_top" xlink:title="ofxOuiSlider.hpp">
<polygon fill="white" stroke="black" points="19.736,-55.5 19.736,-73.5 109.12,-73.5 109.12,-55.5 19.736,-55.5"/>
<text text-anchor="middle" x="64.4279" y="-61.5" font-family="Helvetica,sans-Serif" font-size="10.00">ofxOuiSlider.hpp</text>
</a>
</g>
</g>
<!-- Node22&#45;&gt;Node23 -->
<g id="edge28" class="edge"><title>Node22&#45;&gt;Node23</title>
<path fill="none" stroke="midnightblue" d="M151.093,-106.148C129.733,-96.1297 100.234,-82.2941 81.7517,-73.6253"/>
<polygon fill="midnightblue" stroke="midnightblue" points="149.726,-109.373 160.266,-110.45 152.698,-103.035 149.726,-109.373"/>
</g>
<!-- Node25 -->
<g id="node23" class="node"><title>Node25</title>
<g id="a_node23"><a xlink:href="ofx_oui_numbox_8cpp.html" target="_top" xlink:title="ofxOuiNumbox.cpp">
<polygon fill="white" stroke="black" points="165.908,-55.5 165.908,-73.5 266.947,-73.5 266.947,-55.5 165.908,-55.5"/>
<text text-anchor="middle" x="216.428" y="-61.5" font-family="Helvetica,sans-Serif" font-size="10.00">ofxOuiNumbox.cpp</text>
</a>
</g>
</g>
<!-- Node22&#45;&gt;Node25 -->
<g id="edge31" class="edge"><title>Node22&#45;&gt;Node25</title>
<path fill="none" stroke="midnightblue" d="M189.606,-101.951C196.564,-92.4941 204.978,-81.0595 210.505,-73.5496"/>
<polygon fill="midnightblue" stroke="midnightblue" points="186.629,-100.09 183.522,-110.219 192.268,-104.239 186.629,-100.09"/>
</g>
<!-- Node23&#45;&gt;Node6 -->
<g id="edge29" class="edge"><title>Node23&#45;&gt;Node6</title>
<path fill="none" stroke="midnightblue" d="M119.478,-55.4294C120.807,-55.2797 122.125,-55.1362 123.428,-55 372.363,-28.9748 674.183,-15.5992 772.096,-11.7182"/>
<polygon fill="midnightblue" stroke="midnightblue" points="118.665,-52.0024 109.16,-56.6825 119.509,-58.9513 118.665,-52.0024"/>
</g>
<!-- Node24 -->
<g id="node22" class="node"><title>Node24</title>
<g id="a_node22"><a xlink:href="ofx_oui_slider_8cpp.html" target="_top" xlink:title="ofxOuiSlider.cpp">
<polygon fill="white" stroke="black" points="20.0168,-0.5 20.0168,-18.5 108.839,-18.5 108.839,-0.5 20.0168,-0.5"/>
<text text-anchor="middle" x="64.4279" y="-6.5" font-family="Helvetica,sans-Serif" font-size="10.00">ofxOuiSlider.cpp</text>
</a>
</g>
</g>
<!-- Node23&#45;&gt;Node24 -->
<g id="edge30" class="edge"><title>Node23&#45;&gt;Node24</title>
<path fill="none" stroke="midnightblue" d="M64.4279,-45.1746C64.4279,-36.0945 64.4279,-25.5949 64.4279,-18.5496"/>
<polygon fill="midnightblue" stroke="midnightblue" points="60.928,-45.2187 64.4279,-55.2188 67.928,-45.2188 60.928,-45.2187"/>
</g>
<!-- Node26&#45;&gt;Node6 -->
<g id="edge33" class="edge"><title>Node26&#45;&gt;Node6</title>
<path fill="none" stroke="midnightblue" d="M687.705,-104.215C699.694,-95.6444 715.092,-84.4175 728.428,-74 753.089,-54.7362 781.098,-30.7682 795.23,-18.5213"/>
<polygon fill="midnightblue" stroke="midnightblue" points="685.416,-101.549 679.292,-110.194 689.471,-107.254 685.416,-101.549"/>
</g>
<!-- Node27 -->
<g id="node25" class="node"><title>Node27</title>
<g id="a_node25"><a xlink:href="ofx_oui_text_input_8cpp.html" target="_top" xlink:title="ofxOuiTextInput.cpp">
<polygon fill="white" stroke="black" points="615.236,-55.5 615.236,-73.5 719.62,-73.5 719.62,-55.5 615.236,-55.5"/>
<text text-anchor="middle" x="667.428" y="-61.5" font-family="Helvetica,sans-Serif" font-size="10.00">ofxOuiTextInput.cpp</text>
</a>
</g>
</g>
<!-- Node26&#45;&gt;Node27 -->
<g id="edge34" class="edge"><title>Node26&#45;&gt;Node27</title>
<path fill="none" stroke="midnightblue" d="M667.428,-100.175C667.428,-91.0945 667.428,-80.5949 667.428,-73.5496"/>
<polygon fill="midnightblue" stroke="midnightblue" points="663.928,-100.219 667.428,-110.219 670.928,-100.219 663.928,-100.219"/>
</g>
<!-- Node28&#45;&gt;Node6 -->
<g id="edge36" class="edge"><title>Node28&#45;&gt;Node6</title>
<path fill="none" stroke="midnightblue" d="M514.718,-105.842C491.084,-93.3503 463.295,-73.4921 479.428,-55 517.241,-11.6565 697.732,-9.00787 772.194,-9.81905"/>
<polygon fill="midnightblue" stroke="midnightblue" points="513.291,-109.042 523.798,-110.407 516.436,-102.788 513.291,-109.042"/>
</g>
<!-- Node29 -->
<g id="node27" class="node"><title>Node29</title>
<g id="a_node27"><a xlink:href="ofx_oui_waveform_8cpp.html" target="_top" xlink:title="ofxOuiWaveform.cpp">
<polygon fill="white" stroke="black" points="487.929,-55.5 487.929,-73.5 596.927,-73.5 596.927,-55.5 487.929,-55.5"/>
<text text-anchor="middle" x="542.428" y="-61.5" font-family="Helvetica,sans-Serif" font-size="10.00">ofxOuiWaveform.cpp</text>
</a>
</g>
</g>
<!-- Node28&#45;&gt;Node29 -->
<g id="edge37" class="edge"><title>Node28&#45;&gt;Node29</title>
<path fill="none" stroke="midnightblue" d="M542.428,-100.175C542.428,-91.0945 542.428,-80.5949 542.428,-73.5496"/>
<polygon fill="midnightblue" stroke="midnightblue" points="538.928,-100.219 542.428,-110.219 545.928,-100.219 538.928,-100.219"/>
</g>
</g>
</svg>
