<?xml version="1.0" encoding="UTF-8" standalone="no"?>
<!DOCTYPE svg PUBLIC "-//W3C//DTD SVG 1.1//EN"
 "http://www.w3.org/Graphics/SVG/1.1/DTD/svg11.dtd">
<!-- Generated by graphviz version 2.38.0 (20140413.2041)
 -->
<!-- Title: ofxCuiCuiColormap.hpp Pages: 1 -->
<svg width="226pt" height="82pt"
 viewBox="0.00 0.00 226.21 82.00" xmlns="http://www.w3.org/2000/svg" xmlns:xlink="http://www.w3.org/1999/xlink">
<g id="graph0" class="graph" transform="scale(1 1) rotate(0) translate(4 78)">
<title>ofxCuiCuiColormap.hpp</title>
<polygon fill="white" stroke="none" points="-4,4 -4,-78 222.207,-78 222.207,4 -4,4"/>
<!-- Node1 -->
<g id="node1" class="node"><title>Node1</title>
<polygon fill="#bfbfbf" stroke="black" points="37.3252,-55.5 37.3252,-73.5 159.487,-73.5 159.487,-55.5 37.3252,-55.5"/>
<text text-anchor="middle" x="98.4062" y="-61.5" font-family="Helvetica,sans-Serif" font-size="10.00">ofxCuiCuiColormap.hpp</text>
</g>
<!-- Node2 -->
<g id="node2" class="node"><title>Node2</title>
<g id="a_node2"><a xlink:href="ofx_cui_cui_8hpp.html" target="_top" xlink:title="ofxCuiCui.hpp">
<polygon fill="white" stroke="black" points="0,-0.5 0,-18.5 78.8125,-18.5 78.8125,-0.5 0,-0.5"/>
<text text-anchor="middle" x="39.4062" y="-6.5" font-family="Helvetica,sans-Serif" font-size="10.00">ofxCuiCui.hpp</text>
</a>
</g>
</g>
<!-- Node1&#45;&gt;Node2 -->
<g id="edge1" class="edge"><title>Node1&#45;&gt;Node2</title>
<path fill="none" stroke="midnightblue" d="M81.8649,-48.6408C71.0437,-38.9201 57.3192,-26.5913 48.4514,-18.6253"/>
<polygon fill="midnightblue" stroke="midnightblue" points="79.6672,-51.3715 89.4454,-55.4504 84.3451,-46.164 79.6672,-51.3715"/>
</g>
<!-- Node3 -->
<g id="node3" class="node"><title>Node3</title>
<g id="a_node3"><a xlink:href="ofx_cui_cui_colormap_8cpp.html" target="_top" xlink:title="ofxCuiCuiColormap.cpp">
<polygon fill="white" stroke="black" points="96.606,-0.5 96.606,-18.5 218.207,-18.5 218.207,-0.5 96.606,-0.5"/>
<text text-anchor="middle" x="157.406" y="-6.5" font-family="Helvetica,sans-Serif" font-size="10.00">ofxCuiCuiColormap.cpp</text>
</a>
</g>
</g>
<!-- Node1&#45;&gt;Node3 -->
<g id="edge2" class="edge"><title>Node1&#45;&gt;Node3</title>
<path fill="none" stroke="midnightblue" d="M114.948,-48.6408C125.769,-38.9201 139.493,-26.5913 148.361,-18.6253"/>
<polygon fill="midnightblue" stroke="midnightblue" points="112.467,-46.164 107.367,-55.4504 117.145,-51.3715 112.467,-46.164"/>
</g>
</g>
</svg>
