<?xml version="1.0" encoding="UTF-8" standalone="no"?>
<!DOCTYPE svg PUBLIC "-//W3C//DTD SVG 1.1//EN"
 "http://www.w3.org/Graphics/SVG/1.1/DTD/svg11.dtd">
<!-- Generated by graphviz version 2.38.0 (20140413.2041)
 -->
<!-- Title: ofxCuiCuiNumbox.hpp Pages: 1 -->
<svg width="313pt" height="137pt"
 viewBox="0.00 0.00 313.15 137.00" xmlns="http://www.w3.org/2000/svg" xmlns:xlink="http://www.w3.org/1999/xlink">
<g id="graph0" class="graph" transform="scale(1 1) rotate(0) translate(4 133)">
<title>ofxCuiCuiNumbox.hpp</title>
<polygon fill="white" stroke="none" points="-4,4 -4,-133 309.15,-133 309.15,4 -4,4"/>
<!-- Node1 -->
<g id="node1" class="node"><title>Node1</title>
<polygon fill="#bfbfbf" stroke="black" points="61.3818,-110.5 61.3818,-128.5 177.431,-128.5 177.431,-110.5 61.3818,-110.5"/>
<text text-anchor="middle" x="119.406" y="-116.5" font-family="Helvetica,sans-Serif" font-size="10.00">ofxCuiCuiNumbox.hpp</text>
</g>
<!-- Node2 -->
<g id="node2" class="node"><title>Node2</title>
<g id="a_node2"><a xlink:href="ofx_cui_cui_8hpp.html" target="_top" xlink:title="ofxCuiCui.hpp">
<polygon fill="white" stroke="black" points="0,-0.5 0,-18.5 78.8125,-18.5 78.8125,-0.5 0,-0.5"/>
<text text-anchor="middle" x="39.4062" y="-6.5" font-family="Helvetica,sans-Serif" font-size="10.00">ofxCuiCui.hpp</text>
</a>
</g>
</g>
<!-- Node1&#45;&gt;Node2 -->
<g id="edge1" class="edge"><title>Node1&#45;&gt;Node2</title>
<path fill="none" stroke="midnightblue" d="M94.0868,-105.254C81.7238,-97.6212 67.5755,-86.9629 58.4062,-74 46.1791,-56.714 41.7131,-31.4724 40.1681,-18.6414"/>
<polygon fill="midnightblue" stroke="midnightblue" points="92.6776,-108.483 103.081,-110.489 96.1989,-102.433 92.6776,-108.483"/>
</g>
<!-- Node3 -->
<g id="node3" class="node"><title>Node3</title>
<g id="a_node3"><a xlink:href="ofx_cui_cui_slider_8hpp.html" target="_top" xlink:title="ofxCuiCuiSlider.hpp">
<polygon fill="white" stroke="black" points="67.4902,-55.5 67.4902,-73.5 171.322,-73.5 171.322,-55.5 67.4902,-55.5"/>
<text text-anchor="middle" x="119.406" y="-61.5" font-family="Helvetica,sans-Serif" font-size="10.00">ofxCuiCuiSlider.hpp</text>
</a>
</g>
</g>
<!-- Node1&#45;&gt;Node3 -->
<g id="edge2" class="edge"><title>Node1&#45;&gt;Node3</title>
<path fill="none" stroke="midnightblue" d="M119.406,-100.175C119.406,-91.0945 119.406,-80.5949 119.406,-73.5496"/>
<polygon fill="midnightblue" stroke="midnightblue" points="115.906,-100.219 119.406,-110.219 122.906,-100.219 115.906,-100.219"/>
</g>
<!-- Node5 -->
<g id="node5" class="node"><title>Node5</title>
<g id="a_node5"><a xlink:href="ofx_cui_cui_numbox_8cpp.html" target="_top" xlink:title="ofxCuiCuiNumbox.cpp">
<polygon fill="white" stroke="black" points="189.663,-55.5 189.663,-73.5 305.15,-73.5 305.15,-55.5 189.663,-55.5"/>
<text text-anchor="middle" x="247.406" y="-61.5" font-family="Helvetica,sans-Serif" font-size="10.00">ofxCuiCuiNumbox.cpp</text>
</a>
</g>
</g>
<!-- Node1&#45;&gt;Node5 -->
<g id="edge5" class="edge"><title>Node1&#45;&gt;Node5</title>
<path fill="none" stroke="midnightblue" d="M148.261,-106.552C172.527,-96.5046 206.564,-82.4113 227.783,-73.6253"/>
<polygon fill="midnightblue" stroke="midnightblue" points="146.747,-103.391 138.847,-110.45 149.425,-109.858 146.747,-103.391"/>
</g>
<!-- Node3&#45;&gt;Node2 -->
<g id="edge3" class="edge"><title>Node3&#45;&gt;Node2</title>
<path fill="none" stroke="midnightblue" d="M98.6847,-49.7719C83.7742,-39.8937 64.1665,-26.9036 51.6709,-18.6253"/>
<polygon fill="midnightblue" stroke="midnightblue" points="96.9864,-52.8452 107.256,-55.4504 100.852,-47.0097 96.9864,-52.8452"/>
</g>
<!-- Node4 -->
<g id="node4" class="node"><title>Node4</title>
<g id="a_node4"><a xlink:href="ofx_cui_cui_slider_8cpp.html" target="_top" xlink:title="ofxCuiCuiSlider.cpp">
<polygon fill="white" stroke="black" points="96.771,-0.5 96.771,-18.5 200.042,-18.5 200.042,-0.5 96.771,-0.5"/>
<text text-anchor="middle" x="148.406" y="-6.5" font-family="Helvetica,sans-Serif" font-size="10.00">ofxCuiCuiSlider.cpp</text>
</a>
</g>
</g>
<!-- Node3&#45;&gt;Node4 -->
<g id="edge4" class="edge"><title>Node3&#45;&gt;Node4</title>
<path fill="none" stroke="midnightblue" d="M128.783,-46.3633C133.893,-37.0242 139.977,-25.9046 144.002,-18.5496"/>
<polygon fill="midnightblue" stroke="midnightblue" points="125.667,-44.7661 123.938,-55.2188 131.808,-48.1262 125.667,-44.7661"/>
</g>
</g>
</svg>
