<?xml version="1.0" encoding="UTF-8" standalone="no"?>
<!DOCTYPE svg PUBLIC "-//W3C//DTD SVG 1.1//EN"
 "http://www.w3.org/Graphics/SVG/1.1/DTD/svg11.dtd">
<!-- Generated by graphviz version 2.38.0 (20140413.2041)
 -->
<!-- Title: ofxOuiDropDown.hpp Pages: 1 -->
<svg width="202pt" height="82pt"
 viewBox="0.00 0.00 201.70 82.00" xmlns="http://www.w3.org/2000/svg" xmlns:xlink="http://www.w3.org/1999/xlink">
<g id="graph0" class="graph" transform="scale(1 1) rotate(0) translate(4 78)">
<title>ofxOuiDropDown.hpp</title>
<polygon fill="white" stroke="none" points="-4,4 -4,-78 197.704,-78 197.704,4 -4,4"/>
<!-- Node8 -->
<g id="node1" class="node"><title>Node8</title>
<polygon fill="#bfbfbf" stroke="black" points="29.3794,-55.5 29.3794,-73.5 140.985,-73.5 140.985,-55.5 29.3794,-55.5"/>
<text text-anchor="middle" x="85.1821" y="-61.5" font-family="Helvetica,sans-Serif" font-size="10.00">ofxOuiDropDown.hpp</text>
</g>
<!-- Node9 -->
<g id="node2" class="node"><title>Node9</title>
<g id="a_node2"><a xlink:href="ofx_oui_8hpp.html" target="_top" xlink:title="ofxOui.hpp">
<polygon fill="white" stroke="black" points="0,-0.5 0,-18.5 64.3643,-18.5 64.3643,-0.5 0,-0.5"/>
<text text-anchor="middle" x="32.1821" y="-6.5" font-family="Helvetica,sans-Serif" font-size="10.00">ofxOui.hpp</text>
</a>
</g>
</g>
<!-- Node8&#45;&gt;Node9 -->
<g id="edge1" class="edge"><title>Node8&#45;&gt;Node9</title>
<path fill="none" stroke="midnightblue" d="M69.7923,-48.1101C60.1259,-38.4438 48.0513,-26.3692 40.2317,-18.5496"/>
<polygon fill="midnightblue" stroke="midnightblue" points="67.3549,-50.6225 76.9009,-55.2188 72.3047,-45.6728 67.3549,-50.6225"/>
</g>
<!-- Node10 -->
<g id="node3" class="node"><title>Node10</title>
<g id="a_node3"><a xlink:href="ofx_oui_drop_down_8cpp.html" target="_top" xlink:title="ofxOuiDropDown.cpp">
<polygon fill="white" stroke="black" points="82.6602,-0.5 82.6602,-18.5 193.704,-18.5 193.704,-0.5 82.6602,-0.5"/>
<text text-anchor="middle" x="138.182" y="-6.5" font-family="Helvetica,sans-Serif" font-size="10.00">ofxOuiDropDown.cpp</text>
</a>
</g>
</g>
<!-- Node8&#45;&gt;Node10 -->
<g id="edge2" class="edge"><title>Node8&#45;&gt;Node10</title>
<path fill="none" stroke="midnightblue" d="M100.572,-48.1101C110.238,-38.4438 122.313,-26.3692 130.133,-18.5496"/>
<polygon fill="midnightblue" stroke="midnightblue" points="98.0596,-45.6728 93.4634,-55.2188 103.009,-50.6225 98.0596,-45.6728"/>
</g>
</g>
</svg>
