<?xml version="1.0" encoding="UTF-8" standalone="no"?>
<!DOCTYPE svg PUBLIC "-//W3C//DTD SVG 1.1//EN"
 "http://www.w3.org/Graphics/SVG/1.1/DTD/svg11.dtd">
<!-- Generated by graphviz version 2.38.0 (20140413.2041)
 -->
<!-- Title: ofxCuiCuiButton.hpp Pages: 1 -->
<svg width="764pt" height="137pt"
 viewBox="0.00 0.00 764.49 137.00" xmlns="http://www.w3.org/2000/svg" xmlns:xlink="http://www.w3.org/1999/xlink">
<g id="graph0" class="graph" transform="scale(1 1) rotate(0) translate(4 133)">
<title>ofxCuiCuiButton.hpp</title>
<polygon fill="white" stroke="none" points="-4,4 -4,-133 760.495,-133 760.495,4 -4,4"/>
<!-- Node1 -->
<g id="node1" class="node"><title>Node1</title>
<polygon fill="#bfbfbf" stroke="black" points="344.052,-110.5 344.052,-128.5 451.775,-128.5 451.775,-110.5 344.052,-110.5"/>
<text text-anchor="middle" x="397.914" y="-116.5" font-family="Helvetica,sans-Serif" font-size="10.00">ofxCuiCuiButton.hpp</text>
</g>
<!-- Node2 -->
<g id="node2" class="node"><title>Node2</title>
<g id="a_node2"><a xlink:href="ofx_cui_cui_8hpp.html" target="_top" xlink:title="ofxCuiCui.hpp">
<polygon fill="white" stroke="black" points="313.507,-0.5 313.507,-18.5 392.32,-18.5 392.32,-0.5 313.507,-0.5"/>
<text text-anchor="middle" x="352.914" y="-6.5" font-family="Helvetica,sans-Serif" font-size="10.00">ofxCuiCui.hpp</text>
</a>
</g>
</g>
<!-- Node1&#45;&gt;Node2 -->
<g id="edge1" class="edge"><title>Node1&#45;&gt;Node2</title>
<path fill="none" stroke="midnightblue" d="M386.858,-101.764C381.818,-93.6251 376.064,-83.556 371.914,-74 363.57,-54.7906 357.487,-30.7996 354.667,-18.5349"/>
<polygon fill="midnightblue" stroke="midnightblue" points="383.971,-103.746 392.307,-110.284 389.868,-99.9743 383.971,-103.746"/>
</g>
<!-- Node3 -->
<g id="node3" class="node"><title>Node3</title>
<g id="a_node3"><a xlink:href="ofx_cui_cui_check_box_8hpp.html" target="_top" xlink:title="ofxCuiCuiCheckBox.hpp">
<polygon fill="white" stroke="black" points="28.7192,-55.5 28.7192,-73.5 153.108,-73.5 153.108,-55.5 28.7192,-55.5"/>
<text text-anchor="middle" x="90.9136" y="-61.5" font-family="Helvetica,sans-Serif" font-size="10.00">ofxCuiCuiCheckBox.hpp</text>
</a>
</g>
</g>
<!-- Node1&#45;&gt;Node3 -->
<g id="edge2" class="edge"><title>Node1&#45;&gt;Node3</title>
<path fill="none" stroke="midnightblue" d="M341.081,-108.689C282.433,-98.5636 192.039,-82.9581 137.475,-73.5383"/>
<polygon fill="midnightblue" stroke="midnightblue" points="340.837,-112.198 351.287,-110.45 342.028,-105.3 340.837,-112.198"/>
</g>
<!-- Node5 -->
<g id="node5" class="node"><title>Node5</title>
<g id="a_node5"><a xlink:href="ofx_cui_cui_draggable_button_8hpp.html" target="_top" xlink:title="ofxCuiCuiDraggableButton.hpp">
<polygon fill="white" stroke="black" points="170.98,-55.5 170.98,-73.5 324.847,-73.5 324.847,-55.5 170.98,-55.5"/>
<text text-anchor="middle" x="247.914" y="-61.5" font-family="Helvetica,sans-Serif" font-size="10.00">ofxCuiCuiDraggableButton.hpp</text>
</a>
</g>
</g>
<!-- Node1&#45;&gt;Node5 -->
<g id="edge5" class="edge"><title>Node1&#45;&gt;Node5</title>
<path fill="none" stroke="midnightblue" d="M365.605,-107.084C337.085,-97.0074 296.218,-82.5675 270.91,-73.6253"/>
<polygon fill="midnightblue" stroke="midnightblue" points="364.537,-110.419 375.132,-110.45 366.869,-103.819 364.537,-110.419"/>
</g>
<!-- Node7 -->
<g id="node7" class="node"><title>Node7</title>
<g id="a_node7"><a xlink:href="ofx_cui_cui_drop_down_8hpp.html" target="_top" xlink:title="ofxCuiCuiDropDown.hpp">
<polygon fill="white" stroke="black" points="380.887,-55.5 380.887,-73.5 506.94,-73.5 506.94,-55.5 380.887,-55.5"/>
<text text-anchor="middle" x="443.914" y="-61.5" font-family="Helvetica,sans-Serif" font-size="10.00">ofxCuiCuiDropDown.hpp</text>
</a>
</g>
</g>
<!-- Node1&#45;&gt;Node7 -->
<g id="edge8" class="edge"><title>Node1&#45;&gt;Node7</title>
<path fill="none" stroke="midnightblue" d="M411.772,-102.533C420.074,-92.9673 430.275,-81.2143 436.927,-73.5496"/>
<polygon fill="midnightblue" stroke="midnightblue" points="409.013,-100.372 405.101,-110.219 414.299,-104.961 409.013,-100.372"/>
</g>
<!-- Node9 -->
<g id="node9" class="node"><title>Node9</title>
<g id="a_node9"><a xlink:href="ofx_cui_cui_matrix_8hpp.html" target="_top" xlink:title="ofxCuiCuiMatrix.hpp">
<polygon fill="white" stroke="black" points="524.896,-55.5 524.896,-73.5 630.931,-73.5 630.931,-55.5 524.896,-55.5"/>
<text text-anchor="middle" x="577.914" y="-61.5" font-family="Helvetica,sans-Serif" font-size="10.00">ofxCuiCuiMatrix.hpp</text>
</a>
</g>
</g>
<!-- Node1&#45;&gt;Node9 -->
<g id="edge11" class="edge"><title>Node1&#45;&gt;Node9</title>
<path fill="none" stroke="midnightblue" d="M434.934,-107.6C469.327,-97.4728 519.748,-82.6265 550.614,-73.5383"/>
<polygon fill="midnightblue" stroke="midnightblue" points="433.856,-104.268 425.252,-110.45 435.833,-110.983 433.856,-104.268"/>
</g>
<!-- Node11 -->
<g id="node11" class="node"><title>Node11</title>
<g id="a_node11"><a xlink:href="ofx_cui_cui_button_8cpp.html" target="_top" xlink:title="ofxCuiCuiButton.cpp">
<polygon fill="white" stroke="black" points="649.333,-55.5 649.333,-73.5 756.495,-73.5 756.495,-55.5 649.333,-55.5"/>
<text text-anchor="middle" x="702.914" y="-61.5" font-family="Helvetica,sans-Serif" font-size="10.00">ofxCuiCuiButton.cpp</text>
</a>
</g>
</g>
<!-- Node1&#45;&gt;Node11 -->
<g id="edge14" class="edge"><title>Node1&#45;&gt;Node11</title>
<path fill="none" stroke="midnightblue" d="M454.376,-108.689C512.642,-98.5636 602.447,-82.9581 656.655,-73.5383"/>
<polygon fill="midnightblue" stroke="midnightblue" points="453.49,-105.29 444.237,-110.45 454.688,-112.187 453.49,-105.29"/>
</g>
<!-- Node3&#45;&gt;Node2 -->
<g id="edge3" class="edge"><title>Node3&#45;&gt;Node2</title>
<path fill="none" stroke="midnightblue" d="M140.665,-53.4358C190.743,-43.3056 266.997,-27.8801 313.177,-18.5383"/>
<polygon fill="midnightblue" stroke="midnightblue" points="139.813,-50.0371 130.706,-55.4504 141.201,-56.8981 139.813,-50.0371"/>
</g>
<!-- Node4 -->
<g id="node4" class="node"><title>Node4</title>
<g id="a_node4"><a xlink:href="ofx_cui_cui_check_box_8cpp.html" target="_top" xlink:title="ofxCuiCuiCheckBox.cpp">
<polygon fill="white" stroke="black" points="0,-0.5 0,-18.5 123.827,-18.5 123.827,-0.5 0,-0.5"/>
<text text-anchor="middle" x="61.9136" y="-6.5" font-family="Helvetica,sans-Serif" font-size="10.00">ofxCuiCuiCheckBox.cpp</text>
</a>
</g>
</g>
<!-- Node3&#45;&gt;Node4 -->
<g id="edge4" class="edge"><title>Node3&#45;&gt;Node4</title>
<path fill="none" stroke="midnightblue" d="M81.5369,-46.3633C76.4268,-37.0242 70.3425,-25.9046 66.3181,-18.5496"/>
<polygon fill="midnightblue" stroke="midnightblue" points="78.5117,-48.1262 86.3823,-55.2188 84.6526,-44.7661 78.5117,-48.1262"/>
</g>
<!-- Node5&#45;&gt;Node2 -->
<g id="edge6" class="edge"><title>Node5&#45;&gt;Node2</title>
<path fill="none" stroke="midnightblue" d="M272.922,-50.8765C292.725,-40.8808 319.797,-27.216 336.816,-18.6253"/>
<polygon fill="midnightblue" stroke="midnightblue" points="271.211,-47.8197 263.861,-55.4504 274.365,-54.0688 271.211,-47.8197"/>
</g>
<!-- Node6 -->
<g id="node6" class="node"><title>Node6</title>
<g id="a_node6"><a xlink:href="ofx_cui_cui_draggable_button_8cpp.html" target="_top" xlink:title="ofxCuiCuiDraggableButton.cpp">
<polygon fill="white" stroke="black" points="142.261,-0.5 142.261,-18.5 295.566,-18.5 295.566,-0.5 142.261,-0.5"/>
<text text-anchor="middle" x="218.914" y="-6.5" font-family="Helvetica,sans-Serif" font-size="10.00">ofxCuiCuiDraggableButton.cpp</text>
</a>
</g>
</g>
<!-- Node5&#45;&gt;Node6 -->
<g id="edge7" class="edge"><title>Node5&#45;&gt;Node6</title>
<path fill="none" stroke="midnightblue" d="M238.537,-46.3633C233.427,-37.0242 227.343,-25.9046 223.318,-18.5496"/>
<polygon fill="midnightblue" stroke="midnightblue" points="235.512,-48.1262 243.382,-55.2188 241.653,-44.7661 235.512,-48.1262"/>
</g>
<!-- Node7&#45;&gt;Node2 -->
<g id="edge9" class="edge"><title>Node7&#45;&gt;Node2</title>
<path fill="none" stroke="midnightblue" d="M421.297,-50.3277C404.227,-40.3856 381.346,-27.0598 366.865,-18.6253"/>
<polygon fill="midnightblue" stroke="midnightblue" points="419.69,-53.442 430.093,-55.4504 423.213,-47.3932 419.69,-53.442"/>
</g>
<!-- Node8 -->
<g id="node8" class="node"><title>Node8</title>
<g id="a_node8"><a xlink:href="ofx_cui_cui_drop_down_8cpp.html" target="_top" xlink:title="ofxCuiCuiDropDown.cpp">
<polygon fill="white" stroke="black" points="410.167,-0.5 410.167,-18.5 535.66,-18.5 535.66,-0.5 410.167,-0.5"/>
<text text-anchor="middle" x="472.914" y="-6.5" font-family="Helvetica,sans-Serif" font-size="10.00">ofxCuiCuiDropDown.cpp</text>
</a>
</g>
</g>
<!-- Node7&#45;&gt;Node8 -->
<g id="edge10" class="edge"><title>Node7&#45;&gt;Node8</title>
<path fill="none" stroke="midnightblue" d="M453.29,-46.3633C458.4,-37.0242 464.485,-25.9046 468.509,-18.5496"/>
<polygon fill="midnightblue" stroke="midnightblue" points="450.175,-44.7661 448.445,-55.2188 456.315,-48.1262 450.175,-44.7661"/>
</g>
<!-- Node9&#45;&gt;Node2 -->
<g id="edge12" class="edge"><title>Node9&#45;&gt;Node2</title>
<path fill="none" stroke="midnightblue" d="M533.834,-53.1169C490.818,-42.9842 426.283,-27.7826 387.038,-18.5383"/>
<polygon fill="midnightblue" stroke="midnightblue" points="533.205,-56.5643 543.741,-55.4504 534.81,-49.7508 533.205,-56.5643"/>
</g>
<!-- Node10 -->
<g id="node10" class="node"><title>Node10</title>
<g id="a_node10"><a xlink:href="ofx_cui_cui_matrix_8cpp.html" target="_top" xlink:title="ofxCuiCuiMatrix.cpp">
<polygon fill="white" stroke="black" points="553.177,-0.5 553.177,-18.5 658.65,-18.5 658.65,-0.5 553.177,-0.5"/>
<text text-anchor="middle" x="605.914" y="-6.5" font-family="Helvetica,sans-Serif" font-size="10.00">ofxCuiCuiMatrix.cpp</text>
</a>
</g>
</g>
<!-- Node9&#45;&gt;Node10 -->
<g id="edge13" class="edge"><title>Node9&#45;&gt;Node10</title>
<path fill="none" stroke="midnightblue" d="M586.967,-46.3633C591.901,-37.0242 597.775,-25.9046 601.661,-18.5496"/>
<polygon fill="midnightblue" stroke="midnightblue" points="583.865,-44.7419 582.289,-55.2188 590.055,-48.0117 583.865,-44.7419"/>
</g>
</g>
</svg>
