<?xml version="1.0" encoding="UTF-8" standalone="no"?>
<!DOCTYPE svg PUBLIC "-//W3C//DTD SVG 1.1//EN"
 "http://www.w3.org/Graphics/SVG/1.1/DTD/svg11.dtd">
<!-- Generated by graphviz version 2.38.0 (20140413.2041)
 -->
<!-- Title: ofxCuiCuiShapeEditor.hpp Pages: 1 -->
<svg width="238pt" height="82pt"
 viewBox="0.00 0.00 237.78 82.00" xmlns="http://www.w3.org/2000/svg" xmlns:xlink="http://www.w3.org/1999/xlink">
<g id="graph0" class="graph" transform="scale(1 1) rotate(0) translate(4 78)">
<title>ofxCuiCuiShapeEditor.hpp</title>
<polygon fill="white" stroke="none" points="-4,4 -4,-78 233.778,-78 233.778,4 -4,4"/>
<!-- Node1 -->
<g id="node1" class="node"><title>Node1</title>
<polygon fill="#bfbfbf" stroke="black" points="34.7539,-55.5 34.7539,-73.5 168.059,-73.5 168.059,-55.5 34.7539,-55.5"/>
<text text-anchor="middle" x="101.406" y="-61.5" font-family="Helvetica,sans-Serif" font-size="10.00">ofxCuiCuiShapeEditor.hpp</text>
</g>
<!-- Node2 -->
<g id="node2" class="node"><title>Node2</title>
<g id="a_node2"><a xlink:href="ofx_cui_cui_8hpp.html" target="_top" xlink:title="ofxCuiCui.hpp">
<polygon fill="white" stroke="black" points="0,-0.5 0,-18.5 78.8125,-18.5 78.8125,-0.5 0,-0.5"/>
<text text-anchor="middle" x="39.4062" y="-6.5" font-family="Helvetica,sans-Serif" font-size="10.00">ofxCuiCui.hpp</text>
</a>
</g>
</g>
<!-- Node1&#45;&gt;Node2 -->
<g id="edge1" class="edge"><title>Node1&#45;&gt;Node2</title>
<path fill="none" stroke="midnightblue" d="M84.3573,-48.9259C72.9357,-39.1622 58.3213,-26.6693 48.9113,-18.6253"/>
<polygon fill="midnightblue" stroke="midnightblue" points="82.1143,-51.613 91.9898,-55.4504 86.6628,-46.2922 82.1143,-51.613"/>
</g>
<!-- Node3 -->
<g id="node3" class="node"><title>Node3</title>
<g id="a_node3"><a xlink:href="ofx_cui_cui_shape_editor_8cpp.html" target="_top" xlink:title="ofxCuiCuiShapeEditor.cpp">
<polygon fill="white" stroke="black" points="97.0347,-0.5 97.0347,-18.5 229.778,-18.5 229.778,-0.5 97.0347,-0.5"/>
<text text-anchor="middle" x="163.406" y="-6.5" font-family="Helvetica,sans-Serif" font-size="10.00">ofxCuiCuiShapeEditor.cpp</text>
</a>
</g>
</g>
<!-- Node1&#45;&gt;Node3 -->
<g id="edge2" class="edge"><title>Node1&#45;&gt;Node3</title>
<path fill="none" stroke="midnightblue" d="M118.455,-48.9259C129.877,-39.1622 144.491,-26.6693 153.901,-18.6253"/>
<polygon fill="midnightblue" stroke="midnightblue" points="116.15,-46.2922 110.823,-55.4504 120.698,-51.613 116.15,-46.2922"/>
</g>
</g>
</svg>
