<?xml version="1.0" encoding="UTF-8" standalone="no"?>
<!DOCTYPE svg PUBLIC "-//W3C//DTD SVG 1.1//EN"
 "http://www.w3.org/Graphics/SVG/1.1/DTD/svg11.dtd">
<!-- Generated by graphviz version 2.38.0 (20140413.2041)
 -->
<!-- Title: ofxCuiCui.hpp Pages: 1 -->
<svg width="1743pt" height="387pt"
 viewBox="0.00 0.00 1742.71 387.00" xmlns="http://www.w3.org/2000/svg" xmlns:xlink="http://www.w3.org/1999/xlink">
<g id="graph0" class="graph" transform="scale(1 1) rotate(0) translate(4 383)">
<title>ofxCuiCui.hpp</title>
<polygon fill="white" stroke="none" points="-4,4 -4,-383 1738.71,-383 1738.71,4 -4,4"/>
<!-- Node1 -->
<g id="node1" class="node"><title>Node1</title>
<polygon fill="#bfbfbf" stroke="black" points="897.108,-360.5 897.108,-378.5 975.92,-378.5 975.92,-360.5 897.108,-360.5"/>
<text text-anchor="middle" x="936.514" y="-366.5" font-family="Helvetica,sans-Serif" font-size="10.00">ofxCuiCui.hpp</text>
</g>
<!-- Node2 -->
<g id="node2" class="node"><title>Node2</title>
<g id="a_node2"><a xlink:href="ofx_cui_cui_bpf_8hpp.html" target="_top" xlink:title="components/ofxCuiCuiBpf.hpp">
<polygon fill="white" stroke="black" points="15.9748,-300.5 15.9748,-318.5 167.053,-318.5 167.053,-300.5 15.9748,-300.5"/>
<text text-anchor="middle" x="91.5139" y="-306.5" font-family="Helvetica,sans-Serif" font-size="10.00">components/ofxCuiCuiBpf.hpp</text>
</a>
</g>
</g>
<!-- Node1&#45;&gt;Node2 -->
<g id="edge1" class="edge"><title>Node1&#45;&gt;Node2</title>
<path fill="none" stroke="midnightblue" d="M896.71,-367.416C784.167,-364.081 454.133,-352.422 181.514,-324 171.153,-322.92 160.16,-321.501 149.547,-319.989"/>
<polygon fill="midnightblue" stroke="midnightblue" points="149.923,-316.506 139.521,-318.519 148.907,-323.432 149.923,-316.506"/>
</g>
<!-- Node3 -->
<g id="node3" class="node"><title>Node3</title>
<g id="a_node3"><a xlink:href="ofx_cui_cui_component_8hpp.html" target="_top" xlink:title="ofxCuiCuiComponent.hpp">
<polygon fill="white" stroke="black" points="809.258,-170.5 809.258,-188.5 939.77,-188.5 939.77,-170.5 809.258,-170.5"/>
<text text-anchor="middle" x="874.514" y="-176.5" font-family="Helvetica,sans-Serif" font-size="10.00">ofxCuiCuiComponent.hpp</text>
</a>
</g>
</g>
<!-- Node1&#45;&gt;Node3 -->
<g id="edge37" class="edge"><title>Node1&#45;&gt;Node3</title>
<path fill="none" stroke="midnightblue" d="M896.859,-367.341C795.716,-363.978 534.274,-352.577 508.514,-324 499.884,-314.427 500.881,-305.386 508.514,-295 545.177,-245.115 721.726,-207.282 815.569,-190.317"/>
<polygon fill="midnightblue" stroke="midnightblue" points="816.258,-193.75 825.487,-188.546 815.027,-186.859 816.258,-193.75"/>
</g>
<!-- Node4 -->
<g id="node4" class="node"><title>Node4</title>
<g id="a_node4"><a xlink:href="ofx_cui_cui_icon_8hpp.html" target="_top" xlink:title="ofxCuiCuiIcon.hpp">
<polygon fill="white" stroke="black" points="1311.66,-110.5 1311.66,-128.5 1409.37,-128.5 1409.37,-110.5 1311.66,-110.5"/>
<text text-anchor="middle" x="1360.51" y="-116.5" font-family="Helvetica,sans-Serif" font-size="10.00">ofxCuiCuiIcon.hpp</text>
</a>
</g>
</g>
<!-- Node1&#45;&gt;Node4 -->
<g id="edge39" class="edge"><title>Node1&#45;&gt;Node4</title>
<path fill="none" stroke="midnightblue" d="M975.958,-368.496C1058.24,-367.721 1244.62,-361.725 1293.51,-324 1352.34,-278.614 1360.16,-180.157 1360.75,-139.082"/>
<polygon fill="midnightblue" stroke="midnightblue" points="1364.25,-138.909 1360.76,-128.906 1357.25,-138.902 1364.25,-138.909"/>
</g>
<!-- Node5 -->
<g id="node5" class="node"><title>Node5</title>
<g id="a_node5"><a xlink:href="ofx_cui_cui_common_8hpp.html" target="_top" xlink:title="ofxCuiCuiCommon.hpp">
<polygon fill="white" stroke="black" points="1300.82,-55.5 1300.82,-73.5 1420.2,-73.5 1420.2,-55.5 1300.82,-55.5"/>
<text text-anchor="middle" x="1360.51" y="-61.5" font-family="Helvetica,sans-Serif" font-size="10.00">ofxCuiCuiCommon.hpp</text>
</a>
</g>
</g>
<!-- Node1&#45;&gt;Node5 -->
<g id="edge36" class="edge"><title>Node1&#45;&gt;Node5</title>
<path fill="none" stroke="midnightblue" d="M976.148,-369.177C1113.76,-370.482 1562.51,-365.535 1562.51,-245.5 1562.51,-245.5 1562.51,-245.5 1562.51,-178.5 1562.51,-116.298 1488.66,-88.0034 1430.26,-75.3536"/>
<polygon fill="midnightblue" stroke="midnightblue" points="1430.8,-71.8909 1420.3,-73.3117 1429.39,-78.7484 1430.8,-71.8909"/>
</g>
<!-- Node7 -->
<g id="node7" class="node"><title>Node7</title>
<g id="a_node7"><a xlink:href="ofx_cui_cui_style_8hpp.html" target="_top" xlink:title="ofxCuiCuiStyle.hpp">
<polygon fill="white" stroke="black" points="823.992,-110.5 823.992,-128.5 925.036,-128.5 925.036,-110.5 823.992,-110.5"/>
<text text-anchor="middle" x="874.514" y="-116.5" font-family="Helvetica,sans-Serif" font-size="10.00">ofxCuiCuiStyle.hpp</text>
</a>
</g>
</g>
<!-- Node1&#45;&gt;Node7 -->
<g id="edge40" class="edge"><title>Node1&#45;&gt;Node7</title>
<path fill="none" stroke="midnightblue" d="M896.828,-368.344C757.478,-367.473 296.047,-361.738 242.514,-324 216.805,-305.876 220.867,-289.807 214.514,-259 211.911,-246.377 206.179,-239.831 214.514,-230 291.163,-139.586 665.116,-123.738 813.587,-121.029"/>
<polygon fill="midnightblue" stroke="midnightblue" points="813.94,-124.523 823.88,-120.855 813.823,-117.524 813.94,-124.523"/>
</g>
<!-- Node8 -->
<g id="node8" class="node"><title>Node8</title>
<g id="a_node8"><a xlink:href="ofx_cui_cui_text_box_8hpp.html" target="_top" xlink:title="ofxCuiCuiTextBox.hpp">
<polygon fill="white" stroke="black" points="1179.32,-110.5 1179.32,-128.5 1293.71,-128.5 1293.71,-110.5 1179.32,-110.5"/>
<text text-anchor="middle" x="1236.51" y="-116.5" font-family="Helvetica,sans-Serif" font-size="10.00">ofxCuiCuiTextBox.hpp</text>
</a>
</g>
</g>
<!-- Node1&#45;&gt;Node8 -->
<g id="edge41" class="edge"><title>Node1&#45;&gt;Node8</title>
<path fill="none" stroke="midnightblue" d="M975.978,-367.293C1052.32,-364.296 1216.82,-354.404 1263.51,-324 1301.56,-299.225 1315.82,-273.703 1303.51,-230 1293.14,-193.187 1266.57,-156.525 1250.18,-136.353"/>
<polygon fill="midnightblue" stroke="midnightblue" points="1252.75,-133.97 1243.65,-128.534 1247.37,-138.454 1252.75,-133.97"/>
</g>
<!-- Node9 -->
<g id="node9" class="node"><title>Node9</title>
<g id="a_node9"><a xlink:href="ofx_cui_cui_graph_8hpp.html" target="_top" xlink:title="ofxCuiCuiGraph.hpp">
<polygon fill="white" stroke="black" points="23.2111,-235.5 23.2111,-253.5 129.817,-253.5 129.817,-235.5 23.2111,-235.5"/>
<text text-anchor="middle" x="76.5139" y="-241.5" font-family="Helvetica,sans-Serif" font-size="10.00">ofxCuiCuiGraph.hpp</text>
</a>
</g>
</g>
<!-- Node1&#45;&gt;Node9 -->
<g id="edge38" class="edge"><title>Node1&#45;&gt;Node9</title>
<path fill="none" stroke="midnightblue" d="M896.86,-368.111C723.282,-366.218 37.6737,-356.686 6.51385,-324 -14.8805,-301.557 22.9045,-274.35 50.7744,-258.572"/>
<polygon fill="midnightblue" stroke="midnightblue" points="52.6399,-261.542 59.746,-253.683 49.2904,-255.395 52.6399,-261.542"/>
</g>
<!-- Node10 -->
<g id="node10" class="node"><title>Node10</title>
<g id="a_node10"><a xlink:href="ofx_cui_cui_button_8hpp.html" target="_top" xlink:title="components/ofxCuiCuiButton.hpp">
<polygon fill="white" stroke="black" points="792.024,-235.5 792.024,-253.5 957.004,-253.5 957.004,-235.5 792.024,-235.5"/>
<text text-anchor="middle" x="874.514" y="-241.5" font-family="Helvetica,sans-Serif" font-size="10.00">components/ofxCuiCuiButton.hpp</text>
</a>
</g>
</g>
<!-- Node1&#45;&gt;Node10 -->
<g id="edge12" class="edge"><title>Node1&#45;&gt;Node10</title>
<path fill="none" stroke="midnightblue" d="M973.539,-360.422C993.2,-354.047 1015.69,-342.947 1027.51,-324 1034.34,-313.066 1035.1,-305.423 1027.51,-295 1015.43,-278.386 966.662,-264.513 927.39,-255.722"/>
<polygon fill="midnightblue" stroke="midnightblue" points="927.897,-252.25 917.381,-253.543 926.408,-259.09 927.897,-252.25"/>
</g>
<!-- Node11 -->
<g id="node11" class="node"><title>Node11</title>
<g id="a_node11"><a xlink:href="ofx_cui_cui_check_box_8hpp.html" target="_top" xlink:title="components/ofxCuiCuiCheck\lBox.hpp">
<polygon fill="white" stroke="black" points="1074.04,-295.5 1074.04,-323.5 1218.99,-323.5 1218.99,-295.5 1074.04,-295.5"/>
<text text-anchor="start" x="1082.04" y="-311.5" font-family="Helvetica,sans-Serif" font-size="10.00">components/ofxCuiCuiCheck</text>
<text text-anchor="middle" x="1146.51" y="-301.5" font-family="Helvetica,sans-Serif" font-size="10.00">Box.hpp</text>
</a>
</g>
</g>
<!-- Node1&#45;&gt;Node11 -->
<g id="edge14" class="edge"><title>Node1&#45;&gt;Node11</title>
<path fill="none" stroke="midnightblue" d="M965.713,-360.435C997.677,-351.607 1049.71,-337.237 1089.76,-326.174"/>
<polygon fill="midnightblue" stroke="midnightblue" points="1090.7,-329.546 1099.41,-323.51 1088.84,-322.798 1090.7,-329.546"/>
</g>
<!-- Node12 -->
<g id="node12" class="node"><title>Node12</title>
<g id="a_node12"><a xlink:href="ofx_cui_cui_draggable_button_8hpp.html" target="_top" xlink:title="components/ofxCuiCuiDraggable\lButton.hpp">
<polygon fill="white" stroke="black" points="517.14,-295.5 517.14,-323.5 679.888,-323.5 679.888,-295.5 517.14,-295.5"/>
<text text-anchor="start" x="525.14" y="-311.5" font-family="Helvetica,sans-Serif" font-size="10.00">components/ofxCuiCuiDraggable</text>
<text text-anchor="middle" x="598.514" y="-301.5" font-family="Helvetica,sans-Serif" font-size="10.00">Button.hpp</text>
</a>
</g>
</g>
<!-- Node1&#45;&gt;Node12 -->
<g id="edge16" class="edge"><title>Node1&#45;&gt;Node12</title>
<path fill="none" stroke="midnightblue" d="M897.079,-361.733C845.211,-352.833 752.649,-336.949 684.293,-325.22"/>
<polygon fill="midnightblue" stroke="midnightblue" points="684.839,-321.762 674.391,-323.52 683.655,-328.661 684.839,-321.762"/>
</g>
<!-- Node13 -->
<g id="node13" class="node"><title>Node13</title>
<g id="a_node13"><a xlink:href="ofx_cui_cui_drop_down_8hpp.html" target="_top" xlink:title="components/ofxCuiCuiDrop\lDown.hpp">
<polygon fill="white" stroke="black" points="698.374,-295.5 698.374,-323.5 836.654,-323.5 836.654,-295.5 698.374,-295.5"/>
<text text-anchor="start" x="706.374" y="-311.5" font-family="Helvetica,sans-Serif" font-size="10.00">components/ofxCuiCuiDrop</text>
<text text-anchor="middle" x="767.514" y="-301.5" font-family="Helvetica,sans-Serif" font-size="10.00">Down.hpp</text>
</a>
</g>
</g>
<!-- Node1&#45;&gt;Node13 -->
<g id="edge18" class="edge"><title>Node1&#45;&gt;Node13</title>
<path fill="none" stroke="midnightblue" d="M913.015,-360.435C887.782,-351.775 847.008,-337.782 815.034,-326.809"/>
<polygon fill="midnightblue" stroke="midnightblue" points="816.016,-323.445 805.421,-323.51 813.743,-330.066 816.016,-323.445"/>
</g>
<!-- Node14 -->
<g id="node14" class="node"><title>Node14</title>
<g id="a_node14"><a xlink:href="ofx_cui_cui_group_8hpp.html" target="_top" xlink:title="components/ofxCuiCuiGroup.hpp">
<polygon fill="white" stroke="black" points="974.583,-235.5 974.583,-253.5 1138.44,-253.5 1138.44,-235.5 974.583,-235.5"/>
<text text-anchor="middle" x="1056.51" y="-241.5" font-family="Helvetica,sans-Serif" font-size="10.00">components/ofxCuiCuiGroup.hpp</text>
</a>
</g>
</g>
<!-- Node1&#45;&gt;Node14 -->
<g id="edge20" class="edge"><title>Node1&#45;&gt;Node14</title>
<path fill="none" stroke="midnightblue" d="M975.989,-368.526C1047.84,-367.643 1195.55,-361.223 1227.51,-324 1235.91,-314.222 1235.26,-305.303 1227.51,-295 1214.12,-277.179 1161.52,-263.724 1118.15,-255.373"/>
<polygon fill="midnightblue" stroke="midnightblue" points="1118.68,-251.912 1108.21,-253.515 1117.4,-258.793 1118.68,-251.912"/>
</g>
<!-- Node15 -->
<g id="node15" class="node"><title>Node15</title>
<g id="a_node15"><a xlink:href="ofx_cui_cui_matrix_8hpp.html" target="_top" xlink:title="components/ofxCuiCuiMatrix.hpp">
<polygon fill="white" stroke="black" points="854.869,-300.5 854.869,-318.5 1018.16,-318.5 1018.16,-300.5 854.869,-300.5"/>
<text text-anchor="middle" x="936.514" y="-306.5" font-family="Helvetica,sans-Serif" font-size="10.00">components/ofxCuiCuiMatrix.hpp</text>
</a>
</g>
</g>
<!-- Node1&#45;&gt;Node15 -->
<g id="edge22" class="edge"><title>Node1&#45;&gt;Node15</title>
<path fill="none" stroke="midnightblue" d="M936.514,-360.435C936.514,-352.389 936.514,-339.739 936.514,-329.185"/>
<polygon fill="midnightblue" stroke="midnightblue" points="940.014,-328.872 936.514,-318.872 933.014,-328.872 940.014,-328.872"/>
</g>
<!-- Node16 -->
<g id="node16" class="node"><title>Node16</title>
<g id="a_node16"><a xlink:href="ofx_cui_cui_multi_slider_8hpp.html" target="_top" xlink:title="components/ofxCuiCuiMulti\lSlider.hpp">
<polygon fill="white" stroke="black" points="1156.65,-230.5 1156.65,-258.5 1294.37,-258.5 1294.37,-230.5 1156.65,-230.5"/>
<text text-anchor="start" x="1164.65" y="-246.5" font-family="Helvetica,sans-Serif" font-size="10.00">components/ofxCuiCuiMulti</text>
<text text-anchor="middle" x="1225.51" y="-236.5" font-family="Helvetica,sans-Serif" font-size="10.00">Slider.hpp</text>
</a>
</g>
</g>
<!-- Node1&#45;&gt;Node16 -->
<g id="edge24" class="edge"><title>Node1&#45;&gt;Node16</title>
<path fill="none" stroke="midnightblue" d="M976.051,-368.926C1051.39,-368.803 1211.09,-363.736 1245.51,-324 1259.11,-308.304 1250.37,-284.6 1240.53,-267.346"/>
<polygon fill="midnightblue" stroke="midnightblue" points="1243.32,-265.194 1235.09,-258.516 1237.36,-268.866 1243.32,-265.194"/>
</g>
<!-- Node17 -->
<g id="node17" class="node"><title>Node17</title>
<g id="a_node17"><a xlink:href="ofx_cui_cui_numbox_8hpp.html" target="_top" xlink:title="components/ofxCuiCuiNumbox.hpp">
<polygon fill="white" stroke="black" points="223.862,-235.5 223.862,-253.5 397.166,-253.5 397.166,-235.5 223.862,-235.5"/>
<text text-anchor="middle" x="310.514" y="-241.5" font-family="Helvetica,sans-Serif" font-size="10.00">components/ofxCuiCuiNumbox.hpp</text>
</a>
</g>
</g>
<!-- Node1&#45;&gt;Node17 -->
<g id="edge26" class="edge"><title>Node1&#45;&gt;Node17</title>
<path fill="none" stroke="midnightblue" d="M896.8,-368.996C757.432,-370.327 296.657,-371.108 252.514,-324 232.891,-303.059 264.618,-275.468 288.339,-259.191"/>
<polygon fill="midnightblue" stroke="midnightblue" points="290.488,-261.967 296.915,-253.545 286.638,-256.121 290.488,-261.967"/>
</g>
<!-- Node18 -->
<g id="node18" class="node"><title>Node18</title>
<g id="a_node18"><a xlink:href="ofx_cui_cui_shape_editor_8hpp.html" target="_top" xlink:title="components/ofxCuiCuiShape\lEditor.hpp">
<polygon fill="white" stroke="black" points="1388.75,-165.5 1388.75,-193.5 1534.27,-193.5 1534.27,-165.5 1388.75,-165.5"/>
<text text-anchor="start" x="1396.75" y="-181.5" font-family="Helvetica,sans-Serif" font-size="10.00">components/ofxCuiCuiShape</text>
<text text-anchor="middle" x="1461.51" y="-171.5" font-family="Helvetica,sans-Serif" font-size="10.00">Editor.hpp</text>
</a>
</g>
</g>
<!-- Node1&#45;&gt;Node18 -->
<g id="edge28" class="edge"><title>Node1&#45;&gt;Node18</title>
<path fill="none" stroke="midnightblue" d="M975.926,-368.894C1070.78,-369.158 1308.77,-365.542 1374.51,-324 1418.96,-295.915 1443.98,-236.113 1454.87,-203.27"/>
<polygon fill="midnightblue" stroke="midnightblue" points="1458.24,-204.218 1457.92,-193.628 1451.57,-202.108 1458.24,-204.218"/>
</g>
<!-- Node19 -->
<g id="node19" class="node"><title>Node19</title>
<g id="a_node19"><a xlink:href="ofx_cui_cui_slider_8hpp.html" target="_top" xlink:title="components/ofxCuiCuiSlider.hpp">
<polygon fill="white" stroke="black" points="261.97,-300.5 261.97,-318.5 423.058,-318.5 423.058,-300.5 261.97,-300.5"/>
<text text-anchor="middle" x="342.514" y="-306.5" font-family="Helvetica,sans-Serif" font-size="10.00">components/ofxCuiCuiSlider.hpp</text>
</a>
</g>
</g>
<!-- Node1&#45;&gt;Node19 -->
<g id="edge30" class="edge"><title>Node1&#45;&gt;Node19</title>
<path fill="none" stroke="midnightblue" d="M896.983,-365.68C812.501,-359.498 608.155,-343.72 437.514,-324 427.23,-322.812 416.342,-321.405 405.748,-319.955"/>
<polygon fill="midnightblue" stroke="midnightblue" points="406.097,-316.47 395.71,-318.559 405.132,-323.404 406.097,-316.47"/>
</g>
<!-- Node20 -->
<g id="node20" class="node"><title>Node20</title>
<g id="a_node20"><a xlink:href="ofx_cui_cui_text_input_8hpp.html" target="_top" xlink:title="components/ofxCuiCuiText\lInput.hpp">
<polygon fill="white" stroke="black" points="415.041,-230.5 415.041,-258.5 549.987,-258.5 549.987,-230.5 415.041,-230.5"/>
<text text-anchor="start" x="423.041" y="-246.5" font-family="Helvetica,sans-Serif" font-size="10.00">components/ofxCuiCuiText</text>
<text text-anchor="middle" x="482.514" y="-236.5" font-family="Helvetica,sans-Serif" font-size="10.00">Input.hpp</text>
</a>
</g>
</g>
<!-- Node1&#45;&gt;Node20 -->
<g id="edge32" class="edge"><title>Node1&#45;&gt;Node20</title>
<path fill="none" stroke="midnightblue" d="M896.935,-367.658C790.387,-364.984 503.623,-354.953 475.514,-324 462.057,-309.182 466.266,-285.666 472.345,-268.231"/>
<polygon fill="midnightblue" stroke="midnightblue" points="475.657,-269.368 476.02,-258.78 469.134,-266.831 475.657,-269.368"/>
</g>
<!-- Node21 -->
<g id="node21" class="node"><title>Node21</title>
<g id="a_node21"><a xlink:href="ofx_cui_cui_colormap_8hpp.html" target="_top" xlink:title="core/ofxCuiCuiColormap.hpp">
<polygon fill="white" stroke="black" points="1590.32,-170.5 1590.32,-188.5 1734.71,-188.5 1734.71,-170.5 1590.32,-170.5"/>
<text text-anchor="middle" x="1662.51" y="-176.5" font-family="Helvetica,sans-Serif" font-size="10.00">core/ofxCuiCuiColormap.hpp</text>
</a>
</g>
</g>
<!-- Node1&#45;&gt;Node21 -->
<g id="edge34" class="edge"><title>Node1&#45;&gt;Node21</title>
<path fill="none" stroke="midnightblue" d="M976.117,-367.858C1107.78,-365.437 1525.42,-355.336 1576.51,-324 1623.69,-295.067 1648.28,-229.711 1657.77,-198.177"/>
<polygon fill="midnightblue" stroke="midnightblue" points="1661.14,-199.124 1660.51,-188.548 1654.41,-197.208 1661.14,-199.124"/>
</g>
<!-- Node2&#45;&gt;Node3 -->
<g id="edge2" class="edge"><title>Node2&#45;&gt;Node3</title>
<path fill="none" stroke="midnightblue" d="M100.557,-300.426C119.851,-283.754 167.165,-245.767 214.514,-230 321.085,-194.512 649.818,-184.358 799.225,-181.541"/>
<polygon fill="midnightblue" stroke="midnightblue" points="799.301,-185.04 809.235,-181.358 799.173,-178.041 799.301,-185.04"/>
</g>
<!-- Node2&#45;&gt;Node9 -->
<g id="edge10" class="edge"><title>Node2&#45;&gt;Node9</title>
<path fill="none" stroke="midnightblue" d="M89.5529,-300.264C87.3397,-290.969 83.6727,-275.567 80.7903,-263.461"/>
<polygon fill="midnightblue" stroke="midnightblue" points="84.149,-262.456 78.4279,-253.539 77.3394,-264.078 84.149,-262.456"/>
</g>
<!-- Node3&#45;&gt;Node4 -->
<g id="edge3" class="edge"><title>Node3&#45;&gt;Node4</title>
<path fill="none" stroke="midnightblue" d="M939.849,-171.568C1021.8,-162.732 1166.9,-146.628 1301.4,-129.11"/>
<polygon fill="midnightblue" stroke="midnightblue" points="1302.02,-132.56 1311.48,-127.793 1301.11,-125.619 1302.02,-132.56"/>
</g>
<!-- Node3&#45;&gt;Node7 -->
<g id="edge6" class="edge"><title>Node3&#45;&gt;Node7</title>
<path fill="none" stroke="midnightblue" d="M874.514,-170.435C874.514,-162.389 874.514,-149.739 874.514,-139.185"/>
<polygon fill="midnightblue" stroke="midnightblue" points="878.014,-138.872 874.514,-128.872 871.014,-138.872 878.014,-138.872"/>
</g>
<!-- Node3&#45;&gt;Node8 -->
<g id="edge8" class="edge"><title>Node3&#45;&gt;Node8</title>
<path fill="none" stroke="midnightblue" d="M924.468,-170.496C990.28,-159.952 1105.91,-141.425 1176.43,-130.127"/>
<polygon fill="midnightblue" stroke="midnightblue" points="1177.17,-133.553 1186.49,-128.515 1176.06,-126.641 1177.17,-133.553"/>
</g>
<!-- Node4&#45;&gt;Node5 -->
<g id="edge4" class="edge"><title>Node4&#45;&gt;Node5</title>
<path fill="none" stroke="midnightblue" d="M1360.51,-110.219C1360.51,-103.177 1360.51,-92.8083 1360.51,-83.8277"/>
<polygon fill="midnightblue" stroke="midnightblue" points="1364.01,-83.5495 1360.51,-73.5496 1357.01,-83.5496 1364.01,-83.5495"/>
</g>
<!-- Node6 -->
<g id="node6" class="node"><title>Node6</title>
<polygon fill="white" stroke="#bfbfbf" points="1333.34,-0.5 1333.34,-18.5 1387.69,-18.5 1387.69,-0.5 1333.34,-0.5"/>
<text text-anchor="middle" x="1360.51" y="-6.5" font-family="Helvetica,sans-Serif" font-size="10.00">ofMain.h</text>
</g>
<!-- Node5&#45;&gt;Node6 -->
<g id="edge5" class="edge"><title>Node5&#45;&gt;Node6</title>
<path fill="none" stroke="midnightblue" d="M1360.51,-55.2188C1360.51,-48.1769 1360.51,-37.8083 1360.51,-28.8277"/>
<polygon fill="midnightblue" stroke="midnightblue" points="1364.01,-28.5495 1360.51,-18.5496 1357.01,-28.5496 1364.01,-28.5495"/>
</g>
<!-- Node7&#45;&gt;Node5 -->
<g id="edge7" class="edge"><title>Node7&#45;&gt;Node5</title>
<path fill="none" stroke="midnightblue" d="M925.149,-112.978C1012.38,-103.465 1191.16,-83.9688 1290.33,-73.1532"/>
<polygon fill="midnightblue" stroke="midnightblue" points="1291,-76.602 1300.56,-72.0384 1290.24,-69.6433 1291,-76.602"/>
</g>
<!-- Node8&#45;&gt;Node5 -->
<g id="edge9" class="edge"><title>Node8&#45;&gt;Node5</title>
<path fill="none" stroke="midnightblue" d="M1255.35,-110.45C1275.74,-101.734 1308.5,-87.7306 1332.04,-77.6691"/>
<polygon fill="midnightblue" stroke="midnightblue" points="1333.68,-80.774 1341.5,-73.6253 1330.93,-74.3373 1333.68,-80.774"/>
</g>
<!-- Node9&#45;&gt;Node6 -->
<g id="edge11" class="edge"><title>Node9&#45;&gt;Node6</title>
<path fill="none" stroke="midnightblue" d="M92.2095,-235.366C124.004,-219.256 198.683,-183.274 265.514,-165 670.255,-54.3268 1182.02,-20.0154 1323.07,-12.3459"/>
<polygon fill="midnightblue" stroke="midnightblue" points="1323.53,-15.8265 1333.33,-11.7999 1323.15,-8.83635 1323.53,-15.8265"/>
</g>
<!-- Node10&#45;&gt;Node3 -->
<g id="edge13" class="edge"><title>Node10&#45;&gt;Node3</title>
<path fill="none" stroke="midnightblue" d="M874.514,-235.264C874.514,-226.064 874.514,-210.881 874.514,-198.833"/>
<polygon fill="midnightblue" stroke="midnightblue" points="878.014,-198.539 874.514,-188.539 871.014,-198.539 878.014,-198.539"/>
</g>
<!-- Node11&#45;&gt;Node10 -->
<g id="edge15" class="edge"><title>Node11&#45;&gt;Node10</title>
<path fill="none" stroke="midnightblue" d="M1090.16,-295.446C1039.42,-283.694 965.842,-266.653 919.097,-255.826"/>
<polygon fill="midnightblue" stroke="midnightblue" points="919.793,-252.395 909.261,-253.548 918.213,-259.214 919.793,-252.395"/>
</g>
<!-- Node12&#45;&gt;Node10 -->
<g id="edge17" class="edge"><title>Node12&#45;&gt;Node10</title>
<path fill="none" stroke="midnightblue" d="M655.701,-295.446C707.187,-283.694 781.843,-266.653 829.275,-255.826"/>
<polygon fill="midnightblue" stroke="midnightblue" points="830.286,-259.186 839.256,-253.548 828.728,-252.361 830.286,-259.186"/>
</g>
<!-- Node13&#45;&gt;Node10 -->
<g id="edge19" class="edge"><title>Node13&#45;&gt;Node10</title>
<path fill="none" stroke="midnightblue" d="M789.684,-295.446C807.929,-284.704 833.678,-269.544 852.012,-258.749"/>
<polygon fill="midnightblue" stroke="midnightblue" points="854.004,-261.638 860.845,-253.548 850.452,-255.606 854.004,-261.638"/>
</g>
<!-- Node14&#45;&gt;Node3 -->
<g id="edge21" class="edge"><title>Node14&#45;&gt;Node3</title>
<path fill="none" stroke="midnightblue" d="M1033.09,-235.393C1001.15,-224.336 943.756,-204.468 907.478,-191.911"/>
<polygon fill="midnightblue" stroke="midnightblue" points="908.439,-188.54 897.845,-188.576 906.15,-195.155 908.439,-188.54"/>
</g>
<!-- Node15&#45;&gt;Node10 -->
<g id="edge23" class="edge"><title>Node15&#45;&gt;Node10</title>
<path fill="none" stroke="midnightblue" d="M928.408,-300.264C918.607,-290.305 901.908,-273.336 889.69,-260.921"/>
<polygon fill="midnightblue" stroke="midnightblue" points="891.934,-258.211 882.425,-253.539 886.945,-263.121 891.934,-258.211"/>
</g>
<!-- Node16&#45;&gt;Node3 -->
<g id="edge25" class="edge"><title>Node16&#45;&gt;Node3</title>
<path fill="none" stroke="midnightblue" d="M1156.59,-231.128C1089.92,-219.163 990.237,-201.271 928.957,-190.272"/>
<polygon fill="midnightblue" stroke="midnightblue" points="929.553,-186.823 919.092,-188.501 928.316,-193.713 929.553,-186.823"/>
</g>
<!-- Node17&#45;&gt;Node3 -->
<g id="edge27" class="edge"><title>Node17&#45;&gt;Node3</title>
<path fill="none" stroke="midnightblue" d="M365.299,-235.465C378.764,-233.581 393.15,-231.646 406.514,-230 544.663,-212.986 706.202,-196.695 798.818,-187.7"/>
<polygon fill="midnightblue" stroke="midnightblue" points="799.323,-191.167 808.939,-186.719 798.648,-184.2 799.323,-191.167"/>
</g>
<!-- Node18&#45;&gt;Node5 -->
<g id="edge29" class="edge"><title>Node18&#45;&gt;Node5</title>
<path fill="none" stroke="midnightblue" d="M1455.12,-165.445C1447.63,-150.922 1434.2,-127.237 1418.51,-110 1407.76,-98.1829 1393.55,-87.2256 1381.89,-79.1407"/>
<polygon fill="midnightblue" stroke="midnightblue" points="1383.82,-76.2221 1373.57,-73.5515 1379.92,-82.0329 1383.82,-76.2221"/>
</g>
<!-- Node19&#45;&gt;Node17 -->
<g id="edge31" class="edge"><title>Node19&#45;&gt;Node17</title>
<path fill="none" stroke="midnightblue" d="M338.33,-300.264C333.513,-290.779 325.466,-274.936 319.263,-262.724"/>
<polygon fill="midnightblue" stroke="midnightblue" points="322.246,-260.87 314.597,-253.539 316.005,-264.04 322.246,-260.87"/>
</g>
<!-- Node20&#45;&gt;Node3 -->
<g id="edge33" class="edge"><title>Node20&#45;&gt;Node3</title>
<path fill="none" stroke="midnightblue" d="M550.13,-232.193C554.659,-231.447 559.152,-230.711 563.514,-230 650.155,-215.885 750.453,-200.004 813.195,-190.124"/>
<polygon fill="midnightblue" stroke="midnightblue" points="813.981,-193.544 823.316,-188.531 812.893,-186.629 813.981,-193.544"/>
</g>
<!-- Node21&#45;&gt;Node6 -->
<g id="edge35" class="edge"><title>Node21&#45;&gt;Node6</title>
<path fill="none" stroke="midnightblue" d="M1653.52,-170.113C1638.44,-156.345 1606.74,-128.622 1576.51,-110 1514.39,-71.7271 1435.09,-38.8766 1391.95,-22.2027"/>
<polygon fill="midnightblue" stroke="midnightblue" points="1393.14,-18.9109 1382.55,-18.6058 1390.64,-25.4486 1393.14,-18.9109"/>
</g>
</g>
</svg>
