<?xml version="1.0" encoding="UTF-8" standalone="no"?>
<!DOCTYPE svg PUBLIC "-//W3C//DTD SVG 1.1//EN"
 "http://www.w3.org/Graphics/SVG/1.1/DTD/svg11.dtd">
<!-- Generated by graphviz version 2.38.0 (20140413.2041)
 -->
<!-- Title: ofxOuiNumbox.hpp Pages: 1 -->
<svg width="277pt" height="137pt"
 viewBox="0.00 0.00 276.70 137.00" xmlns="http://www.w3.org/2000/svg" xmlns:xlink="http://www.w3.org/1999/xlink">
<g id="graph0" class="graph" transform="scale(1 1) rotate(0) translate(4 133)">
<title>ofxOuiNumbox.hpp</title>
<polygon fill="white" stroke="none" points="-4,4 -4,-133 272.702,-133 272.702,4 -4,4"/>
<!-- Node7 -->
<g id="node1" class="node"><title>Node7</title>
<polygon fill="#bfbfbf" stroke="black" points="54.3818,-110.5 54.3818,-128.5 155.982,-128.5 155.982,-110.5 54.3818,-110.5"/>
<text text-anchor="middle" x="105.182" y="-116.5" font-family="Helvetica,sans-Serif" font-size="10.00">ofxOuiNumbox.hpp</text>
</g>
<!-- Node8 -->
<g id="node2" class="node"><title>Node8</title>
<g id="a_node2"><a xlink:href="ofx_oui_8hpp.html" target="_top" xlink:title="ofxOui.hpp">
<polygon fill="white" stroke="black" points="0,-0.5 0,-18.5 64.3643,-18.5 64.3643,-0.5 0,-0.5"/>
<text text-anchor="middle" x="32.1821" y="-6.5" font-family="Helvetica,sans-Serif" font-size="10.00">ofxOui.hpp</text>
</a>
</g>
</g>
<!-- Node7&#45;&gt;Node8 -->
<g id="edge1" class="edge"><title>Node7&#45;&gt;Node8</title>
<path fill="none" stroke="midnightblue" d="M82.8925,-104.742C71.9282,-96.9472 59.3477,-86.2978 51.1821,-74 39.4701,-56.3609 34.7787,-31.2738 33.0662,-18.5576"/>
<polygon fill="midnightblue" stroke="midnightblue" points="80.9758,-107.671 91.224,-110.359 84.8886,-101.867 80.9758,-107.671"/>
</g>
<!-- Node9 -->
<g id="node3" class="node"><title>Node9</title>
<g id="a_node3"><a xlink:href="ofx_oui_slider_8hpp.html" target="_top" xlink:title="ofxOuiSlider.hpp">
<polygon fill="white" stroke="black" points="60.4902,-55.5 60.4902,-73.5 149.874,-73.5 149.874,-55.5 60.4902,-55.5"/>
<text text-anchor="middle" x="105.182" y="-61.5" font-family="Helvetica,sans-Serif" font-size="10.00">ofxOuiSlider.hpp</text>
</a>
</g>
</g>
<!-- Node7&#45;&gt;Node9 -->
<g id="edge2" class="edge"><title>Node7&#45;&gt;Node9</title>
<path fill="none" stroke="midnightblue" d="M105.182,-100.175C105.182,-91.0945 105.182,-80.5949 105.182,-73.5496"/>
<polygon fill="midnightblue" stroke="midnightblue" points="101.682,-100.219 105.182,-110.219 108.682,-100.219 101.682,-100.219"/>
</g>
<!-- Node11 -->
<g id="node5" class="node"><title>Node11</title>
<g id="a_node5"><a xlink:href="ofx_oui_numbox_8cpp.html" target="_top" xlink:title="ofxOuiNumbox.cpp">
<polygon fill="white" stroke="black" points="167.663,-55.5 167.663,-73.5 268.702,-73.5 268.702,-55.5 167.663,-55.5"/>
<text text-anchor="middle" x="218.182" y="-61.5" font-family="Helvetica,sans-Serif" font-size="10.00">ofxOuiNumbox.cpp</text>
</a>
</g>
</g>
<!-- Node7&#45;&gt;Node11 -->
<g id="edge5" class="edge"><title>Node7&#45;&gt;Node11</title>
<path fill="none" stroke="midnightblue" d="M131.517,-106.148C152.877,-96.1297 182.376,-82.2941 200.858,-73.6253"/>
<polygon fill="midnightblue" stroke="midnightblue" points="129.912,-103.035 122.344,-110.45 132.884,-109.373 129.912,-103.035"/>
</g>
<!-- Node9&#45;&gt;Node8 -->
<g id="edge3" class="edge"><title>Node9&#45;&gt;Node8</title>
<path fill="none" stroke="midnightblue" d="M85.8875,-49.4916C72.3308,-39.6491 54.6683,-26.8255 43.3736,-18.6253"/>
<polygon fill="midnightblue" stroke="midnightblue" points="83.9465,-52.4075 94.095,-55.4504 88.0591,-46.743 83.9465,-52.4075"/>
</g>
<!-- Node10 -->
<g id="node4" class="node"><title>Node10</title>
<g id="a_node4"><a xlink:href="ofx_oui_slider_8cpp.html" target="_top" xlink:title="ofxOuiSlider.cpp">
<polygon fill="white" stroke="black" points="82.771,-0.5 82.771,-18.5 171.593,-18.5 171.593,-0.5 82.771,-0.5"/>
<text text-anchor="middle" x="127.182" y="-6.5" font-family="Helvetica,sans-Serif" font-size="10.00">ofxOuiSlider.cpp</text>
</a>
</g>
</g>
<!-- Node9&#45;&gt;Node10 -->
<g id="edge4" class="edge"><title>Node9&#45;&gt;Node10</title>
<path fill="none" stroke="midnightblue" d="M112.541,-45.7712C116.366,-36.5577 120.852,-25.7498 123.841,-18.5496"/>
<polygon fill="midnightblue" stroke="midnightblue" points="109.221,-44.641 108.62,-55.2188 115.686,-47.3247 109.221,-44.641"/>
</g>
</g>
</svg>
