<?xml version="1.0" encoding="UTF-8" standalone="no"?>
<!DOCTYPE svg PUBLIC "-//W3C//DTD SVG 1.1//EN"
 "http://www.w3.org/Graphics/SVG/1.1/DTD/svg11.dtd">
<!-- Generated by graphviz version 2.38.0 (20140413.2041)
 -->
<!-- Title: ofxOuiBpf.hpp Pages: 1 -->
<svg width="170pt" height="82pt"
 viewBox="0.00 0.00 169.59 82.00" xmlns="http://www.w3.org/2000/svg" xmlns:xlink="http://www.w3.org/1999/xlink">
<g id="graph0" class="graph" transform="scale(1 1) rotate(0) translate(4 78)">
<title>ofxOuiBpf.hpp</title>
<polygon fill="white" stroke="none" points="-4,4 -4,-78 165.588,-78 165.588,4 -4,4"/>
<!-- Node8 -->
<g id="node1" class="node"><title>Node8</title>
<polygon fill="#bfbfbf" stroke="black" points="37.4951,-55.5 37.4951,-73.5 116.869,-73.5 116.869,-55.5 37.4951,-55.5"/>
<text text-anchor="middle" x="77.1821" y="-61.5" font-family="Helvetica,sans-Serif" font-size="10.00">ofxOuiBpf.hpp</text>
</g>
<!-- Node9 -->
<g id="node2" class="node"><title>Node9</title>
<g id="a_node2"><a xlink:href="ofx_oui_8hpp.html" target="_top" xlink:title="ofxOui.hpp">
<polygon fill="white" stroke="black" points="0,-0.5 0,-18.5 64.3643,-18.5 64.3643,-0.5 0,-0.5"/>
<text text-anchor="middle" x="32.1821" y="-6.5" font-family="Helvetica,sans-Serif" font-size="10.00">ofxOui.hpp</text>
</a>
</g>
</g>
<!-- Node8&#45;&gt;Node9 -->
<g id="edge1" class="edge"><title>Node8&#45;&gt;Node9</title>
<path fill="none" stroke="midnightblue" d="M63.6253,-47.5331C55.5034,-37.9673 45.5245,-26.2143 39.0167,-18.5496"/>
<polygon fill="midnightblue" stroke="midnightblue" points="61.0105,-49.8611 70.1509,-55.2188 66.3466,-45.3305 61.0105,-49.8611"/>
</g>
<!-- Node10 -->
<g id="node3" class="node"><title>Node10</title>
<g id="a_node3"><a xlink:href="ofx_oui_bpf_8cpp.html" target="_top" xlink:title="ofxOuiBpf.cpp">
<polygon fill="white" stroke="black" points="82.7759,-0.5 82.7759,-18.5 161.588,-18.5 161.588,-0.5 82.7759,-0.5"/>
<text text-anchor="middle" x="122.182" y="-6.5" font-family="Helvetica,sans-Serif" font-size="10.00">ofxOuiBpf.cpp</text>
</a>
</g>
</g>
<!-- Node8&#45;&gt;Node10 -->
<g id="edge2" class="edge"><title>Node8&#45;&gt;Node10</title>
<path fill="none" stroke="midnightblue" d="M90.7389,-47.5331C98.8609,-37.9673 108.84,-26.2143 115.348,-18.5496"/>
<polygon fill="midnightblue" stroke="midnightblue" points="88.0177,-45.3305 84.2134,-55.2188 93.3538,-49.8611 88.0177,-45.3305"/>
</g>
</g>
</svg>
