<?xml version="1.0" encoding="UTF-8" standalone="no"?>
<!DOCTYPE svg PUBLIC "-//W3C//DTD SVG 1.1//EN"
 "http://www.w3.org/Graphics/SVG/1.1/DTD/svg11.dtd">
<!-- Generated by graphviz version 2.38.0 (20140413.2041)
 -->
<!-- Title: ofxCuiCuiStyle.hpp Pages: 1 -->
<svg width="1772pt" height="247pt"
 viewBox="0.00 0.00 1772.11 247.00" xmlns="http://www.w3.org/2000/svg" xmlns:xlink="http://www.w3.org/1999/xlink">
<g id="graph0" class="graph" transform="scale(1 1) rotate(0) translate(4 243)">
<title>ofxCuiCuiStyle.hpp</title>
<polygon fill="white" stroke="none" points="-4,4 -4,-243 1768.11,-243 1768.11,4 -4,4"/>
<!-- Node1 -->
<g id="node1" class="node"><title>Node1</title>
<polygon fill="#bfbfbf" stroke="black" points="1107.67,-220.5 1107.67,-238.5 1208.72,-238.5 1208.72,-220.5 1107.67,-220.5"/>
<text text-anchor="middle" x="1158.19" y="-226.5" font-family="Helvetica,sans-Serif" font-size="10.00">ofxCuiCuiStyle.hpp</text>
</g>
<!-- Node2 -->
<g id="node2" class="node"><title>Node2</title>
<g id="a_node2"><a xlink:href="ofx_cui_cui_component_8hpp.html" target="_top" xlink:title="ofxCuiCuiComponent.hpp">
<polygon fill="white" stroke="black" points="1092.94,-165.5 1092.94,-183.5 1223.45,-183.5 1223.45,-165.5 1092.94,-165.5"/>
<text text-anchor="middle" x="1158.19" y="-171.5" font-family="Helvetica,sans-Serif" font-size="10.00">ofxCuiCuiComponent.hpp</text>
</a>
</g>
</g>
<!-- Node1&#45;&gt;Node2 -->
<g id="edge1" class="edge"><title>Node1&#45;&gt;Node2</title>
<path fill="none" stroke="midnightblue" d="M1158.19,-210.175C1158.19,-201.094 1158.19,-190.595 1158.19,-183.55"/>
<polygon fill="midnightblue" stroke="midnightblue" points="1154.69,-210.219 1158.19,-220.219 1161.69,-210.219 1154.69,-210.219"/>
</g>
<!-- Node4 -->
<g id="node4" class="node"><title>Node4</title>
<g id="a_node4"><a xlink:href="ofx_cui_cui_8hpp.html" target="_top" xlink:title="ofxCuiCui.hpp">
<polygon fill="white" stroke="black" points="866.788,-0.5 866.788,-18.5 945.601,-18.5 945.601,-0.5 866.788,-0.5"/>
<text text-anchor="middle" x="906.194" y="-6.5" font-family="Helvetica,sans-Serif" font-size="10.00">ofxCuiCui.hpp</text>
</a>
</g>
</g>
<!-- Node1&#45;&gt;Node4 -->
<g id="edge37" class="edge"><title>Node1&#45;&gt;Node4</title>
<path fill="none" stroke="midnightblue" d="M1097.56,-226.569C1005.43,-219.817 834.625,-191.281 775.194,-74 755.602,-35.3357 821.052,-19.977 866.395,-14.0504"/>
<polygon fill="midnightblue" stroke="midnightblue" points="1097.37,-230.064 1107.58,-227.24 1097.84,-223.079 1097.37,-230.064"/>
</g>
<!-- Node27 -->
<g id="node27" class="node"><title>Node27</title>
<g id="a_node27"><a xlink:href="ofx_cui_cui_style_8cpp.html" target="_top" xlink:title="ofxCuiCuiStyle.cpp">
<polygon fill="white" stroke="black" points="1240.95,-165.5 1240.95,-183.5 1341.44,-183.5 1341.44,-165.5 1240.95,-165.5"/>
<text text-anchor="middle" x="1291.19" y="-171.5" font-family="Helvetica,sans-Serif" font-size="10.00">ofxCuiCuiStyle.cpp</text>
</a>
</g>
</g>
<!-- Node1&#45;&gt;Node27 -->
<g id="edge38" class="edge"><title>Node1&#45;&gt;Node27</title>
<path fill="none" stroke="midnightblue" d="M1187.84,-216.686C1213.08,-206.63 1248.66,-192.45 1270.8,-183.625"/>
<polygon fill="midnightblue" stroke="midnightblue" points="1186.39,-213.497 1178.39,-220.45 1188.98,-220 1186.39,-213.497"/>
</g>
<!-- Node3 -->
<g id="node3" class="node"><title>Node3</title>
<g id="a_node3"><a xlink:href="ofx_cui_cui_bpf_8hpp.html" target="_top" xlink:title="ofxCuiCuiBpf.hpp">
<polygon fill="white" stroke="black" points="859.283,-110.5 859.283,-128.5 953.105,-128.5 953.105,-110.5 859.283,-110.5"/>
<text text-anchor="middle" x="906.194" y="-116.5" font-family="Helvetica,sans-Serif" font-size="10.00">ofxCuiCuiBpf.hpp</text>
</a>
</g>
</g>
<!-- Node2&#45;&gt;Node3 -->
<g id="edge2" class="edge"><title>Node2&#45;&gt;Node3</title>
<path fill="none" stroke="midnightblue" d="M1110.04,-163.372C1061.87,-153.241 988.739,-137.861 944.414,-128.538"/>
<polygon fill="midnightblue" stroke="midnightblue" points="1109.41,-166.817 1119.92,-165.45 1110.86,-159.967 1109.41,-166.817"/>
</g>
<!-- Node2&#45;&gt;Node4 -->
<g id="edge35" class="edge"><title>Node2&#45;&gt;Node4</title>
<path fill="none" stroke="midnightblue" d="M1185,-160.963C1227.44,-139.498 1301.88,-94.2267 1267.19,-55 1246.15,-31.1997 1035.09,-17.3186 945.779,-12.4697"/>
<polygon fill="midnightblue" stroke="midnightblue" points="1183.4,-157.848 1175.98,-165.412 1186.5,-164.126 1183.4,-157.848"/>
</g>
<!-- Node6 -->
<g id="node6" class="node"><title>Node6</title>
<g id="a_node6"><a xlink:href="ofx_cui_cui_button_8hpp.html" target="_top" xlink:title="ofxCuiCuiButton.hpp">
<polygon fill="white" stroke="black" points="457.333,-110.5 457.333,-128.5 565.056,-128.5 565.056,-110.5 457.333,-110.5"/>
<text text-anchor="middle" x="511.194" y="-116.5" font-family="Helvetica,sans-Serif" font-size="10.00">ofxCuiCuiButton.hpp</text>
</a>
</g>
</g>
<!-- Node2&#45;&gt;Node6 -->
<g id="edge5" class="edge"><title>Node2&#45;&gt;Node6</title>
<path fill="none" stroke="midnightblue" d="M1082.86,-167.329C950.859,-156.516 680.817,-134.395 565.428,-124.943"/>
<polygon fill="midnightblue" stroke="midnightblue" points="1082.64,-170.823 1092.9,-168.151 1083.22,-163.846 1082.64,-170.823"/>
</g>
<!-- Node16 -->
<g id="node16" class="node"><title>Node16</title>
<g id="a_node16"><a xlink:href="ofx_cui_cui_group_8hpp.html" target="_top" xlink:title="ofxCuiCuiGroup.hpp">
<polygon fill="white" stroke="black" points="970.892,-110.5 970.892,-128.5 1077.5,-128.5 1077.5,-110.5 970.892,-110.5"/>
<text text-anchor="middle" x="1024.19" y="-116.5" font-family="Helvetica,sans-Serif" font-size="10.00">ofxCuiCuiGroup.hpp</text>
</a>
</g>
</g>
<!-- Node2&#45;&gt;Node16 -->
<g id="edge20" class="edge"><title>Node2&#45;&gt;Node16</title>
<path fill="none" stroke="midnightblue" d="M1128.32,-161.686C1102.9,-151.63 1067.05,-137.45 1044.74,-128.625"/>
<polygon fill="midnightblue" stroke="midnightblue" points="1127.26,-165.027 1137.84,-165.45 1129.83,-158.518 1127.26,-165.027"/>
</g>
<!-- Node18 -->
<g id="node18" class="node"><title>Node18</title>
<g id="a_node18"><a xlink:href="ofx_cui_cui_multi_slider_8hpp.html" target="_top" xlink:title="ofxCuiCuiMultiSlider.hpp">
<polygon fill="white" stroke="black" points="1095.72,-110.5 1095.72,-128.5 1220.67,-128.5 1220.67,-110.5 1095.72,-110.5"/>
<text text-anchor="middle" x="1158.19" y="-116.5" font-family="Helvetica,sans-Serif" font-size="10.00">ofxCuiCuiMultiSlider.hpp</text>
</a>
</g>
</g>
<!-- Node2&#45;&gt;Node18 -->
<g id="edge23" class="edge"><title>Node2&#45;&gt;Node18</title>
<path fill="none" stroke="midnightblue" d="M1158.19,-155.175C1158.19,-146.094 1158.19,-135.595 1158.19,-128.55"/>
<polygon fill="midnightblue" stroke="midnightblue" points="1154.69,-155.219 1158.19,-165.219 1161.69,-155.219 1154.69,-155.219"/>
</g>
<!-- Node20 -->
<g id="node20" class="node"><title>Node20</title>
<g id="a_node20"><a xlink:href="ofx_cui_cui_numbox_8hpp.html" target="_top" xlink:title="ofxCuiCuiNumbox.hpp">
<polygon fill="white" stroke="black" points="1562.17,-110.5 1562.17,-128.5 1678.22,-128.5 1678.22,-110.5 1562.17,-110.5"/>
<text text-anchor="middle" x="1620.19" y="-116.5" font-family="Helvetica,sans-Serif" font-size="10.00">ofxCuiCuiNumbox.hpp</text>
</a>
</g>
</g>
<!-- Node2&#45;&gt;Node20 -->
<g id="edge26" class="edge"><title>Node2&#45;&gt;Node20</title>
<path fill="none" stroke="midnightblue" d="M1233.58,-164.846C1376.5,-148.677 1413.85,-145.652 1553.19,-129 1556.1,-128.652 1559.09,-128.291 1562.1,-127.923"/>
<polygon fill="midnightblue" stroke="midnightblue" points="1233.11,-161.378 1223.56,-165.982 1233.89,-168.333 1233.11,-161.378"/>
</g>
<!-- Node24 -->
<g id="node24" class="node"><title>Node24</title>
<g id="a_node24"><a xlink:href="ofx_cui_cui_text_input_8hpp.html" target="_top" xlink:title="ofxCuiCuiTextInput.hpp">
<polygon fill="white" stroke="black" points="1276.5,-110.5 1276.5,-128.5 1395.89,-128.5 1395.89,-110.5 1276.5,-110.5"/>
<text text-anchor="middle" x="1336.19" y="-116.5" font-family="Helvetica,sans-Serif" font-size="10.00">ofxCuiCuiTextInput.hpp</text>
</a>
</g>
</g>
<!-- Node2&#45;&gt;Node24 -->
<g id="edge32" class="edge"><title>Node2&#45;&gt;Node24</title>
<path fill="none" stroke="midnightblue" d="M1195.24,-162.469C1229.24,-152.345 1278.81,-137.588 1309.2,-128.538"/>
<polygon fill="midnightblue" stroke="midnightblue" points="1193.81,-159.242 1185.23,-165.45 1195.81,-165.951 1193.81,-159.242"/>
</g>
<!-- Node26 -->
<g id="node26" class="node"><title>Node26</title>
<g id="a_node26"><a xlink:href="ofx_cui_cui_component_8cpp.html" target="_top" xlink:title="ofxCuiCuiComponent.cpp">
<polygon fill="white" stroke="black" points="1414.22,-110.5 1414.22,-128.5 1544.17,-128.5 1544.17,-110.5 1414.22,-110.5"/>
<text text-anchor="middle" x="1479.19" y="-116.5" font-family="Helvetica,sans-Serif" font-size="10.00">ofxCuiCuiComponent.cpp</text>
</a>
</g>
</g>
<!-- Node2&#45;&gt;Node26 -->
<g id="edge36" class="edge"><title>Node2&#45;&gt;Node26</title>
<path fill="none" stroke="midnightblue" d="M1216.86,-163.814C1278.16,-153.693 1373.22,-137.997 1430.51,-128.538"/>
<polygon fill="midnightblue" stroke="midnightblue" points="1216.24,-160.368 1206.95,-165.45 1217.38,-167.275 1216.24,-160.368"/>
</g>
<!-- Node3&#45;&gt;Node4 -->
<g id="edge3" class="edge"><title>Node3&#45;&gt;Node4</title>
<path fill="none" stroke="midnightblue" d="M906.194,-100.243C906.194,-76.4928 906.194,-35.9967 906.194,-18.7118"/>
<polygon fill="midnightblue" stroke="midnightblue" points="902.694,-100.382 906.194,-110.382 909.694,-100.382 902.694,-100.382"/>
</g>
<!-- Node5 -->
<g id="node5" class="node"><title>Node5</title>
<g id="a_node5"><a xlink:href="ofx_cui_cui_bpf_8cpp.html" target="_top" xlink:title="ofxCuiCuiBpf.cpp">
<polygon fill="white" stroke="black" points="784.564,-55.5 784.564,-73.5 877.825,-73.5 877.825,-55.5 784.564,-55.5"/>
<text text-anchor="middle" x="831.194" y="-61.5" font-family="Helvetica,sans-Serif" font-size="10.00">ofxCuiCuiBpf.cpp</text>
</a>
</g>
</g>
<!-- Node3&#45;&gt;Node5 -->
<g id="edge4" class="edge"><title>Node3&#45;&gt;Node5</title>
<path fill="none" stroke="midnightblue" d="M886.371,-104.492C872.443,-94.6491 854.297,-81.8255 842.692,-73.6253"/>
<polygon fill="midnightblue" stroke="midnightblue" points="884.617,-107.538 894.803,-110.45 888.657,-101.821 884.617,-107.538"/>
</g>
<!-- Node6&#45;&gt;Node4 -->
<g id="edge6" class="edge"><title>Node6&#45;&gt;Node4</title>
<path fill="none" stroke="midnightblue" d="M564.98,-108.507C602.98,-100.787 654.833,-88.9101 699.194,-74 718.999,-67.3434 722.5,-61.9779 742.194,-55 785.575,-39.6297 836.985,-26.4675 870.529,-18.5297"/>
<polygon fill="midnightblue" stroke="midnightblue" points="564.259,-105.082 555.14,-110.476 565.632,-111.946 564.259,-105.082"/>
</g>
<!-- Node7 -->
<g id="node7" class="node"><title>Node7</title>
<g id="a_node7"><a xlink:href="ofx_cui_cui_check_box_8hpp.html" target="_top" xlink:title="ofxCuiCuiCheckBox.hpp">
<polygon fill="white" stroke="black" points="0,-55.5 0,-73.5 124.389,-73.5 124.389,-55.5 0,-55.5"/>
<text text-anchor="middle" x="62.1943" y="-61.5" font-family="Helvetica,sans-Serif" font-size="10.00">ofxCuiCuiCheckBox.hpp</text>
</a>
</g>
</g>
<!-- Node6&#45;&gt;Node7 -->
<g id="edge7" class="edge"><title>Node6&#45;&gt;Node7</title>
<path fill="none" stroke="midnightblue" d="M446.788,-110.957C371.552,-102.136 243.336,-87.0762 133.194,-74 130.359,-73.6634 127.46,-73.3186 124.532,-72.9699"/>
<polygon fill="midnightblue" stroke="midnightblue" points="446.705,-114.471 457.045,-112.159 447.52,-107.519 446.705,-114.471"/>
</g>
<!-- Node9 -->
<g id="node9" class="node"><title>Node9</title>
<g id="a_node9"><a xlink:href="ofx_cui_cui_draggable_button_8hpp.html" target="_top" xlink:title="ofxCuiCuiDraggableButton.hpp">
<polygon fill="white" stroke="black" points="142.261,-55.5 142.261,-73.5 296.127,-73.5 296.127,-55.5 142.261,-55.5"/>
<text text-anchor="middle" x="219.194" y="-61.5" font-family="Helvetica,sans-Serif" font-size="10.00">ofxCuiCuiDraggableButton.hpp</text>
</a>
</g>
</g>
<!-- Node6&#45;&gt;Node9 -->
<g id="edge10" class="edge"><title>Node6&#45;&gt;Node9</title>
<path fill="none" stroke="midnightblue" d="M456.792,-108.626C401,-98.499 315.271,-82.9386 263.481,-73.5383"/>
<polygon fill="midnightblue" stroke="midnightblue" points="456.381,-112.108 466.846,-110.45 457.632,-105.221 456.381,-112.108"/>
</g>
<!-- Node11 -->
<g id="node11" class="node"><title>Node11</title>
<g id="a_node11"><a xlink:href="ofx_cui_cui_drop_down_8hpp.html" target="_top" xlink:title="ofxCuiCuiDropDown.hpp">
<polygon fill="white" stroke="black" points="314.167,-55.5 314.167,-73.5 440.221,-73.5 440.221,-55.5 314.167,-55.5"/>
<text text-anchor="middle" x="377.194" y="-61.5" font-family="Helvetica,sans-Serif" font-size="10.00">ofxCuiCuiDropDown.hpp</text>
</a>
</g>
</g>
<!-- Node6&#45;&gt;Node11 -->
<g id="edge13" class="edge"><title>Node6&#45;&gt;Node11</title>
<path fill="none" stroke="midnightblue" d="M481.325,-106.686C455.9,-96.63 420.05,-82.4503 397.738,-73.6253"/>
<polygon fill="midnightblue" stroke="midnightblue" points="480.256,-110.027 490.843,-110.45 482.831,-103.518 480.256,-110.027"/>
</g>
<!-- Node13 -->
<g id="node13" class="node"><title>Node13</title>
<g id="a_node13"><a xlink:href="ofx_cui_cui_matrix_8hpp.html" target="_top" xlink:title="ofxCuiCuiMatrix.hpp">
<polygon fill="white" stroke="black" points="458.177,-55.5 458.177,-73.5 564.211,-73.5 564.211,-55.5 458.177,-55.5"/>
<text text-anchor="middle" x="511.194" y="-61.5" font-family="Helvetica,sans-Serif" font-size="10.00">ofxCuiCuiMatrix.hpp</text>
</a>
</g>
</g>
<!-- Node6&#45;&gt;Node13 -->
<g id="edge16" class="edge"><title>Node6&#45;&gt;Node13</title>
<path fill="none" stroke="midnightblue" d="M511.194,-100.175C511.194,-91.0945 511.194,-80.5949 511.194,-73.5496"/>
<polygon fill="midnightblue" stroke="midnightblue" points="507.694,-100.219 511.194,-110.219 514.694,-100.219 507.694,-100.219"/>
</g>
<!-- Node15 -->
<g id="node15" class="node"><title>Node15</title>
<g id="a_node15"><a xlink:href="ofx_cui_cui_button_8cpp.html" target="_top" xlink:title="ofxCuiCuiButton.cpp">
<polygon fill="white" stroke="black" points="582.613,-55.5 582.613,-73.5 689.775,-73.5 689.775,-55.5 582.613,-55.5"/>
<text text-anchor="middle" x="636.194" y="-61.5" font-family="Helvetica,sans-Serif" font-size="10.00">ofxCuiCuiButton.cpp</text>
</a>
</g>
</g>
<!-- Node6&#45;&gt;Node15 -->
<g id="edge19" class="edge"><title>Node6&#45;&gt;Node15</title>
<path fill="none" stroke="midnightblue" d="M539.69,-106.418C563.366,-96.3794 596.401,-82.3722 617.031,-73.6253"/>
<polygon fill="midnightblue" stroke="midnightblue" points="538.019,-103.324 530.179,-110.45 540.752,-109.769 538.019,-103.324"/>
</g>
<!-- Node7&#45;&gt;Node4 -->
<g id="edge8" class="edge"><title>Node7&#45;&gt;Node4</title>
<path fill="none" stroke="midnightblue" d="M134.697,-54.9221C421.63,-29.8312 754.124,-16.1231 866.714,-11.9123"/>
<polygon fill="midnightblue" stroke="midnightblue" points="134.164,-51.4554 124.51,-55.8195 134.778,-58.4284 134.164,-51.4554"/>
</g>
<!-- Node8 -->
<g id="node8" class="node"><title>Node8</title>
<g id="a_node8"><a xlink:href="ofx_cui_cui_check_box_8cpp.html" target="_top" xlink:title="ofxCuiCuiCheckBox.cpp">
<polygon fill="white" stroke="black" points="0.280762,-0.5 0.280762,-18.5 124.108,-18.5 124.108,-0.5 0.280762,-0.5"/>
<text text-anchor="middle" x="62.1943" y="-6.5" font-family="Helvetica,sans-Serif" font-size="10.00">ofxCuiCuiCheckBox.cpp</text>
</a>
</g>
</g>
<!-- Node7&#45;&gt;Node8 -->
<g id="edge9" class="edge"><title>Node7&#45;&gt;Node8</title>
<path fill="none" stroke="midnightblue" d="M62.1943,-45.1746C62.1943,-36.0945 62.1943,-25.5949 62.1943,-18.5496"/>
<polygon fill="midnightblue" stroke="midnightblue" points="58.6944,-45.2187 62.1943,-55.2188 65.6944,-45.2188 58.6944,-45.2187"/>
</g>
<!-- Node9&#45;&gt;Node4 -->
<g id="edge11" class="edge"><title>Node9&#45;&gt;Node4</title>
<path fill="none" stroke="midnightblue" d="M306.554,-54.9017C524.176,-36.2148 771.552,-19.3919 866.434,-13.1043"/>
<polygon fill="midnightblue" stroke="midnightblue" points="306.204,-51.4188 296.541,-55.7646 306.805,-58.393 306.204,-51.4188"/>
</g>
<!-- Node10 -->
<g id="node10" class="node"><title>Node10</title>
<g id="a_node10"><a xlink:href="ofx_cui_cui_draggable_button_8cpp.html" target="_top" xlink:title="ofxCuiCuiDraggableButton.cpp">
<polygon fill="white" stroke="black" points="142.542,-0.5 142.542,-18.5 295.847,-18.5 295.847,-0.5 142.542,-0.5"/>
<text text-anchor="middle" x="219.194" y="-6.5" font-family="Helvetica,sans-Serif" font-size="10.00">ofxCuiCuiDraggableButton.cpp</text>
</a>
</g>
</g>
<!-- Node9&#45;&gt;Node10 -->
<g id="edge12" class="edge"><title>Node9&#45;&gt;Node10</title>
<path fill="none" stroke="midnightblue" d="M219.194,-45.1746C219.194,-36.0945 219.194,-25.5949 219.194,-18.5496"/>
<polygon fill="midnightblue" stroke="midnightblue" points="215.694,-45.2187 219.194,-55.2188 222.694,-45.2188 215.694,-45.2187"/>
</g>
<!-- Node11&#45;&gt;Node4 -->
<g id="edge14" class="edge"><title>Node11&#45;&gt;Node4</title>
<path fill="none" stroke="midnightblue" d="M450.465,-54.8825C611.05,-37.679 789.158,-21.1434 866.738,-14.0682"/>
<polygon fill="midnightblue" stroke="midnightblue" points="449.971,-51.4154 440.402,-55.9639 450.719,-58.3753 449.971,-51.4154"/>
</g>
<!-- Node12 -->
<g id="node12" class="node"><title>Node12</title>
<g id="a_node12"><a xlink:href="ofx_cui_cui_drop_down_8cpp.html" target="_top" xlink:title="ofxCuiCuiDropDown.cpp">
<polygon fill="white" stroke="black" points="314.448,-0.5 314.448,-18.5 439.94,-18.5 439.94,-0.5 314.448,-0.5"/>
<text text-anchor="middle" x="377.194" y="-6.5" font-family="Helvetica,sans-Serif" font-size="10.00">ofxCuiCuiDropDown.cpp</text>
</a>
</g>
</g>
<!-- Node11&#45;&gt;Node12 -->
<g id="edge15" class="edge"><title>Node11&#45;&gt;Node12</title>
<path fill="none" stroke="midnightblue" d="M377.194,-45.1746C377.194,-36.0945 377.194,-25.5949 377.194,-18.5496"/>
<polygon fill="midnightblue" stroke="midnightblue" points="373.694,-45.2187 377.194,-55.2188 380.694,-45.2188 373.694,-45.2187"/>
</g>
<!-- Node13&#45;&gt;Node4 -->
<g id="edge17" class="edge"><title>Node13&#45;&gt;Node4</title>
<path fill="none" stroke="midnightblue" d="M574.421,-54.8377C686.533,-39.6752 806.19,-23.7617 866.718,-15.7312"/>
<polygon fill="midnightblue" stroke="midnightblue" points="573.733,-51.3989 564.293,-56.2083 574.672,-58.3357 573.733,-51.3989"/>
</g>
<!-- Node14 -->
<g id="node14" class="node"><title>Node14</title>
<g id="a_node14"><a xlink:href="ofx_cui_cui_matrix_8cpp.html" target="_top" xlink:title="ofxCuiCuiMatrix.cpp">
<polygon fill="white" stroke="black" points="458.458,-0.5 458.458,-18.5 563.931,-18.5 563.931,-0.5 458.458,-0.5"/>
<text text-anchor="middle" x="511.194" y="-6.5" font-family="Helvetica,sans-Serif" font-size="10.00">ofxCuiCuiMatrix.cpp</text>
</a>
</g>
</g>
<!-- Node13&#45;&gt;Node14 -->
<g id="edge18" class="edge"><title>Node13&#45;&gt;Node14</title>
<path fill="none" stroke="midnightblue" d="M511.194,-45.1746C511.194,-36.0945 511.194,-25.5949 511.194,-18.5496"/>
<polygon fill="midnightblue" stroke="midnightblue" points="507.694,-45.2187 511.194,-55.2188 514.694,-45.2188 507.694,-45.2187"/>
</g>
<!-- Node16&#45;&gt;Node4 -->
<g id="edge21" class="edge"><title>Node16&#45;&gt;Node4</title>
<path fill="none" stroke="midnightblue" d="M1002.89,-104.589C990.775,-96.2872 975.596,-85.2052 963.194,-74 943.189,-55.9242 922.819,-31.455 912.714,-18.8191"/>
<polygon fill="midnightblue" stroke="midnightblue" points="1001.21,-107.676 1011.46,-110.352 1005.11,-101.867 1001.21,-107.676"/>
</g>
<!-- Node17 -->
<g id="node17" class="node"><title>Node17</title>
<g id="a_node17"><a xlink:href="ofx_cui_cui_group_8cpp.html" target="_top" xlink:title="ofxCuiCuiGroup.cpp">
<polygon fill="white" stroke="black" points="972.172,-55.5 972.172,-73.5 1078.22,-73.5 1078.22,-55.5 972.172,-55.5"/>
<text text-anchor="middle" x="1025.19" y="-61.5" font-family="Helvetica,sans-Serif" font-size="10.00">ofxCuiCuiGroup.cpp</text>
</a>
</g>
</g>
<!-- Node16&#45;&gt;Node17 -->
<g id="edge22" class="edge"><title>Node16&#45;&gt;Node17</title>
<path fill="none" stroke="midnightblue" d="M1024.54,-100.175C1024.71,-91.0945 1024.91,-80.5949 1025.04,-73.5496"/>
<polygon fill="midnightblue" stroke="midnightblue" points="1021.04,-100.154 1024.35,-110.219 1028.04,-100.287 1021.04,-100.154"/>
</g>
<!-- Node18&#45;&gt;Node4 -->
<g id="edge24" class="edge"><title>Node18&#45;&gt;Node4</title>
<path fill="none" stroke="midnightblue" d="M1144.47,-102.367C1131.24,-87.8447 1109.94,-66.9962 1087.19,-55 1042.12,-31.2219 983.994,-19.8582 945.941,-14.6336"/>
<polygon fill="midnightblue" stroke="midnightblue" points="1142.03,-104.893 1151.27,-110.072 1147.28,-100.259 1142.03,-104.893"/>
</g>
<!-- Node19 -->
<g id="node19" class="node"><title>Node19</title>
<g id="a_node19"><a xlink:href="ofx_cui_cui_multi_slider_8cpp.html" target="_top" xlink:title="ofxCuiCuiMultiSlider.cpp">
<polygon fill="white" stroke="black" points="1134,-55.5 1134,-73.5 1258.39,-73.5 1258.39,-55.5 1134,-55.5"/>
<text text-anchor="middle" x="1196.19" y="-61.5" font-family="Helvetica,sans-Serif" font-size="10.00">ofxCuiCuiMultiSlider.cpp</text>
</a>
</g>
</g>
<!-- Node18&#45;&gt;Node19 -->
<g id="edge25" class="edge"><title>Node18&#45;&gt;Node19</title>
<path fill="none" stroke="midnightblue" d="M1170.06,-101.951C1176.84,-92.4941 1185.04,-81.0595 1190.42,-73.5496"/>
<polygon fill="midnightblue" stroke="midnightblue" points="1167.11,-100.052 1164.13,-110.219 1172.8,-104.131 1167.11,-100.052"/>
</g>
<!-- Node20&#45;&gt;Node4 -->
<g id="edge27" class="edge"><title>Node20&#45;&gt;Node4</title>
<path fill="none" stroke="midnightblue" d="M1591.46,-106.593C1570.7,-97.865 1542.04,-85.5693 1517.19,-74 1500.08,-66.0302 1497.39,-60.047 1479.19,-55 1378.36,-27.0303 1058.1,-15.0204 945.67,-11.5938"/>
<polygon fill="midnightblue" stroke="midnightblue" points="1590.11,-109.822 1600.69,-110.454 1592.81,-103.365 1590.11,-109.822"/>
</g>
<!-- Node21 -->
<g id="node21" class="node"><title>Node21</title>
<g id="a_node21"><a xlink:href="ofx_cui_cui_slider_8hpp.html" target="_top" xlink:title="ofxCuiCuiSlider.hpp">
<polygon fill="white" stroke="black" points="1660.28,-55.5 1660.28,-73.5 1764.11,-73.5 1764.11,-55.5 1660.28,-55.5"/>
<text text-anchor="middle" x="1712.19" y="-61.5" font-family="Helvetica,sans-Serif" font-size="10.00">ofxCuiCuiSlider.hpp</text>
</a>
</g>
</g>
<!-- Node20&#45;&gt;Node21 -->
<g id="edge28" class="edge"><title>Node20&#45;&gt;Node21</title>
<path fill="none" stroke="midnightblue" d="M1643.06,-105.328C1660.32,-95.3856 1683.45,-82.0598 1698.09,-73.6253"/>
<polygon fill="midnightblue" stroke="midnightblue" points="1641.09,-102.426 1634.17,-110.45 1644.58,-108.491 1641.09,-102.426"/>
</g>
<!-- Node23 -->
<g id="node23" class="node"><title>Node23</title>
<g id="a_node23"><a xlink:href="ofx_cui_cui_numbox_8cpp.html" target="_top" xlink:title="ofxCuiCuiNumbox.cpp">
<polygon fill="white" stroke="black" points="1526.45,-55.5 1526.45,-73.5 1641.94,-73.5 1641.94,-55.5 1526.45,-55.5"/>
<text text-anchor="middle" x="1584.19" y="-61.5" font-family="Helvetica,sans-Serif" font-size="10.00">ofxCuiCuiNumbox.cpp</text>
</a>
</g>
</g>
<!-- Node20&#45;&gt;Node23 -->
<g id="edge31" class="edge"><title>Node20&#45;&gt;Node23</title>
<path fill="none" stroke="midnightblue" d="M1608.75,-101.658C1602.37,-92.2587 1594.71,-80.9821 1589.66,-73.5496"/>
<polygon fill="midnightblue" stroke="midnightblue" points="1606.06,-103.913 1614.57,-110.219 1611.85,-99.98 1606.06,-103.913"/>
</g>
<!-- Node21&#45;&gt;Node4 -->
<g id="edge29" class="edge"><title>Node21&#45;&gt;Node4</title>
<path fill="none" stroke="midnightblue" d="M1649.8,-54.9426C1374.46,-27.9739 1055.89,-15.5208 945.856,-11.7682"/>
<polygon fill="midnightblue" stroke="midnightblue" points="1649.69,-58.4489 1659.98,-55.9491 1650.38,-51.4828 1649.69,-58.4489"/>
</g>
<!-- Node22 -->
<g id="node22" class="node"><title>Node22</title>
<g id="a_node22"><a xlink:href="ofx_cui_cui_slider_8cpp.html" target="_top" xlink:title="ofxCuiCuiSlider.cpp">
<polygon fill="white" stroke="black" points="1660.56,-0.5 1660.56,-18.5 1763.83,-18.5 1763.83,-0.5 1660.56,-0.5"/>
<text text-anchor="middle" x="1712.19" y="-6.5" font-family="Helvetica,sans-Serif" font-size="10.00">ofxCuiCuiSlider.cpp</text>
</a>
</g>
</g>
<!-- Node21&#45;&gt;Node22 -->
<g id="edge30" class="edge"><title>Node21&#45;&gt;Node22</title>
<path fill="none" stroke="midnightblue" d="M1712.19,-45.1746C1712.19,-36.0945 1712.19,-25.5949 1712.19,-18.5496"/>
<polygon fill="midnightblue" stroke="midnightblue" points="1708.69,-45.2187 1712.19,-55.2188 1715.69,-45.2188 1708.69,-45.2187"/>
</g>
<!-- Node24&#45;&gt;Node4 -->
<g id="edge33" class="edge"><title>Node24&#45;&gt;Node4</title>
<path fill="none" stroke="midnightblue" d="M1331.08,-100.621C1325.85,-85.8197 1316.19,-65.5666 1300.19,-55 1242.61,-16.9643 1033.54,-11.2114 945.601,-10.5046"/>
<polygon fill="midnightblue" stroke="midnightblue" points="1327.77,-101.749 1334.13,-110.219 1334.44,-99.6282 1327.77,-101.749"/>
</g>
<!-- Node25 -->
<g id="node25" class="node"><title>Node25</title>
<g id="a_node25"><a xlink:href="ofx_cui_cui_text_input_8cpp.html" target="_top" xlink:title="ofxCuiCuiTextInput.cpp">
<polygon fill="white" stroke="black" points="1351.78,-55.5 1351.78,-73.5 1470.61,-73.5 1470.61,-55.5 1351.78,-55.5"/>
<text text-anchor="middle" x="1411.19" y="-61.5" font-family="Helvetica,sans-Serif" font-size="10.00">ofxCuiCuiTextInput.cpp</text>
</a>
</g>
</g>
<!-- Node24&#45;&gt;Node25 -->
<g id="edge34" class="edge"><title>Node24&#45;&gt;Node25</title>
<path fill="none" stroke="midnightblue" d="M1356.02,-104.492C1369.95,-94.6491 1388.09,-81.8255 1399.7,-73.6253"/>
<polygon fill="midnightblue" stroke="midnightblue" points="1353.73,-101.821 1347.59,-110.45 1357.77,-107.538 1353.73,-101.821"/>
</g>
</g>
</svg>
