<?xml version="1.0" encoding="UTF-8" standalone="no"?>
<!DOCTYPE svg PUBLIC "-//W3C//DTD SVG 1.1//EN"
 "http://www.w3.org/Graphics/SVG/1.1/DTD/svg11.dtd">
<!-- Generated by graphviz version 2.38.0 (20140413.2041)
 -->
<!-- Title: ofxOuiMultiSlider.hpp Pages: 1 -->
<svg width="200pt" height="82pt"
 viewBox="0.00 0.00 200.15 82.00" xmlns="http://www.w3.org/2000/svg" xmlns:xlink="http://www.w3.org/1999/xlink">
<g id="graph0" class="graph" transform="scale(1 1) rotate(0) translate(4 78)">
<title>ofxOuiMultiSlider.hpp</title>
<polygon fill="white" stroke="none" points="-4,4 -4,-78 196.15,-78 196.15,4 -4,4"/>
<!-- Node7 -->
<g id="node1" class="node"><title>Node7</title>
<polygon fill="#bfbfbf" stroke="black" points="28.9336,-55.5 28.9336,-73.5 139.431,-73.5 139.431,-55.5 28.9336,-55.5"/>
<text text-anchor="middle" x="84.1821" y="-61.5" font-family="Helvetica,sans-Serif" font-size="10.00">ofxOuiMultiSlider.hpp</text>
</g>
<!-- Node8 -->
<g id="node2" class="node"><title>Node8</title>
<g id="a_node2"><a xlink:href="ofx_oui_8hpp.html" target="_top" xlink:title="ofxOui.hpp">
<polygon fill="white" stroke="black" points="0,-0.5 0,-18.5 64.3643,-18.5 64.3643,-0.5 0,-0.5"/>
<text text-anchor="middle" x="32.1821" y="-6.5" font-family="Helvetica,sans-Serif" font-size="10.00">ofxOui.hpp</text>
</a>
</g>
</g>
<!-- Node7&#45;&gt;Node8 -->
<g id="edge1" class="edge"><title>Node7&#45;&gt;Node8</title>
<path fill="none" stroke="midnightblue" d="M68.8003,-47.8223C59.3645,-38.2051 47.6759,-26.2917 40.0798,-18.5496"/>
<polygon fill="midnightblue" stroke="midnightblue" points="66.5554,-50.5318 76.0571,-55.2188 71.552,-45.6294 66.5554,-50.5318"/>
</g>
<!-- Node9 -->
<g id="node3" class="node"><title>Node9</title>
<g id="a_node3"><a xlink:href="ofx_oui_multi_slider_8cpp.html" target="_top" xlink:title="ofxOuiMultiSlider.cpp">
<polygon fill="white" stroke="black" points="82.2144,-0.5 82.2144,-18.5 192.15,-18.5 192.15,-0.5 82.2144,-0.5"/>
<text text-anchor="middle" x="137.182" y="-6.5" font-family="Helvetica,sans-Serif" font-size="10.00">ofxOuiMultiSlider.cpp</text>
</a>
</g>
</g>
<!-- Node7&#45;&gt;Node9 -->
<g id="edge2" class="edge"><title>Node7&#45;&gt;Node9</title>
<path fill="none" stroke="midnightblue" d="M99.572,-48.1101C109.238,-38.4438 121.313,-26.3692 129.133,-18.5496"/>
<polygon fill="midnightblue" stroke="midnightblue" points="97.0596,-45.6728 92.4634,-55.2188 102.009,-50.6225 97.0596,-45.6728"/>
</g>
</g>
</svg>
