<?xml version="1.0" encoding="UTF-8" standalone="no"?>
<!DOCTYPE svg PUBLIC "-//W3C//DTD SVG 1.1//EN"
 "http://www.w3.org/Graphics/SVG/1.1/DTD/svg11.dtd">
<!-- Generated by graphviz version 2.38.0 (20140413.2041)
 -->
<!-- Title: ofxOuiIcon.cpp Pages: 1 -->
<svg width="113pt" height="192pt"
 viewBox="0.00 0.00 112.93 192.00" xmlns="http://www.w3.org/2000/svg" xmlns:xlink="http://www.w3.org/1999/xlink">
<g id="graph0" class="graph" transform="scale(1 1) rotate(0) translate(4 188)">
<title>ofxOuiIcon.cpp</title>
<polygon fill="white" stroke="none" points="-4,4 -4,-188 108.931,-188 108.931,4 -4,4"/>
<!-- Node0 -->
<g id="node1" class="node"><title>Node0</title>
<polygon fill="#bfbfbf" stroke="black" points="11.1133,-165.5 11.1133,-183.5 93.8174,-183.5 93.8174,-165.5 11.1133,-165.5"/>
<text text-anchor="middle" x="52.4653" y="-171.5" font-family="Helvetica,sans-Serif" font-size="10.00">ofxOuiIcon.cpp</text>
</g>
<!-- Node1 -->
<g id="node2" class="node"><title>Node1</title>
<g id="a_node2"><a xlink:href="ofx_oui_icon_8hpp.html" target="_top" xlink:title="ofxOuiIcon.hpp">
<polygon fill="white" stroke="black" points="10.8325,-110.5 10.8325,-128.5 94.0981,-128.5 94.0981,-110.5 10.8325,-110.5"/>
<text text-anchor="middle" x="52.4653" y="-116.5" font-family="Helvetica,sans-Serif" font-size="10.00">ofxOuiIcon.hpp</text>
</a>
</g>
</g>
<!-- Node0&#45;&gt;Node1 -->
<g id="edge1" class="edge"><title>Node0&#45;&gt;Node1</title>
<path fill="none" stroke="midnightblue" d="M52.4653,-165.219C52.4653,-158.177 52.4653,-147.808 52.4653,-138.828"/>
<polygon fill="midnightblue" stroke="midnightblue" points="55.9654,-138.55 52.4653,-128.55 48.9654,-138.55 55.9654,-138.55"/>
</g>
<!-- Node2 -->
<g id="node3" class="node"><title>Node2</title>
<g id="a_node3"><a xlink:href="ofx_oui_common_8hpp.html" target="_top" xlink:title="ofxOuiCommon.hpp">
<polygon fill="white" stroke="black" points="0,-55.5 0,-73.5 104.931,-73.5 104.931,-55.5 0,-55.5"/>
<text text-anchor="middle" x="52.4653" y="-61.5" font-family="Helvetica,sans-Serif" font-size="10.00">ofxOuiCommon.hpp</text>
</a>
</g>
</g>
<!-- Node1&#45;&gt;Node2 -->
<g id="edge2" class="edge"><title>Node1&#45;&gt;Node2</title>
<path fill="none" stroke="midnightblue" d="M52.4653,-110.219C52.4653,-103.177 52.4653,-92.8083 52.4653,-83.8277"/>
<polygon fill="midnightblue" stroke="midnightblue" points="55.9654,-83.5495 52.4653,-73.5496 48.9654,-83.5496 55.9654,-83.5495"/>
</g>
<!-- Node3 -->
<g id="node4" class="node"><title>Node3</title>
<polygon fill="white" stroke="#bfbfbf" points="25.2881,-0.5 25.2881,-18.5 79.6426,-18.5 79.6426,-0.5 25.2881,-0.5"/>
<text text-anchor="middle" x="52.4653" y="-6.5" font-family="Helvetica,sans-Serif" font-size="10.00">ofMain.h</text>
</g>
<!-- Node2&#45;&gt;Node3 -->
<g id="edge3" class="edge"><title>Node2&#45;&gt;Node3</title>
<path fill="none" stroke="midnightblue" d="M52.4653,-55.2188C52.4653,-48.1769 52.4653,-37.8083 52.4653,-28.8277"/>
<polygon fill="midnightblue" stroke="midnightblue" points="55.9654,-28.5495 52.4653,-18.5496 48.9654,-28.5496 55.9654,-28.5495"/>
</g>
</g>
</svg>
