<?xml version="1.0" encoding="UTF-8" standalone="no"?>
<!DOCTYPE svg PUBLIC "-//W3C//DTD SVG 1.1//EN"
 "http://www.w3.org/Graphics/SVG/1.1/DTD/svg11.dtd">
<!-- Generated by graphviz version 2.38.0 (20140413.2041)
 -->
<!-- Title: ofxOuiSlider.hpp Pages: 1 -->
<svg width="180pt" height="82pt"
 viewBox="0.00 0.00 179.59 82.00" xmlns="http://www.w3.org/2000/svg" xmlns:xlink="http://www.w3.org/1999/xlink">
<g id="graph0" class="graph" transform="scale(1 1) rotate(0) translate(4 78)">
<title>ofxOuiSlider.hpp</title>
<polygon fill="white" stroke="none" points="-4,4 -4,-78 175.593,-78 175.593,4 -4,4"/>
<!-- Node8 -->
<g id="node1" class="node"><title>Node8</title>
<polygon fill="#bfbfbf" stroke="black" points="34.4902,-55.5 34.4902,-73.5 123.874,-73.5 123.874,-55.5 34.4902,-55.5"/>
<text text-anchor="middle" x="79.1821" y="-61.5" font-family="Helvetica,sans-Serif" font-size="10.00">ofxOuiSlider.hpp</text>
</g>
<!-- Node9 -->
<g id="node2" class="node"><title>Node9</title>
<g id="a_node2"><a xlink:href="ofx_oui_8hpp.html" target="_top" xlink:title="ofxOui.hpp">
<polygon fill="white" stroke="black" points="0,-0.5 0,-18.5 64.3643,-18.5 64.3643,-0.5 0,-0.5"/>
<text text-anchor="middle" x="32.1821" y="-6.5" font-family="Helvetica,sans-Serif" font-size="10.00">ofxOui.hpp</text>
</a>
</g>
</g>
<!-- Node8&#45;&gt;Node9 -->
<g id="edge1" class="edge"><title>Node8&#45;&gt;Node9</title>
<path fill="none" stroke="midnightblue" d="M65.0228,-47.5331C56.5399,-37.9673 46.1175,-26.2143 39.3204,-18.5496"/>
<polygon fill="midnightblue" stroke="midnightblue" points="62.5848,-50.0591 71.8384,-55.2188 67.8221,-45.4146 62.5848,-50.0591"/>
</g>
<!-- Node10 -->
<g id="node3" class="node"><title>Node10</title>
<g id="a_node3"><a xlink:href="ofx_oui_slider_8cpp.html" target="_top" xlink:title="ofxOuiSlider.cpp">
<polygon fill="white" stroke="black" points="82.771,-0.5 82.771,-18.5 171.593,-18.5 171.593,-0.5 82.771,-0.5"/>
<text text-anchor="middle" x="127.182" y="-6.5" font-family="Helvetica,sans-Serif" font-size="10.00">ofxOuiSlider.cpp</text>
</a>
</g>
</g>
<!-- Node8&#45;&gt;Node10 -->
<g id="edge2" class="edge"><title>Node8&#45;&gt;Node10</title>
<path fill="none" stroke="midnightblue" d="M93.6427,-47.5331C102.306,-37.9673 112.95,-26.2143 119.892,-18.5496"/>
<polygon fill="midnightblue" stroke="midnightblue" points="90.8007,-45.4572 86.6821,-55.2188 95.9892,-50.1562 90.8007,-45.4572"/>
</g>
</g>
</svg>
