<?xml version="1.0" encoding="UTF-8" standalone="no"?>
<!DOCTYPE svg PUBLIC "-//W3C//DTD SVG 1.1//EN"
 "http://www.w3.org/Graphics/SVG/1.1/DTD/svg11.dtd">
<!-- Generated by graphviz version 2.38.0 (20140413.2041)
 -->
<!-- Title: ofxCuiCuiSlider.hpp Pages: 1 -->
<svg width="208pt" height="82pt"
 viewBox="0.00 0.00 208.04 82.00" xmlns="http://www.w3.org/2000/svg" xmlns:xlink="http://www.w3.org/1999/xlink">
<g id="graph0" class="graph" transform="scale(1 1) rotate(0) translate(4 78)">
<title>ofxCuiCuiSlider.hpp</title>
<polygon fill="white" stroke="none" points="-4,4 -4,-78 204.042,-78 204.042,4 -4,4"/>
<!-- Node1 -->
<g id="node1" class="node"><title>Node1</title>
<polygon fill="#bfbfbf" stroke="black" points="41.4902,-55.5 41.4902,-73.5 145.322,-73.5 145.322,-55.5 41.4902,-55.5"/>
<text text-anchor="middle" x="93.4062" y="-61.5" font-family="Helvetica,sans-Serif" font-size="10.00">ofxCuiCuiSlider.hpp</text>
</g>
<!-- Node2 -->
<g id="node2" class="node"><title>Node2</title>
<g id="a_node2"><a xlink:href="ofx_cui_cui_8hpp.html" target="_top" xlink:title="ofxCuiCui.hpp">
<polygon fill="white" stroke="black" points="0,-0.5 0,-18.5 78.8125,-18.5 78.8125,-0.5 0,-0.5"/>
<text text-anchor="middle" x="39.4062" y="-6.5" font-family="Helvetica,sans-Serif" font-size="10.00">ofxCuiCui.hpp</text>
</a>
</g>
</g>
<!-- Node1&#45;&gt;Node2 -->
<g id="edge1" class="edge"><title>Node1&#45;&gt;Node2</title>
<path fill="none" stroke="midnightblue" d="M77.726,-48.1101C67.8773,-38.4438 55.5748,-26.3692 47.6077,-18.5496"/>
<polygon fill="midnightblue" stroke="midnightblue" points="75.3802,-50.7119 84.9688,-55.2188 80.2835,-45.7161 75.3802,-50.7119"/>
</g>
<!-- Node3 -->
<g id="node3" class="node"><title>Node3</title>
<g id="a_node3"><a xlink:href="ofx_cui_cui_slider_8cpp.html" target="_top" xlink:title="ofxCuiCuiSlider.cpp">
<polygon fill="white" stroke="black" points="96.771,-0.5 96.771,-18.5 200.042,-18.5 200.042,-0.5 96.771,-0.5"/>
<text text-anchor="middle" x="148.406" y="-6.5" font-family="Helvetica,sans-Serif" font-size="10.00">ofxCuiCuiSlider.cpp</text>
</a>
</g>
</g>
<!-- Node1&#45;&gt;Node3 -->
<g id="edge2" class="edge"><title>Node1&#45;&gt;Node3</title>
<path fill="none" stroke="midnightblue" d="M109.377,-48.1101C119.408,-38.4438 131.938,-26.3692 140.053,-18.5496"/>
<polygon fill="midnightblue" stroke="midnightblue" points="106.772,-45.7595 102,-55.2188 111.629,-50.8001 106.772,-45.7595"/>
</g>
</g>
</svg>
