<?xml version="1.0" encoding="UTF-8" standalone="no"?>
<!DOCTYPE svg PUBLIC "-//W3C//DTD SVG 1.1//EN"
 "http://www.w3.org/Graphics/SVG/1.1/DTD/svg11.dtd">
<!-- Generated by graphviz version 2.38.0 (20140413.2041)
 -->
<!-- Title: ofxCuiCuiBpf.cpp Pages: 1 -->
<svg width="418pt" height="302pt"
 viewBox="0.00 0.00 418.16 302.00" xmlns="http://www.w3.org/2000/svg" xmlns:xlink="http://www.w3.org/1999/xlink">
<g id="graph0" class="graph" transform="scale(1 1) rotate(0) translate(4 298)">
<title>ofxCuiCuiBpf.cpp</title>
<polygon fill="white" stroke="none" points="-4,4 -4,-298 414.16,-298 414.16,4 -4,4"/>
<!-- Node1 -->
<g id="node1" class="node"><title>Node1</title>
<polygon fill="#bfbfbf" stroke="black" points="277.227,-275.5 277.227,-293.5 370.487,-293.5 370.487,-275.5 277.227,-275.5"/>
<text text-anchor="middle" x="323.857" y="-281.5" font-family="Helvetica,sans-Serif" font-size="10.00">ofxCuiCuiBpf.cpp</text>
</g>
<!-- Node2 -->
<g id="node2" class="node"><title>Node2</title>
<g id="a_node2"><a xlink:href="ofx_cui_cui_bpf_8hpp.html" target="_top" xlink:title="ofxCuiCuiBpf.hpp">
<polygon fill="white" stroke="black" points="276.946,-220.5 276.946,-238.5 370.768,-238.5 370.768,-220.5 276.946,-220.5"/>
<text text-anchor="middle" x="323.857" y="-226.5" font-family="Helvetica,sans-Serif" font-size="10.00">ofxCuiCuiBpf.hpp</text>
</a>
</g>
</g>
<!-- Node1&#45;&gt;Node2 -->
<g id="edge1" class="edge"><title>Node1&#45;&gt;Node2</title>
<path fill="none" stroke="midnightblue" d="M323.857,-275.219C323.857,-268.177 323.857,-257.808 323.857,-248.828"/>
<polygon fill="midnightblue" stroke="midnightblue" points="327.357,-248.55 323.857,-238.55 320.357,-248.55 327.357,-248.55"/>
</g>
<!-- Node3 -->
<g id="node3" class="node"><title>Node3</title>
<g id="a_node3"><a xlink:href="ofx_cui_cui_component_8hpp.html" target="_top" xlink:title="ofxCuiCuiComponent.hpp">
<polygon fill="white" stroke="black" points="153.601,-165.5 153.601,-183.5 284.113,-183.5 284.113,-165.5 153.601,-165.5"/>
<text text-anchor="middle" x="218.857" y="-171.5" font-family="Helvetica,sans-Serif" font-size="10.00">ofxCuiCuiComponent.hpp</text>
</a>
</g>
</g>
<!-- Node2&#45;&gt;Node3 -->
<g id="edge2" class="edge"><title>Node2&#45;&gt;Node3</title>
<path fill="none" stroke="midnightblue" d="M307.91,-220.45C290.95,-211.89 263.886,-198.229 244.041,-188.212"/>
<polygon fill="midnightblue" stroke="midnightblue" points="245.459,-185.007 234.954,-183.625 242.304,-191.256 245.459,-185.007"/>
</g>
<!-- Node9 -->
<g id="node9" class="node"><title>Node9</title>
<g id="a_node9"><a xlink:href="ofx_cui_cui_graph_8hpp.html" target="_top" xlink:title="ofxCuiCuiGraph.hpp">
<polygon fill="white" stroke="black" points="303.554,-55.5 303.554,-73.5 410.16,-73.5 410.16,-55.5 303.554,-55.5"/>
<text text-anchor="middle" x="356.857" y="-61.5" font-family="Helvetica,sans-Serif" font-size="10.00">ofxCuiCuiGraph.hpp</text>
</a>
</g>
</g>
<!-- Node2&#45;&gt;Node9 -->
<g id="edge10" class="edge"><title>Node2&#45;&gt;Node9</title>
<path fill="none" stroke="midnightblue" d="M327.618,-220.482C335.178,-203.87 351.993,-164.296 357.857,-129 359.241,-120.67 357.952,-118.444 357.857,-110 357.76,-101.387 357.558,-91.8372 357.361,-83.8"/>
<polygon fill="midnightblue" stroke="midnightblue" points="360.857,-83.6058 357.096,-73.7008 353.859,-83.789 360.857,-83.6058"/>
</g>
<!-- Node4 -->
<g id="node4" class="node"><title>Node4</title>
<g id="a_node4"><a xlink:href="ofx_cui_cui_icon_8hpp.html" target="_top" xlink:title="ofxCuiCuiIcon.hpp">
<polygon fill="white" stroke="black" points="0,-110.5 0,-128.5 97.7139,-128.5 97.7139,-110.5 0,-110.5"/>
<text text-anchor="middle" x="48.8569" y="-116.5" font-family="Helvetica,sans-Serif" font-size="10.00">ofxCuiCuiIcon.hpp</text>
</a>
</g>
</g>
<!-- Node3&#45;&gt;Node4 -->
<g id="edge3" class="edge"><title>Node3&#45;&gt;Node4</title>
<path fill="none" stroke="midnightblue" d="M193.038,-165.45C163.997,-156.396 116.659,-141.638 84.1993,-131.519"/>
<polygon fill="midnightblue" stroke="midnightblue" points="85.2287,-128.173 74.6402,-128.538 83.1452,-134.856 85.2287,-128.173"/>
</g>
<!-- Node7 -->
<g id="node7" class="node"><title>Node7</title>
<g id="a_node7"><a xlink:href="ofx_cui_cui_style_8hpp.html" target="_top" xlink:title="ofxCuiCuiStyle.hpp">
<polygon fill="white" stroke="black" points="115.335,-110.5 115.335,-128.5 216.379,-128.5 216.379,-110.5 115.335,-110.5"/>
<text text-anchor="middle" x="165.857" y="-116.5" font-family="Helvetica,sans-Serif" font-size="10.00">ofxCuiCuiStyle.hpp</text>
</a>
</g>
</g>
<!-- Node3&#45;&gt;Node7 -->
<g id="edge6" class="edge"><title>Node3&#45;&gt;Node7</title>
<path fill="none" stroke="midnightblue" d="M210.576,-165.219C202.751,-157.394 190.82,-145.463 181.249,-135.892"/>
<polygon fill="midnightblue" stroke="midnightblue" points="183.452,-133.146 173.906,-128.55 178.503,-138.096 183.452,-133.146"/>
</g>
<!-- Node8 -->
<g id="node8" class="node"><title>Node8</title>
<g id="a_node8"><a xlink:href="ofx_cui_cui_text_box_8hpp.html" target="_top" xlink:title="ofxCuiCuiTextBox.hpp">
<polygon fill="white" stroke="black" points="234.665,-110.5 234.665,-128.5 349.049,-128.5 349.049,-110.5 234.665,-110.5"/>
<text text-anchor="middle" x="291.857" y="-116.5" font-family="Helvetica,sans-Serif" font-size="10.00">ofxCuiCuiTextBox.hpp</text>
</a>
</g>
</g>
<!-- Node3&#45;&gt;Node8 -->
<g id="edge8" class="edge"><title>Node3&#45;&gt;Node8</title>
<path fill="none" stroke="midnightblue" d="M229.944,-165.45C241.199,-157.279 258.855,-144.46 272.437,-134.6"/>
<polygon fill="midnightblue" stroke="midnightblue" points="274.63,-137.333 280.665,-128.625 270.517,-131.668 274.63,-137.333"/>
</g>
<!-- Node5 -->
<g id="node5" class="node"><title>Node5</title>
<g id="a_node5"><a xlink:href="ofx_cui_cui_common_8hpp.html" target="_top" xlink:title="ofxCuiCuiCommon.hpp">
<polygon fill="white" stroke="black" points="126.167,-55.5 126.167,-73.5 245.546,-73.5 245.546,-55.5 126.167,-55.5"/>
<text text-anchor="middle" x="185.857" y="-61.5" font-family="Helvetica,sans-Serif" font-size="10.00">ofxCuiCuiCommon.hpp</text>
</a>
</g>
</g>
<!-- Node4&#45;&gt;Node5 -->
<g id="edge4" class="edge"><title>Node4&#45;&gt;Node5</title>
<path fill="none" stroke="midnightblue" d="M69.6643,-110.45C92.4971,-101.617 129.365,-87.3546 155.44,-77.267"/>
<polygon fill="midnightblue" stroke="midnightblue" points="156.79,-80.4977 164.854,-73.6253 154.265,-73.9692 156.79,-80.4977"/>
</g>
<!-- Node6 -->
<g id="node6" class="node"><title>Node6</title>
<polygon fill="white" stroke="#bfbfbf" points="243.68,-0.5 243.68,-18.5 298.034,-18.5 298.034,-0.5 243.68,-0.5"/>
<text text-anchor="middle" x="270.857" y="-6.5" font-family="Helvetica,sans-Serif" font-size="10.00">ofMain.h</text>
</g>
<!-- Node5&#45;&gt;Node6 -->
<g id="edge5" class="edge"><title>Node5&#45;&gt;Node6</title>
<path fill="none" stroke="midnightblue" d="M198.767,-55.4504C212.122,-47.1232 233.216,-33.9704 249.143,-24.0394"/>
<polygon fill="midnightblue" stroke="midnightblue" points="251.192,-26.8863 257.826,-18.6253 247.488,-20.9464 251.192,-26.8863"/>
</g>
<!-- Node7&#45;&gt;Node5 -->
<g id="edge7" class="edge"><title>Node7&#45;&gt;Node5</title>
<path fill="none" stroke="midnightblue" d="M168.982,-110.219C171.728,-102.942 175.814,-92.1134 179.278,-82.9345"/>
<polygon fill="midnightblue" stroke="midnightblue" points="182.563,-84.1413 182.819,-73.5496 176.014,-81.6699 182.563,-84.1413"/>
</g>
<!-- Node8&#45;&gt;Node5 -->
<g id="edge9" class="edge"><title>Node8&#45;&gt;Node5</title>
<path fill="none" stroke="midnightblue" d="M275.758,-110.45C258.636,-101.89 231.315,-88.2291 211.281,-78.2119"/>
<polygon fill="midnightblue" stroke="midnightblue" points="212.617,-74.967 202.108,-73.6253 209.487,-81.228 212.617,-74.967"/>
</g>
<!-- Node9&#45;&gt;Node6 -->
<g id="edge11" class="edge"><title>Node9&#45;&gt;Node6</title>
<path fill="none" stroke="midnightblue" d="M343.795,-55.4504C330.283,-47.1232 308.941,-33.9704 292.827,-24.0394"/>
<polygon fill="midnightblue" stroke="midnightblue" points="294.391,-20.8922 284.041,-18.6253 290.718,-26.8515 294.391,-20.8922"/>
</g>
</g>
</svg>
