<?xml version="1.0" encoding="UTF-8" standalone="no"?>
<!DOCTYPE svg PUBLIC "-//W3C//DTD SVG 1.1//EN"
 "http://www.w3.org/Graphics/SVG/1.1/DTD/svg11.dtd">
<!-- Generated by graphviz version 2.38.0 (20140413.2041)
 -->
<!-- Title: ofxCuiCuiStyle.hpp Pages: 1 -->
<svg width="127pt" height="137pt"
 viewBox="0.00 0.00 127.38 137.00" xmlns="http://www.w3.org/2000/svg" xmlns:xlink="http://www.w3.org/1999/xlink">
<g id="graph0" class="graph" transform="scale(1 1) rotate(0) translate(4 133)">
<title>ofxCuiCuiStyle.hpp</title>
<polygon fill="white" stroke="none" points="-4,4 -4,-133 123.379,-133 123.379,4 -4,4"/>
<!-- Node1 -->
<g id="node1" class="node"><title>Node1</title>
<polygon fill="#bfbfbf" stroke="black" points="9.16748,-110.5 9.16748,-128.5 110.211,-128.5 110.211,-110.5 9.16748,-110.5"/>
<text text-anchor="middle" x="59.6895" y="-116.5" font-family="Helvetica,sans-Serif" font-size="10.00">ofxCuiCuiStyle.hpp</text>
</g>
<!-- Node2 -->
<g id="node2" class="node"><title>Node2</title>
<g id="a_node2"><a xlink:href="ofx_cui_cui_common_8hpp.html" target="_top" xlink:title="ofxCuiCuiCommon.hpp">
<polygon fill="white" stroke="black" points="0,-55.5 0,-73.5 119.379,-73.5 119.379,-55.5 0,-55.5"/>
<text text-anchor="middle" x="59.6895" y="-61.5" font-family="Helvetica,sans-Serif" font-size="10.00">ofxCuiCuiCommon.hpp</text>
</a>
</g>
</g>
<!-- Node1&#45;&gt;Node2 -->
<g id="edge1" class="edge"><title>Node1&#45;&gt;Node2</title>
<path fill="none" stroke="midnightblue" d="M59.6895,-110.219C59.6895,-103.177 59.6895,-92.8083 59.6895,-83.8277"/>
<polygon fill="midnightblue" stroke="midnightblue" points="63.1896,-83.5495 59.6895,-73.5496 56.1896,-83.5496 63.1896,-83.5495"/>
</g>
<!-- Node3 -->
<g id="node3" class="node"><title>Node3</title>
<polygon fill="white" stroke="#bfbfbf" points="32.5122,-0.5 32.5122,-18.5 86.8667,-18.5 86.8667,-0.5 32.5122,-0.5"/>
<text text-anchor="middle" x="59.6895" y="-6.5" font-family="Helvetica,sans-Serif" font-size="10.00">ofMain.h</text>
</g>
<!-- Node2&#45;&gt;Node3 -->
<g id="edge2" class="edge"><title>Node2&#45;&gt;Node3</title>
<path fill="none" stroke="midnightblue" d="M59.6895,-55.2188C59.6895,-48.1769 59.6895,-37.8083 59.6895,-28.8277"/>
<polygon fill="midnightblue" stroke="midnightblue" points="63.1896,-28.5495 59.6895,-18.5496 56.1896,-28.5496 63.1896,-28.5495"/>
</g>
</g>
</svg>
