<?xml version="1.0" encoding="UTF-8" standalone="no"?>
<!DOCTYPE svg PUBLIC "-//W3C//DTD SVG 1.1//EN"
 "http://www.w3.org/Graphics/SVG/1.1/DTD/svg11.dtd">
<!-- Generated by graphviz version 2.38.0 (20140413.2041)
 -->
<!-- Title: ofxOuiColormap.hpp Pages: 1 -->
<svg width="198pt" height="82pt"
 viewBox="0.00 0.00 197.76 82.00" xmlns="http://www.w3.org/2000/svg" xmlns:xlink="http://www.w3.org/1999/xlink">
<g id="graph0" class="graph" transform="scale(1 1) rotate(0) translate(4 78)">
<title>ofxOuiColormap.hpp</title>
<polygon fill="white" stroke="none" points="-4,4 -4,-78 193.758,-78 193.758,4 -4,4"/>
<!-- Node2 -->
<g id="node1" class="node"><title>Node2</title>
<polygon fill="#bfbfbf" stroke="black" points="30.3252,-55.5 30.3252,-73.5 138.039,-73.5 138.039,-55.5 30.3252,-55.5"/>
<text text-anchor="middle" x="84.1821" y="-61.5" font-family="Helvetica,sans-Serif" font-size="10.00">ofxOuiColormap.hpp</text>
</g>
<!-- Node3 -->
<g id="node2" class="node"><title>Node3</title>
<g id="a_node2"><a xlink:href="ofx_oui_8hpp.html" target="_top" xlink:title="ofxOui.hpp">
<polygon fill="white" stroke="black" points="0,-0.5 0,-18.5 64.3643,-18.5 64.3643,-0.5 0,-0.5"/>
<text text-anchor="middle" x="32.1821" y="-6.5" font-family="Helvetica,sans-Serif" font-size="10.00">ofxOui.hpp</text>
</a>
</g>
</g>
<!-- Node2&#45;&gt;Node3 -->
<g id="edge1" class="edge"><title>Node2&#45;&gt;Node3</title>
<path fill="none" stroke="midnightblue" d="M68.8003,-47.8223C59.3645,-38.2051 47.6759,-26.2917 40.0798,-18.5496"/>
<polygon fill="midnightblue" stroke="midnightblue" points="66.5554,-50.5318 76.0571,-55.2188 71.552,-45.6294 66.5554,-50.5318"/>
</g>
<!-- Node4 -->
<g id="node3" class="node"><title>Node4</title>
<g id="a_node3"><a xlink:href="ofx_oui_colormap_8cpp.html" target="_top" xlink:title="ofxOuiColormap.cpp">
<polygon fill="white" stroke="black" points="82.606,-0.5 82.606,-18.5 189.758,-18.5 189.758,-0.5 82.606,-0.5"/>
<text text-anchor="middle" x="136.182" y="-6.5" font-family="Helvetica,sans-Serif" font-size="10.00">ofxOuiColormap.cpp</text>
</a>
</g>
</g>
<!-- Node2&#45;&gt;Node4 -->
<g id="edge2" class="edge"><title>Node2&#45;&gt;Node4</title>
<path fill="none" stroke="midnightblue" d="M99.564,-47.8223C109,-38.2051 120.688,-26.2917 128.284,-18.5496"/>
<polygon fill="midnightblue" stroke="midnightblue" points="96.8122,-45.6294 92.3071,-55.2188 101.809,-50.5318 96.8122,-45.6294"/>
</g>
</g>
</svg>
