<?xml version="1.0" encoding="UTF-8" standalone="no"?>
<!DOCTYPE svg PUBLIC "-//W3C//DTD SVG 1.1//EN"
 "http://www.w3.org/Graphics/SVG/1.1/DTD/svg11.dtd">
<!-- Generated by graphviz version 2.38.0 (20140413.2041)
 -->
<!-- Title: ofxOuiMultiSlider.hpp Pages: 1 -->
<svg width="314pt" height="247pt"
 viewBox="0.00 0.00 313.60 247.00" xmlns="http://www.w3.org/2000/svg" xmlns:xlink="http://www.w3.org/1999/xlink">
<g id="graph0" class="graph" transform="scale(1 1) rotate(0) translate(4 243)">
<title>ofxOuiMultiSlider.hpp</title>
<polygon fill="white" stroke="none" points="-4,4 -4,-243 309.601,-243 309.601,4 -4,4"/>
<!-- Node0 -->
<g id="node1" class="node"><title>Node0</title>
<polygon fill="#bfbfbf" stroke="black" points="89.3843,-220.5 89.3843,-238.5 199.881,-238.5 199.881,-220.5 89.3843,-220.5"/>
<text text-anchor="middle" x="144.633" y="-226.5" font-family="Helvetica,sans-Serif" font-size="10.00">ofxOuiMultiSlider.hpp</text>
</g>
<!-- Node1 -->
<g id="node2" class="node"><title>Node1</title>
<g id="a_node2"><a xlink:href="ofx_oui_component_8hpp.html" target="_top" xlink:title="ofxOuiComponent.hpp">
<polygon fill="white" stroke="black" points="86.6011,-165.5 86.6011,-183.5 202.665,-183.5 202.665,-165.5 86.6011,-165.5"/>
<text text-anchor="middle" x="144.633" y="-171.5" font-family="Helvetica,sans-Serif" font-size="10.00">ofxOuiComponent.hpp</text>
</a>
</g>
</g>
<!-- Node0&#45;&gt;Node1 -->
<g id="edge1" class="edge"><title>Node0&#45;&gt;Node1</title>
<path fill="none" stroke="midnightblue" d="M144.633,-220.219C144.633,-213.177 144.633,-202.808 144.633,-193.828"/>
<polygon fill="midnightblue" stroke="midnightblue" points="148.133,-193.55 144.633,-183.55 141.133,-193.55 148.133,-193.55"/>
</g>
<!-- Node2 -->
<g id="node3" class="node"><title>Node2</title>
<g id="a_node3"><a xlink:href="ofx_oui_icon_8hpp.html" target="_top" xlink:title="ofxOuiIcon.hpp">
<polygon fill="white" stroke="black" points="0,-110.5 0,-128.5 83.2656,-128.5 83.2656,-110.5 0,-110.5"/>
<text text-anchor="middle" x="41.6328" y="-116.5" font-family="Helvetica,sans-Serif" font-size="10.00">ofxOuiIcon.hpp</text>
</a>
</g>
</g>
<!-- Node1&#45;&gt;Node2 -->
<g id="edge2" class="edge"><title>Node1&#45;&gt;Node2</title>
<path fill="none" stroke="midnightblue" d="M128.989,-165.45C112.352,-156.89 85.8044,-143.229 66.337,-133.212"/>
<polygon fill="midnightblue" stroke="midnightblue" points="67.9168,-130.089 57.4235,-128.625 64.714,-136.313 67.9168,-130.089"/>
</g>
<!-- Node5 -->
<g id="node6" class="node"><title>Node5</title>
<g id="a_node6"><a xlink:href="ofx_oui_style_8hpp.html" target="_top" xlink:title="ofxOuiStyle.hpp">
<polygon fill="white" stroke="black" points="101.335,-110.5 101.335,-128.5 187.931,-128.5 187.931,-110.5 101.335,-110.5"/>
<text text-anchor="middle" x="144.633" y="-116.5" font-family="Helvetica,sans-Serif" font-size="10.00">ofxOuiStyle.hpp</text>
</a>
</g>
</g>
<!-- Node1&#45;&gt;Node5 -->
<g id="edge5" class="edge"><title>Node1&#45;&gt;Node5</title>
<path fill="none" stroke="midnightblue" d="M144.633,-165.219C144.633,-158.177 144.633,-147.808 144.633,-138.828"/>
<polygon fill="midnightblue" stroke="midnightblue" points="148.133,-138.55 144.633,-128.55 141.133,-138.55 148.133,-138.55"/>
</g>
<!-- Node6 -->
<g id="node7" class="node"><title>Node6</title>
<g id="a_node7"><a xlink:href="ofx_oui_text_box_8hpp.html" target="_top" xlink:title="ofxOuiTextBox.hpp">
<polygon fill="white" stroke="black" points="205.665,-110.5 205.665,-128.5 305.601,-128.5 305.601,-110.5 205.665,-110.5"/>
<text text-anchor="middle" x="255.633" y="-116.5" font-family="Helvetica,sans-Serif" font-size="10.00">ofxOuiTextBox.hpp</text>
</a>
</g>
</g>
<!-- Node1&#45;&gt;Node6 -->
<g id="edge7" class="edge"><title>Node1&#45;&gt;Node6</title>
<path fill="none" stroke="midnightblue" d="M161.491,-165.45C179.583,-156.812 208.551,-142.98 229.58,-132.94"/>
<polygon fill="midnightblue" stroke="midnightblue" points="231.1,-136.093 238.616,-128.625 228.083,-129.776 231.1,-136.093"/>
</g>
<!-- Node3 -->
<g id="node4" class="node"><title>Node3</title>
<g id="a_node4"><a xlink:href="ofx_oui_common_8hpp.html" target="_top" xlink:title="ofxOuiCommon.hpp">
<polygon fill="white" stroke="black" points="92.1675,-55.5 92.1675,-73.5 197.098,-73.5 197.098,-55.5 92.1675,-55.5"/>
<text text-anchor="middle" x="144.633" y="-61.5" font-family="Helvetica,sans-Serif" font-size="10.00">ofxOuiCommon.hpp</text>
</a>
</g>
</g>
<!-- Node2&#45;&gt;Node3 -->
<g id="edge3" class="edge"><title>Node2&#45;&gt;Node3</title>
<path fill="none" stroke="midnightblue" d="M57.2763,-110.45C73.9132,-101.89 100.461,-88.2291 119.929,-78.2119"/>
<polygon fill="midnightblue" stroke="midnightblue" points="121.552,-81.313 128.842,-73.6253 118.349,-75.0886 121.552,-81.313"/>
</g>
<!-- Node4 -->
<g id="node5" class="node"><title>Node4</title>
<polygon fill="white" stroke="#bfbfbf" points="117.456,-0.5 117.456,-18.5 171.81,-18.5 171.81,-0.5 117.456,-0.5"/>
<text text-anchor="middle" x="144.633" y="-6.5" font-family="Helvetica,sans-Serif" font-size="10.00">ofMain.h</text>
</g>
<!-- Node3&#45;&gt;Node4 -->
<g id="edge4" class="edge"><title>Node3&#45;&gt;Node4</title>
<path fill="none" stroke="midnightblue" d="M144.633,-55.2188C144.633,-48.1769 144.633,-37.8083 144.633,-28.8277"/>
<polygon fill="midnightblue" stroke="midnightblue" points="148.133,-28.5495 144.633,-18.5496 141.133,-28.5496 148.133,-28.5495"/>
</g>
<!-- Node5&#45;&gt;Node3 -->
<g id="edge6" class="edge"><title>Node5&#45;&gt;Node3</title>
<path fill="none" stroke="midnightblue" d="M144.633,-110.219C144.633,-103.177 144.633,-92.8083 144.633,-83.8277"/>
<polygon fill="midnightblue" stroke="midnightblue" points="148.133,-83.5495 144.633,-73.5496 141.133,-83.5496 148.133,-83.5495"/>
</g>
<!-- Node6&#45;&gt;Node3 -->
<g id="edge8" class="edge"><title>Node6&#45;&gt;Node3</title>
<path fill="none" stroke="midnightblue" d="M238.774,-110.45C220.682,-101.812 191.714,-87.9803 170.686,-77.9396"/>
<polygon fill="midnightblue" stroke="midnightblue" points="172.182,-74.7757 161.65,-73.6253 169.166,-81.0926 172.182,-74.7757"/>
</g>
</g>
</svg>
