<?xml version="1.0" encoding="UTF-8" standalone="no"?>
<!DOCTYPE svg PUBLIC "-//W3C//DTD SVG 1.1//EN"
 "http://www.w3.org/Graphics/SVG/1.1/DTD/svg11.dtd">
<!-- Generated by graphviz version 2.38.0 (20140413.2041)
 -->
<!-- Title: ofxCuiCuiBpf.hpp Pages: 1 -->
<svg width="198pt" height="82pt"
 viewBox="0.00 0.00 198.04 82.00" xmlns="http://www.w3.org/2000/svg" xmlns:xlink="http://www.w3.org/1999/xlink">
<g id="graph0" class="graph" transform="scale(1 1) rotate(0) translate(4 78)">
<title>ofxCuiCuiBpf.hpp</title>
<polygon fill="white" stroke="none" points="-4,4 -4,-78 194.037,-78 194.037,4 -4,4"/>
<!-- Node1 -->
<g id="node1" class="node"><title>Node1</title>
<polygon fill="#bfbfbf" stroke="black" points="44.4951,-55.5 44.4951,-73.5 138.317,-73.5 138.317,-55.5 44.4951,-55.5"/>
<text text-anchor="middle" x="91.4062" y="-61.5" font-family="Helvetica,sans-Serif" font-size="10.00">ofxCuiCuiBpf.hpp</text>
</g>
<!-- Node2 -->
<g id="node2" class="node"><title>Node2</title>
<g id="a_node2"><a xlink:href="ofx_cui_cui_8hpp.html" target="_top" xlink:title="ofxCuiCui.hpp">
<polygon fill="white" stroke="black" points="0,-0.5 0,-18.5 78.8125,-18.5 78.8125,-0.5 0,-0.5"/>
<text text-anchor="middle" x="39.4062" y="-6.5" font-family="Helvetica,sans-Serif" font-size="10.00">ofxCuiCui.hpp</text>
</a>
</g>
</g>
<!-- Node1&#45;&gt;Node2 -->
<g id="edge1" class="edge"><title>Node1&#45;&gt;Node2</title>
<path fill="none" stroke="midnightblue" d="M76.0244,-47.8223C66.5886,-38.2051 54.9,-26.2917 47.3039,-18.5496"/>
<polygon fill="midnightblue" stroke="midnightblue" points="73.7795,-50.5318 83.2812,-55.2188 78.7762,-45.6294 73.7795,-50.5318"/>
</g>
<!-- Node3 -->
<g id="node3" class="node"><title>Node3</title>
<g id="a_node3"><a xlink:href="ofx_cui_cui_bpf_8cpp.html" target="_top" xlink:title="ofxCuiCuiBpf.cpp">
<polygon fill="white" stroke="black" points="96.7759,-0.5 96.7759,-18.5 190.037,-18.5 190.037,-0.5 96.7759,-0.5"/>
<text text-anchor="middle" x="143.406" y="-6.5" font-family="Helvetica,sans-Serif" font-size="10.00">ofxCuiCuiBpf.cpp</text>
</a>
</g>
</g>
<!-- Node1&#45;&gt;Node3 -->
<g id="edge2" class="edge"><title>Node1&#45;&gt;Node3</title>
<path fill="none" stroke="midnightblue" d="M106.788,-47.8223C116.224,-38.2051 127.912,-26.2917 135.509,-18.5496"/>
<polygon fill="midnightblue" stroke="midnightblue" points="104.036,-45.6294 99.5312,-55.2188 109.033,-50.5318 104.036,-45.6294"/>
</g>
</g>
</svg>
