<?xml version="1.0" encoding="UTF-8" standalone="no"?>
<!DOCTYPE svg PUBLIC "-//W3C//DTD SVG 1.1//EN"
 "http://www.w3.org/Graphics/SVG/1.1/DTD/svg11.dtd">
<!-- Generated by graphviz version 2.38.0 (20140413.2041)
 -->
<!-- Title: ofxOuiCommon.hpp Pages: 1 -->
<svg width="2057pt" height="302pt"
 viewBox="0.00 0.00 2056.71 302.00" xmlns="http://www.w3.org/2000/svg" xmlns:xlink="http://www.w3.org/1999/xlink">
<g id="graph0" class="graph" transform="scale(1 1) rotate(0) translate(4 298)">
<title>ofxOuiCommon.hpp</title>
<polygon fill="white" stroke="none" points="-4,4 -4,-298 2052.71,-298 2052.71,4 -4,4"/>
<!-- Node2 -->
<g id="node1" class="node"><title>Node2</title>
<polygon fill="#bfbfbf" stroke="black" points="277.535,-275.5 277.535,-293.5 382.465,-293.5 382.465,-275.5 277.535,-275.5"/>
<text text-anchor="middle" x="330" y="-281.5" font-family="Helvetica,sans-Serif" font-size="10.00">ofxOuiCommon.hpp</text>
</g>
<!-- Node3 -->
<g id="node2" class="node"><title>Node3</title>
<g id="a_node2"><a xlink:href="ofx_oui_icon_8hpp.html" target="_top" xlink:title="ofxOuiIcon.hpp">
<polygon fill="white" stroke="black" points="108.367,-220.5 108.367,-238.5 191.633,-238.5 191.633,-220.5 108.367,-220.5"/>
<text text-anchor="middle" x="150" y="-226.5" font-family="Helvetica,sans-Serif" font-size="10.00">ofxOuiIcon.hpp</text>
</a>
</g>
</g>
<!-- Node2&#45;&gt;Node3 -->
<g id="edge1" class="edge"><title>Node2&#45;&gt;Node3</title>
<path fill="none" stroke="midnightblue" d="M292.98,-272.6C258.587,-262.473 208.166,-247.627 177.3,-238.538"/>
<polygon fill="midnightblue" stroke="midnightblue" points="292.08,-275.983 302.662,-275.45 294.058,-269.268 292.08,-275.983"/>
</g>
<!-- Node6 -->
<g id="node5" class="node"><title>Node6</title>
<g id="a_node5"><a xlink:href="ofx_oui_8hpp.html" target="_top" xlink:title="ofxOui.hpp">
<polygon fill="white" stroke="black" points="1058.82,-0.5 1058.82,-18.5 1123.18,-18.5 1123.18,-0.5 1058.82,-0.5"/>
<text text-anchor="middle" x="1091" y="-6.5" font-family="Helvetica,sans-Serif" font-size="10.00">ofxOui.hpp</text>
</a>
</g>
</g>
<!-- Node2&#45;&gt;Node6 -->
<g id="edge59" class="edge"><title>Node2&#45;&gt;Node6</title>
<path fill="none" stroke="midnightblue" d="M267.194,-275.951C171.455,-262.669 0,-231.118 0,-175.5 0,-175.5 0,-175.5 0,-118.5 0,-37.0123 92.1349,-71.1805 172,-55 342.063,-20.5456 778.731,-28.2958 952,-19 988.576,-17.0377 1030.54,-14.4211 1058.71,-12.6118"/>
<polygon fill="midnightblue" stroke="midnightblue" points="266.965,-279.452 277.346,-277.331 267.908,-272.516 266.965,-279.452"/>
</g>
<!-- Node32 -->
<g id="node31" class="node"><title>Node32</title>
<g id="a_node31"><a xlink:href="ofx_oui_style_8hpp.html" target="_top" xlink:title="ofxOuiStyle.hpp">
<polygon fill="white" stroke="black" points="977.702,-220.5 977.702,-238.5 1064.3,-238.5 1064.3,-220.5 977.702,-220.5"/>
<text text-anchor="middle" x="1021" y="-226.5" font-family="Helvetica,sans-Serif" font-size="10.00">ofxOuiStyle.hpp</text>
</a>
</g>
</g>
<!-- Node2&#45;&gt;Node32 -->
<g id="edge43" class="edge"><title>Node2&#45;&gt;Node32</title>
<path fill="none" stroke="midnightblue" d="M392.517,-278.705C530.734,-268.104 859.374,-242.897 977.65,-233.825"/>
<polygon fill="midnightblue" stroke="midnightblue" points="392.207,-275.218 382.504,-279.473 392.743,-282.198 392.207,-275.218"/>
</g>
<!-- Node34 -->
<g id="node33" class="node"><title>Node34</title>
<g id="a_node33"><a xlink:href="ofx_oui_text_box_8hpp.html" target="_top" xlink:title="ofxOuiTextBox.hpp">
<polygon fill="white" stroke="black" points="280.032,-220.5 280.032,-238.5 379.968,-238.5 379.968,-220.5 280.032,-220.5"/>
<text text-anchor="middle" x="330" y="-226.5" font-family="Helvetica,sans-Serif" font-size="10.00">ofxOuiTextBox.hpp</text>
</a>
</g>
</g>
<!-- Node2&#45;&gt;Node34 -->
<g id="edge47" class="edge"><title>Node2&#45;&gt;Node34</title>
<path fill="none" stroke="midnightblue" d="M330,-265.175C330,-256.094 330,-245.595 330,-238.55"/>
<polygon fill="midnightblue" stroke="midnightblue" points="326.5,-265.219 330,-275.219 333.5,-265.219 326.5,-265.219"/>
</g>
<!-- Node38 -->
<g id="node37" class="node"><title>Node38</title>
<g id="a_node37"><a xlink:href="ofx_oui_shape_editor_8hpp.html" target="_top" xlink:title="ofxOuiShapeEditor.hpp">
<polygon fill="white" stroke="black" points="1305.57,-220.5 1305.57,-238.5 1424.43,-238.5 1424.43,-220.5 1305.57,-220.5"/>
<text text-anchor="middle" x="1365" y="-226.5" font-family="Helvetica,sans-Serif" font-size="10.00">ofxOuiShapeEditor.hpp</text>
</a>
</g>
</g>
<!-- Node2&#45;&gt;Node38 -->
<g id="edge56" class="edge"><title>Node2&#45;&gt;Node38</title>
<path fill="none" stroke="midnightblue" d="M392.9,-280.279C578.767,-270.761 1123.8,-242.851 1305.37,-233.553"/>
<polygon fill="midnightblue" stroke="midnightblue" points="392.557,-276.792 382.749,-280.799 392.915,-283.783 392.557,-276.792"/>
</g>
<!-- Node4 -->
<g id="node3" class="node"><title>Node4</title>
<g id="a_node3"><a xlink:href="ofx_oui_component_8hpp.html" target="_top" xlink:title="ofxOuiComponent.hpp">
<polygon fill="white" stroke="black" points="760.968,-165.5 760.968,-183.5 877.032,-183.5 877.032,-165.5 760.968,-165.5"/>
<text text-anchor="middle" x="819" y="-171.5" font-family="Helvetica,sans-Serif" font-size="10.00">ofxOuiComponent.hpp</text>
</a>
</g>
</g>
<!-- Node3&#45;&gt;Node4 -->
<g id="edge2" class="edge"><title>Node3&#45;&gt;Node4</title>
<path fill="none" stroke="midnightblue" d="M202.106,-224.372C324.876,-214.646 631.637,-190.343 760.518,-180.133"/>
<polygon fill="midnightblue" stroke="midnightblue" points="201.541,-220.906 191.849,-225.185 202.094,-227.884 201.541,-220.906"/>
</g>
<!-- Node3&#45;&gt;Node6 -->
<g id="edge41" class="edge"><title>Node3&#45;&gt;Node6</title>
<path fill="none" stroke="midnightblue" d="M147.862,-210.29C144.574,-172.303 143.479,-85.6045 197,-55 269.906,-13.3108 868.14,-23.5632 952,-19 988.574,-17.0099 1030.54,-14.3983 1058.71,-12.5979"/>
<polygon fill="midnightblue" stroke="midnightblue" points="144.397,-210.806 148.896,-220.399 151.361,-210.095 144.397,-210.806"/>
</g>
<!-- Node31 -->
<g id="node30" class="node"><title>Node31</title>
<g id="a_node30"><a xlink:href="ofx_oui_icon_8cpp.html" target="_top" xlink:title="ofxOuiIcon.cpp">
<polygon fill="white" stroke="black" points="27.6479,-165.5 27.6479,-183.5 110.352,-183.5 110.352,-165.5 27.6479,-165.5"/>
<text text-anchor="middle" x="69" y="-171.5" font-family="Helvetica,sans-Serif" font-size="10.00">ofxOuiIcon.cpp</text>
</a>
</g>
</g>
<!-- Node3&#45;&gt;Node31 -->
<g id="edge42" class="edge"><title>Node3&#45;&gt;Node31</title>
<path fill="none" stroke="midnightblue" d="M129.019,-214.772C113.923,-204.894 94.0697,-191.904 81.4179,-183.625"/>
<polygon fill="midnightblue" stroke="midnightblue" points="127.414,-217.904 137.698,-220.45 131.246,-212.046 127.414,-217.904"/>
</g>
<!-- Node5 -->
<g id="node4" class="node"><title>Node5</title>
<g id="a_node4"><a xlink:href="ofx_oui_bpf_8hpp.html" target="_top" xlink:title="ofxOuiBpf.hpp">
<polygon fill="white" stroke="black" points="479.313,-110.5 479.313,-128.5 558.687,-128.5 558.687,-110.5 479.313,-110.5"/>
<text text-anchor="middle" x="519" y="-116.5" font-family="Helvetica,sans-Serif" font-size="10.00">ofxOuiBpf.hpp</text>
</a>
</g>
</g>
<!-- Node4&#45;&gt;Node5 -->
<g id="edge3" class="edge"><title>Node4&#45;&gt;Node5</title>
<path fill="none" stroke="midnightblue" d="M763.473,-163.69C704.049,-153.192 611.266,-136.8 558.748,-127.522"/>
<polygon fill="midnightblue" stroke="midnightblue" points="762.98,-167.157 773.436,-165.45 764.198,-160.264 762.98,-167.157"/>
</g>
<!-- Node4&#45;&gt;Node6 -->
<g id="edge39" class="edge"><title>Node4&#45;&gt;Node6</title>
<path fill="none" stroke="midnightblue" d="M887.316,-170.209C997.793,-164.289 1205.99,-150.429 1232,-129 1258.04,-107.541 1269.37,-81.9024 1249,-55 1233.86,-35.0075 1164.86,-21.4715 1123.21,-14.9639"/>
<polygon fill="midnightblue" stroke="midnightblue" points="887.065,-166.717 877.264,-170.74 887.435,-173.707 887.065,-166.717"/>
</g>
<!-- Node8 -->
<g id="node7" class="node"><title>Node8</title>
<g id="a_node7"><a xlink:href="ofx_oui_button_8hpp.html" target="_top" xlink:title="ofxOuiButton.hpp">
<polygon fill="white" stroke="black" points="1550.36,-110.5 1550.36,-128.5 1643.64,-128.5 1643.64,-110.5 1550.36,-110.5"/>
<text text-anchor="middle" x="1597" y="-116.5" font-family="Helvetica,sans-Serif" font-size="10.00">ofxOuiButton.hpp</text>
</a>
</g>
</g>
<!-- Node4&#45;&gt;Node8 -->
<g id="edge6" class="edge"><title>Node4&#45;&gt;Node8</title>
<path fill="none" stroke="midnightblue" d="M887.502,-168.833C1042.69,-158.262 1417.83,-132.706 1549.98,-123.703"/>
<polygon fill="midnightblue" stroke="midnightblue" points="886.897,-165.366 877.158,-169.538 887.373,-172.35 886.897,-165.366"/>
</g>
<!-- Node18 -->
<g id="node17" class="node"><title>Node18</title>
<g id="a_node17"><a xlink:href="ofx_oui_group_8hpp.html" target="_top" xlink:title="ofxOuiGroup.hpp">
<polygon fill="white" stroke="black" points="588.921,-110.5 588.921,-128.5 681.079,-128.5 681.079,-110.5 588.921,-110.5"/>
<text text-anchor="middle" x="635" y="-116.5" font-family="Helvetica,sans-Serif" font-size="10.00">ofxOuiGroup.hpp</text>
</a>
</g>
</g>
<!-- Node4&#45;&gt;Node18 -->
<g id="edge21" class="edge"><title>Node4&#45;&gt;Node18</title>
<path fill="none" stroke="midnightblue" d="M781.157,-162.6C746,-152.473 694.458,-137.627 662.907,-128.538"/>
<polygon fill="midnightblue" stroke="midnightblue" points="780.476,-166.046 791.054,-165.45 782.414,-159.319 780.476,-166.046"/>
</g>
<!-- Node20 -->
<g id="node19" class="node"><title>Node20</title>
<g id="a_node19"><a xlink:href="ofx_oui_multi_slider_8hpp.html" target="_top" xlink:title="ofxOuiMultiSlider.hpp">
<polygon fill="white" stroke="black" points="698.751,-110.5 698.751,-128.5 809.249,-128.5 809.249,-110.5 698.751,-110.5"/>
<text text-anchor="middle" x="754" y="-116.5" font-family="Helvetica,sans-Serif" font-size="10.00">ofxOuiMultiSlider.hpp</text>
</a>
</g>
</g>
<!-- Node4&#45;&gt;Node20 -->
<g id="edge24" class="edge"><title>Node4&#45;&gt;Node20</title>
<path fill="none" stroke="midnightblue" d="M801.126,-158.926C789.152,-149.162 773.83,-136.669 763.965,-128.625"/>
<polygon fill="midnightblue" stroke="midnightblue" points="799.166,-161.844 809.128,-165.45 803.589,-156.418 799.166,-161.844"/>
</g>
<!-- Node22 -->
<g id="node21" class="node"><title>Node22</title>
<g id="a_node21"><a xlink:href="ofx_oui_numbox_8hpp.html" target="_top" xlink:title="ofxOuiNumbox.hpp">
<polygon fill="white" stroke="black" points="961.2,-110.5 961.2,-128.5 1062.8,-128.5 1062.8,-110.5 961.2,-110.5"/>
<text text-anchor="middle" x="1012" y="-116.5" font-family="Helvetica,sans-Serif" font-size="10.00">ofxOuiNumbox.hpp</text>
</a>
</g>
</g>
<!-- Node4&#45;&gt;Node22 -->
<g id="edge27" class="edge"><title>Node4&#45;&gt;Node22</title>
<path fill="none" stroke="midnightblue" d="M858.22,-162.73C895.106,-152.6 949.492,-137.666 982.728,-128.538"/>
<polygon fill="midnightblue" stroke="midnightblue" points="857.029,-159.427 848.313,-165.45 858.882,-166.177 857.029,-159.427"/>
</g>
<!-- Node26 -->
<g id="node25" class="node"><title>Node26</title>
<g id="a_node25"><a xlink:href="ofx_oui_text_input_8hpp.html" target="_top" xlink:title="ofxOuiTextInput.hpp">
<polygon fill="white" stroke="black" points="1118.53,-110.5 1118.53,-128.5 1223.47,-128.5 1223.47,-110.5 1118.53,-110.5"/>
<text text-anchor="middle" x="1171" y="-116.5" font-family="Helvetica,sans-Serif" font-size="10.00">ofxOuiTextInput.hpp</text>
</a>
</g>
</g>
<!-- Node4&#45;&gt;Node26 -->
<g id="edge33" class="edge"><title>Node4&#45;&gt;Node26</title>
<path fill="none" stroke="midnightblue" d="M882.545,-163.932C950.042,-153.769 1055.51,-137.89 1118.48,-128.408"/>
<polygon fill="midnightblue" stroke="midnightblue" points="881.829,-160.5 872.461,-165.45 882.871,-167.422 881.829,-160.5"/>
</g>
<!-- Node28 -->
<g id="node27" class="node"><title>Node28</title>
<g id="a_node27"><a xlink:href="ofx_oui_waveform_8hpp.html" target="_top" xlink:title="ofxOuiWaveform.hpp">
<polygon fill="white" stroke="black" points="352.22,-110.5 352.22,-128.5 461.78,-128.5 461.78,-110.5 352.22,-110.5"/>
<text text-anchor="middle" x="407" y="-116.5" font-family="Helvetica,sans-Serif" font-size="10.00">ofxOuiWaveform.hpp</text>
</a>
</g>
</g>
<!-- Node4&#45;&gt;Node28 -->
<g id="edge36" class="edge"><title>Node4&#45;&gt;Node28</title>
<path fill="none" stroke="midnightblue" d="M750.872,-164.962C680.514,-156.11 567.552,-141.8 470,-129 467.374,-128.655 464.686,-128.301 461.972,-127.941"/>
<polygon fill="midnightblue" stroke="midnightblue" points="750.578,-168.453 760.937,-166.228 751.451,-161.507 750.578,-168.453"/>
</g>
<!-- Node30 -->
<g id="node29" class="node"><title>Node30</title>
<g id="a_node29"><a xlink:href="ofx_oui_component_8cpp.html" target="_top" xlink:title="ofxOuiComponent.cpp">
<polygon fill="white" stroke="black" points="827.249,-110.5 827.249,-128.5 942.751,-128.5 942.751,-110.5 827.249,-110.5"/>
<text text-anchor="middle" x="885" y="-116.5" font-family="Helvetica,sans-Serif" font-size="10.00">ofxOuiComponent.cpp</text>
</a>
</g>
</g>
<!-- Node4&#45;&gt;Node30 -->
<g id="edge40" class="edge"><title>Node4&#45;&gt;Node30</title>
<path fill="none" stroke="midnightblue" d="M837.149,-158.926C849.307,-149.162 864.865,-136.669 874.882,-128.625"/>
<polygon fill="midnightblue" stroke="midnightblue" points="834.63,-156.46 829.024,-165.45 839.013,-161.918 834.63,-156.46"/>
</g>
<!-- Node5&#45;&gt;Node6 -->
<g id="edge4" class="edge"><title>Node5&#45;&gt;Node6</title>
<path fill="none" stroke="midnightblue" d="M517.012,-100.155C516.555,-85.6744 518.616,-66.1195 531,-55 540.899,-46.1118 940.94,-20.0351 1058.71,-12.5377"/>
<polygon fill="midnightblue" stroke="midnightblue" points="513.543,-100.706 517.768,-110.422 520.524,-100.192 513.543,-100.706"/>
</g>
<!-- Node7 -->
<g id="node6" class="node"><title>Node7</title>
<g id="a_node6"><a xlink:href="ofx_oui_bpf_8cpp.html" target="_top" xlink:title="ofxOuiBpf.cpp">
<polygon fill="white" stroke="black" points="405.594,-55.5 405.594,-73.5 484.406,-73.5 484.406,-55.5 405.594,-55.5"/>
<text text-anchor="middle" x="445" y="-61.5" font-family="Helvetica,sans-Serif" font-size="10.00">ofxOuiBpf.cpp</text>
</a>
</g>
</g>
<!-- Node5&#45;&gt;Node7 -->
<g id="edge5" class="edge"><title>Node5&#45;&gt;Node7</title>
<path fill="none" stroke="midnightblue" d="M499.441,-104.492C485.699,-94.6491 467.794,-81.8255 456.345,-73.6253"/>
<polygon fill="midnightblue" stroke="midnightblue" points="497.593,-107.473 507.761,-110.45 501.669,-101.782 497.593,-107.473"/>
</g>
<!-- Node8&#45;&gt;Node6 -->
<g id="edge7" class="edge"><title>Node8&#45;&gt;Node6</title>
<path fill="none" stroke="midnightblue" d="M1547.45,-108.222C1512.05,-100.321 1463.53,-88.3438 1422,-74 1402.25,-67.1795 1399.05,-60.868 1379,-55 1288.68,-28.5707 1177.58,-17.0552 1123.57,-12.7338"/>
<polygon fill="midnightblue" stroke="midnightblue" points="1547.01,-111.71 1557.53,-110.442 1548.51,-104.873 1547.01,-111.71"/>
</g>
<!-- Node9 -->
<g id="node8" class="node"><title>Node9</title>
<g id="a_node8"><a xlink:href="ofx_oui_check_box_8hpp.html" target="_top" xlink:title="ofxOuiCheckBox.hpp">
<polygon fill="white" stroke="black" points="1781.03,-55.5 1781.03,-73.5 1890.97,-73.5 1890.97,-55.5 1781.03,-55.5"/>
<text text-anchor="middle" x="1836" y="-61.5" font-family="Helvetica,sans-Serif" font-size="10.00">ofxOuiCheckBox.hpp</text>
</a>
</g>
</g>
<!-- Node8&#45;&gt;Node9 -->
<g id="edge8" class="edge"><title>Node8&#45;&gt;Node9</title>
<path fill="none" stroke="midnightblue" d="M1643.24,-108.245C1688.94,-98.1126 1757.89,-82.8216 1799.75,-73.5383"/>
<polygon fill="midnightblue" stroke="midnightblue" points="1642.3,-104.868 1633.3,-110.45 1643.82,-111.702 1642.3,-104.868"/>
</g>
<!-- Node11 -->
<g id="node10" class="node"><title>Node11</title>
<g id="a_node10"><a xlink:href="ofx_oui_draggable_button_8hpp.html" target="_top" xlink:title="ofxOuiDraggableButton.hpp">
<polygon fill="white" stroke="black" points="1909.29,-55.5 1909.29,-73.5 2048.71,-73.5 2048.71,-55.5 1909.29,-55.5"/>
<text text-anchor="middle" x="1979" y="-61.5" font-family="Helvetica,sans-Serif" font-size="10.00">ofxOuiDraggableButton.hpp</text>
</a>
</g>
</g>
<!-- Node8&#45;&gt;Node11 -->
<g id="edge11" class="edge"><title>Node8&#45;&gt;Node11</title>
<path fill="none" stroke="midnightblue" d="M1654.07,-110.582C1725.98,-100.605 1848.89,-83.5519 1921.16,-73.5244"/>
<polygon fill="midnightblue" stroke="midnightblue" points="1653.26,-107.16 1643.84,-112.001 1654.23,-114.094 1653.26,-107.16"/>
</g>
<!-- Node13 -->
<g id="node12" class="node"><title>Node13</title>
<g id="a_node12"><a xlink:href="ofx_oui_drop_down_8hpp.html" target="_top" xlink:title="ofxOuiDropDown.hpp">
<polygon fill="white" stroke="black" points="1541.2,-55.5 1541.2,-73.5 1652.8,-73.5 1652.8,-55.5 1541.2,-55.5"/>
<text text-anchor="middle" x="1597" y="-61.5" font-family="Helvetica,sans-Serif" font-size="10.00">ofxOuiDropDown.hpp</text>
</a>
</g>
</g>
<!-- Node8&#45;&gt;Node13 -->
<g id="edge14" class="edge"><title>Node8&#45;&gt;Node13</title>
<path fill="none" stroke="midnightblue" d="M1597,-100.175C1597,-91.0945 1597,-80.5949 1597,-73.5496"/>
<polygon fill="midnightblue" stroke="midnightblue" points="1593.5,-100.219 1597,-110.219 1600.5,-100.219 1593.5,-100.219"/>
</g>
<!-- Node15 -->
<g id="node14" class="node"><title>Node15</title>
<g id="a_node14"><a xlink:href="ofx_oui_matrix_8hpp.html" target="_top" xlink:title="ofxOuiMatrix.hpp">
<polygon fill="white" stroke="black" points="1671.21,-55.5 1671.21,-73.5 1762.79,-73.5 1762.79,-55.5 1671.21,-55.5"/>
<text text-anchor="middle" x="1717" y="-61.5" font-family="Helvetica,sans-Serif" font-size="10.00">ofxOuiMatrix.hpp</text>
</a>
</g>
</g>
<!-- Node8&#45;&gt;Node15 -->
<g id="edge17" class="edge"><title>Node8&#45;&gt;Node15</title>
<path fill="none" stroke="midnightblue" d="M1624.66,-106.283C1647.37,-96.2545 1678.89,-82.3332 1698.6,-73.6253"/>
<polygon fill="midnightblue" stroke="midnightblue" points="1622.96,-103.209 1615.23,-110.45 1625.79,-109.612 1622.96,-103.209"/>
</g>
<!-- Node17 -->
<g id="node16" class="node"><title>Node17</title>
<g id="a_node16"><a xlink:href="ofx_oui_button_8cpp.html" target="_top" xlink:title="ofxOuiButton.cpp">
<polygon fill="white" stroke="black" points="1430.64,-55.5 1430.64,-73.5 1523.36,-73.5 1523.36,-55.5 1430.64,-55.5"/>
<text text-anchor="middle" x="1477" y="-61.5" font-family="Helvetica,sans-Serif" font-size="10.00">ofxOuiButton.cpp</text>
</a>
</g>
</g>
<!-- Node8&#45;&gt;Node17 -->
<g id="edge20" class="edge"><title>Node8&#45;&gt;Node17</title>
<path fill="none" stroke="midnightblue" d="M1569.34,-106.283C1546.63,-96.2545 1515.11,-82.3332 1495.4,-73.6253"/>
<polygon fill="midnightblue" stroke="midnightblue" points="1568.21,-109.612 1578.77,-110.45 1571.04,-103.209 1568.21,-109.612"/>
</g>
<!-- Node9&#45;&gt;Node6 -->
<g id="edge9" class="edge"><title>Node9&#45;&gt;Node6</title>
<path fill="none" stroke="midnightblue" d="M1770.64,-54.934C1515,-29.9752 1219.91,-16.024 1123.32,-11.8442"/>
<polygon fill="midnightblue" stroke="midnightblue" points="1770.57,-58.4439 1780.87,-55.9402 1771.26,-51.4776 1770.57,-58.4439"/>
</g>
<!-- Node10 -->
<g id="node9" class="node"><title>Node10</title>
<g id="a_node9"><a xlink:href="ofx_oui_check_box_8cpp.html" target="_top" xlink:title="ofxOuiCheckBox.cpp">
<polygon fill="white" stroke="black" points="1781.31,-0.5 1781.31,-18.5 1890.69,-18.5 1890.69,-0.5 1781.31,-0.5"/>
<text text-anchor="middle" x="1836" y="-6.5" font-family="Helvetica,sans-Serif" font-size="10.00">ofxOuiCheckBox.cpp</text>
</a>
</g>
</g>
<!-- Node9&#45;&gt;Node10 -->
<g id="edge10" class="edge"><title>Node9&#45;&gt;Node10</title>
<path fill="none" stroke="midnightblue" d="M1836,-45.1746C1836,-36.0945 1836,-25.5949 1836,-18.5496"/>
<polygon fill="midnightblue" stroke="midnightblue" points="1832.5,-45.2187 1836,-55.2188 1839.5,-45.2188 1832.5,-45.2187"/>
</g>
<!-- Node11&#45;&gt;Node6 -->
<g id="edge12" class="edge"><title>Node11&#45;&gt;Node6</title>
<path fill="none" stroke="midnightblue" d="M1899.2,-54.9824C1590.74,-30.1946 1231.65,-15.7241 1123.41,-11.6742"/>
<polygon fill="midnightblue" stroke="midnightblue" points="1898.98,-58.476 1909.23,-55.7935 1899.55,-51.4988 1898.98,-58.476"/>
</g>
<!-- Node12 -->
<g id="node11" class="node"><title>Node12</title>
<g id="a_node11"><a xlink:href="ofx_oui_draggable_button_8cpp.html" target="_top" xlink:title="ofxOuiDraggableButton.cpp">
<polygon fill="white" stroke="black" points="1909.57,-0.5 1909.57,-18.5 2048.43,-18.5 2048.43,-0.5 1909.57,-0.5"/>
<text text-anchor="middle" x="1979" y="-6.5" font-family="Helvetica,sans-Serif" font-size="10.00">ofxOuiDraggableButton.cpp</text>
</a>
</g>
</g>
<!-- Node11&#45;&gt;Node12 -->
<g id="edge13" class="edge"><title>Node11&#45;&gt;Node12</title>
<path fill="none" stroke="midnightblue" d="M1979,-45.1746C1979,-36.0945 1979,-25.5949 1979,-18.5496"/>
<polygon fill="midnightblue" stroke="midnightblue" points="1975.5,-45.2187 1979,-55.2188 1982.5,-45.2188 1975.5,-45.2187"/>
</g>
<!-- Node13&#45;&gt;Node6 -->
<g id="edge15" class="edge"><title>Node13&#45;&gt;Node6</title>
<path fill="none" stroke="midnightblue" d="M1531.02,-54.9179C1371.85,-36.6163 1194.91,-19.9989 1123.4,-13.44"/>
<polygon fill="midnightblue" stroke="midnightblue" points="1530.66,-58.3992 1540.99,-56.0696 1531.46,-51.4454 1530.66,-58.3992"/>
</g>
<!-- Node14 -->
<g id="node13" class="node"><title>Node14</title>
<g id="a_node13"><a xlink:href="ofx_oui_drop_down_8cpp.html" target="_top" xlink:title="ofxOuiDropDown.cpp">
<polygon fill="white" stroke="black" points="1541.48,-0.5 1541.48,-18.5 1652.52,-18.5 1652.52,-0.5 1541.48,-0.5"/>
<text text-anchor="middle" x="1597" y="-6.5" font-family="Helvetica,sans-Serif" font-size="10.00">ofxOuiDropDown.cpp</text>
</a>
</g>
</g>
<!-- Node13&#45;&gt;Node14 -->
<g id="edge16" class="edge"><title>Node13&#45;&gt;Node14</title>
<path fill="none" stroke="midnightblue" d="M1597,-45.1746C1597,-36.0945 1597,-25.5949 1597,-18.5496"/>
<polygon fill="midnightblue" stroke="midnightblue" points="1593.5,-45.2187 1597,-55.2188 1600.5,-45.2188 1593.5,-45.2187"/>
</g>
<!-- Node15&#45;&gt;Node6 -->
<g id="edge18" class="edge"><title>Node15&#45;&gt;Node6</title>
<path fill="none" stroke="midnightblue" d="M1661.08,-54.9856C1449.86,-30.8198 1209.04,-16.7474 1123.28,-12.1586"/>
<polygon fill="midnightblue" stroke="midnightblue" points="1660.78,-58.4741 1671.12,-56.144 1661.59,-51.5203 1660.78,-58.4741"/>
</g>
<!-- Node16 -->
<g id="node15" class="node"><title>Node16</title>
<g id="a_node15"><a xlink:href="ofx_oui_matrix_8cpp.html" target="_top" xlink:title="ofxOuiMatrix.cpp">
<polygon fill="white" stroke="black" points="1671.49,-0.5 1671.49,-18.5 1762.51,-18.5 1762.51,-0.5 1671.49,-0.5"/>
<text text-anchor="middle" x="1717" y="-6.5" font-family="Helvetica,sans-Serif" font-size="10.00">ofxOuiMatrix.cpp</text>
</a>
</g>
</g>
<!-- Node15&#45;&gt;Node16 -->
<g id="edge19" class="edge"><title>Node15&#45;&gt;Node16</title>
<path fill="none" stroke="midnightblue" d="M1717,-45.1746C1717,-36.0945 1717,-25.5949 1717,-18.5496"/>
<polygon fill="midnightblue" stroke="midnightblue" points="1713.5,-45.2187 1717,-55.2188 1720.5,-45.2188 1713.5,-45.2187"/>
</g>
<!-- Node18&#45;&gt;Node6 -->
<g id="edge22" class="edge"><title>Node18&#45;&gt;Node6</title>
<path fill="none" stroke="midnightblue" d="M642.104,-100.952C649.128,-86.0505 661.388,-65.4667 679,-55 711.431,-35.7265 967.298,-18.1626 1058.69,-12.4453"/>
<polygon fill="midnightblue" stroke="midnightblue" points="638.875,-99.6012 638.076,-110.166 645.289,-102.405 638.875,-99.6012"/>
</g>
<!-- Node19 -->
<g id="node18" class="node"><title>Node19</title>
<g id="a_node18"><a xlink:href="ofx_oui_group_8cpp.html" target="_top" xlink:title="ofxOuiGroup.cpp">
<polygon fill="white" stroke="black" points="540.202,-55.5 540.202,-73.5 631.798,-73.5 631.798,-55.5 540.202,-55.5"/>
<text text-anchor="middle" x="586" y="-61.5" font-family="Helvetica,sans-Serif" font-size="10.00">ofxOuiGroup.cpp</text>
</a>
</g>
</g>
<!-- Node18&#45;&gt;Node19 -->
<g id="edge23" class="edge"><title>Node18&#45;&gt;Node19</title>
<path fill="none" stroke="midnightblue" d="M620.506,-102.822C611.614,-93.2051 600.6,-81.2917 593.442,-73.5496"/>
<polygon fill="midnightblue" stroke="midnightblue" points="617.985,-105.252 627.344,-110.219 623.125,-100.5 617.985,-105.252"/>
</g>
<!-- Node20&#45;&gt;Node6 -->
<g id="edge25" class="edge"><title>Node20&#45;&gt;Node6</title>
<path fill="none" stroke="midnightblue" d="M770.756,-103.427C788.074,-88.7071 816.523,-66.8426 845,-55 917.535,-24.8357 1010.47,-15.0804 1058.71,-11.9534"/>
<polygon fill="midnightblue" stroke="midnightblue" points="768.013,-101.175 762.772,-110.383 772.611,-106.453 768.013,-101.175"/>
</g>
<!-- Node21 -->
<g id="node20" class="node"><title>Node21</title>
<g id="a_node20"><a xlink:href="ofx_oui_multi_slider_8cpp.html" target="_top" xlink:title="ofxOuiMultiSlider.cpp">
<polygon fill="white" stroke="black" points="688.032,-55.5 688.032,-73.5 797.968,-73.5 797.968,-55.5 688.032,-55.5"/>
<text text-anchor="middle" x="743" y="-61.5" font-family="Helvetica,sans-Serif" font-size="10.00">ofxOuiMultiSlider.cpp</text>
</a>
</g>
</g>
<!-- Node20&#45;&gt;Node21 -->
<g id="edge26" class="edge"><title>Node20&#45;&gt;Node21</title>
<path fill="none" stroke="midnightblue" d="M750.197,-100.175C748.312,-91.0945 746.133,-80.5949 744.671,-73.5496"/>
<polygon fill="midnightblue" stroke="midnightblue" points="746.822,-101.139 752.281,-110.219 753.676,-99.7161 746.822,-101.139"/>
</g>
<!-- Node22&#45;&gt;Node6 -->
<g id="edge28" class="edge"><title>Node22&#45;&gt;Node6</title>
<path fill="none" stroke="midnightblue" d="M1036.9,-105.168C1049.06,-97.5131 1062.98,-86.8603 1072,-74 1084.16,-56.6659 1088.65,-31.4454 1090.22,-18.63"/>
<polygon fill="midnightblue" stroke="midnightblue" points="1034.87,-102.308 1028.06,-110.425 1038.44,-108.325 1034.87,-102.308"/>
</g>
<!-- Node23 -->
<g id="node22" class="node"><title>Node23</title>
<g id="a_node22"><a xlink:href="ofx_oui_slider_8hpp.html" target="_top" xlink:title="ofxOuiSlider.hpp">
<polygon fill="white" stroke="black" points="854.308,-55.5 854.308,-73.5 943.692,-73.5 943.692,-55.5 854.308,-55.5"/>
<text text-anchor="middle" x="899" y="-61.5" font-family="Helvetica,sans-Serif" font-size="10.00">ofxOuiSlider.hpp</text>
</a>
</g>
</g>
<!-- Node22&#45;&gt;Node23 -->
<g id="edge29" class="edge"><title>Node22&#45;&gt;Node23</title>
<path fill="none" stroke="midnightblue" d="M985.665,-106.148C964.305,-96.1297 934.806,-82.2941 916.324,-73.6253"/>
<polygon fill="midnightblue" stroke="midnightblue" points="984.298,-109.373 994.838,-110.45 987.27,-103.035 984.298,-109.373"/>
</g>
<!-- Node25 -->
<g id="node24" class="node"><title>Node25</title>
<g id="a_node24"><a xlink:href="ofx_oui_numbox_8cpp.html" target="_top" xlink:title="ofxOuiNumbox.cpp">
<polygon fill="white" stroke="black" points="961.48,-55.5 961.48,-73.5 1062.52,-73.5 1062.52,-55.5 961.48,-55.5"/>
<text text-anchor="middle" x="1012" y="-61.5" font-family="Helvetica,sans-Serif" font-size="10.00">ofxOuiNumbox.cpp</text>
</a>
</g>
</g>
<!-- Node22&#45;&gt;Node25 -->
<g id="edge32" class="edge"><title>Node22&#45;&gt;Node25</title>
<path fill="none" stroke="midnightblue" d="M1012,-100.175C1012,-91.0945 1012,-80.5949 1012,-73.5496"/>
<polygon fill="midnightblue" stroke="midnightblue" points="1008.5,-100.219 1012,-110.219 1015.5,-100.219 1008.5,-100.219"/>
</g>
<!-- Node23&#45;&gt;Node6 -->
<g id="edge30" class="edge"><title>Node23&#45;&gt;Node6</title>
<path fill="none" stroke="midnightblue" d="M938.017,-52.7297C974.712,-42.6003 1028.82,-27.6655 1061.88,-18.5383"/>
<polygon fill="midnightblue" stroke="midnightblue" points="936.869,-49.4157 928.161,-55.4504 938.731,-56.1633 936.869,-49.4157"/>
</g>
<!-- Node24 -->
<g id="node23" class="node"><title>Node24</title>
<g id="a_node23"><a xlink:href="ofx_oui_slider_8cpp.html" target="_top" xlink:title="ofxOuiSlider.cpp">
<polygon fill="white" stroke="black" points="854.589,-0.5 854.589,-18.5 943.411,-18.5 943.411,-0.5 854.589,-0.5"/>
<text text-anchor="middle" x="899" y="-6.5" font-family="Helvetica,sans-Serif" font-size="10.00">ofxOuiSlider.cpp</text>
</a>
</g>
</g>
<!-- Node23&#45;&gt;Node24 -->
<g id="edge31" class="edge"><title>Node23&#45;&gt;Node24</title>
<path fill="none" stroke="midnightblue" d="M899,-45.1746C899,-36.0945 899,-25.5949 899,-18.5496"/>
<polygon fill="midnightblue" stroke="midnightblue" points="895.5,-45.2187 899,-55.2188 902.5,-45.2188 895.5,-45.2187"/>
</g>
<!-- Node26&#45;&gt;Node6 -->
<g id="edge34" class="edge"><title>Node26&#45;&gt;Node6</title>
<path fill="none" stroke="midnightblue" d="M1198.29,-105.704C1220.51,-93.4986 1246.06,-74.1802 1232,-55 1207.19,-21.1506 1156.56,-12.3869 1123.2,-10.473"/>
<polygon fill="midnightblue" stroke="midnightblue" points="1196.67,-102.604 1189.41,-110.325 1199.9,-108.814 1196.67,-102.604"/>
</g>
<!-- Node27 -->
<g id="node26" class="node"><title>Node27</title>
<g id="a_node26"><a xlink:href="ofx_oui_text_input_8cpp.html" target="_top" xlink:title="ofxOuiTextInput.cpp">
<polygon fill="white" stroke="black" points="1118.81,-55.5 1118.81,-73.5 1223.19,-73.5 1223.19,-55.5 1118.81,-55.5"/>
<text text-anchor="middle" x="1171" y="-61.5" font-family="Helvetica,sans-Serif" font-size="10.00">ofxOuiTextInput.cpp</text>
</a>
</g>
</g>
<!-- Node26&#45;&gt;Node27 -->
<g id="edge35" class="edge"><title>Node26&#45;&gt;Node27</title>
<path fill="none" stroke="midnightblue" d="M1171,-100.175C1171,-91.0945 1171,-80.5949 1171,-73.5496"/>
<polygon fill="midnightblue" stroke="midnightblue" points="1167.5,-100.219 1171,-110.219 1174.5,-100.219 1167.5,-100.219"/>
</g>
<!-- Node28&#45;&gt;Node6 -->
<g id="edge37" class="edge"><title>Node28&#45;&gt;Node6</title>
<path fill="none" stroke="midnightblue" d="M397.344,-101.042C390.926,-86.8262 385.573,-67.1833 397,-55 398.436,-53.4693 921.627,-20.9838 1058.53,-12.508"/>
<polygon fill="midnightblue" stroke="midnightblue" points="394.357,-102.892 401.981,-110.249 400.609,-99.7435 394.357,-102.892"/>
</g>
<!-- Node29 -->
<g id="node28" class="node"><title>Node29</title>
<g id="a_node28"><a xlink:href="ofx_oui_waveform_8cpp.html" target="_top" xlink:title="ofxOuiWaveform.cpp">
<polygon fill="white" stroke="black" points="241.501,-55.5 241.501,-73.5 350.499,-73.5 350.499,-55.5 241.501,-55.5"/>
<text text-anchor="middle" x="296" y="-61.5" font-family="Helvetica,sans-Serif" font-size="10.00">ofxOuiWaveform.cpp</text>
</a>
</g>
</g>
<!-- Node28&#45;&gt;Node29 -->
<g id="edge38" class="edge"><title>Node28&#45;&gt;Node29</title>
<path fill="none" stroke="midnightblue" d="M380.847,-106.013C359.888,-96.0052 331.091,-82.2551 313.017,-73.6253"/>
<polygon fill="midnightblue" stroke="midnightblue" points="379.609,-109.3 390.141,-110.45 382.625,-102.983 379.609,-109.3"/>
</g>
<!-- Node32&#45;&gt;Node4 -->
<g id="edge44" class="edge"><title>Node32&#45;&gt;Node4</title>
<path fill="none" stroke="midnightblue" d="M980.445,-217.859C941.831,-207.728 884.572,-192.705 849.637,-183.538"/>
<polygon fill="midnightblue" stroke="midnightblue" points="979.76,-221.298 990.321,-220.45 981.536,-214.527 979.76,-221.298"/>
</g>
<!-- Node32&#45;&gt;Node6 -->
<g id="edge45" class="edge"><title>Node32&#45;&gt;Node6</title>
<path fill="none" stroke="midnightblue" d="M1074.71,-220.037C1128.33,-208.722 1209.16,-183.38 1255,-129 1271.19,-109.796 1265.09,-98.949 1268,-74 1268.98,-65.6124 1273.19,-61.6594 1268,-55 1250.42,-32.4487 1169.64,-19.5757 1123.52,-13.9442"/>
<polygon fill="midnightblue" stroke="midnightblue" points="1073.82,-216.648 1064.7,-222.054 1075.2,-223.51 1073.82,-216.648"/>
</g>
<!-- Node33 -->
<g id="node32" class="node"><title>Node33</title>
<g id="a_node32"><a xlink:href="ofx_oui_style_8cpp.html" target="_top" xlink:title="ofxOuiStyle.cpp">
<polygon fill="white" stroke="black" points="1250.98,-165.5 1250.98,-183.5 1337.02,-183.5 1337.02,-165.5 1250.98,-165.5"/>
<text text-anchor="middle" x="1294" y="-171.5" font-family="Helvetica,sans-Serif" font-size="10.00">ofxOuiStyle.cpp</text>
</a>
</g>
</g>
<!-- Node32&#45;&gt;Node33 -->
<g id="edge46" class="edge"><title>Node32&#45;&gt;Node33</title>
<path fill="none" stroke="midnightblue" d="M1072.51,-218.499C1124.69,-208.37 1204.38,-192.9 1252.6,-183.538"/>
<polygon fill="midnightblue" stroke="midnightblue" points="1071.61,-215.109 1062.46,-220.45 1072.95,-221.98 1071.61,-215.109"/>
</g>
<!-- Node34&#45;&gt;Node4 -->
<g id="edge48" class="edge"><title>Node34&#45;&gt;Node4</title>
<path fill="none" stroke="midnightblue" d="M390.016,-221.995C484.621,-211.741 667.255,-191.947 760.751,-181.813"/>
<polygon fill="midnightblue" stroke="midnightblue" points="389.598,-218.52 380.034,-223.077 390.352,-225.479 389.598,-218.52"/>
</g>
<!-- Node34&#45;&gt;Node6 -->
<g id="edge54" class="edge"><title>Node34&#45;&gt;Node6</title>
<path fill="none" stroke="midnightblue" d="M270.148,-219.863C248.801,-213.579 226.875,-202.728 214,-184 194.536,-155.686 108.5,-165.878 217,-55 245.593,-25.7803 911.18,-21.2477 952,-19 988.573,-16.9862 1030.54,-14.379 1058.71,-12.5861"/>
<polygon fill="midnightblue" stroke="midnightblue" points="269.317,-223.264 279.88,-222.441 271.11,-216.497 269.317,-223.264"/>
</g>
<!-- Node35 -->
<g id="node34" class="node"><title>Node35</title>
<g id="a_node34"><a xlink:href="ofx_oui_graph_8hpp.html" target="_top" xlink:title="ofxOuiGraph.hpp">
<polygon fill="white" stroke="black" points="340.921,-165.5 340.921,-183.5 433.079,-183.5 433.079,-165.5 340.921,-165.5"/>
<text text-anchor="middle" x="387" y="-171.5" font-family="Helvetica,sans-Serif" font-size="10.00">ofxOuiGraph.hpp</text>
</a>
</g>
</g>
<!-- Node34&#45;&gt;Node35 -->
<g id="edge49" class="edge"><title>Node34&#45;&gt;Node35</title>
<path fill="none" stroke="midnightblue" d="M346.243,-213.397C356.69,-203.683 369.85,-191.447 378.343,-183.55"/>
<polygon fill="midnightblue" stroke="midnightblue" points="343.846,-210.846 338.906,-220.219 348.613,-215.972 343.846,-210.846"/>
</g>
<!-- Node37 -->
<g id="node36" class="node"><title>Node37</title>
<g id="a_node36"><a xlink:href="ofx_oui_text_box_8cpp.html" target="_top" xlink:title="ofxOuiTextBox.cpp">
<polygon fill="white" stroke="black" points="223.313,-165.5 223.313,-183.5 322.687,-183.5 322.687,-165.5 223.313,-165.5"/>
<text text-anchor="middle" x="273" y="-171.5" font-family="Helvetica,sans-Serif" font-size="10.00">ofxOuiTextBox.cpp</text>
</a>
</g>
</g>
<!-- Node34&#45;&gt;Node37 -->
<g id="edge55" class="edge"><title>Node34&#45;&gt;Node37</title>
<path fill="none" stroke="midnightblue" d="M313.757,-213.397C303.31,-203.683 290.15,-191.447 281.657,-183.55"/>
<polygon fill="midnightblue" stroke="midnightblue" points="311.387,-215.972 321.094,-220.219 316.154,-210.846 311.387,-215.972"/>
</g>
<!-- Node35&#45;&gt;Node5 -->
<g id="edge50" class="edge"><title>Node35&#45;&gt;Node5</title>
<path fill="none" stroke="midnightblue" d="M416.424,-161.686C441.469,-151.63 476.784,-137.45 498.763,-128.625"/>
<polygon fill="midnightblue" stroke="midnightblue" points="415.024,-158.476 407.048,-165.45 417.632,-164.972 415.024,-158.476"/>
</g>
<!-- Node35&#45;&gt;Node6 -->
<g id="edge52" class="edge"><title>Node35&#45;&gt;Node6</title>
<path fill="none" stroke="midnightblue" d="M330.629,-164.471C291.742,-156.959 244.976,-144.926 233,-129 213.234,-102.714 210.333,-78.8303 233,-55 260.564,-26.0211 912.067,-21.2206 952,-19 988.572,-16.9663 1030.54,-14.3628 1058.71,-12.5761"/>
<polygon fill="midnightblue" stroke="midnightblue" points="330.362,-167.982 340.835,-166.376 331.647,-161.101 330.362,-167.982"/>
</g>
<!-- Node35&#45;&gt;Node28 -->
<g id="edge51" class="edge"><title>Node35&#45;&gt;Node28</title>
<path fill="none" stroke="midnightblue" d="M393.69,-155.771C397.167,-146.558 401.245,-135.75 403.962,-128.55"/>
<polygon fill="midnightblue" stroke="midnightblue" points="390.381,-154.627 390.125,-165.219 396.93,-157.098 390.381,-154.627"/>
</g>
<!-- Node36 -->
<g id="node35" class="node"><title>Node36</title>
<g id="a_node35"><a xlink:href="ofx_oui_graph_8cpp.html" target="_top" xlink:title="ofxOuiGraph.cpp">
<polygon fill="white" stroke="black" points="242.202,-110.5 242.202,-128.5 333.798,-128.5 333.798,-110.5 242.202,-110.5"/>
<text text-anchor="middle" x="288" y="-116.5" font-family="Helvetica,sans-Serif" font-size="10.00">ofxOuiGraph.cpp</text>
</a>
</g>
</g>
<!-- Node35&#45;&gt;Node36 -->
<g id="edge53" class="edge"><title>Node35&#45;&gt;Node36</title>
<path fill="none" stroke="midnightblue" d="M362.909,-160.603C344.286,-150.633 319.078,-137.138 303.177,-128.625"/>
<polygon fill="midnightblue" stroke="midnightblue" points="361.496,-163.816 371.964,-165.45 364.8,-157.645 361.496,-163.816"/>
</g>
<!-- Node38&#45;&gt;Node6 -->
<g id="edge57" class="edge"><title>Node38&#45;&gt;Node6</title>
<path fill="none" stroke="midnightblue" d="M1362.23,-210.202C1355.72,-174.09 1335.89,-93.8011 1284,-55 1236.22,-19.2721 1164.56,-11.5323 1123.33,-10.2544"/>
<polygon fill="midnightblue" stroke="midnightblue" points="1358.81,-210.973 1363.9,-220.266 1365.71,-209.828 1358.81,-210.973"/>
</g>
<!-- Node39 -->
<g id="node38" class="node"><title>Node39</title>
<g id="a_node38"><a xlink:href="ofx_oui_shape_editor_8cpp.html" target="_top" xlink:title="ofxOuiShapeEditor.cpp">
<polygon fill="white" stroke="black" points="1392.85,-165.5 1392.85,-183.5 1511.15,-183.5 1511.15,-165.5 1392.85,-165.5"/>
<text text-anchor="middle" x="1452" y="-171.5" font-family="Helvetica,sans-Serif" font-size="10.00">ofxOuiShapeEditor.cpp</text>
</a>
</g>
</g>
<!-- Node38&#45;&gt;Node39 -->
<g id="edge58" class="edge"><title>Node38&#45;&gt;Node39</title>
<path fill="none" stroke="midnightblue" d="M1387.08,-215.051C1403.35,-205.139 1424.95,-191.982 1438.66,-183.625"/>
<polygon fill="midnightblue" stroke="midnightblue" points="1384.93,-212.259 1378.21,-220.45 1388.57,-218.237 1384.93,-212.259"/>
</g>
</g>
</svg>
