<?xml version="1.0" encoding="UTF-8" standalone="no"?>
<!DOCTYPE svg PUBLIC "-//W3C//DTD SVG 1.1//EN"
 "http://www.w3.org/Graphics/SVG/1.1/DTD/svg11.dtd">
<!-- Generated by graphviz version 2.38.0 (20140413.2041)
 -->
<!-- Title: ofxCuiCuiDropDown.hpp Pages: 1 -->
<svg width="230pt" height="82pt"
 viewBox="0.00 0.00 230.15 82.00" xmlns="http://www.w3.org/2000/svg" xmlns:xlink="http://www.w3.org/1999/xlink">
<g id="graph0" class="graph" transform="scale(1 1) rotate(0) translate(4 78)">
<title>ofxCuiCuiDropDown.hpp</title>
<polygon fill="white" stroke="none" points="-4,4 -4,-78 226.152,-78 226.152,4 -4,4"/>
<!-- Node1 -->
<g id="node1" class="node"><title>Node1</title>
<polygon fill="#bfbfbf" stroke="black" points="36.3794,-55.5 36.3794,-73.5 162.433,-73.5 162.433,-55.5 36.3794,-55.5"/>
<text text-anchor="middle" x="99.4062" y="-61.5" font-family="Helvetica,sans-Serif" font-size="10.00">ofxCuiCuiDropDown.hpp</text>
</g>
<!-- Node2 -->
<g id="node2" class="node"><title>Node2</title>
<g id="a_node2"><a xlink:href="ofx_cui_cui_8hpp.html" target="_top" xlink:title="ofxCuiCui.hpp">
<polygon fill="white" stroke="black" points="0,-0.5 0,-18.5 78.8125,-18.5 78.8125,-0.5 0,-0.5"/>
<text text-anchor="middle" x="39.4062" y="-6.5" font-family="Helvetica,sans-Serif" font-size="10.00">ofxCuiCui.hpp</text>
</a>
</g>
</g>
<!-- Node1&#45;&gt;Node2 -->
<g id="edge1" class="edge"><title>Node1&#45;&gt;Node2</title>
<path fill="none" stroke="midnightblue" d="M82.5845,-48.6408C71.5799,-38.9201 57.6228,-26.5913 48.6047,-18.6253"/>
<polygon fill="midnightblue" stroke="midnightblue" points="80.4817,-51.4532 90.2935,-55.4504 85.1159,-46.2069 80.4817,-51.4532"/>
</g>
<!-- Node3 -->
<g id="node3" class="node"><title>Node3</title>
<g id="a_node3"><a xlink:href="ofx_cui_cui_drop_down_8cpp.html" target="_top" xlink:title="ofxCuiCuiDropDown.cpp">
<polygon fill="white" stroke="black" points="96.6602,-0.5 96.6602,-18.5 222.152,-18.5 222.152,-0.5 96.6602,-0.5"/>
<text text-anchor="middle" x="159.406" y="-6.5" font-family="Helvetica,sans-Serif" font-size="10.00">ofxCuiCuiDropDown.cpp</text>
</a>
</g>
</g>
<!-- Node1&#45;&gt;Node3 -->
<g id="edge2" class="edge"><title>Node1&#45;&gt;Node3</title>
<path fill="none" stroke="midnightblue" d="M116.228,-48.6408C127.233,-38.9201 141.19,-26.5913 150.208,-18.6253"/>
<polygon fill="midnightblue" stroke="midnightblue" points="113.697,-46.2069 108.519,-55.4504 118.331,-51.4532 113.697,-46.2069"/>
</g>
</g>
</svg>
