<?xml version="1.0" encoding="UTF-8" standalone="no"?>
<!DOCTYPE svg PUBLIC "-//W3C//DTD SVG 1.1//EN"
 "http://www.w3.org/Graphics/SVG/1.1/DTD/svg11.dtd">
<!-- Generated by graphviz version 2.38.0 (20140413.2041)
 -->
<!-- Title: ofxCuiCuiShapeEditor.hpp Pages: 1 -->
<svg width="158pt" height="137pt"
 viewBox="0.00 0.00 157.95 137.00" xmlns="http://www.w3.org/2000/svg" xmlns:xlink="http://www.w3.org/1999/xlink">
<g id="graph0" class="graph" transform="scale(1 1) rotate(0) translate(4 133)">
<title>ofxCuiCuiShapeEditor.hpp</title>
<polygon fill="white" stroke="none" points="-4,4 -4,-133 153.945,-133 153.945,4 -4,4"/>
<!-- Node1 -->
<g id="node1" class="node"><title>Node1</title>
<polygon fill="#bfbfbf" stroke="black" points="8.32031,-110.5 8.32031,-128.5 141.625,-128.5 141.625,-110.5 8.32031,-110.5"/>
<text text-anchor="middle" x="74.9727" y="-116.5" font-family="Helvetica,sans-Serif" font-size="10.00">ofxCuiCuiShapeEditor.hpp</text>
</g>
<!-- Node2 -->
<g id="node2" class="node"><title>Node2</title>
<g id="a_node2"><a xlink:href="ofx_cui_cui_common_8hpp.html" target="_top" xlink:title="../core/ofxCuiCuiCommon.hpp">
<polygon fill="white" stroke="black" points="0,-55.5 0,-73.5 149.945,-73.5 149.945,-55.5 0,-55.5"/>
<text text-anchor="middle" x="74.9727" y="-61.5" font-family="Helvetica,sans-Serif" font-size="10.00">../core/ofxCuiCuiCommon.hpp</text>
</a>
</g>
</g>
<!-- Node1&#45;&gt;Node2 -->
<g id="edge1" class="edge"><title>Node1&#45;&gt;Node2</title>
<path fill="none" stroke="midnightblue" d="M74.9727,-110.219C74.9727,-103.177 74.9727,-92.8083 74.9727,-83.8277"/>
<polygon fill="midnightblue" stroke="midnightblue" points="78.4728,-83.5495 74.9727,-73.5496 71.4728,-83.5496 78.4728,-83.5495"/>
</g>
<!-- Node3 -->
<g id="node3" class="node"><title>Node3</title>
<polygon fill="white" stroke="#bfbfbf" points="47.7954,-0.5 47.7954,-18.5 102.15,-18.5 102.15,-0.5 47.7954,-0.5"/>
<text text-anchor="middle" x="74.9727" y="-6.5" font-family="Helvetica,sans-Serif" font-size="10.00">ofMain.h</text>
</g>
<!-- Node2&#45;&gt;Node3 -->
<g id="edge2" class="edge"><title>Node2&#45;&gt;Node3</title>
<path fill="none" stroke="midnightblue" d="M74.9727,-55.2188C74.9727,-48.1769 74.9727,-37.8083 74.9727,-28.8277"/>
<polygon fill="midnightblue" stroke="midnightblue" points="78.4728,-28.5495 74.9727,-18.5496 71.4728,-28.5496 78.4728,-28.5495"/>
</g>
</g>
</svg>
