<?xml version="1.0" encoding="UTF-8" standalone="no"?>
<!DOCTYPE svg PUBLIC "-//W3C//DTD SVG 1.1//EN"
 "http://www.w3.org/Graphics/SVG/1.1/DTD/svg11.dtd">
<!-- Generated by graphviz version 2.38.0 (20140413.2041)
 -->
<!-- Title: ofxOuiComponent.hpp Pages: 1 -->
<svg width="1740pt" height="192pt"
 viewBox="0.00 0.00 1740.29 192.00" xmlns="http://www.w3.org/2000/svg" xmlns:xlink="http://www.w3.org/1999/xlink">
<g id="graph0" class="graph" transform="scale(1 1) rotate(0) translate(4 188)">
<title>ofxOuiComponent.hpp</title>
<polygon fill="white" stroke="none" points="-4,4 -4,-188 1736.29,-188 1736.29,4 -4,4"/>
<!-- Node6 -->
<g id="node1" class="node"><title>Node6</title>
<polygon fill="#bfbfbf" stroke="black" points="1159.76,-165.5 1159.76,-183.5 1275.82,-183.5 1275.82,-165.5 1159.76,-165.5"/>
<text text-anchor="middle" x="1217.79" y="-171.5" font-family="Helvetica,sans-Serif" font-size="10.00">ofxOuiComponent.hpp</text>
</g>
<!-- Node7 -->
<g id="node2" class="node"><title>Node7</title>
<g id="a_node2"><a xlink:href="ofx_oui_bpf_8hpp.html" target="_top" xlink:title="ofxOuiBpf.hpp">
<polygon fill="white" stroke="black" points="711.106,-110.5 711.106,-128.5 790.48,-128.5 790.48,-110.5 711.106,-110.5"/>
<text text-anchor="middle" x="750.793" y="-116.5" font-family="Helvetica,sans-Serif" font-size="10.00">ofxOuiBpf.hpp</text>
</a>
</g>
</g>
<!-- Node6&#45;&gt;Node7 -->
<g id="edge1" class="edge"><title>Node6&#45;&gt;Node7</title>
<path fill="none" stroke="midnightblue" d="M1149.39,-165.737C1050.38,-154.501 870.284,-134.061 790.574,-125.015"/>
<polygon fill="midnightblue" stroke="midnightblue" points="1149.26,-169.245 1159.59,-166.895 1150.05,-162.289 1149.26,-169.245"/>
</g>
<!-- Node8 -->
<g id="node3" class="node"><title>Node8</title>
<g id="a_node3"><a xlink:href="ofx_oui_8hpp.html" target="_top" xlink:title="ofxOui.hpp">
<polygon fill="white" stroke="black" points="785.611,-0.5 785.611,-18.5 849.975,-18.5 849.975,-0.5 785.611,-0.5"/>
<text text-anchor="middle" x="817.793" y="-6.5" font-family="Helvetica,sans-Serif" font-size="10.00">ofxOui.hpp</text>
</a>
</g>
</g>
<!-- Node6&#45;&gt;Node8 -->
<g id="edge37" class="edge"><title>Node6&#45;&gt;Node8</title>
<path fill="none" stroke="midnightblue" d="M1242.96,-160.119C1254.3,-152.621 1266.53,-142.12 1272.79,-129 1284.31,-104.87 1256.46,-58.5809 1251.79,-55 1220.05,-30.6607 945.164,-16.1886 850.031,-11.8727"/>
<polygon fill="midnightblue" stroke="midnightblue" points="1240.9,-157.28 1234.19,-165.482 1244.55,-163.252 1240.9,-157.28"/>
</g>
<!-- Node10 -->
<g id="node5" class="node"><title>Node10</title>
<g id="a_node5"><a xlink:href="ofx_oui_button_8hpp.html" target="_top" xlink:title="ofxOuiButton.hpp">
<polygon fill="white" stroke="black" points="405.155,-110.5 405.155,-128.5 498.431,-128.5 498.431,-110.5 405.155,-110.5"/>
<text text-anchor="middle" x="451.793" y="-116.5" font-family="Helvetica,sans-Serif" font-size="10.00">ofxOuiButton.hpp</text>
</a>
</g>
</g>
<!-- Node6&#45;&gt;Node10 -->
<g id="edge4" class="edge"><title>Node6&#45;&gt;Node10</title>
<path fill="none" stroke="midnightblue" d="M1149.38,-168.767C996.317,-158.176 629.427,-132.791 498.888,-123.759"/>
<polygon fill="midnightblue" stroke="midnightblue" points="1149.37,-172.274 1159.59,-169.473 1149.86,-165.291 1149.37,-172.274"/>
</g>
<!-- Node20 -->
<g id="node15" class="node"><title>Node20</title>
<g id="a_node15"><a xlink:href="ofx_oui_group_8hpp.html" target="_top" xlink:title="ofxOuiGroup.hpp">
<polygon fill="white" stroke="black" points="1171.71,-110.5 1171.71,-128.5 1263.87,-128.5 1263.87,-110.5 1171.71,-110.5"/>
<text text-anchor="middle" x="1217.79" y="-116.5" font-family="Helvetica,sans-Serif" font-size="10.00">ofxOuiGroup.hpp</text>
</a>
</g>
</g>
<!-- Node6&#45;&gt;Node20 -->
<g id="edge19" class="edge"><title>Node6&#45;&gt;Node20</title>
<path fill="none" stroke="midnightblue" d="M1217.79,-155.175C1217.79,-146.094 1217.79,-135.595 1217.79,-128.55"/>
<polygon fill="midnightblue" stroke="midnightblue" points="1214.29,-155.219 1217.79,-165.219 1221.29,-155.219 1214.29,-155.219"/>
</g>
<!-- Node22 -->
<g id="node17" class="node"><title>Node22</title>
<g id="a_node17"><a xlink:href="ofx_oui_multi_slider_8hpp.html" target="_top" xlink:title="ofxOuiMultiSlider.hpp">
<polygon fill="white" stroke="black" points="1043.54,-110.5 1043.54,-128.5 1154.04,-128.5 1154.04,-110.5 1043.54,-110.5"/>
<text text-anchor="middle" x="1098.79" y="-116.5" font-family="Helvetica,sans-Serif" font-size="10.00">ofxOuiMultiSlider.hpp</text>
</a>
</g>
</g>
<!-- Node6&#45;&gt;Node22 -->
<g id="edge22" class="edge"><title>Node6&#45;&gt;Node22</title>
<path fill="none" stroke="midnightblue" d="M1190.36,-161.283C1167.85,-151.254 1136.59,-137.333 1117.04,-128.625"/>
<polygon fill="midnightblue" stroke="midnightblue" points="1189.16,-164.579 1199.72,-165.45 1192.01,-158.185 1189.16,-164.579"/>
</g>
<!-- Node24 -->
<g id="node19" class="node"><title>Node24</title>
<g id="a_node19"><a xlink:href="ofx_oui_numbox_8hpp.html" target="_top" xlink:title="ofxOuiNumbox.hpp">
<polygon fill="white" stroke="black" points="1319.99,-110.5 1319.99,-128.5 1421.59,-128.5 1421.59,-110.5 1319.99,-110.5"/>
<text text-anchor="middle" x="1370.79" y="-116.5" font-family="Helvetica,sans-Serif" font-size="10.00">ofxOuiNumbox.hpp</text>
</a>
</g>
</g>
<!-- Node6&#45;&gt;Node24 -->
<g id="edge25" class="edge"><title>Node6&#45;&gt;Node24</title>
<path fill="none" stroke="midnightblue" d="M1250.75,-162.084C1279.84,-152.007 1321.52,-137.567 1347.34,-128.625"/>
<polygon fill="midnightblue" stroke="midnightblue" points="1249.33,-158.87 1241.03,-165.45 1251.63,-165.484 1249.33,-158.87"/>
</g>
<!-- Node28 -->
<g id="node23" class="node"><title>Node28</title>
<g id="a_node23"><a xlink:href="ofx_oui_text_input_8hpp.html" target="_top" xlink:title="ofxOuiTextInput.hpp">
<polygon fill="white" stroke="black" points="845.32,-110.5 845.32,-128.5 950.266,-128.5 950.266,-110.5 845.32,-110.5"/>
<text text-anchor="middle" x="897.793" y="-116.5" font-family="Helvetica,sans-Serif" font-size="10.00">ofxOuiTextInput.hpp</text>
</a>
</g>
</g>
<!-- Node6&#45;&gt;Node28 -->
<g id="edge31" class="edge"><title>Node6&#45;&gt;Node28</title>
<path fill="none" stroke="midnightblue" d="M1159.31,-163.814C1098.2,-153.693 1003.44,-137.997 946.326,-128.538"/>
<polygon fill="midnightblue" stroke="midnightblue" points="1158.75,-167.269 1169.19,-165.45 1159.9,-160.363 1158.75,-167.269"/>
</g>
<!-- Node30 -->
<g id="node25" class="node"><title>Node30</title>
<g id="a_node25"><a xlink:href="ofx_oui_waveform_8hpp.html" target="_top" xlink:title="ofxOuiWaveform.hpp">
<polygon fill="white" stroke="black" points="1440.01,-110.5 1440.01,-128.5 1549.57,-128.5 1549.57,-110.5 1440.01,-110.5"/>
<text text-anchor="middle" x="1494.79" y="-116.5" font-family="Helvetica,sans-Serif" font-size="10.00">ofxOuiWaveform.hpp</text>
</a>
</g>
</g>
<!-- Node6&#45;&gt;Node30 -->
<g id="edge34" class="edge"><title>Node6&#45;&gt;Node30</title>
<path fill="none" stroke="midnightblue" d="M1269.73,-163.562C1322.66,-153.434 1403.75,-137.919 1452.78,-128.538"/>
<polygon fill="midnightblue" stroke="midnightblue" points="1269.03,-160.133 1259.86,-165.45 1270.34,-167.009 1269.03,-160.133"/>
</g>
<!-- Node32 -->
<g id="node27" class="node"><title>Node32</title>
<g id="a_node27"><a xlink:href="ofx_oui_component_8cpp.html" target="_top" xlink:title="ofxOuiComponent.cpp">
<polygon fill="white" stroke="black" points="1568.04,-110.5 1568.04,-128.5 1683.54,-128.5 1683.54,-110.5 1568.04,-110.5"/>
<text text-anchor="middle" x="1625.79" y="-116.5" font-family="Helvetica,sans-Serif" font-size="10.00">ofxOuiComponent.cpp</text>
</a>
</g>
</g>
<!-- Node6&#45;&gt;Node32 -->
<g id="edge38" class="edge"><title>Node6&#45;&gt;Node32</title>
<path fill="none" stroke="midnightblue" d="M1286.58,-164.565C1365.53,-154.308 1493.65,-137.665 1567.77,-128.037"/>
<polygon fill="midnightblue" stroke="midnightblue" points="1285.72,-161.147 1276.25,-165.906 1286.62,-168.089 1285.72,-161.147"/>
</g>
<!-- Node7&#45;&gt;Node8 -->
<g id="edge2" class="edge"><title>Node7&#45;&gt;Node8</title>
<path fill="none" stroke="midnightblue" d="M728.512,-104.821C710.754,-92.142 690.709,-72.6337 702.793,-55 721.188,-28.1581 758.281,-17.503 785.383,-13.2756"/>
<polygon fill="midnightblue" stroke="midnightblue" points="726.644,-107.783 736.895,-110.459 730.55,-101.974 726.644,-107.783"/>
</g>
<!-- Node9 -->
<g id="node4" class="node"><title>Node9</title>
<g id="a_node4"><a xlink:href="ofx_oui_bpf_8cpp.html" target="_top" xlink:title="ofxOuiBpf.cpp">
<polygon fill="white" stroke="black" points="711.387,-55.5 711.387,-73.5 790.199,-73.5 790.199,-55.5 711.387,-55.5"/>
<text text-anchor="middle" x="750.793" y="-61.5" font-family="Helvetica,sans-Serif" font-size="10.00">ofxOuiBpf.cpp</text>
</a>
</g>
</g>
<!-- Node7&#45;&gt;Node9 -->
<g id="edge3" class="edge"><title>Node7&#45;&gt;Node9</title>
<path fill="none" stroke="midnightblue" d="M750.793,-100.175C750.793,-91.0945 750.793,-80.5949 750.793,-73.5496"/>
<polygon fill="midnightblue" stroke="midnightblue" points="747.293,-100.219 750.793,-110.219 754.293,-100.219 747.293,-100.219"/>
</g>
<!-- Node10&#45;&gt;Node8 -->
<g id="edge5" class="edge"><title>Node10&#45;&gt;Node8</title>
<path fill="none" stroke="midnightblue" d="M496.57,-108.054C532.071,-99.5461 582.846,-86.8748 626.793,-74 688.329,-55.9722 759.783,-31.1628 795.319,-18.5565"/>
<polygon fill="midnightblue" stroke="midnightblue" points="495.441,-104.725 486.525,-110.448 497.064,-111.534 495.441,-104.725"/>
</g>
<!-- Node11 -->
<g id="node6" class="node"><title>Node11</title>
<g id="a_node6"><a xlink:href="ofx_oui_check_box_8hpp.html" target="_top" xlink:title="ofxOuiCheckBox.hpp">
<polygon fill="white" stroke="black" points="109.823,-55.5 109.823,-73.5 219.763,-73.5 219.763,-55.5 109.823,-55.5"/>
<text text-anchor="middle" x="164.793" y="-61.5" font-family="Helvetica,sans-Serif" font-size="10.00">ofxOuiCheckBox.hpp</text>
</a>
</g>
</g>
<!-- Node10&#45;&gt;Node11 -->
<g id="edge6" class="edge"><title>Node10&#45;&gt;Node11</title>
<path fill="none" stroke="midnightblue" d="M398.322,-108.626C343.486,-98.499 259.225,-82.9386 208.321,-73.5383"/>
<polygon fill="midnightblue" stroke="midnightblue" points="397.734,-112.076 408.204,-110.45 399.006,-105.193 397.734,-112.076"/>
</g>
<!-- Node13 -->
<g id="node8" class="node"><title>Node13</title>
<g id="a_node8"><a xlink:href="ofx_oui_draggable_button_8hpp.html" target="_top" xlink:title="ofxOuiDraggableButton.hpp">
<polygon fill="white" stroke="black" points="238.084,-55.5 238.084,-73.5 377.502,-73.5 377.502,-55.5 238.084,-55.5"/>
<text text-anchor="middle" x="307.793" y="-61.5" font-family="Helvetica,sans-Serif" font-size="10.00">ofxOuiDraggableButton.hpp</text>
</a>
</g>
</g>
<!-- Node10&#45;&gt;Node13 -->
<g id="edge9" class="edge"><title>Node10&#45;&gt;Node13</title>
<path fill="none" stroke="midnightblue" d="M420.417,-106.952C393.056,-96.8814 354.059,-82.5284 329.869,-73.6253"/>
<polygon fill="midnightblue" stroke="midnightblue" points="419.329,-110.281 429.922,-110.45 421.747,-103.712 419.329,-110.281"/>
</g>
<!-- Node15 -->
<g id="node10" class="node"><title>Node15</title>
<g id="a_node10"><a xlink:href="ofx_oui_drop_down_8hpp.html" target="_top" xlink:title="ofxOuiDropDown.hpp">
<polygon fill="white" stroke="black" points="395.99,-55.5 395.99,-73.5 507.596,-73.5 507.596,-55.5 395.99,-55.5"/>
<text text-anchor="middle" x="451.793" y="-61.5" font-family="Helvetica,sans-Serif" font-size="10.00">ofxOuiDropDown.hpp</text>
</a>
</g>
</g>
<!-- Node10&#45;&gt;Node15 -->
<g id="edge12" class="edge"><title>Node10&#45;&gt;Node15</title>
<path fill="none" stroke="midnightblue" d="M451.793,-100.175C451.793,-91.0945 451.793,-80.5949 451.793,-73.5496"/>
<polygon fill="midnightblue" stroke="midnightblue" points="448.293,-100.219 451.793,-110.219 455.293,-100.219 448.293,-100.219"/>
</g>
<!-- Node17 -->
<g id="node12" class="node"><title>Node17</title>
<g id="a_node12"><a xlink:href="ofx_oui_matrix_8hpp.html" target="_top" xlink:title="ofxOuiMatrix.hpp">
<polygon fill="white" stroke="black" points="0,-55.5 0,-73.5 91.5859,-73.5 91.5859,-55.5 0,-55.5"/>
<text text-anchor="middle" x="45.793" y="-61.5" font-family="Helvetica,sans-Serif" font-size="10.00">ofxOuiMatrix.hpp</text>
</a>
</g>
</g>
<!-- Node10&#45;&gt;Node17 -->
<g id="edge15" class="edge"><title>Node10&#45;&gt;Node17</title>
<path fill="none" stroke="midnightblue" d="M394.608,-111.735C325.083,-103.398 204.212,-88.5444 100.793,-74 97.8269,-73.5829 94.7728,-73.1421 91.6952,-72.6896"/>
<polygon fill="midnightblue" stroke="midnightblue" points="394.555,-115.253 404.9,-112.966 395.386,-108.303 394.555,-115.253"/>
</g>
<!-- Node19 -->
<g id="node14" class="node"><title>Node19</title>
<g id="a_node14"><a xlink:href="ofx_oui_button_8cpp.html" target="_top" xlink:title="ofxOuiButton.cpp">
<polygon fill="white" stroke="black" points="525.436,-55.5 525.436,-73.5 618.15,-73.5 618.15,-55.5 525.436,-55.5"/>
<text text-anchor="middle" x="571.793" y="-61.5" font-family="Helvetica,sans-Serif" font-size="10.00">ofxOuiButton.cpp</text>
</a>
</g>
</g>
<!-- Node10&#45;&gt;Node19 -->
<g id="edge18" class="edge"><title>Node10&#45;&gt;Node19</title>
<path fill="none" stroke="midnightblue" d="M479.453,-106.283C502.16,-96.2545 533.68,-82.3332 553.396,-73.6253"/>
<polygon fill="midnightblue" stroke="midnightblue" points="477.752,-103.209 470.018,-110.45 480.58,-109.612 477.752,-103.209"/>
</g>
<!-- Node11&#45;&gt;Node8 -->
<g id="edge7" class="edge"><title>Node11&#45;&gt;Node8</title>
<path fill="none" stroke="midnightblue" d="M229.976,-54.9351C448.4,-32.473 697.913,-17.3018 785.492,-12.2957"/>
<polygon fill="midnightblue" stroke="midnightblue" points="229.514,-51.4641 219.927,-55.9759 230.235,-58.4269 229.514,-51.4641"/>
</g>
<!-- Node12 -->
<g id="node7" class="node"><title>Node12</title>
<g id="a_node7"><a xlink:href="ofx_oui_check_box_8cpp.html" target="_top" xlink:title="ofxOuiCheckBox.cpp">
<polygon fill="white" stroke="black" points="110.104,-0.5 110.104,-18.5 219.482,-18.5 219.482,-0.5 110.104,-0.5"/>
<text text-anchor="middle" x="164.793" y="-6.5" font-family="Helvetica,sans-Serif" font-size="10.00">ofxOuiCheckBox.cpp</text>
</a>
</g>
</g>
<!-- Node11&#45;&gt;Node12 -->
<g id="edge8" class="edge"><title>Node11&#45;&gt;Node12</title>
<path fill="none" stroke="midnightblue" d="M164.793,-45.1746C164.793,-36.0945 164.793,-25.5949 164.793,-18.5496"/>
<polygon fill="midnightblue" stroke="midnightblue" points="161.293,-45.2187 164.793,-55.2188 168.293,-45.2188 161.293,-45.2187"/>
</g>
<!-- Node13&#45;&gt;Node8 -->
<g id="edge10" class="edge"><title>Node13&#45;&gt;Node8</title>
<path fill="none" stroke="midnightblue" d="M387.793,-54.8987C543.258,-38.5295 715.068,-20.9642 785.348,-13.8018"/>
<polygon fill="midnightblue" stroke="midnightblue" points="387.156,-51.4463 377.578,-55.975 387.89,-58.4078 387.156,-51.4463"/>
</g>
<!-- Node14 -->
<g id="node9" class="node"><title>Node14</title>
<g id="a_node9"><a xlink:href="ofx_oui_draggable_button_8cpp.html" target="_top" xlink:title="ofxOuiDraggableButton.cpp">
<polygon fill="white" stroke="black" points="238.365,-0.5 238.365,-18.5 377.221,-18.5 377.221,-0.5 238.365,-0.5"/>
<text text-anchor="middle" x="307.793" y="-6.5" font-family="Helvetica,sans-Serif" font-size="10.00">ofxOuiDraggableButton.cpp</text>
</a>
</g>
</g>
<!-- Node13&#45;&gt;Node14 -->
<g id="edge11" class="edge"><title>Node13&#45;&gt;Node14</title>
<path fill="none" stroke="midnightblue" d="M307.793,-45.1746C307.793,-36.0945 307.793,-25.5949 307.793,-18.5496"/>
<polygon fill="midnightblue" stroke="midnightblue" points="304.293,-45.2187 307.793,-55.2188 311.293,-45.2188 304.293,-45.2187"/>
</g>
<!-- Node15&#45;&gt;Node8 -->
<g id="edge13" class="edge"><title>Node15&#45;&gt;Node8</title>
<path fill="none" stroke="midnightblue" d="M517.68,-53.959C596.47,-42.5496 725.206,-23.9073 785.16,-15.2256"/>
<polygon fill="midnightblue" stroke="midnightblue" points="516.776,-50.5533 507.38,-55.4504 517.779,-57.4811 516.776,-50.5533"/>
</g>
<!-- Node16 -->
<g id="node11" class="node"><title>Node16</title>
<g id="a_node11"><a xlink:href="ofx_oui_drop_down_8cpp.html" target="_top" xlink:title="ofxOuiDropDown.cpp">
<polygon fill="white" stroke="black" points="396.271,-0.5 396.271,-18.5 507.315,-18.5 507.315,-0.5 396.271,-0.5"/>
<text text-anchor="middle" x="451.793" y="-6.5" font-family="Helvetica,sans-Serif" font-size="10.00">ofxOuiDropDown.cpp</text>
</a>
</g>
</g>
<!-- Node15&#45;&gt;Node16 -->
<g id="edge14" class="edge"><title>Node15&#45;&gt;Node16</title>
<path fill="none" stroke="midnightblue" d="M451.793,-45.1746C451.793,-36.0945 451.793,-25.5949 451.793,-18.5496"/>
<polygon fill="midnightblue" stroke="midnightblue" points="448.293,-45.2187 451.793,-55.2188 455.293,-45.2188 448.293,-45.2187"/>
</g>
<!-- Node17&#45;&gt;Node8 -->
<g id="edge16" class="edge"><title>Node17&#45;&gt;Node8</title>
<path fill="none" stroke="midnightblue" d="M101.672,-55.0147C372.068,-26.2343 685.609,-14.6212 785.546,-11.4512"/>
<polygon fill="midnightblue" stroke="midnightblue" points="101.237,-51.5412 91.6678,-56.0896 101.984,-58.5012 101.237,-51.5412"/>
</g>
<!-- Node18 -->
<g id="node13" class="node"><title>Node18</title>
<g id="a_node13"><a xlink:href="ofx_oui_matrix_8cpp.html" target="_top" xlink:title="ofxOuiMatrix.cpp">
<polygon fill="white" stroke="black" points="0.280762,-0.5 0.280762,-18.5 91.3052,-18.5 91.3052,-0.5 0.280762,-0.5"/>
<text text-anchor="middle" x="45.793" y="-6.5" font-family="Helvetica,sans-Serif" font-size="10.00">ofxOuiMatrix.cpp</text>
</a>
</g>
</g>
<!-- Node17&#45;&gt;Node18 -->
<g id="edge17" class="edge"><title>Node17&#45;&gt;Node18</title>
<path fill="none" stroke="midnightblue" d="M45.793,-45.1746C45.793,-36.0945 45.793,-25.5949 45.793,-18.5496"/>
<polygon fill="midnightblue" stroke="midnightblue" points="42.2931,-45.2187 45.793,-55.2188 49.2931,-45.2188 42.2931,-45.2187"/>
</g>
<!-- Node20&#45;&gt;Node8 -->
<g id="edge20" class="edge"><title>Node20&#45;&gt;Node8</title>
<path fill="none" stroke="midnightblue" d="M1229.82,-101.718C1238.32,-87.6383 1246.32,-67.8264 1234.79,-55 1209.18,-26.5063 943.745,-14.784 850.201,-11.5172"/>
<polygon fill="midnightblue" stroke="midnightblue" points="1226.68,-100.12 1224.09,-110.394 1232.52,-103.976 1226.68,-100.12"/>
</g>
<!-- Node21 -->
<g id="node16" class="node"><title>Node21</title>
<g id="a_node16"><a xlink:href="ofx_oui_group_8cpp.html" target="_top" xlink:title="ofxOuiGroup.cpp">
<polygon fill="white" stroke="black" points="1134,-55.5 1134,-73.5 1225.59,-73.5 1225.59,-55.5 1134,-55.5"/>
<text text-anchor="middle" x="1179.79" y="-61.5" font-family="Helvetica,sans-Serif" font-size="10.00">ofxOuiGroup.cpp</text>
</a>
</g>
</g>
<!-- Node20&#45;&gt;Node21 -->
<g id="edge21" class="edge"><title>Node20&#45;&gt;Node21</title>
<path fill="none" stroke="midnightblue" d="M1205.93,-101.951C1199.15,-92.4941 1190.95,-81.0595 1185.56,-73.5496"/>
<polygon fill="midnightblue" stroke="midnightblue" points="1203.18,-104.131 1211.86,-110.219 1208.87,-100.052 1203.18,-104.131"/>
</g>
<!-- Node22&#45;&gt;Node8 -->
<g id="edge23" class="edge"><title>Node22&#45;&gt;Node8</title>
<path fill="none" stroke="midnightblue" d="M1100.53,-99.9688C1100.79,-85.6933 1098.57,-66.5097 1086.79,-55 1053.7,-22.6571 914.273,-13.7607 850.219,-11.3622"/>
<polygon fill="midnightblue" stroke="midnightblue" points="1097.03,-99.9372 1099.94,-110.125 1104.02,-100.347 1097.03,-99.9372"/>
</g>
<!-- Node23 -->
<g id="node18" class="node"><title>Node23</title>
<g id="a_node18"><a xlink:href="ofx_oui_multi_slider_8cpp.html" target="_top" xlink:title="ofxOuiMultiSlider.cpp">
<polygon fill="white" stroke="black" points="967.825,-55.5 967.825,-73.5 1077.76,-73.5 1077.76,-55.5 967.825,-55.5"/>
<text text-anchor="middle" x="1022.79" y="-61.5" font-family="Helvetica,sans-Serif" font-size="10.00">ofxOuiMultiSlider.cpp</text>
</a>
</g>
</g>
<!-- Node22&#45;&gt;Node23 -->
<g id="edge24" class="edge"><title>Node22&#45;&gt;Node23</title>
<path fill="none" stroke="midnightblue" d="M1078.71,-104.492C1064.59,-94.6491 1046.2,-81.8255 1034.44,-73.6253"/>
<polygon fill="midnightblue" stroke="midnightblue" points="1077.05,-107.601 1087.25,-110.45 1081.05,-101.859 1077.05,-107.601"/>
</g>
<!-- Node24&#45;&gt;Node8 -->
<g id="edge26" class="edge"><title>Node24&#45;&gt;Node8</title>
<path fill="none" stroke="midnightblue" d="M1358.95,-101.631C1347.31,-86.5504 1328.09,-65.2909 1305.79,-55 1224.3,-17.3946 945.626,-11.5489 850.174,-10.6557"/>
<polygon fill="midnightblue" stroke="midnightblue" points="1356.42,-104.1 1365.17,-110.07 1362.05,-99.9445 1356.42,-104.1"/>
</g>
<!-- Node25 -->
<g id="node20" class="node"><title>Node25</title>
<g id="a_node20"><a xlink:href="ofx_oui_slider_8hpp.html" target="_top" xlink:title="ofxOuiSlider.hpp">
<polygon fill="white" stroke="black" points="1516.1,-55.5 1516.1,-73.5 1605.48,-73.5 1605.48,-55.5 1516.1,-55.5"/>
<text text-anchor="middle" x="1560.79" y="-61.5" font-family="Helvetica,sans-Serif" font-size="10.00">ofxOuiSlider.hpp</text>
</a>
</g>
</g>
<!-- Node24&#45;&gt;Node25 -->
<g id="edge27" class="edge"><title>Node24&#45;&gt;Node25</title>
<path fill="none" stroke="midnightblue" d="M1409.4,-107.73C1445.72,-97.6003 1499.26,-82.6655 1531.98,-73.5383"/>
<polygon fill="midnightblue" stroke="midnightblue" points="1408.34,-104.392 1399.65,-110.45 1410.22,-111.135 1408.34,-104.392"/>
</g>
<!-- Node27 -->
<g id="node22" class="node"><title>Node27</title>
<g id="a_node22"><a xlink:href="ofx_oui_numbox_8cpp.html" target="_top" xlink:title="ofxOuiNumbox.cpp">
<polygon fill="white" stroke="black" points="1358.27,-55.5 1358.27,-73.5 1459.31,-73.5 1459.31,-55.5 1358.27,-55.5"/>
<text text-anchor="middle" x="1408.79" y="-61.5" font-family="Helvetica,sans-Serif" font-size="10.00">ofxOuiNumbox.cpp</text>
</a>
</g>
</g>
<!-- Node24&#45;&gt;Node27 -->
<g id="edge30" class="edge"><title>Node24&#45;&gt;Node27</title>
<path fill="none" stroke="midnightblue" d="M1382.66,-101.951C1389.44,-92.4941 1397.64,-81.0595 1403.02,-73.5496"/>
<polygon fill="midnightblue" stroke="midnightblue" points="1379.71,-100.052 1376.73,-110.219 1385.4,-104.131 1379.71,-100.052"/>
</g>
<!-- Node25&#45;&gt;Node8 -->
<g id="edge28" class="edge"><title>Node25&#45;&gt;Node8</title>
<path fill="none" stroke="midnightblue" d="M1505.74,-55.4289C1504.41,-55.2793 1503.1,-55.136 1501.79,-55 1251.76,-28.8963 948.612,-15.5717 850.268,-11.711"/>
<polygon fill="midnightblue" stroke="midnightblue" points="1505.71,-58.9508 1516.06,-56.6811 1506.56,-52.0018 1505.71,-58.9508"/>
</g>
<!-- Node26 -->
<g id="node21" class="node"><title>Node26</title>
<g id="a_node21"><a xlink:href="ofx_oui_slider_8cpp.html" target="_top" xlink:title="ofxOuiSlider.cpp">
<polygon fill="white" stroke="black" points="1516.38,-0.5 1516.38,-18.5 1605.2,-18.5 1605.2,-0.5 1516.38,-0.5"/>
<text text-anchor="middle" x="1560.79" y="-6.5" font-family="Helvetica,sans-Serif" font-size="10.00">ofxOuiSlider.cpp</text>
</a>
</g>
</g>
<!-- Node25&#45;&gt;Node26 -->
<g id="edge29" class="edge"><title>Node25&#45;&gt;Node26</title>
<path fill="none" stroke="midnightblue" d="M1560.79,-45.1746C1560.79,-36.0945 1560.79,-25.5949 1560.79,-18.5496"/>
<polygon fill="midnightblue" stroke="midnightblue" points="1557.29,-45.2187 1560.79,-55.2188 1564.29,-45.2188 1557.29,-45.2187"/>
</g>
<!-- Node28&#45;&gt;Node8 -->
<g id="edge32" class="edge"><title>Node28&#45;&gt;Node8</title>
<path fill="none" stroke="midnightblue" d="M872.474,-105.254C860.11,-97.6212 845.962,-86.9629 836.793,-74 824.566,-56.714 820.1,-31.4724 818.555,-18.6414"/>
<polygon fill="midnightblue" stroke="midnightblue" points="871.064,-108.483 881.468,-110.489 874.586,-102.433 871.064,-108.483"/>
</g>
<!-- Node29 -->
<g id="node24" class="node"><title>Node29</title>
<g id="a_node24"><a xlink:href="ofx_oui_text_input_8cpp.html" target="_top" xlink:title="ofxOuiTextInput.cpp">
<polygon fill="white" stroke="black" points="845.601,-55.5 845.601,-73.5 949.985,-73.5 949.985,-55.5 845.601,-55.5"/>
<text text-anchor="middle" x="897.793" y="-61.5" font-family="Helvetica,sans-Serif" font-size="10.00">ofxOuiTextInput.cpp</text>
</a>
</g>
</g>
<!-- Node28&#45;&gt;Node29 -->
<g id="edge33" class="edge"><title>Node28&#45;&gt;Node29</title>
<path fill="none" stroke="midnightblue" d="M897.793,-100.175C897.793,-91.0945 897.793,-80.5949 897.793,-73.5496"/>
<polygon fill="midnightblue" stroke="midnightblue" points="894.293,-100.219 897.793,-110.219 901.293,-100.219 894.293,-100.219"/>
</g>
<!-- Node30&#45;&gt;Node8 -->
<g id="edge35" class="edge"><title>Node30&#45;&gt;Node8</title>
<path fill="none" stroke="midnightblue" d="M1492.55,-100.179C1489.7,-85.4116 1483.26,-65.445 1468.79,-55 1418.33,-18.5754 974.814,-11.8947 850.22,-10.7331"/>
<polygon fill="midnightblue" stroke="midnightblue" points="1489.12,-100.867 1494.11,-110.214 1496.04,-99.7956 1489.12,-100.867"/>
</g>
<!-- Node31 -->
<g id="node26" class="node"><title>Node31</title>
<g id="a_node26"><a xlink:href="ofx_oui_waveform_8cpp.html" target="_top" xlink:title="ofxOuiWaveform.cpp">
<polygon fill="white" stroke="black" points="1623.29,-55.5 1623.29,-73.5 1732.29,-73.5 1732.29,-55.5 1623.29,-55.5"/>
<text text-anchor="middle" x="1677.79" y="-61.5" font-family="Helvetica,sans-Serif" font-size="10.00">ofxOuiWaveform.cpp</text>
</a>
</g>
</g>
<!-- Node30&#45;&gt;Node31 -->
<g id="edge36" class="edge"><title>Node30&#45;&gt;Node31</title>
<path fill="none" stroke="midnightblue" d="M1532.43,-107.6C1567.4,-97.4728 1618.66,-82.6265 1650.04,-73.5383"/>
<polygon fill="midnightblue" stroke="midnightblue" points="1531.22,-104.307 1522.59,-110.45 1533.17,-111.03 1531.22,-104.307"/>
</g>
</g>
</svg>
