<?xml version="1.0" encoding="UTF-8" standalone="no"?>
<!DOCTYPE svg PUBLIC "-//W3C//DTD SVG 1.1//EN"
 "http://www.w3.org/Graphics/SVG/1.1/DTD/svg11.dtd">
<!-- Generated by graphviz version 2.38.0 (20140413.2041)
 -->
<!-- Title: ofxOuiShapeEditor.hpp Pages: 1 -->
<svg width="208pt" height="82pt"
 viewBox="0.00 0.00 208.33 82.00" xmlns="http://www.w3.org/2000/svg" xmlns:xlink="http://www.w3.org/1999/xlink">
<g id="graph0" class="graph" transform="scale(1 1) rotate(0) translate(4 78)">
<title>ofxOuiShapeEditor.hpp</title>
<polygon fill="white" stroke="none" points="-4,4 -4,-78 204.33,-78 204.33,4 -4,4"/>
<!-- Node3 -->
<g id="node1" class="node"><title>Node3</title>
<polygon fill="#bfbfbf" stroke="black" points="26.7539,-55.5 26.7539,-73.5 145.61,-73.5 145.61,-55.5 26.7539,-55.5"/>
<text text-anchor="middle" x="86.1821" y="-61.5" font-family="Helvetica,sans-Serif" font-size="10.00">ofxOuiShapeEditor.hpp</text>
</g>
<!-- Node4 -->
<g id="node2" class="node"><title>Node4</title>
<g id="a_node2"><a xlink:href="ofx_oui_8hpp.html" target="_top" xlink:title="ofxOui.hpp">
<polygon fill="white" stroke="black" points="0,-0.5 0,-18.5 64.3643,-18.5 64.3643,-0.5 0,-0.5"/>
<text text-anchor="middle" x="32.1821" y="-6.5" font-family="Helvetica,sans-Serif" font-size="10.00">ofxOui.hpp</text>
</a>
</g>
</g>
<!-- Node3&#45;&gt;Node4 -->
<g id="edge1" class="edge"><title>Node3&#45;&gt;Node4</title>
<path fill="none" stroke="midnightblue" d="M70.5019,-48.1101C60.6532,-38.4438 48.3507,-26.3692 40.3836,-18.5496"/>
<polygon fill="midnightblue" stroke="midnightblue" points="68.1561,-50.7119 77.7446,-55.2188 73.0594,-45.7161 68.1561,-50.7119"/>
</g>
<!-- Node5 -->
<g id="node3" class="node"><title>Node5</title>
<g id="a_node3"><a xlink:href="ofx_oui_shape_editor_8cpp.html" target="_top" xlink:title="ofxOuiShapeEditor.cpp">
<polygon fill="white" stroke="black" points="82.0347,-0.5 82.0347,-18.5 200.33,-18.5 200.33,-0.5 82.0347,-0.5"/>
<text text-anchor="middle" x="141.182" y="-6.5" font-family="Helvetica,sans-Serif" font-size="10.00">ofxOuiShapeEditor.cpp</text>
</a>
</g>
</g>
<!-- Node3&#45;&gt;Node5 -->
<g id="edge2" class="edge"><title>Node3&#45;&gt;Node5</title>
<path fill="none" stroke="midnightblue" d="M102.153,-48.1101C112.184,-38.4438 124.714,-26.3692 132.829,-18.5496"/>
<polygon fill="midnightblue" stroke="midnightblue" points="99.548,-45.7595 94.7759,-55.2188 104.405,-50.8001 99.548,-45.7595"/>
</g>
</g>
</svg>
