<?xml version="1.0" encoding="UTF-8" standalone="no"?>
<!DOCTYPE svg PUBLIC "-//W3C//DTD SVG 1.1//EN"
 "http://www.w3.org/Graphics/SVG/1.1/DTD/svg11.dtd">
<!-- Generated by graphviz version 2.38.0 (20140413.2041)
 -->
<!-- Title: ofxOuiButton.hpp Pages: 1 -->
<svg width="685pt" height="137pt"
 viewBox="0.00 0.00 685.05 137.00" xmlns="http://www.w3.org/2000/svg" xmlns:xlink="http://www.w3.org/1999/xlink">
<g id="graph0" class="graph" transform="scale(1 1) rotate(0) translate(4 133)">
<title>ofxOuiButton.hpp</title>
<polygon fill="white" stroke="none" points="-4,4 -4,-133 681.046,-133 681.046,4 -4,4"/>
<!-- Node7 -->
<g id="node1" class="node"><title>Node7</title>
<polygon fill="#bfbfbf" stroke="black" points="312.052,-110.5 312.052,-128.5 405.327,-128.5 405.327,-110.5 312.052,-110.5"/>
<text text-anchor="middle" x="358.689" y="-116.5" font-family="Helvetica,sans-Serif" font-size="10.00">ofxOuiButton.hpp</text>
</g>
<!-- Node8 -->
<g id="node2" class="node"><title>Node8</title>
<g id="a_node2"><a xlink:href="ofx_oui_8hpp.html" target="_top" xlink:title="ofxOui.hpp">
<polygon fill="white" stroke="black" points="284.507,-0.5 284.507,-18.5 348.872,-18.5 348.872,-0.5 284.507,-0.5"/>
<text text-anchor="middle" x="316.689" y="-6.5" font-family="Helvetica,sans-Serif" font-size="10.00">ofxOui.hpp</text>
</a>
</g>
</g>
<!-- Node7&#45;&gt;Node8 -->
<g id="edge1" class="edge"><title>Node7&#45;&gt;Node8</title>
<path fill="none" stroke="midnightblue" d="M348.872,-101.348C344.472,-93.2246 339.441,-83.287 335.689,-74 327.932,-54.7946 321.69,-31.2033 318.668,-18.8887"/>
<polygon fill="midnightblue" stroke="midnightblue" points="345.874,-103.158 353.798,-110.19 351.989,-99.7512 345.874,-103.158"/>
</g>
<!-- Node9 -->
<g id="node3" class="node"><title>Node9</title>
<g id="a_node3"><a xlink:href="ofx_oui_check_box_8hpp.html" target="_top" xlink:title="ofxOuiCheckBox.hpp">
<polygon fill="white" stroke="black" points="20.7192,-55.5 20.7192,-73.5 130.66,-73.5 130.66,-55.5 20.7192,-55.5"/>
<text text-anchor="middle" x="75.6895" y="-61.5" font-family="Helvetica,sans-Serif" font-size="10.00">ofxOuiCheckBox.hpp</text>
</a>
</g>
</g>
<!-- Node7&#45;&gt;Node9 -->
<g id="edge2" class="edge"><title>Node7&#45;&gt;Node9</title>
<path fill="none" stroke="midnightblue" d="M305.627,-108.562C251.547,-98.4345 168.701,-82.9191 118.611,-73.5383"/>
<polygon fill="midnightblue" stroke="midnightblue" points="305.234,-112.05 315.708,-110.45 306.523,-105.169 305.234,-112.05"/>
</g>
<!-- Node11 -->
<g id="node5" class="node"><title>Node11</title>
<g id="a_node5"><a xlink:href="ofx_oui_draggable_button_8hpp.html" target="_top" xlink:title="ofxOuiDraggableButton.hpp">
<polygon fill="white" stroke="black" points="148.98,-55.5 148.98,-73.5 288.398,-73.5 288.398,-55.5 148.98,-55.5"/>
<text text-anchor="middle" x="218.689" y="-61.5" font-family="Helvetica,sans-Serif" font-size="10.00">ofxOuiDraggableButton.hpp</text>
</a>
</g>
</g>
<!-- Node7&#45;&gt;Node11 -->
<g id="edge5" class="edge"><title>Node7&#45;&gt;Node11</title>
<path fill="none" stroke="midnightblue" d="M327.835,-106.819C301.251,-96.7556 263.567,-82.4894 240.153,-73.6253"/>
<polygon fill="midnightblue" stroke="midnightblue" points="326.835,-110.183 337.426,-110.45 329.313,-103.637 326.835,-110.183"/>
</g>
<!-- Node13 -->
<g id="node7" class="node"><title>Node13</title>
<g id="a_node7"><a xlink:href="ofx_oui_drop_down_8hpp.html" target="_top" xlink:title="ofxOuiDropDown.hpp">
<polygon fill="white" stroke="black" points="344.887,-55.5 344.887,-73.5 456.492,-73.5 456.492,-55.5 344.887,-55.5"/>
<text text-anchor="middle" x="400.689" y="-61.5" font-family="Helvetica,sans-Serif" font-size="10.00">ofxOuiDropDown.hpp</text>
</a>
</g>
</g>
<!-- Node7&#45;&gt;Node13 -->
<g id="edge8" class="edge"><title>Node7&#45;&gt;Node13</title>
<path fill="none" stroke="midnightblue" d="M371.573,-102.243C379.111,-92.7302 388.298,-81.1369 394.311,-73.5496"/>
<polygon fill="midnightblue" stroke="midnightblue" points="368.72,-100.207 365.252,-110.219 374.206,-104.555 368.72,-100.207"/>
</g>
<!-- Node15 -->
<g id="node9" class="node"><title>Node15</title>
<g id="a_node9"><a xlink:href="ofx_oui_matrix_8hpp.html" target="_top" xlink:title="ofxOuiMatrix.hpp">
<polygon fill="white" stroke="black" points="474.896,-55.5 474.896,-73.5 566.482,-73.5 566.482,-55.5 474.896,-55.5"/>
<text text-anchor="middle" x="520.689" y="-61.5" font-family="Helvetica,sans-Serif" font-size="10.00">ofxOuiMatrix.hpp</text>
</a>
</g>
</g>
<!-- Node7&#45;&gt;Node15 -->
<g id="edge11" class="edge"><title>Node7&#45;&gt;Node15</title>
<path fill="none" stroke="midnightblue" d="M392.808,-107.338C423.739,-97.2183 468.579,-82.5485 496.12,-73.5383"/>
<polygon fill="midnightblue" stroke="midnightblue" points="391.71,-104.014 383.294,-110.45 393.886,-110.667 391.71,-104.014"/>
</g>
<!-- Node17 -->
<g id="node11" class="node"><title>Node17</title>
<g id="a_node11"><a xlink:href="ofx_oui_button_8cpp.html" target="_top" xlink:title="ofxOuiButton.cpp">
<polygon fill="white" stroke="black" points="584.333,-55.5 584.333,-73.5 677.046,-73.5 677.046,-55.5 584.333,-55.5"/>
<text text-anchor="middle" x="630.689" y="-61.5" font-family="Helvetica,sans-Serif" font-size="10.00">ofxOuiButton.cpp</text>
</a>
</g>
</g>
<!-- Node7&#45;&gt;Node17 -->
<g id="edge14" class="edge"><title>Node7&#45;&gt;Node17</title>
<path fill="none" stroke="midnightblue" d="M410.014,-108.499C461.998,-98.37 541.394,-82.8996 589.436,-73.5383"/>
<polygon fill="midnightblue" stroke="midnightblue" points="409.146,-105.102 400,-110.45 410.485,-111.973 409.146,-105.102"/>
</g>
<!-- Node9&#45;&gt;Node8 -->
<g id="edge3" class="edge"><title>Node9&#45;&gt;Node8</title>
<path fill="none" stroke="midnightblue" d="M122.355,-53.2375C170.009,-42.7576 242.732,-26.7645 284.383,-17.6048"/>
<polygon fill="midnightblue" stroke="midnightblue" points="121.307,-49.8842 112.292,-55.4504 122.811,-56.7208 121.307,-49.8842"/>
</g>
<!-- Node10 -->
<g id="node4" class="node"><title>Node10</title>
<g id="a_node4"><a xlink:href="ofx_oui_check_box_8cpp.html" target="_top" xlink:title="ofxOuiCheckBox.cpp">
<polygon fill="white" stroke="black" points="0,-0.5 0,-18.5 109.379,-18.5 109.379,-0.5 0,-0.5"/>
<text text-anchor="middle" x="54.6895" y="-6.5" font-family="Helvetica,sans-Serif" font-size="10.00">ofxOuiCheckBox.cpp</text>
</a>
</g>
</g>
<!-- Node9&#45;&gt;Node10 -->
<g id="edge4" class="edge"><title>Node9&#45;&gt;Node10</title>
<path fill="none" stroke="midnightblue" d="M68.6648,-45.7712C65.0142,-36.5577 60.7318,-25.7498 57.8789,-18.5496"/>
<polygon fill="midnightblue" stroke="midnightblue" points="65.4706,-47.2112 72.4082,-55.2188 71.9784,-44.6326 65.4706,-47.2112"/>
</g>
<!-- Node11&#45;&gt;Node8 -->
<g id="edge6" class="edge"><title>Node11&#45;&gt;Node8</title>
<path fill="none" stroke="midnightblue" d="M242.537,-50.603C260.972,-40.6328 285.925,-27.1379 301.665,-18.6253"/>
<polygon fill="midnightblue" stroke="midnightblue" points="240.705,-47.6147 233.574,-55.4504 244.035,-53.772 240.705,-47.6147"/>
</g>
<!-- Node12 -->
<g id="node6" class="node"><title>Node12</title>
<g id="a_node6"><a xlink:href="ofx_oui_draggable_button_8cpp.html" target="_top" xlink:title="ofxOuiDraggableButton.cpp">
<polygon fill="white" stroke="black" points="127.261,-0.5 127.261,-18.5 266.118,-18.5 266.118,-0.5 127.261,-0.5"/>
<text text-anchor="middle" x="196.689" y="-6.5" font-family="Helvetica,sans-Serif" font-size="10.00">ofxOuiDraggableButton.cpp</text>
</a>
</g>
</g>
<!-- Node11&#45;&gt;Node12 -->
<g id="edge7" class="edge"><title>Node11&#45;&gt;Node12</title>
<path fill="none" stroke="midnightblue" d="M211.33,-45.7712C207.506,-36.5577 203.02,-25.7498 200.031,-18.5496"/>
<polygon fill="midnightblue" stroke="midnightblue" points="208.186,-47.3247 215.252,-55.2188 214.651,-44.641 208.186,-47.3247"/>
</g>
<!-- Node13&#45;&gt;Node8 -->
<g id="edge9" class="edge"><title>Node13&#45;&gt;Node8</title>
<path fill="none" stroke="midnightblue" d="M379.374,-50.0507C363.665,-40.1393 342.811,-26.9817 329.567,-18.6253"/>
<polygon fill="midnightblue" stroke="midnightblue" points="377.607,-53.0743 387.932,-55.4504 381.342,-47.1542 377.607,-53.0743"/>
</g>
<!-- Node14 -->
<g id="node8" class="node"><title>Node14</title>
<g id="a_node8"><a xlink:href="ofx_oui_drop_down_8cpp.html" target="_top" xlink:title="ofxOuiDropDown.cpp">
<polygon fill="white" stroke="black" points="367.167,-0.5 367.167,-18.5 478.211,-18.5 478.211,-0.5 367.167,-0.5"/>
<text text-anchor="middle" x="422.689" y="-6.5" font-family="Helvetica,sans-Serif" font-size="10.00">ofxOuiDropDown.cpp</text>
</a>
</g>
</g>
<!-- Node13&#45;&gt;Node14 -->
<g id="edge10" class="edge"><title>Node13&#45;&gt;Node14</title>
<path fill="none" stroke="midnightblue" d="M408.049,-45.7712C411.873,-36.5577 416.359,-25.7498 419.348,-18.5496"/>
<polygon fill="midnightblue" stroke="midnightblue" points="404.728,-44.641 404.127,-55.2188 411.193,-47.3247 404.728,-44.641"/>
</g>
<!-- Node15&#45;&gt;Node8 -->
<g id="edge12" class="edge"><title>Node15&#45;&gt;Node8</title>
<path fill="none" stroke="midnightblue" d="M479.733,-52.8593C440.737,-42.728 382.911,-27.7046 347.629,-18.5383"/>
<polygon fill="midnightblue" stroke="midnightblue" points="479.147,-56.3233 489.706,-55.4504 480.908,-49.5483 479.147,-56.3233"/>
</g>
<!-- Node16 -->
<g id="node10" class="node"><title>Node16</title>
<g id="a_node10"><a xlink:href="ofx_oui_matrix_8cpp.html" target="_top" xlink:title="ofxOuiMatrix.cpp">
<polygon fill="white" stroke="black" points="496.177,-0.5 496.177,-18.5 587.202,-18.5 587.202,-0.5 496.177,-0.5"/>
<text text-anchor="middle" x="541.689" y="-6.5" font-family="Helvetica,sans-Serif" font-size="10.00">ofxOuiMatrix.cpp</text>
</a>
</g>
</g>
<!-- Node15&#45;&gt;Node16 -->
<g id="edge13" class="edge"><title>Node15&#45;&gt;Node16</title>
<path fill="none" stroke="midnightblue" d="M527.714,-45.7712C531.365,-36.5577 535.647,-25.7498 538.5,-18.5496"/>
<polygon fill="midnightblue" stroke="midnightblue" points="524.401,-44.6326 523.971,-55.2188 530.908,-47.2112 524.401,-44.6326"/>
</g>
</g>
</svg>
