<?xml version="1.0" encoding="UTF-8" standalone="no"?>
<!DOCTYPE svg PUBLIC "-//W3C//DTD SVG 1.1//EN"
 "http://www.w3.org/Graphics/SVG/1.1/DTD/svg11.dtd">
<!-- Generated by graphviz version 2.38.0 (20140413.2041)
 -->
<!-- Title: ofxOuiShapeEditor.hpp Pages: 1 -->
<svg width="143pt" height="137pt"
 viewBox="0.00 0.00 143.50 137.00" xmlns="http://www.w3.org/2000/svg" xmlns:xlink="http://www.w3.org/1999/xlink">
<g id="graph0" class="graph" transform="scale(1 1) rotate(0) translate(4 133)">
<title>ofxOuiShapeEditor.hpp</title>
<polygon fill="white" stroke="none" points="-4,4 -4,-133 139.497,-133 139.497,4 -4,4"/>
<!-- Node0 -->
<g id="node1" class="node"><title>Node0</title>
<polygon fill="#bfbfbf" stroke="black" points="8.32031,-110.5 8.32031,-128.5 127.177,-128.5 127.177,-110.5 8.32031,-110.5"/>
<text text-anchor="middle" x="67.7485" y="-116.5" font-family="Helvetica,sans-Serif" font-size="10.00">ofxOuiShapeEditor.hpp</text>
</g>
<!-- Node1 -->
<g id="node2" class="node"><title>Node1</title>
<g id="a_node2"><a xlink:href="ofx_oui_common_8hpp.html" target="_top" xlink:title="../core/ofxOuiCommon.hpp">
<polygon fill="white" stroke="black" points="0,-55.5 0,-73.5 135.497,-73.5 135.497,-55.5 0,-55.5"/>
<text text-anchor="middle" x="67.7485" y="-61.5" font-family="Helvetica,sans-Serif" font-size="10.00">../core/ofxOuiCommon.hpp</text>
</a>
</g>
</g>
<!-- Node0&#45;&gt;Node1 -->
<g id="edge1" class="edge"><title>Node0&#45;&gt;Node1</title>
<path fill="none" stroke="midnightblue" d="M67.7485,-110.219C67.7485,-103.177 67.7485,-92.8083 67.7485,-83.8277"/>
<polygon fill="midnightblue" stroke="midnightblue" points="71.2486,-83.5495 67.7485,-73.5496 64.2486,-83.5496 71.2486,-83.5495"/>
</g>
<!-- Node2 -->
<g id="node3" class="node"><title>Node2</title>
<polygon fill="white" stroke="#bfbfbf" points="40.5713,-0.5 40.5713,-18.5 94.9258,-18.5 94.9258,-0.5 40.5713,-0.5"/>
<text text-anchor="middle" x="67.7485" y="-6.5" font-family="Helvetica,sans-Serif" font-size="10.00">ofMain.h</text>
</g>
<!-- Node1&#45;&gt;Node2 -->
<g id="edge2" class="edge"><title>Node1&#45;&gt;Node2</title>
<path fill="none" stroke="midnightblue" d="M67.7485,-55.2188C67.7485,-48.1769 67.7485,-37.8083 67.7485,-28.8277"/>
<polygon fill="midnightblue" stroke="midnightblue" points="71.2486,-28.5495 67.7485,-18.5496 64.2486,-28.5496 71.2486,-28.5495"/>
</g>
</g>
</svg>
