<?xml version="1.0" encoding="UTF-8" standalone="no"?>
<!DOCTYPE svg PUBLIC "-//W3C//DTD SVG 1.1//EN"
 "http://www.w3.org/Graphics/SVG/1.1/DTD/svg11.dtd">
<!-- Generated by graphviz version 2.38.0 (20140413.2041)
 -->
<!-- Title: ofxCuiCuiTextInput.hpp Pages: 1 -->
<svg width="224pt" height="82pt"
 viewBox="0.00 0.00 223.82 82.00" xmlns="http://www.w3.org/2000/svg" xmlns:xlink="http://www.w3.org/1999/xlink">
<g id="graph0" class="graph" transform="scale(1 1) rotate(0) translate(4 78)">
<title>ofxCuiCuiTextInput.hpp</title>
<polygon fill="white" stroke="none" points="-4,4 -4,-78 219.822,-78 219.822,4 -4,4"/>
<!-- Node1 -->
<g id="node1" class="node"><title>Node1</title>
<polygon fill="#bfbfbf" stroke="black" points="37.7095,-55.5 37.7095,-73.5 157.103,-73.5 157.103,-55.5 37.7095,-55.5"/>
<text text-anchor="middle" x="97.4062" y="-61.5" font-family="Helvetica,sans-Serif" font-size="10.00">ofxCuiCuiTextInput.hpp</text>
</g>
<!-- Node2 -->
<g id="node2" class="node"><title>Node2</title>
<g id="a_node2"><a xlink:href="ofx_cui_cui_8hpp.html" target="_top" xlink:title="ofxCuiCui.hpp">
<polygon fill="white" stroke="black" points="0,-0.5 0,-18.5 78.8125,-18.5 78.8125,-0.5 0,-0.5"/>
<text text-anchor="middle" x="39.4062" y="-6.5" font-family="Helvetica,sans-Serif" font-size="10.00">ofxCuiCui.hpp</text>
</a>
</g>
</g>
<!-- Node1&#45;&gt;Node2 -->
<g id="edge1" class="edge"><title>Node1&#45;&gt;Node2</title>
<path fill="none" stroke="midnightblue" d="M80.8779,-48.3965C70.2484,-38.6833 56.8572,-26.4466 48.2152,-18.5496"/>
<polygon fill="midnightblue" stroke="midnightblue" points="78.6006,-51.0568 88.3438,-55.2188 83.3226,-45.8893 78.6006,-51.0568"/>
</g>
<!-- Node3 -->
<g id="node3" class="node"><title>Node3</title>
<g id="a_node3"><a xlink:href="ofx_cui_cui_text_input_8cpp.html" target="_top" xlink:title="ofxCuiCuiTextInput.cpp">
<polygon fill="white" stroke="black" points="96.9902,-0.5 96.9902,-18.5 215.822,-18.5 215.822,-0.5 96.9902,-0.5"/>
<text text-anchor="middle" x="156.406" y="-6.5" font-family="Helvetica,sans-Serif" font-size="10.00">ofxCuiCuiTextInput.cpp</text>
</a>
</g>
</g>
<!-- Node1&#45;&gt;Node3 -->
<g id="edge2" class="edge"><title>Node1&#45;&gt;Node3</title>
<path fill="none" stroke="midnightblue" d="M113.948,-48.6408C124.769,-38.9201 138.493,-26.5913 147.361,-18.6253"/>
<polygon fill="midnightblue" stroke="midnightblue" points="111.467,-46.164 106.367,-55.4504 116.145,-51.3715 111.467,-46.164"/>
</g>
</g>
</svg>
