<?xml version="1.0" encoding="UTF-8" standalone="no"?>
<!DOCTYPE svg PUBLIC "-//W3C//DTD SVG 1.1//EN"
 "http://www.w3.org/Graphics/SVG/1.1/DTD/svg11.dtd">
<!-- Generated by graphviz version 2.38.0 (20140413.2041)
 -->
<!-- Title: ofxOuiStyle.hpp Pages: 1 -->
<svg width="1759pt" height="247pt"
 viewBox="0.00 0.00 1759.22 247.00" xmlns="http://www.w3.org/2000/svg" xmlns:xlink="http://www.w3.org/1999/xlink">
<g id="graph0" class="graph" transform="scale(1 1) rotate(0) translate(4 243)">
<title>ofxOuiStyle.hpp</title>
<polygon fill="white" stroke="none" points="-4,4 -4,-243 1755.22,-243 1755.22,4 -4,4"/>
<!-- Node3 -->
<g id="node1" class="node"><title>Node3</title>
<polygon fill="#bfbfbf" stroke="black" points="664.127,-220.5 664.127,-238.5 750.722,-238.5 750.722,-220.5 664.127,-220.5"/>
<text text-anchor="middle" x="707.425" y="-226.5" font-family="Helvetica,sans-Serif" font-size="10.00">ofxOuiStyle.hpp</text>
</g>
<!-- Node4 -->
<g id="node2" class="node"><title>Node4</title>
<g id="a_node2"><a xlink:href="ofx_oui_component_8hpp.html" target="_top" xlink:title="ofxOuiComponent.hpp">
<polygon fill="white" stroke="black" points="649.393,-165.5 649.393,-183.5 765.456,-183.5 765.456,-165.5 649.393,-165.5"/>
<text text-anchor="middle" x="707.425" y="-171.5" font-family="Helvetica,sans-Serif" font-size="10.00">ofxOuiComponent.hpp</text>
</a>
</g>
</g>
<!-- Node3&#45;&gt;Node4 -->
<g id="edge1" class="edge"><title>Node3&#45;&gt;Node4</title>
<path fill="none" stroke="midnightblue" d="M707.425,-210.175C707.425,-201.094 707.425,-190.595 707.425,-183.55"/>
<polygon fill="midnightblue" stroke="midnightblue" points="703.925,-210.219 707.425,-220.219 710.925,-210.219 703.925,-210.219"/>
</g>
<!-- Node6 -->
<g id="node4" class="node"><title>Node6</title>
<g id="a_node4"><a xlink:href="ofx_oui_8hpp.html" target="_top" xlink:title="ofxOui.hpp">
<polygon fill="white" stroke="black" points="772.242,-0.5 772.242,-18.5 836.607,-18.5 836.607,-0.5 772.242,-0.5"/>
<text text-anchor="middle" x="804.425" y="-6.5" font-family="Helvetica,sans-Serif" font-size="10.00">ofxOui.hpp</text>
</a>
</g>
</g>
<!-- Node3&#45;&gt;Node6 -->
<g id="edge40" class="edge"><title>Node3&#45;&gt;Node6</title>
<path fill="none" stroke="midnightblue" d="M653.879,-224.195C475.542,-208.879 -81.923,-152.668 10.4245,-55 37.0135,-26.8791 626.284,-13.8783 772.041,-11.086"/>
<polygon fill="midnightblue" stroke="midnightblue" points="653.817,-227.702 664.077,-225.061 654.409,-220.727 653.817,-227.702"/>
</g>
<!-- Node31 -->
<g id="node29" class="node"><title>Node31</title>
<g id="a_node29"><a xlink:href="ofx_oui_style_8cpp.html" target="_top" xlink:title="ofxOuiStyle.cpp">
<polygon fill="white" stroke="black" points="783.407,-165.5 783.407,-183.5 869.442,-183.5 869.442,-165.5 783.407,-165.5"/>
<text text-anchor="middle" x="826.425" y="-171.5" font-family="Helvetica,sans-Serif" font-size="10.00">ofxOuiStyle.cpp</text>
</a>
</g>
</g>
<!-- Node3&#45;&gt;Node31 -->
<g id="edge41" class="edge"><title>Node3&#45;&gt;Node31</title>
<path fill="none" stroke="midnightblue" d="M734.854,-216.283C757.372,-206.254 788.629,-192.333 808.181,-183.625"/>
<polygon fill="midnightblue" stroke="midnightblue" points="733.209,-213.185 725.498,-220.45 736.057,-219.579 733.209,-213.185"/>
</g>
<!-- Node5 -->
<g id="node3" class="node"><title>Node5</title>
<g id="a_node3"><a xlink:href="ofx_oui_bpf_8hpp.html" target="_top" xlink:title="ofxOuiBpf.hpp">
<polygon fill="white" stroke="black" points="908.738,-110.5 908.738,-128.5 988.112,-128.5 988.112,-110.5 908.738,-110.5"/>
<text text-anchor="middle" x="948.425" y="-116.5" font-family="Helvetica,sans-Serif" font-size="10.00">ofxOuiBpf.hpp</text>
</a>
</g>
</g>
<!-- Node4&#45;&gt;Node5 -->
<g id="edge2" class="edge"><title>Node4&#45;&gt;Node5</title>
<path fill="none" stroke="midnightblue" d="M754.056,-163.245C800.13,-153.113 869.66,-137.822 911.873,-128.538"/>
<polygon fill="midnightblue" stroke="midnightblue" points="753.042,-159.884 744.027,-165.45 754.546,-166.721 753.042,-159.884"/>
</g>
<!-- Node4&#45;&gt;Node6 -->
<g id="edge38" class="edge"><title>Node4&#45;&gt;Node6</title>
<path fill="none" stroke="midnightblue" d="M717.714,-156.209C738.459,-121.35 784.598,-43.8171 799.606,-18.5971"/>
<polygon fill="midnightblue" stroke="midnightblue" points="714.474,-154.809 712.368,-165.193 720.49,-158.389 714.474,-154.809"/>
</g>
<!-- Node8 -->
<g id="node6" class="node"><title>Node8</title>
<g id="a_node6"><a xlink:href="ofx_oui_button_8hpp.html" target="_top" xlink:title="ofxOuiButton.hpp">
<polygon fill="white" stroke="black" points="1251.79,-110.5 1251.79,-128.5 1345.06,-128.5 1345.06,-110.5 1251.79,-110.5"/>
<text text-anchor="middle" x="1298.42" y="-116.5" font-family="Helvetica,sans-Serif" font-size="10.00">ofxOuiButton.hpp</text>
</a>
</g>
</g>
<!-- Node4&#45;&gt;Node8 -->
<g id="edge5" class="edge"><title>Node4&#45;&gt;Node8</title>
<path fill="none" stroke="midnightblue" d="M775.553,-164.922C957.877,-145.808 1161.78,-130.335 1251.75,-123.811"/>
<polygon fill="midnightblue" stroke="midnightblue" points="775.09,-161.452 765.512,-165.981 775.824,-168.413 775.09,-161.452"/>
</g>
<!-- Node18 -->
<g id="node16" class="node"><title>Node18</title>
<g id="a_node16"><a xlink:href="ofx_oui_group_8hpp.html" target="_top" xlink:title="ofxOuiGroup.hpp">
<polygon fill="white" stroke="black" points="1006.35,-110.5 1006.35,-128.5 1098.5,-128.5 1098.5,-110.5 1006.35,-110.5"/>
<text text-anchor="middle" x="1052.42" y="-116.5" font-family="Helvetica,sans-Serif" font-size="10.00">ofxOuiGroup.hpp</text>
</a>
</g>
</g>
<!-- Node4&#45;&gt;Node18 -->
<g id="edge20" class="edge"><title>Node4&#45;&gt;Node18</title>
<path fill="none" stroke="midnightblue" d="M770.046,-163.911C828.782,-154.912 919.063,-141.067 997.425,-129 1000.29,-128.559 1003.24,-128.104 1006.21,-127.646"/>
<polygon fill="midnightblue" stroke="midnightblue" points="769.171,-160.504 759.816,-165.478 770.231,-167.423 769.171,-160.504"/>
</g>
<!-- Node20 -->
<g id="node18" class="node"><title>Node20</title>
<g id="a_node18"><a xlink:href="ofx_oui_multi_slider_8hpp.html" target="_top" xlink:title="ofxOuiMultiSlider.hpp">
<polygon fill="white" stroke="black" points="359.176,-110.5 359.176,-128.5 469.673,-128.5 469.673,-110.5 359.176,-110.5"/>
<text text-anchor="middle" x="414.425" y="-116.5" font-family="Helvetica,sans-Serif" font-size="10.00">ofxOuiMultiSlider.hpp</text>
</a>
</g>
</g>
<!-- Node4&#45;&gt;Node20 -->
<g id="edge23" class="edge"><title>Node4&#45;&gt;Node20</title>
<path fill="none" stroke="midnightblue" d="M652.836,-163.626C596.853,-153.499 510.83,-137.939 458.863,-128.538"/>
<polygon fill="midnightblue" stroke="midnightblue" points="652.461,-167.114 662.924,-165.45 653.707,-160.226 652.461,-167.114"/>
</g>
<!-- Node22 -->
<g id="node20" class="node"><title>Node22</title>
<g id="a_node20"><a xlink:href="ofx_oui_numbox_8hpp.html" target="_top" xlink:title="ofxOuiNumbox.hpp">
<polygon fill="white" stroke="black" points="126.624,-110.5 126.624,-128.5 228.225,-128.5 228.225,-110.5 126.624,-110.5"/>
<text text-anchor="middle" x="177.425" y="-116.5" font-family="Helvetica,sans-Serif" font-size="10.00">ofxOuiNumbox.hpp</text>
</a>
</g>
</g>
<!-- Node4&#45;&gt;Node22 -->
<g id="edge26" class="edge"><title>Node4&#45;&gt;Node22</title>
<path fill="none" stroke="midnightblue" d="M639.071,-166.665C531.238,-155.881 324.077,-135.165 228.293,-125.587"/>
<polygon fill="midnightblue" stroke="midnightblue" points="638.89,-170.164 649.189,-167.676 639.587,-163.199 638.89,-170.164"/>
</g>
<!-- Node26 -->
<g id="node24" class="node"><title>Node26</title>
<g id="a_node24"><a xlink:href="ofx_oui_text_input_8hpp.html" target="_top" xlink:title="ofxOuiTextInput.hpp">
<polygon fill="white" stroke="black" points="614.952,-110.5 614.952,-128.5 719.897,-128.5 719.897,-110.5 614.952,-110.5"/>
<text text-anchor="middle" x="667.425" y="-116.5" font-family="Helvetica,sans-Serif" font-size="10.00">ofxOuiTextInput.hpp</text>
</a>
</g>
</g>
<!-- Node4&#45;&gt;Node26 -->
<g id="edge32" class="edge"><title>Node4&#45;&gt;Node26</title>
<path fill="none" stroke="midnightblue" d="M694.935,-156.951C687.797,-147.494 679.168,-136.059 673.5,-128.55"/>
<polygon fill="midnightblue" stroke="midnightblue" points="692.357,-159.345 701.175,-165.219 697.944,-155.128 692.357,-159.345"/>
</g>
<!-- Node28 -->
<g id="node26" class="node"><title>Node28</title>
<g id="a_node26"><a xlink:href="ofx_oui_waveform_8hpp.html" target="_top" xlink:title="ofxOuiWaveform.hpp">
<polygon fill="white" stroke="black" points="487.645,-110.5 487.645,-128.5 597.204,-128.5 597.204,-110.5 487.645,-110.5"/>
<text text-anchor="middle" x="542.425" y="-116.5" font-family="Helvetica,sans-Serif" font-size="10.00">ofxOuiWaveform.hpp</text>
</a>
</g>
</g>
<!-- Node4&#45;&gt;Node28 -->
<g id="edge35" class="edge"><title>Node4&#45;&gt;Node28</title>
<path fill="none" stroke="midnightblue" d="M672.674,-162.338C641.17,-152.218 595.5,-137.549 567.449,-128.538"/>
<polygon fill="midnightblue" stroke="midnightblue" points="671.773,-165.724 682.365,-165.45 673.914,-159.06 671.773,-165.724"/>
</g>
<!-- Node30 -->
<g id="node28" class="node"><title>Node30</title>
<g id="a_node28"><a xlink:href="ofx_oui_component_8cpp.html" target="_top" xlink:title="ofxOuiComponent.cpp">
<polygon fill="white" stroke="black" points="775.674,-110.5 775.674,-128.5 891.175,-128.5 891.175,-110.5 775.674,-110.5"/>
<text text-anchor="middle" x="833.425" y="-116.5" font-family="Helvetica,sans-Serif" font-size="10.00">ofxOuiComponent.cpp</text>
</a>
</g>
</g>
<!-- Node4&#45;&gt;Node30 -->
<g id="edge39" class="edge"><title>Node4&#45;&gt;Node30</title>
<path fill="none" stroke="midnightblue" d="M735.829,-161.552C759.715,-151.505 793.22,-137.411 814.108,-128.625"/>
<polygon fill="midnightblue" stroke="midnightblue" points="734.422,-158.347 726.561,-165.45 737.136,-164.799 734.422,-158.347"/>
</g>
<!-- Node5&#45;&gt;Node6 -->
<g id="edge3" class="edge"><title>Node5&#45;&gt;Node6</title>
<path fill="none" stroke="midnightblue" d="M905.328,-107.302C884.586,-100.296 860.386,-89.5799 842.425,-74 824.373,-58.3421 812.492,-31.9159 807.345,-18.6347"/>
<polygon fill="midnightblue" stroke="midnightblue" points="904.294,-110.645 914.885,-110.355 906.425,-103.977 904.294,-110.645"/>
</g>
<!-- Node7 -->
<g id="node5" class="node"><title>Node7</title>
<g id="a_node5"><a xlink:href="ofx_oui_bpf_8cpp.html" target="_top" xlink:title="ofxOuiBpf.cpp">
<polygon fill="white" stroke="black" points="851.018,-55.5 851.018,-73.5 929.831,-73.5 929.831,-55.5 851.018,-55.5"/>
<text text-anchor="middle" x="890.425" y="-61.5" font-family="Helvetica,sans-Serif" font-size="10.00">ofxOuiBpf.cpp</text>
</a>
</g>
</g>
<!-- Node5&#45;&gt;Node7 -->
<g id="edge4" class="edge"><title>Node5&#45;&gt;Node7</title>
<path fill="none" stroke="midnightblue" d="M931.896,-103.397C921.267,-93.6833 907.875,-81.4466 899.233,-73.5496"/>
<polygon fill="midnightblue" stroke="midnightblue" points="929.619,-106.057 939.362,-110.219 934.341,-100.889 929.619,-106.057"/>
</g>
<!-- Node8&#45;&gt;Node6 -->
<g id="edge6" class="edge"><title>Node8&#45;&gt;Node6</title>
<path fill="none" stroke="midnightblue" d="M1253.9,-108.042C1218.61,-99.5272 1168.12,-86.8529 1124.42,-74 1098.81,-66.4648 1093.33,-61.4689 1067.42,-55 985.428,-34.5268 886.681,-20.6284 836.737,-14.3354"/>
<polygon fill="midnightblue" stroke="midnightblue" points="1253.35,-111.508 1263.89,-110.438 1254.98,-104.701 1253.35,-111.508"/>
</g>
<!-- Node9 -->
<g id="node7" class="node"><title>Node9</title>
<g id="a_node7"><a xlink:href="ofx_oui_check_box_8hpp.html" target="_top" xlink:title="ofxOuiCheckBox.hpp">
<polygon fill="white" stroke="black" points="1243.45,-55.5 1243.45,-73.5 1353.39,-73.5 1353.39,-55.5 1243.45,-55.5"/>
<text text-anchor="middle" x="1298.42" y="-61.5" font-family="Helvetica,sans-Serif" font-size="10.00">ofxOuiCheckBox.hpp</text>
</a>
</g>
</g>
<!-- Node8&#45;&gt;Node9 -->
<g id="edge7" class="edge"><title>Node8&#45;&gt;Node9</title>
<path fill="none" stroke="midnightblue" d="M1298.42,-100.175C1298.42,-91.0945 1298.42,-80.5949 1298.42,-73.5496"/>
<polygon fill="midnightblue" stroke="midnightblue" points="1294.92,-100.219 1298.42,-110.219 1301.92,-100.219 1294.92,-100.219"/>
</g>
<!-- Node11 -->
<g id="node9" class="node"><title>Node11</title>
<g id="a_node9"><a xlink:href="ofx_oui_draggable_button_8hpp.html" target="_top" xlink:title="ofxOuiDraggableButton.hpp">
<polygon fill="white" stroke="black" points="1371.72,-55.5 1371.72,-73.5 1511.13,-73.5 1511.13,-55.5 1371.72,-55.5"/>
<text text-anchor="middle" x="1441.42" y="-61.5" font-family="Helvetica,sans-Serif" font-size="10.00">ofxOuiDraggableButton.hpp</text>
</a>
</g>
</g>
<!-- Node8&#45;&gt;Node11 -->
<g id="edge10" class="edge"><title>Node8&#45;&gt;Node11</title>
<path fill="none" stroke="midnightblue" d="M1329.58,-106.952C1356.75,-96.8814 1395.48,-82.5284 1419.5,-73.6253"/>
<polygon fill="midnightblue" stroke="midnightblue" points="1328.3,-103.693 1320.14,-110.45 1330.74,-110.257 1328.3,-103.693"/>
</g>
<!-- Node13 -->
<g id="node11" class="node"><title>Node13</title>
<g id="a_node11"><a xlink:href="ofx_oui_drop_down_8hpp.html" target="_top" xlink:title="ofxOuiDropDown.hpp">
<polygon fill="white" stroke="black" points="1529.62,-55.5 1529.62,-73.5 1641.23,-73.5 1641.23,-55.5 1529.62,-55.5"/>
<text text-anchor="middle" x="1585.42" y="-61.5" font-family="Helvetica,sans-Serif" font-size="10.00">ofxOuiDropDown.hpp</text>
</a>
</g>
</g>
<!-- Node8&#45;&gt;Node13 -->
<g id="edge13" class="edge"><title>Node8&#45;&gt;Node13</title>
<path fill="none" stroke="midnightblue" d="M1351.9,-108.626C1406.73,-98.499 1490.99,-82.9386 1541.9,-73.5383"/>
<polygon fill="midnightblue" stroke="midnightblue" points="1351.21,-105.193 1342.01,-110.45 1352.48,-112.076 1351.21,-105.193"/>
</g>
<!-- Node15 -->
<g id="node13" class="node"><title>Node15</title>
<g id="a_node13"><a xlink:href="ofx_oui_matrix_8hpp.html" target="_top" xlink:title="ofxOuiMatrix.hpp">
<polygon fill="white" stroke="black" points="1659.63,-55.5 1659.63,-73.5 1751.22,-73.5 1751.22,-55.5 1659.63,-55.5"/>
<text text-anchor="middle" x="1705.42" y="-61.5" font-family="Helvetica,sans-Serif" font-size="10.00">ofxOuiMatrix.hpp</text>
</a>
</g>
</g>
<!-- Node8&#45;&gt;Node15 -->
<g id="edge16" class="edge"><title>Node8&#45;&gt;Node15</title>
<path fill="none" stroke="midnightblue" d="M1355.48,-111.777C1425.16,-103.455 1546.57,-88.5872 1650.42,-74 1653.39,-73.5834 1656.44,-73.143 1659.52,-72.6908"/>
<polygon fill="midnightblue" stroke="midnightblue" points="1354.68,-108.348 1345.17,-113.006 1355.51,-115.298 1354.68,-108.348"/>
</g>
<!-- Node17 -->
<g id="node15" class="node"><title>Node17</title>
<g id="a_node15"><a xlink:href="ofx_oui_button_8cpp.html" target="_top" xlink:title="ofxOuiButton.cpp">
<polygon fill="white" stroke="black" points="1133.07,-55.5 1133.07,-73.5 1225.78,-73.5 1225.78,-55.5 1133.07,-55.5"/>
<text text-anchor="middle" x="1179.42" y="-61.5" font-family="Helvetica,sans-Serif" font-size="10.00">ofxOuiButton.cpp</text>
</a>
</g>
</g>
<!-- Node8&#45;&gt;Node17 -->
<g id="edge19" class="edge"><title>Node8&#45;&gt;Node17</title>
<path fill="none" stroke="midnightblue" d="M1270.99,-106.283C1248.48,-96.2545 1217.22,-82.3332 1197.67,-73.6253"/>
<polygon fill="midnightblue" stroke="midnightblue" points="1269.79,-109.579 1280.35,-110.45 1272.64,-103.185 1269.79,-109.579"/>
</g>
<!-- Node9&#45;&gt;Node6 -->
<g id="edge8" class="edge"><title>Node9&#45;&gt;Node6</title>
<path fill="none" stroke="midnightblue" d="M1233.12,-54.8767C1078.52,-36.7465 907.001,-20.1626 836.825,-13.5302"/>
<polygon fill="midnightblue" stroke="midnightblue" points="1232.94,-58.3792 1243.28,-56.0731 1233.76,-51.4273 1232.94,-58.3792"/>
</g>
<!-- Node10 -->
<g id="node8" class="node"><title>Node10</title>
<g id="a_node8"><a xlink:href="ofx_oui_check_box_8cpp.html" target="_top" xlink:title="ofxOuiCheckBox.cpp">
<polygon fill="white" stroke="black" points="1243.74,-0.5 1243.74,-18.5 1353.11,-18.5 1353.11,-0.5 1243.74,-0.5"/>
<text text-anchor="middle" x="1298.42" y="-6.5" font-family="Helvetica,sans-Serif" font-size="10.00">ofxOuiCheckBox.cpp</text>
</a>
</g>
</g>
<!-- Node9&#45;&gt;Node10 -->
<g id="edge9" class="edge"><title>Node9&#45;&gt;Node10</title>
<path fill="none" stroke="midnightblue" d="M1298.42,-45.1746C1298.42,-36.0945 1298.42,-25.5949 1298.42,-18.5496"/>
<polygon fill="midnightblue" stroke="midnightblue" points="1294.92,-45.2187 1298.42,-55.2188 1301.92,-45.2188 1294.92,-45.2187"/>
</g>
<!-- Node11&#45;&gt;Node6 -->
<g id="edge11" class="edge"><title>Node11&#45;&gt;Node6</title>
<path fill="none" stroke="midnightblue" d="M1361.53,-54.9422C1155.16,-35.7502 921.281,-18.753 836.844,-12.771"/>
<polygon fill="midnightblue" stroke="midnightblue" points="1361.37,-58.4419 1371.65,-55.8868 1362.02,-51.4722 1361.37,-58.4419"/>
</g>
<!-- Node12 -->
<g id="node10" class="node"><title>Node12</title>
<g id="a_node10"><a xlink:href="ofx_oui_draggable_button_8cpp.html" target="_top" xlink:title="ofxOuiDraggableButton.cpp">
<polygon fill="white" stroke="black" points="1372,-0.5 1372,-18.5 1510.85,-18.5 1510.85,-0.5 1372,-0.5"/>
<text text-anchor="middle" x="1441.42" y="-6.5" font-family="Helvetica,sans-Serif" font-size="10.00">ofxOuiDraggableButton.cpp</text>
</a>
</g>
</g>
<!-- Node11&#45;&gt;Node12 -->
<g id="edge12" class="edge"><title>Node11&#45;&gt;Node12</title>
<path fill="none" stroke="midnightblue" d="M1441.42,-45.1746C1441.42,-36.0945 1441.42,-25.5949 1441.42,-18.5496"/>
<polygon fill="midnightblue" stroke="midnightblue" points="1437.92,-45.2187 1441.42,-55.2188 1444.92,-45.2188 1437.92,-45.2187"/>
</g>
<!-- Node13&#45;&gt;Node6 -->
<g id="edge14" class="edge"><title>Node13&#45;&gt;Node6</title>
<path fill="none" stroke="midnightblue" d="M1519.45,-54.9754C1249.54,-29.3102 937.066,-15.6961 836.957,-11.7335"/>
<polygon fill="midnightblue" stroke="midnightblue" points="1519.14,-58.4624 1529.43,-55.9324 1519.81,-51.4943 1519.14,-58.4624"/>
</g>
<!-- Node14 -->
<g id="node12" class="node"><title>Node14</title>
<g id="a_node12"><a xlink:href="ofx_oui_drop_down_8cpp.html" target="_top" xlink:title="ofxOuiDropDown.cpp">
<polygon fill="white" stroke="black" points="1529.9,-0.5 1529.9,-18.5 1640.95,-18.5 1640.95,-0.5 1529.9,-0.5"/>
<text text-anchor="middle" x="1585.42" y="-6.5" font-family="Helvetica,sans-Serif" font-size="10.00">ofxOuiDropDown.cpp</text>
</a>
</g>
</g>
<!-- Node13&#45;&gt;Node14 -->
<g id="edge15" class="edge"><title>Node13&#45;&gt;Node14</title>
<path fill="none" stroke="midnightblue" d="M1585.42,-45.1746C1585.42,-36.0945 1585.42,-25.5949 1585.42,-18.5496"/>
<polygon fill="midnightblue" stroke="midnightblue" points="1581.92,-45.2187 1585.42,-55.2188 1588.92,-45.2188 1581.92,-45.2187"/>
</g>
<!-- Node15&#45;&gt;Node6 -->
<g id="edge17" class="edge"><title>Node15&#45;&gt;Node6</title>
<path fill="none" stroke="midnightblue" d="M1649.53,-55.028C1326.55,-22.1655 948.238,-13.0966 836.788,-11.0287"/>
<polygon fill="midnightblue" stroke="midnightblue" points="1649.25,-58.517 1659.55,-56.057 1649.96,-51.5536 1649.25,-58.517"/>
</g>
<!-- Node16 -->
<g id="node14" class="node"><title>Node16</title>
<g id="a_node14"><a xlink:href="ofx_oui_matrix_8cpp.html" target="_top" xlink:title="ofxOuiMatrix.cpp">
<polygon fill="white" stroke="black" points="1659.91,-0.5 1659.91,-18.5 1750.94,-18.5 1750.94,-0.5 1659.91,-0.5"/>
<text text-anchor="middle" x="1705.42" y="-6.5" font-family="Helvetica,sans-Serif" font-size="10.00">ofxOuiMatrix.cpp</text>
</a>
</g>
</g>
<!-- Node15&#45;&gt;Node16 -->
<g id="edge18" class="edge"><title>Node15&#45;&gt;Node16</title>
<path fill="none" stroke="midnightblue" d="M1705.42,-45.1746C1705.42,-36.0945 1705.42,-25.5949 1705.42,-18.5496"/>
<polygon fill="midnightblue" stroke="midnightblue" points="1701.92,-45.2187 1705.42,-55.2188 1708.92,-45.2188 1701.92,-45.2187"/>
</g>
<!-- Node18&#45;&gt;Node6 -->
<g id="edge21" class="edge"><title>Node18&#45;&gt;Node6</title>
<path fill="none" stroke="midnightblue" d="M1056.74,-100.3C1058.93,-86.2114 1059.2,-67.1168 1048.42,-55 1020.89,-24.0239 896.799,-14.4712 836.932,-11.638"/>
<polygon fill="midnightblue" stroke="midnightblue" points="1053.27,-99.8064 1054.75,-110.298 1060.14,-101.174 1053.27,-99.8064"/>
</g>
<!-- Node19 -->
<g id="node17" class="node"><title>Node19</title>
<g id="a_node17"><a xlink:href="ofx_oui_group_8cpp.html" target="_top" xlink:title="ofxOuiGroup.cpp">
<polygon fill="white" stroke="black" points="947.627,-55.5 947.627,-73.5 1039.22,-73.5 1039.22,-55.5 947.627,-55.5"/>
<text text-anchor="middle" x="993.425" y="-61.5" font-family="Helvetica,sans-Serif" font-size="10.00">ofxOuiGroup.cpp</text>
</a>
</g>
</g>
<!-- Node18&#45;&gt;Node19 -->
<g id="edge22" class="edge"><title>Node18&#45;&gt;Node19</title>
<path fill="none" stroke="midnightblue" d="M1035.88,-103.641C1025.06,-93.9201 1011.34,-81.5913 1002.47,-73.6253"/>
<polygon fill="midnightblue" stroke="midnightblue" points="1033.69,-106.371 1043.46,-110.45 1038.36,-101.164 1033.69,-106.371"/>
</g>
<!-- Node20&#45;&gt;Node6 -->
<g id="edge24" class="edge"><title>Node20&#45;&gt;Node6</title>
<path fill="none" stroke="midnightblue" d="M424.711,-101.43C434.676,-86.5311 451.224,-65.6727 471.425,-55 523.253,-27.6164 698.979,-15.8007 772.094,-11.9876"/>
<polygon fill="midnightblue" stroke="midnightblue" points="421.551,-99.8762 419.141,-110.193 427.459,-103.631 421.551,-99.8762"/>
</g>
<!-- Node21 -->
<g id="node19" class="node"><title>Node21</title>
<g id="a_node19"><a xlink:href="ofx_oui_multi_slider_8cpp.html" target="_top" xlink:title="ofxOuiMultiSlider.cpp">
<polygon fill="white" stroke="black" points="284.457,-55.5 284.457,-73.5 394.392,-73.5 394.392,-55.5 284.457,-55.5"/>
<text text-anchor="middle" x="339.425" y="-61.5" font-family="Helvetica,sans-Serif" font-size="10.00">ofxOuiMultiSlider.cpp</text>
</a>
</g>
</g>
<!-- Node20&#45;&gt;Node21 -->
<g id="edge25" class="edge"><title>Node20&#45;&gt;Node21</title>
<path fill="none" stroke="midnightblue" d="M394.601,-104.492C380.673,-94.6491 362.527,-81.8255 350.923,-73.6253"/>
<polygon fill="midnightblue" stroke="midnightblue" points="392.847,-107.538 403.034,-110.45 396.887,-101.821 392.847,-107.538"/>
</g>
<!-- Node22&#45;&gt;Node6 -->
<g id="edge27" class="edge"><title>Node22&#45;&gt;Node6</title>
<path fill="none" stroke="midnightblue" d="M163.992,-102.123C154.115,-88.0199 144.334,-67.9496 156.425,-55 198.751,-9.66731 646.893,-9.3858 772.096,-10.2031"/>
<polygon fill="midnightblue" stroke="midnightblue" points="161.434,-104.543 170.267,-110.394 167.011,-100.312 161.434,-104.543"/>
</g>
<!-- Node23 -->
<g id="node21" class="node"><title>Node23</title>
<g id="a_node21"><a xlink:href="ofx_oui_slider_8hpp.html" target="_top" xlink:title="ofxOuiSlider.hpp">
<polygon fill="white" stroke="black" points="19.7326,-55.5 19.7326,-73.5 109.116,-73.5 109.116,-55.5 19.7326,-55.5"/>
<text text-anchor="middle" x="64.4245" y="-61.5" font-family="Helvetica,sans-Serif" font-size="10.00">ofxOuiSlider.hpp</text>
</a>
</g>
</g>
<!-- Node22&#45;&gt;Node23 -->
<g id="edge28" class="edge"><title>Node22&#45;&gt;Node23</title>
<path fill="none" stroke="midnightblue" d="M151.09,-106.148C129.729,-96.1297 100.231,-82.2941 81.7483,-73.6253"/>
<polygon fill="midnightblue" stroke="midnightblue" points="149.722,-109.373 160.262,-110.45 152.695,-103.035 149.722,-109.373"/>
</g>
<!-- Node25 -->
<g id="node23" class="node"><title>Node25</title>
<g id="a_node23"><a xlink:href="ofx_oui_numbox_8cpp.html" target="_top" xlink:title="ofxOuiNumbox.cpp">
<polygon fill="white" stroke="black" points="165.905,-55.5 165.905,-73.5 266.944,-73.5 266.944,-55.5 165.905,-55.5"/>
<text text-anchor="middle" x="216.425" y="-61.5" font-family="Helvetica,sans-Serif" font-size="10.00">ofxOuiNumbox.cpp</text>
</a>
</g>
</g>
<!-- Node22&#45;&gt;Node25 -->
<g id="edge31" class="edge"><title>Node22&#45;&gt;Node25</title>
<path fill="none" stroke="midnightblue" d="M189.602,-101.951C196.561,-92.4941 204.975,-81.0595 210.501,-73.5496"/>
<polygon fill="midnightblue" stroke="midnightblue" points="186.626,-100.09 183.518,-110.219 192.264,-104.239 186.626,-100.09"/>
</g>
<!-- Node23&#45;&gt;Node6 -->
<g id="edge29" class="edge"><title>Node23&#45;&gt;Node6</title>
<path fill="none" stroke="midnightblue" d="M119.475,-55.4294C120.804,-55.2797 122.122,-55.1362 123.425,-55 372.36,-28.9748 674.18,-15.5992 772.092,-11.7182"/>
<polygon fill="midnightblue" stroke="midnightblue" points="118.662,-52.0024 109.157,-56.6825 119.506,-58.9513 118.662,-52.0024"/>
</g>
<!-- Node24 -->
<g id="node22" class="node"><title>Node24</title>
<g id="a_node22"><a xlink:href="ofx_oui_slider_8cpp.html" target="_top" xlink:title="ofxOuiSlider.cpp">
<polygon fill="white" stroke="black" points="20.0134,-0.5 20.0134,-18.5 108.836,-18.5 108.836,-0.5 20.0134,-0.5"/>
<text text-anchor="middle" x="64.4245" y="-6.5" font-family="Helvetica,sans-Serif" font-size="10.00">ofxOuiSlider.cpp</text>
</a>
</g>
</g>
<!-- Node23&#45;&gt;Node24 -->
<g id="edge30" class="edge"><title>Node23&#45;&gt;Node24</title>
<path fill="none" stroke="midnightblue" d="M64.4245,-45.1746C64.4245,-36.0945 64.4245,-25.5949 64.4245,-18.5496"/>
<polygon fill="midnightblue" stroke="midnightblue" points="60.9246,-45.2187 64.4245,-55.2188 67.9246,-45.2188 60.9246,-45.2187"/>
</g>
<!-- Node26&#45;&gt;Node6 -->
<g id="edge33" class="edge"><title>Node26&#45;&gt;Node6</title>
<path fill="none" stroke="midnightblue" d="M687.702,-104.215C699.691,-95.6444 715.088,-84.4175 728.425,-74 753.085,-54.7362 781.094,-30.7682 795.226,-18.5213"/>
<polygon fill="midnightblue" stroke="midnightblue" points="685.412,-101.549 679.289,-110.194 689.468,-107.254 685.412,-101.549"/>
</g>
<!-- Node27 -->
<g id="node25" class="node"><title>Node27</title>
<g id="a_node25"><a xlink:href="ofx_oui_text_input_8cpp.html" target="_top" xlink:title="ofxOuiTextInput.cpp">
<polygon fill="white" stroke="black" points="615.233,-55.5 615.233,-73.5 719.616,-73.5 719.616,-55.5 615.233,-55.5"/>
<text text-anchor="middle" x="667.425" y="-61.5" font-family="Helvetica,sans-Serif" font-size="10.00">ofxOuiTextInput.cpp</text>
</a>
</g>
</g>
<!-- Node26&#45;&gt;Node27 -->
<g id="edge34" class="edge"><title>Node26&#45;&gt;Node27</title>
<path fill="none" stroke="midnightblue" d="M667.425,-100.175C667.425,-91.0945 667.425,-80.5949 667.425,-73.5496"/>
<polygon fill="midnightblue" stroke="midnightblue" points="663.925,-100.219 667.425,-110.219 670.925,-100.219 663.925,-100.219"/>
</g>
<!-- Node28&#45;&gt;Node6 -->
<g id="edge36" class="edge"><title>Node28&#45;&gt;Node6</title>
<path fill="none" stroke="midnightblue" d="M514.715,-105.842C491.081,-93.3503 463.292,-73.4921 479.425,-55 517.238,-11.6565 697.728,-9.00787 772.19,-9.81905"/>
<polygon fill="midnightblue" stroke="midnightblue" points="513.288,-109.042 523.795,-110.407 516.432,-102.788 513.288,-109.042"/>
</g>
<!-- Node29 -->
<g id="node27" class="node"><title>Node29</title>
<g id="a_node27"><a xlink:href="ofx_oui_waveform_8cpp.html" target="_top" xlink:title="ofxOuiWaveform.cpp">
<polygon fill="white" stroke="black" points="487.925,-55.5 487.925,-73.5 596.924,-73.5 596.924,-55.5 487.925,-55.5"/>
<text text-anchor="middle" x="542.425" y="-61.5" font-family="Helvetica,sans-Serif" font-size="10.00">ofxOuiWaveform.cpp</text>
</a>
</g>
</g>
<!-- Node28&#45;&gt;Node29 -->
<g id="edge37" class="edge"><title>Node28&#45;&gt;Node29</title>
<path fill="none" stroke="midnightblue" d="M542.425,-100.175C542.425,-91.0945 542.425,-80.5949 542.425,-73.5496"/>
<polygon fill="midnightblue" stroke="midnightblue" points="538.925,-100.219 542.425,-110.219 545.925,-100.219 538.925,-100.219"/>
</g>
</g>
</svg>
