<?xml version="1.0" encoding="UTF-8" standalone="no"?>
<!DOCTYPE svg PUBLIC "-//W3C//DTD SVG 1.1//EN"
 "http://www.w3.org/Graphics/SVG/1.1/DTD/svg11.dtd">
<!-- Generated by graphviz version 2.38.0 (20140413.2041)
 -->
<!-- Title: ofxCuiCuiCommon.hpp Pages: 1 -->
<svg width="1924pt" height="302pt"
 viewBox="0.00 0.00 1923.93 302.00" xmlns="http://www.w3.org/2000/svg" xmlns:xlink="http://www.w3.org/1999/xlink">
<g id="graph0" class="graph" transform="scale(1 1) rotate(0) translate(4 298)">
<title>ofxCuiCuiCommon.hpp</title>
<polygon fill="white" stroke="none" points="-4,4 -4,-298 1919.93,-298 1919.93,4 -4,4"/>
<!-- Node1 -->
<g id="node1" class="node"><title>Node1</title>
<polygon fill="#bfbfbf" stroke="black" points="909.227,-275.5 909.227,-293.5 1028.61,-293.5 1028.61,-275.5 909.227,-275.5"/>
<text text-anchor="middle" x="968.916" y="-281.5" font-family="Helvetica,sans-Serif" font-size="10.00">ofxCuiCuiCommon.hpp</text>
</g>
<!-- Node2 -->
<g id="node2" class="node"><title>Node2</title>
<g id="a_node2"><a xlink:href="ofx_cui_cui_icon_8hpp.html" target="_top" xlink:title="ofxCuiCuiIcon.hpp">
<polygon fill="white" stroke="black" points="581.059,-220.5 581.059,-238.5 678.773,-238.5 678.773,-220.5 581.059,-220.5"/>
<text text-anchor="middle" x="629.916" y="-226.5" font-family="Helvetica,sans-Serif" font-size="10.00">ofxCuiCuiIcon.hpp</text>
</a>
</g>
</g>
<!-- Node1&#45;&gt;Node2 -->
<g id="edge1" class="edge"><title>Node1&#45;&gt;Node2</title>
<path fill="none" stroke="midnightblue" d="M907.227,-273.855C841.609,-263.597 739.141,-247.576 678.855,-238.151"/>
<polygon fill="midnightblue" stroke="midnightblue" points="907.009,-277.364 917.429,-275.45 908.09,-270.448 907.009,-277.364"/>
</g>
<!-- Node5 -->
<g id="node5" class="node"><title>Node5</title>
<g id="a_node5"><a xlink:href="ofx_cui_cui_8hpp.html" target="_top" xlink:title="ofxCuiCui.hpp">
<polygon fill="white" stroke="black" points="1006.51,-0.5 1006.51,-18.5 1085.32,-18.5 1085.32,-0.5 1006.51,-0.5"/>
<text text-anchor="middle" x="1045.92" y="-6.5" font-family="Helvetica,sans-Serif" font-size="10.00">ofxCuiCui.hpp</text>
</a>
</g>
</g>
<!-- Node1&#45;&gt;Node5 -->
<g id="edge51" class="edge"><title>Node1&#45;&gt;Node5</title>
<path fill="none" stroke="midnightblue" d="M1038.73,-276.228C1085,-269.898 1146.42,-258.561 1197.92,-239 1242.81,-221.949 1267.12,-225.712 1290.92,-184 1318.68,-135.331 1127,-46.0348 1064.89,-18.6803"/>
<polygon fill="midnightblue" stroke="midnightblue" points="1038.26,-272.76 1028.8,-277.542 1039.18,-279.7 1038.26,-272.76"/>
</g>
<!-- Node29 -->
<g id="node29" class="node"><title>Node29</title>
<g id="a_node29"><a xlink:href="ofx_cui_cui_style_8hpp.html" target="_top" xlink:title="ofxCuiCuiStyle.hpp">
<polygon fill="white" stroke="black" points="918.394,-220.5 918.394,-238.5 1019.44,-238.5 1019.44,-220.5 918.394,-220.5"/>
<text text-anchor="middle" x="968.916" y="-226.5" font-family="Helvetica,sans-Serif" font-size="10.00">ofxCuiCuiStyle.hpp</text>
</a>
</g>
</g>
<!-- Node1&#45;&gt;Node29 -->
<g id="edge40" class="edge"><title>Node1&#45;&gt;Node29</title>
<path fill="none" stroke="midnightblue" d="M968.916,-265.175C968.916,-256.094 968.916,-245.595 968.916,-238.55"/>
<polygon fill="midnightblue" stroke="midnightblue" points="965.416,-265.219 968.916,-275.219 972.416,-265.219 965.416,-265.219"/>
</g>
<!-- Node31 -->
<g id="node31" class="node"><title>Node31</title>
<g id="a_node31"><a xlink:href="ofx_cui_cui_text_box_8hpp.html" target="_top" xlink:title="ofxCuiCuiTextBox.hpp">
<polygon fill="white" stroke="black" points="703.724,-220.5 703.724,-238.5 818.108,-238.5 818.108,-220.5 703.724,-220.5"/>
<text text-anchor="middle" x="760.916" y="-226.5" font-family="Helvetica,sans-Serif" font-size="10.00">ofxCuiCuiTextBox.hpp</text>
</a>
</g>
</g>
<!-- Node1&#45;&gt;Node31 -->
<g id="edge44" class="edge"><title>Node1&#45;&gt;Node31</title>
<path fill="none" stroke="midnightblue" d="M927.41,-272.924C887.647,-262.792 828.512,-247.724 792.463,-238.538"/>
<polygon fill="midnightblue" stroke="midnightblue" points="926.771,-276.373 937.325,-275.45 928.499,-269.59 926.771,-276.373"/>
</g>
<!-- Node33 -->
<g id="node33" class="node"><title>Node33</title>
<g id="a_node33"><a xlink:href="ofx_cui_cui_shape_editor_8hpp.html" target="_top" xlink:title="ofxCuiCuiShapeEditor.hpp">
<polygon fill="white" stroke="black" points="1055.26,-220.5 1055.26,-238.5 1188.57,-238.5 1188.57,-220.5 1055.26,-220.5"/>
<text text-anchor="middle" x="1121.92" y="-226.5" font-family="Helvetica,sans-Serif" font-size="10.00">ofxCuiCuiShapeEditor.hpp</text>
</a>
</g>
</g>
<!-- Node1&#45;&gt;Node33 -->
<g id="edge48" class="edge"><title>Node1&#45;&gt;Node33</title>
<path fill="none" stroke="midnightblue" d="M1001.87,-272.084C1030.96,-262.007 1072.65,-247.567 1098.46,-238.625"/>
<polygon fill="midnightblue" stroke="midnightblue" points="1000.46,-268.87 992.153,-275.45 1002.75,-275.484 1000.46,-268.87"/>
</g>
<!-- Node3 -->
<g id="node3" class="node"><title>Node3</title>
<g id="a_node3"><a xlink:href="ofx_cui_cui_component_8hpp.html" target="_top" xlink:title="ofxCuiCuiComponent.hpp">
<polygon fill="white" stroke="black" points="629.66,-165.5 629.66,-183.5 760.172,-183.5 760.172,-165.5 629.66,-165.5"/>
<text text-anchor="middle" x="694.916" y="-171.5" font-family="Helvetica,sans-Serif" font-size="10.00">ofxCuiCuiComponent.hpp</text>
</a>
</g>
</g>
<!-- Node2&#45;&gt;Node3 -->
<g id="edge2" class="edge"><title>Node2&#45;&gt;Node3</title>
<path fill="none" stroke="midnightblue" d="M647.79,-213.926C659.764,-204.162 675.086,-191.669 684.951,-183.625"/>
<polygon fill="midnightblue" stroke="midnightblue" points="645.327,-211.418 639.788,-220.45 649.75,-216.844 645.327,-211.418"/>
</g>
<!-- Node2&#45;&gt;Node5 -->
<g id="edge38" class="edge"><title>Node2&#45;&gt;Node5</title>
<path fill="none" stroke="midnightblue" d="M570.339,-224.046C427.123,-211.421 83.8604,-168.655 201.916,-55 231.233,-26.7759 843.717,-14.0485 1006.49,-11.1568"/>
<polygon fill="midnightblue" stroke="midnightblue" points="570.442,-227.567 580.705,-224.938 571.042,-220.593 570.442,-227.567"/>
</g>
<!-- Node28 -->
<g id="node28" class="node"><title>Node28</title>
<g id="a_node28"><a xlink:href="ofx_cui_cui_icon_8cpp.html" target="_top" xlink:title="ofxCuiCuiIcon.cpp">
<polygon fill="white" stroke="black" points="6.33984,-165.5 6.33984,-183.5 103.492,-183.5 103.492,-165.5 6.33984,-165.5"/>
<text text-anchor="middle" x="54.916" y="-171.5" font-family="Helvetica,sans-Serif" font-size="10.00">ofxCuiCuiIcon.cpp</text>
</a>
</g>
</g>
<!-- Node2&#45;&gt;Node28 -->
<g id="edge39" class="edge"><title>Node2&#45;&gt;Node28</title>
<path fill="none" stroke="midnightblue" d="M570.738,-224.273C475.306,-217.25 281.555,-202.14 117.916,-184 113.309,-183.489 108.518,-182.917 103.727,-182.318"/>
<polygon fill="midnightblue" stroke="midnightblue" points="570.543,-227.768 580.772,-225.008 571.055,-220.786 570.543,-227.768"/>
</g>
<!-- Node4 -->
<g id="node4" class="node"><title>Node4</title>
<g id="a_node4"><a xlink:href="ofx_cui_cui_bpf_8hpp.html" target="_top" xlink:title="ofxCuiCuiBpf.hpp">
<polygon fill="white" stroke="black" points="509.005,-110.5 509.005,-128.5 602.827,-128.5 602.827,-110.5 509.005,-110.5"/>
<text text-anchor="middle" x="555.916" y="-116.5" font-family="Helvetica,sans-Serif" font-size="10.00">ofxCuiCuiBpf.hpp</text>
</a>
</g>
</g>
<!-- Node3&#45;&gt;Node4 -->
<g id="edge3" class="edge"><title>Node3&#45;&gt;Node4</title>
<path fill="none" stroke="midnightblue" d="M664.282,-161.819C637.888,-151.756 600.473,-137.489 577.226,-128.625"/>
<polygon fill="midnightblue" stroke="midnightblue" points="663.214,-165.158 673.805,-165.45 665.708,-158.617 663.214,-165.158"/>
</g>
<!-- Node3&#45;&gt;Node5 -->
<g id="edge36" class="edge"><title>Node3&#45;&gt;Node5</title>
<path fill="none" stroke="midnightblue" d="M770.542,-164.491C867.094,-152.828 1022.33,-133.465 1026.92,-129 1057.8,-98.8976 1051.16,-39.9983 1047.49,-18.5538"/>
<polygon fill="midnightblue" stroke="midnightblue" points="770.03,-161.027 760.521,-165.699 770.868,-167.977 770.03,-161.027"/>
</g>
<!-- Node7 -->
<g id="node7" class="node"><title>Node7</title>
<g id="a_node7"><a xlink:href="ofx_cui_cui_button_8hpp.html" target="_top" xlink:title="ofxCuiCuiButton.hpp">
<polygon fill="white" stroke="black" points="1360.05,-110.5 1360.05,-128.5 1467.78,-128.5 1467.78,-110.5 1360.05,-110.5"/>
<text text-anchor="middle" x="1413.92" y="-116.5" font-family="Helvetica,sans-Serif" font-size="10.00">ofxCuiCuiButton.hpp</text>
</a>
</g>
</g>
<!-- Node3&#45;&gt;Node7 -->
<g id="edge6" class="edge"><title>Node3&#45;&gt;Node7</title>
<path fill="none" stroke="midnightblue" d="M770.286,-164.914C995.338,-144.448 1250.65,-129.429 1359.91,-123.394"/>
<polygon fill="midnightblue" stroke="midnightblue" points="769.909,-161.433 760.269,-165.83 770.547,-168.404 769.909,-161.433"/>
</g>
<!-- Node17 -->
<g id="node17" class="node"><title>Node17</title>
<g id="a_node17"><a xlink:href="ofx_cui_cui_group_8hpp.html" target="_top" xlink:title="ofxCuiCuiGroup.hpp">
<polygon fill="white" stroke="black" points="768.613,-110.5 768.613,-128.5 875.219,-128.5 875.219,-110.5 768.613,-110.5"/>
<text text-anchor="middle" x="821.916" y="-116.5" font-family="Helvetica,sans-Serif" font-size="10.00">ofxCuiCuiGroup.hpp</text>
</a>
</g>
</g>
<!-- Node3&#45;&gt;Node17 -->
<g id="edge21" class="edge"><title>Node3&#45;&gt;Node17</title>
<path fill="none" stroke="midnightblue" d="M723.546,-161.552C747.622,-151.505 781.393,-137.411 802.446,-128.625"/>
<polygon fill="midnightblue" stroke="midnightblue" points="722.085,-158.369 714.205,-165.45 724.781,-164.829 722.085,-158.369"/>
</g>
<!-- Node19 -->
<g id="node19" class="node"><title>Node19</title>
<g id="a_node19"><a xlink:href="ofx_cui_cui_multi_slider_8hpp.html" target="_top" xlink:title="ofxCuiCuiMultiSlider.hpp">
<polygon fill="white" stroke="black" points="893.443,-110.5 893.443,-128.5 1018.39,-128.5 1018.39,-110.5 893.443,-110.5"/>
<text text-anchor="middle" x="955.916" y="-116.5" font-family="Helvetica,sans-Serif" font-size="10.00">ofxCuiCuiMultiSlider.hpp</text>
</a>
</g>
</g>
<!-- Node3&#45;&gt;Node19 -->
<g id="edge24" class="edge"><title>Node3&#45;&gt;Node19</title>
<path fill="none" stroke="midnightblue" d="M744.477,-163.436C794.364,-153.306 870.327,-137.88 916.331,-128.538"/>
<polygon fill="midnightblue" stroke="midnightblue" points="743.66,-160.03 734.556,-165.45 745.053,-166.89 743.66,-160.03"/>
</g>
<!-- Node21 -->
<g id="node21" class="node"><title>Node21</title>
<g id="a_node21"><a xlink:href="ofx_cui_cui_numbox_8hpp.html" target="_top" xlink:title="ofxCuiCuiNumbox.hpp">
<polygon fill="white" stroke="black" points="216.892,-110.5 216.892,-128.5 332.94,-128.5 332.94,-110.5 216.892,-110.5"/>
<text text-anchor="middle" x="274.916" y="-116.5" font-family="Helvetica,sans-Serif" font-size="10.00">ofxCuiCuiNumbox.hpp</text>
</a>
</g>
</g>
<!-- Node3&#45;&gt;Node21 -->
<g id="edge27" class="edge"><title>Node3&#45;&gt;Node21</title>
<path fill="none" stroke="midnightblue" d="M621.127,-164.189C539.116,-153.84 408.356,-137.339 333.201,-127.855"/>
<polygon fill="midnightblue" stroke="midnightblue" points="620.768,-167.671 631.127,-165.45 621.644,-160.726 620.768,-167.671"/>
</g>
<!-- Node25 -->
<g id="node25" class="node"><title>Node25</title>
<g id="a_node25"><a xlink:href="ofx_cui_cui_text_input_8hpp.html" target="_top" xlink:title="ofxCuiCuiTextInput.hpp">
<polygon fill="white" stroke="black" points="371.219,-110.5 371.219,-128.5 490.613,-128.5 490.613,-110.5 371.219,-110.5"/>
<text text-anchor="middle" x="430.916" y="-116.5" font-family="Helvetica,sans-Serif" font-size="10.00">ofxCuiCuiTextInput.hpp</text>
</a>
</g>
</g>
<!-- Node3&#45;&gt;Node25 -->
<g id="edge33" class="edge"><title>Node3&#45;&gt;Node25</title>
<path fill="none" stroke="midnightblue" d="M644.785,-163.436C594.325,-153.306 517.488,-137.88 470.956,-128.538"/>
<polygon fill="midnightblue" stroke="midnightblue" points="644.327,-166.914 654.82,-165.45 645.705,-160.051 644.327,-166.914"/>
</g>
<!-- Node27 -->
<g id="node27" class="node"><title>Node27</title>
<g id="a_node27"><a xlink:href="ofx_cui_cui_component_8cpp.html" target="_top" xlink:title="ofxCuiCuiComponent.cpp">
<polygon fill="white" stroke="black" points="620.941,-110.5 620.941,-128.5 750.891,-128.5 750.891,-110.5 620.941,-110.5"/>
<text text-anchor="middle" x="685.916" y="-116.5" font-family="Helvetica,sans-Serif" font-size="10.00">ofxCuiCuiComponent.cpp</text>
</a>
</g>
</g>
<!-- Node3&#45;&gt;Node27 -->
<g id="edge37" class="edge"><title>Node3&#45;&gt;Node27</title>
<path fill="none" stroke="midnightblue" d="M691.804,-155.175C690.262,-146.094 688.479,-135.595 687.283,-128.55"/>
<polygon fill="midnightblue" stroke="midnightblue" points="688.385,-155.946 693.51,-165.219 695.286,-154.774 688.385,-155.946"/>
</g>
<!-- Node4&#45;&gt;Node5 -->
<g id="edge4" class="edge"><title>Node4&#45;&gt;Node5</title>
<path fill="none" stroke="midnightblue" d="M581.17,-106.06C611.817,-91.507 665.421,-67.7809 713.916,-55 817.387,-27.7301 943.63,-16.6719 1006.46,-12.6088"/>
<polygon fill="midnightblue" stroke="midnightblue" points="579.559,-102.951 572.062,-110.437 582.591,-109.26 579.559,-102.951"/>
</g>
<!-- Node6 -->
<g id="node6" class="node"><title>Node6</title>
<g id="a_node6"><a xlink:href="ofx_cui_cui_bpf_8cpp.html" target="_top" xlink:title="ofxCuiCuiBpf.cpp">
<polygon fill="white" stroke="black" points="544.286,-55.5 544.286,-73.5 637.546,-73.5 637.546,-55.5 544.286,-55.5"/>
<text text-anchor="middle" x="590.916" y="-61.5" font-family="Helvetica,sans-Serif" font-size="10.00">ofxCuiCuiBpf.cpp</text>
</a>
</g>
</g>
<!-- Node4&#45;&gt;Node6 -->
<g id="edge5" class="edge"><title>Node4&#45;&gt;Node6</title>
<path fill="none" stroke="midnightblue" d="M567.038,-101.658C573.245,-92.2587 580.692,-80.9821 585.6,-73.5496"/>
<polygon fill="midnightblue" stroke="midnightblue" points="563.975,-99.9454 561.385,-110.219 569.816,-103.803 563.975,-99.9454"/>
</g>
<!-- Node7&#45;&gt;Node5 -->
<g id="edge7" class="edge"><title>Node7&#45;&gt;Node5</title>
<path fill="none" stroke="midnightblue" d="M1392.83,-105.001C1366.51,-88.3646 1322.77,-61.4952 1304.92,-55 1230.31,-27.8661 1137.47,-17.0594 1085.65,-12.9204"/>
<polygon fill="midnightblue" stroke="midnightblue" points="1391.03,-108.001 1401.35,-110.408 1394.78,-102.092 1391.03,-108.001"/>
</g>
<!-- Node8 -->
<g id="node8" class="node"><title>Node8</title>
<g id="a_node8"><a xlink:href="ofx_cui_cui_check_box_8hpp.html" target="_top" xlink:title="ofxCuiCuiCheckBox.hpp">
<polygon fill="white" stroke="black" points="1351.72,-55.5 1351.72,-73.5 1476.11,-73.5 1476.11,-55.5 1351.72,-55.5"/>
<text text-anchor="middle" x="1413.92" y="-61.5" font-family="Helvetica,sans-Serif" font-size="10.00">ofxCuiCuiCheckBox.hpp</text>
</a>
</g>
</g>
<!-- Node7&#45;&gt;Node8 -->
<g id="edge8" class="edge"><title>Node7&#45;&gt;Node8</title>
<path fill="none" stroke="midnightblue" d="M1413.92,-100.175C1413.92,-91.0945 1413.92,-80.5949 1413.92,-73.5496"/>
<polygon fill="midnightblue" stroke="midnightblue" points="1410.42,-100.219 1413.92,-110.219 1417.42,-100.219 1410.42,-100.219"/>
</g>
<!-- Node10 -->
<g id="node10" class="node"><title>Node10</title>
<g id="a_node10"><a xlink:href="ofx_cui_cui_draggable_button_8hpp.html" target="_top" xlink:title="ofxCuiCuiDraggableButton.hpp">
<polygon fill="white" stroke="black" points="1493.98,-55.5 1493.98,-73.5 1647.85,-73.5 1647.85,-55.5 1493.98,-55.5"/>
<text text-anchor="middle" x="1570.92" y="-61.5" font-family="Helvetica,sans-Serif" font-size="10.00">ofxCuiCuiDraggableButton.hpp</text>
</a>
</g>
</g>
<!-- Node7&#45;&gt;Node10 -->
<g id="edge11" class="edge"><title>Node7&#45;&gt;Node10</title>
<path fill="none" stroke="midnightblue" d="M1447.37,-107.206C1477.33,-97.0914 1520.53,-82.5095 1547.1,-73.5383"/>
<polygon fill="midnightblue" stroke="midnightblue" points="1446.12,-103.936 1437.76,-110.45 1448.36,-110.568 1446.12,-103.936"/>
</g>
<!-- Node12 -->
<g id="node12" class="node"><title>Node12</title>
<g id="a_node12"><a xlink:href="ofx_cui_cui_drop_down_8hpp.html" target="_top" xlink:title="ofxCuiCuiDropDown.hpp">
<polygon fill="white" stroke="black" points="1665.89,-55.5 1665.89,-73.5 1791.94,-73.5 1791.94,-55.5 1665.89,-55.5"/>
<text text-anchor="middle" x="1728.92" y="-61.5" font-family="Helvetica,sans-Serif" font-size="10.00">ofxCuiCuiDropDown.hpp</text>
</a>
</g>
</g>
<!-- Node7&#45;&gt;Node12 -->
<g id="edge14" class="edge"><title>Node7&#45;&gt;Node12</title>
<path fill="none" stroke="midnightblue" d="M1471.86,-108.751C1532.02,-98.6283 1625.04,-82.9776 1681.14,-73.5383"/>
<polygon fill="midnightblue" stroke="midnightblue" points="1471.04,-105.34 1461.76,-110.45 1472.2,-112.243 1471.04,-105.34"/>
</g>
<!-- Node14 -->
<g id="node14" class="node"><title>Node14</title>
<g id="a_node14"><a xlink:href="ofx_cui_cui_matrix_8hpp.html" target="_top" xlink:title="ofxCuiCuiMatrix.hpp">
<polygon fill="white" stroke="black" points="1809.9,-55.5 1809.9,-73.5 1915.93,-73.5 1915.93,-55.5 1809.9,-55.5"/>
<text text-anchor="middle" x="1862.92" y="-61.5" font-family="Helvetica,sans-Serif" font-size="10.00">ofxCuiCuiMatrix.hpp</text>
</a>
</g>
</g>
<!-- Node7&#45;&gt;Node14 -->
<g id="edge17" class="edge"><title>Node7&#45;&gt;Node14</title>
<path fill="none" stroke="midnightblue" d="M1477.8,-111.585C1554.57,-103.176 1687.25,-88.3246 1800.92,-74 1803.83,-73.6332 1806.81,-73.2492 1809.83,-72.8558"/>
<polygon fill="midnightblue" stroke="midnightblue" points="1477.36,-108.112 1467.8,-112.678 1478.12,-115.07 1477.36,-108.112"/>
</g>
<!-- Node16 -->
<g id="node16" class="node"><title>Node16</title>
<g id="a_node16"><a xlink:href="ofx_cui_cui_button_8cpp.html" target="_top" xlink:title="ofxCuiCuiButton.cpp">
<polygon fill="white" stroke="black" points="1188.33,-55.5 1188.33,-73.5 1295.5,-73.5 1295.5,-55.5 1188.33,-55.5"/>
<text text-anchor="middle" x="1241.92" y="-61.5" font-family="Helvetica,sans-Serif" font-size="10.00">ofxCuiCuiButton.cpp</text>
</a>
</g>
</g>
<!-- Node7&#45;&gt;Node16 -->
<g id="edge20" class="edge"><title>Node7&#45;&gt;Node16</title>
<path fill="none" stroke="midnightblue" d="M1378.12,-107.469C1345.26,-97.3454 1297.37,-82.5875 1268,-73.5383"/>
<polygon fill="midnightblue" stroke="midnightblue" points="1377.21,-110.85 1387.79,-110.45 1379.27,-104.161 1377.21,-110.85"/>
</g>
<!-- Node8&#45;&gt;Node5 -->
<g id="edge9" class="edge"><title>Node8&#45;&gt;Node5</title>
<path fill="none" stroke="midnightblue" d="M1348.03,-54.0105C1271.61,-43.0055 1148.13,-25.2212 1085.33,-16.1759"/>
<polygon fill="midnightblue" stroke="midnightblue" points="1347.63,-57.4891 1358.02,-55.4504 1348.63,-50.5606 1347.63,-57.4891"/>
</g>
<!-- Node9 -->
<g id="node9" class="node"><title>Node9</title>
<g id="a_node9"><a xlink:href="ofx_cui_cui_check_box_8cpp.html" target="_top" xlink:title="ofxCuiCuiCheckBox.cpp">
<polygon fill="white" stroke="black" points="1352,-0.5 1352,-18.5 1475.83,-18.5 1475.83,-0.5 1352,-0.5"/>
<text text-anchor="middle" x="1413.92" y="-6.5" font-family="Helvetica,sans-Serif" font-size="10.00">ofxCuiCuiCheckBox.cpp</text>
</a>
</g>
</g>
<!-- Node8&#45;&gt;Node9 -->
<g id="edge10" class="edge"><title>Node8&#45;&gt;Node9</title>
<path fill="none" stroke="midnightblue" d="M1413.92,-45.1746C1413.92,-36.0945 1413.92,-25.5949 1413.92,-18.5496"/>
<polygon fill="midnightblue" stroke="midnightblue" points="1410.42,-45.2187 1413.92,-55.2188 1417.42,-45.2188 1410.42,-45.2187"/>
</g>
<!-- Node10&#45;&gt;Node5 -->
<g id="edge12" class="edge"><title>Node10&#45;&gt;Node5</title>
<path fill="none" stroke="midnightblue" d="M1483.51,-54.6764C1368.06,-43.0217 1169.56,-22.9818 1085.43,-14.4894"/>
<polygon fill="midnightblue" stroke="midnightblue" points="1483.43,-58.1859 1493.73,-55.7081 1484.13,-51.2213 1483.43,-58.1859"/>
</g>
<!-- Node11 -->
<g id="node11" class="node"><title>Node11</title>
<g id="a_node11"><a xlink:href="ofx_cui_cui_draggable_button_8cpp.html" target="_top" xlink:title="ofxCuiCuiDraggableButton.cpp">
<polygon fill="white" stroke="black" points="1494.26,-0.5 1494.26,-18.5 1647.57,-18.5 1647.57,-0.5 1494.26,-0.5"/>
<text text-anchor="middle" x="1570.92" y="-6.5" font-family="Helvetica,sans-Serif" font-size="10.00">ofxCuiCuiDraggableButton.cpp</text>
</a>
</g>
</g>
<!-- Node10&#45;&gt;Node11 -->
<g id="edge13" class="edge"><title>Node10&#45;&gt;Node11</title>
<path fill="none" stroke="midnightblue" d="M1570.92,-45.1746C1570.92,-36.0945 1570.92,-25.5949 1570.92,-18.5496"/>
<polygon fill="midnightblue" stroke="midnightblue" points="1567.42,-45.2187 1570.92,-55.2188 1574.42,-45.2188 1567.42,-45.2187"/>
</g>
<!-- Node12&#45;&gt;Node5 -->
<g id="edge15" class="edge"><title>Node12&#45;&gt;Node5</title>
<path fill="none" stroke="midnightblue" d="M1655.52,-54.9084C1433.93,-33.99 1181.61,-18.403 1085.64,-12.7747"/>
<polygon fill="midnightblue" stroke="midnightblue" points="1655.43,-58.4154 1665.72,-55.8767 1656.09,-51.4468 1655.43,-58.4154"/>
</g>
<!-- Node13 -->
<g id="node13" class="node"><title>Node13</title>
<g id="a_node13"><a xlink:href="ofx_cui_cui_drop_down_8cpp.html" target="_top" xlink:title="ofxCuiCuiDropDown.cpp">
<polygon fill="white" stroke="black" points="1666.17,-0.5 1666.17,-18.5 1791.66,-18.5 1791.66,-0.5 1666.17,-0.5"/>
<text text-anchor="middle" x="1728.92" y="-6.5" font-family="Helvetica,sans-Serif" font-size="10.00">ofxCuiCuiDropDown.cpp</text>
</a>
</g>
</g>
<!-- Node12&#45;&gt;Node13 -->
<g id="edge16" class="edge"><title>Node12&#45;&gt;Node13</title>
<path fill="none" stroke="midnightblue" d="M1728.92,-45.1746C1728.92,-36.0945 1728.92,-25.5949 1728.92,-18.5496"/>
<polygon fill="midnightblue" stroke="midnightblue" points="1725.42,-45.2187 1728.92,-55.2188 1732.42,-45.2188 1725.42,-45.2187"/>
</g>
<!-- Node14&#45;&gt;Node5 -->
<g id="edge18" class="edge"><title>Node14&#45;&gt;Node5</title>
<path fill="none" stroke="midnightblue" d="M1799.51,-54.9438C1520.1,-27.9917 1196.82,-15.509 1085.7,-11.7597"/>
<polygon fill="midnightblue" stroke="midnightblue" points="1799.56,-58.4647 1809.85,-55.9496 1800.23,-51.4976 1799.56,-58.4647"/>
</g>
<!-- Node15 -->
<g id="node15" class="node"><title>Node15</title>
<g id="a_node15"><a xlink:href="ofx_cui_cui_matrix_8cpp.html" target="_top" xlink:title="ofxCuiCuiMatrix.cpp">
<polygon fill="white" stroke="black" points="1810.18,-0.5 1810.18,-18.5 1915.65,-18.5 1915.65,-0.5 1810.18,-0.5"/>
<text text-anchor="middle" x="1862.92" y="-6.5" font-family="Helvetica,sans-Serif" font-size="10.00">ofxCuiCuiMatrix.cpp</text>
</a>
</g>
</g>
<!-- Node14&#45;&gt;Node15 -->
<g id="edge19" class="edge"><title>Node14&#45;&gt;Node15</title>
<path fill="none" stroke="midnightblue" d="M1862.92,-45.1746C1862.92,-36.0945 1862.92,-25.5949 1862.92,-18.5496"/>
<polygon fill="midnightblue" stroke="midnightblue" points="1859.42,-45.2187 1862.92,-55.2188 1866.42,-45.2188 1859.42,-45.2187"/>
</g>
<!-- Node17&#45;&gt;Node5 -->
<g id="edge22" class="edge"><title>Node17&#45;&gt;Node5</title>
<path fill="none" stroke="midnightblue" d="M777.776,-107.679C742.525,-96.9809 702.19,-78.7776 722.916,-55 759.274,-13.2894 928.473,-9.33308 1006.41,-9.79265"/>
<polygon fill="midnightblue" stroke="midnightblue" points="776.951,-111.084 787.529,-110.496 778.893,-104.359 776.951,-111.084"/>
</g>
<!-- Node18 -->
<g id="node18" class="node"><title>Node18</title>
<g id="a_node18"><a xlink:href="ofx_cui_cui_group_8cpp.html" target="_top" xlink:title="ofxCuiCuiGroup.cpp">
<polygon fill="white" stroke="black" points="731.894,-55.5 731.894,-73.5 837.938,-73.5 837.938,-55.5 731.894,-55.5"/>
<text text-anchor="middle" x="784.916" y="-61.5" font-family="Helvetica,sans-Serif" font-size="10.00">ofxCuiCuiGroup.cpp</text>
</a>
</g>
</g>
<!-- Node17&#45;&gt;Node18 -->
<g id="edge23" class="edge"><title>Node17&#45;&gt;Node18</title>
<path fill="none" stroke="midnightblue" d="M810.363,-101.951C803.761,-92.4941 795.778,-81.0595 790.536,-73.5496"/>
<polygon fill="midnightblue" stroke="midnightblue" points="807.541,-104.023 816.135,-110.219 813.28,-100.016 807.541,-104.023"/>
</g>
<!-- Node19&#45;&gt;Node5 -->
<g id="edge25" class="edge"><title>Node19&#45;&gt;Node5</title>
<path fill="none" stroke="midnightblue" d="M924.657,-106.367C899.021,-94.5834 869.306,-75.5099 884.916,-55 899.581,-35.7315 963.627,-22.6653 1006.39,-15.9091"/>
<polygon fill="midnightblue" stroke="midnightblue" points="923.261,-109.576 933.826,-110.368 926.06,-103.161 923.261,-109.576"/>
</g>
<!-- Node20 -->
<g id="node20" class="node"><title>Node20</title>
<g id="a_node20"><a xlink:href="ofx_cui_cui_multi_slider_8cpp.html" target="_top" xlink:title="ofxCuiCuiMultiSlider.cpp">
<polygon fill="white" stroke="black" points="893.724,-55.5 893.724,-73.5 1018.11,-73.5 1018.11,-55.5 893.724,-55.5"/>
<text text-anchor="middle" x="955.916" y="-61.5" font-family="Helvetica,sans-Serif" font-size="10.00">ofxCuiCuiMultiSlider.cpp</text>
</a>
</g>
</g>
<!-- Node19&#45;&gt;Node20 -->
<g id="edge26" class="edge"><title>Node19&#45;&gt;Node20</title>
<path fill="none" stroke="midnightblue" d="M955.916,-100.175C955.916,-91.0945 955.916,-80.5949 955.916,-73.5496"/>
<polygon fill="midnightblue" stroke="midnightblue" points="952.416,-100.219 955.916,-110.219 959.416,-100.219 952.416,-100.219"/>
</g>
<!-- Node21&#45;&gt;Node5 -->
<g id="edge28" class="edge"><title>Node21&#45;&gt;Node5</title>
<path fill="none" stroke="midnightblue" d="M252.847,-104.853C233.897,-91.5061 211.835,-70.9227 226.916,-55 254.012,-26.3913 846.682,-13.9847 1006.51,-11.1519"/>
<polygon fill="midnightblue" stroke="midnightblue" points="250.932,-107.783 261.19,-110.434 254.824,-101.965 250.932,-107.783"/>
</g>
<!-- Node22 -->
<g id="node22" class="node"><title>Node22</title>
<g id="a_node22"><a xlink:href="ofx_cui_cui_slider_8hpp.html" target="_top" xlink:title="ofxCuiCuiSlider.hpp">
<polygon fill="white" stroke="black" points="0,-55.5 0,-73.5 103.832,-73.5 103.832,-55.5 0,-55.5"/>
<text text-anchor="middle" x="51.916" y="-61.5" font-family="Helvetica,sans-Serif" font-size="10.00">ofxCuiCuiSlider.hpp</text>
</a>
</g>
</g>
<!-- Node21&#45;&gt;Node22 -->
<g id="edge29" class="edge"><title>Node21&#45;&gt;Node22</title>
<path fill="none" stroke="midnightblue" d="M231.229,-108.117C188.595,-97.9842 124.633,-82.7826 85.7376,-73.5383"/>
<polygon fill="midnightblue" stroke="midnightblue" points="230.509,-111.543 241.047,-110.45 232.127,-104.733 230.509,-111.543"/>
</g>
<!-- Node24 -->
<g id="node24" class="node"><title>Node24</title>
<g id="a_node24"><a xlink:href="ofx_cui_cui_numbox_8cpp.html" target="_top" xlink:title="ofxCuiCuiNumbox.cpp">
<polygon fill="white" stroke="black" points="236.172,-55.5 236.172,-73.5 351.66,-73.5 351.66,-55.5 236.172,-55.5"/>
<text text-anchor="middle" x="293.916" y="-61.5" font-family="Helvetica,sans-Serif" font-size="10.00">ofxCuiCuiNumbox.cpp</text>
</a>
</g>
</g>
<!-- Node21&#45;&gt;Node24 -->
<g id="edge32" class="edge"><title>Node21&#45;&gt;Node24</title>
<path fill="none" stroke="midnightblue" d="M281.272,-100.771C284.575,-91.5577 288.449,-80.7498 291.03,-73.5496"/>
<polygon fill="midnightblue" stroke="midnightblue" points="277.965,-99.6242 277.885,-110.219 284.554,-101.986 277.965,-99.6242"/>
</g>
<!-- Node22&#45;&gt;Node5 -->
<g id="edge30" class="edge"><title>Node22&#45;&gt;Node5</title>
<path fill="none" stroke="midnightblue" d="M114.094,-55.3516C115.378,-55.2288 116.654,-55.1114 117.916,-55 461.353,-24.6995 878.241,-13.9749 1006.49,-11.2602"/>
<polygon fill="midnightblue" stroke="midnightblue" points="113.699,-51.8736 104.113,-56.3853 114.42,-58.8364 113.699,-51.8736"/>
</g>
<!-- Node23 -->
<g id="node23" class="node"><title>Node23</title>
<g id="a_node23"><a xlink:href="ofx_cui_cui_slider_8cpp.html" target="_top" xlink:title="ofxCuiCuiSlider.cpp">
<polygon fill="white" stroke="black" points="0.280762,-0.5 0.280762,-18.5 103.551,-18.5 103.551,-0.5 0.280762,-0.5"/>
<text text-anchor="middle" x="51.916" y="-6.5" font-family="Helvetica,sans-Serif" font-size="10.00">ofxCuiCuiSlider.cpp</text>
</a>
</g>
</g>
<!-- Node22&#45;&gt;Node23 -->
<g id="edge31" class="edge"><title>Node22&#45;&gt;Node23</title>
<path fill="none" stroke="midnightblue" d="M51.916,-45.1746C51.916,-36.0945 51.916,-25.5949 51.916,-18.5496"/>
<polygon fill="midnightblue" stroke="midnightblue" points="48.4161,-45.2187 51.916,-55.2188 55.4161,-45.2188 48.4161,-45.2187"/>
</g>
<!-- Node25&#45;&gt;Node5 -->
<g id="edge34" class="edge"><title>Node25&#45;&gt;Node5</title>
<path fill="none" stroke="midnightblue" d="M450.851,-104.801C475.827,-87.9137 517.464,-60.7353 534.916,-55 622.371,-26.2595 901.863,-14.9167 1006.17,-11.6161"/>
<polygon fill="midnightblue" stroke="midnightblue" points="448.777,-101.979 442.479,-110.499 452.715,-107.766 448.777,-101.979"/>
</g>
<!-- Node26 -->
<g id="node26" class="node"><title>Node26</title>
<g id="a_node26"><a xlink:href="ofx_cui_cui_text_input_8cpp.html" target="_top" xlink:title="ofxCuiCuiTextInput.cpp">
<polygon fill="white" stroke="black" points="369.5,-55.5 369.5,-73.5 488.332,-73.5 488.332,-55.5 369.5,-55.5"/>
<text text-anchor="middle" x="428.916" y="-61.5" font-family="Helvetica,sans-Serif" font-size="10.00">ofxCuiCuiTextInput.cpp</text>
</a>
</g>
</g>
<!-- Node25&#45;&gt;Node26 -->
<g id="edge35" class="edge"><title>Node25&#45;&gt;Node26</title>
<path fill="none" stroke="midnightblue" d="M430.224,-100.175C429.882,-91.0945 429.486,-80.5949 429.22,-73.5496"/>
<polygon fill="midnightblue" stroke="midnightblue" points="426.729,-100.358 430.604,-110.219 433.724,-100.094 426.729,-100.358"/>
</g>
<!-- Node29&#45;&gt;Node3 -->
<g id="edge41" class="edge"><title>Node29&#45;&gt;Node3</title>
<path fill="none" stroke="midnightblue" d="M917.214,-218.499C864.848,-208.37 784.869,-192.9 736.473,-183.538"/>
<polygon fill="midnightblue" stroke="midnightblue" points="916.819,-221.988 927.301,-220.45 918.148,-215.115 916.819,-221.988"/>
</g>
<!-- Node29&#45;&gt;Node5 -->
<g id="edge42" class="edge"><title>Node29&#45;&gt;Node5</title>
<path fill="none" stroke="midnightblue" d="M992.863,-215.017C1004.79,-207.268 1018.62,-196.578 1027.92,-184 1063.38,-136.041 1076.87,-113.435 1064.92,-55 1062.19,-41.6674 1055.3,-27.3888 1050.62,-18.7005"/>
<polygon fill="midnightblue" stroke="midnightblue" points="990.889,-212.122 984.216,-220.351 994.564,-218.079 990.889,-212.122"/>
</g>
<!-- Node30 -->
<g id="node30" class="node"><title>Node30</title>
<g id="a_node30"><a xlink:href="ofx_cui_cui_style_8cpp.html" target="_top" xlink:title="ofxCuiCuiStyle.cpp">
<polygon fill="white" stroke="black" points="918.675,-165.5 918.675,-183.5 1019.16,-183.5 1019.16,-165.5 918.675,-165.5"/>
<text text-anchor="middle" x="968.916" y="-171.5" font-family="Helvetica,sans-Serif" font-size="10.00">ofxCuiCuiStyle.cpp</text>
</a>
</g>
</g>
<!-- Node29&#45;&gt;Node30 -->
<g id="edge43" class="edge"><title>Node29&#45;&gt;Node30</title>
<path fill="none" stroke="midnightblue" d="M968.916,-210.175C968.916,-201.094 968.916,-190.595 968.916,-183.55"/>
<polygon fill="midnightblue" stroke="midnightblue" points="965.416,-210.219 968.916,-220.219 972.416,-210.219 965.416,-210.219"/>
</g>
<!-- Node31&#45;&gt;Node3 -->
<g id="edge45" class="edge"><title>Node31&#45;&gt;Node3</title>
<path fill="none" stroke="midnightblue" d="M742.767,-213.926C730.609,-204.162 715.051,-191.669 705.034,-183.625"/>
<polygon fill="midnightblue" stroke="midnightblue" points="740.903,-216.918 750.892,-220.45 745.286,-211.46 740.903,-216.918"/>
</g>
<!-- Node31&#45;&gt;Node5 -->
<g id="edge46" class="edge"><title>Node31&#45;&gt;Node5</title>
<path fill="none" stroke="midnightblue" d="M695.51,-219.008C552.525,-197.952 223.565,-147.716 207.916,-129 194.625,-113.104 196.003,-74.8373 218.916,-55 248.997,-28.9572 845.472,-14.6787 1006.27,-11.2927"/>
<polygon fill="midnightblue" stroke="midnightblue" points="695.074,-222.482 705.477,-220.473 696.092,-215.556 695.074,-222.482"/>
</g>
<!-- Node32 -->
<g id="node32" class="node"><title>Node32</title>
<g id="a_node32"><a xlink:href="ofx_cui_cui_text_box_8cpp.html" target="_top" xlink:title="ofxCuiCuiTextBox.cpp">
<polygon fill="white" stroke="black" points="778.005,-165.5 778.005,-183.5 891.827,-183.5 891.827,-165.5 778.005,-165.5"/>
<text text-anchor="middle" x="834.916" y="-171.5" font-family="Helvetica,sans-Serif" font-size="10.00">ofxCuiCuiTextBox.cpp</text>
</a>
</g>
</g>
<!-- Node31&#45;&gt;Node32 -->
<g id="edge47" class="edge"><title>Node31&#45;&gt;Node32</title>
<path fill="none" stroke="midnightblue" d="M780.475,-214.492C794.217,-204.649 812.122,-191.826 823.571,-183.625"/>
<polygon fill="midnightblue" stroke="midnightblue" points="778.247,-211.782 772.155,-220.45 782.323,-217.473 778.247,-211.782"/>
</g>
<!-- Node33&#45;&gt;Node5 -->
<g id="edge49" class="edge"><title>Node33&#45;&gt;Node5</title>
<path fill="none" stroke="midnightblue" d="M1123.46,-210.239C1125.42,-177.112 1125.7,-105.84 1097.92,-55 1089.25,-39.1518 1072.55,-26.4354 1060.4,-18.7188"/>
<polygon fill="midnightblue" stroke="midnightblue" points="1119.97,-210.045 1122.74,-220.27 1126.95,-210.546 1119.97,-210.045"/>
</g>
<!-- Node34 -->
<g id="node34" class="node"><title>Node34</title>
<g id="a_node34"><a xlink:href="ofx_cui_cui_shape_editor_8cpp.html" target="_top" xlink:title="ofxCuiCuiShapeEditor.cpp">
<polygon fill="white" stroke="black" points="1149.54,-165.5 1149.54,-183.5 1282.29,-183.5 1282.29,-165.5 1149.54,-165.5"/>
<text text-anchor="middle" x="1215.92" y="-171.5" font-family="Helvetica,sans-Serif" font-size="10.00">ofxCuiCuiShapeEditor.cpp</text>
</a>
</g>
</g>
<!-- Node33&#45;&gt;Node34 -->
<g id="edge50" class="edge"><title>Node33&#45;&gt;Node34</title>
<path fill="none" stroke="midnightblue" d="M1145.28,-215.328C1162.91,-205.386 1186.55,-192.06 1201.51,-183.625"/>
<polygon fill="midnightblue" stroke="midnightblue" points="1143.18,-212.49 1136.19,-220.45 1146.62,-218.588 1143.18,-212.49"/>
</g>
</g>
</svg>
