<?xml version="1.0" encoding="UTF-8" standalone="no"?>
<!DOCTYPE svg PUBLIC "-//W3C//DTD SVG 1.1//EN"
 "http://www.w3.org/Graphics/SVG/1.1/DTD/svg11.dtd">
<!-- Generated by graphviz version 2.38.0 (20140413.2041)
 -->
<!-- Title: ofxOuiTextBox.hpp Pages: 1 -->
<svg width="1926pt" height="247pt"
 viewBox="0.00 0.00 1925.77 247.00" xmlns="http://www.w3.org/2000/svg" xmlns:xlink="http://www.w3.org/1999/xlink">
<g id="graph0" class="graph" transform="scale(1 1) rotate(0) translate(4 243)">
<title>ofxOuiTextBox.hpp</title>
<polygon fill="white" stroke="none" points="-4,4 -4,-243 1921.77,-243 1921.77,4 -4,4"/>
<!-- Node3 -->
<g id="node1" class="node"><title>Node3</title>
<polygon fill="#bfbfbf" stroke="black" points="1352,-220.5 1352,-238.5 1451.94,-238.5 1451.94,-220.5 1352,-220.5"/>
<text text-anchor="middle" x="1401.97" y="-226.5" font-family="Helvetica,sans-Serif" font-size="10.00">ofxOuiTextBox.hpp</text>
</g>
<!-- Node4 -->
<g id="node2" class="node"><title>Node4</title>
<g id="a_node2"><a xlink:href="ofx_oui_component_8hpp.html" target="_top" xlink:title="ofxOuiComponent.hpp">
<polygon fill="white" stroke="black" points="1013.94,-165.5 1013.94,-183.5 1130,-183.5 1130,-165.5 1013.94,-165.5"/>
<text text-anchor="middle" x="1071.97" y="-171.5" font-family="Helvetica,sans-Serif" font-size="10.00">ofxOuiComponent.hpp</text>
</a>
</g>
</g>
<!-- Node3&#45;&gt;Node4 -->
<g id="edge1" class="edge"><title>Node3&#45;&gt;Node4</title>
<path fill="none" stroke="midnightblue" d="M1341.66,-218.814C1278.64,-208.693 1180.91,-192.997 1122.02,-183.538"/>
<polygon fill="midnightblue" stroke="midnightblue" points="1341.42,-222.32 1351.85,-220.45 1342.53,-215.409 1341.42,-222.32"/>
</g>
<!-- Node6 -->
<g id="node4" class="node"><title>Node6</title>
<g id="a_node4"><a xlink:href="ofx_oui_8hpp.html" target="_top" xlink:title="ofxOui.hpp">
<polygon fill="white" stroke="black" points="959.788,-0.5 959.788,-18.5 1024.15,-18.5 1024.15,-0.5 959.788,-0.5"/>
<text text-anchor="middle" x="991.97" y="-6.5" font-family="Helvetica,sans-Serif" font-size="10.00">ofxOui.hpp</text>
</a>
</g>
</g>
<!-- Node3&#45;&gt;Node6 -->
<g id="edge45" class="edge"><title>Node3&#45;&gt;Node6</title>
<path fill="none" stroke="midnightblue" d="M1397.57,-210.747C1387.27,-170.658 1360.51,-75.0499 1334.97,-55 1287.15,-17.4531 1100.37,-11.4626 1024.38,-10.5987"/>
<polygon fill="midnightblue" stroke="midnightblue" points="1394.18,-211.634 1400.03,-220.473 1400.97,-209.921 1394.18,-211.634"/>
</g>
<!-- Node31 -->
<g id="node29" class="node"><title>Node31</title>
<g id="a_node29"><a xlink:href="ofx_oui_graph_8hpp.html" target="_top" xlink:title="ofxOuiGraph.hpp">
<polygon fill="white" stroke="black" points="1404.89,-165.5 1404.89,-183.5 1497.05,-183.5 1497.05,-165.5 1404.89,-165.5"/>
<text text-anchor="middle" x="1450.97" y="-171.5" font-family="Helvetica,sans-Serif" font-size="10.00">ofxOuiGraph.hpp</text>
</a>
</g>
</g>
<!-- Node3&#45;&gt;Node31 -->
<g id="edge40" class="edge"><title>Node3&#45;&gt;Node31</title>
<path fill="none" stroke="midnightblue" d="M1416.46,-212.822C1425.36,-203.205 1436.37,-191.292 1443.53,-183.55"/>
<polygon fill="midnightblue" stroke="midnightblue" points="1413.85,-210.5 1409.63,-220.219 1418.99,-215.252 1413.85,-210.5"/>
</g>
<!-- Node33 -->
<g id="node31" class="node"><title>Node33</title>
<g id="a_node31"><a xlink:href="ofx_oui_text_box_8cpp.html" target="_top" xlink:title="ofxOuiTextBox.cpp">
<polygon fill="white" stroke="black" points="1515.28,-165.5 1515.28,-183.5 1614.66,-183.5 1614.66,-165.5 1515.28,-165.5"/>
<text text-anchor="middle" x="1564.97" y="-171.5" font-family="Helvetica,sans-Serif" font-size="10.00">ofxOuiTextBox.cpp</text>
</a>
</g>
</g>
<!-- Node3&#45;&gt;Node33 -->
<g id="edge46" class="edge"><title>Node3&#45;&gt;Node33</title>
<path fill="none" stroke="midnightblue" d="M1436.3,-217.338C1467.42,-207.218 1512.54,-192.549 1540.25,-183.538"/>
<polygon fill="midnightblue" stroke="midnightblue" points="1435.15,-214.03 1426.73,-220.45 1437.32,-220.687 1435.15,-214.03"/>
</g>
<!-- Node5 -->
<g id="node3" class="node"><title>Node5</title>
<g id="a_node3"><a xlink:href="ofx_oui_bpf_8hpp.html" target="_top" xlink:title="ofxOuiBpf.hpp">
<polygon fill="white" stroke="black" points="1397.28,-110.5 1397.28,-128.5 1476.66,-128.5 1476.66,-110.5 1397.28,-110.5"/>
<text text-anchor="middle" x="1436.97" y="-116.5" font-family="Helvetica,sans-Serif" font-size="10.00">ofxOuiBpf.hpp</text>
</a>
</g>
</g>
<!-- Node4&#45;&gt;Node5 -->
<g id="edge2" class="edge"><title>Node4&#45;&gt;Node5</title>
<path fill="none" stroke="midnightblue" d="M1137.74,-163.949C1213.25,-152.986 1334.68,-135.353 1397.1,-126.29"/>
<polygon fill="midnightblue" stroke="midnightblue" points="1136.8,-160.55 1127.41,-165.45 1137.81,-167.477 1136.8,-160.55"/>
</g>
<!-- Node4&#45;&gt;Node6 -->
<g id="edge38" class="edge"><title>Node4&#45;&gt;Node6</title>
<path fill="none" stroke="midnightblue" d="M1003.79,-170.093C902.633,-164.332 722.552,-151.085 702.97,-129 627.51,-43.8932 869.713,-18.6981 959.691,-12.3723"/>
<polygon fill="midnightblue" stroke="midnightblue" points="1003.74,-173.596 1013.92,-170.661 1004.13,-166.607 1003.74,-173.596"/>
</g>
<!-- Node8 -->
<g id="node6" class="node"><title>Node8</title>
<g id="a_node6"><a xlink:href="ofx_oui_button_8hpp.html" target="_top" xlink:title="ofxOuiButton.hpp">
<polygon fill="white" stroke="black" points="405.333,-110.5 405.333,-128.5 498.608,-128.5 498.608,-110.5 405.333,-110.5"/>
<text text-anchor="middle" x="451.97" y="-116.5" font-family="Helvetica,sans-Serif" font-size="10.00">ofxOuiButton.hpp</text>
</a>
</g>
</g>
<!-- Node4&#45;&gt;Node8 -->
<g id="edge5" class="edge"><title>Node4&#45;&gt;Node8</title>
<path fill="none" stroke="midnightblue" d="M1003.94,-167.684C877.141,-156.845 607.709,-133.813 498.953,-124.516"/>
<polygon fill="midnightblue" stroke="midnightblue" points="1003.66,-171.173 1013.92,-168.538 1004.26,-164.199 1003.66,-171.173"/>
</g>
<!-- Node18 -->
<g id="node16" class="node"><title>Node18</title>
<g id="a_node16"><a xlink:href="ofx_oui_group_8hpp.html" target="_top" xlink:title="ofxOuiGroup.hpp">
<polygon fill="white" stroke="black" points="845.892,-110.5 845.892,-128.5 938.049,-128.5 938.049,-110.5 845.892,-110.5"/>
<text text-anchor="middle" x="891.97" y="-116.5" font-family="Helvetica,sans-Serif" font-size="10.00">ofxOuiGroup.hpp</text>
</a>
</g>
</g>
<!-- Node4&#45;&gt;Node18 -->
<g id="edge20" class="edge"><title>Node4&#45;&gt;Node18</title>
<path fill="none" stroke="midnightblue" d="M1034.95,-162.6C1000.56,-152.473 950.136,-137.627 919.27,-128.538"/>
<polygon fill="midnightblue" stroke="midnightblue" points="1034.05,-165.983 1044.63,-165.45 1036.03,-159.268 1034.05,-165.983"/>
</g>
<!-- Node20 -->
<g id="node18" class="node"><title>Node20</title>
<g id="a_node18"><a xlink:href="ofx_oui_multi_slider_8hpp.html" target="_top" xlink:title="ofxOuiMultiSlider.hpp">
<polygon fill="white" stroke="black" points="1079.72,-110.5 1079.72,-128.5 1190.22,-128.5 1190.22,-110.5 1079.72,-110.5"/>
<text text-anchor="middle" x="1134.97" y="-116.5" font-family="Helvetica,sans-Serif" font-size="10.00">ofxOuiMultiSlider.hpp</text>
</a>
</g>
</g>
<!-- Node4&#45;&gt;Node20 -->
<g id="edge23" class="edge"><title>Node4&#45;&gt;Node20</title>
<path fill="none" stroke="midnightblue" d="M1089.29,-158.926C1100.9,-149.162 1115.75,-136.669 1125.31,-128.625"/>
<polygon fill="midnightblue" stroke="midnightblue" points="1086.94,-156.334 1081.54,-165.45 1091.44,-161.691 1086.94,-156.334"/>
</g>
<!-- Node22 -->
<g id="node20" class="node"><title>Node22</title>
<g id="a_node20"><a xlink:href="ofx_oui_numbox_8hpp.html" target="_top" xlink:title="ofxOuiNumbox.hpp">
<polygon fill="white" stroke="black" points="1216.17,-110.5 1216.17,-128.5 1317.77,-128.5 1317.77,-110.5 1216.17,-110.5"/>
<text text-anchor="middle" x="1266.97" y="-116.5" font-family="Helvetica,sans-Serif" font-size="10.00">ofxOuiNumbox.hpp</text>
</a>
</g>
</g>
<!-- Node4&#45;&gt;Node22 -->
<g id="edge26" class="edge"><title>Node4&#45;&gt;Node22</title>
<path fill="none" stroke="midnightblue" d="M1111.6,-162.73C1148.87,-152.6 1203.81,-137.666 1237.4,-128.538"/>
<polygon fill="midnightblue" stroke="midnightblue" points="1110.32,-159.45 1101.59,-165.45 1112.15,-166.205 1110.32,-159.45"/>
</g>
<!-- Node26 -->
<g id="node24" class="node"><title>Node26</title>
<g id="a_node24"><a xlink:href="ofx_oui_text_input_8hpp.html" target="_top" xlink:title="ofxOuiTextInput.hpp">
<polygon fill="white" stroke="black" points="956.498,-110.5 956.498,-128.5 1061.44,-128.5 1061.44,-110.5 956.498,-110.5"/>
<text text-anchor="middle" x="1008.97" y="-116.5" font-family="Helvetica,sans-Serif" font-size="10.00">ofxOuiTextInput.hpp</text>
</a>
</g>
</g>
<!-- Node4&#45;&gt;Node26 -->
<g id="edge32" class="edge"><title>Node4&#45;&gt;Node26</title>
<path fill="none" stroke="midnightblue" d="M1054.65,-158.926C1043.04,-149.162 1028.19,-136.669 1018.63,-128.625"/>
<polygon fill="midnightblue" stroke="midnightblue" points="1052.5,-161.691 1062.4,-165.45 1057,-156.334 1052.5,-161.691"/>
</g>
<!-- Node28 -->
<g id="node26" class="node"><title>Node28</title>
<g id="a_node26"><a xlink:href="ofx_oui_waveform_8hpp.html" target="_top" xlink:title="ofxOuiWaveform.hpp">
<polygon fill="white" stroke="black" points="1532.19,-110.5 1532.19,-128.5 1641.75,-128.5 1641.75,-110.5 1532.19,-110.5"/>
<text text-anchor="middle" x="1586.97" y="-116.5" font-family="Helvetica,sans-Serif" font-size="10.00">ofxOuiWaveform.hpp</text>
</a>
</g>
</g>
<!-- Node4&#45;&gt;Node28 -->
<g id="edge35" class="edge"><title>Node4&#45;&gt;Node28</title>
<path fill="none" stroke="midnightblue" d="M1140.04,-166.495C1243.16,-155.883 1436.98,-135.936 1531.84,-126.174"/>
<polygon fill="midnightblue" stroke="midnightblue" points="1139.64,-163.018 1130.05,-167.523 1140.35,-169.981 1139.64,-163.018"/>
</g>
<!-- Node30 -->
<g id="node28" class="node"><title>Node30</title>
<g id="a_node28"><a xlink:href="ofx_oui_component_8cpp.html" target="_top" xlink:title="ofxOuiComponent.cpp">
<polygon fill="white" stroke="black" points="712.219,-110.5 712.219,-128.5 827.721,-128.5 827.721,-110.5 712.219,-110.5"/>
<text text-anchor="middle" x="769.97" y="-116.5" font-family="Helvetica,sans-Serif" font-size="10.00">ofxOuiComponent.cpp</text>
</a>
</g>
</g>
<!-- Node4&#45;&gt;Node30 -->
<g id="edge39" class="edge"><title>Node4&#45;&gt;Node30</title>
<path fill="none" stroke="midnightblue" d="M1016.06,-163.689C958.37,-153.564 869.448,-137.958 815.773,-128.538"/>
<polygon fill="midnightblue" stroke="midnightblue" points="1015.65,-167.169 1026.1,-165.45 1016.86,-160.274 1015.65,-167.169"/>
</g>
<!-- Node5&#45;&gt;Node6 -->
<g id="edge3" class="edge"><title>Node5&#45;&gt;Node6</title>
<path fill="none" stroke="midnightblue" d="M1424.45,-102.19C1411.93,-87.1824 1391.22,-65.6855 1367.97,-55 1306.98,-26.963 1103.96,-15.3375 1024.38,-11.783"/>
<polygon fill="midnightblue" stroke="midnightblue" points="1421.85,-104.538 1430.84,-110.145 1427.31,-100.156 1421.85,-104.538"/>
</g>
<!-- Node7 -->
<g id="node5" class="node"><title>Node7</title>
<g id="a_node5"><a xlink:href="ofx_oui_bpf_8cpp.html" target="_top" xlink:title="ofxOuiBpf.cpp">
<polygon fill="white" stroke="black" points="1527.56,-55.5 1527.56,-73.5 1606.38,-73.5 1606.38,-55.5 1527.56,-55.5"/>
<text text-anchor="middle" x="1566.97" y="-61.5" font-family="Helvetica,sans-Serif" font-size="10.00">ofxOuiBpf.cpp</text>
</a>
</g>
</g>
<!-- Node5&#45;&gt;Node7 -->
<g id="edge4" class="edge"><title>Node5&#45;&gt;Node7</title>
<path fill="none" stroke="midnightblue" d="M1466.28,-106.552C1490.92,-96.5046 1525.49,-82.4113 1547.04,-73.6253"/>
<polygon fill="midnightblue" stroke="midnightblue" points="1464.65,-103.434 1456.71,-110.45 1467.3,-109.916 1464.65,-103.434"/>
</g>
<!-- Node8&#45;&gt;Node6 -->
<g id="edge6" class="edge"><title>Node8&#45;&gt;Node6</title>
<path fill="none" stroke="midnightblue" d="M501.524,-108.222C536.924,-100.321 585.438,-88.3438 626.97,-74 646.719,-67.1795 649.871,-60.7077 669.97,-55 773.116,-25.7084 900.526,-15.384 959.366,-12.0075"/>
<polygon fill="midnightblue" stroke="midnightblue" points="500.458,-104.873 491.444,-110.442 501.963,-111.71 500.458,-104.873"/>
</g>
<!-- Node9 -->
<g id="node7" class="node"><title>Node9</title>
<g id="a_node7"><a xlink:href="ofx_oui_check_box_8hpp.html" target="_top" xlink:title="ofxOuiCheckBox.hpp">
<polygon fill="white" stroke="black" points="0,-55.5 0,-73.5 109.94,-73.5 109.94,-55.5 0,-55.5"/>
<text text-anchor="middle" x="54.9702" y="-61.5" font-family="Helvetica,sans-Serif" font-size="10.00">ofxOuiCheckBox.hpp</text>
</a>
</g>
</g>
<!-- Node8&#45;&gt;Node9 -->
<g id="edge7" class="edge"><title>Node8&#45;&gt;Node9</title>
<path fill="none" stroke="midnightblue" d="M394.925,-110.884C318.866,-100.73 185.138,-82.8776 110.076,-72.8566"/>
<polygon fill="midnightblue" stroke="midnightblue" points="394.887,-114.41 405.262,-112.264 395.813,-107.472 394.887,-114.41"/>
</g>
<!-- Node11 -->
<g id="node9" class="node"><title>Node11</title>
<g id="a_node9"><a xlink:href="ofx_oui_draggable_button_8hpp.html" target="_top" xlink:title="ofxOuiDraggableButton.hpp">
<polygon fill="white" stroke="black" points="238.261,-55.5 238.261,-73.5 377.679,-73.5 377.679,-55.5 238.261,-55.5"/>
<text text-anchor="middle" x="307.97" y="-61.5" font-family="Helvetica,sans-Serif" font-size="10.00">ofxOuiDraggableButton.hpp</text>
</a>
</g>
</g>
<!-- Node8&#45;&gt;Node11 -->
<g id="edge10" class="edge"><title>Node8&#45;&gt;Node11</title>
<path fill="none" stroke="midnightblue" d="M420.594,-106.952C393.233,-96.8814 354.236,-82.5284 330.047,-73.6253"/>
<polygon fill="midnightblue" stroke="midnightblue" points="419.506,-110.281 430.1,-110.45 421.924,-103.712 419.506,-110.281"/>
</g>
<!-- Node13 -->
<g id="node11" class="node"><title>Node13</title>
<g id="a_node11"><a xlink:href="ofx_oui_drop_down_8hpp.html" target="_top" xlink:title="ofxOuiDropDown.hpp">
<polygon fill="white" stroke="black" points="396.167,-55.5 396.167,-73.5 507.773,-73.5 507.773,-55.5 396.167,-55.5"/>
<text text-anchor="middle" x="451.97" y="-61.5" font-family="Helvetica,sans-Serif" font-size="10.00">ofxOuiDropDown.hpp</text>
</a>
</g>
</g>
<!-- Node8&#45;&gt;Node13 -->
<g id="edge13" class="edge"><title>Node8&#45;&gt;Node13</title>
<path fill="none" stroke="midnightblue" d="M451.97,-100.175C451.97,-91.0945 451.97,-80.5949 451.97,-73.5496"/>
<polygon fill="midnightblue" stroke="midnightblue" points="448.47,-100.219 451.97,-110.219 455.47,-100.219 448.47,-100.219"/>
</g>
<!-- Node15 -->
<g id="node13" class="node"><title>Node15</title>
<g id="a_node13"><a xlink:href="ofx_oui_matrix_8hpp.html" target="_top" xlink:title="ofxOuiMatrix.hpp">
<polygon fill="white" stroke="black" points="128.177,-55.5 128.177,-73.5 219.763,-73.5 219.763,-55.5 128.177,-55.5"/>
<text text-anchor="middle" x="173.97" y="-61.5" font-family="Helvetica,sans-Serif" font-size="10.00">ofxOuiMatrix.hpp</text>
</a>
</g>
</g>
<!-- Node8&#45;&gt;Node15 -->
<g id="edge16" class="edge"><title>Node8&#45;&gt;Node15</title>
<path fill="none" stroke="midnightblue" d="M399.845,-108.562C346.721,-98.4345 265.338,-82.9191 216.133,-73.5383"/>
<polygon fill="midnightblue" stroke="midnightblue" points="399.269,-112.016 409.748,-110.45 400.58,-105.14 399.269,-112.016"/>
</g>
<!-- Node17 -->
<g id="node15" class="node"><title>Node17</title>
<g id="a_node15"><a xlink:href="ofx_oui_button_8cpp.html" target="_top" xlink:title="ofxOuiButton.cpp">
<polygon fill="white" stroke="black" points="525.613,-55.5 525.613,-73.5 618.327,-73.5 618.327,-55.5 525.613,-55.5"/>
<text text-anchor="middle" x="571.97" y="-61.5" font-family="Helvetica,sans-Serif" font-size="10.00">ofxOuiButton.cpp</text>
</a>
</g>
</g>
<!-- Node8&#45;&gt;Node17 -->
<g id="edge19" class="edge"><title>Node8&#45;&gt;Node17</title>
<path fill="none" stroke="midnightblue" d="M479.631,-106.283C502.337,-96.2545 533.857,-82.3332 553.573,-73.6253"/>
<polygon fill="midnightblue" stroke="midnightblue" points="477.929,-103.209 470.196,-110.45 480.757,-109.612 477.929,-103.209"/>
</g>
<!-- Node9&#45;&gt;Node6 -->
<g id="edge8" class="edge"><title>Node9&#45;&gt;Node6</title>
<path fill="none" stroke="midnightblue" d="M120.453,-54.9455C454.291,-24.7576 845.499,-13.8825 959.4,-11.2075"/>
<polygon fill="midnightblue" stroke="midnightblue" points="119.737,-51.4962 110.096,-55.8899 120.373,-58.4672 119.737,-51.4962"/>
</g>
<!-- Node10 -->
<g id="node8" class="node"><title>Node10</title>
<g id="a_node8"><a xlink:href="ofx_oui_check_box_8cpp.html" target="_top" xlink:title="ofxOuiCheckBox.cpp">
<polygon fill="white" stroke="black" points="0.280762,-0.5 0.280762,-18.5 109.66,-18.5 109.66,-0.5 0.280762,-0.5"/>
<text text-anchor="middle" x="54.9702" y="-6.5" font-family="Helvetica,sans-Serif" font-size="10.00">ofxOuiCheckBox.cpp</text>
</a>
</g>
</g>
<!-- Node9&#45;&gt;Node10 -->
<g id="edge9" class="edge"><title>Node9&#45;&gt;Node10</title>
<path fill="none" stroke="midnightblue" d="M54.9702,-45.1746C54.9702,-36.0945 54.9702,-25.5949 54.9702,-18.5496"/>
<polygon fill="midnightblue" stroke="midnightblue" points="51.4703,-45.2187 54.9702,-55.2188 58.4703,-45.2188 51.4703,-45.2187"/>
</g>
<!-- Node11&#45;&gt;Node6 -->
<g id="edge11" class="edge"><title>Node11&#45;&gt;Node6</title>
<path fill="none" stroke="midnightblue" d="M387.771,-54.9587C613.082,-34.7244 870.139,-18.0909 959.475,-12.5027"/>
<polygon fill="midnightblue" stroke="midnightblue" points="387.389,-51.4789 377.744,-55.8635 388.019,-58.4505 387.389,-51.4789"/>
</g>
<!-- Node12 -->
<g id="node10" class="node"><title>Node12</title>
<g id="a_node10"><a xlink:href="ofx_oui_draggable_button_8cpp.html" target="_top" xlink:title="ofxOuiDraggableButton.cpp">
<polygon fill="white" stroke="black" points="238.542,-0.5 238.542,-18.5 377.398,-18.5 377.398,-0.5 238.542,-0.5"/>
<text text-anchor="middle" x="307.97" y="-6.5" font-family="Helvetica,sans-Serif" font-size="10.00">ofxOuiDraggableButton.cpp</text>
</a>
</g>
</g>
<!-- Node11&#45;&gt;Node12 -->
<g id="edge12" class="edge"><title>Node11&#45;&gt;Node12</title>
<path fill="none" stroke="midnightblue" d="M307.97,-45.1746C307.97,-36.0945 307.97,-25.5949 307.97,-18.5496"/>
<polygon fill="midnightblue" stroke="midnightblue" points="304.47,-45.2187 307.97,-55.2188 311.47,-45.2188 304.47,-45.2187"/>
</g>
<!-- Node13&#45;&gt;Node6 -->
<g id="edge14" class="edge"><title>Node13&#45;&gt;Node6</title>
<path fill="none" stroke="midnightblue" d="M518.012,-54.9219C690.795,-35.7062 884.321,-19.304 959.676,-13.1148"/>
<polygon fill="midnightblue" stroke="midnightblue" points="517.523,-51.4546 507.974,-56.0441 518.301,-58.4113 517.523,-51.4546"/>
</g>
<!-- Node14 -->
<g id="node12" class="node"><title>Node14</title>
<g id="a_node12"><a xlink:href="ofx_oui_drop_down_8cpp.html" target="_top" xlink:title="ofxOuiDropDown.cpp">
<polygon fill="white" stroke="black" points="396.448,-0.5 396.448,-18.5 507.492,-18.5 507.492,-0.5 396.448,-0.5"/>
<text text-anchor="middle" x="451.97" y="-6.5" font-family="Helvetica,sans-Serif" font-size="10.00">ofxOuiDropDown.cpp</text>
</a>
</g>
</g>
<!-- Node13&#45;&gt;Node14 -->
<g id="edge15" class="edge"><title>Node13&#45;&gt;Node14</title>
<path fill="none" stroke="midnightblue" d="M451.97,-45.1746C451.97,-36.0945 451.97,-25.5949 451.97,-18.5496"/>
<polygon fill="midnightblue" stroke="midnightblue" points="448.47,-45.2187 451.97,-55.2188 455.47,-45.2188 448.47,-45.2187"/>
</g>
<!-- Node15&#45;&gt;Node6 -->
<g id="edge17" class="edge"><title>Node15&#45;&gt;Node6</title>
<path fill="none" stroke="midnightblue" d="M230.101,-54.9942C519.016,-24.7942 855.235,-14.0577 959.529,-11.2888"/>
<polygon fill="midnightblue" stroke="midnightblue" points="229.421,-51.5464 219.844,-56.0767 230.156,-58.5077 229.421,-51.5464"/>
</g>
<!-- Node16 -->
<g id="node14" class="node"><title>Node16</title>
<g id="a_node14"><a xlink:href="ofx_oui_matrix_8cpp.html" target="_top" xlink:title="ofxOuiMatrix.cpp">
<polygon fill="white" stroke="black" points="128.458,-0.5 128.458,-18.5 219.482,-18.5 219.482,-0.5 128.458,-0.5"/>
<text text-anchor="middle" x="173.97" y="-6.5" font-family="Helvetica,sans-Serif" font-size="10.00">ofxOuiMatrix.cpp</text>
</a>
</g>
</g>
<!-- Node15&#45;&gt;Node16 -->
<g id="edge18" class="edge"><title>Node15&#45;&gt;Node16</title>
<path fill="none" stroke="midnightblue" d="M173.97,-45.1746C173.97,-36.0945 173.97,-25.5949 173.97,-18.5496"/>
<polygon fill="midnightblue" stroke="midnightblue" points="170.47,-45.2187 173.97,-55.2188 177.47,-45.2188 170.47,-45.2187"/>
</g>
<!-- Node18&#45;&gt;Node6 -->
<g id="edge21" class="edge"><title>Node18&#45;&gt;Node6</title>
<path fill="none" stroke="midnightblue" d="M835.582,-109.103C797.669,-101.502 752.577,-89.5207 740.97,-74 735.913,-67.2374 735.545,-61.4714 740.97,-55 768.549,-22.1022 898.473,-13.5097 959.787,-11.2773"/>
<polygon fill="midnightblue" stroke="midnightblue" points="835.061,-112.567 845.544,-111.035 836.394,-105.695 835.061,-112.567"/>
</g>
<!-- Node19 -->
<g id="node17" class="node"><title>Node19</title>
<g id="a_node17"><a xlink:href="ofx_oui_group_8cpp.html" target="_top" xlink:title="ofxOuiGroup.cpp">
<polygon fill="white" stroke="black" points="750.172,-55.5 750.172,-73.5 841.768,-73.5 841.768,-55.5 750.172,-55.5"/>
<text text-anchor="middle" x="795.97" y="-61.5" font-family="Helvetica,sans-Serif" font-size="10.00">ofxOuiGroup.cpp</text>
</a>
</g>
</g>
<!-- Node18&#45;&gt;Node19 -->
<g id="edge22" class="edge"><title>Node18&#45;&gt;Node19</title>
<path fill="none" stroke="midnightblue" d="M868.61,-105.603C850.55,-95.6328 826.107,-82.1379 810.688,-73.6253"/>
<polygon fill="midnightblue" stroke="midnightblue" points="866.944,-108.681 877.39,-110.45 870.327,-102.553 866.944,-108.681"/>
</g>
<!-- Node20&#45;&gt;Node6 -->
<g id="edge24" class="edge"><title>Node20&#45;&gt;Node6</title>
<path fill="none" stroke="midnightblue" d="M1105.03,-106.259C1087.74,-98.4184 1066.09,-87.2413 1048.97,-74 1027.41,-57.3221 1007.4,-31.8145 997.844,-18.7857"/>
<polygon fill="midnightblue" stroke="midnightblue" points="1104.08,-109.664 1114.64,-110.48 1106.9,-103.255 1104.08,-109.664"/>
</g>
<!-- Node21 -->
<g id="node19" class="node"><title>Node21</title>
<g id="a_node19"><a xlink:href="ofx_oui_multi_slider_8cpp.html" target="_top" xlink:title="ofxOuiMultiSlider.cpp">
<polygon fill="white" stroke="black" points="1058,-55.5 1058,-73.5 1167.94,-73.5 1167.94,-55.5 1058,-55.5"/>
<text text-anchor="middle" x="1112.97" y="-61.5" font-family="Helvetica,sans-Serif" font-size="10.00">ofxOuiMultiSlider.cpp</text>
</a>
</g>
</g>
<!-- Node20&#45;&gt;Node21 -->
<g id="edge25" class="edge"><title>Node20&#45;&gt;Node21</title>
<path fill="none" stroke="midnightblue" d="M1127.61,-100.771C1123.79,-91.5577 1119.3,-80.7498 1116.31,-73.5496"/>
<polygon fill="midnightblue" stroke="midnightblue" points="1124.47,-102.325 1131.53,-110.219 1130.93,-99.641 1124.47,-102.325"/>
</g>
<!-- Node22&#45;&gt;Node6 -->
<g id="edge27" class="edge"><title>Node22&#45;&gt;Node6</title>
<path fill="none" stroke="midnightblue" d="M1249.73,-103.295C1232.46,-88.8369 1204.56,-67.4955 1176.97,-55 1126.27,-32.0365 1062.16,-20.0235 1024.26,-14.4942"/>
<polygon fill="midnightblue" stroke="midnightblue" points="1247.86,-106.3 1257.73,-110.144 1252.41,-100.982 1247.86,-106.3"/>
</g>
<!-- Node23 -->
<g id="node21" class="node"><title>Node23</title>
<g id="a_node21"><a xlink:href="ofx_oui_slider_8hpp.html" target="_top" xlink:title="ofxOuiSlider.hpp">
<polygon fill="white" stroke="black" points="1420.28,-55.5 1420.28,-73.5 1509.66,-73.5 1509.66,-55.5 1420.28,-55.5"/>
<text text-anchor="middle" x="1464.97" y="-61.5" font-family="Helvetica,sans-Serif" font-size="10.00">ofxOuiSlider.hpp</text>
</a>
</g>
</g>
<!-- Node22&#45;&gt;Node23 -->
<g id="edge28" class="edge"><title>Node22&#45;&gt;Node23</title>
<path fill="none" stroke="midnightblue" d="M1306.72,-107.859C1344.57,-97.728 1400.7,-82.7046 1434.94,-73.5383"/>
<polygon fill="midnightblue" stroke="midnightblue" points="1305.8,-104.484 1297.04,-110.45 1307.61,-111.246 1305.8,-104.484"/>
</g>
<!-- Node25 -->
<g id="node23" class="node"><title>Node25</title>
<g id="a_node23"><a xlink:href="ofx_oui_numbox_8cpp.html" target="_top" xlink:title="ofxOuiNumbox.cpp">
<polygon fill="white" stroke="black" points="1224.45,-55.5 1224.45,-73.5 1325.49,-73.5 1325.49,-55.5 1224.45,-55.5"/>
<text text-anchor="middle" x="1274.97" y="-61.5" font-family="Helvetica,sans-Serif" font-size="10.00">ofxOuiNumbox.cpp</text>
</a>
</g>
</g>
<!-- Node22&#45;&gt;Node25 -->
<g id="edge31" class="edge"><title>Node22&#45;&gt;Node25</title>
<path fill="none" stroke="midnightblue" d="M1269.74,-100.175C1271.11,-91.0945 1272.69,-80.5949 1273.76,-73.5496"/>
<polygon fill="midnightblue" stroke="midnightblue" points="1266.25,-99.8083 1268.22,-110.219 1273.17,-100.853 1266.25,-99.8083"/>
</g>
<!-- Node23&#45;&gt;Node6 -->
<g id="edge29" class="edge"><title>Node23&#45;&gt;Node6</title>
<path fill="none" stroke="midnightblue" d="M1409.91,-55.5032C1408.59,-55.3314 1407.27,-55.1634 1405.97,-55 1263.96,-37.1437 1093.96,-20.2887 1024.22,-13.5679"/>
<polygon fill="midnightblue" stroke="midnightblue" points="1409.84,-59.0247 1420.22,-56.8796 1410.77,-52.0863 1409.84,-59.0247"/>
</g>
<!-- Node24 -->
<g id="node22" class="node"><title>Node24</title>
<g id="a_node22"><a xlink:href="ofx_oui_slider_8cpp.html" target="_top" xlink:title="ofxOuiSlider.cpp">
<polygon fill="white" stroke="black" points="1420.56,-0.5 1420.56,-18.5 1509.38,-18.5 1509.38,-0.5 1420.56,-0.5"/>
<text text-anchor="middle" x="1464.97" y="-6.5" font-family="Helvetica,sans-Serif" font-size="10.00">ofxOuiSlider.cpp</text>
</a>
</g>
</g>
<!-- Node23&#45;&gt;Node24 -->
<g id="edge30" class="edge"><title>Node23&#45;&gt;Node24</title>
<path fill="none" stroke="midnightblue" d="M1464.97,-45.1746C1464.97,-36.0945 1464.97,-25.5949 1464.97,-18.5496"/>
<polygon fill="midnightblue" stroke="midnightblue" points="1461.47,-45.2187 1464.97,-55.2188 1468.47,-45.2188 1461.47,-45.2187"/>
</g>
<!-- Node26&#45;&gt;Node6 -->
<g id="edge33" class="edge"><title>Node26&#45;&gt;Node6</title>
<path fill="none" stroke="midnightblue" d="M1006.1,-100.243C1002.36,-76.4928 995.984,-35.9967 993.263,-18.7118"/>
<polygon fill="midnightblue" stroke="midnightblue" points="1002.68,-101.048 1007.69,-110.382 1009.59,-99.9598 1002.68,-101.048"/>
</g>
<!-- Node27 -->
<g id="node25" class="node"><title>Node27</title>
<g id="a_node25"><a xlink:href="ofx_oui_text_input_8cpp.html" target="_top" xlink:title="ofxOuiTextInput.cpp">
<polygon fill="white" stroke="black" points="859.778,-55.5 859.778,-73.5 964.162,-73.5 964.162,-55.5 859.778,-55.5"/>
<text text-anchor="middle" x="911.97" y="-61.5" font-family="Helvetica,sans-Serif" font-size="10.00">ofxOuiTextInput.cpp</text>
</a>
</g>
</g>
<!-- Node26&#45;&gt;Node27 -->
<g id="edge34" class="edge"><title>Node26&#45;&gt;Node27</title>
<path fill="none" stroke="midnightblue" d="M985.366,-105.603C967.119,-95.6328 942.421,-82.1379 926.841,-73.6253"/>
<polygon fill="midnightblue" stroke="midnightblue" points="983.784,-108.727 994.238,-110.45 987.141,-102.584 983.784,-108.727"/>
</g>
<!-- Node28&#45;&gt;Node6 -->
<g id="edge36" class="edge"><title>Node28&#45;&gt;Node6</title>
<path fill="none" stroke="midnightblue" d="M1602.83,-102.707C1614.94,-88.7511 1627.6,-68.5629 1614.97,-55 1574.47,-11.5009 1146.37,-9.87032 1024.3,-10.2986"/>
<polygon fill="midnightblue" stroke="midnightblue" points="1600.2,-100.399 1595.95,-110.107 1605.32,-105.163 1600.2,-100.399"/>
</g>
<!-- Node29 -->
<g id="node27" class="node"><title>Node29</title>
<g id="a_node27"><a xlink:href="ofx_oui_waveform_8cpp.html" target="_top" xlink:title="ofxOuiWaveform.cpp">
<polygon fill="white" stroke="black" points="1661.47,-55.5 1661.47,-73.5 1770.47,-73.5 1770.47,-55.5 1661.47,-55.5"/>
<text text-anchor="middle" x="1715.97" y="-61.5" font-family="Helvetica,sans-Serif" font-size="10.00">ofxOuiWaveform.cpp</text>
</a>
</g>
</g>
<!-- Node28&#45;&gt;Node29 -->
<g id="edge37" class="edge"><title>Node28&#45;&gt;Node29</title>
<path fill="none" stroke="midnightblue" d="M1616.05,-106.552C1640.51,-96.5046 1674.81,-82.4113 1696.19,-73.6253"/>
<polygon fill="midnightblue" stroke="midnightblue" points="1614.48,-103.413 1606.56,-110.45 1617.14,-109.888 1614.48,-103.413"/>
</g>
<!-- Node31&#45;&gt;Node5 -->
<g id="edge41" class="edge"><title>Node31&#45;&gt;Node5</title>
<path fill="none" stroke="midnightblue" d="M1446.21,-155.473C1443.79,-146.326 1440.98,-135.672 1439.1,-128.55"/>
<polygon fill="midnightblue" stroke="midnightblue" points="1442.84,-156.444 1448.78,-165.219 1449.61,-154.656 1442.84,-156.444"/>
</g>
<!-- Node31&#45;&gt;Node6 -->
<g id="edge43" class="edge"><title>Node31&#45;&gt;Node6</title>
<path fill="none" stroke="midnightblue" d="M1506.02,-163.612C1609.54,-143.861 1819.37,-97.7465 1778.97,-55 1752.65,-27.1507 1169.84,-13.9674 1024.55,-11.1067"/>
<polygon fill="midnightblue" stroke="midnightblue" points="1505.22,-160.201 1496.04,-165.496 1506.52,-167.079 1505.22,-160.201"/>
</g>
<!-- Node31&#45;&gt;Node28 -->
<g id="edge42" class="edge"><title>Node31&#45;&gt;Node28</title>
<path fill="none" stroke="midnightblue" d="M1480.94,-161.819C1506.77,-151.756 1543.37,-137.489 1566.12,-128.625"/>
<polygon fill="midnightblue" stroke="midnightblue" points="1479.67,-158.558 1471.63,-165.45 1482.21,-165.08 1479.67,-158.558"/>
</g>
<!-- Node32 -->
<g id="node30" class="node"><title>Node32</title>
<g id="a_node30"><a xlink:href="ofx_oui_graph_8cpp.html" target="_top" xlink:title="ofxOuiGraph.cpp">
<polygon fill="white" stroke="black" points="1826.17,-110.5 1826.17,-128.5 1917.77,-128.5 1917.77,-110.5 1826.17,-110.5"/>
<text text-anchor="middle" x="1871.97" y="-116.5" font-family="Helvetica,sans-Serif" font-size="10.00">ofxOuiGraph.cpp</text>
</a>
</g>
</g>
<!-- Node31&#45;&gt;Node32 -->
<g id="edge44" class="edge"><title>Node31&#45;&gt;Node32</title>
<path fill="none" stroke="midnightblue" d="M1507.15,-164.884C1643.33,-146.533 1679.35,-146.192 1811.97,-129 1816.56,-128.405 1821.35,-127.763 1826.12,-127.109"/>
<polygon fill="midnightblue" stroke="midnightblue" points="1506.61,-161.425 1497.17,-166.236 1507.55,-168.362 1506.61,-161.425"/>
</g>
</g>
</svg>
