<?xml version="1.0" encoding="UTF-8" standalone="no"?>
<!DOCTYPE svg PUBLIC "-//W3C//DTD SVG 1.1//EN"
 "http://www.w3.org/Graphics/SVG/1.1/DTD/svg11.dtd">
<!-- Generated by graphviz version 2.38.0 (20140413.2041)
 -->
<!-- Title: ofxOuiDraggableButton.hpp Pages: 1 -->
<svg width="230pt" height="82pt"
 viewBox="0.00 0.00 229.61 82.00" xmlns="http://www.w3.org/2000/svg" xmlns:xlink="http://www.w3.org/1999/xlink">
<g id="graph0" class="graph" transform="scale(1 1) rotate(0) translate(4 78)">
<title>ofxOuiDraggableButton.hpp</title>
<polygon fill="white" stroke="none" points="-4,4 -4,-78 225.61,-78 225.61,4 -4,4"/>
<!-- Node8 -->
<g id="node1" class="node"><title>Node8</title>
<polygon fill="#bfbfbf" stroke="black" points="22.4731,-55.5 22.4731,-73.5 161.891,-73.5 161.891,-55.5 22.4731,-55.5"/>
<text text-anchor="middle" x="92.1821" y="-61.5" font-family="Helvetica,sans-Serif" font-size="10.00">ofxOuiDraggableButton.hpp</text>
</g>
<!-- Node9 -->
<g id="node2" class="node"><title>Node9</title>
<g id="a_node2"><a xlink:href="ofx_oui_8hpp.html" target="_top" xlink:title="ofxOui.hpp">
<polygon fill="white" stroke="black" points="0,-0.5 0,-18.5 64.3643,-18.5 64.3643,-0.5 0,-0.5"/>
<text text-anchor="middle" x="32.1821" y="-6.5" font-family="Helvetica,sans-Serif" font-size="10.00">ofxOui.hpp</text>
</a>
</g>
</g>
<!-- Node8&#45;&gt;Node9 -->
<g id="edge1" class="edge"><title>Node8&#45;&gt;Node9</title>
<path fill="none" stroke="midnightblue" d="M75.3604,-48.6408C64.3558,-38.9201 50.3986,-26.5913 41.3806,-18.6253"/>
<polygon fill="midnightblue" stroke="midnightblue" points="73.2575,-51.4532 83.0694,-55.4504 77.8918,-46.2069 73.2575,-51.4532"/>
</g>
<!-- Node10 -->
<g id="node3" class="node"><title>Node10</title>
<g id="a_node3"><a xlink:href="ofx_oui_draggable_button_8cpp.html" target="_top" xlink:title="ofxOuiDraggableButton.cpp">
<polygon fill="white" stroke="black" points="82.7539,-0.5 82.7539,-18.5 221.61,-18.5 221.61,-0.5 82.7539,-0.5"/>
<text text-anchor="middle" x="152.182" y="-6.5" font-family="Helvetica,sans-Serif" font-size="10.00">ofxOuiDraggableButton.cpp</text>
</a>
</g>
</g>
<!-- Node8&#45;&gt;Node10 -->
<g id="edge2" class="edge"><title>Node8&#45;&gt;Node10</title>
<path fill="none" stroke="midnightblue" d="M109.004,-48.6408C120.008,-38.9201 133.966,-26.5913 142.984,-18.6253"/>
<polygon fill="midnightblue" stroke="midnightblue" points="106.472,-46.2069 101.295,-55.4504 111.107,-51.4532 106.472,-46.2069"/>
</g>
</g>
</svg>
