<?xml version="1.0" encoding="UTF-8" standalone="no"?>
<!DOCTYPE svg PUBLIC "-//W3C//DTD SVG 1.1//EN"
 "http://www.w3.org/Graphics/SVG/1.1/DTD/svg11.dtd">
<!-- Generated by graphviz version 2.38.0 (20140413.2041)
 -->
<!-- Title: ofxCuiCuiCheckBox.hpp Pages: 1 -->
<svg width="228pt" height="82pt"
 viewBox="0.00 0.00 228.32 82.00" xmlns="http://www.w3.org/2000/svg" xmlns:xlink="http://www.w3.org/1999/xlink">
<g id="graph0" class="graph" transform="scale(1 1) rotate(0) translate(4 78)">
<title>ofxCuiCuiCheckBox.hpp</title>
<polygon fill="white" stroke="none" points="-4,4 -4,-78 224.32,-78 224.32,4 -4,4"/>
<!-- Node1 -->
<g id="node1" class="node"><title>Node1</title>
<polygon fill="#bfbfbf" stroke="black" points="36.2119,-55.5 36.2119,-73.5 160.601,-73.5 160.601,-55.5 36.2119,-55.5"/>
<text text-anchor="middle" x="98.4062" y="-61.5" font-family="Helvetica,sans-Serif" font-size="10.00">ofxCuiCuiCheckBox.hpp</text>
</g>
<!-- Node2 -->
<g id="node2" class="node"><title>Node2</title>
<g id="a_node2"><a xlink:href="ofx_cui_cui_8hpp.html" target="_top" xlink:title="ofxCuiCui.hpp">
<polygon fill="white" stroke="black" points="0,-0.5 0,-18.5 78.8125,-18.5 78.8125,-0.5 0,-0.5"/>
<text text-anchor="middle" x="39.4062" y="-6.5" font-family="Helvetica,sans-Serif" font-size="10.00">ofxCuiCui.hpp</text>
</a>
</g>
</g>
<!-- Node1&#45;&gt;Node2 -->
<g id="edge1" class="edge"><title>Node1&#45;&gt;Node2</title>
<path fill="none" stroke="midnightblue" d="M81.8649,-48.6408C71.0437,-38.9201 57.3192,-26.5913 48.4514,-18.6253"/>
<polygon fill="midnightblue" stroke="midnightblue" points="79.6672,-51.3715 89.4454,-55.4504 84.3451,-46.164 79.6672,-51.3715"/>
</g>
<!-- Node3 -->
<g id="node3" class="node"><title>Node3</title>
<g id="a_node3"><a xlink:href="ofx_cui_cui_check_box_8cpp.html" target="_top" xlink:title="ofxCuiCuiCheckBox.cpp">
<polygon fill="white" stroke="black" points="96.4927,-0.5 96.4927,-18.5 220.32,-18.5 220.32,-0.5 96.4927,-0.5"/>
<text text-anchor="middle" x="158.406" y="-6.5" font-family="Helvetica,sans-Serif" font-size="10.00">ofxCuiCuiCheckBox.cpp</text>
</a>
</g>
</g>
<!-- Node1&#45;&gt;Node3 -->
<g id="edge2" class="edge"><title>Node1&#45;&gt;Node3</title>
<path fill="none" stroke="midnightblue" d="M115.228,-48.6408C126.233,-38.9201 140.19,-26.5913 149.208,-18.6253"/>
<polygon fill="midnightblue" stroke="midnightblue" points="112.697,-46.2069 107.519,-55.4504 117.331,-51.4532 112.697,-46.2069"/>
</g>
</g>
</svg>
