<?xml version="1.0" encoding="UTF-8" standalone="no"?>
<!DOCTYPE svg PUBLIC "-//W3C//DTD SVG 1.1//EN"
 "http://www.w3.org/Graphics/SVG/1.1/DTD/svg11.dtd">
<!-- Generated by graphviz version 2.38.0 (20140413.2041)
 -->
<!-- Title: ofxOuiBpf.hpp Pages: 1 -->
<svg width="325pt" height="247pt"
 viewBox="0.00 0.00 324.79 247.00" xmlns="http://www.w3.org/2000/svg" xmlns:xlink="http://www.w3.org/1999/xlink">
<g id="graph0" class="graph" transform="scale(1 1) rotate(0) translate(4 243)">
<title>ofxOuiBpf.hpp</title>
<polygon fill="white" stroke="none" points="-4,4 -4,-243 320.793,-243 320.793,4 -4,4"/>
<!-- Node0 -->
<g id="node1" class="node"><title>Node0</title>
<polygon fill="#bfbfbf" stroke="black" points="165.946,-220.5 165.946,-238.5 245.32,-238.5 245.32,-220.5 165.946,-220.5"/>
<text text-anchor="middle" x="205.633" y="-226.5" font-family="Helvetica,sans-Serif" font-size="10.00">ofxOuiBpf.hpp</text>
</g>
<!-- Node1 -->
<g id="node2" class="node"><title>Node1</title>
<g id="a_node2"><a xlink:href="ofx_oui_component_8hpp.html" target="_top" xlink:title="ofxOuiComponent.hpp">
<polygon fill="white" stroke="black" points="86.6011,-165.5 86.6011,-183.5 202.665,-183.5 202.665,-165.5 86.6011,-165.5"/>
<text text-anchor="middle" x="144.633" y="-171.5" font-family="Helvetica,sans-Serif" font-size="10.00">ofxOuiComponent.hpp</text>
</a>
</g>
</g>
<!-- Node0&#45;&gt;Node1 -->
<g id="edge1" class="edge"><title>Node0&#45;&gt;Node1</title>
<path fill="none" stroke="midnightblue" d="M196.368,-220.45C187.232,-212.512 173.049,-200.189 161.842,-190.452"/>
<polygon fill="midnightblue" stroke="midnightblue" points="163.829,-187.542 153.985,-183.625 159.238,-192.826 163.829,-187.542"/>
</g>
<!-- Node7 -->
<g id="node8" class="node"><title>Node7</title>
<g id="a_node8"><a xlink:href="ofx_oui_graph_8hpp.html" target="_top" xlink:title="ofxOuiGraph.hpp">
<polygon fill="white" stroke="black" points="220.554,-165.5 220.554,-183.5 312.711,-183.5 312.711,-165.5 220.554,-165.5"/>
<text text-anchor="middle" x="266.633" y="-171.5" font-family="Helvetica,sans-Serif" font-size="10.00">ofxOuiGraph.hpp</text>
</a>
</g>
</g>
<!-- Node0&#45;&gt;Node7 -->
<g id="edge9" class="edge"><title>Node0&#45;&gt;Node7</title>
<path fill="none" stroke="midnightblue" d="M214.897,-220.45C224.034,-212.512 238.217,-200.189 249.424,-190.452"/>
<polygon fill="midnightblue" stroke="midnightblue" points="252.028,-192.826 257.281,-183.625 247.437,-187.542 252.028,-192.826"/>
</g>
<!-- Node2 -->
<g id="node3" class="node"><title>Node2</title>
<g id="a_node3"><a xlink:href="ofx_oui_icon_8hpp.html" target="_top" xlink:title="ofxOuiIcon.hpp">
<polygon fill="white" stroke="black" points="0,-110.5 0,-128.5 83.2656,-128.5 83.2656,-110.5 0,-110.5"/>
<text text-anchor="middle" x="41.6328" y="-116.5" font-family="Helvetica,sans-Serif" font-size="10.00">ofxOuiIcon.hpp</text>
</a>
</g>
</g>
<!-- Node1&#45;&gt;Node2 -->
<g id="edge2" class="edge"><title>Node1&#45;&gt;Node2</title>
<path fill="none" stroke="midnightblue" d="M128.989,-165.45C112.352,-156.89 85.8044,-143.229 66.337,-133.212"/>
<polygon fill="midnightblue" stroke="midnightblue" points="67.9168,-130.089 57.4235,-128.625 64.714,-136.313 67.9168,-130.089"/>
</g>
<!-- Node5 -->
<g id="node6" class="node"><title>Node5</title>
<g id="a_node6"><a xlink:href="ofx_oui_style_8hpp.html" target="_top" xlink:title="ofxOuiStyle.hpp">
<polygon fill="white" stroke="black" points="101.335,-110.5 101.335,-128.5 187.931,-128.5 187.931,-110.5 101.335,-110.5"/>
<text text-anchor="middle" x="144.633" y="-116.5" font-family="Helvetica,sans-Serif" font-size="10.00">ofxOuiStyle.hpp</text>
</a>
</g>
</g>
<!-- Node1&#45;&gt;Node5 -->
<g id="edge5" class="edge"><title>Node1&#45;&gt;Node5</title>
<path fill="none" stroke="midnightblue" d="M144.633,-165.219C144.633,-158.177 144.633,-147.808 144.633,-138.828"/>
<polygon fill="midnightblue" stroke="midnightblue" points="148.133,-138.55 144.633,-128.55 141.133,-138.55 148.133,-138.55"/>
</g>
<!-- Node6 -->
<g id="node7" class="node"><title>Node6</title>
<g id="a_node7"><a xlink:href="ofx_oui_text_box_8hpp.html" target="_top" xlink:title="ofxOuiTextBox.hpp">
<polygon fill="white" stroke="black" points="205.665,-110.5 205.665,-128.5 305.601,-128.5 305.601,-110.5 205.665,-110.5"/>
<text text-anchor="middle" x="255.633" y="-116.5" font-family="Helvetica,sans-Serif" font-size="10.00">ofxOuiTextBox.hpp</text>
</a>
</g>
</g>
<!-- Node1&#45;&gt;Node6 -->
<g id="edge7" class="edge"><title>Node1&#45;&gt;Node6</title>
<path fill="none" stroke="midnightblue" d="M161.491,-165.45C179.583,-156.812 208.551,-142.98 229.58,-132.94"/>
<polygon fill="midnightblue" stroke="midnightblue" points="231.1,-136.093 238.616,-128.625 228.083,-129.776 231.1,-136.093"/>
</g>
<!-- Node3 -->
<g id="node4" class="node"><title>Node3</title>
<g id="a_node4"><a xlink:href="ofx_oui_common_8hpp.html" target="_top" xlink:title="ofxOuiCommon.hpp">
<polygon fill="white" stroke="black" points="147.167,-55.5 147.167,-73.5 252.098,-73.5 252.098,-55.5 147.167,-55.5"/>
<text text-anchor="middle" x="199.633" y="-61.5" font-family="Helvetica,sans-Serif" font-size="10.00">ofxOuiCommon.hpp</text>
</a>
</g>
</g>
<!-- Node2&#45;&gt;Node3 -->
<g id="edge3" class="edge"><title>Node2&#45;&gt;Node3</title>
<path fill="none" stroke="midnightblue" d="M65.6296,-110.45C92.388,-101.475 135.86,-86.8922 166.002,-76.7813"/>
<polygon fill="midnightblue" stroke="midnightblue" points="167.302,-80.0369 175.67,-73.5383 165.076,-73.4004 167.302,-80.0369"/>
</g>
<!-- Node4 -->
<g id="node5" class="node"><title>Node4</title>
<polygon fill="white" stroke="#bfbfbf" points="239.456,-0.5 239.456,-18.5 293.81,-18.5 293.81,-0.5 239.456,-0.5"/>
<text text-anchor="middle" x="266.633" y="-6.5" font-family="Helvetica,sans-Serif" font-size="10.00">ofMain.h</text>
</g>
<!-- Node3&#45;&gt;Node4 -->
<g id="edge4" class="edge"><title>Node3&#45;&gt;Node4</title>
<path fill="none" stroke="midnightblue" d="M209.809,-55.4504C220.04,-47.3566 236.035,-34.7042 248.452,-24.8822"/>
<polygon fill="midnightblue" stroke="midnightblue" points="250.69,-27.5744 256.361,-18.6253 246.347,-22.0844 250.69,-27.5744"/>
</g>
<!-- Node5&#45;&gt;Node3 -->
<g id="edge6" class="edge"><title>Node5&#45;&gt;Node3</title>
<path fill="none" stroke="midnightblue" d="M153.227,-110.219C161.427,-102.316 173.976,-90.2241 183.957,-80.6057"/>
<polygon fill="midnightblue" stroke="midnightblue" points="186.507,-83.0088 191.279,-73.5496 181.65,-77.9682 186.507,-83.0088"/>
</g>
<!-- Node6&#45;&gt;Node3 -->
<g id="edge8" class="edge"><title>Node6&#45;&gt;Node3</title>
<path fill="none" stroke="midnightblue" d="M246.883,-110.219C238.533,-102.316 225.756,-90.2241 215.594,-80.6057"/>
<polygon fill="midnightblue" stroke="midnightblue" points="217.807,-77.8814 208.138,-73.5496 212.995,-82.9655 217.807,-77.8814"/>
</g>
<!-- Node7&#45;&gt;Node4 -->
<g id="edge10" class="edge"><title>Node7&#45;&gt;Node4</title>
<path fill="none" stroke="midnightblue" d="M280.54,-165.272C292.096,-157.55 307.722,-144.83 314.633,-129 318.011,-121.261 316.515,-118.232 314.633,-110 307.535,-78.9528 289.45,-46.3187 277.617,-27.2195"/>
<polygon fill="midnightblue" stroke="midnightblue" points="280.416,-25.0986 272.09,-18.5457 274.512,-28.8601 280.416,-25.0986"/>
</g>
<!-- Node7&#45;&gt;Node6 -->
<g id="edge11" class="edge"><title>Node7&#45;&gt;Node6</title>
<path fill="none" stroke="midnightblue" d="M264.914,-165.219C263.436,-158.099 261.253,-147.577 259.375,-138.529"/>
<polygon fill="midnightblue" stroke="midnightblue" points="262.763,-137.63 257.303,-128.55 255.909,-139.052 262.763,-137.63"/>
</g>
</g>
</svg>
