<?xml version="1.0" encoding="UTF-8" standalone="no"?>
<!DOCTYPE svg PUBLIC "-//W3C//DTD SVG 1.1//EN"
 "http://www.w3.org/Graphics/SVG/1.1/DTD/svg11.dtd">
<!-- Generated by graphviz version 2.38.0 (20140413.2041)
 -->
<!-- Title: ofxCuiCuiGraph.hpp Pages: 1 -->
<svg width="293pt" height="137pt"
 viewBox="0.00 0.00 293.43 137.00" xmlns="http://www.w3.org/2000/svg" xmlns:xlink="http://www.w3.org/1999/xlink">
<g id="graph0" class="graph" transform="scale(1 1) rotate(0) translate(4 133)">
<title>ofxCuiCuiGraph.hpp</title>
<polygon fill="white" stroke="none" points="-4,4 -4,-133 289.428,-133 289.428,4 -4,4"/>
<!-- Node1 -->
<g id="node1" class="node"><title>Node1</title>
<polygon fill="#bfbfbf" stroke="black" points="61.1035,-110.5 61.1035,-128.5 167.709,-128.5 167.709,-110.5 61.1035,-110.5"/>
<text text-anchor="middle" x="114.406" y="-116.5" font-family="Helvetica,sans-Serif" font-size="10.00">ofxCuiCuiGraph.hpp</text>
</g>
<!-- Node2 -->
<g id="node2" class="node"><title>Node2</title>
<g id="a_node2"><a xlink:href="ofx_cui_cui_bpf_8hpp.html" target="_top" xlink:title="ofxCuiCuiBpf.hpp">
<polygon fill="white" stroke="black" points="67.4951,-55.5 67.4951,-73.5 161.317,-73.5 161.317,-55.5 67.4951,-55.5"/>
<text text-anchor="middle" x="114.406" y="-61.5" font-family="Helvetica,sans-Serif" font-size="10.00">ofxCuiCuiBpf.hpp</text>
</a>
</g>
</g>
<!-- Node1&#45;&gt;Node2 -->
<g id="edge1" class="edge"><title>Node1&#45;&gt;Node2</title>
<path fill="none" stroke="midnightblue" d="M114.406,-100.175C114.406,-91.0945 114.406,-80.5949 114.406,-73.5496"/>
<polygon fill="midnightblue" stroke="midnightblue" points="110.906,-100.219 114.406,-110.219 117.906,-100.219 110.906,-100.219"/>
</g>
<!-- Node3 -->
<g id="node3" class="node"><title>Node3</title>
<g id="a_node3"><a xlink:href="ofx_cui_cui_8hpp.html" target="_top" xlink:title="ofxCuiCui.hpp">
<polygon fill="white" stroke="black" points="0,-0.5 0,-18.5 78.8125,-18.5 78.8125,-0.5 0,-0.5"/>
<text text-anchor="middle" x="39.4062" y="-6.5" font-family="Helvetica,sans-Serif" font-size="10.00">ofxCuiCui.hpp</text>
</a>
</g>
</g>
<!-- Node1&#45;&gt;Node3 -->
<g id="edge4" class="edge"><title>Node1&#45;&gt;Node3</title>
<path fill="none" stroke="midnightblue" d="M91.2832,-104.907C79.9106,-97.1558 66.8647,-86.4964 58.4062,-74 46.5379,-56.4658 41.9149,-31.3328 40.2532,-18.5825"/>
<polygon fill="midnightblue" stroke="midnightblue" points="89.6242,-108.001 99.9254,-110.479 93.4174,-102.118 89.6242,-108.001"/>
</g>
<!-- Node5 -->
<g id="node5" class="node"><title>Node5</title>
<g id="a_node5"><a xlink:href="ofx_cui_cui_graph_8cpp.html" target="_top" xlink:title="ofxCuiCuiGraph.cpp">
<polygon fill="white" stroke="black" points="179.384,-55.5 179.384,-73.5 285.428,-73.5 285.428,-55.5 179.384,-55.5"/>
<text text-anchor="middle" x="232.406" y="-61.5" font-family="Helvetica,sans-Serif" font-size="10.00">ofxCuiCuiGraph.cpp</text>
</a>
</g>
</g>
<!-- Node1&#45;&gt;Node5 -->
<g id="edge5" class="edge"><title>Node1&#45;&gt;Node5</title>
<path fill="none" stroke="midnightblue" d="M141.606,-106.283C163.934,-96.2545 194.929,-82.3332 214.316,-73.6253"/>
<polygon fill="midnightblue" stroke="midnightblue" points="140.016,-103.16 132.328,-110.45 142.884,-109.546 140.016,-103.16"/>
</g>
<!-- Node2&#45;&gt;Node3 -->
<g id="edge2" class="edge"><title>Node2&#45;&gt;Node3</title>
<path fill="none" stroke="midnightblue" d="M94.583,-49.4916C80.6549,-39.6491 62.5084,-26.8255 50.9043,-18.6253"/>
<polygon fill="midnightblue" stroke="midnightblue" points="92.8288,-52.5376 103.015,-55.4504 96.8686,-46.821 92.8288,-52.5376"/>
</g>
<!-- Node4 -->
<g id="node4" class="node"><title>Node4</title>
<g id="a_node4"><a xlink:href="ofx_cui_cui_bpf_8cpp.html" target="_top" xlink:title="ofxCuiCuiBpf.cpp">
<polygon fill="white" stroke="black" points="96.7759,-0.5 96.7759,-18.5 190.037,-18.5 190.037,-0.5 96.7759,-0.5"/>
<text text-anchor="middle" x="143.406" y="-6.5" font-family="Helvetica,sans-Serif" font-size="10.00">ofxCuiCuiBpf.cpp</text>
</a>
</g>
</g>
<!-- Node2&#45;&gt;Node4 -->
<g id="edge3" class="edge"><title>Node2&#45;&gt;Node4</title>
<path fill="none" stroke="midnightblue" d="M123.783,-46.3633C128.893,-37.0242 134.977,-25.9046 139.002,-18.5496"/>
<polygon fill="midnightblue" stroke="midnightblue" points="120.667,-44.7661 118.938,-55.2188 126.808,-48.1262 120.667,-44.7661"/>
</g>
</g>
</svg>
