<?xml version="1.0" encoding="UTF-8" standalone="no"?>
<!DOCTYPE svg PUBLIC "-//W3C//DTD SVG 1.1//EN"
 "http://www.w3.org/Graphics/SVG/1.1/DTD/svg11.dtd">
<!-- Generated by graphviz version 2.38.0 (20140413.2041)
 -->
<!-- Title: ofxCuiCuiButton.cpp Pages: 1 -->
<svg width="357pt" height="302pt"
 viewBox="0.00 0.00 357.05 302.00" xmlns="http://www.w3.org/2000/svg" xmlns:xlink="http://www.w3.org/1999/xlink">
<g id="graph0" class="graph" transform="scale(1 1) rotate(0) translate(4 298)">
<title>ofxCuiCuiButton.cpp</title>
<polygon fill="white" stroke="none" points="-4,4 -4,-298 353.049,-298 353.049,4 -4,4"/>
<!-- Node1 -->
<g id="node1" class="node"><title>Node1</title>
<polygon fill="#bfbfbf" stroke="black" points="112.276,-275.5 112.276,-293.5 219.438,-293.5 219.438,-275.5 112.276,-275.5"/>
<text text-anchor="middle" x="165.857" y="-281.5" font-family="Helvetica,sans-Serif" font-size="10.00">ofxCuiCuiButton.cpp</text>
</g>
<!-- Node2 -->
<g id="node2" class="node"><title>Node2</title>
<g id="a_node2"><a xlink:href="ofx_cui_cui_button_8hpp.html" target="_top" xlink:title="ofxCuiCuiButton.hpp">
<polygon fill="white" stroke="black" points="111.995,-220.5 111.995,-238.5 219.719,-238.5 219.719,-220.5 111.995,-220.5"/>
<text text-anchor="middle" x="165.857" y="-226.5" font-family="Helvetica,sans-Serif" font-size="10.00">ofxCuiCuiButton.hpp</text>
</a>
</g>
</g>
<!-- Node1&#45;&gt;Node2 -->
<g id="edge1" class="edge"><title>Node1&#45;&gt;Node2</title>
<path fill="none" stroke="midnightblue" d="M165.857,-275.219C165.857,-268.177 165.857,-257.808 165.857,-248.828"/>
<polygon fill="midnightblue" stroke="midnightblue" points="169.357,-248.55 165.857,-238.55 162.357,-248.55 169.357,-248.55"/>
</g>
<!-- Node3 -->
<g id="node3" class="node"><title>Node3</title>
<g id="a_node3"><a xlink:href="ofx_cui_cui_component_8hpp.html" target="_top" xlink:title="../core/ofxCuiCuiComponent.hpp">
<polygon fill="white" stroke="black" points="85.3179,-165.5 85.3179,-183.5 246.396,-183.5 246.396,-165.5 85.3179,-165.5"/>
<text text-anchor="middle" x="165.857" y="-171.5" font-family="Helvetica,sans-Serif" font-size="10.00">../core/ofxCuiCuiComponent.hpp</text>
</a>
</g>
</g>
<!-- Node2&#45;&gt;Node3 -->
<g id="edge2" class="edge"><title>Node2&#45;&gt;Node3</title>
<path fill="none" stroke="midnightblue" d="M165.857,-220.219C165.857,-213.177 165.857,-202.808 165.857,-193.828"/>
<polygon fill="midnightblue" stroke="midnightblue" points="169.357,-193.55 165.857,-183.55 162.357,-193.55 169.357,-193.55"/>
</g>
<!-- Node4 -->
<g id="node4" class="node"><title>Node4</title>
<g id="a_node4"><a xlink:href="ofx_cui_cui_icon_8hpp.html" target="_top" xlink:title="ofxCuiCuiIcon.hpp">
<polygon fill="white" stroke="black" points="0,-110.5 0,-128.5 97.7139,-128.5 97.7139,-110.5 0,-110.5"/>
<text text-anchor="middle" x="48.8569" y="-116.5" font-family="Helvetica,sans-Serif" font-size="10.00">ofxCuiCuiIcon.hpp</text>
</a>
</g>
</g>
<!-- Node3&#45;&gt;Node4 -->
<g id="edge3" class="edge"><title>Node3&#45;&gt;Node4</title>
<path fill="none" stroke="midnightblue" d="M148.087,-165.45C128.931,-156.773 98.2079,-142.856 76.0189,-132.804"/>
<polygon fill="midnightblue" stroke="midnightblue" points="77.3472,-129.564 66.7939,-128.625 74.4587,-135.94 77.3472,-129.564"/>
</g>
<!-- Node7 -->
<g id="node7" class="node"><title>Node7</title>
<g id="a_node7"><a xlink:href="ofx_cui_cui_style_8hpp.html" target="_top" xlink:title="ofxCuiCuiStyle.hpp">
<polygon fill="white" stroke="black" points="115.335,-110.5 115.335,-128.5 216.379,-128.5 216.379,-110.5 115.335,-110.5"/>
<text text-anchor="middle" x="165.857" y="-116.5" font-family="Helvetica,sans-Serif" font-size="10.00">ofxCuiCuiStyle.hpp</text>
</a>
</g>
</g>
<!-- Node3&#45;&gt;Node7 -->
<g id="edge6" class="edge"><title>Node3&#45;&gt;Node7</title>
<path fill="none" stroke="midnightblue" d="M165.857,-165.219C165.857,-158.177 165.857,-147.808 165.857,-138.828"/>
<polygon fill="midnightblue" stroke="midnightblue" points="169.357,-138.55 165.857,-128.55 162.357,-138.55 169.357,-138.55"/>
</g>
<!-- Node8 -->
<g id="node8" class="node"><title>Node8</title>
<g id="a_node8"><a xlink:href="ofx_cui_cui_text_box_8hpp.html" target="_top" xlink:title="ofxCuiCuiTextBox.hpp">
<polygon fill="white" stroke="black" points="234.665,-110.5 234.665,-128.5 349.049,-128.5 349.049,-110.5 234.665,-110.5"/>
<text text-anchor="middle" x="291.857" y="-116.5" font-family="Helvetica,sans-Serif" font-size="10.00">ofxCuiCuiTextBox.hpp</text>
</a>
</g>
</g>
<!-- Node3&#45;&gt;Node8 -->
<g id="edge8" class="edge"><title>Node3&#45;&gt;Node8</title>
<path fill="none" stroke="midnightblue" d="M184.994,-165.45C205.808,-156.695 239.304,-142.606 263.246,-132.535"/>
<polygon fill="midnightblue" stroke="midnightblue" points="264.679,-135.729 272.54,-128.625 261.965,-129.276 264.679,-135.729"/>
</g>
<!-- Node5 -->
<g id="node5" class="node"><title>Node5</title>
<g id="a_node5"><a xlink:href="ofx_cui_cui_common_8hpp.html" target="_top" xlink:title="ofxCuiCuiCommon.hpp">
<polygon fill="white" stroke="black" points="106.167,-55.5 106.167,-73.5 225.546,-73.5 225.546,-55.5 106.167,-55.5"/>
<text text-anchor="middle" x="165.857" y="-61.5" font-family="Helvetica,sans-Serif" font-size="10.00">ofxCuiCuiCommon.hpp</text>
</a>
</g>
</g>
<!-- Node4&#45;&gt;Node5 -->
<g id="edge4" class="edge"><title>Node4&#45;&gt;Node5</title>
<path fill="none" stroke="midnightblue" d="M66.6267,-110.45C85.7827,-101.773 116.506,-87.8556 138.695,-77.8041"/>
<polygon fill="midnightblue" stroke="midnightblue" points="140.255,-80.9398 147.92,-73.6253 137.367,-74.5635 140.255,-80.9398"/>
</g>
<!-- Node6 -->
<g id="node6" class="node"><title>Node6</title>
<polygon fill="white" stroke="#bfbfbf" points="138.68,-0.5 138.68,-18.5 193.034,-18.5 193.034,-0.5 138.68,-0.5"/>
<text text-anchor="middle" x="165.857" y="-6.5" font-family="Helvetica,sans-Serif" font-size="10.00">ofMain.h</text>
</g>
<!-- Node5&#45;&gt;Node6 -->
<g id="edge5" class="edge"><title>Node5&#45;&gt;Node6</title>
<path fill="none" stroke="midnightblue" d="M165.857,-55.2188C165.857,-48.1769 165.857,-37.8083 165.857,-28.8277"/>
<polygon fill="midnightblue" stroke="midnightblue" points="169.357,-28.5495 165.857,-18.5496 162.357,-28.5496 169.357,-28.5495"/>
</g>
<!-- Node7&#45;&gt;Node5 -->
<g id="edge7" class="edge"><title>Node7&#45;&gt;Node5</title>
<path fill="none" stroke="midnightblue" d="M165.857,-110.219C165.857,-103.177 165.857,-92.8083 165.857,-83.8277"/>
<polygon fill="midnightblue" stroke="midnightblue" points="169.357,-83.5495 165.857,-73.5496 162.357,-83.5496 169.357,-83.5495"/>
</g>
<!-- Node8&#45;&gt;Node5 -->
<g id="edge9" class="edge"><title>Node8&#45;&gt;Node5</title>
<path fill="none" stroke="midnightblue" d="M272.72,-110.45C251.906,-101.695 218.41,-87.6055 194.468,-77.5346"/>
<polygon fill="midnightblue" stroke="midnightblue" points="195.749,-74.2765 185.174,-73.6253 193.034,-80.7289 195.749,-74.2765"/>
</g>
</g>
</svg>
